<?xml version="1.0" encoding="utf-8" standalone="no"?>
<!DOCTYPE svg PUBLIC "-//W3C//DTD SVG 1.1//EN"
  "http://www.w3.org/Graphics/SVG/1.1/DTD/svg11.dtd">
<!-- Created with matplotlib (https://matplotlib.org/) -->
<svg height="266.109875pt" version="1.1" viewBox="0 0 415.65275 266.109875" width="415.65275pt" xmlns="http://www.w3.org/2000/svg" xmlns:xlink="http://www.w3.org/1999/xlink">
 <defs>
  <style type="text/css">
*{stroke-linecap:butt;stroke-linejoin:round;}
  </style>
 </defs>
 <g id="figure_1">
  <g id="patch_1">
   <path d="M 0 266.109875 
L 415.65275 266.109875 
L 415.65275 0 
L 0 0 
z
" style="fill:#ffffff;"/>
  </g>
  <g id="axes_1">
   <g id="patch_2">
    <path d="M 38.434625 74.214 
L 411.523625 74.214 
L 411.523625 0 
L 38.434625 0 
z
" style="fill:#ffffff;"/>
   </g>
   <g id="matplotlib.axis_1">
    <g id="xtick_1">
     <g id="text_1">
      <!-- Cassava Irrigation High -->
      <defs>
       <path d="M 58.796875 25.09375 
L 68.265625 22.703125 
Q 65.28125 11.03125 57.546875 4.90625 
Q 49.8125 -1.21875 38.625 -1.21875 
Q 27.046875 -1.21875 19.796875 3.484375 
Q 12.546875 8.203125 8.765625 17.140625 
Q 4.984375 26.078125 4.984375 36.328125 
Q 4.984375 47.515625 9.25 55.828125 
Q 13.53125 64.15625 21.40625 68.46875 
Q 29.296875 72.796875 38.765625 72.796875 
Q 49.515625 72.796875 56.828125 67.328125 
Q 64.15625 61.859375 67.046875 51.953125 
L 57.71875 49.75 
Q 55.21875 57.5625 50.484375 61.125 
Q 45.75 64.703125 38.578125 64.703125 
Q 30.328125 64.703125 24.78125 60.734375 
Q 19.234375 56.78125 16.984375 50.109375 
Q 14.75 43.453125 14.75 36.375 
Q 14.75 27.25 17.40625 20.4375 
Q 20.0625 13.625 25.671875 10.25 
Q 31.296875 6.890625 37.84375 6.890625 
Q 45.796875 6.890625 51.3125 11.46875 
Q 56.84375 16.0625 58.796875 25.09375 
z
" id="ArialMT-67"/>
       <path d="M 40.4375 6.390625 
Q 35.546875 2.25 31.03125 0.53125 
Q 26.515625 -1.171875 21.34375 -1.171875 
Q 12.796875 -1.171875 8.203125 3 
Q 3.609375 7.171875 3.609375 13.671875 
Q 3.609375 17.484375 5.34375 20.625 
Q 7.078125 23.78125 9.890625 25.6875 
Q 12.703125 27.59375 16.21875 28.5625 
Q 18.796875 29.25 24.03125 29.890625 
Q 34.671875 31.15625 39.703125 32.90625 
Q 39.75 34.71875 39.75 35.203125 
Q 39.75 40.578125 37.25 42.78125 
Q 33.890625 45.75 27.25 45.75 
Q 21.046875 45.75 18.09375 43.578125 
Q 15.140625 41.40625 13.71875 35.890625 
L 5.125 37.0625 
Q 6.296875 42.578125 8.984375 45.96875 
Q 11.671875 49.359375 16.75 51.1875 
Q 21.828125 53.03125 28.515625 53.03125 
Q 35.15625 53.03125 39.296875 51.46875 
Q 43.453125 49.90625 45.40625 47.53125 
Q 47.359375 45.171875 48.140625 41.546875 
Q 48.578125 39.3125 48.578125 33.453125 
L 48.578125 21.734375 
Q 48.578125 9.46875 49.140625 6.21875 
Q 49.703125 2.984375 51.375 0 
L 42.1875 0 
Q 40.828125 2.734375 40.4375 6.390625 
z
M 39.703125 26.03125 
Q 34.90625 24.078125 25.34375 22.703125 
Q 19.921875 21.921875 17.671875 20.9375 
Q 15.4375 19.96875 14.203125 18.09375 
Q 12.984375 16.21875 12.984375 13.921875 
Q 12.984375 10.40625 15.640625 8.0625 
Q 18.3125 5.71875 23.4375 5.71875 
Q 28.515625 5.71875 32.46875 7.9375 
Q 36.421875 10.15625 38.28125 14.015625 
Q 39.703125 17 39.703125 22.796875 
z
" id="ArialMT-97"/>
       <path d="M 3.078125 15.484375 
L 11.765625 16.84375 
Q 12.5 11.625 15.84375 8.84375 
Q 19.1875 6.0625 25.203125 6.0625 
Q 31.25 6.0625 34.171875 8.515625 
Q 37.109375 10.984375 37.109375 14.3125 
Q 37.109375 17.28125 34.515625 19 
Q 32.71875 20.171875 25.53125 21.96875 
Q 15.875 24.421875 12.140625 26.203125 
Q 8.40625 27.984375 6.46875 31.125 
Q 4.546875 34.28125 4.546875 38.09375 
Q 4.546875 41.546875 6.125 44.5 
Q 7.71875 47.46875 10.453125 49.421875 
Q 12.5 50.921875 16.03125 51.96875 
Q 19.578125 53.03125 23.640625 53.03125 
Q 29.734375 53.03125 34.34375 51.265625 
Q 38.96875 49.515625 41.15625 46.5 
Q 43.359375 43.5 44.1875 38.484375 
L 35.59375 37.3125 
Q 35.015625 41.3125 32.203125 43.546875 
Q 29.390625 45.796875 24.265625 45.796875 
Q 18.21875 45.796875 15.625 43.796875 
Q 13.03125 41.796875 13.03125 39.109375 
Q 13.03125 37.40625 14.109375 36.03125 
Q 15.1875 34.625 17.484375 33.6875 
Q 18.796875 33.203125 25.25 31.453125 
Q 34.578125 28.953125 38.25 27.359375 
Q 41.9375 25.78125 44.03125 22.75 
Q 46.140625 19.734375 46.140625 15.234375 
Q 46.140625 10.84375 43.578125 6.953125 
Q 41.015625 3.078125 36.171875 0.953125 
Q 31.34375 -1.171875 25.25 -1.171875 
Q 15.140625 -1.171875 9.84375 3.03125 
Q 4.546875 7.234375 3.078125 15.484375 
z
" id="ArialMT-115"/>
       <path d="M 21 0 
L 1.265625 51.859375 
L 10.546875 51.859375 
L 21.6875 20.796875 
Q 23.484375 15.765625 25 10.359375 
Q 26.171875 14.453125 28.265625 20.21875 
L 39.796875 51.859375 
L 48.828125 51.859375 
L 29.203125 0 
z
" id="ArialMT-118"/>
       <path id="ArialMT-32"/>
       <path d="M 9.328125 0 
L 9.328125 71.578125 
L 18.796875 71.578125 
L 18.796875 0 
z
" id="ArialMT-73"/>
       <path d="M 6.5 0 
L 6.5 51.859375 
L 14.40625 51.859375 
L 14.40625 44 
Q 17.4375 49.515625 20 51.265625 
Q 22.5625 53.03125 25.640625 53.03125 
Q 30.078125 53.03125 34.671875 50.203125 
L 31.640625 42.046875 
Q 28.421875 43.953125 25.203125 43.953125 
Q 22.3125 43.953125 20.015625 42.21875 
Q 17.71875 40.484375 16.75 37.40625 
Q 15.28125 32.71875 15.28125 27.15625 
L 15.28125 0 
z
" id="ArialMT-114"/>
       <path d="M 6.640625 61.46875 
L 6.640625 71.578125 
L 15.4375 71.578125 
L 15.4375 61.46875 
z
M 6.640625 0 
L 6.640625 51.859375 
L 15.4375 51.859375 
L 15.4375 0 
z
" id="ArialMT-105"/>
       <path d="M 4.984375 -4.296875 
L 13.53125 -5.5625 
Q 14.0625 -9.515625 16.5 -11.328125 
Q 19.78125 -13.765625 25.4375 -13.765625 
Q 31.546875 -13.765625 34.859375 -11.328125 
Q 38.1875 -8.890625 39.359375 -4.5 
Q 40.046875 -1.8125 39.984375 6.78125 
Q 34.234375 0 25.640625 0 
Q 14.9375 0 9.078125 7.71875 
Q 3.21875 15.4375 3.21875 26.21875 
Q 3.21875 33.640625 5.90625 39.90625 
Q 8.59375 46.1875 13.6875 49.609375 
Q 18.796875 53.03125 25.6875 53.03125 
Q 34.859375 53.03125 40.828125 45.609375 
L 40.828125 51.859375 
L 48.921875 51.859375 
L 48.921875 7.03125 
Q 48.921875 -5.078125 46.453125 -10.125 
Q 44 -15.1875 38.640625 -18.109375 
Q 33.296875 -21.046875 25.484375 -21.046875 
Q 16.21875 -21.046875 10.5 -16.875 
Q 4.78125 -12.703125 4.984375 -4.296875 
z
M 12.25 26.859375 
Q 12.25 16.65625 16.296875 11.96875 
Q 20.359375 7.28125 26.46875 7.28125 
Q 32.515625 7.28125 36.609375 11.9375 
Q 40.71875 16.609375 40.71875 26.5625 
Q 40.71875 36.078125 36.5 40.90625 
Q 32.28125 45.75 26.3125 45.75 
Q 20.453125 45.75 16.34375 40.984375 
Q 12.25 36.234375 12.25 26.859375 
z
" id="ArialMT-103"/>
       <path d="M 25.78125 7.859375 
L 27.046875 0.09375 
Q 23.34375 -0.6875 20.40625 -0.6875 
Q 15.625 -0.6875 12.984375 0.828125 
Q 10.359375 2.34375 9.28125 4.8125 
Q 8.203125 7.28125 8.203125 15.1875 
L 8.203125 45.015625 
L 1.765625 45.015625 
L 1.765625 51.859375 
L 8.203125 51.859375 
L 8.203125 64.703125 
L 16.9375 69.96875 
L 16.9375 51.859375 
L 25.78125 51.859375 
L 25.78125 45.015625 
L 16.9375 45.015625 
L 16.9375 14.703125 
Q 16.9375 10.9375 17.40625 9.859375 
Q 17.875 8.796875 18.921875 8.15625 
Q 19.96875 7.515625 21.921875 7.515625 
Q 23.390625 7.515625 25.78125 7.859375 
z
" id="ArialMT-116"/>
       <path d="M 3.328125 25.921875 
Q 3.328125 40.328125 11.328125 47.265625 
Q 18.015625 53.03125 27.640625 53.03125 
Q 38.328125 53.03125 45.109375 46.015625 
Q 51.90625 39.015625 51.90625 26.65625 
Q 51.90625 16.65625 48.90625 10.90625 
Q 45.90625 5.171875 40.15625 2 
Q 34.421875 -1.171875 27.640625 -1.171875 
Q 16.75 -1.171875 10.03125 5.8125 
Q 3.328125 12.796875 3.328125 25.921875 
z
M 12.359375 25.921875 
Q 12.359375 15.96875 16.703125 11.015625 
Q 21.046875 6.0625 27.640625 6.0625 
Q 34.1875 6.0625 38.53125 11.03125 
Q 42.875 16.015625 42.875 26.21875 
Q 42.875 35.84375 38.5 40.796875 
Q 34.125 45.75 27.640625 45.75 
Q 21.046875 45.75 16.703125 40.8125 
Q 12.359375 35.890625 12.359375 25.921875 
z
" id="ArialMT-111"/>
       <path d="M 6.59375 0 
L 6.59375 51.859375 
L 14.5 51.859375 
L 14.5 44.484375 
Q 20.21875 53.03125 31 53.03125 
Q 35.6875 53.03125 39.625 51.34375 
Q 43.5625 49.65625 45.515625 46.921875 
Q 47.46875 44.1875 48.25 40.4375 
Q 48.734375 37.984375 48.734375 31.890625 
L 48.734375 0 
L 39.9375 0 
L 39.9375 31.546875 
Q 39.9375 36.921875 38.90625 39.578125 
Q 37.890625 42.234375 35.28125 43.8125 
Q 32.671875 45.40625 29.15625 45.40625 
Q 23.53125 45.40625 19.453125 41.84375 
Q 15.375 38.28125 15.375 28.328125 
L 15.375 0 
z
" id="ArialMT-110"/>
       <path d="M 8.015625 0 
L 8.015625 71.578125 
L 17.484375 71.578125 
L 17.484375 42.1875 
L 54.6875 42.1875 
L 54.6875 71.578125 
L 64.15625 71.578125 
L 64.15625 0 
L 54.6875 0 
L 54.6875 33.734375 
L 17.484375 33.734375 
L 17.484375 0 
z
" id="ArialMT-72"/>
       <path d="M 6.59375 0 
L 6.59375 71.578125 
L 15.375 71.578125 
L 15.375 45.90625 
Q 21.53125 53.03125 30.90625 53.03125 
Q 36.671875 53.03125 40.921875 50.75 
Q 45.171875 48.484375 47 44.484375 
Q 48.828125 40.484375 48.828125 32.859375 
L 48.828125 0 
L 40.046875 0 
L 40.046875 32.859375 
Q 40.046875 39.453125 37.1875 42.453125 
Q 34.328125 45.453125 29.109375 45.453125 
Q 25.203125 45.453125 21.75 43.421875 
Q 18.3125 41.40625 16.84375 37.9375 
Q 15.375 34.46875 15.375 28.375 
L 15.375 0 
z
" id="ArialMT-104"/>
      </defs>
      <g style="fill:#262626;" transform="translate(40.711625 173.972125)rotate(-90)scale(0.088 -0.088)">
       <use xlink:href="#ArialMT-67"/>
       <use x="72.216797" xlink:href="#ArialMT-97"/>
       <use x="127.832031" xlink:href="#ArialMT-115"/>
       <use x="177.832031" xlink:href="#ArialMT-115"/>
       <use x="227.832031" xlink:href="#ArialMT-97"/>
       <use x="283.447266" xlink:href="#ArialMT-118"/>
       <use x="333.447266" xlink:href="#ArialMT-97"/>
       <use x="389.0625" xlink:href="#ArialMT-32"/>
       <use x="416.845703" xlink:href="#ArialMT-73"/>
       <use x="444.628906" xlink:href="#ArialMT-114"/>
       <use x="477.929688" xlink:href="#ArialMT-114"/>
       <use x="511.230469" xlink:href="#ArialMT-105"/>
       <use x="533.447266" xlink:href="#ArialMT-103"/>
       <use x="589.0625" xlink:href="#ArialMT-97"/>
       <use x="644.677734" xlink:href="#ArialMT-116"/>
       <use x="672.460938" xlink:href="#ArialMT-105"/>
       <use x="694.677734" xlink:href="#ArialMT-111"/>
       <use x="750.292969" xlink:href="#ArialMT-110"/>
       <use x="805.908203" xlink:href="#ArialMT-32"/>
       <use x="833.691406" xlink:href="#ArialMT-72"/>
       <use x="905.908203" xlink:href="#ArialMT-105"/>
       <use x="928.125" xlink:href="#ArialMT-103"/>
       <use x="983.740234" xlink:href="#ArialMT-104"/>
      </g>
     </g>
    </g>
    <g id="xtick_2">
     <g id="text_2">
      <!-- Cassava Irrigation Intermediate -->
      <defs>
       <path d="M 42.09375 16.703125 
L 51.171875 15.578125 
Q 49.03125 7.625 43.21875 3.21875 
Q 37.40625 -1.171875 28.375 -1.171875 
Q 17 -1.171875 10.328125 5.828125 
Q 3.65625 12.84375 3.65625 25.484375 
Q 3.65625 38.578125 10.390625 45.796875 
Q 17.140625 53.03125 27.875 53.03125 
Q 38.28125 53.03125 44.875 45.953125 
Q 51.46875 38.875 51.46875 26.03125 
Q 51.46875 25.25 51.421875 23.6875 
L 12.75 23.6875 
Q 13.234375 15.140625 17.578125 10.59375 
Q 21.921875 6.0625 28.421875 6.0625 
Q 33.25 6.0625 36.671875 8.59375 
Q 40.09375 11.140625 42.09375 16.703125 
z
M 13.234375 30.90625 
L 42.1875 30.90625 
Q 41.609375 37.453125 38.875 40.71875 
Q 34.671875 45.796875 27.984375 45.796875 
Q 21.921875 45.796875 17.796875 41.75 
Q 13.671875 37.703125 13.234375 30.90625 
z
" id="ArialMT-101"/>
       <path d="M 6.59375 0 
L 6.59375 51.859375 
L 14.453125 51.859375 
L 14.453125 44.578125 
Q 16.890625 48.390625 20.9375 50.703125 
Q 25 53.03125 30.171875 53.03125 
Q 35.9375 53.03125 39.625 50.640625 
Q 43.3125 48.25 44.828125 43.953125 
Q 50.984375 53.03125 60.84375 53.03125 
Q 68.5625 53.03125 72.703125 48.75 
Q 76.859375 44.484375 76.859375 35.59375 
L 76.859375 0 
L 68.109375 0 
L 68.109375 32.671875 
Q 68.109375 37.9375 67.25 40.25 
Q 66.40625 42.578125 64.15625 43.984375 
Q 61.921875 45.40625 58.890625 45.40625 
Q 53.421875 45.40625 49.796875 41.765625 
Q 46.1875 38.140625 46.1875 30.125 
L 46.1875 0 
L 37.40625 0 
L 37.40625 33.6875 
Q 37.40625 39.546875 35.25 42.46875 
Q 33.109375 45.40625 28.21875 45.40625 
Q 24.515625 45.40625 21.359375 43.453125 
Q 18.21875 41.5 16.796875 37.734375 
Q 15.375 33.984375 15.375 26.90625 
L 15.375 0 
z
" id="ArialMT-109"/>
       <path d="M 40.234375 0 
L 40.234375 6.546875 
Q 35.296875 -1.171875 25.734375 -1.171875 
Q 19.53125 -1.171875 14.328125 2.25 
Q 9.125 5.671875 6.265625 11.796875 
Q 3.421875 17.921875 3.421875 25.875 
Q 3.421875 33.640625 6 39.96875 
Q 8.59375 46.296875 13.765625 49.65625 
Q 18.953125 53.03125 25.34375 53.03125 
Q 30.03125 53.03125 33.6875 51.046875 
Q 37.359375 49.078125 39.65625 45.90625 
L 39.65625 71.578125 
L 48.390625 71.578125 
L 48.390625 0 
z
M 12.453125 25.875 
Q 12.453125 15.921875 16.640625 10.984375 
Q 20.84375 6.0625 26.5625 6.0625 
Q 32.328125 6.0625 36.34375 10.765625 
Q 40.375 15.484375 40.375 25.140625 
Q 40.375 35.796875 36.265625 40.765625 
Q 32.171875 45.75 26.171875 45.75 
Q 20.3125 45.75 16.375 40.96875 
Q 12.453125 36.1875 12.453125 25.875 
z
" id="ArialMT-100"/>
      </defs>
      <g style="fill:#262626;" transform="translate(51.684831 204.785875)rotate(-90)scale(0.088 -0.088)">
       <use xlink:href="#ArialMT-67"/>
       <use x="72.216797" xlink:href="#ArialMT-97"/>
       <use x="127.832031" xlink:href="#ArialMT-115"/>
       <use x="177.832031" xlink:href="#ArialMT-115"/>
       <use x="227.832031" xlink:href="#ArialMT-97"/>
       <use x="283.447266" xlink:href="#ArialMT-118"/>
       <use x="333.447266" xlink:href="#ArialMT-97"/>
       <use x="389.0625" xlink:href="#ArialMT-32"/>
       <use x="416.845703" xlink:href="#ArialMT-73"/>
       <use x="444.628906" xlink:href="#ArialMT-114"/>
       <use x="477.929688" xlink:href="#ArialMT-114"/>
       <use x="511.230469" xlink:href="#ArialMT-105"/>
       <use x="533.447266" xlink:href="#ArialMT-103"/>
       <use x="589.0625" xlink:href="#ArialMT-97"/>
       <use x="644.677734" xlink:href="#ArialMT-116"/>
       <use x="672.460938" xlink:href="#ArialMT-105"/>
       <use x="694.677734" xlink:href="#ArialMT-111"/>
       <use x="750.292969" xlink:href="#ArialMT-110"/>
       <use x="805.908203" xlink:href="#ArialMT-32"/>
       <use x="833.691406" xlink:href="#ArialMT-73"/>
       <use x="861.474609" xlink:href="#ArialMT-110"/>
       <use x="917.089844" xlink:href="#ArialMT-116"/>
       <use x="944.873047" xlink:href="#ArialMT-101"/>
       <use x="1000.488281" xlink:href="#ArialMT-114"/>
       <use x="1033.789062" xlink:href="#ArialMT-109"/>
       <use x="1117.089844" xlink:href="#ArialMT-101"/>
       <use x="1172.705078" xlink:href="#ArialMT-100"/>
       <use x="1228.320312" xlink:href="#ArialMT-105"/>
       <use x="1250.537109" xlink:href="#ArialMT-97"/>
       <use x="1306.152344" xlink:href="#ArialMT-116"/>
       <use x="1333.935547" xlink:href="#ArialMT-101"/>
      </g>
     </g>
    </g>
    <g id="xtick_3">
     <g id="text_3">
      <!-- Cassava Rain-fed High -->
      <defs>
       <path d="M 7.859375 0 
L 7.859375 71.578125 
L 39.59375 71.578125 
Q 49.171875 71.578125 54.140625 69.640625 
Q 59.125 67.71875 62.109375 62.828125 
Q 65.09375 57.953125 65.09375 52.046875 
Q 65.09375 44.4375 60.15625 39.203125 
Q 55.21875 33.984375 44.921875 32.5625 
Q 48.6875 30.765625 50.640625 29 
Q 54.78125 25.203125 58.5 19.484375 
L 70.953125 0 
L 59.03125 0 
L 49.5625 14.890625 
Q 45.40625 21.34375 42.71875 24.75 
Q 40.046875 28.171875 37.921875 29.53125 
Q 35.796875 30.90625 33.59375 31.453125 
Q 31.984375 31.78125 28.328125 31.78125 
L 17.328125 31.78125 
L 17.328125 0 
z
M 17.328125 39.984375 
L 37.703125 39.984375 
Q 44.1875 39.984375 47.84375 41.328125 
Q 51.515625 42.671875 53.421875 45.625 
Q 55.328125 48.578125 55.328125 52.046875 
Q 55.328125 57.125 51.640625 60.390625 
Q 47.953125 63.671875 39.984375 63.671875 
L 17.328125 63.671875 
z
" id="ArialMT-82"/>
       <path d="M 3.171875 21.484375 
L 3.171875 30.328125 
L 30.171875 30.328125 
L 30.171875 21.484375 
z
" id="ArialMT-45"/>
       <path d="M 8.6875 0 
L 8.6875 45.015625 
L 0.921875 45.015625 
L 0.921875 51.859375 
L 8.6875 51.859375 
L 8.6875 57.375 
Q 8.6875 62.59375 9.625 65.140625 
Q 10.890625 68.5625 14.078125 70.671875 
Q 17.28125 72.796875 23.046875 72.796875 
Q 26.765625 72.796875 31.25 71.921875 
L 29.9375 64.265625 
Q 27.203125 64.75 24.75 64.75 
Q 20.75 64.75 19.09375 63.03125 
Q 17.4375 61.328125 17.4375 56.640625 
L 17.4375 51.859375 
L 27.546875 51.859375 
L 27.546875 45.015625 
L 17.4375 45.015625 
L 17.4375 0 
z
" id="ArialMT-102"/>
      </defs>
      <g style="fill:#262626;" transform="translate(62.658037 172.99725)rotate(-90)scale(0.088 -0.088)">
       <use xlink:href="#ArialMT-67"/>
       <use x="72.216797" xlink:href="#ArialMT-97"/>
       <use x="127.832031" xlink:href="#ArialMT-115"/>
       <use x="177.832031" xlink:href="#ArialMT-115"/>
       <use x="227.832031" xlink:href="#ArialMT-97"/>
       <use x="283.447266" xlink:href="#ArialMT-118"/>
       <use x="333.447266" xlink:href="#ArialMT-97"/>
       <use x="389.0625" xlink:href="#ArialMT-32"/>
       <use x="416.845703" xlink:href="#ArialMT-82"/>
       <use x="489.0625" xlink:href="#ArialMT-97"/>
       <use x="544.677734" xlink:href="#ArialMT-105"/>
       <use x="566.894531" xlink:href="#ArialMT-110"/>
       <use x="622.509766" xlink:href="#ArialMT-45"/>
       <use x="655.810547" xlink:href="#ArialMT-102"/>
       <use x="683.59375" xlink:href="#ArialMT-101"/>
       <use x="739.208984" xlink:href="#ArialMT-100"/>
       <use x="794.824219" xlink:href="#ArialMT-32"/>
       <use x="822.607422" xlink:href="#ArialMT-72"/>
       <use x="894.824219" xlink:href="#ArialMT-105"/>
       <use x="917.041016" xlink:href="#ArialMT-103"/>
       <use x="972.65625" xlink:href="#ArialMT-104"/>
      </g>
     </g>
    </g>
    <g id="xtick_4">
     <g id="text_4">
      <!-- Cassava Rain-fed Intermediate -->
      <g style="fill:#262626;" transform="translate(73.62918 203.811)rotate(-90)scale(0.088 -0.088)">
       <use xlink:href="#ArialMT-67"/>
       <use x="72.216797" xlink:href="#ArialMT-97"/>
       <use x="127.832031" xlink:href="#ArialMT-115"/>
       <use x="177.832031" xlink:href="#ArialMT-115"/>
       <use x="227.832031" xlink:href="#ArialMT-97"/>
       <use x="283.447266" xlink:href="#ArialMT-118"/>
       <use x="333.447266" xlink:href="#ArialMT-97"/>
       <use x="389.0625" xlink:href="#ArialMT-32"/>
       <use x="416.845703" xlink:href="#ArialMT-82"/>
       <use x="489.0625" xlink:href="#ArialMT-97"/>
       <use x="544.677734" xlink:href="#ArialMT-105"/>
       <use x="566.894531" xlink:href="#ArialMT-110"/>
       <use x="622.509766" xlink:href="#ArialMT-45"/>
       <use x="655.810547" xlink:href="#ArialMT-102"/>
       <use x="683.59375" xlink:href="#ArialMT-101"/>
       <use x="739.208984" xlink:href="#ArialMT-100"/>
       <use x="794.824219" xlink:href="#ArialMT-32"/>
       <use x="822.607422" xlink:href="#ArialMT-73"/>
       <use x="850.390625" xlink:href="#ArialMT-110"/>
       <use x="906.005859" xlink:href="#ArialMT-116"/>
       <use x="933.789062" xlink:href="#ArialMT-101"/>
       <use x="989.404297" xlink:href="#ArialMT-114"/>
       <use x="1022.705078" xlink:href="#ArialMT-109"/>
       <use x="1106.005859" xlink:href="#ArialMT-101"/>
       <use x="1161.621094" xlink:href="#ArialMT-100"/>
       <use x="1217.236328" xlink:href="#ArialMT-105"/>
       <use x="1239.453125" xlink:href="#ArialMT-97"/>
       <use x="1295.068359" xlink:href="#ArialMT-116"/>
       <use x="1322.851562" xlink:href="#ArialMT-101"/>
      </g>
     </g>
    </g>
    <g id="xtick_5">
     <g id="text_5">
      <!-- Cassava Rain-fed Low -->
      <defs>
       <path d="M 7.328125 0 
L 7.328125 71.578125 
L 16.796875 71.578125 
L 16.796875 8.453125 
L 52.046875 8.453125 
L 52.046875 0 
z
" id="ArialMT-76"/>
       <path d="M 16.15625 0 
L 0.296875 51.859375 
L 9.375 51.859375 
L 17.625 21.921875 
L 20.703125 10.796875 
Q 20.90625 11.625 23.390625 21.484375 
L 31.640625 51.859375 
L 40.671875 51.859375 
L 48.4375 21.78125 
L 51.03125 11.859375 
L 54 21.875 
L 62.890625 51.859375 
L 71.4375 51.859375 
L 55.21875 0 
L 46.09375 0 
L 37.84375 31.0625 
L 35.84375 39.890625 
L 25.34375 0 
z
" id="ArialMT-119"/>
      </defs>
      <g style="fill:#262626;" transform="translate(84.602386 171.042)rotate(-90)scale(0.088 -0.088)">
       <use xlink:href="#ArialMT-67"/>
       <use x="72.216797" xlink:href="#ArialMT-97"/>
       <use x="127.832031" xlink:href="#ArialMT-115"/>
       <use x="177.832031" xlink:href="#ArialMT-115"/>
       <use x="227.832031" xlink:href="#ArialMT-97"/>
       <use x="283.447266" xlink:href="#ArialMT-118"/>
       <use x="333.447266" xlink:href="#ArialMT-97"/>
       <use x="389.0625" xlink:href="#ArialMT-32"/>
       <use x="416.845703" xlink:href="#ArialMT-82"/>
       <use x="489.0625" xlink:href="#ArialMT-97"/>
       <use x="544.677734" xlink:href="#ArialMT-105"/>
       <use x="566.894531" xlink:href="#ArialMT-110"/>
       <use x="622.509766" xlink:href="#ArialMT-45"/>
       <use x="655.810547" xlink:href="#ArialMT-102"/>
       <use x="683.59375" xlink:href="#ArialMT-101"/>
       <use x="739.208984" xlink:href="#ArialMT-100"/>
       <use x="794.824219" xlink:href="#ArialMT-32"/>
       <use x="822.607422" xlink:href="#ArialMT-76"/>
       <use x="878.222656" xlink:href="#ArialMT-111"/>
       <use x="933.837891" xlink:href="#ArialMT-119"/>
      </g>
     </g>
    </g>
    <g id="xtick_6">
     <g id="text_6">
      <!-- Coffee Irrigation High -->
      <g style="fill:#262626;" transform="translate(95.577654 165.66025)rotate(-90)scale(0.088 -0.088)">
       <use xlink:href="#ArialMT-67"/>
       <use x="72.216797" xlink:href="#ArialMT-111"/>
       <use x="127.832031" xlink:href="#ArialMT-102"/>
       <use x="155.599609" xlink:href="#ArialMT-102"/>
       <use x="183.382812" xlink:href="#ArialMT-101"/>
       <use x="238.998047" xlink:href="#ArialMT-101"/>
       <use x="294.613281" xlink:href="#ArialMT-32"/>
       <use x="322.396484" xlink:href="#ArialMT-73"/>
       <use x="350.179688" xlink:href="#ArialMT-114"/>
       <use x="383.480469" xlink:href="#ArialMT-114"/>
       <use x="416.78125" xlink:href="#ArialMT-105"/>
       <use x="438.998047" xlink:href="#ArialMT-103"/>
       <use x="494.613281" xlink:href="#ArialMT-97"/>
       <use x="550.228516" xlink:href="#ArialMT-116"/>
       <use x="578.011719" xlink:href="#ArialMT-105"/>
       <use x="600.228516" xlink:href="#ArialMT-111"/>
       <use x="655.84375" xlink:href="#ArialMT-110"/>
       <use x="711.458984" xlink:href="#ArialMT-32"/>
       <use x="739.242188" xlink:href="#ArialMT-72"/>
       <use x="811.458984" xlink:href="#ArialMT-105"/>
       <use x="833.675781" xlink:href="#ArialMT-103"/>
       <use x="889.291016" xlink:href="#ArialMT-104"/>
      </g>
     </g>
    </g>
    <g id="xtick_7">
     <g id="text_7">
      <!-- Coffee Irrigation Intermediate -->
      <g style="fill:#262626;" transform="translate(106.55086 196.474)rotate(-90)scale(0.088 -0.088)">
       <use xlink:href="#ArialMT-67"/>
       <use x="72.216797" xlink:href="#ArialMT-111"/>
       <use x="127.832031" xlink:href="#ArialMT-102"/>
       <use x="155.599609" xlink:href="#ArialMT-102"/>
       <use x="183.382812" xlink:href="#ArialMT-101"/>
       <use x="238.998047" xlink:href="#ArialMT-101"/>
       <use x="294.613281" xlink:href="#ArialMT-32"/>
       <use x="322.396484" xlink:href="#ArialMT-73"/>
       <use x="350.179688" xlink:href="#ArialMT-114"/>
       <use x="383.480469" xlink:href="#ArialMT-114"/>
       <use x="416.78125" xlink:href="#ArialMT-105"/>
       <use x="438.998047" xlink:href="#ArialMT-103"/>
       <use x="494.613281" xlink:href="#ArialMT-97"/>
       <use x="550.228516" xlink:href="#ArialMT-116"/>
       <use x="578.011719" xlink:href="#ArialMT-105"/>
       <use x="600.228516" xlink:href="#ArialMT-111"/>
       <use x="655.84375" xlink:href="#ArialMT-110"/>
       <use x="711.458984" xlink:href="#ArialMT-32"/>
       <use x="739.242188" xlink:href="#ArialMT-73"/>
       <use x="767.025391" xlink:href="#ArialMT-110"/>
       <use x="822.640625" xlink:href="#ArialMT-116"/>
       <use x="850.423828" xlink:href="#ArialMT-101"/>
       <use x="906.039062" xlink:href="#ArialMT-114"/>
       <use x="939.339844" xlink:href="#ArialMT-109"/>
       <use x="1022.640625" xlink:href="#ArialMT-101"/>
       <use x="1078.255859" xlink:href="#ArialMT-100"/>
       <use x="1133.871094" xlink:href="#ArialMT-105"/>
       <use x="1156.087891" xlink:href="#ArialMT-97"/>
       <use x="1211.703125" xlink:href="#ArialMT-116"/>
       <use x="1239.486328" xlink:href="#ArialMT-101"/>
      </g>
     </g>
    </g>
    <g id="xtick_8">
     <g id="text_8">
      <!-- Coffee Rain-fed High -->
      <g style="fill:#262626;" transform="translate(117.524066 164.685375)rotate(-90)scale(0.088 -0.088)">
       <use xlink:href="#ArialMT-67"/>
       <use x="72.216797" xlink:href="#ArialMT-111"/>
       <use x="127.832031" xlink:href="#ArialMT-102"/>
       <use x="155.599609" xlink:href="#ArialMT-102"/>
       <use x="183.382812" xlink:href="#ArialMT-101"/>
       <use x="238.998047" xlink:href="#ArialMT-101"/>
       <use x="294.613281" xlink:href="#ArialMT-32"/>
       <use x="322.396484" xlink:href="#ArialMT-82"/>
       <use x="394.613281" xlink:href="#ArialMT-97"/>
       <use x="450.228516" xlink:href="#ArialMT-105"/>
       <use x="472.445312" xlink:href="#ArialMT-110"/>
       <use x="528.060547" xlink:href="#ArialMT-45"/>
       <use x="561.361328" xlink:href="#ArialMT-102"/>
       <use x="589.144531" xlink:href="#ArialMT-101"/>
       <use x="644.759766" xlink:href="#ArialMT-100"/>
       <use x="700.375" xlink:href="#ArialMT-32"/>
       <use x="728.158203" xlink:href="#ArialMT-72"/>
       <use x="800.375" xlink:href="#ArialMT-105"/>
       <use x="822.591797" xlink:href="#ArialMT-103"/>
       <use x="878.207031" xlink:href="#ArialMT-104"/>
      </g>
     </g>
    </g>
    <g id="xtick_9">
     <g id="text_9">
      <!-- Coffee Rain-fed Intermediate -->
      <g style="fill:#262626;" transform="translate(128.49521 195.499125)rotate(-90)scale(0.088 -0.088)">
       <use xlink:href="#ArialMT-67"/>
       <use x="72.216797" xlink:href="#ArialMT-111"/>
       <use x="127.832031" xlink:href="#ArialMT-102"/>
       <use x="155.599609" xlink:href="#ArialMT-102"/>
       <use x="183.382812" xlink:href="#ArialMT-101"/>
       <use x="238.998047" xlink:href="#ArialMT-101"/>
       <use x="294.613281" xlink:href="#ArialMT-32"/>
       <use x="322.396484" xlink:href="#ArialMT-82"/>
       <use x="394.613281" xlink:href="#ArialMT-97"/>
       <use x="450.228516" xlink:href="#ArialMT-105"/>
       <use x="472.445312" xlink:href="#ArialMT-110"/>
       <use x="528.060547" xlink:href="#ArialMT-45"/>
       <use x="561.361328" xlink:href="#ArialMT-102"/>
       <use x="589.144531" xlink:href="#ArialMT-101"/>
       <use x="644.759766" xlink:href="#ArialMT-100"/>
       <use x="700.375" xlink:href="#ArialMT-32"/>
       <use x="728.158203" xlink:href="#ArialMT-73"/>
       <use x="755.941406" xlink:href="#ArialMT-110"/>
       <use x="811.556641" xlink:href="#ArialMT-116"/>
       <use x="839.339844" xlink:href="#ArialMT-101"/>
       <use x="894.955078" xlink:href="#ArialMT-114"/>
       <use x="928.255859" xlink:href="#ArialMT-109"/>
       <use x="1011.556641" xlink:href="#ArialMT-101"/>
       <use x="1067.171875" xlink:href="#ArialMT-100"/>
       <use x="1122.787109" xlink:href="#ArialMT-105"/>
       <use x="1145.003906" xlink:href="#ArialMT-97"/>
       <use x="1200.619141" xlink:href="#ArialMT-116"/>
       <use x="1228.402344" xlink:href="#ArialMT-101"/>
      </g>
     </g>
    </g>
    <g id="xtick_10">
     <g id="text_10">
      <!-- Coffee Rain-fed Low -->
      <g style="fill:#262626;" transform="translate(139.468415 162.730125)rotate(-90)scale(0.088 -0.088)">
       <use xlink:href="#ArialMT-67"/>
       <use x="72.216797" xlink:href="#ArialMT-111"/>
       <use x="127.832031" xlink:href="#ArialMT-102"/>
       <use x="155.599609" xlink:href="#ArialMT-102"/>
       <use x="183.382812" xlink:href="#ArialMT-101"/>
       <use x="238.998047" xlink:href="#ArialMT-101"/>
       <use x="294.613281" xlink:href="#ArialMT-32"/>
       <use x="322.396484" xlink:href="#ArialMT-82"/>
       <use x="394.613281" xlink:href="#ArialMT-97"/>
       <use x="450.228516" xlink:href="#ArialMT-105"/>
       <use x="472.445312" xlink:href="#ArialMT-110"/>
       <use x="528.060547" xlink:href="#ArialMT-45"/>
       <use x="561.361328" xlink:href="#ArialMT-102"/>
       <use x="589.144531" xlink:href="#ArialMT-101"/>
       <use x="644.759766" xlink:href="#ArialMT-100"/>
       <use x="700.375" xlink:href="#ArialMT-32"/>
       <use x="728.158203" xlink:href="#ArialMT-76"/>
       <use x="783.773438" xlink:href="#ArialMT-111"/>
       <use x="839.388672" xlink:href="#ArialMT-119"/>
      </g>
     </g>
    </g>
    <g id="xtick_11">
     <g id="text_11">
      <!-- Maize Irrigation High -->
      <defs>
       <path d="M 7.421875 0 
L 7.421875 71.578125 
L 21.6875 71.578125 
L 38.625 20.90625 
Q 40.96875 13.8125 42.046875 10.296875 
Q 43.265625 14.203125 45.84375 21.78125 
L 62.984375 71.578125 
L 75.734375 71.578125 
L 75.734375 0 
L 66.609375 0 
L 66.609375 59.90625 
L 45.796875 0 
L 37.25 0 
L 16.546875 60.9375 
L 16.546875 0 
z
" id="ArialMT-77"/>
       <path d="M 1.953125 0 
L 1.953125 7.125 
L 34.96875 45.015625 
Q 29.34375 44.734375 25.046875 44.734375 
L 3.90625 44.734375 
L 3.90625 51.859375 
L 46.296875 51.859375 
L 46.296875 46.046875 
L 18.21875 13.140625 
L 12.796875 7.125 
Q 18.703125 7.5625 23.875 7.5625 
L 47.859375 7.5625 
L 47.859375 0 
z
" id="ArialMT-122"/>
      </defs>
      <g style="fill:#262626;" transform="translate(150.390059 163.208625)rotate(-90)scale(0.088 -0.088)">
       <use xlink:href="#ArialMT-77"/>
       <use x="83.300781" xlink:href="#ArialMT-97"/>
       <use x="138.916016" xlink:href="#ArialMT-105"/>
       <use x="161.132812" xlink:href="#ArialMT-122"/>
       <use x="211.132812" xlink:href="#ArialMT-101"/>
       <use x="266.748047" xlink:href="#ArialMT-32"/>
       <use x="294.53125" xlink:href="#ArialMT-73"/>
       <use x="322.314453" xlink:href="#ArialMT-114"/>
       <use x="355.615234" xlink:href="#ArialMT-114"/>
       <use x="388.916016" xlink:href="#ArialMT-105"/>
       <use x="411.132812" xlink:href="#ArialMT-103"/>
       <use x="466.748047" xlink:href="#ArialMT-97"/>
       <use x="522.363281" xlink:href="#ArialMT-116"/>
       <use x="550.146484" xlink:href="#ArialMT-105"/>
       <use x="572.363281" xlink:href="#ArialMT-111"/>
       <use x="627.978516" xlink:href="#ArialMT-110"/>
       <use x="683.59375" xlink:href="#ArialMT-32"/>
       <use x="711.376953" xlink:href="#ArialMT-72"/>
       <use x="783.59375" xlink:href="#ArialMT-105"/>
       <use x="805.810547" xlink:href="#ArialMT-103"/>
       <use x="861.425781" xlink:href="#ArialMT-104"/>
      </g>
     </g>
    </g>
    <g id="xtick_12">
     <g id="text_12">
      <!-- Maize Irrigation Intermediate -->
      <g style="fill:#262626;" transform="translate(161.363265 194.022375)rotate(-90)scale(0.088 -0.088)">
       <use xlink:href="#ArialMT-77"/>
       <use x="83.300781" xlink:href="#ArialMT-97"/>
       <use x="138.916016" xlink:href="#ArialMT-105"/>
       <use x="161.132812" xlink:href="#ArialMT-122"/>
       <use x="211.132812" xlink:href="#ArialMT-101"/>
       <use x="266.748047" xlink:href="#ArialMT-32"/>
       <use x="294.53125" xlink:href="#ArialMT-73"/>
       <use x="322.314453" xlink:href="#ArialMT-114"/>
       <use x="355.615234" xlink:href="#ArialMT-114"/>
       <use x="388.916016" xlink:href="#ArialMT-105"/>
       <use x="411.132812" xlink:href="#ArialMT-103"/>
       <use x="466.748047" xlink:href="#ArialMT-97"/>
       <use x="522.363281" xlink:href="#ArialMT-116"/>
       <use x="550.146484" xlink:href="#ArialMT-105"/>
       <use x="572.363281" xlink:href="#ArialMT-111"/>
       <use x="627.978516" xlink:href="#ArialMT-110"/>
       <use x="683.59375" xlink:href="#ArialMT-32"/>
       <use x="711.376953" xlink:href="#ArialMT-73"/>
       <use x="739.160156" xlink:href="#ArialMT-110"/>
       <use x="794.775391" xlink:href="#ArialMT-116"/>
       <use x="822.558594" xlink:href="#ArialMT-101"/>
       <use x="878.173828" xlink:href="#ArialMT-114"/>
       <use x="911.474609" xlink:href="#ArialMT-109"/>
       <use x="994.775391" xlink:href="#ArialMT-101"/>
       <use x="1050.390625" xlink:href="#ArialMT-100"/>
       <use x="1106.005859" xlink:href="#ArialMT-105"/>
       <use x="1128.222656" xlink:href="#ArialMT-97"/>
       <use x="1183.837891" xlink:href="#ArialMT-116"/>
       <use x="1211.621094" xlink:href="#ArialMT-101"/>
      </g>
     </g>
    </g>
    <g id="xtick_13">
     <g id="text_13">
      <!-- Maize Rain-fed High -->
      <g style="fill:#262626;" transform="translate(172.390096 162.23375)rotate(-90)scale(0.088 -0.088)">
       <use xlink:href="#ArialMT-77"/>
       <use x="83.300781" xlink:href="#ArialMT-97"/>
       <use x="138.916016" xlink:href="#ArialMT-105"/>
       <use x="161.132812" xlink:href="#ArialMT-122"/>
       <use x="211.132812" xlink:href="#ArialMT-101"/>
       <use x="266.748047" xlink:href="#ArialMT-32"/>
       <use x="294.53125" xlink:href="#ArialMT-82"/>
       <use x="366.748047" xlink:href="#ArialMT-97"/>
       <use x="422.363281" xlink:href="#ArialMT-105"/>
       <use x="444.580078" xlink:href="#ArialMT-110"/>
       <use x="500.195312" xlink:href="#ArialMT-45"/>
       <use x="533.496094" xlink:href="#ArialMT-102"/>
       <use x="561.279297" xlink:href="#ArialMT-101"/>
       <use x="616.894531" xlink:href="#ArialMT-100"/>
       <use x="672.509766" xlink:href="#ArialMT-32"/>
       <use x="700.292969" xlink:href="#ArialMT-72"/>
       <use x="772.509766" xlink:href="#ArialMT-105"/>
       <use x="794.726562" xlink:href="#ArialMT-103"/>
       <use x="850.341797" xlink:href="#ArialMT-104"/>
      </g>
     </g>
    </g>
    <g id="xtick_14">
     <g id="text_14">
      <!-- Maize Rain-fed Intermediate -->
      <g style="fill:#262626;" transform="translate(183.361239 193.0475)rotate(-90)scale(0.088 -0.088)">
       <use xlink:href="#ArialMT-77"/>
       <use x="83.300781" xlink:href="#ArialMT-97"/>
       <use x="138.916016" xlink:href="#ArialMT-105"/>
       <use x="161.132812" xlink:href="#ArialMT-122"/>
       <use x="211.132812" xlink:href="#ArialMT-101"/>
       <use x="266.748047" xlink:href="#ArialMT-32"/>
       <use x="294.53125" xlink:href="#ArialMT-82"/>
       <use x="366.748047" xlink:href="#ArialMT-97"/>
       <use x="422.363281" xlink:href="#ArialMT-105"/>
       <use x="444.580078" xlink:href="#ArialMT-110"/>
       <use x="500.195312" xlink:href="#ArialMT-45"/>
       <use x="533.496094" xlink:href="#ArialMT-102"/>
       <use x="561.279297" xlink:href="#ArialMT-101"/>
       <use x="616.894531" xlink:href="#ArialMT-100"/>
       <use x="672.509766" xlink:href="#ArialMT-32"/>
       <use x="700.292969" xlink:href="#ArialMT-73"/>
       <use x="728.076172" xlink:href="#ArialMT-110"/>
       <use x="783.691406" xlink:href="#ArialMT-116"/>
       <use x="811.474609" xlink:href="#ArialMT-101"/>
       <use x="867.089844" xlink:href="#ArialMT-114"/>
       <use x="900.390625" xlink:href="#ArialMT-109"/>
       <use x="983.691406" xlink:href="#ArialMT-101"/>
       <use x="1039.306641" xlink:href="#ArialMT-100"/>
       <use x="1094.921875" xlink:href="#ArialMT-105"/>
       <use x="1117.138672" xlink:href="#ArialMT-97"/>
       <use x="1172.753906" xlink:href="#ArialMT-116"/>
       <use x="1200.537109" xlink:href="#ArialMT-101"/>
      </g>
     </g>
    </g>
    <g id="xtick_15">
     <g id="text_15">
      <!-- Maize Rain-fed Low -->
      <g style="fill:#262626;" transform="translate(194.334445 160.2785)rotate(-90)scale(0.088 -0.088)">
       <use xlink:href="#ArialMT-77"/>
       <use x="83.300781" xlink:href="#ArialMT-97"/>
       <use x="138.916016" xlink:href="#ArialMT-105"/>
       <use x="161.132812" xlink:href="#ArialMT-122"/>
       <use x="211.132812" xlink:href="#ArialMT-101"/>
       <use x="266.748047" xlink:href="#ArialMT-32"/>
       <use x="294.53125" xlink:href="#ArialMT-82"/>
       <use x="366.748047" xlink:href="#ArialMT-97"/>
       <use x="422.363281" xlink:href="#ArialMT-105"/>
       <use x="444.580078" xlink:href="#ArialMT-110"/>
       <use x="500.195312" xlink:href="#ArialMT-45"/>
       <use x="533.496094" xlink:href="#ArialMT-102"/>
       <use x="561.279297" xlink:href="#ArialMT-101"/>
       <use x="616.894531" xlink:href="#ArialMT-100"/>
       <use x="672.509766" xlink:href="#ArialMT-32"/>
       <use x="700.292969" xlink:href="#ArialMT-76"/>
       <use x="755.908203" xlink:href="#ArialMT-111"/>
       <use x="811.523438" xlink:href="#ArialMT-119"/>
      </g>
     </g>
    </g>
    <g id="xtick_16">
     <g id="text_16">
      <!-- Other Irrigation High -->
      <defs>
       <path d="M 4.828125 34.859375 
Q 4.828125 52.6875 14.390625 62.765625 
Q 23.96875 72.859375 39.109375 72.859375 
Q 49.03125 72.859375 56.984375 68.109375 
Q 64.9375 63.375 69.109375 54.90625 
Q 73.296875 46.4375 73.296875 35.6875 
Q 73.296875 24.8125 68.890625 16.21875 
Q 64.5 7.625 56.4375 3.203125 
Q 48.390625 -1.21875 39.0625 -1.21875 
Q 28.953125 -1.21875 20.984375 3.65625 
Q 13.03125 8.546875 8.921875 16.984375 
Q 4.828125 25.4375 4.828125 34.859375 
z
M 14.59375 34.71875 
Q 14.59375 21.78125 21.546875 14.328125 
Q 28.515625 6.890625 39.015625 6.890625 
Q 49.703125 6.890625 56.609375 14.40625 
Q 63.53125 21.921875 63.53125 35.75 
Q 63.53125 44.484375 60.578125 51 
Q 57.625 57.515625 51.921875 61.109375 
Q 46.234375 64.703125 39.15625 64.703125 
Q 29.109375 64.703125 21.84375 57.78125 
Q 14.59375 50.875 14.59375 34.71875 
z
" id="ArialMT-79"/>
      </defs>
      <g style="fill:#262626;" transform="translate(205.312463 161.742875)rotate(-90)scale(0.088 -0.088)">
       <use xlink:href="#ArialMT-79"/>
       <use x="77.783203" xlink:href="#ArialMT-116"/>
       <use x="105.566406" xlink:href="#ArialMT-104"/>
       <use x="161.181641" xlink:href="#ArialMT-101"/>
       <use x="216.796875" xlink:href="#ArialMT-114"/>
       <use x="250.097656" xlink:href="#ArialMT-32"/>
       <use x="277.880859" xlink:href="#ArialMT-73"/>
       <use x="305.664062" xlink:href="#ArialMT-114"/>
       <use x="338.964844" xlink:href="#ArialMT-114"/>
       <use x="372.265625" xlink:href="#ArialMT-105"/>
       <use x="394.482422" xlink:href="#ArialMT-103"/>
       <use x="450.097656" xlink:href="#ArialMT-97"/>
       <use x="505.712891" xlink:href="#ArialMT-116"/>
       <use x="533.496094" xlink:href="#ArialMT-105"/>
       <use x="555.712891" xlink:href="#ArialMT-111"/>
       <use x="611.328125" xlink:href="#ArialMT-110"/>
       <use x="666.943359" xlink:href="#ArialMT-32"/>
       <use x="694.726562" xlink:href="#ArialMT-72"/>
       <use x="766.943359" xlink:href="#ArialMT-105"/>
       <use x="789.160156" xlink:href="#ArialMT-103"/>
       <use x="844.775391" xlink:href="#ArialMT-104"/>
      </g>
     </g>
    </g>
    <g id="xtick_17">
     <g id="text_17">
      <!-- Other Irrigation Intermediate -->
      <g style="fill:#262626;" transform="translate(216.285669 192.556625)rotate(-90)scale(0.088 -0.088)">
       <use xlink:href="#ArialMT-79"/>
       <use x="77.783203" xlink:href="#ArialMT-116"/>
       <use x="105.566406" xlink:href="#ArialMT-104"/>
       <use x="161.181641" xlink:href="#ArialMT-101"/>
       <use x="216.796875" xlink:href="#ArialMT-114"/>
       <use x="250.097656" xlink:href="#ArialMT-32"/>
       <use x="277.880859" xlink:href="#ArialMT-73"/>
       <use x="305.664062" xlink:href="#ArialMT-114"/>
       <use x="338.964844" xlink:href="#ArialMT-114"/>
       <use x="372.265625" xlink:href="#ArialMT-105"/>
       <use x="394.482422" xlink:href="#ArialMT-103"/>
       <use x="450.097656" xlink:href="#ArialMT-97"/>
       <use x="505.712891" xlink:href="#ArialMT-116"/>
       <use x="533.496094" xlink:href="#ArialMT-105"/>
       <use x="555.712891" xlink:href="#ArialMT-111"/>
       <use x="611.328125" xlink:href="#ArialMT-110"/>
       <use x="666.943359" xlink:href="#ArialMT-32"/>
       <use x="694.726562" xlink:href="#ArialMT-73"/>
       <use x="722.509766" xlink:href="#ArialMT-110"/>
       <use x="778.125" xlink:href="#ArialMT-116"/>
       <use x="805.908203" xlink:href="#ArialMT-101"/>
       <use x="861.523438" xlink:href="#ArialMT-114"/>
       <use x="894.824219" xlink:href="#ArialMT-109"/>
       <use x="978.125" xlink:href="#ArialMT-101"/>
       <use x="1033.740234" xlink:href="#ArialMT-100"/>
       <use x="1089.355469" xlink:href="#ArialMT-105"/>
       <use x="1111.572266" xlink:href="#ArialMT-97"/>
       <use x="1167.1875" xlink:href="#ArialMT-116"/>
       <use x="1194.970703" xlink:href="#ArialMT-101"/>
      </g>
     </g>
    </g>
    <g id="xtick_18">
     <g id="text_18">
      <!-- Other Rain-fed High -->
      <g style="fill:#262626;" transform="translate(227.258875 160.768)rotate(-90)scale(0.088 -0.088)">
       <use xlink:href="#ArialMT-79"/>
       <use x="77.783203" xlink:href="#ArialMT-116"/>
       <use x="105.566406" xlink:href="#ArialMT-104"/>
       <use x="161.181641" xlink:href="#ArialMT-101"/>
       <use x="216.796875" xlink:href="#ArialMT-114"/>
       <use x="250.097656" xlink:href="#ArialMT-32"/>
       <use x="277.880859" xlink:href="#ArialMT-82"/>
       <use x="350.097656" xlink:href="#ArialMT-97"/>
       <use x="405.712891" xlink:href="#ArialMT-105"/>
       <use x="427.929688" xlink:href="#ArialMT-110"/>
       <use x="483.544922" xlink:href="#ArialMT-45"/>
       <use x="516.845703" xlink:href="#ArialMT-102"/>
       <use x="544.628906" xlink:href="#ArialMT-101"/>
       <use x="600.244141" xlink:href="#ArialMT-100"/>
       <use x="655.859375" xlink:href="#ArialMT-32"/>
       <use x="683.642578" xlink:href="#ArialMT-72"/>
       <use x="755.859375" xlink:href="#ArialMT-105"/>
       <use x="778.076172" xlink:href="#ArialMT-103"/>
       <use x="833.691406" xlink:href="#ArialMT-104"/>
      </g>
     </g>
    </g>
    <g id="xtick_19">
     <g id="text_19">
      <!-- Other Rain-fed Intermediate -->
      <g style="fill:#262626;" transform="translate(238.227268 191.58175)rotate(-90)scale(0.088 -0.088)">
       <use xlink:href="#ArialMT-79"/>
       <use x="77.783203" xlink:href="#ArialMT-116"/>
       <use x="105.566406" xlink:href="#ArialMT-104"/>
       <use x="161.181641" xlink:href="#ArialMT-101"/>
       <use x="216.796875" xlink:href="#ArialMT-114"/>
       <use x="250.097656" xlink:href="#ArialMT-32"/>
       <use x="277.880859" xlink:href="#ArialMT-82"/>
       <use x="350.097656" xlink:href="#ArialMT-97"/>
       <use x="405.712891" xlink:href="#ArialMT-105"/>
       <use x="427.929688" xlink:href="#ArialMT-110"/>
       <use x="483.544922" xlink:href="#ArialMT-45"/>
       <use x="516.845703" xlink:href="#ArialMT-102"/>
       <use x="544.628906" xlink:href="#ArialMT-101"/>
       <use x="600.244141" xlink:href="#ArialMT-100"/>
       <use x="655.859375" xlink:href="#ArialMT-32"/>
       <use x="683.642578" xlink:href="#ArialMT-73"/>
       <use x="711.425781" xlink:href="#ArialMT-110"/>
       <use x="767.041016" xlink:href="#ArialMT-116"/>
       <use x="794.824219" xlink:href="#ArialMT-101"/>
       <use x="850.439453" xlink:href="#ArialMT-114"/>
       <use x="883.740234" xlink:href="#ArialMT-109"/>
       <use x="967.041016" xlink:href="#ArialMT-101"/>
       <use x="1022.65625" xlink:href="#ArialMT-100"/>
       <use x="1078.271484" xlink:href="#ArialMT-105"/>
       <use x="1100.488281" xlink:href="#ArialMT-97"/>
       <use x="1156.103516" xlink:href="#ArialMT-116"/>
       <use x="1183.886719" xlink:href="#ArialMT-101"/>
      </g>
     </g>
    </g>
    <g id="xtick_20">
     <g id="text_20">
      <!-- Other Rain-fed Low -->
      <g style="fill:#262626;" transform="translate(249.200474 158.81275)rotate(-90)scale(0.088 -0.088)">
       <use xlink:href="#ArialMT-79"/>
       <use x="77.783203" xlink:href="#ArialMT-116"/>
       <use x="105.566406" xlink:href="#ArialMT-104"/>
       <use x="161.181641" xlink:href="#ArialMT-101"/>
       <use x="216.796875" xlink:href="#ArialMT-114"/>
       <use x="250.097656" xlink:href="#ArialMT-32"/>
       <use x="277.880859" xlink:href="#ArialMT-82"/>
       <use x="350.097656" xlink:href="#ArialMT-97"/>
       <use x="405.712891" xlink:href="#ArialMT-105"/>
       <use x="427.929688" xlink:href="#ArialMT-110"/>
       <use x="483.544922" xlink:href="#ArialMT-45"/>
       <use x="516.845703" xlink:href="#ArialMT-102"/>
       <use x="544.628906" xlink:href="#ArialMT-101"/>
       <use x="600.244141" xlink:href="#ArialMT-100"/>
       <use x="655.859375" xlink:href="#ArialMT-32"/>
       <use x="683.642578" xlink:href="#ArialMT-76"/>
       <use x="739.257812" xlink:href="#ArialMT-111"/>
       <use x="794.873047" xlink:href="#ArialMT-119"/>
      </g>
     </g>
    </g>
    <g id="xtick_21">
     <g id="text_21">
      <!-- Rice Irrigation High -->
      <defs>
       <path d="M 40.4375 19 
L 49.078125 17.875 
Q 47.65625 8.9375 41.8125 3.875 
Q 35.984375 -1.171875 27.484375 -1.171875 
Q 16.84375 -1.171875 10.375 5.78125 
Q 3.90625 12.75 3.90625 25.734375 
Q 3.90625 34.125 6.6875 40.421875 
Q 9.46875 46.734375 15.15625 49.875 
Q 20.84375 53.03125 27.546875 53.03125 
Q 35.984375 53.03125 41.359375 48.75 
Q 46.734375 44.484375 48.25 36.625 
L 39.703125 35.296875 
Q 38.484375 40.53125 35.375 43.15625 
Q 32.28125 45.796875 27.875 45.796875 
Q 21.234375 45.796875 17.078125 41.03125 
Q 12.9375 36.28125 12.9375 25.984375 
Q 12.9375 15.53125 16.9375 10.796875 
Q 20.953125 6.0625 27.390625 6.0625 
Q 32.5625 6.0625 36.03125 9.234375 
Q 39.5 12.40625 40.4375 19 
z
" id="ArialMT-99"/>
      </defs>
      <g style="fill:#262626;" transform="translate(260.122118 157.340125)rotate(-90)scale(0.088 -0.088)">
       <use xlink:href="#ArialMT-82"/>
       <use x="72.216797" xlink:href="#ArialMT-105"/>
       <use x="94.433594" xlink:href="#ArialMT-99"/>
       <use x="144.433594" xlink:href="#ArialMT-101"/>
       <use x="200.048828" xlink:href="#ArialMT-32"/>
       <use x="227.832031" xlink:href="#ArialMT-73"/>
       <use x="255.615234" xlink:href="#ArialMT-114"/>
       <use x="288.916016" xlink:href="#ArialMT-114"/>
       <use x="322.216797" xlink:href="#ArialMT-105"/>
       <use x="344.433594" xlink:href="#ArialMT-103"/>
       <use x="400.048828" xlink:href="#ArialMT-97"/>
       <use x="455.664062" xlink:href="#ArialMT-116"/>
       <use x="483.447266" xlink:href="#ArialMT-105"/>
       <use x="505.664062" xlink:href="#ArialMT-111"/>
       <use x="561.279297" xlink:href="#ArialMT-110"/>
       <use x="616.894531" xlink:href="#ArialMT-32"/>
       <use x="644.677734" xlink:href="#ArialMT-72"/>
       <use x="716.894531" xlink:href="#ArialMT-105"/>
       <use x="739.111328" xlink:href="#ArialMT-103"/>
       <use x="794.726562" xlink:href="#ArialMT-104"/>
      </g>
     </g>
    </g>
    <g id="xtick_22">
     <g id="text_22">
      <!-- Rice Irrigation Intermediate -->
      <g style="fill:#262626;" transform="translate(271.095324 188.153875)rotate(-90)scale(0.088 -0.088)">
       <use xlink:href="#ArialMT-82"/>
       <use x="72.216797" xlink:href="#ArialMT-105"/>
       <use x="94.433594" xlink:href="#ArialMT-99"/>
       <use x="144.433594" xlink:href="#ArialMT-101"/>
       <use x="200.048828" xlink:href="#ArialMT-32"/>
       <use x="227.832031" xlink:href="#ArialMT-73"/>
       <use x="255.615234" xlink:href="#ArialMT-114"/>
       <use x="288.916016" xlink:href="#ArialMT-114"/>
       <use x="322.216797" xlink:href="#ArialMT-105"/>
       <use x="344.433594" xlink:href="#ArialMT-103"/>
       <use x="400.048828" xlink:href="#ArialMT-97"/>
       <use x="455.664062" xlink:href="#ArialMT-116"/>
       <use x="483.447266" xlink:href="#ArialMT-105"/>
       <use x="505.664062" xlink:href="#ArialMT-111"/>
       <use x="561.279297" xlink:href="#ArialMT-110"/>
       <use x="616.894531" xlink:href="#ArialMT-32"/>
       <use x="644.677734" xlink:href="#ArialMT-73"/>
       <use x="672.460938" xlink:href="#ArialMT-110"/>
       <use x="728.076172" xlink:href="#ArialMT-116"/>
       <use x="755.859375" xlink:href="#ArialMT-101"/>
       <use x="811.474609" xlink:href="#ArialMT-114"/>
       <use x="844.775391" xlink:href="#ArialMT-109"/>
       <use x="928.076172" xlink:href="#ArialMT-101"/>
       <use x="983.691406" xlink:href="#ArialMT-100"/>
       <use x="1039.306641" xlink:href="#ArialMT-105"/>
       <use x="1061.523438" xlink:href="#ArialMT-97"/>
       <use x="1117.138672" xlink:href="#ArialMT-116"/>
       <use x="1144.921875" xlink:href="#ArialMT-101"/>
      </g>
     </g>
    </g>
    <g id="xtick_23">
     <g id="text_23">
      <!-- Rice Rain-fed High -->
      <g style="fill:#262626;" transform="translate(282.122154 156.36525)rotate(-90)scale(0.088 -0.088)">
       <use xlink:href="#ArialMT-82"/>
       <use x="72.216797" xlink:href="#ArialMT-105"/>
       <use x="94.433594" xlink:href="#ArialMT-99"/>
       <use x="144.433594" xlink:href="#ArialMT-101"/>
       <use x="200.048828" xlink:href="#ArialMT-32"/>
       <use x="227.832031" xlink:href="#ArialMT-82"/>
       <use x="300.048828" xlink:href="#ArialMT-97"/>
       <use x="355.664062" xlink:href="#ArialMT-105"/>
       <use x="377.880859" xlink:href="#ArialMT-110"/>
       <use x="433.496094" xlink:href="#ArialMT-45"/>
       <use x="466.796875" xlink:href="#ArialMT-102"/>
       <use x="494.580078" xlink:href="#ArialMT-101"/>
       <use x="550.195312" xlink:href="#ArialMT-100"/>
       <use x="605.810547" xlink:href="#ArialMT-32"/>
       <use x="633.59375" xlink:href="#ArialMT-72"/>
       <use x="705.810547" xlink:href="#ArialMT-105"/>
       <use x="728.027344" xlink:href="#ArialMT-103"/>
       <use x="783.642578" xlink:href="#ArialMT-104"/>
      </g>
     </g>
    </g>
    <g id="xtick_24">
     <g id="text_24">
      <!-- Rice Rain-fed Intermediate -->
      <g style="fill:#262626;" transform="translate(293.093298 187.179)rotate(-90)scale(0.088 -0.088)">
       <use xlink:href="#ArialMT-82"/>
       <use x="72.216797" xlink:href="#ArialMT-105"/>
       <use x="94.433594" xlink:href="#ArialMT-99"/>
       <use x="144.433594" xlink:href="#ArialMT-101"/>
       <use x="200.048828" xlink:href="#ArialMT-32"/>
       <use x="227.832031" xlink:href="#ArialMT-82"/>
       <use x="300.048828" xlink:href="#ArialMT-97"/>
       <use x="355.664062" xlink:href="#ArialMT-105"/>
       <use x="377.880859" xlink:href="#ArialMT-110"/>
       <use x="433.496094" xlink:href="#ArialMT-45"/>
       <use x="466.796875" xlink:href="#ArialMT-102"/>
       <use x="494.580078" xlink:href="#ArialMT-101"/>
       <use x="550.195312" xlink:href="#ArialMT-100"/>
       <use x="605.810547" xlink:href="#ArialMT-32"/>
       <use x="633.59375" xlink:href="#ArialMT-73"/>
       <use x="661.376953" xlink:href="#ArialMT-110"/>
       <use x="716.992188" xlink:href="#ArialMT-116"/>
       <use x="744.775391" xlink:href="#ArialMT-101"/>
       <use x="800.390625" xlink:href="#ArialMT-114"/>
       <use x="833.691406" xlink:href="#ArialMT-109"/>
       <use x="916.992188" xlink:href="#ArialMT-101"/>
       <use x="972.607422" xlink:href="#ArialMT-100"/>
       <use x="1028.222656" xlink:href="#ArialMT-105"/>
       <use x="1050.439453" xlink:href="#ArialMT-97"/>
       <use x="1106.054688" xlink:href="#ArialMT-116"/>
       <use x="1133.837891" xlink:href="#ArialMT-101"/>
      </g>
     </g>
    </g>
    <g id="xtick_25">
     <g id="text_25">
      <!-- Rice Rain-fed Low -->
      <g style="fill:#262626;" transform="translate(304.066504 154.41)rotate(-90)scale(0.088 -0.088)">
       <use xlink:href="#ArialMT-82"/>
       <use x="72.216797" xlink:href="#ArialMT-105"/>
       <use x="94.433594" xlink:href="#ArialMT-99"/>
       <use x="144.433594" xlink:href="#ArialMT-101"/>
       <use x="200.048828" xlink:href="#ArialMT-32"/>
       <use x="227.832031" xlink:href="#ArialMT-82"/>
       <use x="300.048828" xlink:href="#ArialMT-97"/>
       <use x="355.664062" xlink:href="#ArialMT-105"/>
       <use x="377.880859" xlink:href="#ArialMT-110"/>
       <use x="433.496094" xlink:href="#ArialMT-45"/>
       <use x="466.796875" xlink:href="#ArialMT-102"/>
       <use x="494.580078" xlink:href="#ArialMT-101"/>
       <use x="550.195312" xlink:href="#ArialMT-100"/>
       <use x="605.810547" xlink:href="#ArialMT-32"/>
       <use x="633.59375" xlink:href="#ArialMT-76"/>
       <use x="689.208984" xlink:href="#ArialMT-111"/>
       <use x="744.824219" xlink:href="#ArialMT-119"/>
      </g>
     </g>
    </g>
    <g id="xtick_26">
     <g id="text_26">
      <!-- Sugarcane Irrigation High -->
      <defs>
       <path d="M 4.5 23 
L 13.421875 23.78125 
Q 14.0625 18.40625 16.375 14.96875 
Q 18.703125 11.53125 23.578125 9.40625 
Q 28.46875 7.28125 34.578125 7.28125 
Q 39.984375 7.28125 44.140625 8.890625 
Q 48.296875 10.5 50.3125 13.296875 
Q 52.34375 16.109375 52.34375 19.4375 
Q 52.34375 22.796875 50.390625 25.3125 
Q 48.4375 27.828125 43.953125 29.546875 
Q 41.0625 30.671875 31.203125 33.03125 
Q 21.34375 35.40625 17.390625 37.5 
Q 12.25 40.1875 9.734375 44.15625 
Q 7.234375 48.140625 7.234375 53.078125 
Q 7.234375 58.5 10.296875 63.203125 
Q 13.375 67.921875 19.28125 70.359375 
Q 25.203125 72.796875 32.421875 72.796875 
Q 40.375 72.796875 46.453125 70.234375 
Q 52.546875 67.671875 55.8125 62.6875 
Q 59.078125 57.71875 59.328125 51.421875 
L 50.25 50.734375 
Q 49.515625 57.515625 45.28125 60.984375 
Q 41.0625 64.453125 32.8125 64.453125 
Q 24.21875 64.453125 20.28125 61.296875 
Q 16.359375 58.15625 16.359375 53.71875 
Q 16.359375 49.859375 19.140625 47.359375 
Q 21.875 44.875 33.421875 42.265625 
Q 44.96875 39.65625 49.265625 37.703125 
Q 55.515625 34.8125 58.484375 30.390625 
Q 61.46875 25.984375 61.46875 20.21875 
Q 61.46875 14.5 58.203125 9.4375 
Q 54.9375 4.390625 48.796875 1.578125 
Q 42.671875 -1.21875 35.015625 -1.21875 
Q 25.296875 -1.21875 18.71875 1.609375 
Q 12.15625 4.4375 8.421875 10.125 
Q 4.6875 15.828125 4.5 23 
z
" id="ArialMT-83"/>
       <path d="M 40.578125 0 
L 40.578125 7.625 
Q 34.515625 -1.171875 24.125 -1.171875 
Q 19.53125 -1.171875 15.546875 0.578125 
Q 11.578125 2.34375 9.640625 5 
Q 7.71875 7.671875 6.9375 11.53125 
Q 6.390625 14.109375 6.390625 19.734375 
L 6.390625 51.859375 
L 15.1875 51.859375 
L 15.1875 23.09375 
Q 15.1875 16.21875 15.71875 13.8125 
Q 16.546875 10.359375 19.234375 8.375 
Q 21.921875 6.390625 25.875 6.390625 
Q 29.828125 6.390625 33.296875 8.421875 
Q 36.765625 10.453125 38.203125 13.9375 
Q 39.65625 17.4375 39.65625 24.078125 
L 39.65625 51.859375 
L 48.4375 51.859375 
L 48.4375 0 
z
" id="ArialMT-117"/>
      </defs>
      <g style="fill:#262626;" transform="translate(315.041772 182.29775)rotate(-90)scale(0.088 -0.088)">
       <use xlink:href="#ArialMT-83"/>
       <use x="66.699219" xlink:href="#ArialMT-117"/>
       <use x="122.314453" xlink:href="#ArialMT-103"/>
       <use x="177.929688" xlink:href="#ArialMT-97"/>
       <use x="233.544922" xlink:href="#ArialMT-114"/>
       <use x="266.845703" xlink:href="#ArialMT-99"/>
       <use x="316.845703" xlink:href="#ArialMT-97"/>
       <use x="372.460938" xlink:href="#ArialMT-110"/>
       <use x="428.076172" xlink:href="#ArialMT-101"/>
       <use x="483.691406" xlink:href="#ArialMT-32"/>
       <use x="511.474609" xlink:href="#ArialMT-73"/>
       <use x="539.257812" xlink:href="#ArialMT-114"/>
       <use x="572.558594" xlink:href="#ArialMT-114"/>
       <use x="605.859375" xlink:href="#ArialMT-105"/>
       <use x="628.076172" xlink:href="#ArialMT-103"/>
       <use x="683.691406" xlink:href="#ArialMT-97"/>
       <use x="739.306641" xlink:href="#ArialMT-116"/>
       <use x="767.089844" xlink:href="#ArialMT-105"/>
       <use x="789.306641" xlink:href="#ArialMT-111"/>
       <use x="844.921875" xlink:href="#ArialMT-110"/>
       <use x="900.537109" xlink:href="#ArialMT-32"/>
       <use x="928.320312" xlink:href="#ArialMT-72"/>
       <use x="1000.537109" xlink:href="#ArialMT-105"/>
       <use x="1022.753906" xlink:href="#ArialMT-103"/>
       <use x="1078.369141" xlink:href="#ArialMT-104"/>
      </g>
     </g>
    </g>
    <g id="xtick_27">
     <g id="text_27">
      <!-- Sugarcane Irrigation Intermediate -->
      <g style="fill:#262626;" transform="translate(326.014978 213.1115)rotate(-90)scale(0.088 -0.088)">
       <use xlink:href="#ArialMT-83"/>
       <use x="66.699219" xlink:href="#ArialMT-117"/>
       <use x="122.314453" xlink:href="#ArialMT-103"/>
       <use x="177.929688" xlink:href="#ArialMT-97"/>
       <use x="233.544922" xlink:href="#ArialMT-114"/>
       <use x="266.845703" xlink:href="#ArialMT-99"/>
       <use x="316.845703" xlink:href="#ArialMT-97"/>
       <use x="372.460938" xlink:href="#ArialMT-110"/>
       <use x="428.076172" xlink:href="#ArialMT-101"/>
       <use x="483.691406" xlink:href="#ArialMT-32"/>
       <use x="511.474609" xlink:href="#ArialMT-73"/>
       <use x="539.257812" xlink:href="#ArialMT-114"/>
       <use x="572.558594" xlink:href="#ArialMT-114"/>
       <use x="605.859375" xlink:href="#ArialMT-105"/>
       <use x="628.076172" xlink:href="#ArialMT-103"/>
       <use x="683.691406" xlink:href="#ArialMT-97"/>
       <use x="739.306641" xlink:href="#ArialMT-116"/>
       <use x="767.089844" xlink:href="#ArialMT-105"/>
       <use x="789.306641" xlink:href="#ArialMT-111"/>
       <use x="844.921875" xlink:href="#ArialMT-110"/>
       <use x="900.537109" xlink:href="#ArialMT-32"/>
       <use x="928.320312" xlink:href="#ArialMT-73"/>
       <use x="956.103516" xlink:href="#ArialMT-110"/>
       <use x="1011.71875" xlink:href="#ArialMT-116"/>
       <use x="1039.501953" xlink:href="#ArialMT-101"/>
       <use x="1095.117188" xlink:href="#ArialMT-114"/>
       <use x="1128.417969" xlink:href="#ArialMT-109"/>
       <use x="1211.71875" xlink:href="#ArialMT-101"/>
       <use x="1267.333984" xlink:href="#ArialMT-100"/>
       <use x="1322.949219" xlink:href="#ArialMT-105"/>
       <use x="1345.166016" xlink:href="#ArialMT-97"/>
       <use x="1400.78125" xlink:href="#ArialMT-116"/>
       <use x="1428.564453" xlink:href="#ArialMT-101"/>
      </g>
     </g>
    </g>
    <g id="xtick_28">
     <g id="text_28">
      <!-- Sugarcane Rain-fed High -->
      <g style="fill:#262626;" transform="translate(336.988184 181.322875)rotate(-90)scale(0.088 -0.088)">
       <use xlink:href="#ArialMT-83"/>
       <use x="66.699219" xlink:href="#ArialMT-117"/>
       <use x="122.314453" xlink:href="#ArialMT-103"/>
       <use x="177.929688" xlink:href="#ArialMT-97"/>
       <use x="233.544922" xlink:href="#ArialMT-114"/>
       <use x="266.845703" xlink:href="#ArialMT-99"/>
       <use x="316.845703" xlink:href="#ArialMT-97"/>
       <use x="372.460938" xlink:href="#ArialMT-110"/>
       <use x="428.076172" xlink:href="#ArialMT-101"/>
       <use x="483.691406" xlink:href="#ArialMT-32"/>
       <use x="511.474609" xlink:href="#ArialMT-82"/>
       <use x="583.691406" xlink:href="#ArialMT-97"/>
       <use x="639.306641" xlink:href="#ArialMT-105"/>
       <use x="661.523438" xlink:href="#ArialMT-110"/>
       <use x="717.138672" xlink:href="#ArialMT-45"/>
       <use x="750.439453" xlink:href="#ArialMT-102"/>
       <use x="778.222656" xlink:href="#ArialMT-101"/>
       <use x="833.837891" xlink:href="#ArialMT-100"/>
       <use x="889.453125" xlink:href="#ArialMT-32"/>
       <use x="917.236328" xlink:href="#ArialMT-72"/>
       <use x="989.453125" xlink:href="#ArialMT-105"/>
       <use x="1011.669922" xlink:href="#ArialMT-103"/>
       <use x="1067.285156" xlink:href="#ArialMT-104"/>
      </g>
     </g>
    </g>
    <g id="xtick_29">
     <g id="text_29">
      <!-- Sugarcane Rain-fed Intermediate -->
      <g style="fill:#262626;" transform="translate(347.96139 212.136625)rotate(-90)scale(0.088 -0.088)">
       <use xlink:href="#ArialMT-83"/>
       <use x="66.699219" xlink:href="#ArialMT-117"/>
       <use x="122.314453" xlink:href="#ArialMT-103"/>
       <use x="177.929688" xlink:href="#ArialMT-97"/>
       <use x="233.544922" xlink:href="#ArialMT-114"/>
       <use x="266.845703" xlink:href="#ArialMT-99"/>
       <use x="316.845703" xlink:href="#ArialMT-97"/>
       <use x="372.460938" xlink:href="#ArialMT-110"/>
       <use x="428.076172" xlink:href="#ArialMT-101"/>
       <use x="483.691406" xlink:href="#ArialMT-32"/>
       <use x="511.474609" xlink:href="#ArialMT-82"/>
       <use x="583.691406" xlink:href="#ArialMT-97"/>
       <use x="639.306641" xlink:href="#ArialMT-105"/>
       <use x="661.523438" xlink:href="#ArialMT-110"/>
       <use x="717.138672" xlink:href="#ArialMT-45"/>
       <use x="750.439453" xlink:href="#ArialMT-102"/>
       <use x="778.222656" xlink:href="#ArialMT-101"/>
       <use x="833.837891" xlink:href="#ArialMT-100"/>
       <use x="889.453125" xlink:href="#ArialMT-32"/>
       <use x="917.236328" xlink:href="#ArialMT-73"/>
       <use x="945.019531" xlink:href="#ArialMT-110"/>
       <use x="1000.634766" xlink:href="#ArialMT-116"/>
       <use x="1028.417969" xlink:href="#ArialMT-101"/>
       <use x="1084.033203" xlink:href="#ArialMT-114"/>
       <use x="1117.333984" xlink:href="#ArialMT-109"/>
       <use x="1200.634766" xlink:href="#ArialMT-101"/>
       <use x="1256.25" xlink:href="#ArialMT-100"/>
       <use x="1311.865234" xlink:href="#ArialMT-105"/>
       <use x="1334.082031" xlink:href="#ArialMT-97"/>
       <use x="1389.697266" xlink:href="#ArialMT-116"/>
       <use x="1417.480469" xlink:href="#ArialMT-101"/>
      </g>
     </g>
    </g>
    <g id="xtick_30">
     <g id="text_30">
      <!-- Sugarcane Rain-fed Low -->
      <g style="fill:#262626;" transform="translate(358.934596 179.367625)rotate(-90)scale(0.088 -0.088)">
       <use xlink:href="#ArialMT-83"/>
       <use x="66.699219" xlink:href="#ArialMT-117"/>
       <use x="122.314453" xlink:href="#ArialMT-103"/>
       <use x="177.929688" xlink:href="#ArialMT-97"/>
       <use x="233.544922" xlink:href="#ArialMT-114"/>
       <use x="266.845703" xlink:href="#ArialMT-99"/>
       <use x="316.845703" xlink:href="#ArialMT-97"/>
       <use x="372.460938" xlink:href="#ArialMT-110"/>
       <use x="428.076172" xlink:href="#ArialMT-101"/>
       <use x="483.691406" xlink:href="#ArialMT-32"/>
       <use x="511.474609" xlink:href="#ArialMT-82"/>
       <use x="583.691406" xlink:href="#ArialMT-97"/>
       <use x="639.306641" xlink:href="#ArialMT-105"/>
       <use x="661.523438" xlink:href="#ArialMT-110"/>
       <use x="717.138672" xlink:href="#ArialMT-45"/>
       <use x="750.439453" xlink:href="#ArialMT-102"/>
       <use x="778.222656" xlink:href="#ArialMT-101"/>
       <use x="833.837891" xlink:href="#ArialMT-100"/>
       <use x="889.453125" xlink:href="#ArialMT-32"/>
       <use x="917.236328" xlink:href="#ArialMT-76"/>
       <use x="972.851562" xlink:href="#ArialMT-111"/>
       <use x="1028.466797" xlink:href="#ArialMT-119"/>
      </g>
     </g>
    </g>
    <g id="xtick_31">
     <g id="text_31">
      <!-- Vegetables and fruits Irrigation High -->
      <defs>
       <path d="M 28.171875 0 
L 0.4375 71.578125 
L 10.6875 71.578125 
L 29.296875 19.578125 
Q 31.546875 13.328125 33.0625 7.859375 
Q 34.71875 13.71875 36.921875 19.578125 
L 56.25 71.578125 
L 65.921875 71.578125 
L 37.890625 0 
z
" id="ArialMT-86"/>
       <path d="M 14.703125 0 
L 6.546875 0 
L 6.546875 71.578125 
L 15.328125 71.578125 
L 15.328125 46.046875 
Q 20.90625 53.03125 29.546875 53.03125 
Q 34.328125 53.03125 38.59375 51.09375 
Q 42.875 49.171875 45.625 45.671875 
Q 48.390625 42.1875 49.953125 37.25 
Q 51.515625 32.328125 51.515625 26.703125 
Q 51.515625 13.375 44.921875 6.09375 
Q 38.328125 -1.171875 29.109375 -1.171875 
Q 19.921875 -1.171875 14.703125 6.5 
z
M 14.59375 26.3125 
Q 14.59375 17 17.140625 12.84375 
Q 21.296875 6.0625 28.375 6.0625 
Q 34.125 6.0625 38.328125 11.0625 
Q 42.53125 16.0625 42.53125 25.984375 
Q 42.53125 36.140625 38.5 40.96875 
Q 34.46875 45.796875 28.765625 45.796875 
Q 23 45.796875 18.796875 40.796875 
Q 14.59375 35.796875 14.59375 26.3125 
z
" id="ArialMT-98"/>
       <path d="M 6.390625 0 
L 6.390625 71.578125 
L 15.1875 71.578125 
L 15.1875 0 
z
" id="ArialMT-108"/>
      </defs>
      <g style="fill:#262626;" transform="translate(369.907801 222.399625)rotate(-90)scale(0.088 -0.088)">
       <use xlink:href="#ArialMT-86"/>
       <use x="66.621094" xlink:href="#ArialMT-101"/>
       <use x="122.236328" xlink:href="#ArialMT-103"/>
       <use x="177.851562" xlink:href="#ArialMT-101"/>
       <use x="233.466797" xlink:href="#ArialMT-116"/>
       <use x="261.25" xlink:href="#ArialMT-97"/>
       <use x="316.865234" xlink:href="#ArialMT-98"/>
       <use x="372.480469" xlink:href="#ArialMT-108"/>
       <use x="394.697266" xlink:href="#ArialMT-101"/>
       <use x="450.3125" xlink:href="#ArialMT-115"/>
       <use x="500.3125" xlink:href="#ArialMT-32"/>
       <use x="528.095703" xlink:href="#ArialMT-97"/>
       <use x="583.710938" xlink:href="#ArialMT-110"/>
       <use x="639.326172" xlink:href="#ArialMT-100"/>
       <use x="694.941406" xlink:href="#ArialMT-32"/>
       <use x="722.724609" xlink:href="#ArialMT-102"/>
       <use x="750.507812" xlink:href="#ArialMT-114"/>
       <use x="783.808594" xlink:href="#ArialMT-117"/>
       <use x="839.423828" xlink:href="#ArialMT-105"/>
       <use x="861.640625" xlink:href="#ArialMT-116"/>
       <use x="889.423828" xlink:href="#ArialMT-115"/>
       <use x="939.423828" xlink:href="#ArialMT-32"/>
       <use x="967.207031" xlink:href="#ArialMT-73"/>
       <use x="994.990234" xlink:href="#ArialMT-114"/>
       <use x="1028.291016" xlink:href="#ArialMT-114"/>
       <use x="1061.591797" xlink:href="#ArialMT-105"/>
       <use x="1083.808594" xlink:href="#ArialMT-103"/>
       <use x="1139.423828" xlink:href="#ArialMT-97"/>
       <use x="1195.039062" xlink:href="#ArialMT-116"/>
       <use x="1222.822266" xlink:href="#ArialMT-105"/>
       <use x="1245.039062" xlink:href="#ArialMT-111"/>
       <use x="1300.654297" xlink:href="#ArialMT-110"/>
       <use x="1356.269531" xlink:href="#ArialMT-32"/>
       <use x="1384.052734" xlink:href="#ArialMT-72"/>
       <use x="1456.269531" xlink:href="#ArialMT-105"/>
       <use x="1478.486328" xlink:href="#ArialMT-103"/>
       <use x="1534.101562" xlink:href="#ArialMT-104"/>
      </g>
     </g>
    </g>
    <g id="xtick_32">
     <g id="text_32">
      <!-- Vegetables and fruits Irrigation Intermediate -->
      <g style="fill:#262626;" transform="translate(380.881007 253.213375)rotate(-90)scale(0.088 -0.088)">
       <use xlink:href="#ArialMT-86"/>
       <use x="66.621094" xlink:href="#ArialMT-101"/>
       <use x="122.236328" xlink:href="#ArialMT-103"/>
       <use x="177.851562" xlink:href="#ArialMT-101"/>
       <use x="233.466797" xlink:href="#ArialMT-116"/>
       <use x="261.25" xlink:href="#ArialMT-97"/>
       <use x="316.865234" xlink:href="#ArialMT-98"/>
       <use x="372.480469" xlink:href="#ArialMT-108"/>
       <use x="394.697266" xlink:href="#ArialMT-101"/>
       <use x="450.3125" xlink:href="#ArialMT-115"/>
       <use x="500.3125" xlink:href="#ArialMT-32"/>
       <use x="528.095703" xlink:href="#ArialMT-97"/>
       <use x="583.710938" xlink:href="#ArialMT-110"/>
       <use x="639.326172" xlink:href="#ArialMT-100"/>
       <use x="694.941406" xlink:href="#ArialMT-32"/>
       <use x="722.724609" xlink:href="#ArialMT-102"/>
       <use x="750.507812" xlink:href="#ArialMT-114"/>
       <use x="783.808594" xlink:href="#ArialMT-117"/>
       <use x="839.423828" xlink:href="#ArialMT-105"/>
       <use x="861.640625" xlink:href="#ArialMT-116"/>
       <use x="889.423828" xlink:href="#ArialMT-115"/>
       <use x="939.423828" xlink:href="#ArialMT-32"/>
       <use x="967.207031" xlink:href="#ArialMT-73"/>
       <use x="994.990234" xlink:href="#ArialMT-114"/>
       <use x="1028.291016" xlink:href="#ArialMT-114"/>
       <use x="1061.591797" xlink:href="#ArialMT-105"/>
       <use x="1083.808594" xlink:href="#ArialMT-103"/>
       <use x="1139.423828" xlink:href="#ArialMT-97"/>
       <use x="1195.039062" xlink:href="#ArialMT-116"/>
       <use x="1222.822266" xlink:href="#ArialMT-105"/>
       <use x="1245.039062" xlink:href="#ArialMT-111"/>
       <use x="1300.654297" xlink:href="#ArialMT-110"/>
       <use x="1356.269531" xlink:href="#ArialMT-32"/>
       <use x="1384.052734" xlink:href="#ArialMT-73"/>
       <use x="1411.835938" xlink:href="#ArialMT-110"/>
       <use x="1467.451172" xlink:href="#ArialMT-116"/>
       <use x="1495.234375" xlink:href="#ArialMT-101"/>
       <use x="1550.849609" xlink:href="#ArialMT-114"/>
       <use x="1584.150391" xlink:href="#ArialMT-109"/>
       <use x="1667.451172" xlink:href="#ArialMT-101"/>
       <use x="1723.066406" xlink:href="#ArialMT-100"/>
       <use x="1778.681641" xlink:href="#ArialMT-105"/>
       <use x="1800.898438" xlink:href="#ArialMT-97"/>
       <use x="1856.513672" xlink:href="#ArialMT-116"/>
       <use x="1884.296875" xlink:href="#ArialMT-101"/>
      </g>
     </g>
    </g>
    <g id="xtick_33">
     <g id="text_33">
      <!-- Vegetables and fruits Rain-fed High -->
      <g style="fill:#262626;" transform="translate(391.854213 221.42475)rotate(-90)scale(0.088 -0.088)">
       <use xlink:href="#ArialMT-86"/>
       <use x="66.621094" xlink:href="#ArialMT-101"/>
       <use x="122.236328" xlink:href="#ArialMT-103"/>
       <use x="177.851562" xlink:href="#ArialMT-101"/>
       <use x="233.466797" xlink:href="#ArialMT-116"/>
       <use x="261.25" xlink:href="#ArialMT-97"/>
       <use x="316.865234" xlink:href="#ArialMT-98"/>
       <use x="372.480469" xlink:href="#ArialMT-108"/>
       <use x="394.697266" xlink:href="#ArialMT-101"/>
       <use x="450.3125" xlink:href="#ArialMT-115"/>
       <use x="500.3125" xlink:href="#ArialMT-32"/>
       <use x="528.095703" xlink:href="#ArialMT-97"/>
       <use x="583.710938" xlink:href="#ArialMT-110"/>
       <use x="639.326172" xlink:href="#ArialMT-100"/>
       <use x="694.941406" xlink:href="#ArialMT-32"/>
       <use x="722.724609" xlink:href="#ArialMT-102"/>
       <use x="750.507812" xlink:href="#ArialMT-114"/>
       <use x="783.808594" xlink:href="#ArialMT-117"/>
       <use x="839.423828" xlink:href="#ArialMT-105"/>
       <use x="861.640625" xlink:href="#ArialMT-116"/>
       <use x="889.423828" xlink:href="#ArialMT-115"/>
       <use x="939.423828" xlink:href="#ArialMT-32"/>
       <use x="967.207031" xlink:href="#ArialMT-82"/>
       <use x="1039.423828" xlink:href="#ArialMT-97"/>
       <use x="1095.039062" xlink:href="#ArialMT-105"/>
       <use x="1117.255859" xlink:href="#ArialMT-110"/>
       <use x="1172.871094" xlink:href="#ArialMT-45"/>
       <use x="1206.171875" xlink:href="#ArialMT-102"/>
       <use x="1233.955078" xlink:href="#ArialMT-101"/>
       <use x="1289.570312" xlink:href="#ArialMT-100"/>
       <use x="1345.185547" xlink:href="#ArialMT-32"/>
       <use x="1372.96875" xlink:href="#ArialMT-72"/>
       <use x="1445.185547" xlink:href="#ArialMT-105"/>
       <use x="1467.402344" xlink:href="#ArialMT-103"/>
       <use x="1523.017578" xlink:href="#ArialMT-104"/>
      </g>
     </g>
    </g>
    <g id="xtick_34">
     <g id="text_34">
      <!-- Vegetables and fruits Rain-fed Intermediate -->
      <g style="fill:#262626;" transform="translate(402.827419 252.2385)rotate(-90)scale(0.088 -0.088)">
       <use xlink:href="#ArialMT-86"/>
       <use x="66.621094" xlink:href="#ArialMT-101"/>
       <use x="122.236328" xlink:href="#ArialMT-103"/>
       <use x="177.851562" xlink:href="#ArialMT-101"/>
       <use x="233.466797" xlink:href="#ArialMT-116"/>
       <use x="261.25" xlink:href="#ArialMT-97"/>
       <use x="316.865234" xlink:href="#ArialMT-98"/>
       <use x="372.480469" xlink:href="#ArialMT-108"/>
       <use x="394.697266" xlink:href="#ArialMT-101"/>
       <use x="450.3125" xlink:href="#ArialMT-115"/>
       <use x="500.3125" xlink:href="#ArialMT-32"/>
       <use x="528.095703" xlink:href="#ArialMT-97"/>
       <use x="583.710938" xlink:href="#ArialMT-110"/>
       <use x="639.326172" xlink:href="#ArialMT-100"/>
       <use x="694.941406" xlink:href="#ArialMT-32"/>
       <use x="722.724609" xlink:href="#ArialMT-102"/>
       <use x="750.507812" xlink:href="#ArialMT-114"/>
       <use x="783.808594" xlink:href="#ArialMT-117"/>
       <use x="839.423828" xlink:href="#ArialMT-105"/>
       <use x="861.640625" xlink:href="#ArialMT-116"/>
       <use x="889.423828" xlink:href="#ArialMT-115"/>
       <use x="939.423828" xlink:href="#ArialMT-32"/>
       <use x="967.207031" xlink:href="#ArialMT-82"/>
       <use x="1039.423828" xlink:href="#ArialMT-97"/>
       <use x="1095.039062" xlink:href="#ArialMT-105"/>
       <use x="1117.255859" xlink:href="#ArialMT-110"/>
       <use x="1172.871094" xlink:href="#ArialMT-45"/>
       <use x="1206.171875" xlink:href="#ArialMT-102"/>
       <use x="1233.955078" xlink:href="#ArialMT-101"/>
       <use x="1289.570312" xlink:href="#ArialMT-100"/>
       <use x="1345.185547" xlink:href="#ArialMT-32"/>
       <use x="1372.96875" xlink:href="#ArialMT-73"/>
       <use x="1400.751953" xlink:href="#ArialMT-110"/>
       <use x="1456.367188" xlink:href="#ArialMT-116"/>
       <use x="1484.150391" xlink:href="#ArialMT-101"/>
       <use x="1539.765625" xlink:href="#ArialMT-114"/>
       <use x="1573.066406" xlink:href="#ArialMT-109"/>
       <use x="1656.367188" xlink:href="#ArialMT-101"/>
       <use x="1711.982422" xlink:href="#ArialMT-100"/>
       <use x="1767.597656" xlink:href="#ArialMT-105"/>
       <use x="1789.814453" xlink:href="#ArialMT-97"/>
       <use x="1845.429688" xlink:href="#ArialMT-116"/>
       <use x="1873.212891" xlink:href="#ArialMT-101"/>
      </g>
     </g>
    </g>
    <g id="xtick_35">
     <g id="text_35">
      <!-- Vegetables and fruits Rain-fed Low -->
      <g style="fill:#262626;" transform="translate(413.800625 219.4695)rotate(-90)scale(0.088 -0.088)">
       <use xlink:href="#ArialMT-86"/>
       <use x="66.621094" xlink:href="#ArialMT-101"/>
       <use x="122.236328" xlink:href="#ArialMT-103"/>
       <use x="177.851562" xlink:href="#ArialMT-101"/>
       <use x="233.466797" xlink:href="#ArialMT-116"/>
       <use x="261.25" xlink:href="#ArialMT-97"/>
       <use x="316.865234" xlink:href="#ArialMT-98"/>
       <use x="372.480469" xlink:href="#ArialMT-108"/>
       <use x="394.697266" xlink:href="#ArialMT-101"/>
       <use x="450.3125" xlink:href="#ArialMT-115"/>
       <use x="500.3125" xlink:href="#ArialMT-32"/>
       <use x="528.095703" xlink:href="#ArialMT-97"/>
       <use x="583.710938" xlink:href="#ArialMT-110"/>
       <use x="639.326172" xlink:href="#ArialMT-100"/>
       <use x="694.941406" xlink:href="#ArialMT-32"/>
       <use x="722.724609" xlink:href="#ArialMT-102"/>
       <use x="750.507812" xlink:href="#ArialMT-114"/>
       <use x="783.808594" xlink:href="#ArialMT-117"/>
       <use x="839.423828" xlink:href="#ArialMT-105"/>
       <use x="861.640625" xlink:href="#ArialMT-116"/>
       <use x="889.423828" xlink:href="#ArialMT-115"/>
       <use x="939.423828" xlink:href="#ArialMT-32"/>
       <use x="967.207031" xlink:href="#ArialMT-82"/>
       <use x="1039.423828" xlink:href="#ArialMT-97"/>
       <use x="1095.039062" xlink:href="#ArialMT-105"/>
       <use x="1117.255859" xlink:href="#ArialMT-110"/>
       <use x="1172.871094" xlink:href="#ArialMT-45"/>
       <use x="1206.171875" xlink:href="#ArialMT-102"/>
       <use x="1233.955078" xlink:href="#ArialMT-101"/>
       <use x="1289.570312" xlink:href="#ArialMT-100"/>
       <use x="1345.185547" xlink:href="#ArialMT-32"/>
       <use x="1372.96875" xlink:href="#ArialMT-76"/>
       <use x="1428.583984" xlink:href="#ArialMT-111"/>
       <use x="1484.199219" xlink:href="#ArialMT-119"/>
      </g>
     </g>
    </g>
    <g id="text_36">
     <!-- Crop name -->
     <defs>
      <path d="M 6.59375 -19.875 
L 6.59375 51.859375 
L 14.59375 51.859375 
L 14.59375 45.125 
Q 17.4375 49.078125 21 51.046875 
Q 24.5625 53.03125 29.640625 53.03125 
Q 36.28125 53.03125 41.359375 49.609375 
Q 46.4375 46.1875 49.015625 39.953125 
Q 51.609375 33.734375 51.609375 26.3125 
Q 51.609375 18.359375 48.75 11.984375 
Q 45.90625 5.609375 40.453125 2.21875 
Q 35.015625 -1.171875 29 -1.171875 
Q 24.609375 -1.171875 21.109375 0.6875 
Q 17.625 2.546875 15.375 5.375 
L 15.375 -19.875 
z
M 14.546875 25.640625 
Q 14.546875 15.625 18.59375 10.84375 
Q 22.65625 6.0625 28.421875 6.0625 
Q 34.28125 6.0625 38.453125 11.015625 
Q 42.625 15.96875 42.625 26.375 
Q 42.625 36.28125 38.546875 41.203125 
Q 34.46875 46.140625 28.8125 46.140625 
Q 23.1875 46.140625 18.859375 40.890625 
Q 14.546875 35.640625 14.546875 25.640625 
z
" id="ArialMT-112"/>
     </defs>
     <g style="fill:#262626;" transform="translate(201.236375 264.201875)scale(0.096 -0.096)">
      <use xlink:href="#ArialMT-67"/>
      <use x="72.216797" xlink:href="#ArialMT-114"/>
      <use x="105.517578" xlink:href="#ArialMT-111"/>
      <use x="161.132812" xlink:href="#ArialMT-112"/>
      <use x="216.748047" xlink:href="#ArialMT-32"/>
      <use x="244.53125" xlink:href="#ArialMT-110"/>
      <use x="300.146484" xlink:href="#ArialMT-97"/>
      <use x="355.761719" xlink:href="#ArialMT-109"/>
      <use x="439.0625" xlink:href="#ArialMT-101"/>
     </g>
    </g>
   </g>
   <g id="matplotlib.axis_2">
    <g id="ytick_1">
     <g id="text_37">
      <!-- 0.00 -->
      <defs>
       <path d="M 4.15625 35.296875 
Q 4.15625 48 6.765625 55.734375 
Q 9.375 63.484375 14.515625 67.671875 
Q 19.671875 71.875 27.484375 71.875 
Q 33.25 71.875 37.59375 69.546875 
Q 41.9375 67.234375 44.765625 62.859375 
Q 47.609375 58.5 49.21875 52.21875 
Q 50.828125 45.953125 50.828125 35.296875 
Q 50.828125 22.703125 48.234375 14.96875 
Q 45.65625 7.234375 40.5 3 
Q 35.359375 -1.21875 27.484375 -1.21875 
Q 17.140625 -1.21875 11.234375 6.203125 
Q 4.15625 15.140625 4.15625 35.296875 
z
M 13.1875 35.296875 
Q 13.1875 17.671875 17.3125 11.828125 
Q 21.4375 6 27.484375 6 
Q 33.546875 6 37.671875 11.859375 
Q 41.796875 17.71875 41.796875 35.296875 
Q 41.796875 52.984375 37.671875 58.78125 
Q 33.546875 64.59375 27.390625 64.59375 
Q 21.34375 64.59375 17.71875 59.46875 
Q 13.1875 52.9375 13.1875 35.296875 
z
" id="ArialMT-48"/>
       <path d="M 9.078125 0 
L 9.078125 10.015625 
L 19.09375 10.015625 
L 19.09375 0 
z
" id="ArialMT-46"/>
      </defs>
      <g style="fill:#262626;" transform="translate(13.009 73.990074)scale(0.088 -0.088)">
       <use xlink:href="#ArialMT-48"/>
       <use x="55.615234" xlink:href="#ArialMT-46"/>
       <use x="83.398438" xlink:href="#ArialMT-48"/>
       <use x="139.013672" xlink:href="#ArialMT-48"/>
      </g>
     </g>
    </g>
    <g id="ytick_2">
     <g id="text_38">
      <!-- 0.25 -->
      <defs>
       <path d="M 50.34375 8.453125 
L 50.34375 0 
L 3.03125 0 
Q 2.9375 3.171875 4.046875 6.109375 
Q 5.859375 10.9375 9.828125 15.625 
Q 13.8125 20.3125 21.34375 26.46875 
Q 33.015625 36.03125 37.109375 41.625 
Q 41.21875 47.21875 41.21875 52.203125 
Q 41.21875 57.421875 37.46875 61 
Q 33.734375 64.59375 27.734375 64.59375 
Q 21.390625 64.59375 17.578125 60.78125 
Q 13.765625 56.984375 13.71875 50.25 
L 4.6875 51.171875 
Q 5.609375 61.28125 11.65625 66.578125 
Q 17.71875 71.875 27.9375 71.875 
Q 38.234375 71.875 44.234375 66.15625 
Q 50.25 60.453125 50.25 52 
Q 50.25 47.703125 48.484375 43.546875 
Q 46.734375 39.40625 42.65625 34.8125 
Q 38.578125 30.21875 29.109375 22.21875 
Q 21.1875 15.578125 18.9375 13.203125 
Q 16.703125 10.84375 15.234375 8.453125 
z
" id="ArialMT-50"/>
       <path d="M 4.15625 18.75 
L 13.375 19.53125 
Q 14.40625 12.796875 18.140625 9.390625 
Q 21.875 6 27.15625 6 
Q 33.5 6 37.890625 10.78125 
Q 42.28125 15.578125 42.28125 23.484375 
Q 42.28125 31 38.0625 35.34375 
Q 33.84375 39.703125 27 39.703125 
Q 22.75 39.703125 19.328125 37.765625 
Q 15.921875 35.84375 13.96875 32.765625 
L 5.71875 33.84375 
L 12.640625 70.609375 
L 48.25 70.609375 
L 48.25 62.203125 
L 19.671875 62.203125 
L 15.828125 42.96875 
Q 22.265625 47.46875 29.34375 47.46875 
Q 38.71875 47.46875 45.15625 40.96875 
Q 51.609375 34.46875 51.609375 24.265625 
Q 51.609375 14.546875 45.953125 7.46875 
Q 39.0625 -1.21875 27.15625 -1.21875 
Q 17.390625 -1.21875 11.203125 4.25 
Q 5.03125 9.71875 4.15625 18.75 
z
" id="ArialMT-53"/>
      </defs>
      <g style="fill:#262626;" transform="translate(13.009 55.355644)scale(0.088 -0.088)">
       <use xlink:href="#ArialMT-48"/>
       <use x="55.615234" xlink:href="#ArialMT-46"/>
       <use x="83.398438" xlink:href="#ArialMT-50"/>
       <use x="139.013672" xlink:href="#ArialMT-53"/>
      </g>
     </g>
    </g>
    <g id="ytick_3">
     <g id="text_39">
      <!-- 0.50 -->
      <g style="fill:#262626;" transform="translate(13.009 36.721215)scale(0.088 -0.088)">
       <use xlink:href="#ArialMT-48"/>
       <use x="55.615234" xlink:href="#ArialMT-46"/>
       <use x="83.398438" xlink:href="#ArialMT-53"/>
       <use x="139.013672" xlink:href="#ArialMT-48"/>
      </g>
     </g>
    </g>
    <g id="ytick_4">
     <g id="text_40">
      <!-- 0.75 -->
      <defs>
       <path d="M 4.734375 62.203125 
L 4.734375 70.65625 
L 51.078125 70.65625 
L 51.078125 63.8125 
Q 44.234375 56.546875 37.515625 44.484375 
Q 30.8125 32.421875 27.15625 19.671875 
Q 24.515625 10.6875 23.78125 0 
L 14.75 0 
Q 14.890625 8.453125 18.0625 20.40625 
Q 21.234375 32.375 27.171875 43.484375 
Q 33.109375 54.59375 39.796875 62.203125 
z
" id="ArialMT-55"/>
      </defs>
      <g style="fill:#262626;" transform="translate(13.009 18.086785)scale(0.088 -0.088)">
       <use xlink:href="#ArialMT-48"/>
       <use x="55.615234" xlink:href="#ArialMT-46"/>
       <use x="83.398438" xlink:href="#ArialMT-55"/>
       <use x="139.013672" xlink:href="#ArialMT-53"/>
      </g>
     </g>
    </g>
    <g id="text_41">
     <!-- Crop yield (t/ha) -->
     <defs>
      <path d="M 6.203125 -19.96875 
L 5.21875 -11.71875 
Q 8.109375 -12.5 10.25 -12.5 
Q 13.1875 -12.5 14.9375 -11.515625 
Q 16.703125 -10.546875 17.828125 -8.796875 
Q 18.65625 -7.46875 20.515625 -2.25 
Q 20.75 -1.515625 21.296875 -0.09375 
L 1.609375 51.859375 
L 11.078125 51.859375 
L 21.875 21.828125 
Q 23.96875 16.109375 25.640625 9.8125 
Q 27.15625 15.875 29.25 21.625 
L 40.328125 51.859375 
L 49.125 51.859375 
L 29.390625 -0.875 
Q 26.21875 -9.421875 24.46875 -12.640625 
Q 22.125 -17 19.09375 -19.015625 
Q 16.0625 -21.046875 11.859375 -21.046875 
Q 9.328125 -21.046875 6.203125 -19.96875 
z
" id="ArialMT-121"/>
      <path d="M 23.390625 -21.046875 
Q 16.109375 -11.859375 11.078125 0.4375 
Q 6.0625 12.75 6.0625 25.921875 
Q 6.0625 37.546875 9.8125 48.1875 
Q 14.203125 60.546875 23.390625 72.796875 
L 29.6875 72.796875 
Q 23.78125 62.640625 21.875 58.296875 
Q 18.890625 51.5625 17.1875 44.234375 
Q 15.09375 35.109375 15.09375 25.875 
Q 15.09375 2.390625 29.6875 -21.046875 
z
" id="ArialMT-40"/>
      <path d="M 0 -1.21875 
L 20.75 72.796875 
L 27.78125 72.796875 
L 7.078125 -1.21875 
z
" id="ArialMT-47"/>
      <path d="M 12.359375 -21.046875 
L 6.0625 -21.046875 
Q 20.65625 2.390625 20.65625 25.875 
Q 20.65625 35.0625 18.5625 44.09375 
Q 16.890625 51.421875 13.921875 58.15625 
Q 12.015625 62.546875 6.0625 72.796875 
L 12.359375 72.796875 
Q 21.53125 60.546875 25.921875 48.1875 
Q 29.6875 37.546875 29.6875 25.921875 
Q 29.6875 12.75 24.625 0.4375 
Q 19.578125 -11.859375 12.359375 -21.046875 
z
" id="ArialMT-41"/>
     </defs>
     <g style="fill:#262626;" transform="translate(6.9885 71.25075)rotate(-90)scale(0.096 -0.096)">
      <use xlink:href="#ArialMT-67"/>
      <use x="72.216797" xlink:href="#ArialMT-114"/>
      <use x="105.517578" xlink:href="#ArialMT-111"/>
      <use x="161.132812" xlink:href="#ArialMT-112"/>
      <use x="216.748047" xlink:href="#ArialMT-32"/>
      <use x="244.53125" xlink:href="#ArialMT-121"/>
      <use x="294.53125" xlink:href="#ArialMT-105"/>
      <use x="316.748047" xlink:href="#ArialMT-101"/>
      <use x="372.363281" xlink:href="#ArialMT-108"/>
      <use x="394.580078" xlink:href="#ArialMT-100"/>
      <use x="450.195312" xlink:href="#ArialMT-32"/>
      <use x="477.978516" xlink:href="#ArialMT-40"/>
      <use x="511.279297" xlink:href="#ArialMT-116"/>
      <use x="539.0625" xlink:href="#ArialMT-47"/>
      <use x="566.845703" xlink:href="#ArialMT-104"/>
      <use x="622.460938" xlink:href="#ArialMT-97"/>
      <use x="678.076172" xlink:href="#ArialMT-41"/>
     </g>
    </g>
   </g>
   <g id="line2d_1">
    <path clip-path="url(#p25de0169e5)" d="M 38.434625 70.840636 
L 49.407831 70.840636 
L 60.381037 70.840636 
L 71.354243 70.840636 
L 82.327449 70.840636 
L 93.300654 70.840636 
L 104.27386 70.840636 
L 115.247066 70.840636 
L 126.220272 70.840636 
L 137.193478 70.840636 
L 148.166684 39.52155 
L 159.13989 42.814793 
L 170.113096 39.52155 
L 181.086301 42.814793 
L 192.059507 40.665926 
L 203.032713 70.840636 
L 214.005919 70.840636 
L 224.979125 70.840636 
L 235.952331 70.840636 
L 246.925537 70.840636 
L 257.898743 70.840636 
L 268.871949 70.840636 
L 279.845154 70.840636 
L 290.81836 70.840636 
L 301.791566 70.840636 
L 312.764772 70.840636 
L 323.737978 70.840636 
L 334.711184 70.840636 
L 345.68439 70.840636 
L 356.657596 70.840636 
L 367.630801 33.98387 
L 378.604007 29.505023 
L 389.577213 29.955844 
L 400.550419 28.358998 
L 411.523625 28.156905 
" style="fill:none;stroke:#4c72b0;stroke-linecap:round;stroke-width:1.2;"/>
   </g>
   <g id="line2d_2">
    <path clip-path="url(#p25de0169e5)" d="M 38.434625 70.840636 
L 49.407831 70.840636 
L 60.381037 70.840636 
L 71.354243 70.840636 
L 82.327449 70.840636 
L 93.300654 17.14652 
L 104.27386 22.970855 
L 115.247066 16.775809 
L 126.220272 22.602871 
L 137.193478 19.993928 
L 148.166684 24.386989 
L 159.13989 32.610727 
L 170.113096 26.922029 
L 181.086301 34.504554 
L 192.059507 26.33715 
L 203.032713 70.840636 
L 214.005919 70.840636 
L 224.979125 70.840636 
L 235.952331 70.840636 
L 246.925537 70.840636 
L 257.898743 70.840636 
L 268.871949 70.840636 
L 279.845154 70.840636 
L 290.81836 70.840636 
L 301.791566 70.840636 
L 312.764772 70.840636 
L 323.737978 70.840636 
L 334.711184 70.840636 
L 345.68439 70.840636 
L 356.657596 70.840636 
L 367.630801 27.261058 
L 378.604007 22.810831 
L 389.577213 23.607328 
L 400.550419 22.154506 
L 411.523625 21.826137 
" style="fill:none;stroke:#dd8452;stroke-linecap:round;stroke-width:1.2;"/>
   </g>
   <g id="line2d_3">
    <path clip-path="url(#p25de0169e5)" d="M 38.434625 70.840636 
L 49.407831 70.840636 
L 60.381037 70.840636 
L 71.354243 70.840636 
L 82.327449 70.840636 
L 93.300654 17.171481 
L 104.27386 23.384953 
L 115.247066 16.750182 
L 126.220272 23.026386 
L 137.193478 19.806644 
L 148.166684 23.819443 
L 159.13989 32.116073 
L 170.113096 26.25989 
L 181.086301 33.939233 
L 192.059507 26.955256 
L 203.032713 70.840636 
L 214.005919 70.840636 
L 224.979125 70.840636 
L 235.952331 70.840636 
L 246.925537 70.840636 
L 257.898743 70.840636 
L 268.871949 70.840636 
L 279.845154 70.840636 
L 290.81836 70.840636 
L 301.791566 70.840636 
L 312.764772 70.840636 
L 323.737978 70.840636 
L 334.711184 70.840636 
L 345.68439 70.840636 
L 356.657596 70.840636 
L 367.630801 27.899947 
L 378.604007 23.291509 
L 389.577213 23.943942 
L 400.550419 22.48694 
L 411.523625 22.474442 
" style="fill:none;stroke:#55a868;stroke-linecap:round;stroke-width:1.2;"/>
   </g>
   <g id="line2d_4">
    <path clip-path="url(#p25de0169e5)" d="M 38.434625 70.840636 
L 49.407831 70.840636 
L 60.381037 70.840636 
L 71.354243 70.840636 
L 82.327449 70.840636 
L 93.300654 18.794038 
L 104.27386 20.858953 
L 115.247066 18.646297 
L 126.220272 20.78178 
L 137.193478 24.863225 
L 148.166684 26.553124 
L 159.13989 27.028172 
L 170.113096 29.986777 
L 181.086301 29.967849 
L 192.059507 26.280963 
L 203.032713 70.840636 
L 214.005919 70.840636 
L 224.979125 70.840636 
L 235.952331 70.840636 
L 246.925537 70.840636 
L 257.898743 7.242067 
L 268.871949 10.292617 
L 279.845154 70.840636 
L 290.81836 70.840636 
L 301.791566 70.840636 
L 312.764772 70.840636 
L 323.737978 70.840636 
L 334.711184 70.840636 
L 345.68439 70.840636 
L 356.657596 70.840636 
L 367.630801 8.719759 
L 378.604007 6.899566 
L 389.577213 6.236277 
L 400.550419 8.429756 
L 411.523625 7.859288 
" style="fill:none;stroke:#c44e52;stroke-linecap:round;stroke-width:1.2;"/>
   </g>
   <g id="line2d_5">
    <path clip-path="url(#p25de0169e5)" d="M 38.434625 70.840636 
L 49.407831 70.840636 
L 60.381037 70.840636 
L 71.354243 70.840636 
L 82.327449 70.840636 
L 93.300654 18.968774 
L 104.27386 17.587575 
L 115.247066 18.825658 
L 126.220272 17.520759 
L 137.193478 25.050506 
L 148.166684 18.976382 
L 159.13989 20.428036 
L 170.113096 20.972253 
L 181.086301 21.544547 
L 192.059507 28.247655 
L 203.032713 32.190139 
L 214.005919 30.824982 
L 224.979125 32.193302 
L 235.952331 30.962059 
L 246.925537 27.737161 
L 257.898743 7.364245 
L 268.871949 10.403644 
L 279.845154 70.840636 
L 290.81836 70.840636 
L 301.791566 70.840636 
L 312.764772 70.840636 
L 323.737978 70.840636 
L 334.711184 70.840636 
L 345.68439 70.840636 
L 356.657596 70.840636 
L 367.630801 6.422846 
L 378.604007 5.204971 
L 389.577213 3.47689 
L 400.550419 6.468676 
L 411.523625 3.373364 
" style="fill:none;stroke:#8172b3;stroke-linecap:round;stroke-width:1.2;"/>
   </g>
   <g id="line2d_6">
    <path clip-path="url(#p25de0169e5)" d="M 38.434625 70.840636 
L 49.407831 70.840636 
L 60.381037 70.840636 
L 71.354243 70.840636 
L 82.327449 70.840636 
L 93.300654 18.744117 
L 104.27386 19.740889 
L 115.247066 18.748788 
L 126.220272 19.807708 
L 137.193478 24.769583 
L 148.166684 23.819443 
L 159.13989 24.342891 
L 170.113096 25.465325 
L 181.086301 25.81273 
L 192.059507 25.662857 
L 203.032713 70.840636 
L 214.005919 70.840636 
L 224.979125 70.840636 
L 235.952331 70.840636 
L 246.925537 70.840636 
L 257.898743 20.600371 
L 268.871949 23.961567 
L 279.845154 70.840636 
L 290.81836 70.840636 
L 301.791566 70.840636 
L 312.764772 70.840636 
L 323.737978 70.840636 
L 334.711184 70.840636 
L 345.68439 70.840636 
L 356.657596 70.840636 
L 367.630801 9.356719 
L 378.604007 7.61651 
L 389.577213 7.08103 
L 400.550419 9.211949 
L 411.523625 7.798374 
" style="fill:none;stroke:#937860;stroke-linecap:round;stroke-width:1.2;"/>
   </g>
   <g id="line2d_7">
    <path clip-path="url(#p25de0169e5)" d="M 38.434625 70.840636 
L 49.407831 70.840636 
L 60.381037 70.840636 
L 71.354243 70.840636 
L 82.327449 70.840636 
L 93.300654 18.469526 
L 104.27386 20.072169 
L 115.247066 18.646297 
L 126.220272 20.315923 
L 137.193478 24.301382 
L 148.166684 24.018083 
L 159.13989 26.519385 
L 170.113096 26.420697 
L 181.086301 27.423896 
L 192.059507 25.971906 
L 203.032713 70.840636 
L 214.005919 70.840636 
L 224.979125 70.840636 
L 235.952331 70.840636 
L 246.925537 70.840636 
L 257.898743 70.840636 
L 268.871949 70.840636 
L 279.845154 70.840636 
L 290.81836 70.840636 
L 301.791566 70.840636 
L 312.764772 70.840636 
L 323.737978 70.840636 
L 334.711184 70.840636 
L 345.68439 70.840636 
L 356.657596 70.840636 
L 367.630801 28.700971 
L 378.604007 26.037078 
L 389.577213 25.729933 
L 400.550419 26.157673 
L 411.523625 23.044428 
" style="fill:none;stroke:#da8bc3;stroke-linecap:round;stroke-width:1.2;"/>
   </g>
   <g id="line2d_8">
    <path clip-path="url(#p25de0169e5)" d="M 38.434625 70.840636 
L 49.407831 70.840636 
L 60.381037 70.840636 
L 71.354243 70.840636 
L 82.327449 70.840636 
L 93.300654 19.293285 
L 104.27386 18.995512 
L 115.247066 19.235629 
L 126.220272 19.003042 
L 137.193478 25.612347 
L 148.166684 22.769482 
L 159.13989 23.466645 
L 170.113096 24.188348 
L 181.086301 24.696219 
L 192.059507 29.343386 
L 203.032713 70.840636 
L 214.005919 70.840636 
L 224.979125 70.840636 
L 235.952331 70.840636 
L 246.925537 70.840636 
L 257.898743 7.616751 
L 268.871949 10.650376 
L 279.845154 70.840636 
L 290.81836 70.840636 
L 301.791566 70.840636 
L 312.764772 70.840636 
L 323.737978 70.840636 
L 334.711184 70.840636 
L 345.68439 70.840636 
L 356.657596 70.840636 
L 367.630801 7.845388 
L 378.604007 6.532947 
L 389.577213 5.552326 
L 400.550419 8.292871 
L 411.523625 5.940479 
" style="fill:none;stroke:#8c8c8c;stroke-linecap:round;stroke-width:1.2;"/>
   </g>
   <g id="line2d_9">
    <path clip-path="url(#p25de0169e5)" d="M 38.434625 70.840636 
L 49.407831 70.840636 
L 60.381037 70.840636 
L 71.354243 70.840636 
L 82.327449 70.840636 
L 93.300654 19.243364 
L 104.27386 17.877443 
L 115.247066 19.133138 
L 126.220272 17.859562 
L 137.193478 25.518707 
L 148.166684 19.666896 
L 159.13989 20.484571 
L 170.113096 21.256028 
L 181.086301 21.813076 
L 192.059507 28.72528 
L 203.032713 70.840636 
L 214.005919 70.840636 
L 224.979125 70.840636 
L 235.952331 70.840636 
L 246.925537 70.840636 
L 257.898743 7.559734 
L 268.871949 10.601033 
L 279.845154 70.840636 
L 290.81836 70.840636 
L 301.791566 70.840636 
L 312.764772 70.840636 
L 323.737978 70.840636 
L 334.711184 70.840636 
L 345.68439 70.840636 
L 356.657596 70.840636 
L 367.630801 7.042434 
L 378.604007 5.878464 
L 389.577213 4.415981 
L 400.550419 7.387757 
L 411.523625 4.395858 
" style="fill:none;stroke:#ccb974;stroke-linecap:round;stroke-width:1.2;"/>
   </g>
   <g id="line2d_10">
    <path clip-path="url(#p25de0169e5)" d="M 38.434625 70.840636 
L 49.407831 70.840636 
L 60.381037 70.840636 
L 71.354243 70.840636 
L 82.327449 70.840636 
L 93.300654 18.918853 
L 104.27386 17.546169 
L 115.247066 18.825658 
L 126.220272 17.520759 
L 137.193478 24.956864 
L 148.166684 16.498102 
L 159.13989 17.149169 
L 170.113096 20.206067 
L 181.086301 19.057128 
L 192.059507 24.173789 
L 203.032713 70.840636 
L 214.005919 70.840636 
L 224.979125 70.840636 
L 235.952331 70.840636 
L 246.925537 70.840636 
L 257.898743 7.510862 
L 268.871949 10.551684 
L 279.845154 70.840636 
L 290.81836 70.840636 
L 301.791566 70.840636 
L 312.764772 70.840636 
L 323.737978 70.840636 
L 334.711184 70.840636 
L 345.68439 70.840636 
L 356.657596 70.840636 
L 367.630801 7.09648 
L 378.604007 5.818719 
L 389.577213 4.403118 
L 400.550419 7.139131 
L 411.523625 3.965106 
" style="fill:none;stroke:#64b5cd;stroke-linecap:round;stroke-width:1.2;"/>
   </g>
   <g id="line2d_11">
    <path clip-path="url(#p25de0169e5)" d="M 38.434625 70.840636 
L 49.407831 70.840636 
L 60.381037 70.840636 
L 71.354243 70.840636 
L 82.327449 70.840636 
L 93.300654 18.669229 
L 104.27386 18.664232 
L 115.247066 18.77441 
L 126.220272 18.833635 
L 137.193478 24.769583 
L 148.166684 20.773612 
L 159.13989 21.346685 
L 170.113096 22.15464 
L 181.086301 22.632794 
L 192.059507 25.409994 
L 203.032713 70.840636 
L 214.005919 70.840636 
L 224.979125 70.840636 
L 235.952331 70.840636 
L 246.925537 70.840636 
L 257.898743 20.600371 
L 268.871949 23.973903 
L 279.845154 70.840636 
L 290.81836 70.840636 
L 301.791566 70.840636 
L 312.764772 70.840636 
L 323.737978 70.840636 
L 334.711184 70.840636 
L 345.68439 70.840636 
L 356.657596 70.840636 
L 367.630801 8.862592 
L 378.604007 7.277048 
L 389.577213 6.768 
L 400.550419 9.211951 
L 411.523625 6.989079 
" style="fill:none;stroke:#4c72b0;stroke-linecap:round;stroke-width:1.2;"/>
   </g>
   <g id="line2d_12">
    <path clip-path="url(#p25de0169e5)" d="M 38.434625 70.840636 
L 49.407831 70.840636 
L 60.381037 70.840636 
L 71.354243 70.840636 
L 82.327449 70.840636 
L 93.300654 19.443061 
L 104.27386 19.119742 
L 115.247066 19.414991 
L 126.220272 19.172444 
L 137.193478 25.89327 
L 148.166684 22.968123 
L 159.13989 23.509041 
L 170.113096 24.386989 
L 181.086301 24.894081 
L 192.059507 29.652436 
L 203.032713 70.840636 
L 214.005919 70.840636 
L 224.979125 70.840636 
L 235.952331 70.840636 
L 246.925537 70.840636 
L 257.898743 7.730785 
L 268.871949 10.761409 
L 279.845154 70.840636 
L 290.81836 70.840636 
L 301.791566 70.840636 
L 312.764772 70.840636 
L 323.737978 70.840636 
L 334.711184 70.840636 
L 345.68439 70.840636 
L 356.657596 70.840636 
L 367.630801 8.061568 
L 378.604007 6.788222 
L 389.577213 6.045457 
L 400.550419 8.809679 
L 411.523625 6.710614 
" style="fill:none;stroke:#dd8452;stroke-linecap:round;stroke-width:1.2;"/>
   </g>
   <g id="line2d_13">
    <path clip-path="url(#p25de0169e5)" d="M 38.434625 70.840636 
L 49.407831 70.840636 
L 60.381037 70.840636 
L 71.354243 70.840636 
L 82.327449 70.840636 
L 93.300654 19.14351 
L 104.27386 17.794624 
L 115.247066 19.08189 
L 126.220272 17.774862 
L 137.193478 25.425065 
L 148.166684 19.487173 
L 159.13989 20.173639 
L 170.113096 21.057383 
L 181.086301 21.629346 
L 192.059507 28.247655 
L 203.032713 32.175969 
L 214.005919 30.814439 
L 224.979125 32.171873 
L 235.952331 30.951515 
L 246.925537 27.737161 
L 257.898743 7.510862 
L 268.871949 10.551684 
L 279.845154 70.840636 
L 290.81836 70.840636 
L 301.791566 70.840636 
L 312.764772 70.840636 
L 323.737978 70.840636 
L 334.711184 70.840636 
L 345.68439 70.840636 
L 356.657596 70.840636 
L 367.630801 6.378453 
L 378.604007 5.242991 
L 389.577213 3.813505 
L 400.550419 6.851394 
L 411.523625 3.986861 
" style="fill:none;stroke:#55a868;stroke-linecap:round;stroke-width:1.2;"/>
   </g>
   <g id="patch_3">
    <path d="M 38.434625 74.214 
L 38.434625 0 
" style="fill:none;stroke:#262626;stroke-linecap:square;stroke-linejoin:miter;"/>
   </g>
   <g id="patch_4">
    <path d="M 411.523625 74.214 
L 411.523625 0 
" style="fill:none;stroke:#262626;stroke-linecap:square;stroke-linejoin:miter;"/>
   </g>
   <g id="patch_5">
    <path d="M 38.434625 74.214 
L 411.523625 74.214 
" style="fill:none;stroke:#262626;stroke-linecap:square;stroke-linejoin:miter;"/>
   </g>
   <g id="patch_6">
    <path d="M 38.434625 0 
L 411.523625 0 
" style="fill:none;stroke:#262626;stroke-linecap:square;stroke-linejoin:miter;"/>
   </g>
  </g>
 </g>
 <defs>
  <clipPath id="p25de0169e5">
   <rect height="74.214" width="373.089" x="38.434625" y="0"/>
  </clipPath>
 </defs>
</svg>
