<?xml version="1.0" encoding="utf-8" standalone="no"?>
<!DOCTYPE svg PUBLIC "-//W3C//DTD SVG 1.1//EN"
  "http://www.w3.org/Graphics/SVG/1.1/DTD/svg11.dtd">
<!-- Created with matplotlib (https://matplotlib.org/) -->
<svg height="458.815625pt" version="1.1" viewBox="0 0 419.519539 458.815625" width="419.519539pt" xmlns="http://www.w3.org/2000/svg" xmlns:xlink="http://www.w3.org/1999/xlink">
 <defs>
  <style type="text/css">
*{stroke-linecap:butt;stroke-linejoin:round;}
  </style>
 </defs>
 <g id="figure_1">
  <g id="patch_1">
   <path d="M 0 458.815625 
L 419.519539 458.815625 
L 419.519539 0 
L 0 0 
z
" style="fill:#ffffff;"/>
  </g>
  <g id="axes_1">
   <g id="patch_2">
    <path d="M 51.742969 285.8325 
L 314.907739 285.8325 
L 314.907739 31.2 
L 51.742969 31.2 
z
" style="fill:#ffffff;"/>
   </g>
   <g id="matplotlib.axis_1">
    <g id="xtick_1">
     <g id="text_1">
      <!-- Irrigation High -->
      <defs>
       <path d="M 9.328125 0 
L 9.328125 71.578125 
L 18.796875 71.578125 
L 18.796875 0 
z
" id="ArialMT-73"/>
       <path d="M 6.5 0 
L 6.5 51.859375 
L 14.40625 51.859375 
L 14.40625 44 
Q 17.4375 49.515625 20 51.265625 
Q 22.5625 53.03125 25.640625 53.03125 
Q 30.078125 53.03125 34.671875 50.203125 
L 31.640625 42.046875 
Q 28.421875 43.953125 25.203125 43.953125 
Q 22.3125 43.953125 20.015625 42.21875 
Q 17.71875 40.484375 16.75 37.40625 
Q 15.28125 32.71875 15.28125 27.15625 
L 15.28125 0 
z
" id="ArialMT-114"/>
       <path d="M 6.640625 61.46875 
L 6.640625 71.578125 
L 15.4375 71.578125 
L 15.4375 61.46875 
z
M 6.640625 0 
L 6.640625 51.859375 
L 15.4375 51.859375 
L 15.4375 0 
z
" id="ArialMT-105"/>
       <path d="M 4.984375 -4.296875 
L 13.53125 -5.5625 
Q 14.0625 -9.515625 16.5 -11.328125 
Q 19.78125 -13.765625 25.4375 -13.765625 
Q 31.546875 -13.765625 34.859375 -11.328125 
Q 38.1875 -8.890625 39.359375 -4.5 
Q 40.046875 -1.8125 39.984375 6.78125 
Q 34.234375 0 25.640625 0 
Q 14.9375 0 9.078125 7.71875 
Q 3.21875 15.4375 3.21875 26.21875 
Q 3.21875 33.640625 5.90625 39.90625 
Q 8.59375 46.1875 13.6875 49.609375 
Q 18.796875 53.03125 25.6875 53.03125 
Q 34.859375 53.03125 40.828125 45.609375 
L 40.828125 51.859375 
L 48.921875 51.859375 
L 48.921875 7.03125 
Q 48.921875 -5.078125 46.453125 -10.125 
Q 44 -15.1875 38.640625 -18.109375 
Q 33.296875 -21.046875 25.484375 -21.046875 
Q 16.21875 -21.046875 10.5 -16.875 
Q 4.78125 -12.703125 4.984375 -4.296875 
z
M 12.25 26.859375 
Q 12.25 16.65625 16.296875 11.96875 
Q 20.359375 7.28125 26.46875 7.28125 
Q 32.515625 7.28125 36.609375 11.9375 
Q 40.71875 16.609375 40.71875 26.5625 
Q 40.71875 36.078125 36.5 40.90625 
Q 32.28125 45.75 26.3125 45.75 
Q 20.453125 45.75 16.34375 40.984375 
Q 12.25 36.234375 12.25 26.859375 
z
" id="ArialMT-103"/>
       <path d="M 40.4375 6.390625 
Q 35.546875 2.25 31.03125 0.53125 
Q 26.515625 -1.171875 21.34375 -1.171875 
Q 12.796875 -1.171875 8.203125 3 
Q 3.609375 7.171875 3.609375 13.671875 
Q 3.609375 17.484375 5.34375 20.625 
Q 7.078125 23.78125 9.890625 25.6875 
Q 12.703125 27.59375 16.21875 28.5625 
Q 18.796875 29.25 24.03125 29.890625 
Q 34.671875 31.15625 39.703125 32.90625 
Q 39.75 34.71875 39.75 35.203125 
Q 39.75 40.578125 37.25 42.78125 
Q 33.890625 45.75 27.25 45.75 
Q 21.046875 45.75 18.09375 43.578125 
Q 15.140625 41.40625 13.71875 35.890625 
L 5.125 37.0625 
Q 6.296875 42.578125 8.984375 45.96875 
Q 11.671875 49.359375 16.75 51.1875 
Q 21.828125 53.03125 28.515625 53.03125 
Q 35.15625 53.03125 39.296875 51.46875 
Q 43.453125 49.90625 45.40625 47.53125 
Q 47.359375 45.171875 48.140625 41.546875 
Q 48.578125 39.3125 48.578125 33.453125 
L 48.578125 21.734375 
Q 48.578125 9.46875 49.140625 6.21875 
Q 49.703125 2.984375 51.375 0 
L 42.1875 0 
Q 40.828125 2.734375 40.4375 6.390625 
z
M 39.703125 26.03125 
Q 34.90625 24.078125 25.34375 22.703125 
Q 19.921875 21.921875 17.671875 20.9375 
Q 15.4375 19.96875 14.203125 18.09375 
Q 12.984375 16.21875 12.984375 13.921875 
Q 12.984375 10.40625 15.640625 8.0625 
Q 18.3125 5.71875 23.4375 5.71875 
Q 28.515625 5.71875 32.46875 7.9375 
Q 36.421875 10.15625 38.28125 14.015625 
Q 39.703125 17 39.703125 22.796875 
z
" id="ArialMT-97"/>
       <path d="M 25.78125 7.859375 
L 27.046875 0.09375 
Q 23.34375 -0.6875 20.40625 -0.6875 
Q 15.625 -0.6875 12.984375 0.828125 
Q 10.359375 2.34375 9.28125 4.8125 
Q 8.203125 7.28125 8.203125 15.1875 
L 8.203125 45.015625 
L 1.765625 45.015625 
L 1.765625 51.859375 
L 8.203125 51.859375 
L 8.203125 64.703125 
L 16.9375 69.96875 
L 16.9375 51.859375 
L 25.78125 51.859375 
L 25.78125 45.015625 
L 16.9375 45.015625 
L 16.9375 14.703125 
Q 16.9375 10.9375 17.40625 9.859375 
Q 17.875 8.796875 18.921875 8.15625 
Q 19.96875 7.515625 21.921875 7.515625 
Q 23.390625 7.515625 25.78125 7.859375 
z
" id="ArialMT-116"/>
       <path d="M 3.328125 25.921875 
Q 3.328125 40.328125 11.328125 47.265625 
Q 18.015625 53.03125 27.640625 53.03125 
Q 38.328125 53.03125 45.109375 46.015625 
Q 51.90625 39.015625 51.90625 26.65625 
Q 51.90625 16.65625 48.90625 10.90625 
Q 45.90625 5.171875 40.15625 2 
Q 34.421875 -1.171875 27.640625 -1.171875 
Q 16.75 -1.171875 10.03125 5.8125 
Q 3.328125 12.796875 3.328125 25.921875 
z
M 12.359375 25.921875 
Q 12.359375 15.96875 16.703125 11.015625 
Q 21.046875 6.0625 27.640625 6.0625 
Q 34.1875 6.0625 38.53125 11.03125 
Q 42.875 16.015625 42.875 26.21875 
Q 42.875 35.84375 38.5 40.796875 
Q 34.125 45.75 27.640625 45.75 
Q 21.046875 45.75 16.703125 40.8125 
Q 12.359375 35.890625 12.359375 25.921875 
z
" id="ArialMT-111"/>
       <path d="M 6.59375 0 
L 6.59375 51.859375 
L 14.5 51.859375 
L 14.5 44.484375 
Q 20.21875 53.03125 31 53.03125 
Q 35.6875 53.03125 39.625 51.34375 
Q 43.5625 49.65625 45.515625 46.921875 
Q 47.46875 44.1875 48.25 40.4375 
Q 48.734375 37.984375 48.734375 31.890625 
L 48.734375 0 
L 39.9375 0 
L 39.9375 31.546875 
Q 39.9375 36.921875 38.90625 39.578125 
Q 37.890625 42.234375 35.28125 43.8125 
Q 32.671875 45.40625 29.15625 45.40625 
Q 23.53125 45.40625 19.453125 41.84375 
Q 15.375 38.28125 15.375 28.328125 
L 15.375 0 
z
" id="ArialMT-110"/>
       <path id="ArialMT-32"/>
       <path d="M 8.015625 0 
L 8.015625 71.578125 
L 17.484375 71.578125 
L 17.484375 42.1875 
L 54.6875 42.1875 
L 54.6875 71.578125 
L 64.15625 71.578125 
L 64.15625 0 
L 54.6875 0 
L 54.6875 33.734375 
L 17.484375 33.734375 
L 17.484375 0 
z
" id="ArialMT-72"/>
       <path d="M 6.59375 0 
L 6.59375 71.578125 
L 15.375 71.578125 
L 15.375 45.90625 
Q 21.53125 53.03125 30.90625 53.03125 
Q 36.671875 53.03125 40.921875 50.75 
Q 45.171875 48.484375 47 44.484375 
Q 48.828125 40.484375 48.828125 32.859375 
L 48.828125 0 
L 40.046875 0 
L 40.046875 32.859375 
Q 40.046875 39.453125 37.1875 42.453125 
Q 34.328125 45.453125 29.109375 45.453125 
Q 25.203125 45.453125 21.75 43.421875 
Q 18.3125 41.40625 16.84375 37.9375 
Q 15.375 34.46875 15.375 28.375 
L 15.375 0 
z
" id="ArialMT-104"/>
      </defs>
      <g style="fill:#262626;" transform="translate(82.228274 401.039844)rotate(-90)scale(0.165 -0.165)">
       <use xlink:href="#ArialMT-73"/>
       <use x="27.783203" xlink:href="#ArialMT-114"/>
       <use x="61.083984" xlink:href="#ArialMT-114"/>
       <use x="94.384766" xlink:href="#ArialMT-105"/>
       <use x="116.601562" xlink:href="#ArialMT-103"/>
       <use x="172.216797" xlink:href="#ArialMT-97"/>
       <use x="227.832031" xlink:href="#ArialMT-116"/>
       <use x="255.615234" xlink:href="#ArialMT-105"/>
       <use x="277.832031" xlink:href="#ArialMT-111"/>
       <use x="333.447266" xlink:href="#ArialMT-110"/>
       <use x="389.0625" xlink:href="#ArialMT-32"/>
       <use x="416.845703" xlink:href="#ArialMT-72"/>
       <use x="489.0625" xlink:href="#ArialMT-105"/>
       <use x="511.279297" xlink:href="#ArialMT-103"/>
       <use x="566.894531" xlink:href="#ArialMT-104"/>
      </g>
     </g>
    </g>
    <g id="xtick_2">
     <g id="text_2">
      <!-- Irrigation Intermediate -->
      <defs>
       <path d="M 42.09375 16.703125 
L 51.171875 15.578125 
Q 49.03125 7.625 43.21875 3.21875 
Q 37.40625 -1.171875 28.375 -1.171875 
Q 17 -1.171875 10.328125 5.828125 
Q 3.65625 12.84375 3.65625 25.484375 
Q 3.65625 38.578125 10.390625 45.796875 
Q 17.140625 53.03125 27.875 53.03125 
Q 38.28125 53.03125 44.875 45.953125 
Q 51.46875 38.875 51.46875 26.03125 
Q 51.46875 25.25 51.421875 23.6875 
L 12.75 23.6875 
Q 13.234375 15.140625 17.578125 10.59375 
Q 21.921875 6.0625 28.421875 6.0625 
Q 33.25 6.0625 36.671875 8.59375 
Q 40.09375 11.140625 42.09375 16.703125 
z
M 13.234375 30.90625 
L 42.1875 30.90625 
Q 41.609375 37.453125 38.875 40.71875 
Q 34.671875 45.796875 27.984375 45.796875 
Q 21.921875 45.796875 17.796875 41.75 
Q 13.671875 37.703125 13.234375 30.90625 
z
" id="ArialMT-101"/>
       <path d="M 6.59375 0 
L 6.59375 51.859375 
L 14.453125 51.859375 
L 14.453125 44.578125 
Q 16.890625 48.390625 20.9375 50.703125 
Q 25 53.03125 30.171875 53.03125 
Q 35.9375 53.03125 39.625 50.640625 
Q 43.3125 48.25 44.828125 43.953125 
Q 50.984375 53.03125 60.84375 53.03125 
Q 68.5625 53.03125 72.703125 48.75 
Q 76.859375 44.484375 76.859375 35.59375 
L 76.859375 0 
L 68.109375 0 
L 68.109375 32.671875 
Q 68.109375 37.9375 67.25 40.25 
Q 66.40625 42.578125 64.15625 43.984375 
Q 61.921875 45.40625 58.890625 45.40625 
Q 53.421875 45.40625 49.796875 41.765625 
Q 46.1875 38.140625 46.1875 30.125 
L 46.1875 0 
L 37.40625 0 
L 37.40625 33.6875 
Q 37.40625 39.546875 35.25 42.46875 
Q 33.109375 45.40625 28.21875 45.40625 
Q 24.515625 45.40625 21.359375 43.453125 
Q 18.21875 41.5 16.796875 37.734375 
Q 15.375 33.984375 15.375 26.90625 
L 15.375 0 
z
" id="ArialMT-109"/>
       <path d="M 40.234375 0 
L 40.234375 6.546875 
Q 35.296875 -1.171875 25.734375 -1.171875 
Q 19.53125 -1.171875 14.328125 2.25 
Q 9.125 5.671875 6.265625 11.796875 
Q 3.421875 17.921875 3.421875 25.875 
Q 3.421875 33.640625 6 39.96875 
Q 8.59375 46.296875 13.765625 49.65625 
Q 18.953125 53.03125 25.34375 53.03125 
Q 30.03125 53.03125 33.6875 51.046875 
Q 37.359375 49.078125 39.65625 45.90625 
L 39.65625 71.578125 
L 48.390625 71.578125 
L 48.390625 0 
z
M 12.453125 25.875 
Q 12.453125 15.921875 16.640625 10.984375 
Q 20.84375 6.0625 26.5625 6.0625 
Q 32.328125 6.0625 36.34375 10.765625 
Q 40.375 15.484375 40.375 25.140625 
Q 40.375 35.796875 36.265625 40.765625 
Q 32.171875 45.75 26.171875 45.75 
Q 20.3125 45.75 16.375 40.96875 
Q 12.453125 36.1875 12.453125 25.875 
z
" id="ArialMT-100"/>
      </defs>
      <g style="fill:#262626;" transform="translate(134.861228 458.815625)rotate(-90)scale(0.165 -0.165)">
       <use xlink:href="#ArialMT-73"/>
       <use x="27.783203" xlink:href="#ArialMT-114"/>
       <use x="61.083984" xlink:href="#ArialMT-114"/>
       <use x="94.384766" xlink:href="#ArialMT-105"/>
       <use x="116.601562" xlink:href="#ArialMT-103"/>
       <use x="172.216797" xlink:href="#ArialMT-97"/>
       <use x="227.832031" xlink:href="#ArialMT-116"/>
       <use x="255.615234" xlink:href="#ArialMT-105"/>
       <use x="277.832031" xlink:href="#ArialMT-111"/>
       <use x="333.447266" xlink:href="#ArialMT-110"/>
       <use x="389.0625" xlink:href="#ArialMT-32"/>
       <use x="416.845703" xlink:href="#ArialMT-73"/>
       <use x="444.628906" xlink:href="#ArialMT-110"/>
       <use x="500.244141" xlink:href="#ArialMT-116"/>
       <use x="528.027344" xlink:href="#ArialMT-101"/>
       <use x="583.642578" xlink:href="#ArialMT-114"/>
       <use x="616.943359" xlink:href="#ArialMT-109"/>
       <use x="700.244141" xlink:href="#ArialMT-101"/>
       <use x="755.859375" xlink:href="#ArialMT-100"/>
       <use x="811.474609" xlink:href="#ArialMT-105"/>
       <use x="833.691406" xlink:href="#ArialMT-97"/>
       <use x="889.306641" xlink:href="#ArialMT-116"/>
       <use x="917.089844" xlink:href="#ArialMT-101"/>
      </g>
     </g>
    </g>
    <g id="xtick_3">
     <g id="text_3">
      <!-- Rain-fed High -->
      <defs>
       <path d="M 7.859375 0 
L 7.859375 71.578125 
L 39.59375 71.578125 
Q 49.171875 71.578125 54.140625 69.640625 
Q 59.125 67.71875 62.109375 62.828125 
Q 65.09375 57.953125 65.09375 52.046875 
Q 65.09375 44.4375 60.15625 39.203125 
Q 55.21875 33.984375 44.921875 32.5625 
Q 48.6875 30.765625 50.640625 29 
Q 54.78125 25.203125 58.5 19.484375 
L 70.953125 0 
L 59.03125 0 
L 49.5625 14.890625 
Q 45.40625 21.34375 42.71875 24.75 
Q 40.046875 28.171875 37.921875 29.53125 
Q 35.796875 30.90625 33.59375 31.453125 
Q 31.984375 31.78125 28.328125 31.78125 
L 17.328125 31.78125 
L 17.328125 0 
z
M 17.328125 39.984375 
L 37.703125 39.984375 
Q 44.1875 39.984375 47.84375 41.328125 
Q 51.515625 42.671875 53.421875 45.625 
Q 55.328125 48.578125 55.328125 52.046875 
Q 55.328125 57.125 51.640625 60.390625 
Q 47.953125 63.671875 39.984375 63.671875 
L 17.328125 63.671875 
z
" id="ArialMT-82"/>
       <path d="M 3.171875 21.484375 
L 3.171875 30.328125 
L 30.171875 30.328125 
L 30.171875 21.484375 
z
" id="ArialMT-45"/>
       <path d="M 8.6875 0 
L 8.6875 45.015625 
L 0.921875 45.015625 
L 0.921875 51.859375 
L 8.6875 51.859375 
L 8.6875 57.375 
Q 8.6875 62.59375 9.625 65.140625 
Q 10.890625 68.5625 14.078125 70.671875 
Q 17.28125 72.796875 23.046875 72.796875 
Q 26.765625 72.796875 31.25 71.921875 
L 29.9375 64.265625 
Q 27.203125 64.75 24.75 64.75 
Q 20.75 64.75 19.09375 63.03125 
Q 17.4375 61.328125 17.4375 56.640625 
L 17.4375 51.859375 
L 27.546875 51.859375 
L 27.546875 45.015625 
L 17.4375 45.015625 
L 17.4375 0 
z
" id="ArialMT-102"/>
      </defs>
      <g style="fill:#262626;" transform="translate(187.594729 399.211953)rotate(-90)scale(0.165 -0.165)">
       <use xlink:href="#ArialMT-82"/>
       <use x="72.216797" xlink:href="#ArialMT-97"/>
       <use x="127.832031" xlink:href="#ArialMT-105"/>
       <use x="150.048828" xlink:href="#ArialMT-110"/>
       <use x="205.664062" xlink:href="#ArialMT-45"/>
       <use x="238.964844" xlink:href="#ArialMT-102"/>
       <use x="266.748047" xlink:href="#ArialMT-101"/>
       <use x="322.363281" xlink:href="#ArialMT-100"/>
       <use x="377.978516" xlink:href="#ArialMT-32"/>
       <use x="405.761719" xlink:href="#ArialMT-72"/>
       <use x="477.978516" xlink:href="#ArialMT-105"/>
       <use x="500.195312" xlink:href="#ArialMT-103"/>
       <use x="555.810547" xlink:href="#ArialMT-104"/>
      </g>
     </g>
    </g>
    <g id="xtick_4">
     <g id="text_4">
      <!-- Rain-fed Intermediate -->
      <g style="fill:#262626;" transform="translate(240.223816 456.987734)rotate(-90)scale(0.165 -0.165)">
       <use xlink:href="#ArialMT-82"/>
       <use x="72.216797" xlink:href="#ArialMT-97"/>
       <use x="127.832031" xlink:href="#ArialMT-105"/>
       <use x="150.048828" xlink:href="#ArialMT-110"/>
       <use x="205.664062" xlink:href="#ArialMT-45"/>
       <use x="238.964844" xlink:href="#ArialMT-102"/>
       <use x="266.748047" xlink:href="#ArialMT-101"/>
       <use x="322.363281" xlink:href="#ArialMT-100"/>
       <use x="377.978516" xlink:href="#ArialMT-32"/>
       <use x="405.761719" xlink:href="#ArialMT-73"/>
       <use x="433.544922" xlink:href="#ArialMT-110"/>
       <use x="489.160156" xlink:href="#ArialMT-116"/>
       <use x="516.943359" xlink:href="#ArialMT-101"/>
       <use x="572.558594" xlink:href="#ArialMT-114"/>
       <use x="605.859375" xlink:href="#ArialMT-109"/>
       <use x="689.160156" xlink:href="#ArialMT-101"/>
       <use x="744.775391" xlink:href="#ArialMT-100"/>
       <use x="800.390625" xlink:href="#ArialMT-105"/>
       <use x="822.607422" xlink:href="#ArialMT-97"/>
       <use x="878.222656" xlink:href="#ArialMT-116"/>
       <use x="906.005859" xlink:href="#ArialMT-101"/>
      </g>
     </g>
    </g>
    <g id="xtick_5">
     <g id="text_5">
      <!-- Rain-fed Low -->
      <defs>
       <path d="M 7.328125 0 
L 7.328125 71.578125 
L 16.796875 71.578125 
L 16.796875 8.453125 
L 52.046875 8.453125 
L 52.046875 0 
z
" id="ArialMT-76"/>
       <path d="M 16.15625 0 
L 0.296875 51.859375 
L 9.375 51.859375 
L 17.625 21.921875 
L 20.703125 10.796875 
Q 20.90625 11.625 23.390625 21.484375 
L 31.640625 51.859375 
L 40.671875 51.859375 
L 48.4375 21.78125 
L 51.03125 11.859375 
L 54 21.875 
L 62.890625 51.859375 
L 71.4375 51.859375 
L 55.21875 0 
L 46.09375 0 
L 37.84375 31.0625 
L 35.84375 39.890625 
L 25.34375 0 
z
" id="ArialMT-119"/>
      </defs>
      <g style="fill:#262626;" transform="translate(292.85677 395.545859)rotate(-90)scale(0.165 -0.165)">
       <use xlink:href="#ArialMT-82"/>
       <use x="72.216797" xlink:href="#ArialMT-97"/>
       <use x="127.832031" xlink:href="#ArialMT-105"/>
       <use x="150.048828" xlink:href="#ArialMT-110"/>
       <use x="205.664062" xlink:href="#ArialMT-45"/>
       <use x="238.964844" xlink:href="#ArialMT-102"/>
       <use x="266.748047" xlink:href="#ArialMT-101"/>
       <use x="322.363281" xlink:href="#ArialMT-100"/>
       <use x="377.978516" xlink:href="#ArialMT-32"/>
       <use x="405.761719" xlink:href="#ArialMT-76"/>
       <use x="461.376953" xlink:href="#ArialMT-111"/>
       <use x="516.992188" xlink:href="#ArialMT-119"/>
      </g>
     </g>
    </g>
   </g>
   <g id="matplotlib.axis_2">
    <g id="ytick_1">
     <g id="text_6">
      <!-- 2 -->
      <defs>
       <path d="M 50.34375 8.453125 
L 50.34375 0 
L 3.03125 0 
Q 2.9375 3.171875 4.046875 6.109375 
Q 5.859375 10.9375 9.828125 15.625 
Q 13.8125 20.3125 21.34375 26.46875 
Q 33.015625 36.03125 37.109375 41.625 
Q 41.21875 47.21875 41.21875 52.203125 
Q 41.21875 57.421875 37.46875 61 
Q 33.734375 64.59375 27.734375 64.59375 
Q 21.390625 64.59375 17.578125 60.78125 
Q 13.765625 56.984375 13.71875 50.25 
L 4.6875 51.171875 
Q 5.609375 61.28125 11.65625 66.578125 
Q 17.71875 71.875 27.9375 71.875 
Q 38.234375 71.875 44.234375 66.15625 
Q 50.25 60.453125 50.25 52 
Q 50.25 47.703125 48.484375 43.546875 
Q 46.734375 39.40625 42.65625 34.8125 
Q 38.578125 30.21875 29.109375 22.21875 
Q 21.1875 15.578125 18.9375 13.203125 
Q 16.703125 10.84375 15.234375 8.453125 
z
" id="ArialMT-50"/>
      </defs>
      <g style="fill:#262626;" transform="translate(30.067422 250.749731)scale(0.165 -0.165)">
       <use xlink:href="#ArialMT-50"/>
      </g>
     </g>
    </g>
    <g id="ytick_2">
     <g id="text_7">
      <!-- 4 -->
      <defs>
       <path d="M 32.328125 0 
L 32.328125 17.140625 
L 1.265625 17.140625 
L 1.265625 25.203125 
L 33.9375 71.578125 
L 41.109375 71.578125 
L 41.109375 25.203125 
L 50.78125 25.203125 
L 50.78125 17.140625 
L 41.109375 17.140625 
L 41.109375 0 
z
M 32.328125 25.203125 
L 32.328125 57.46875 
L 9.90625 25.203125 
z
" id="ArialMT-52"/>
      </defs>
      <g style="fill:#262626;" transform="translate(30.067422 202.011107)scale(0.165 -0.165)">
       <use xlink:href="#ArialMT-52"/>
      </g>
     </g>
    </g>
    <g id="ytick_3">
     <g id="text_8">
      <!-- 6 -->
      <defs>
       <path d="M 49.75 54.046875 
L 41.015625 53.375 
Q 39.84375 58.546875 37.703125 60.890625 
Q 34.125 64.65625 28.90625 64.65625 
Q 24.703125 64.65625 21.53125 62.3125 
Q 17.390625 59.28125 14.984375 53.46875 
Q 12.59375 47.65625 12.5 36.921875 
Q 15.671875 41.75 20.265625 44.09375 
Q 24.859375 46.4375 29.890625 46.4375 
Q 38.671875 46.4375 44.84375 39.96875 
Q 51.03125 33.5 51.03125 23.25 
Q 51.03125 16.5 48.125 10.71875 
Q 45.21875 4.9375 40.140625 1.859375 
Q 35.0625 -1.21875 28.609375 -1.21875 
Q 17.625 -1.21875 10.6875 6.859375 
Q 3.765625 14.9375 3.765625 33.5 
Q 3.765625 54.25 11.421875 63.671875 
Q 18.109375 71.875 29.4375 71.875 
Q 37.890625 71.875 43.28125 67.140625 
Q 48.6875 62.40625 49.75 54.046875 
z
M 13.875 23.1875 
Q 13.875 18.65625 15.796875 14.5 
Q 17.71875 10.359375 21.1875 8.171875 
Q 24.65625 6 28.46875 6 
Q 34.03125 6 38.03125 10.484375 
Q 42.046875 14.984375 42.046875 22.703125 
Q 42.046875 30.125 38.078125 34.390625 
Q 34.125 38.671875 28.125 38.671875 
Q 22.171875 38.671875 18.015625 34.390625 
Q 13.875 30.125 13.875 23.1875 
z
" id="ArialMT-54"/>
      </defs>
      <g style="fill:#262626;" transform="translate(30.067422 153.272483)scale(0.165 -0.165)">
       <use xlink:href="#ArialMT-54"/>
      </g>
     </g>
    </g>
    <g id="ytick_4">
     <g id="text_9">
      <!-- 8 -->
      <defs>
       <path d="M 17.671875 38.8125 
Q 12.203125 40.828125 9.5625 44.53125 
Q 6.9375 48.25 6.9375 53.421875 
Q 6.9375 61.234375 12.546875 66.546875 
Q 18.171875 71.875 27.484375 71.875 
Q 36.859375 71.875 42.578125 66.421875 
Q 48.296875 60.984375 48.296875 53.171875 
Q 48.296875 48.1875 45.671875 44.5 
Q 43.0625 40.828125 37.75 38.8125 
Q 44.34375 36.671875 47.78125 31.875 
Q 51.21875 27.09375 51.21875 20.453125 
Q 51.21875 11.28125 44.71875 5.03125 
Q 38.234375 -1.21875 27.640625 -1.21875 
Q 17.046875 -1.21875 10.546875 5.046875 
Q 4.046875 11.328125 4.046875 20.703125 
Q 4.046875 27.6875 7.59375 32.390625 
Q 11.140625 37.109375 17.671875 38.8125 
z
M 15.921875 53.71875 
Q 15.921875 48.640625 19.1875 45.40625 
Q 22.46875 42.1875 27.6875 42.1875 
Q 32.765625 42.1875 36.015625 45.375 
Q 39.265625 48.578125 39.265625 53.21875 
Q 39.265625 58.0625 35.90625 61.359375 
Q 32.5625 64.65625 27.59375 64.65625 
Q 22.5625 64.65625 19.234375 61.421875 
Q 15.921875 58.203125 15.921875 53.71875 
z
M 13.09375 20.65625 
Q 13.09375 16.890625 14.875 13.375 
Q 16.65625 9.859375 20.171875 7.921875 
Q 23.6875 6 27.734375 6 
Q 34.03125 6 38.125 10.046875 
Q 42.234375 14.109375 42.234375 20.359375 
Q 42.234375 26.703125 38.015625 30.859375 
Q 33.796875 35.015625 27.4375 35.015625 
Q 21.234375 35.015625 17.15625 30.90625 
Q 13.09375 26.8125 13.09375 20.65625 
z
" id="ArialMT-56"/>
      </defs>
      <g style="fill:#262626;" transform="translate(30.067422 104.533859)scale(0.165 -0.165)">
       <use xlink:href="#ArialMT-56"/>
      </g>
     </g>
    </g>
    <g id="ytick_5">
     <g id="text_10">
      <!-- 10 -->
      <defs>
       <path d="M 37.25 0 
L 28.46875 0 
L 28.46875 56 
Q 25.296875 52.984375 20.140625 49.953125 
Q 14.984375 46.921875 10.890625 45.40625 
L 10.890625 53.90625 
Q 18.265625 57.375 23.78125 62.296875 
Q 29.296875 67.234375 31.59375 71.875 
L 37.25 71.875 
z
" id="ArialMT-49"/>
       <path d="M 4.15625 35.296875 
Q 4.15625 48 6.765625 55.734375 
Q 9.375 63.484375 14.515625 67.671875 
Q 19.671875 71.875 27.484375 71.875 
Q 33.25 71.875 37.59375 69.546875 
Q 41.9375 67.234375 44.765625 62.859375 
Q 47.609375 58.5 49.21875 52.21875 
Q 50.828125 45.953125 50.828125 35.296875 
Q 50.828125 22.703125 48.234375 14.96875 
Q 45.65625 7.234375 40.5 3 
Q 35.359375 -1.21875 27.484375 -1.21875 
Q 17.140625 -1.21875 11.234375 6.203125 
Q 4.15625 15.140625 4.15625 35.296875 
z
M 13.1875 35.296875 
Q 13.1875 17.671875 17.3125 11.828125 
Q 21.4375 6 27.484375 6 
Q 33.546875 6 37.671875 11.859375 
Q 41.796875 17.71875 41.796875 35.296875 
Q 41.796875 52.984375 37.671875 58.78125 
Q 33.546875 64.59375 27.390625 64.59375 
Q 21.34375 64.59375 17.71875 59.46875 
Q 13.1875 52.9375 13.1875 35.296875 
z
" id="ArialMT-48"/>
      </defs>
      <g style="fill:#262626;" transform="translate(20.891875 55.795235)scale(0.165 -0.165)">
       <use xlink:href="#ArialMT-49"/>
       <use x="55.615234" xlink:href="#ArialMT-48"/>
      </g>
     </g>
    </g>
    <g id="text_11">
     <!-- Yield (t/ha) -->
     <defs>
      <path d="M 27.875 0 
L 27.875 30.328125 
L 0.296875 71.578125 
L 11.8125 71.578125 
L 25.921875 50 
Q 29.828125 43.953125 33.203125 37.890625 
Q 36.421875 43.5 41.015625 50.53125 
L 54.890625 71.578125 
L 65.921875 71.578125 
L 37.359375 30.328125 
L 37.359375 0 
z
" id="ArialMT-89"/>
      <path d="M 6.390625 0 
L 6.390625 71.578125 
L 15.1875 71.578125 
L 15.1875 0 
z
" id="ArialMT-108"/>
      <path d="M 23.390625 -21.046875 
Q 16.109375 -11.859375 11.078125 0.4375 
Q 6.0625 12.75 6.0625 25.921875 
Q 6.0625 37.546875 9.8125 48.1875 
Q 14.203125 60.546875 23.390625 72.796875 
L 29.6875 72.796875 
Q 23.78125 62.640625 21.875 58.296875 
Q 18.890625 51.5625 17.1875 44.234375 
Q 15.09375 35.109375 15.09375 25.875 
Q 15.09375 2.390625 29.6875 -21.046875 
z
" id="ArialMT-40"/>
      <path d="M 0 -1.21875 
L 20.75 72.796875 
L 27.78125 72.796875 
L 7.078125 -1.21875 
z
" id="ArialMT-47"/>
      <path d="M 12.359375 -21.046875 
L 6.0625 -21.046875 
Q 20.65625 2.390625 20.65625 25.875 
Q 20.65625 35.0625 18.5625 44.09375 
Q 16.890625 51.421875 13.921875 58.15625 
Q 12.015625 62.546875 6.0625 72.796875 
L 12.359375 72.796875 
Q 21.53125 60.546875 25.921875 48.1875 
Q 29.6875 37.546875 29.6875 25.921875 
Q 29.6875 12.75 24.625 0.4375 
Q 19.578125 -11.859375 12.359375 -21.046875 
z
" id="ArialMT-41"/>
     </defs>
     <g style="fill:#262626;" transform="translate(13.103437 202.028438)rotate(-90)scale(0.18 -0.18)">
      <use xlink:href="#ArialMT-89"/>
      <use x="66.652344" xlink:href="#ArialMT-105"/>
      <use x="88.869141" xlink:href="#ArialMT-101"/>
      <use x="144.484375" xlink:href="#ArialMT-108"/>
      <use x="166.701172" xlink:href="#ArialMT-100"/>
      <use x="222.316406" xlink:href="#ArialMT-32"/>
      <use x="250.099609" xlink:href="#ArialMT-40"/>
      <use x="283.400391" xlink:href="#ArialMT-116"/>
      <use x="311.183594" xlink:href="#ArialMT-47"/>
      <use x="338.966797" xlink:href="#ArialMT-104"/>
      <use x="394.582031" xlink:href="#ArialMT-97"/>
      <use x="450.197266" xlink:href="#ArialMT-41"/>
     </g>
    </g>
   </g>
   <g id="PolyCollection_1">
    <defs>
     <path d="M 67.538222 -224.011245 
L 67.527488 -224.011245 
L 67.527717 -225.950943 
L 67.528365 -227.890642 
L 67.52894 -229.830341 
L 67.529028 -231.77004 
L 67.528568 -233.709738 
L 67.527887 -235.649437 
L 67.527489 -237.589136 
L 67.527727 -239.528835 
L 67.528589 -241.468533 
L 67.529717 -243.408232 
L 67.530558 -245.347931 
L 67.530403 -247.28763 
L 67.52812 -249.227328 
L 67.521581 -251.167027 
L 67.506963 -253.106726 
L 67.478251 -255.046425 
L 67.427414 -256.986123 
L 67.345901 -258.925822 
L 67.227893 -260.865521 
L 67.074709 -262.80522 
L 66.898154 -264.744918 
L 66.719944 -266.684617 
L 66.56592 -268.624316 
L 66.457044 -270.564015 
L 66.401606 -272.503713 
L 66.39292 -274.443412 
L 66.413617 -276.383111 
L 66.44325 -278.32281 
L 66.462938 -280.262508 
L 66.452119 -282.202207 
L 66.37823 -284.141906 
L 66.186741 -286.081605 
L 65.801366 -288.021303 
L 65.140127 -289.961002 
L 64.145206 -291.900701 
L 62.818223 -293.8404 
L 61.249218 -295.780098 
L 59.62572 -297.719797 
L 58.208659 -299.659496 
L 57.269966 -301.599194 
L 57.006264 -303.538893 
L 57.465705 -305.478592 
L 58.529859 -307.418291 
L 59.964882 -309.357989 
L 61.511784 -311.297688 
L 62.96355 -313.237387 
L 64.196707 -315.177086 
L 65.162894 -317.116784 
L 65.865234 -319.056483 
L 66.337271 -320.996182 
L 66.627839 -322.935881 
L 66.78932 -324.875579 
L 66.86839 -326.815278 
L 66.900606 -328.754977 
L 66.909757 -330.694676 
L 66.910462 -332.634374 
L 66.910759 -334.574073 
L 66.912805 -336.513772 
L 66.912991 -338.453471 
L 66.90415 -340.393169 
L 66.880247 -342.332868 
L 66.840971 -344.272567 
L 66.792881 -346.212266 
L 66.746059 -348.151964 
L 66.708677 -350.091663 
L 66.683525 -352.031362 
L 66.668555 -353.971061 
L 66.659861 -355.910759 
L 66.654093 -357.850458 
L 66.649199 -359.790157 
L 66.64457 -361.729856 
L 66.641587 -363.669554 
L 66.64403 -365.609253 
L 66.657045 -367.548952 
L 66.684271 -369.488651 
L 66.724584 -371.428349 
L 66.771185 -373.368048 
L 66.814804 -375.307747 
L 66.849603 -377.247446 
L 66.877413 -379.187144 
L 66.906611 -381.126843 
L 66.946339 -383.066542 
L 67.00074 -385.006241 
L 67.067352 -386.945939 
L 67.139674 -388.885638 
L 67.210749 -390.825337 
L 67.27518 -392.765036 
L 67.32945 -394.704734 
L 67.371819 -396.644433 
L 67.402456 -398.584132 
L 67.42334 -400.52383 
L 67.437456 -402.463529 
L 67.44765 -404.403228 
L 67.455922 -406.342927 
L 67.463474 -408.282625 
L 67.471112 -410.222324 
L 67.479454 -412.162023 
L 67.4888 -414.101722 
L 67.498875 -416.04142 
L 67.566835 -416.04142 
L 67.566835 -416.04142 
L 67.57691 -414.101722 
L 67.586256 -412.162023 
L 67.594598 -410.222324 
L 67.602235 -408.282625 
L 67.609788 -406.342927 
L 67.61806 -404.403228 
L 67.628254 -402.463529 
L 67.64237 -400.52383 
L 67.663254 -398.584132 
L 67.693891 -396.644433 
L 67.73626 -394.704734 
L 67.79053 -392.765036 
L 67.854961 -390.825337 
L 67.926036 -388.885638 
L 67.998358 -386.945939 
L 68.06497 -385.006241 
L 68.119371 -383.066542 
L 68.159099 -381.126843 
L 68.188297 -379.187144 
L 68.216107 -377.247446 
L 68.250906 -375.307747 
L 68.294525 -373.368048 
L 68.341126 -371.428349 
L 68.381438 -369.488651 
L 68.408664 -367.548952 
L 68.42168 -365.609253 
L 68.424123 -363.669554 
L 68.42114 -361.729856 
L 68.416511 -359.790157 
L 68.411617 -357.850458 
L 68.405848 -355.910759 
L 68.397155 -353.971061 
L 68.382185 -352.031362 
L 68.357033 -350.091663 
L 68.319651 -348.151964 
L 68.272829 -346.212266 
L 68.224739 -344.272567 
L 68.185463 -342.332868 
L 68.16156 -340.393169 
L 68.152718 -338.453471 
L 68.152905 -336.513772 
L 68.15495 -334.574073 
L 68.155248 -332.634374 
L 68.155953 -330.694676 
L 68.165104 -328.754977 
L 68.19732 -326.815278 
L 68.27639 -324.875579 
L 68.437871 -322.935881 
L 68.728439 -320.996182 
L 69.200476 -319.056483 
L 69.902816 -317.116784 
L 70.869003 -315.177086 
L 72.10216 -313.237387 
L 73.553925 -311.297688 
L 75.100828 -309.357989 
L 76.535851 -307.418291 
L 77.600005 -305.478592 
L 78.059446 -303.538893 
L 77.795744 -301.599194 
L 76.857051 -299.659496 
L 75.43999 -297.719797 
L 73.816492 -295.780098 
L 72.247487 -293.8404 
L 70.920504 -291.900701 
L 69.925583 -289.961002 
L 69.264343 -288.021303 
L 68.878969 -286.081605 
L 68.68748 -284.141906 
L 68.613591 -282.202207 
L 68.602772 -280.262508 
L 68.62246 -278.32281 
L 68.652093 -276.383111 
L 68.67279 -274.443412 
L 68.664103 -272.503713 
L 68.608666 -270.564015 
L 68.49979 -268.624316 
L 68.345766 -266.684617 
L 68.167555 -264.744918 
L 67.991001 -262.80522 
L 67.837817 -260.865521 
L 67.719809 -258.925822 
L 67.638296 -256.986123 
L 67.587459 -255.046425 
L 67.558746 -253.106726 
L 67.544128 -251.167027 
L 67.53759 -249.227328 
L 67.535307 -247.28763 
L 67.535152 -245.347931 
L 67.535992 -243.408232 
L 67.537121 -241.468533 
L 67.537983 -239.528835 
L 67.538221 -237.589136 
L 67.537822 -235.649437 
L 67.537141 -233.709738 
L 67.536681 -231.77004 
L 67.53677 -229.830341 
L 67.537344 -227.890642 
L 67.537993 -225.950943 
L 67.538222 -224.011245 
z
" id="m086f23fa34" style="stroke:#444444;stroke-width:1.5;"/>
    </defs>
    <g clip-path="url(#p480990123c)">
     <use style="fill:#e68193;stroke:#444444;stroke-width:1.5;" x="0" xlink:href="#m086f23fa34" y="458.815625"/>
    </g>
   </g>
   <g id="PolyCollection_2">
    <defs>
     <path d="M 90.230536 -270.111465 
L 86.941537 -270.111465 
L 86.85741 -271.203276 
L 86.772324 -272.295088 
L 86.686511 -273.386899 
L 86.600215 -274.478711 
L 86.513697 -275.570522 
L 86.427234 -276.662334 
L 86.341123 -277.754145 
L 86.255674 -278.845957 
L 86.171217 -279.937768 
L 86.088095 -281.02958 
L 86.006669 -282.121391 
L 85.927313 -283.213203 
L 85.850413 -284.305014 
L 85.776364 -285.396826 
L 85.705568 -286.488637 
L 85.638432 -287.580449 
L 85.575359 -288.67226 
L 85.516747 -289.764072 
L 85.462984 -290.855883 
L 85.414442 -291.947695 
L 85.371468 -293.039506 
L 85.334382 -294.131318 
L 85.30347 -295.223129 
L 85.278974 -296.314941 
L 85.261091 -297.406752 
L 85.249965 -298.498564 
L 85.245681 -299.590375 
L 85.248262 -300.682187 
L 85.257667 -301.773998 
L 85.273785 -302.86581 
L 85.296434 -303.957621 
L 85.325364 -305.049433 
L 85.360257 -306.141244 
L 85.400726 -307.233056 
L 85.446323 -308.324867 
L 85.496543 -309.416679 
L 85.550831 -310.50849 
L 85.608585 -311.600302 
L 85.669173 -312.692113 
L 85.731935 -313.783925 
L 85.796197 -314.875736 
L 85.861281 -315.967548 
L 85.926516 -317.059359 
L 85.991247 -318.151171 
L 86.05485 -319.242982 
L 86.116738 -320.334794 
L 86.176373 -321.426605 
L 86.233273 -322.518417 
L 86.287023 -323.610228 
L 86.337276 -324.70204 
L 86.383762 -325.793851 
L 86.426288 -326.885663 
L 86.464745 -327.977474 
L 86.499101 -329.069286 
L 86.529406 -330.161097 
L 86.555783 -331.252909 
L 86.578427 -332.34472 
L 86.597601 -333.436532 
L 86.613622 -334.528343 
L 86.62686 -335.620155 
L 86.637725 -336.711966 
L 86.646656 -337.803778 
L 86.654118 -338.895589 
L 86.660584 -339.987401 
L 86.666528 -341.079212 
L 86.672419 -342.171024 
L 86.678705 -343.262835 
L 86.685812 -344.354647 
L 86.694129 -345.446458 
L 86.704008 -346.53827 
L 86.715758 -347.630081 
L 86.729636 -348.721893 
L 86.74585 -349.813704 
L 86.764554 -350.905516 
L 86.78585 -351.997327 
L 86.809789 -353.089139 
L 86.836369 -354.18095 
L 86.865544 -355.272762 
L 86.897225 -356.364573 
L 86.931284 -357.456385 
L 86.967559 -358.548196 
L 87.005863 -359.640008 
L 87.045986 -360.731819 
L 87.0877 -361.823631 
L 87.13077 -362.915442 
L 87.174955 -364.007254 
L 87.220012 -365.099065 
L 87.265706 -366.190877 
L 87.311807 -367.282688 
L 87.358102 -368.3745 
L 87.404388 -369.466311 
L 87.450482 -370.558123 
L 87.496217 -371.649934 
L 87.541449 -372.741746 
L 87.586048 -373.833557 
L 87.629907 -374.925369 
L 87.672937 -376.01718 
L 87.715063 -377.108992 
L 87.756228 -378.200803 
L 89.415846 -378.200803 
L 89.415846 -378.200803 
L 89.457011 -377.108992 
L 89.499137 -376.01718 
L 89.542166 -374.925369 
L 89.586025 -373.833557 
L 89.630625 -372.741746 
L 89.675856 -371.649934 
L 89.721591 -370.558123 
L 89.767685 -369.466311 
L 89.813971 -368.3745 
L 89.860266 -367.282688 
L 89.906368 -366.190877 
L 89.952061 -365.099065 
L 89.997118 -364.007254 
L 90.041303 -362.915442 
L 90.084373 -361.823631 
L 90.126087 -360.731819 
L 90.16621 -359.640008 
L 90.204514 -358.548196 
L 90.24079 -357.456385 
L 90.274848 -356.364573 
L 90.306529 -355.272762 
L 90.335704 -354.18095 
L 90.362285 -353.089139 
L 90.386223 -351.997327 
L 90.407519 -350.905516 
L 90.426223 -349.813704 
L 90.442437 -348.721893 
L 90.456315 -347.630081 
L 90.468065 -346.53827 
L 90.477944 -345.446458 
L 90.486262 -344.354647 
L 90.493368 -343.262835 
L 90.499654 -342.171024 
L 90.505545 -341.079212 
L 90.511489 -339.987401 
L 90.517955 -338.895589 
L 90.525417 -337.803778 
L 90.534349 -336.711966 
L 90.545213 -335.620155 
L 90.558451 -334.528343 
L 90.574472 -333.436532 
L 90.593646 -332.34472 
L 90.616291 -331.252909 
L 90.642667 -330.161097 
L 90.672972 -329.069286 
L 90.707328 -327.977474 
L 90.745785 -326.885663 
L 90.788312 -325.793851 
L 90.834797 -324.70204 
L 90.88505 -323.610228 
L 90.9388 -322.518417 
L 90.9957 -321.426605 
L 91.055335 -320.334794 
L 91.117223 -319.242982 
L 91.180826 -318.151171 
L 91.245557 -317.059359 
L 91.310792 -315.967548 
L 91.375876 -314.875736 
L 91.440138 -313.783925 
L 91.5029 -312.692113 
L 91.563488 -311.600302 
L 91.621243 -310.50849 
L 91.67553 -309.416679 
L 91.72575 -308.324867 
L 91.771347 -307.233056 
L 91.811816 -306.141244 
L 91.846709 -305.049433 
L 91.875639 -303.957621 
L 91.898288 -302.86581 
L 91.914406 -301.773998 
L 91.923811 -300.682187 
L 91.926392 -299.590375 
L 91.922109 -298.498564 
L 91.910982 -297.406752 
L 91.893099 -296.314941 
L 91.868604 -295.223129 
L 91.837691 -294.131318 
L 91.800605 -293.039506 
L 91.757631 -291.947695 
L 91.709089 -290.855883 
L 91.655326 -289.764072 
L 91.596714 -288.67226 
L 91.533641 -287.580449 
L 91.466505 -286.488637 
L 91.395709 -285.396826 
L 91.32166 -284.305014 
L 91.24476 -283.213203 
L 91.165404 -282.121391 
L 91.083978 -281.02958 
L 91.000856 -279.937768 
L 90.916399 -278.845957 
L 90.83095 -277.754145 
L 90.744839 -276.662334 
L 90.658377 -275.570522 
L 90.571858 -274.478711 
L 90.485562 -273.386899 
L 90.399749 -272.295088 
L 90.314664 -271.203276 
L 90.230536 -270.111465 
z
" id="m203c7ed04e" style="stroke:#444444;stroke-width:1.5;"/>
    </defs>
    <g clip-path="url(#p480990123c)">
     <use style="fill:#459e97;stroke:#444444;stroke-width:1.5;" x="0" xlink:href="#m203c7ed04e" y="458.815625"/>
    </g>
   </g>
   <g id="PolyCollection_3">
    <defs>
     <path d="M 120.171079 -203.516654 
L 120.160539 -203.516654 
L 120.16069 -204.814874 
L 120.161198 -206.113094 
L 120.161635 -207.411313 
L 120.161662 -208.709533 
L 120.161259 -210.007753 
L 120.160735 -211.305972 
L 120.160518 -212.604192 
L 120.16086 -213.902412 
L 120.161644 -215.200631 
L 120.162355 -216.498851 
L 120.162065 -217.797071 
L 120.159219 -219.09529 
L 120.151121 -220.39351 
L 120.133287 -221.69173 
L 120.099074 -222.989949 
L 120.040174 -224.288169 
L 119.948563 -225.586389 
L 119.820111 -226.884608 
L 119.658919 -228.182828 
L 119.479904 -229.481048 
L 119.306727 -230.779267 
L 119.164339 -232.077487 
L 119.069431 -233.375707 
L 119.024481 -234.673926 
L 119.019059 -235.972146 
L 119.036488 -237.270366 
L 119.059605 -238.568585 
L 119.069896 -239.866805 
L 119.039431 -241.165025 
L 118.920884 -242.463244 
L 118.64376 -243.761464 
L 118.123528 -245.059684 
L 117.285435 -246.357903 
L 116.098702 -247.656123 
L 114.611189 -248.954343 
L 112.970283 -250.252562 
L 111.414169 -251.550782 
L 110.223327 -252.849002 
L 109.639218 -254.147221 
L 109.780639 -255.445441 
L 110.600367 -256.743661 
L 111.908243 -258.04188 
L 113.447417 -259.3401 
L 114.979223 -260.63832 
L 116.335886 -261.936539 
L 117.431045 -263.234759 
L 118.244355 -264.532979 
L 118.799845 -265.831198 
L 119.146958 -267.129418 
L 119.3448 -268.427638 
L 119.449114 -269.725857 
L 119.503139 -271.024077 
L 119.533844 -272.322297 
L 119.553605 -273.620516 
L 119.565481 -274.918736 
L 119.569097 -276.216956 
L 119.564465 -277.515175 
L 119.552876 -278.813395 
L 119.536049 -280.111615 
L 119.515333 -281.409834 
L 119.491676 -282.708054 
L 119.46584 -284.006274 
L 119.438492 -285.304493 
L 119.410461 -286.602713 
L 119.383317 -287.900933 
L 119.35955 -289.199152 
L 119.341696 -290.497372 
L 119.33093 -291.795592 
L 119.32645 -293.093811 
L 119.326263 -294.392031 
L 119.328589 -295.690251 
L 119.332794 -296.98847 
L 119.339683 -298.28669 
L 119.35131 -299.58491 
L 119.369991 -300.883129 
L 119.39633 -302.181349 
L 119.427595 -303.479569 
L 119.45862 -304.777788 
L 119.485517 -306.076008 
L 119.509385 -307.374228 
L 119.536446 -308.672447 
L 119.57411 -309.970667 
L 119.626156 -311.268887 
L 119.690746 -312.567106 
L 119.762016 -313.865326 
L 119.833123 -315.163546 
L 119.898386 -316.461765 
L 119.953973 -317.759985 
L 119.997947 -319.058205 
L 120.030292 -320.356424 
L 120.052742 -321.654644 
L 120.068057 -322.952864 
L 120.079019 -324.251083 
L 120.087737 -325.549303 
L 120.095576 -326.847523 
L 120.103437 -328.145742 
L 120.111942 -329.443962 
L 120.121354 -330.742182 
L 120.131391 -332.040401 
L 120.200227 -332.040401 
L 120.200227 -332.040401 
L 120.210264 -330.742182 
L 120.219676 -329.443962 
L 120.228181 -328.145742 
L 120.236042 -326.847523 
L 120.243881 -325.549303 
L 120.252599 -324.251083 
L 120.263561 -322.952864 
L 120.278876 -321.654644 
L 120.301326 -320.356424 
L 120.333671 -319.058205 
L 120.377645 -317.759985 
L 120.433232 -316.461765 
L 120.498495 -315.163546 
L 120.569602 -313.865326 
L 120.640872 -312.567106 
L 120.705462 -311.268887 
L 120.757508 -309.970667 
L 120.795172 -308.672447 
L 120.822233 -307.374228 
L 120.846101 -306.076008 
L 120.872998 -304.777788 
L 120.904023 -303.479569 
L 120.935288 -302.181349 
L 120.961627 -300.883129 
L 120.980308 -299.58491 
L 120.991935 -298.28669 
L 120.998824 -296.98847 
L 121.003029 -295.690251 
L 121.005355 -294.392031 
L 121.005168 -293.093811 
L 121.000688 -291.795592 
L 120.989922 -290.497372 
L 120.972068 -289.199152 
L 120.948301 -287.900933 
L 120.921157 -286.602713 
L 120.893126 -285.304493 
L 120.865778 -284.006274 
L 120.839942 -282.708054 
L 120.816285 -281.409834 
L 120.795569 -280.111615 
L 120.778742 -278.813395 
L 120.767153 -277.515175 
L 120.762521 -276.216956 
L 120.766137 -274.918736 
L 120.778013 -273.620516 
L 120.797774 -272.322297 
L 120.828479 -271.024077 
L 120.882503 -269.725857 
L 120.986818 -268.427638 
L 121.18466 -267.129418 
L 121.531773 -265.831198 
L 122.087263 -264.532979 
L 122.900573 -263.234759 
L 123.995732 -261.936539 
L 125.352395 -260.63832 
L 126.8842 -259.3401 
L 128.423375 -258.04188 
L 129.731251 -256.743661 
L 130.550979 -255.445441 
L 130.6924 -254.147221 
L 130.108291 -252.849002 
L 128.917449 -251.550782 
L 127.361335 -250.252562 
L 125.720429 -248.954343 
L 124.232916 -247.656123 
L 123.046183 -246.357903 
L 122.20809 -245.059684 
L 121.687858 -243.761464 
L 121.410734 -242.463244 
L 121.292187 -241.165025 
L 121.261722 -239.866805 
L 121.272013 -238.568585 
L 121.29513 -237.270366 
L 121.312559 -235.972146 
L 121.307137 -234.673926 
L 121.262187 -233.375707 
L 121.167279 -232.077487 
L 121.024891 -230.779267 
L 120.851714 -229.481048 
L 120.672699 -228.182828 
L 120.511507 -226.884608 
L 120.383055 -225.586389 
L 120.291444 -224.288169 
L 120.232544 -222.989949 
L 120.198331 -221.69173 
L 120.180497 -220.39351 
L 120.172399 -219.09529 
L 120.169553 -217.797071 
L 120.169263 -216.498851 
L 120.169973 -215.200631 
L 120.170758 -213.902412 
L 120.1711 -212.604192 
L 120.170883 -211.305972 
L 120.170359 -210.007753 
L 120.169956 -208.709533 
L 120.169983 -207.411313 
L 120.17042 -206.113094 
L 120.170928 -204.814874 
L 120.171079 -203.516654 
z
" id="ma796dd3615" style="stroke:#444444;stroke-width:1.5;"/>
    </defs>
    <g clip-path="url(#p480990123c)">
     <use style="fill:#e68193;stroke:#444444;stroke-width:1.5;" x="0" xlink:href="#ma796dd3615" y="458.815625"/>
    </g>
   </g>
   <g id="PolyCollection_4">
    <defs>
     <path d="M 142.982743 -233.117453 
L 139.455238 -233.117453 
L 139.368755 -233.862608 
L 139.281903 -234.607763 
L 139.194971 -235.352918 
L 139.108259 -236.098073 
L 139.022079 -236.843229 
L 138.936755 -237.588384 
L 138.85262 -238.333539 
L 138.770018 -239.078694 
L 138.689299 -239.823849 
L 138.610821 -240.569005 
L 138.534948 -241.31416 
L 138.462045 -242.059315 
L 138.392479 -242.80447 
L 138.326614 -243.549625 
L 138.264808 -244.294781 
L 138.207413 -245.039936 
L 138.154764 -245.785091 
L 138.107181 -246.530246 
L 138.064964 -247.275401 
L 138.028383 -248.020557 
L 137.997678 -248.765712 
L 137.973055 -249.510867 
L 137.954676 -250.256022 
L 137.94266 -251.001177 
L 137.937074 -251.746333 
L 137.937934 -252.491488 
L 137.945199 -253.236643 
L 137.958768 -253.981798 
L 137.978484 -254.726953 
L 138.004125 -255.472109 
L 138.035412 -256.217264 
L 138.072008 -256.962419 
L 138.113521 -257.707574 
L 138.159508 -258.452729 
L 138.209481 -259.197885 
L 138.262911 -259.94304 
L 138.319238 -260.688195 
L 138.377877 -261.43335 
L 138.438228 -262.178505 
L 138.499683 -262.923661 
L 138.56164 -263.668816 
L 138.623506 -264.413971 
L 138.684711 -265.159126 
L 138.744718 -265.904281 
L 138.803026 -266.649436 
L 138.859186 -267.394592 
L 138.912799 -268.139747 
L 138.96353 -268.884902 
L 139.011106 -269.630057 
L 139.055325 -270.375212 
L 139.096052 -271.120368 
L 139.133225 -271.865523 
L 139.166853 -272.610678 
L 139.197008 -273.355833 
L 139.22383 -274.100988 
L 139.247516 -274.846144 
L 139.268317 -275.591299 
L 139.286528 -276.336454 
L 139.302486 -277.081609 
L 139.316554 -277.826764 
L 139.32912 -278.57192 
L 139.340582 -279.317075 
L 139.351344 -280.06223 
L 139.361805 -280.807385 
L 139.372353 -281.55254 
L 139.383354 -282.297696 
L 139.395149 -283.042851 
L 139.408047 -283.788006 
L 139.422321 -284.533161 
L 139.438201 -285.278316 
L 139.455878 -286.023472 
L 139.475494 -286.768627 
L 139.497149 -287.513782 
L 139.520898 -288.258937 
L 139.546753 -289.004092 
L 139.574687 -289.749248 
L 139.604633 -290.494403 
L 139.636495 -291.239558 
L 139.670145 -291.984713 
L 139.705433 -292.729868 
L 139.742188 -293.475024 
L 139.780225 -294.220179 
L 139.819353 -294.965334 
L 139.859371 -295.710489 
L 139.900083 -296.455644 
L 139.941293 -297.200799 
L 139.982814 -297.945955 
L 140.02447 -298.69111 
L 140.066097 -299.436265 
L 140.107546 -300.18142 
L 140.148683 -300.926575 
L 140.189391 -301.671731 
L 140.229571 -302.416886 
L 140.26914 -303.162041 
L 140.308029 -303.907196 
L 140.346185 -304.652351 
L 140.38357 -305.397507 
L 140.420153 -306.142662 
L 140.455918 -306.887817 
L 141.982063 -306.887817 
L 141.982063 -306.887817 
L 142.017828 -306.142662 
L 142.054411 -305.397507 
L 142.091796 -304.652351 
L 142.129952 -303.907196 
L 142.168841 -303.162041 
L 142.20841 -302.416886 
L 142.24859 -301.671731 
L 142.289298 -300.926575 
L 142.330435 -300.18142 
L 142.371884 -299.436265 
L 142.413511 -298.69111 
L 142.455167 -297.945955 
L 142.496688 -297.200799 
L 142.537898 -296.455644 
L 142.57861 -295.710489 
L 142.618628 -294.965334 
L 142.657756 -294.220179 
L 142.695794 -293.475024 
L 142.732548 -292.729868 
L 142.767836 -291.984713 
L 142.801486 -291.239558 
L 142.833348 -290.494403 
L 142.863295 -289.749248 
L 142.891228 -289.004092 
L 142.917083 -288.258937 
L 142.940832 -287.513782 
L 142.962487 -286.768627 
L 142.982103 -286.023472 
L 142.99978 -285.278316 
L 143.01566 -284.533161 
L 143.029934 -283.788006 
L 143.042832 -283.042851 
L 143.054627 -282.297696 
L 143.065628 -281.55254 
L 143.076176 -280.807385 
L 143.086637 -280.06223 
L 143.097399 -279.317075 
L 143.108861 -278.57192 
L 143.121427 -277.826764 
L 143.135495 -277.081609 
L 143.151453 -276.336454 
L 143.169664 -275.591299 
L 143.190465 -274.846144 
L 143.214151 -274.100988 
L 143.240973 -273.355833 
L 143.271129 -272.610678 
L 143.304756 -271.865523 
L 143.341929 -271.120368 
L 143.382656 -270.375212 
L 143.426875 -269.630057 
L 143.474451 -268.884902 
L 143.525182 -268.139747 
L 143.578795 -267.394592 
L 143.634955 -266.649436 
L 143.693264 -265.904281 
L 143.75327 -265.159126 
L 143.814476 -264.413971 
L 143.876341 -263.668816 
L 143.938298 -262.923661 
L 143.999753 -262.178505 
L 144.060104 -261.43335 
L 144.118743 -260.688195 
L 144.17507 -259.94304 
L 144.2285 -259.197885 
L 144.278473 -258.452729 
L 144.32446 -257.707574 
L 144.365973 -256.962419 
L 144.402569 -256.217264 
L 144.433857 -255.472109 
L 144.459497 -254.726953 
L 144.479213 -253.981798 
L 144.492782 -253.236643 
L 144.500047 -252.491488 
L 144.500907 -251.746333 
L 144.495321 -251.001177 
L 144.483305 -250.256022 
L 144.464926 -249.510867 
L 144.440303 -248.765712 
L 144.409598 -248.020557 
L 144.373017 -247.275401 
L 144.3308 -246.530246 
L 144.283217 -245.785091 
L 144.230568 -245.039936 
L 144.173173 -244.294781 
L 144.111368 -243.549625 
L 144.045502 -242.80447 
L 143.975936 -242.059315 
L 143.903033 -241.31416 
L 143.82716 -240.569005 
L 143.748682 -239.823849 
L 143.667963 -239.078694 
L 143.585361 -238.333539 
L 143.501226 -237.588384 
L 143.415902 -236.843229 
L 143.329722 -236.098073 
L 143.24301 -235.352918 
L 143.156078 -234.607763 
L 143.069226 -233.862608 
L 142.982743 -233.117453 
z
" id="m7e7ab4009b" style="stroke:#444444;stroke-width:1.5;"/>
    </defs>
    <g clip-path="url(#p480990123c)">
     <use style="fill:#459e97;stroke:#444444;stroke-width:1.5;" x="0" xlink:href="#m7e7ab4009b" y="458.815625"/>
    </g>
   </g>
   <g id="PolyCollection_5">
    <defs>
     <path d="M 172.804029 -224.011245 
L 172.793497 -224.011245 
L 172.793714 -225.950943 
L 172.794335 -227.890642 
L 172.794906 -229.830341 
L 172.795035 -231.77004 
L 172.794634 -233.709738 
L 172.793976 -235.649437 
L 172.793523 -237.589136 
L 172.793637 -239.528835 
L 172.79436 -241.468533 
L 172.795384 -243.408232 
L 172.796154 -245.347931 
L 172.795897 -247.28763 
L 172.793372 -249.227328 
L 172.786335 -251.167027 
L 172.770887 -253.106726 
L 172.741035 -255.046425 
L 172.688945 -256.986123 
L 172.606505 -258.925822 
L 172.488489 -260.865521 
L 172.336644 -262.80522 
L 172.162609 -264.744918 
L 171.987142 -266.684617 
L 171.834585 -268.624316 
L 171.724266 -270.564015 
L 171.662451 -272.503713 
L 171.637891 -274.443412 
L 171.621327 -276.383111 
L 171.566443 -278.32281 
L 171.40962 -280.262508 
L 171.06979 -282.202207 
L 170.455437 -284.141906 
L 169.487974 -286.081605 
L 168.144427 -288.021303 
L 166.507264 -289.961002 
L 164.791935 -291.900701 
L 163.317752 -293.8404 
L 162.410422 -295.780098 
L 162.272172 -297.719797 
L 162.893281 -299.659496 
L 164.064524 -301.599194 
L 165.483273 -303.538893 
L 166.882163 -305.478592 
L 168.104737 -307.418291 
L 169.104492 -309.357989 
L 169.898673 -311.297688 
L 170.522481 -313.237387 
L 171.006823 -315.177086 
L 171.375589 -317.116784 
L 171.648952 -319.056483 
L 171.845042 -320.996182 
L 171.979928 -322.935881 
L 172.067849 -324.875579 
L 172.121832 -326.815278 
L 172.153728 -328.754977 
L 172.173394 -330.694676 
L 172.187772 -332.634374 
L 172.200514 -334.574073 
L 172.212096 -336.513772 
L 172.220264 -338.453471 
L 172.221064 -340.393169 
L 172.210738 -342.332868 
L 172.188024 -344.272567 
L 172.155555 -346.212266 
L 172.119214 -348.151964 
L 172.085638 -350.091663 
L 172.059501 -352.031362 
L 172.042223 -353.971061 
L 172.032489 -355.910759 
L 172.027638 -357.850458 
L 172.024879 -359.790157 
L 172.02211 -361.729856 
L 172.018695 -363.669554 
L 172.016235 -365.609253 
L 172.018462 -367.548952 
L 172.029335 -369.488651 
L 172.050011 -371.428349 
L 172.077141 -373.368048 
L 172.104743 -375.307747 
L 172.128849 -377.247446 
L 172.151169 -379.187144 
L 172.178374 -381.126843 
L 172.217482 -383.066542 
L 172.271204 -385.006241 
L 172.336686 -386.945939 
L 172.407654 -388.885638 
L 172.477458 -390.825337 
L 172.540859 -392.765036 
L 172.594419 -394.704734 
L 172.63646 -396.644433 
L 172.667137 -398.584132 
L 172.688297 -400.52383 
L 172.702737 -402.463529 
L 172.713179 -404.403228 
L 172.72161 -406.342927 
L 172.729278 -408.282625 
L 172.737012 -410.222324 
L 172.745409 -412.162023 
L 172.754733 -414.101722 
L 172.764706 -416.04142 
L 172.83282 -416.04142 
L 172.83282 -416.04142 
L 172.842793 -414.101722 
L 172.852117 -412.162023 
L 172.860514 -410.222324 
L 172.868248 -408.282625 
L 172.875916 -406.342927 
L 172.884347 -404.403228 
L 172.894788 -402.463529 
L 172.909229 -400.52383 
L 172.930389 -398.584132 
L 172.961066 -396.644433 
L 173.003107 -394.704734 
L 173.056667 -392.765036 
L 173.120068 -390.825337 
L 173.189872 -388.885638 
L 173.26084 -386.945939 
L 173.326322 -385.006241 
L 173.380044 -383.066542 
L 173.419151 -381.126843 
L 173.446357 -379.187144 
L 173.468677 -377.247446 
L 173.492783 -375.307747 
L 173.520385 -373.368048 
L 173.547515 -371.428349 
L 173.568191 -369.488651 
L 173.579064 -367.548952 
L 173.58129 -365.609253 
L 173.578831 -363.669554 
L 173.575416 -361.729856 
L 173.572647 -359.790157 
L 173.569888 -357.850458 
L 173.565037 -355.910759 
L 173.555303 -353.971061 
L 173.538025 -352.031362 
L 173.511887 -350.091663 
L 173.478312 -348.151964 
L 173.441971 -346.212266 
L 173.409502 -344.272567 
L 173.386788 -342.332868 
L 173.376461 -340.393169 
L 173.377262 -338.453471 
L 173.38543 -336.513772 
L 173.397012 -334.574073 
L 173.409754 -332.634374 
L 173.424132 -330.694676 
L 173.443797 -328.754977 
L 173.475694 -326.815278 
L 173.529677 -324.875579 
L 173.617598 -322.935881 
L 173.752484 -320.996182 
L 173.948574 -319.056483 
L 174.221937 -317.116784 
L 174.590703 -315.177086 
L 175.075045 -313.237387 
L 175.698853 -311.297688 
L 176.493034 -309.357989 
L 177.492789 -307.418291 
L 178.715363 -305.478592 
L 180.114253 -303.538893 
L 181.533002 -301.599194 
L 182.704245 -299.659496 
L 183.325354 -297.719797 
L 183.187104 -295.780098 
L 182.279774 -293.8404 
L 180.805591 -291.900701 
L 179.090262 -289.961002 
L 177.453099 -288.021303 
L 176.109552 -286.081605 
L 175.142089 -284.141906 
L 174.527736 -282.202207 
L 174.187906 -280.262508 
L 174.031083 -278.32281 
L 173.976198 -276.383111 
L 173.959635 -274.443412 
L 173.935075 -272.503713 
L 173.87326 -270.564015 
L 173.762941 -268.624316 
L 173.610383 -266.684617 
L 173.434917 -264.744918 
L 173.260882 -262.80522 
L 173.109036 -260.865521 
L 172.991021 -258.925822 
L 172.908581 -256.986123 
L 172.856491 -255.046425 
L 172.826638 -253.106726 
L 172.811191 -251.167027 
L 172.804154 -249.227328 
L 172.801629 -247.28763 
L 172.801372 -245.347931 
L 172.802142 -243.408232 
L 172.803166 -241.468533 
L 172.803889 -239.528835 
L 172.804003 -237.589136 
L 172.80355 -235.649437 
L 172.802892 -233.709738 
L 172.802491 -231.77004 
L 172.802619 -229.830341 
L 172.803191 -227.890642 
L 172.803812 -225.950943 
L 172.804029 -224.011245 
z
" id="m1b3c5e7b31" style="stroke:#444444;stroke-width:1.5;"/>
    </defs>
    <g clip-path="url(#p480990123c)">
     <use style="fill:#e68193;stroke:#444444;stroke-width:1.5;" x="0" xlink:href="#m1b3c5e7b31" y="458.815625"/>
    </g>
   </g>
   <g id="PolyCollection_6">
    <defs>
     <path d="M 195.736603 -270.111465 
L 191.967287 -270.111465 
L 191.866511 -271.202756 
L 191.764914 -272.294047 
L 191.662906 -273.385338 
L 191.560923 -274.47663 
L 191.459428 -275.567921 
L 191.358907 -276.659212 
L 191.259869 -277.750503 
L 191.162836 -278.841795 
L 191.068348 -279.933086 
L 190.976949 -281.024377 
L 190.889191 -282.115668 
L 190.805621 -283.20696 
L 190.72678 -284.298251 
L 190.653193 -285.389542 
L 190.585364 -286.480833 
L 190.523769 -287.572125 
L 190.468848 -288.663416 
L 190.420999 -289.754707 
L 190.380568 -290.845998 
L 190.347849 -291.93729 
L 190.323069 -293.028581 
L 190.30639 -294.119872 
L 190.297901 -295.211163 
L 190.297613 -296.302455 
L 190.30546 -297.393746 
L 190.321295 -298.485037 
L 190.344891 -299.576328 
L 190.37594 -300.667619 
L 190.414058 -301.758911 
L 190.45879 -302.850202 
L 190.509612 -303.941493 
L 190.56594 -305.032784 
L 190.627137 -306.124076 
L 190.692522 -307.215367 
L 190.761382 -308.306658 
L 190.832977 -309.397949 
L 190.90656 -310.489241 
L 190.98138 -311.580532 
L 191.056696 -312.671823 
L 191.131793 -313.763114 
L 191.205985 -314.854406 
L 191.278631 -315.945697 
L 191.349143 -317.036988 
L 191.416993 -318.128279 
L 191.481721 -319.219571 
L 191.54294 -320.310862 
L 191.600342 -321.402153 
L 191.653699 -322.493444 
L 191.702863 -323.584735 
L 191.747769 -324.676027 
L 191.788428 -325.767318 
L 191.82493 -326.858609 
L 191.857431 -327.9499 
L 191.886156 -329.041192 
L 191.911382 -330.132483 
L 191.93344 -331.223774 
L 191.952698 -332.315065 
L 191.969556 -333.406357 
L 191.984436 -334.497648 
L 191.997774 -335.588939 
L 192.010007 -336.68023 
L 192.021566 -337.771522 
L 192.032871 -338.862813 
L 192.044316 -339.954104 
L 192.056272 -341.045395 
L 192.06907 -342.136687 
L 192.083007 -343.227978 
L 192.098335 -344.319269 
L 192.115261 -345.41056 
L 192.133948 -346.501852 
L 192.154508 -347.593143 
L 192.177012 -348.684434 
L 192.201483 -349.775725 
L 192.227904 -350.867016 
L 192.256221 -351.958308 
L 192.286345 -353.049599 
L 192.318155 -354.14089 
L 192.35151 -355.232181 
L 192.386246 -356.323473 
L 192.422185 -357.414764 
L 192.459139 -358.506055 
L 192.496917 -359.597346 
L 192.535327 -360.688638 
L 192.574181 -361.779929 
L 192.613299 -362.87122 
L 192.652513 -363.962511 
L 192.691667 -365.053803 
L 192.730621 -366.145094 
L 192.769253 -367.236385 
L 192.807458 -368.327676 
L 192.845149 -369.418968 
L 192.882255 -370.510259 
L 192.918723 -371.60155 
L 192.954517 -372.692841 
L 192.989611 -373.784132 
L 193.023994 -374.875424 
L 193.057665 -375.966715 
L 193.090629 -377.058006 
L 193.122898 -378.149297 
L 194.580991 -378.149297 
L 194.580991 -378.149297 
L 194.61326 -377.058006 
L 194.646224 -375.966715 
L 194.679895 -374.875424 
L 194.714278 -373.784132 
L 194.749372 -372.692841 
L 194.785166 -371.60155 
L 194.821634 -370.510259 
L 194.85874 -369.418968 
L 194.896431 -368.327676 
L 194.934636 -367.236385 
L 194.973268 -366.145094 
L 195.012222 -365.053803 
L 195.051376 -363.962511 
L 195.09059 -362.87122 
L 195.129708 -361.779929 
L 195.168562 -360.688638 
L 195.206972 -359.597346 
L 195.24475 -358.506055 
L 195.281705 -357.414764 
L 195.317643 -356.323473 
L 195.352379 -355.232181 
L 195.385734 -354.14089 
L 195.417545 -353.049599 
L 195.447668 -351.958308 
L 195.475985 -350.867016 
L 195.502406 -349.775725 
L 195.526877 -348.684434 
L 195.549381 -347.593143 
L 195.569941 -346.501852 
L 195.588628 -345.41056 
L 195.605554 -344.319269 
L 195.620882 -343.227978 
L 195.634819 -342.136687 
L 195.647617 -341.045395 
L 195.659573 -339.954104 
L 195.671018 -338.862813 
L 195.682323 -337.771522 
L 195.693882 -336.68023 
L 195.706115 -335.588939 
L 195.719453 -334.497648 
L 195.734333 -333.406357 
L 195.751192 -332.315065 
L 195.770449 -331.223774 
L 195.792507 -330.132483 
L 195.817734 -329.041192 
L 195.846458 -327.9499 
L 195.878959 -326.858609 
L 195.915461 -325.767318 
L 195.95612 -324.676027 
L 196.001026 -323.584735 
L 196.05019 -322.493444 
L 196.103547 -321.402153 
L 196.160949 -320.310862 
L 196.222168 -319.219571 
L 196.286896 -318.128279 
L 196.354746 -317.036988 
L 196.425258 -315.945697 
L 196.497904 -314.854406 
L 196.572096 -313.763114 
L 196.647193 -312.671823 
L 196.722509 -311.580532 
L 196.797329 -310.489241 
L 196.870912 -309.397949 
L 196.942507 -308.306658 
L 197.011367 -307.215367 
L 197.076752 -306.124076 
L 197.137949 -305.032784 
L 197.194277 -303.941493 
L 197.245099 -302.850202 
L 197.289831 -301.758911 
L 197.327949 -300.667619 
L 197.358998 -299.576328 
L 197.382594 -298.485037 
L 197.398429 -297.393746 
L 197.406276 -296.302455 
L 197.405988 -295.211163 
L 197.397499 -294.119872 
L 197.38082 -293.028581 
L 197.35604 -291.93729 
L 197.323321 -290.845998 
L 197.282891 -289.754707 
L 197.235041 -288.663416 
L 197.18012 -287.572125 
L 197.118525 -286.480833 
L 197.050696 -285.389542 
L 196.977109 -284.298251 
L 196.898268 -283.20696 
L 196.814698 -282.115668 
L 196.72694 -281.024377 
L 196.635541 -279.933086 
L 196.541053 -278.841795 
L 196.44402 -277.750503 
L 196.344982 -276.659212 
L 196.244461 -275.567921 
L 196.142966 -274.47663 
L 196.040983 -273.385338 
L 195.938975 -272.294047 
L 195.837378 -271.202756 
L 195.736603 -270.111465 
z
" id="m1eb7fcb004" style="stroke:#444444;stroke-width:1.5;"/>
    </defs>
    <g clip-path="url(#p480990123c)">
     <use style="fill:#459e97;stroke:#444444;stroke-width:1.5;" x="0" xlink:href="#m1eb7fcb004" y="458.815625"/>
    </g>
   </g>
   <g id="PolyCollection_7">
    <defs>
     <path d="M 225.436913 -203.516654 
L 225.426521 -203.516654 
L 225.426664 -204.814874 
L 225.427154 -206.113094 
L 225.427595 -207.411313 
L 225.42766 -208.709533 
L 225.427301 -210.007753 
L 225.42678 -211.305972 
L 225.426494 -212.604192 
L 225.426705 -213.902412 
L 225.427334 -215.200631 
L 225.427881 -216.498851 
L 225.427367 -217.797071 
L 225.42412 -219.09529 
L 225.415305 -220.39351 
L 225.396349 -221.69173 
L 225.36066 -222.989949 
L 225.300183 -224.288169 
L 225.207374 -225.586389 
L 225.078674 -226.884608 
L 224.918512 -228.182828 
L 224.741503 -229.481048 
L 224.570244 -230.779267 
L 224.42816 -232.077487 
L 224.330169 -233.375707 
L 224.275812 -234.673926 
L 224.247421 -235.972146 
L 224.211458 -237.270366 
L 224.118703 -238.568585 
L 223.901864 -239.866805 
L 223.475643 -241.165025 
L 222.748956 -242.463244 
L 221.656647 -243.761464 
L 220.207335 -245.059684 
L 218.527862 -246.357903 
L 216.872184 -247.656123 
L 215.567801 -248.954343 
L 214.905126 -250.252562 
L 215.019742 -251.550782 
L 215.83681 -252.849002 
L 217.113975 -254.147221 
L 218.554391 -255.445441 
L 219.919107 -256.743661 
L 221.08133 -258.04188 
L 222.014662 -259.3401 
L 222.74743 -260.63832 
L 223.320493 -261.936539 
L 223.766314 -263.234759 
L 224.106484 -264.532979 
L 224.356894 -265.831198 
L 224.532515 -267.129418 
L 224.649332 -268.427638 
L 224.723985 -269.725857 
L 224.77204 -271.024077 
L 224.805659 -272.322297 
L 224.831819 -273.620516 
L 224.85246 -274.918736 
L 224.866738 -276.216956 
L 224.873738 -277.515175 
L 224.873673 -278.813395 
L 224.867275 -280.111615 
L 224.85483 -281.409834 
L 224.836231 -282.708054 
L 224.812009 -284.006274 
L 224.784335 -285.304493 
L 224.757064 -286.602713 
L 224.734608 -287.900933 
L 224.720105 -289.199152 
L 224.713841 -290.497372 
L 224.712958 -291.795592 
L 224.712754 -293.093811 
L 224.708914 -294.392031 
L 224.699437 -295.690251 
L 224.685482 -296.98847 
L 224.671054 -298.28669 
L 224.661721 -299.58491 
L 224.662418 -300.883129 
L 224.674923 -302.181349 
L 224.696584 -303.479569 
L 224.721888 -304.777788 
L 224.746453 -306.076008 
L 224.770557 -307.374228 
L 224.799219 -308.672447 
L 224.83862 -309.970667 
L 224.891787 -311.268887 
L 224.956757 -312.567106 
L 225.027893 -313.865326 
L 225.098593 -315.163546 
L 225.163331 -316.461765 
L 225.21842 -317.759985 
L 225.262089 -319.058205 
L 225.294421 -320.356424 
L 225.317101 -321.654644 
L 225.332742 -322.952864 
L 225.343999 -324.251083 
L 225.352941 -325.549303 
L 225.360958 -326.847523 
L 225.368967 -328.145742 
L 225.377576 -329.443962 
L 225.387017 -330.742182 
L 225.397006 -332.040401 
L 225.466428 -332.040401 
L 225.466428 -332.040401 
L 225.476417 -330.742182 
L 225.485858 -329.443962 
L 225.494467 -328.145742 
L 225.502476 -326.847523 
L 225.510492 -325.549303 
L 225.519435 -324.251083 
L 225.530692 -322.952864 
L 225.546333 -321.654644 
L 225.569013 -320.356424 
L 225.601345 -319.058205 
L 225.645014 -317.759985 
L 225.700103 -316.461765 
L 225.764841 -315.163546 
L 225.835541 -313.865326 
L 225.906677 -312.567106 
L 225.971647 -311.268887 
L 226.024814 -309.970667 
L 226.064214 -308.672447 
L 226.092877 -307.374228 
L 226.116981 -306.076008 
L 226.141546 -304.777788 
L 226.16685 -303.479569 
L 226.188511 -302.181349 
L 226.201016 -300.883129 
L 226.201713 -299.58491 
L 226.19238 -298.28669 
L 226.177952 -296.98847 
L 226.163997 -295.690251 
L 226.15452 -294.392031 
L 226.15068 -293.093811 
L 226.150476 -291.795592 
L 226.149593 -290.497372 
L 226.143329 -289.199152 
L 226.128826 -287.900933 
L 226.10637 -286.602713 
L 226.079099 -285.304493 
L 226.051425 -284.006274 
L 226.027203 -282.708054 
L 226.008604 -281.409834 
L 225.996159 -280.111615 
L 225.989761 -278.813395 
L 225.989696 -277.515175 
L 225.996696 -276.216956 
L 226.010974 -274.918736 
L 226.031615 -273.620516 
L 226.057775 -272.322297 
L 226.091394 -271.024077 
L 226.139449 -269.725857 
L 226.214102 -268.427638 
L 226.330919 -267.129418 
L 226.50654 -265.831198 
L 226.75695 -264.532979 
L 227.09712 -263.234759 
L 227.542941 -261.936539 
L 228.116004 -260.63832 
L 228.848772 -259.3401 
L 229.782104 -258.04188 
L 230.944327 -256.743661 
L 232.309043 -255.445441 
L 233.749459 -254.147221 
L 235.026624 -252.849002 
L 235.843692 -251.550782 
L 235.958308 -250.252562 
L 235.295633 -248.954343 
L 233.99125 -247.656123 
L 232.335571 -246.357903 
L 230.656099 -245.059684 
L 229.206787 -243.761464 
L 228.114478 -242.463244 
L 227.387791 -241.165025 
L 226.96157 -239.866805 
L 226.744731 -238.568585 
L 226.651976 -237.270366 
L 226.616012 -235.972146 
L 226.587622 -234.673926 
L 226.533265 -233.375707 
L 226.435274 -232.077487 
L 226.29319 -230.779267 
L 226.121931 -229.481048 
L 225.944922 -228.182828 
L 225.78476 -226.884608 
L 225.65606 -225.586389 
L 225.563251 -224.288169 
L 225.502774 -222.989949 
L 225.467085 -221.69173 
L 225.448129 -220.39351 
L 225.439314 -219.09529 
L 225.436067 -217.797071 
L 225.435553 -216.498851 
L 225.4361 -215.200631 
L 225.436729 -213.902412 
L 225.43694 -212.604192 
L 225.436653 -211.305972 
L 225.436133 -210.007753 
L 225.435774 -208.709533 
L 225.435839 -207.411313 
L 225.43628 -206.113094 
L 225.43677 -204.814874 
L 225.436913 -203.516654 
z
" id="mc206f12b46" style="stroke:#444444;stroke-width:1.5;"/>
    </defs>
    <g clip-path="url(#p480990123c)">
     <use style="fill:#e68193;stroke:#444444;stroke-width:1.5;" x="0" xlink:href="#mc206f12b46" y="458.815625"/>
    </g>
   </g>
   <g id="PolyCollection_8">
    <defs>
     <path d="M 248.492621 -233.117453 
L 244.477176 -233.117453 
L 244.376337 -233.862371 
L 244.275496 -234.607289 
L 244.175107 -235.352208 
L 244.075644 -236.097126 
L 243.977594 -236.842044 
L 243.88146 -237.586963 
L 243.787751 -238.331881 
L 243.69698 -239.0768 
L 243.609662 -239.821718 
L 243.526305 -240.566636 
L 243.447408 -241.311555 
L 243.373453 -242.056473 
L 243.304901 -242.801391 
L 243.242186 -243.54631 
L 243.18571 -244.291228 
L 243.135834 -245.036146 
L 243.092879 -245.781065 
L 243.057112 -246.525983 
L 243.028749 -247.270901 
L 243.007947 -248.01582 
L 242.9948 -248.760738 
L 242.989336 -249.505657 
L 242.991519 -250.250575 
L 243.00124 -250.995493 
L 243.018324 -251.740412 
L 243.042527 -252.48533 
L 243.073537 -253.230248 
L 243.110981 -253.975167 
L 243.154425 -254.720085 
L 243.203383 -255.465003 
L 243.257319 -256.209922 
L 243.315656 -256.95484 
L 243.377785 -257.699758 
L 243.443072 -258.444677 
L 243.510866 -259.189595 
L 243.580511 -259.934514 
L 243.651352 -260.679432 
L 243.722749 -261.42435 
L 243.794081 -262.169269 
L 243.864758 -262.914187 
L 243.934229 -263.659105 
L 244.001986 -264.404024 
L 244.067575 -265.148942 
L 244.130601 -265.89386 
L 244.190726 -266.638779 
L 244.24768 -267.383697 
L 244.30126 -268.128615 
L 244.351326 -268.873534 
L 244.397809 -269.618452 
L 244.440702 -270.363371 
L 244.480057 -271.108289 
L 244.515988 -271.853207 
L 244.548656 -272.598126 
L 244.578272 -273.343044 
L 244.605085 -274.087962 
L 244.629377 -274.832881 
L 244.651455 -275.577799 
L 244.671647 -276.322717 
L 244.69029 -277.067636 
L 244.707723 -277.812554 
L 244.724287 -278.557472 
L 244.740308 -279.302391 
L 244.7561 -280.047309 
L 244.771958 -280.792228 
L 244.788148 -281.537146 
L 244.804912 -282.282064 
L 244.822457 -283.026983 
L 244.84096 -283.771901 
L 244.860562 -284.516819 
L 244.88137 -285.261738 
L 244.903457 -286.006656 
L 244.926864 -286.751574 
L 244.951599 -287.496493 
L 244.977642 -288.241411 
L 245.004949 -288.986329 
L 245.033449 -289.731248 
L 245.063057 -290.476166 
L 245.093668 -291.221085 
L 245.125167 -291.966003 
L 245.15743 -292.710921 
L 245.190329 -293.45584 
L 245.223733 -294.200758 
L 245.257515 -294.945676 
L 245.291549 -295.690595 
L 245.325718 -296.435513 
L 245.359913 -297.180431 
L 245.394036 -297.92535 
L 245.427998 -298.670268 
L 245.461725 -299.415186 
L 245.495151 -300.160105 
L 245.528226 -300.905023 
L 245.56091 -301.649942 
L 245.593173 -302.39486 
L 245.624994 -303.139778 
L 245.656363 -303.884697 
L 245.687273 -304.629615 
L 245.717727 -305.374533 
L 245.747727 -306.119452 
L 245.777281 -306.86437 
L 247.192516 -306.86437 
L 247.192516 -306.86437 
L 247.22207 -306.119452 
L 247.25207 -305.374533 
L 247.282524 -304.629615 
L 247.313435 -303.884697 
L 247.344803 -303.139778 
L 247.376625 -302.39486 
L 247.408887 -301.649942 
L 247.441571 -300.905023 
L 247.474646 -300.160105 
L 247.508072 -299.415186 
L 247.541799 -298.670268 
L 247.575761 -297.92535 
L 247.609884 -297.180431 
L 247.644079 -296.435513 
L 247.678248 -295.690595 
L 247.712282 -294.945676 
L 247.746064 -294.200758 
L 247.779468 -293.45584 
L 247.812367 -292.710921 
L 247.84463 -291.966003 
L 247.876129 -291.221085 
L 247.90674 -290.476166 
L 247.936348 -289.731248 
L 247.964848 -288.986329 
L 247.992155 -288.241411 
L 248.018198 -287.496493 
L 248.042933 -286.751574 
L 248.06634 -286.006656 
L 248.088427 -285.261738 
L 248.109235 -284.516819 
L 248.128837 -283.771901 
L 248.14734 -283.026983 
L 248.164886 -282.282064 
L 248.181649 -281.537146 
L 248.197839 -280.792228 
L 248.213697 -280.047309 
L 248.229489 -279.302391 
L 248.245511 -278.557472 
L 248.262074 -277.812554 
L 248.279507 -277.067636 
L 248.29815 -276.322717 
L 248.318342 -275.577799 
L 248.340421 -274.832881 
L 248.364712 -274.087962 
L 248.391525 -273.343044 
L 248.421141 -272.598126 
L 248.453809 -271.853207 
L 248.48974 -271.108289 
L 248.529095 -270.363371 
L 248.571988 -269.618452 
L 248.618471 -268.873534 
L 248.668538 -268.128615 
L 248.722117 -267.383697 
L 248.779071 -266.638779 
L 248.839197 -265.89386 
L 248.902222 -265.148942 
L 248.967811 -264.404024 
L 249.035568 -263.659105 
L 249.105039 -262.914187 
L 249.175716 -262.169269 
L 249.247048 -261.42435 
L 249.318445 -260.679432 
L 249.389286 -259.934514 
L 249.458931 -259.189595 
L 249.526725 -258.444677 
L 249.592012 -257.699758 
L 249.654141 -256.95484 
L 249.712478 -256.209922 
L 249.766414 -255.465003 
L 249.815372 -254.720085 
L 249.858816 -253.975167 
L 249.89626 -253.230248 
L 249.92727 -252.48533 
L 249.951473 -251.740412 
L 249.968557 -250.995493 
L 249.978278 -250.250575 
L 249.980461 -249.505657 
L 249.974998 -248.760738 
L 249.96185 -248.01582 
L 249.941048 -247.270901 
L 249.912685 -246.525983 
L 249.876919 -245.781065 
L 249.833963 -245.036146 
L 249.784087 -244.291228 
L 249.727611 -243.54631 
L 249.664896 -242.801391 
L 249.596344 -242.056473 
L 249.522389 -241.311555 
L 249.443492 -240.566636 
L 249.360135 -239.821718 
L 249.272817 -239.0768 
L 249.182046 -238.331881 
L 249.088337 -237.586963 
L 248.992203 -236.842044 
L 248.894153 -236.097126 
L 248.79469 -235.352208 
L 248.694301 -234.607289 
L 248.59346 -233.862371 
L 248.492621 -233.117453 
z
" id="m59283d1cc5" style="stroke:#444444;stroke-width:1.5;"/>
    </defs>
    <g clip-path="url(#p480990123c)">
     <use style="fill:#459e97;stroke:#444444;stroke-width:1.5;" x="0" xlink:href="#m59283d1cc5" y="458.815625"/>
    </g>
   </g>
   <g id="PolyCollection_9">
    <defs>
     <path d="M 278.070905 -184.55733 
L 278.058436 -184.55733 
L 278.058869 -185.210378 
L 278.059931 -185.863426 
L 278.060857 -186.516475 
L 278.061005 -187.169523 
L 278.060274 -187.822571 
L 278.059167 -188.47562 
L 278.058468 -189.128668 
L 278.05872 -189.781716 
L 278.059869 -190.434765 
L 278.061332 -191.087813 
L 278.062314 -191.740862 
L 278.06193 -192.39391 
L 278.05886 -193.046958 
L 278.050732 -193.700007 
L 278.033711 -194.353055 
L 278.002799 -195.006103 
L 277.953111 -195.659152 
L 277.88177 -196.3122 
L 277.789542 -196.965248 
L 277.681626 -197.618297 
L 277.567625 -198.271345 
L 277.46033 -198.924393 
L 277.372102 -199.577442 
L 277.309436 -200.23049 
L 277.269471 -200.883539 
L 277.241757 -201.536587 
L 277.214419 -202.189635 
L 277.181317 -202.842684 
L 277.147025 -203.495732 
L 277.125842 -204.14878 
L 277.132635 -204.801829 
L 277.170713 -205.454877 
L 277.227852 -206.107925 
L 277.28516 -206.760974 
L 277.330232 -207.414022 
L 277.36213 -208.067071 
L 277.385914 -208.720119 
L 277.405236 -209.373167 
L 277.42066 -210.026216 
L 277.43241 -210.679264 
L 277.441095 -211.332312 
L 277.442556 -211.985361 
L 277.418576 -212.638409 
L 277.328575 -213.291457 
L 277.108778 -213.944506 
L 276.685378 -214.597554 
L 276.002895 -215.250602 
L 275.053944 -215.903651 
L 273.88483 -216.556699 
L 272.568519 -217.209748 
L 271.176892 -217.862796 
L 269.795987 -218.515844 
L 268.57652 -219.168893 
L 267.747961 -219.821941 
L 267.53808 -220.474989 
L 268.038445 -221.128038 
L 269.129947 -221.781086 
L 270.536488 -222.434134 
L 271.959876 -223.087183 
L 273.193563 -223.740231 
L 274.157957 -224.39328 
L 274.871706 -225.046328 
L 275.401266 -225.699376 
L 275.818091 -226.352425 
L 276.173515 -227.005473 
L 276.491146 -227.658521 
L 276.772008 -228.31157 
L 277.005748 -228.964618 
L 277.181893 -229.617666 
L 277.297126 -230.270715 
L 277.356558 -230.923763 
L 277.369916 -231.576811 
L 277.346463 -232.22986 
L 277.292462 -232.882908 
L 277.212221 -233.535957 
L 277.111856 -234.189005 
L 277.004015 -234.842053 
L 276.910544 -235.495102 
L 276.859786 -236.14815 
L 276.877549 -236.801198 
L 276.974645 -237.454247 
L 277.137992 -238.107295 
L 277.333346 -238.760343 
L 277.520698 -239.413392 
L 277.671957 -240.06644 
L 277.77837 -240.719489 
L 277.845834 -241.372537 
L 277.88615 -242.025585 
L 277.910913 -242.678634 
L 277.928515 -243.331682 
L 277.942758 -243.98473 
L 277.953382 -244.637779 
L 277.958815 -245.290827 
L 277.95938 -245.943875 
L 277.958377 -246.596924 
L 277.960424 -247.249972 
L 277.96881 -247.90302 
L 277.983896 -248.556069 
L 278.00326 -249.209117 
L 278.126082 -249.209117 
L 278.126082 -249.209117 
L 278.145446 -248.556069 
L 278.160532 -247.90302 
L 278.168918 -247.249972 
L 278.170965 -246.596924 
L 278.169962 -245.943875 
L 278.170527 -245.290827 
L 278.17596 -244.637779 
L 278.186584 -243.98473 
L 278.200827 -243.331682 
L 278.218428 -242.678634 
L 278.243192 -242.025585 
L 278.283507 -241.372537 
L 278.350972 -240.719489 
L 278.457385 -240.06644 
L 278.608644 -239.413392 
L 278.795996 -238.760343 
L 278.99135 -238.107295 
L 279.154697 -237.454247 
L 279.251792 -236.801198 
L 279.269555 -236.14815 
L 279.218798 -235.495102 
L 279.125327 -234.842053 
L 279.017486 -234.189005 
L 278.917121 -233.535957 
L 278.83688 -232.882908 
L 278.782879 -232.22986 
L 278.759426 -231.576811 
L 278.772784 -230.923763 
L 278.832216 -230.270715 
L 278.947448 -229.617666 
L 279.123594 -228.964618 
L 279.357333 -228.31157 
L 279.638195 -227.658521 
L 279.955827 -227.005473 
L 280.311251 -226.352425 
L 280.728076 -225.699376 
L 281.257636 -225.046328 
L 281.971385 -224.39328 
L 282.935779 -223.740231 
L 284.169466 -223.087183 
L 285.592854 -222.434134 
L 286.999395 -221.781086 
L 288.090897 -221.128038 
L 288.591262 -220.474989 
L 288.38138 -219.821941 
L 287.552822 -219.168893 
L 286.333355 -218.515844 
L 284.95245 -217.862796 
L 283.560823 -217.209748 
L 282.244512 -216.556699 
L 281.075398 -215.903651 
L 280.126447 -215.250602 
L 279.443964 -214.597554 
L 279.020564 -213.944506 
L 278.800767 -213.291457 
L 278.710766 -212.638409 
L 278.686786 -211.985361 
L 278.688247 -211.332312 
L 278.696932 -210.679264 
L 278.708682 -210.026216 
L 278.724106 -209.373167 
L 278.743428 -208.720119 
L 278.767211 -208.067071 
L 278.799109 -207.414022 
L 278.844182 -206.760974 
L 278.90149 -206.107925 
L 278.958628 -205.454877 
L 278.996707 -204.801829 
L 279.0035 -204.14878 
L 278.982317 -203.495732 
L 278.948025 -202.842684 
L 278.914923 -202.189635 
L 278.887584 -201.536587 
L 278.859871 -200.883539 
L 278.819906 -200.23049 
L 278.75724 -199.577442 
L 278.669012 -198.924393 
L 278.561717 -198.271345 
L 278.447716 -197.618297 
L 278.3398 -196.965248 
L 278.247572 -196.3122 
L 278.176231 -195.659152 
L 278.126543 -195.006103 
L 278.095631 -194.353055 
L 278.07861 -193.700007 
L 278.070482 -193.046958 
L 278.067412 -192.39391 
L 278.067028 -191.740862 
L 278.06801 -191.087813 
L 278.069473 -190.434765 
L 278.070622 -189.781716 
L 278.070874 -189.128668 
L 278.070174 -188.47562 
L 278.069068 -187.822571 
L 278.068337 -187.169523 
L 278.068485 -186.516475 
L 278.069411 -185.863426 
L 278.070473 -185.210378 
L 278.070905 -184.55733 
z
" id="mbd8c06a5d8" style="stroke:#444444;stroke-width:1.5;"/>
    </defs>
    <g clip-path="url(#p480990123c)">
     <use style="fill:#e68193;stroke:#444444;stroke-width:1.5;" x="0" xlink:href="#mbd8c06a5d8" y="458.815625"/>
    </g>
   </g>
   <g id="PolyCollection_10">
    <defs>
     <path d="M 300.653995 -201.950344 
L 297.58171 -201.950344 
L 297.532681 -202.31079 
L 297.486081 -202.671236 
L 297.442044 -203.031681 
L 297.400659 -203.392127 
L 297.361969 -203.752572 
L 297.325963 -204.113018 
L 297.292579 -204.473464 
L 297.261705 -204.833909 
L 297.233173 -205.194355 
L 297.206765 -205.554801 
L 297.182215 -205.915246 
L 297.159213 -206.275692 
L 297.137407 -206.636137 
L 297.11641 -206.996583 
L 297.095809 -207.357029 
L 297.075166 -207.717474 
L 297.054033 -208.07792 
L 297.031955 -208.438365 
L 297.00848 -208.798811 
L 296.983173 -209.159257 
L 296.955617 -209.519702 
L 296.925429 -209.880148 
L 296.892265 -210.240594 
L 296.855829 -210.601039 
L 296.815883 -210.961485 
L 296.77225 -211.32193 
L 296.724824 -211.682376 
L 296.673572 -212.042822 
L 296.618539 -212.403267 
L 296.559847 -212.763713 
L 296.497702 -213.124158 
L 296.432386 -213.484604 
L 296.364261 -213.84505 
L 296.293761 -214.205495 
L 296.22139 -214.565941 
L 296.147711 -214.926387 
L 296.073342 -215.286832 
L 295.998948 -215.647278 
L 295.925227 -216.007723 
L 295.8529 -216.368169 
L 295.782703 -216.728615 
L 295.715373 -217.08906 
L 295.651636 -217.449506 
L 295.592197 -217.809952 
L 295.537725 -218.170397 
L 295.488847 -218.530843 
L 295.446137 -218.891288 
L 295.410104 -219.251734 
L 295.381189 -219.61218 
L 295.359753 -219.972625 
L 295.346079 -220.333071 
L 295.340363 -220.693516 
L 295.342714 -221.053962 
L 295.353155 -221.414408 
L 295.371622 -221.774853 
L 295.397969 -222.135299 
L 295.431972 -222.495745 
L 295.473332 -222.85619 
L 295.521683 -223.216636 
L 295.576602 -223.577081 
L 295.637611 -223.937527 
L 295.704193 -224.297973 
L 295.775794 -224.658418 
L 295.851838 -225.018864 
L 295.931732 -225.379309 
L 296.014877 -225.739755 
L 296.100677 -226.100201 
L 296.188542 -226.460646 
L 296.277904 -226.821092 
L 296.368214 -227.181538 
L 296.458954 -227.541983 
L 296.549641 -227.902429 
L 296.639827 -228.262874 
L 296.729106 -228.62332 
L 296.817116 -228.983766 
L 296.903536 -229.344211 
L 296.988093 -229.704657 
L 297.070555 -230.065102 
L 297.150736 -230.425548 
L 297.228491 -230.785994 
L 297.303713 -231.146439 
L 297.376336 -231.506885 
L 297.446327 -231.867331 
L 297.513683 -232.227776 
L 297.578432 -232.588222 
L 297.640627 -232.948667 
L 297.700341 -233.309113 
L 297.757667 -233.669559 
L 297.812712 -234.030004 
L 297.865594 -234.39045 
L 297.91644 -234.750895 
L 297.965382 -235.111341 
L 298.012554 -235.471787 
L 298.058089 -235.832232 
L 298.102116 -236.192678 
L 298.144761 -236.553124 
L 298.18614 -236.913569 
L 298.226362 -237.274015 
L 298.265523 -237.63446 
L 299.970182 -237.63446 
L 299.970182 -237.63446 
L 300.009343 -237.274015 
L 300.049565 -236.913569 
L 300.090944 -236.553124 
L 300.133589 -236.192678 
L 300.177616 -235.832232 
L 300.223151 -235.471787 
L 300.270323 -235.111341 
L 300.319265 -234.750895 
L 300.370111 -234.39045 
L 300.422993 -234.030004 
L 300.478038 -233.669559 
L 300.535364 -233.309113 
L 300.595078 -232.948667 
L 300.657273 -232.588222 
L 300.722022 -232.227776 
L 300.789378 -231.867331 
L 300.859369 -231.506885 
L 300.931992 -231.146439 
L 301.007215 -230.785994 
L 301.084969 -230.425548 
L 301.16515 -230.065102 
L 301.247612 -229.704657 
L 301.332169 -229.344211 
L 301.418589 -228.983766 
L 301.506599 -228.62332 
L 301.595878 -228.262874 
L 301.686064 -227.902429 
L 301.776751 -227.541983 
L 301.867491 -227.181538 
L 301.957801 -226.821092 
L 302.047163 -226.460646 
L 302.135029 -226.100201 
L 302.220828 -225.739755 
L 302.303973 -225.379309 
L 302.383867 -225.018864 
L 302.459911 -224.658418 
L 302.531512 -224.297973 
L 302.598094 -223.937527 
L 302.659103 -223.577081 
L 302.714022 -223.216636 
L 302.762373 -222.85619 
L 302.803733 -222.495745 
L 302.837736 -222.135299 
L 302.864083 -221.774853 
L 302.88255 -221.414408 
L 302.892991 -221.053962 
L 302.895342 -220.693516 
L 302.889626 -220.333071 
L 302.875952 -219.972625 
L 302.854516 -219.61218 
L 302.825601 -219.251734 
L 302.789568 -218.891288 
L 302.746858 -218.530843 
L 302.697981 -218.170397 
L 302.643509 -217.809952 
L 302.584069 -217.449506 
L 302.520332 -217.08906 
L 302.453002 -216.728615 
L 302.382805 -216.368169 
L 302.310478 -216.007723 
L 302.236757 -215.647278 
L 302.162363 -215.286832 
L 302.087994 -214.926387 
L 302.014315 -214.565941 
L 301.941944 -214.205495 
L 301.871444 -213.84505 
L 301.803319 -213.484604 
L 301.738004 -213.124158 
L 301.675858 -212.763713 
L 301.617166 -212.403267 
L 301.562133 -212.042822 
L 301.510881 -211.682376 
L 301.463455 -211.32193 
L 301.419823 -210.961485 
L 301.379876 -210.601039 
L 301.34344 -210.240594 
L 301.310276 -209.880148 
L 301.280088 -209.519702 
L 301.252532 -209.159257 
L 301.227225 -208.798811 
L 301.203751 -208.438365 
L 301.181672 -208.07792 
L 301.160539 -207.717474 
L 301.139896 -207.357029 
L 301.119295 -206.996583 
L 301.098298 -206.636137 
L 301.076492 -206.275692 
L 301.05349 -205.915246 
L 301.02894 -205.554801 
L 301.002533 -205.194355 
L 300.974 -204.833909 
L 300.943126 -204.473464 
L 300.909743 -204.113018 
L 300.873736 -203.752572 
L 300.835046 -203.392127 
L 300.793661 -203.031681 
L 300.749624 -202.671236 
L 300.703024 -202.31079 
L 300.653995 -201.950344 
z
" id="m61dcc97cbe" style="stroke:#444444;stroke-width:1.5;"/>
    </defs>
    <g clip-path="url(#p480990123c)">
     <use style="fill:#459e97;stroke:#444444;stroke-width:1.5;" x="0" xlink:href="#m61dcc97cbe" y="458.815625"/>
    </g>
   </g>
   <g id="patch_3">
    <path clip-path="url(#p480990123c)" d="M 78.059446 293.583159 
L 78.059446 293.583159 
L 78.059446 293.583159 
L 78.059446 293.583159 
z
" style="fill:#e68193;stroke:#444444;stroke-linejoin:miter;stroke-width:0.75;"/>
   </g>
   <g id="patch_4">
    <path clip-path="url(#p480990123c)" d="M 78.059446 293.583159 
L 78.059446 293.583159 
L 78.059446 293.583159 
L 78.059446 293.583159 
z
" style="fill:#459e97;stroke:#444444;stroke-linejoin:miter;stroke-width:0.75;"/>
   </g>
   <g id="line2d_1">
    <path clip-path="url(#p480990123c)" d="M 67.532855 178.901181 
L 67.532855 127.749995 
" style="fill:none;stroke:#444444;stroke-linecap:round;stroke-width:1.5;"/>
   </g>
   <g id="line2d_2">
    <path clip-path="url(#p480990123c)" d="M 67.532855 159.625046 
L 67.532855 146.758052 
" style="fill:none;stroke:#444444;stroke-linecap:round;stroke-width:4.5;"/>
   </g>
   <g id="line2d_3">
    <path clip-path="url(#p480990123c)" d="M 88.586037 188.70416 
L 88.586037 80.614822 
" style="fill:none;stroke:#444444;stroke-linecap:round;stroke-width:1.5;"/>
   </g>
   <g id="line2d_4">
    <path clip-path="url(#p480990123c)" d="M 88.586037 162.573475 
L 88.586037 113.017214 
" style="fill:none;stroke:#444444;stroke-linecap:round;stroke-width:4.5;"/>
   </g>
   <g id="line2d_5">
    <path clip-path="url(#p480990123c)" d="M 120.165809 219.500452 
L 120.165809 185.773328 
" style="fill:none;stroke:#444444;stroke-linecap:round;stroke-width:1.5;"/>
   </g>
   <g id="line2d_6">
    <path clip-path="url(#p480990123c)" d="M 120.165809 206.901518 
L 120.165809 198.43318 
" style="fill:none;stroke:#444444;stroke-linecap:round;stroke-width:4.5;"/>
   </g>
   <g id="line2d_7">
    <path clip-path="url(#p480990123c)" d="M 141.218991 225.698172 
L 141.218991 151.927808 
" style="fill:none;stroke:#444444;stroke-linecap:round;stroke-width:1.5;"/>
   </g>
   <g id="line2d_8">
    <path clip-path="url(#p480990123c)" d="M 141.218991 210.089807 
L 141.218991 176.715493 
" style="fill:none;stroke:#444444;stroke-linecap:round;stroke-width:4.5;"/>
   </g>
   <g id="line2d_9">
    <path clip-path="url(#p480990123c)" d="M 172.798763 186.431298 
L 172.798763 128.919719 
" style="fill:none;stroke:#444444;stroke-linecap:round;stroke-width:1.5;"/>
   </g>
   <g id="line2d_10">
    <path clip-path="url(#p480990123c)" d="M 172.798763 164.718235 
L 172.798763 150.206316 
" style="fill:none;stroke:#444444;stroke-linecap:round;stroke-width:4.5;"/>
   </g>
   <g id="line2d_11">
    <path clip-path="url(#p480990123c)" d="M 193.851945 188.70416 
L 193.851945 80.666328 
" style="fill:none;stroke:#444444;stroke-linecap:round;stroke-width:1.5;"/>
   </g>
   <g id="line2d_12">
    <path clip-path="url(#p480990123c)" d="M 193.851945 166.302778 
L 193.851945 120.512438 
" style="fill:none;stroke:#444444;stroke-linecap:round;stroke-width:4.5;"/>
   </g>
   <g id="line2d_13">
    <path clip-path="url(#p480990123c)" d="M 225.431717 224.42305 
L 225.431717 185.96828 
" style="fill:none;stroke:#444444;stroke-linecap:round;stroke-width:1.5;"/>
   </g>
   <g id="line2d_14">
    <path clip-path="url(#p480990123c)" d="M 225.431717 209.97205 
L 225.431717 200.321805 
" style="fill:none;stroke:#444444;stroke-linecap:round;stroke-width:4.5;"/>
   </g>
   <g id="line2d_15">
    <path clip-path="url(#p480990123c)" d="M 246.484899 225.698172 
L 246.484899 151.951255 
" style="fill:none;stroke:#444444;stroke-linecap:round;stroke-width:1.5;"/>
   </g>
   <g id="line2d_16">
    <path clip-path="url(#p480990123c)" d="M 246.484899 212.356031 
L 246.484899 181.555238 
" style="fill:none;stroke:#444444;stroke-linecap:round;stroke-width:4.5;"/>
   </g>
   <g id="line2d_17">
    <path clip-path="url(#p480990123c)" d="M 278.064671 248.085654 
L 278.064671 228.34651 
" style="fill:none;stroke:#444444;stroke-linecap:round;stroke-width:1.5;"/>
   </g>
   <g id="line2d_18">
    <path clip-path="url(#p480990123c)" d="M 278.064671 240.713937 
L 278.064671 235.754784 
" style="fill:none;stroke:#444444;stroke-linecap:round;stroke-width:4.5;"/>
   </g>
   <g id="line2d_19">
    <path clip-path="url(#p480990123c)" d="M 299.117853 256.865281 
L 299.117853 221.181165 
" style="fill:none;stroke:#444444;stroke-linecap:round;stroke-width:1.5;"/>
   </g>
   <g id="line2d_20">
    <path clip-path="url(#p480990123c)" d="M 299.117853 246.754818 
L 299.117853 236.07705 
" style="fill:none;stroke:#444444;stroke-linecap:round;stroke-width:4.5;"/>
   </g>
   <g id="patch_5">
    <path d="M 51.742969 285.8325 
L 314.907739 285.8325 
" style="fill:none;stroke:#262626;stroke-linecap:square;stroke-linejoin:miter;stroke-width:1.875;"/>
   </g>
   <g id="PathCollection_1">
    <defs>
     <path d="M 0 1.5 
C 0.397805 1.5 0.77937 1.341951 1.06066 1.06066 
C 1.341951 0.77937 1.5 0.397805 1.5 0 
C 1.5 -0.397805 1.341951 -0.77937 1.06066 -1.06066 
C 0.77937 -1.341951 0.397805 -1.5 0 -1.5 
C -0.397805 -1.5 -0.77937 -1.341951 -1.06066 -1.06066 
C -1.341951 -0.77937 -1.5 -0.397805 -1.5 0 
C -1.5 0.397805 -1.341951 0.77937 -1.06066 1.06066 
C -0.77937 1.341951 -0.397805 1.5 0 1.5 
z
" id="m73a61498c3" style="stroke:#444444;stroke-width:1.5;"/>
    </defs>
    <g clip-path="url(#p480990123c)">
     <use style="fill:#ffffff;stroke:#444444;stroke-width:1.5;" x="67.532855" xlink:href="#m73a61498c3" y="154.458754"/>
    </g>
   </g>
   <g id="PathCollection_2">
    <g clip-path="url(#p480990123c)">
     <use style="fill:#ffffff;stroke:#444444;stroke-width:1.5;" x="88.586037" xlink:href="#m73a61498c3" y="153.726657"/>
    </g>
   </g>
   <g id="PathCollection_3">
    <g clip-path="url(#p480990123c)">
     <use style="fill:#ffffff;stroke:#444444;stroke-width:1.5;" x="120.165809" xlink:href="#m73a61498c3" y="203.538553"/>
    </g>
   </g>
   <g id="PathCollection_4">
    <g clip-path="url(#p480990123c)">
     <use style="fill:#ffffff;stroke:#444444;stroke-width:1.5;" x="141.218991" xlink:href="#m73a61498c3" y="201.594748"/>
    </g>
   </g>
   <g id="PathCollection_5">
    <g clip-path="url(#p480990123c)">
     <use style="fill:#ffffff;stroke:#444444;stroke-width:1.5;" x="172.798763" xlink:href="#m73a61498c3" y="160.404866"/>
    </g>
   </g>
   <g id="PathCollection_6">
    <g clip-path="url(#p480990123c)">
     <use style="fill:#ffffff;stroke:#444444;stroke-width:1.5;" x="193.851945" xlink:href="#m73a61498c3" y="156.204544"/>
    </g>
   </g>
   <g id="PathCollection_7">
    <g clip-path="url(#p480990123c)">
     <use style="fill:#ffffff;stroke:#444444;stroke-width:1.5;" x="225.431717" xlink:href="#m73a61498c3" y="207.267055"/>
    </g>
   </g>
   <g id="PathCollection_8">
    <g clip-path="url(#p480990123c)">
     <use style="fill:#ffffff;stroke:#444444;stroke-width:1.5;" x="246.484899" xlink:href="#m73a61498c3" y="203.944648"/>
    </g>
   </g>
   <g id="PathCollection_9">
    <g clip-path="url(#p480990123c)">
     <use style="fill:#ffffff;stroke:#444444;stroke-width:1.5;" x="278.064671" xlink:href="#m73a61498c3" y="238.362298"/>
    </g>
   </g>
   <g id="PathCollection_10">
    <g clip-path="url(#p480990123c)">
     <use style="fill:#ffffff;stroke:#444444;stroke-width:1.5;" x="299.117853" xlink:href="#m73a61498c3" y="238.196046"/>
    </g>
   </g>
  </g>
  <g id="text_12">
   <!-- Maize -->
   <defs>
    <path d="M 7.421875 0 
L 7.421875 71.578125 
L 21.6875 71.578125 
L 38.625 20.90625 
Q 40.96875 13.8125 42.046875 10.296875 
Q 43.265625 14.203125 45.84375 21.78125 
L 62.984375 71.578125 
L 75.734375 71.578125 
L 75.734375 0 
L 66.609375 0 
L 66.609375 59.90625 
L 45.796875 0 
L 37.25 0 
L 16.546875 60.9375 
L 16.546875 0 
z
" id="ArialMT-77"/>
    <path d="M 1.953125 0 
L 1.953125 7.125 
L 34.96875 45.015625 
Q 29.34375 44.734375 25.046875 44.734375 
L 3.90625 44.734375 
L 3.90625 51.859375 
L 46.296875 51.859375 
L 46.296875 46.046875 
L 18.21875 13.140625 
L 12.796875 7.125 
Q 18.703125 7.5625 23.875 7.5625 
L 47.859375 7.5625 
L 47.859375 0 
z
" id="ArialMT-122"/>
   </defs>
   <g style="fill:#262626;" transform="translate(164.872226 15.460875)scale(0.216 -0.216)">
    <use xlink:href="#ArialMT-77"/>
    <use x="83.300781" xlink:href="#ArialMT-97"/>
    <use x="138.916016" xlink:href="#ArialMT-105"/>
    <use x="161.132812" xlink:href="#ArialMT-122"/>
    <use x="211.132812" xlink:href="#ArialMT-101"/>
   </g>
  </g>
  <g id="legend_1">
   <g id="text_13">
    <!-- index -->
    <defs>
     <path d="M 0.734375 0 
L 19.671875 26.953125 
L 2.15625 51.859375 
L 13.140625 51.859375 
L 21.09375 39.703125 
Q 23.34375 36.234375 24.703125 33.890625 
Q 26.859375 37.109375 28.65625 39.59375 
L 37.40625 51.859375 
L 47.90625 51.859375 
L 29.984375 27.4375 
L 49.265625 0 
L 38.484375 0 
L 27.828125 16.109375 
L 25 20.453125 
L 11.375 0 
z
" id="ArialMT-120"/>
    </defs>
    <g style="fill:#262626;" transform="translate(338.984914 210.023336)scale(0.153 -0.153)">
     <use xlink:href="#ArialMT-105"/>
     <use x="22.216797" xlink:href="#ArialMT-110"/>
     <use x="77.832031" xlink:href="#ArialMT-100"/>
     <use x="133.447266" xlink:href="#ArialMT-101"/>
     <use x="189.0625" xlink:href="#ArialMT-120"/>
    </g>
   </g>
   <g id="patch_6">
    <path d="M 309.874461 233.124602 
L 342.874461 233.124602 
L 342.874461 221.574602 
L 309.874461 221.574602 
z
" style="fill:#e68193;stroke:#444444;stroke-linejoin:miter;stroke-width:0.75;"/>
   </g>
   <g id="text_14">
    <!-- actual -->
    <defs>
     <path d="M 40.4375 19 
L 49.078125 17.875 
Q 47.65625 8.9375 41.8125 3.875 
Q 35.984375 -1.171875 27.484375 -1.171875 
Q 16.84375 -1.171875 10.375 5.78125 
Q 3.90625 12.75 3.90625 25.734375 
Q 3.90625 34.125 6.6875 40.421875 
Q 9.46875 46.734375 15.15625 49.875 
Q 20.84375 53.03125 27.546875 53.03125 
Q 35.984375 53.03125 41.359375 48.75 
Q 46.734375 44.484375 48.25 36.625 
L 39.703125 35.296875 
Q 38.484375 40.53125 35.375 43.15625 
Q 32.28125 45.796875 27.875 45.796875 
Q 21.234375 45.796875 17.078125 41.03125 
Q 12.9375 36.28125 12.9375 25.984375 
Q 12.9375 15.53125 16.9375 10.796875 
Q 20.953125 6.0625 27.390625 6.0625 
Q 32.5625 6.0625 36.03125 9.234375 
Q 39.5 12.40625 40.4375 19 
z
" id="ArialMT-99"/>
     <path d="M 40.578125 0 
L 40.578125 7.625 
Q 34.515625 -1.171875 24.125 -1.171875 
Q 19.53125 -1.171875 15.546875 0.578125 
Q 11.578125 2.34375 9.640625 5 
Q 7.71875 7.671875 6.9375 11.53125 
Q 6.390625 14.109375 6.390625 19.734375 
L 6.390625 51.859375 
L 15.1875 51.859375 
L 15.1875 23.09375 
Q 15.1875 16.21875 15.71875 13.8125 
Q 16.546875 10.359375 19.234375 8.375 
Q 21.921875 6.390625 25.875 6.390625 
Q 29.828125 6.390625 33.296875 8.421875 
Q 36.765625 10.453125 38.203125 13.9375 
Q 39.65625 17.4375 39.65625 24.078125 
L 39.65625 51.859375 
L 48.4375 51.859375 
L 48.4375 0 
z
" id="ArialMT-117"/>
    </defs>
    <g style="fill:#262626;" transform="translate(356.074461 233.124602)scale(0.165 -0.165)">
     <use xlink:href="#ArialMT-97"/>
     <use x="55.615234" xlink:href="#ArialMT-99"/>
     <use x="105.615234" xlink:href="#ArialMT-116"/>
     <use x="133.398438" xlink:href="#ArialMT-117"/>
     <use x="189.013672" xlink:href="#ArialMT-97"/>
     <use x="244.628906" xlink:href="#ArialMT-108"/>
    </g>
   </g>
   <g id="patch_7">
    <path d="M 309.874461 256.464367 
L 342.874461 256.464367 
L 342.874461 244.914367 
L 309.874461 244.914367 
z
" style="fill:#459e97;stroke:#444444;stroke-linejoin:miter;stroke-width:0.75;"/>
   </g>
   <g id="text_15">
    <!-- cluster -->
    <defs>
     <path d="M 3.078125 15.484375 
L 11.765625 16.84375 
Q 12.5 11.625 15.84375 8.84375 
Q 19.1875 6.0625 25.203125 6.0625 
Q 31.25 6.0625 34.171875 8.515625 
Q 37.109375 10.984375 37.109375 14.3125 
Q 37.109375 17.28125 34.515625 19 
Q 32.71875 20.171875 25.53125 21.96875 
Q 15.875 24.421875 12.140625 26.203125 
Q 8.40625 27.984375 6.46875 31.125 
Q 4.546875 34.28125 4.546875 38.09375 
Q 4.546875 41.546875 6.125 44.5 
Q 7.71875 47.46875 10.453125 49.421875 
Q 12.5 50.921875 16.03125 51.96875 
Q 19.578125 53.03125 23.640625 53.03125 
Q 29.734375 53.03125 34.34375 51.265625 
Q 38.96875 49.515625 41.15625 46.5 
Q 43.359375 43.5 44.1875 38.484375 
L 35.59375 37.3125 
Q 35.015625 41.3125 32.203125 43.546875 
Q 29.390625 45.796875 24.265625 45.796875 
Q 18.21875 45.796875 15.625 43.796875 
Q 13.03125 41.796875 13.03125 39.109375 
Q 13.03125 37.40625 14.109375 36.03125 
Q 15.1875 34.625 17.484375 33.6875 
Q 18.796875 33.203125 25.25 31.453125 
Q 34.578125 28.953125 38.25 27.359375 
Q 41.9375 25.78125 44.03125 22.75 
Q 46.140625 19.734375 46.140625 15.234375 
Q 46.140625 10.84375 43.578125 6.953125 
Q 41.015625 3.078125 36.171875 0.953125 
Q 31.34375 -1.171875 25.25 -1.171875 
Q 15.140625 -1.171875 9.84375 3.03125 
Q 4.546875 7.234375 3.078125 15.484375 
z
" id="ArialMT-115"/>
    </defs>
    <g style="fill:#262626;" transform="translate(356.074461 256.464367)scale(0.165 -0.165)">
     <use xlink:href="#ArialMT-99"/>
     <use x="50" xlink:href="#ArialMT-108"/>
     <use x="72.216797" xlink:href="#ArialMT-117"/>
     <use x="127.832031" xlink:href="#ArialMT-115"/>
     <use x="177.832031" xlink:href="#ArialMT-116"/>
     <use x="205.615234" xlink:href="#ArialMT-101"/>
     <use x="261.230469" xlink:href="#ArialMT-114"/>
    </g>
   </g>
  </g>
 </g>
 <defs>
  <clipPath id="p480990123c">
   <rect height="254.6325" width="263.16477" x="51.742969" y="31.2"/>
  </clipPath>
 </defs>
</svg>
