<?xml version="1.0" encoding="utf-8" standalone="no"?>
<!DOCTYPE svg PUBLIC "-//W3C//DTD SVG 1.1//EN"
  "http://www.w3.org/Graphics/SVG/1.1/DTD/svg11.dtd">
<!-- Created with matplotlib (https://matplotlib.org/) -->
<svg height="458.815625pt" version="1.1" viewBox="0 0 433.278992 458.815625" width="433.278992pt" xmlns="http://www.w3.org/2000/svg" xmlns:xlink="http://www.w3.org/1999/xlink">
 <defs>
  <style type="text/css">
*{stroke-linecap:butt;stroke-linejoin:round;}
  </style>
 </defs>
 <g id="figure_1">
  <g id="patch_1">
   <path d="M -0 458.815625 
L 433.278992 458.815625 
L 433.278992 0 
L -0 0 
z
" style="fill:#ffffff;"/>
  </g>
  <g id="axes_1">
   <g id="patch_2">
    <path d="M 65.502422 285.8325 
L 328.667192 285.8325 
L 328.667192 31.2 
L 65.502422 31.2 
z
" style="fill:#ffffff;"/>
   </g>
   <g id="matplotlib.axis_1">
    <g id="xtick_1">
     <g id="text_1">
      <!-- Irrigation High -->
      <defs>
       <path d="M 9.328125 0 
L 9.328125 71.578125 
L 18.796875 71.578125 
L 18.796875 0 
z
" id="ArialMT-73"/>
       <path d="M 6.5 0 
L 6.5 51.859375 
L 14.40625 51.859375 
L 14.40625 44 
Q 17.4375 49.515625 20 51.265625 
Q 22.5625 53.03125 25.640625 53.03125 
Q 30.078125 53.03125 34.671875 50.203125 
L 31.640625 42.046875 
Q 28.421875 43.953125 25.203125 43.953125 
Q 22.3125 43.953125 20.015625 42.21875 
Q 17.71875 40.484375 16.75 37.40625 
Q 15.28125 32.71875 15.28125 27.15625 
L 15.28125 0 
z
" id="ArialMT-114"/>
       <path d="M 6.640625 61.46875 
L 6.640625 71.578125 
L 15.4375 71.578125 
L 15.4375 61.46875 
z
M 6.640625 0 
L 6.640625 51.859375 
L 15.4375 51.859375 
L 15.4375 0 
z
" id="ArialMT-105"/>
       <path d="M 4.984375 -4.296875 
L 13.53125 -5.5625 
Q 14.0625 -9.515625 16.5 -11.328125 
Q 19.78125 -13.765625 25.4375 -13.765625 
Q 31.546875 -13.765625 34.859375 -11.328125 
Q 38.1875 -8.890625 39.359375 -4.5 
Q 40.046875 -1.8125 39.984375 6.78125 
Q 34.234375 0 25.640625 0 
Q 14.9375 0 9.078125 7.71875 
Q 3.21875 15.4375 3.21875 26.21875 
Q 3.21875 33.640625 5.90625 39.90625 
Q 8.59375 46.1875 13.6875 49.609375 
Q 18.796875 53.03125 25.6875 53.03125 
Q 34.859375 53.03125 40.828125 45.609375 
L 40.828125 51.859375 
L 48.921875 51.859375 
L 48.921875 7.03125 
Q 48.921875 -5.078125 46.453125 -10.125 
Q 44 -15.1875 38.640625 -18.109375 
Q 33.296875 -21.046875 25.484375 -21.046875 
Q 16.21875 -21.046875 10.5 -16.875 
Q 4.78125 -12.703125 4.984375 -4.296875 
z
M 12.25 26.859375 
Q 12.25 16.65625 16.296875 11.96875 
Q 20.359375 7.28125 26.46875 7.28125 
Q 32.515625 7.28125 36.609375 11.9375 
Q 40.71875 16.609375 40.71875 26.5625 
Q 40.71875 36.078125 36.5 40.90625 
Q 32.28125 45.75 26.3125 45.75 
Q 20.453125 45.75 16.34375 40.984375 
Q 12.25 36.234375 12.25 26.859375 
z
" id="ArialMT-103"/>
       <path d="M 40.4375 6.390625 
Q 35.546875 2.25 31.03125 0.53125 
Q 26.515625 -1.171875 21.34375 -1.171875 
Q 12.796875 -1.171875 8.203125 3 
Q 3.609375 7.171875 3.609375 13.671875 
Q 3.609375 17.484375 5.34375 20.625 
Q 7.078125 23.78125 9.890625 25.6875 
Q 12.703125 27.59375 16.21875 28.5625 
Q 18.796875 29.25 24.03125 29.890625 
Q 34.671875 31.15625 39.703125 32.90625 
Q 39.75 34.71875 39.75 35.203125 
Q 39.75 40.578125 37.25 42.78125 
Q 33.890625 45.75 27.25 45.75 
Q 21.046875 45.75 18.09375 43.578125 
Q 15.140625 41.40625 13.71875 35.890625 
L 5.125 37.0625 
Q 6.296875 42.578125 8.984375 45.96875 
Q 11.671875 49.359375 16.75 51.1875 
Q 21.828125 53.03125 28.515625 53.03125 
Q 35.15625 53.03125 39.296875 51.46875 
Q 43.453125 49.90625 45.40625 47.53125 
Q 47.359375 45.171875 48.140625 41.546875 
Q 48.578125 39.3125 48.578125 33.453125 
L 48.578125 21.734375 
Q 48.578125 9.46875 49.140625 6.21875 
Q 49.703125 2.984375 51.375 0 
L 42.1875 0 
Q 40.828125 2.734375 40.4375 6.390625 
z
M 39.703125 26.03125 
Q 34.90625 24.078125 25.34375 22.703125 
Q 19.921875 21.921875 17.671875 20.9375 
Q 15.4375 19.96875 14.203125 18.09375 
Q 12.984375 16.21875 12.984375 13.921875 
Q 12.984375 10.40625 15.640625 8.0625 
Q 18.3125 5.71875 23.4375 5.71875 
Q 28.515625 5.71875 32.46875 7.9375 
Q 36.421875 10.15625 38.28125 14.015625 
Q 39.703125 17 39.703125 22.796875 
z
" id="ArialMT-97"/>
       <path d="M 25.78125 7.859375 
L 27.046875 0.09375 
Q 23.34375 -0.6875 20.40625 -0.6875 
Q 15.625 -0.6875 12.984375 0.828125 
Q 10.359375 2.34375 9.28125 4.8125 
Q 8.203125 7.28125 8.203125 15.1875 
L 8.203125 45.015625 
L 1.765625 45.015625 
L 1.765625 51.859375 
L 8.203125 51.859375 
L 8.203125 64.703125 
L 16.9375 69.96875 
L 16.9375 51.859375 
L 25.78125 51.859375 
L 25.78125 45.015625 
L 16.9375 45.015625 
L 16.9375 14.703125 
Q 16.9375 10.9375 17.40625 9.859375 
Q 17.875 8.796875 18.921875 8.15625 
Q 19.96875 7.515625 21.921875 7.515625 
Q 23.390625 7.515625 25.78125 7.859375 
z
" id="ArialMT-116"/>
       <path d="M 3.328125 25.921875 
Q 3.328125 40.328125 11.328125 47.265625 
Q 18.015625 53.03125 27.640625 53.03125 
Q 38.328125 53.03125 45.109375 46.015625 
Q 51.90625 39.015625 51.90625 26.65625 
Q 51.90625 16.65625 48.90625 10.90625 
Q 45.90625 5.171875 40.15625 2 
Q 34.421875 -1.171875 27.640625 -1.171875 
Q 16.75 -1.171875 10.03125 5.8125 
Q 3.328125 12.796875 3.328125 25.921875 
z
M 12.359375 25.921875 
Q 12.359375 15.96875 16.703125 11.015625 
Q 21.046875 6.0625 27.640625 6.0625 
Q 34.1875 6.0625 38.53125 11.03125 
Q 42.875 16.015625 42.875 26.21875 
Q 42.875 35.84375 38.5 40.796875 
Q 34.125 45.75 27.640625 45.75 
Q 21.046875 45.75 16.703125 40.8125 
Q 12.359375 35.890625 12.359375 25.921875 
z
" id="ArialMT-111"/>
       <path d="M 6.59375 0 
L 6.59375 51.859375 
L 14.5 51.859375 
L 14.5 44.484375 
Q 20.21875 53.03125 31 53.03125 
Q 35.6875 53.03125 39.625 51.34375 
Q 43.5625 49.65625 45.515625 46.921875 
Q 47.46875 44.1875 48.25 40.4375 
Q 48.734375 37.984375 48.734375 31.890625 
L 48.734375 0 
L 39.9375 0 
L 39.9375 31.546875 
Q 39.9375 36.921875 38.90625 39.578125 
Q 37.890625 42.234375 35.28125 43.8125 
Q 32.671875 45.40625 29.15625 45.40625 
Q 23.53125 45.40625 19.453125 41.84375 
Q 15.375 38.28125 15.375 28.328125 
L 15.375 0 
z
" id="ArialMT-110"/>
       <path id="ArialMT-32"/>
       <path d="M 8.015625 0 
L 8.015625 71.578125 
L 17.484375 71.578125 
L 17.484375 42.1875 
L 54.6875 42.1875 
L 54.6875 71.578125 
L 64.15625 71.578125 
L 64.15625 0 
L 54.6875 0 
L 54.6875 33.734375 
L 17.484375 33.734375 
L 17.484375 0 
z
" id="ArialMT-72"/>
       <path d="M 6.59375 0 
L 6.59375 71.578125 
L 15.375 71.578125 
L 15.375 45.90625 
Q 21.53125 53.03125 30.90625 53.03125 
Q 36.671875 53.03125 40.921875 50.75 
Q 45.171875 48.484375 47 44.484375 
Q 48.828125 40.484375 48.828125 32.859375 
L 48.828125 0 
L 40.046875 0 
L 40.046875 32.859375 
Q 40.046875 39.453125 37.1875 42.453125 
Q 34.328125 45.453125 29.109375 45.453125 
Q 25.203125 45.453125 21.75 43.421875 
Q 18.3125 41.40625 16.84375 37.9375 
Q 15.375 34.46875 15.375 28.375 
L 15.375 0 
z
" id="ArialMT-104"/>
      </defs>
      <g style="fill:#262626;" transform="translate(95.987727 401.039844)rotate(-90)scale(0.165 -0.165)">
       <use xlink:href="#ArialMT-73"/>
       <use x="27.783203" xlink:href="#ArialMT-114"/>
       <use x="61.083984" xlink:href="#ArialMT-114"/>
       <use x="94.384766" xlink:href="#ArialMT-105"/>
       <use x="116.601562" xlink:href="#ArialMT-103"/>
       <use x="172.216797" xlink:href="#ArialMT-97"/>
       <use x="227.832031" xlink:href="#ArialMT-116"/>
       <use x="255.615234" xlink:href="#ArialMT-105"/>
       <use x="277.832031" xlink:href="#ArialMT-111"/>
       <use x="333.447266" xlink:href="#ArialMT-110"/>
       <use x="389.0625" xlink:href="#ArialMT-32"/>
       <use x="416.845703" xlink:href="#ArialMT-72"/>
       <use x="489.0625" xlink:href="#ArialMT-105"/>
       <use x="511.279297" xlink:href="#ArialMT-103"/>
       <use x="566.894531" xlink:href="#ArialMT-104"/>
      </g>
     </g>
    </g>
    <g id="xtick_2">
     <g id="text_2">
      <!-- Irrigation Intermediate -->
      <defs>
       <path d="M 42.09375 16.703125 
L 51.171875 15.578125 
Q 49.03125 7.625 43.21875 3.21875 
Q 37.40625 -1.171875 28.375 -1.171875 
Q 17 -1.171875 10.328125 5.828125 
Q 3.65625 12.84375 3.65625 25.484375 
Q 3.65625 38.578125 10.390625 45.796875 
Q 17.140625 53.03125 27.875 53.03125 
Q 38.28125 53.03125 44.875 45.953125 
Q 51.46875 38.875 51.46875 26.03125 
Q 51.46875 25.25 51.421875 23.6875 
L 12.75 23.6875 
Q 13.234375 15.140625 17.578125 10.59375 
Q 21.921875 6.0625 28.421875 6.0625 
Q 33.25 6.0625 36.671875 8.59375 
Q 40.09375 11.140625 42.09375 16.703125 
z
M 13.234375 30.90625 
L 42.1875 30.90625 
Q 41.609375 37.453125 38.875 40.71875 
Q 34.671875 45.796875 27.984375 45.796875 
Q 21.921875 45.796875 17.796875 41.75 
Q 13.671875 37.703125 13.234375 30.90625 
z
" id="ArialMT-101"/>
       <path d="M 6.59375 0 
L 6.59375 51.859375 
L 14.453125 51.859375 
L 14.453125 44.578125 
Q 16.890625 48.390625 20.9375 50.703125 
Q 25 53.03125 30.171875 53.03125 
Q 35.9375 53.03125 39.625 50.640625 
Q 43.3125 48.25 44.828125 43.953125 
Q 50.984375 53.03125 60.84375 53.03125 
Q 68.5625 53.03125 72.703125 48.75 
Q 76.859375 44.484375 76.859375 35.59375 
L 76.859375 0 
L 68.109375 0 
L 68.109375 32.671875 
Q 68.109375 37.9375 67.25 40.25 
Q 66.40625 42.578125 64.15625 43.984375 
Q 61.921875 45.40625 58.890625 45.40625 
Q 53.421875 45.40625 49.796875 41.765625 
Q 46.1875 38.140625 46.1875 30.125 
L 46.1875 0 
L 37.40625 0 
L 37.40625 33.6875 
Q 37.40625 39.546875 35.25 42.46875 
Q 33.109375 45.40625 28.21875 45.40625 
Q 24.515625 45.40625 21.359375 43.453125 
Q 18.21875 41.5 16.796875 37.734375 
Q 15.375 33.984375 15.375 26.90625 
L 15.375 0 
z
" id="ArialMT-109"/>
       <path d="M 40.234375 0 
L 40.234375 6.546875 
Q 35.296875 -1.171875 25.734375 -1.171875 
Q 19.53125 -1.171875 14.328125 2.25 
Q 9.125 5.671875 6.265625 11.796875 
Q 3.421875 17.921875 3.421875 25.875 
Q 3.421875 33.640625 6 39.96875 
Q 8.59375 46.296875 13.765625 49.65625 
Q 18.953125 53.03125 25.34375 53.03125 
Q 30.03125 53.03125 33.6875 51.046875 
Q 37.359375 49.078125 39.65625 45.90625 
L 39.65625 71.578125 
L 48.390625 71.578125 
L 48.390625 0 
z
M 12.453125 25.875 
Q 12.453125 15.921875 16.640625 10.984375 
Q 20.84375 6.0625 26.5625 6.0625 
Q 32.328125 6.0625 36.34375 10.765625 
Q 40.375 15.484375 40.375 25.140625 
Q 40.375 35.796875 36.265625 40.765625 
Q 32.171875 45.75 26.171875 45.75 
Q 20.3125 45.75 16.375 40.96875 
Q 12.453125 36.1875 12.453125 25.875 
z
" id="ArialMT-100"/>
      </defs>
      <g style="fill:#262626;" transform="translate(148.620681 458.815625)rotate(-90)scale(0.165 -0.165)">
       <use xlink:href="#ArialMT-73"/>
       <use x="27.783203" xlink:href="#ArialMT-114"/>
       <use x="61.083984" xlink:href="#ArialMT-114"/>
       <use x="94.384766" xlink:href="#ArialMT-105"/>
       <use x="116.601562" xlink:href="#ArialMT-103"/>
       <use x="172.216797" xlink:href="#ArialMT-97"/>
       <use x="227.832031" xlink:href="#ArialMT-116"/>
       <use x="255.615234" xlink:href="#ArialMT-105"/>
       <use x="277.832031" xlink:href="#ArialMT-111"/>
       <use x="333.447266" xlink:href="#ArialMT-110"/>
       <use x="389.0625" xlink:href="#ArialMT-32"/>
       <use x="416.845703" xlink:href="#ArialMT-73"/>
       <use x="444.628906" xlink:href="#ArialMT-110"/>
       <use x="500.244141" xlink:href="#ArialMT-116"/>
       <use x="528.027344" xlink:href="#ArialMT-101"/>
       <use x="583.642578" xlink:href="#ArialMT-114"/>
       <use x="616.943359" xlink:href="#ArialMT-109"/>
       <use x="700.244141" xlink:href="#ArialMT-101"/>
       <use x="755.859375" xlink:href="#ArialMT-100"/>
       <use x="811.474609" xlink:href="#ArialMT-105"/>
       <use x="833.691406" xlink:href="#ArialMT-97"/>
       <use x="889.306641" xlink:href="#ArialMT-116"/>
       <use x="917.089844" xlink:href="#ArialMT-101"/>
      </g>
     </g>
    </g>
    <g id="xtick_3">
     <g id="text_3">
      <!-- Rain-fed High -->
      <defs>
       <path d="M 7.859375 0 
L 7.859375 71.578125 
L 39.59375 71.578125 
Q 49.171875 71.578125 54.140625 69.640625 
Q 59.125 67.71875 62.109375 62.828125 
Q 65.09375 57.953125 65.09375 52.046875 
Q 65.09375 44.4375 60.15625 39.203125 
Q 55.21875 33.984375 44.921875 32.5625 
Q 48.6875 30.765625 50.640625 29 
Q 54.78125 25.203125 58.5 19.484375 
L 70.953125 0 
L 59.03125 0 
L 49.5625 14.890625 
Q 45.40625 21.34375 42.71875 24.75 
Q 40.046875 28.171875 37.921875 29.53125 
Q 35.796875 30.90625 33.59375 31.453125 
Q 31.984375 31.78125 28.328125 31.78125 
L 17.328125 31.78125 
L 17.328125 0 
z
M 17.328125 39.984375 
L 37.703125 39.984375 
Q 44.1875 39.984375 47.84375 41.328125 
Q 51.515625 42.671875 53.421875 45.625 
Q 55.328125 48.578125 55.328125 52.046875 
Q 55.328125 57.125 51.640625 60.390625 
Q 47.953125 63.671875 39.984375 63.671875 
L 17.328125 63.671875 
z
" id="ArialMT-82"/>
       <path d="M 3.171875 21.484375 
L 3.171875 30.328125 
L 30.171875 30.328125 
L 30.171875 21.484375 
z
" id="ArialMT-45"/>
       <path d="M 8.6875 0 
L 8.6875 45.015625 
L 0.921875 45.015625 
L 0.921875 51.859375 
L 8.6875 51.859375 
L 8.6875 57.375 
Q 8.6875 62.59375 9.625 65.140625 
Q 10.890625 68.5625 14.078125 70.671875 
Q 17.28125 72.796875 23.046875 72.796875 
Q 26.765625 72.796875 31.25 71.921875 
L 29.9375 64.265625 
Q 27.203125 64.75 24.75 64.75 
Q 20.75 64.75 19.09375 63.03125 
Q 17.4375 61.328125 17.4375 56.640625 
L 17.4375 51.859375 
L 27.546875 51.859375 
L 27.546875 45.015625 
L 17.4375 45.015625 
L 17.4375 0 
z
" id="ArialMT-102"/>
      </defs>
      <g style="fill:#262626;" transform="translate(201.354182 399.211953)rotate(-90)scale(0.165 -0.165)">
       <use xlink:href="#ArialMT-82"/>
       <use x="72.216797" xlink:href="#ArialMT-97"/>
       <use x="127.832031" xlink:href="#ArialMT-105"/>
       <use x="150.048828" xlink:href="#ArialMT-110"/>
       <use x="205.664062" xlink:href="#ArialMT-45"/>
       <use x="238.964844" xlink:href="#ArialMT-102"/>
       <use x="266.748047" xlink:href="#ArialMT-101"/>
       <use x="322.363281" xlink:href="#ArialMT-100"/>
       <use x="377.978516" xlink:href="#ArialMT-32"/>
       <use x="405.761719" xlink:href="#ArialMT-72"/>
       <use x="477.978516" xlink:href="#ArialMT-105"/>
       <use x="500.195312" xlink:href="#ArialMT-103"/>
       <use x="555.810547" xlink:href="#ArialMT-104"/>
      </g>
     </g>
    </g>
    <g id="xtick_4">
     <g id="text_4">
      <!-- Rain-fed Intermediate -->
      <g style="fill:#262626;" transform="translate(253.983269 456.987734)rotate(-90)scale(0.165 -0.165)">
       <use xlink:href="#ArialMT-82"/>
       <use x="72.216797" xlink:href="#ArialMT-97"/>
       <use x="127.832031" xlink:href="#ArialMT-105"/>
       <use x="150.048828" xlink:href="#ArialMT-110"/>
       <use x="205.664062" xlink:href="#ArialMT-45"/>
       <use x="238.964844" xlink:href="#ArialMT-102"/>
       <use x="266.748047" xlink:href="#ArialMT-101"/>
       <use x="322.363281" xlink:href="#ArialMT-100"/>
       <use x="377.978516" xlink:href="#ArialMT-32"/>
       <use x="405.761719" xlink:href="#ArialMT-73"/>
       <use x="433.544922" xlink:href="#ArialMT-110"/>
       <use x="489.160156" xlink:href="#ArialMT-116"/>
       <use x="516.943359" xlink:href="#ArialMT-101"/>
       <use x="572.558594" xlink:href="#ArialMT-114"/>
       <use x="605.859375" xlink:href="#ArialMT-109"/>
       <use x="689.160156" xlink:href="#ArialMT-101"/>
       <use x="744.775391" xlink:href="#ArialMT-100"/>
       <use x="800.390625" xlink:href="#ArialMT-105"/>
       <use x="822.607422" xlink:href="#ArialMT-97"/>
       <use x="878.222656" xlink:href="#ArialMT-116"/>
       <use x="906.005859" xlink:href="#ArialMT-101"/>
      </g>
     </g>
    </g>
    <g id="xtick_5">
     <g id="text_5">
      <!-- Rain-fed Low -->
      <defs>
       <path d="M 7.328125 0 
L 7.328125 71.578125 
L 16.796875 71.578125 
L 16.796875 8.453125 
L 52.046875 8.453125 
L 52.046875 0 
z
" id="ArialMT-76"/>
       <path d="M 16.15625 0 
L 0.296875 51.859375 
L 9.375 51.859375 
L 17.625 21.921875 
L 20.703125 10.796875 
Q 20.90625 11.625 23.390625 21.484375 
L 31.640625 51.859375 
L 40.671875 51.859375 
L 48.4375 21.78125 
L 51.03125 11.859375 
L 54 21.875 
L 62.890625 51.859375 
L 71.4375 51.859375 
L 55.21875 0 
L 46.09375 0 
L 37.84375 31.0625 
L 35.84375 39.890625 
L 25.34375 0 
z
" id="ArialMT-119"/>
      </defs>
      <g style="fill:#262626;" transform="translate(306.616223 395.545859)rotate(-90)scale(0.165 -0.165)">
       <use xlink:href="#ArialMT-82"/>
       <use x="72.216797" xlink:href="#ArialMT-97"/>
       <use x="127.832031" xlink:href="#ArialMT-105"/>
       <use x="150.048828" xlink:href="#ArialMT-110"/>
       <use x="205.664062" xlink:href="#ArialMT-45"/>
       <use x="238.964844" xlink:href="#ArialMT-102"/>
       <use x="266.748047" xlink:href="#ArialMT-101"/>
       <use x="322.363281" xlink:href="#ArialMT-100"/>
       <use x="377.978516" xlink:href="#ArialMT-32"/>
       <use x="405.761719" xlink:href="#ArialMT-76"/>
       <use x="461.376953" xlink:href="#ArialMT-111"/>
       <use x="516.992188" xlink:href="#ArialMT-119"/>
      </g>
     </g>
    </g>
   </g>
   <g id="matplotlib.axis_2">
    <g id="ytick_1">
     <g id="text_6">
      <!-- 0.0 -->
      <defs>
       <path d="M 4.15625 35.296875 
Q 4.15625 48 6.765625 55.734375 
Q 9.375 63.484375 14.515625 67.671875 
Q 19.671875 71.875 27.484375 71.875 
Q 33.25 71.875 37.59375 69.546875 
Q 41.9375 67.234375 44.765625 62.859375 
Q 47.609375 58.5 49.21875 52.21875 
Q 50.828125 45.953125 50.828125 35.296875 
Q 50.828125 22.703125 48.234375 14.96875 
Q 45.65625 7.234375 40.5 3 
Q 35.359375 -1.21875 27.484375 -1.21875 
Q 17.140625 -1.21875 11.234375 6.203125 
Q 4.15625 15.140625 4.15625 35.296875 
z
M 13.1875 35.296875 
Q 13.1875 17.671875 17.3125 11.828125 
Q 21.4375 6 27.484375 6 
Q 33.546875 6 37.671875 11.859375 
Q 41.796875 17.71875 41.796875 35.296875 
Q 41.796875 52.984375 37.671875 58.78125 
Q 33.546875 64.59375 27.390625 64.59375 
Q 21.34375 64.59375 17.71875 59.46875 
Q 13.1875 52.9375 13.1875 35.296875 
z
" id="ArialMT-48"/>
       <path d="M 9.078125 0 
L 9.078125 10.015625 
L 19.09375 10.015625 
L 19.09375 0 
z
" id="ArialMT-46"/>
      </defs>
      <g style="fill:#262626;" transform="translate(30.067422 280.163491)scale(0.165 -0.165)">
       <use xlink:href="#ArialMT-48"/>
       <use x="55.615234" xlink:href="#ArialMT-46"/>
       <use x="83.398438" xlink:href="#ArialMT-48"/>
      </g>
     </g>
    </g>
    <g id="ytick_2">
     <g id="text_7">
      <!-- 2.5 -->
      <defs>
       <path d="M 50.34375 8.453125 
L 50.34375 0 
L 3.03125 0 
Q 2.9375 3.171875 4.046875 6.109375 
Q 5.859375 10.9375 9.828125 15.625 
Q 13.8125 20.3125 21.34375 26.46875 
Q 33.015625 36.03125 37.109375 41.625 
Q 41.21875 47.21875 41.21875 52.203125 
Q 41.21875 57.421875 37.46875 61 
Q 33.734375 64.59375 27.734375 64.59375 
Q 21.390625 64.59375 17.578125 60.78125 
Q 13.765625 56.984375 13.71875 50.25 
L 4.6875 51.171875 
Q 5.609375 61.28125 11.65625 66.578125 
Q 17.71875 71.875 27.9375 71.875 
Q 38.234375 71.875 44.234375 66.15625 
Q 50.25 60.453125 50.25 52 
Q 50.25 47.703125 48.484375 43.546875 
Q 46.734375 39.40625 42.65625 34.8125 
Q 38.578125 30.21875 29.109375 22.21875 
Q 21.1875 15.578125 18.9375 13.203125 
Q 16.703125 10.84375 15.234375 8.453125 
z
" id="ArialMT-50"/>
       <path d="M 4.15625 18.75 
L 13.375 19.53125 
Q 14.40625 12.796875 18.140625 9.390625 
Q 21.875 6 27.15625 6 
Q 33.5 6 37.890625 10.78125 
Q 42.28125 15.578125 42.28125 23.484375 
Q 42.28125 31 38.0625 35.34375 
Q 33.84375 39.703125 27 39.703125 
Q 22.75 39.703125 19.328125 37.765625 
Q 15.921875 35.84375 13.96875 32.765625 
L 5.71875 33.84375 
L 12.640625 70.609375 
L 48.25 70.609375 
L 48.25 62.203125 
L 19.671875 62.203125 
L 15.828125 42.96875 
Q 22.265625 47.46875 29.34375 47.46875 
Q 38.71875 47.46875 45.15625 40.96875 
Q 51.609375 34.46875 51.609375 24.265625 
Q 51.609375 14.546875 45.953125 7.46875 
Q 39.0625 -1.21875 27.15625 -1.21875 
Q 17.390625 -1.21875 11.203125 4.25 
Q 5.03125 9.71875 4.15625 18.75 
z
" id="ArialMT-53"/>
      </defs>
      <g style="fill:#262626;" transform="translate(30.067422 235.215124)scale(0.165 -0.165)">
       <use xlink:href="#ArialMT-50"/>
       <use x="55.615234" xlink:href="#ArialMT-46"/>
       <use x="83.398438" xlink:href="#ArialMT-53"/>
      </g>
     </g>
    </g>
    <g id="ytick_3">
     <g id="text_8">
      <!-- 5.0 -->
      <g style="fill:#262626;" transform="translate(30.067422 190.266756)scale(0.165 -0.165)">
       <use xlink:href="#ArialMT-53"/>
       <use x="55.615234" xlink:href="#ArialMT-46"/>
       <use x="83.398438" xlink:href="#ArialMT-48"/>
      </g>
     </g>
    </g>
    <g id="ytick_4">
     <g id="text_9">
      <!-- 7.5 -->
      <defs>
       <path d="M 4.734375 62.203125 
L 4.734375 70.65625 
L 51.078125 70.65625 
L 51.078125 63.8125 
Q 44.234375 56.546875 37.515625 44.484375 
Q 30.8125 32.421875 27.15625 19.671875 
Q 24.515625 10.6875 23.78125 0 
L 14.75 0 
Q 14.890625 8.453125 18.0625 20.40625 
Q 21.234375 32.375 27.171875 43.484375 
Q 33.109375 54.59375 39.796875 62.203125 
z
" id="ArialMT-55"/>
      </defs>
      <g style="fill:#262626;" transform="translate(30.067422 145.318389)scale(0.165 -0.165)">
       <use xlink:href="#ArialMT-55"/>
       <use x="55.615234" xlink:href="#ArialMT-46"/>
       <use x="83.398438" xlink:href="#ArialMT-53"/>
      </g>
     </g>
    </g>
    <g id="ytick_5">
     <g id="text_10">
      <!-- 10.0 -->
      <defs>
       <path d="M 37.25 0 
L 28.46875 0 
L 28.46875 56 
Q 25.296875 52.984375 20.140625 49.953125 
Q 14.984375 46.921875 10.890625 45.40625 
L 10.890625 53.90625 
Q 18.265625 57.375 23.78125 62.296875 
Q 29.296875 67.234375 31.59375 71.875 
L 37.25 71.875 
z
" id="ArialMT-49"/>
      </defs>
      <g style="fill:#262626;" transform="translate(20.891875 100.370022)scale(0.165 -0.165)">
       <use xlink:href="#ArialMT-49"/>
       <use x="55.615234" xlink:href="#ArialMT-48"/>
       <use x="111.230469" xlink:href="#ArialMT-46"/>
       <use x="139.013672" xlink:href="#ArialMT-48"/>
      </g>
     </g>
    </g>
    <g id="ytick_6">
     <g id="text_11">
      <!-- 12.5 -->
      <g style="fill:#262626;" transform="translate(20.891875 55.421655)scale(0.165 -0.165)">
       <use xlink:href="#ArialMT-49"/>
       <use x="55.615234" xlink:href="#ArialMT-50"/>
       <use x="111.230469" xlink:href="#ArialMT-46"/>
       <use x="139.013672" xlink:href="#ArialMT-53"/>
      </g>
     </g>
    </g>
    <g id="text_12">
     <!-- Yield (t/ha) -->
     <defs>
      <path d="M 27.875 0 
L 27.875 30.328125 
L 0.296875 71.578125 
L 11.8125 71.578125 
L 25.921875 50 
Q 29.828125 43.953125 33.203125 37.890625 
Q 36.421875 43.5 41.015625 50.53125 
L 54.890625 71.578125 
L 65.921875 71.578125 
L 37.359375 30.328125 
L 37.359375 0 
z
" id="ArialMT-89"/>
      <path d="M 6.390625 0 
L 6.390625 71.578125 
L 15.1875 71.578125 
L 15.1875 0 
z
" id="ArialMT-108"/>
      <path d="M 23.390625 -21.046875 
Q 16.109375 -11.859375 11.078125 0.4375 
Q 6.0625 12.75 6.0625 25.921875 
Q 6.0625 37.546875 9.8125 48.1875 
Q 14.203125 60.546875 23.390625 72.796875 
L 29.6875 72.796875 
Q 23.78125 62.640625 21.875 58.296875 
Q 18.890625 51.5625 17.1875 44.234375 
Q 15.09375 35.109375 15.09375 25.875 
Q 15.09375 2.390625 29.6875 -21.046875 
z
" id="ArialMT-40"/>
      <path d="M 0 -1.21875 
L 20.75 72.796875 
L 27.78125 72.796875 
L 7.078125 -1.21875 
z
" id="ArialMT-47"/>
      <path d="M 12.359375 -21.046875 
L 6.0625 -21.046875 
Q 20.65625 2.390625 20.65625 25.875 
Q 20.65625 35.0625 18.5625 44.09375 
Q 16.890625 51.421875 13.921875 58.15625 
Q 12.015625 62.546875 6.0625 72.796875 
L 12.359375 72.796875 
Q 21.53125 60.546875 25.921875 48.1875 
Q 29.6875 37.546875 29.6875 25.921875 
Q 29.6875 12.75 24.625 0.4375 
Q 19.578125 -11.859375 12.359375 -21.046875 
z
" id="ArialMT-41"/>
     </defs>
     <g style="fill:#262626;" transform="translate(13.103437 202.028438)rotate(-90)scale(0.18 -0.18)">
      <use xlink:href="#ArialMT-89"/>
      <use x="66.652344" xlink:href="#ArialMT-105"/>
      <use x="88.869141" xlink:href="#ArialMT-101"/>
      <use x="144.484375" xlink:href="#ArialMT-108"/>
      <use x="166.701172" xlink:href="#ArialMT-100"/>
      <use x="222.316406" xlink:href="#ArialMT-32"/>
      <use x="250.099609" xlink:href="#ArialMT-40"/>
      <use x="283.400391" xlink:href="#ArialMT-116"/>
      <use x="311.183594" xlink:href="#ArialMT-47"/>
      <use x="338.966797" xlink:href="#ArialMT-104"/>
      <use x="394.582031" xlink:href="#ArialMT-97"/>
      <use x="450.197266" xlink:href="#ArialMT-41"/>
     </g>
    </g>
   </g>
   <g id="PolyCollection_1">
    <defs>
     <path d="M 81.387321 -184.55733 
L 81.197295 -184.55733 
L 81.207325 -186.895553 
L 81.231498 -189.233776 
L 81.257497 -191.571999 
L 81.276366 -193.910222 
L 81.286467 -196.248445 
L 81.290596 -198.586668 
L 81.291907 -200.924892 
L 81.292233 -203.263115 
L 81.292297 -205.601338 
L 81.292307 -207.939561 
L 81.292308 -210.277784 
L 81.292308 -212.616007 
L 81.292308 -214.95423 
L 81.292308 -217.292454 
L 81.292308 -219.630677 
L 81.292308 -221.9689 
L 81.292308 -224.307123 
L 81.292308 -226.645346 
L 81.292308 -228.983569 
L 81.292308 -231.321792 
L 81.292308 -233.660015 
L 81.292308 -235.998239 
L 81.292308 -238.336462 
L 81.292308 -240.674685 
L 81.292308 -243.012908 
L 81.292308 -245.351131 
L 81.292308 -247.689354 
L 81.292308 -250.027577 
L 81.292308 -252.365801 
L 81.292308 -254.704024 
L 81.292307 -257.042247 
L 81.292303 -259.38047 
L 81.292282 -261.718693 
L 81.292193 -264.056916 
L 81.291907 -266.395139 
L 81.291187 -268.733363 
L 81.289806 -271.071586 
L 81.287839 -273.409809 
L 81.285922 -275.748032 
L 81.285007 -278.086255 
L 81.285631 -280.424478 
L 81.287423 -282.762701 
L 81.289448 -285.100925 
L 81.290969 -287.439148 
L 81.291806 -289.777371 
L 81.292157 -292.115594 
L 81.292269 -294.453817 
L 81.292285 -296.79204 
L 81.292233 -299.130263 
L 81.292031 -301.468487 
L 81.291478 -303.80671 
L 81.290306 -306.144933 
L 81.288376 -308.483156 
L 81.285639 -310.821379 
L 81.280649 -313.159602 
L 81.265418 -315.497825 
L 81.215088 -317.836049 
L 81.076356 -320.174272 
L 80.770391 -322.512495 
L 80.230269 -324.850718 
L 79.465407 -327.188941 
L 78.599778 -329.527164 
L 77.835945 -331.865387 
L 77.370011 -334.203611 
L 77.322806 -336.541834 
L 77.705542 -338.880057 
L 78.406326 -341.21828 
L 79.21982 -343.556503 
L 79.93805 -345.894726 
L 80.444976 -348.232949 
L 80.738276 -350.571173 
L 80.879378 -352.909396 
L 80.933958 -355.247619 
L 80.944628 -357.585842 
L 80.929844 -359.924065 
L 80.887016 -362.262288 
L 80.790598 -364.600511 
L 80.590785 -366.938735 
L 80.222246 -369.276958 
L 79.6237 -371.615181 
L 78.755694 -373.953404 
L 77.605397 -376.291627 
L 76.192316 -378.62985 
L 74.600742 -380.968073 
L 73.020598 -383.306296 
L 71.724804 -385.64452 
L 70.950668 -387.982743 
L 70.765717 -390.320966 
L 71.038475 -392.659189 
L 71.545714 -394.997412 
L 72.127754 -397.335635 
L 72.763569 -399.673858 
L 73.515769 -402.012082 
L 74.423147 -404.350305 
L 75.454692 -406.688528 
L 76.545808 -409.026751 
L 77.641857 -411.364974 
L 78.691578 -413.703197 
L 79.621201 -416.04142 
L 82.963416 -416.04142 
L 82.963416 -416.04142 
L 83.893038 -413.703197 
L 84.942759 -411.364974 
L 86.038809 -409.026751 
L 87.129924 -406.688528 
L 88.161469 -404.350305 
L 89.068848 -402.012082 
L 89.821047 -399.673858 
L 90.456862 -397.335635 
L 91.038902 -394.997412 
L 91.546141 -392.659189 
L 91.818899 -390.320966 
L 91.633948 -387.982743 
L 90.859812 -385.64452 
L 89.564018 -383.306296 
L 87.983874 -380.968073 
L 86.3923 -378.62985 
L 84.97922 -376.291627 
L 83.828922 -373.953404 
L 82.960916 -371.615181 
L 82.36237 -369.276958 
L 81.993831 -366.938735 
L 81.794018 -364.600511 
L 81.6976 -362.262288 
L 81.654772 -359.924065 
L 81.639988 -357.585842 
L 81.650658 -355.247619 
L 81.705238 -352.909396 
L 81.84634 -350.571173 
L 82.13964 -348.232949 
L 82.646566 -345.894726 
L 83.364796 -343.556503 
L 84.17829 -341.21828 
L 84.879074 -338.880057 
L 85.26181 -336.541834 
L 85.214605 -334.203611 
L 84.748672 -331.865387 
L 83.984838 -329.527164 
L 83.119209 -327.188941 
L 82.354347 -324.850718 
L 81.814226 -322.512495 
L 81.50826 -320.174272 
L 81.369529 -317.836049 
L 81.319198 -315.497825 
L 81.303967 -313.159602 
L 81.298977 -310.821379 
L 81.296241 -308.483156 
L 81.29431 -306.144933 
L 81.293139 -303.80671 
L 81.292585 -301.468487 
L 81.292383 -299.130263 
L 81.292331 -296.79204 
L 81.292347 -294.453817 
L 81.292459 -292.115594 
L 81.29281 -289.777371 
L 81.293647 -287.439148 
L 81.295168 -285.100925 
L 81.297193 -282.762701 
L 81.298985 -280.424478 
L 81.299609 -278.086255 
L 81.298694 -275.748032 
L 81.296777 -273.409809 
L 81.29481 -271.071586 
L 81.293429 -268.733363 
L 81.29271 -266.395139 
L 81.292423 -264.056916 
L 81.292334 -261.718693 
L 81.292313 -259.38047 
L 81.292309 -257.042247 
L 81.292308 -254.704024 
L 81.292308 -252.365801 
L 81.292308 -250.027577 
L 81.292308 -247.689354 
L 81.292308 -245.351131 
L 81.292308 -243.012908 
L 81.292308 -240.674685 
L 81.292308 -238.336462 
L 81.292308 -235.998239 
L 81.292308 -233.660015 
L 81.292308 -231.321792 
L 81.292308 -228.983569 
L 81.292308 -226.645346 
L 81.292308 -224.307123 
L 81.292308 -221.9689 
L 81.292308 -219.630677 
L 81.292308 -217.292454 
L 81.292308 -214.95423 
L 81.292308 -212.616007 
L 81.292308 -210.277784 
L 81.292309 -207.939561 
L 81.292319 -205.601338 
L 81.292383 -203.263115 
L 81.29271 -200.924892 
L 81.29402 -198.586668 
L 81.298149 -196.248445 
L 81.30825 -193.910222 
L 81.327119 -191.571999 
L 81.353118 -189.233776 
L 81.377291 -186.895553 
L 81.387321 -184.55733 
z
" id="m3f6b2949e6" style="stroke:#444444;stroke-width:1.5;"/>
    </defs>
    <g clip-path="url(#pa93a14d4a9)">
     <use style="fill:#e68193;stroke:#444444;stroke-width:1.5;" x="0" xlink:href="#m3f6b2949e6" y="458.815625"/>
    </g>
   </g>
   <g id="PolyCollection_2">
    <defs>
     <path d="M 102.677789 -184.55733 
L 102.01319 -184.55733 
L 102.014037 -186.759978 
L 102.016564 -188.962627 
L 102.020734 -191.165275 
L 102.026484 -193.367924 
L 102.033726 -195.570573 
L 102.042355 -197.773221 
L 102.052243 -199.97587 
L 102.063251 -202.178519 
L 102.075226 -204.381167 
L 102.088006 -206.583816 
L 102.101423 -208.786465 
L 102.115311 -210.989113 
L 102.129502 -213.191762 
L 102.143834 -215.39441 
L 102.158152 -217.597059 
L 102.172312 -219.799708 
L 102.18618 -222.002356 
L 102.199634 -224.205005 
L 102.21257 -226.407654 
L 102.224893 -228.610302 
L 102.236525 -230.812951 
L 102.247402 -233.0156 
L 102.257472 -235.218248 
L 102.266692 -237.420897 
L 102.275032 -239.623545 
L 102.282468 -241.826194 
L 102.288982 -244.028843 
L 102.294562 -246.231491 
L 102.299194 -248.43414 
L 102.302865 -250.636789 
L 102.30556 -252.839437 
L 102.307259 -255.042086 
L 102.307933 -257.244735 
L 102.307546 -259.447383 
L 102.306053 -261.650032 
L 102.303394 -263.85268 
L 102.299499 -266.055329 
L 102.294282 -268.257978 
L 102.287642 -270.460626 
L 102.279462 -272.663275 
L 102.269611 -274.865924 
L 102.257939 -277.068572 
L 102.244279 -279.271221 
L 102.228451 -281.47387 
L 102.210255 -283.676518 
L 102.189478 -285.879167 
L 102.165892 -288.081815 
L 102.139254 -290.284464 
L 102.109312 -292.487113 
L 102.0758 -294.689761 
L 102.038447 -296.89241 
L 101.996976 -299.095059 
L 101.951104 -301.297707 
L 101.900553 -303.500356 
L 101.845046 -305.703005 
L 101.78432 -307.905653 
L 101.71812 -310.108302 
L 101.646217 -312.31095 
L 101.568405 -314.513599 
L 101.484512 -316.716248 
L 101.394408 -318.918896 
L 101.298011 -321.121545 
L 101.195295 -323.324194 
L 101.086303 -325.526842 
L 100.971148 -327.729491 
L 100.850027 -329.93214 
L 100.723228 -332.134788 
L 100.591134 -334.337437 
L 100.45423 -336.540085 
L 100.31311 -338.742734 
L 100.168478 -340.945383 
L 100.021144 -343.148031 
L 99.872031 -345.35068 
L 99.722162 -347.553329 
L 99.57266 -349.755977 
L 99.42473 -351.958626 
L 99.279654 -354.161275 
L 99.138771 -356.363923 
L 99.003457 -358.566572 
L 98.875108 -360.76922 
L 98.755114 -362.971869 
L 98.644837 -365.174518 
L 98.545584 -367.377166 
L 98.458582 -369.579815 
L 98.384955 -371.782464 
L 98.325694 -373.985112 
L 98.281643 -376.187761 
L 98.253473 -378.39041 
L 98.241667 -380.593058 
L 98.246511 -382.795707 
L 98.268078 -384.998355 
L 98.306232 -387.201004 
L 98.360623 -389.403653 
L 98.430695 -391.606301 
L 98.515692 -393.80895 
L 98.61468 -396.011599 
L 98.726555 -398.214247 
L 98.850073 -400.416896 
L 98.98387 -402.619545 
L 105.707109 -402.619545 
L 105.707109 -402.619545 
L 105.840906 -400.416896 
L 105.964424 -398.214247 
L 106.0763 -396.011599 
L 106.175287 -393.80895 
L 106.260285 -391.606301 
L 106.330356 -389.403653 
L 106.384747 -387.201004 
L 106.422901 -384.998355 
L 106.444469 -382.795707 
L 106.449312 -380.593058 
L 106.437506 -378.39041 
L 106.409336 -376.187761 
L 106.365285 -373.985112 
L 106.306025 -371.782464 
L 106.232397 -369.579815 
L 106.145396 -367.377166 
L 106.046143 -365.174518 
L 105.935866 -362.971869 
L 105.815872 -360.76922 
L 105.687523 -358.566572 
L 105.552208 -356.363923 
L 105.411325 -354.161275 
L 105.266249 -351.958626 
L 105.11832 -349.755977 
L 104.968817 -347.553329 
L 104.818948 -345.35068 
L 104.669835 -343.148031 
L 104.522502 -340.945383 
L 104.377869 -338.742734 
L 104.236749 -336.540085 
L 104.099846 -334.337437 
L 103.967751 -332.134788 
L 103.840952 -329.93214 
L 103.719831 -327.729491 
L 103.604676 -325.526842 
L 103.495684 -323.324194 
L 103.392969 -321.121545 
L 103.296572 -318.918896 
L 103.206467 -316.716248 
L 103.122575 -314.513599 
L 103.044762 -312.31095 
L 102.972859 -310.108302 
L 102.90666 -307.905653 
L 102.845933 -305.703005 
L 102.790427 -303.500356 
L 102.739875 -301.297707 
L 102.694004 -299.095059 
L 102.652532 -296.89241 
L 102.615179 -294.689761 
L 102.581668 -292.487113 
L 102.551725 -290.284464 
L 102.525088 -288.081815 
L 102.501501 -285.879167 
L 102.480724 -283.676518 
L 102.462528 -281.47387 
L 102.4467 -279.271221 
L 102.433041 -277.068572 
L 102.421368 -274.865924 
L 102.411517 -272.663275 
L 102.403338 -270.460626 
L 102.396698 -268.257978 
L 102.39148 -266.055329 
L 102.387585 -263.85268 
L 102.384927 -261.650032 
L 102.383433 -259.447383 
L 102.383047 -257.244735 
L 102.383721 -255.042086 
L 102.385419 -252.839437 
L 102.388114 -250.636789 
L 102.391786 -248.43414 
L 102.396418 -246.231491 
L 102.401997 -244.028843 
L 102.408512 -241.826194 
L 102.415948 -239.623545 
L 102.424288 -237.420897 
L 102.433508 -235.218248 
L 102.443577 -233.0156 
L 102.454454 -230.812951 
L 102.466087 -228.610302 
L 102.47841 -226.407654 
L 102.491345 -224.205005 
L 102.5048 -222.002356 
L 102.518667 -219.799708 
L 102.532827 -217.597059 
L 102.547145 -215.39441 
L 102.561477 -213.191762 
L 102.575668 -210.989113 
L 102.589556 -208.786465 
L 102.602974 -206.583816 
L 102.615753 -204.381167 
L 102.627728 -202.178519 
L 102.638736 -199.97587 
L 102.648625 -197.773221 
L 102.657253 -195.570573 
L 102.664496 -193.367924 
L 102.670245 -191.165275 
L 102.674415 -188.962627 
L 102.676943 -186.759978 
L 102.677789 -184.55733 
z
" id="m2c8db2433f" style="stroke:#444444;stroke-width:1.5;"/>
    </defs>
    <g clip-path="url(#pa93a14d4a9)">
     <use style="fill:#459e97;stroke:#444444;stroke-width:1.5;" x="0" xlink:href="#m2c8db2433f" y="458.815625"/>
    </g>
   </g>
   <g id="PolyCollection_3">
    <defs>
     <path d="M 134.020279 -184.55733 
L 133.830246 -184.55733 
L 133.840276 -186.095563 
L 133.864449 -187.633796 
L 133.890449 -189.172029 
L 133.909319 -190.710262 
L 133.919421 -192.248495 
L 133.92355 -193.786728 
L 133.924861 -195.324961 
L 133.925187 -196.863194 
L 133.925251 -198.401427 
L 133.925261 -199.93966 
L 133.925262 -201.477893 
L 133.925262 -203.016126 
L 133.925262 -204.554359 
L 133.925262 -206.092592 
L 133.925262 -207.630825 
L 133.925262 -209.169058 
L 133.925262 -210.707292 
L 133.925262 -212.245525 
L 133.925262 -213.783758 
L 133.925262 -215.321991 
L 133.925262 -216.860224 
L 133.925262 -218.398457 
L 133.925262 -219.93669 
L 133.925262 -221.474923 
L 133.925262 -223.013156 
L 133.925262 -224.551389 
L 133.925262 -226.089622 
L 133.925262 -227.627855 
L 133.925262 -229.166088 
L 133.925262 -230.704321 
L 133.925261 -232.242554 
L 133.925257 -233.780787 
L 133.925236 -235.31902 
L 133.925147 -236.857254 
L 133.924862 -238.395487 
L 133.924144 -239.93372 
L 133.922765 -241.471953 
L 133.920799 -243.010186 
L 133.91888 -244.548419 
L 133.917962 -246.086652 
L 133.918581 -247.624885 
L 133.920371 -249.163118 
L 133.922397 -250.701351 
L 133.92392 -252.239584 
L 133.924759 -253.777817 
L 133.925111 -255.31605 
L 133.925223 -256.854283 
L 133.92524 -258.392516 
L 133.925188 -259.930749 
L 133.924988 -261.468982 
L 133.924439 -263.007216 
L 133.923274 -264.545449 
L 133.921348 -266.083682 
L 133.918611 -267.621915 
L 133.913614 -269.160148 
L 133.898381 -270.698381 
L 133.848078 -272.236614 
L 133.709421 -273.774847 
L 133.403573 -275.31308 
L 132.86356 -276.851313 
L 132.098714 -278.389546 
L 131.232969 -279.927779 
L 130.468939 -281.466012 
L 130.002831 -283.004245 
L 129.95552 -284.542478 
L 130.338195 -286.080711 
L 131.038935 -287.618944 
L 131.852407 -289.157178 
L 132.570653 -290.695411 
L 133.077637 -292.233644 
L 133.371017 -293.771877 
L 133.512191 -295.31011 
L 133.566814 -296.848343 
L 133.5775 -298.386576 
L 133.562721 -299.924809 
L 133.51992 -301.463042 
L 133.423573 -303.001275 
L 133.223881 -304.539508 
L 132.85549 -306.077741 
L 132.257091 -307.615974 
L 131.38922 -309.154207 
L 130.23907 -310.69244 
L 128.826154 -312.230673 
L 127.234713 -313.768906 
L 125.654576 -315.307139 
L 124.358605 -316.845373 
L 123.584114 -318.383606 
L 123.398671 -319.921839 
L 123.670885 -321.460072 
L 124.177656 -322.998305 
L 124.75941 -324.536538 
L 125.395124 -326.074771 
L 126.147349 -327.613004 
L 127.054832 -329.151237 
L 128.086523 -330.68947 
L 129.177784 -332.227703 
L 130.273954 -333.765936 
L 131.32379 -335.304169 
L 132.253558 -336.842402 
L 135.596966 -336.842402 
L 135.596966 -336.842402 
L 136.526734 -335.304169 
L 137.57657 -333.765936 
L 138.67274 -332.227703 
L 139.764001 -330.68947 
L 140.795692 -329.151237 
L 141.703175 -327.613004 
L 142.4554 -326.074771 
L 143.091114 -324.536538 
L 143.672868 -322.998305 
L 144.17964 -321.460072 
L 144.451853 -319.921839 
L 144.26641 -318.383606 
L 143.491919 -316.845373 
L 142.195949 -315.307139 
L 140.615811 -313.768906 
L 139.02437 -312.230673 
L 137.611454 -310.69244 
L 136.461304 -309.154207 
L 135.593434 -307.615974 
L 134.995034 -306.077741 
L 134.626643 -304.539508 
L 134.426951 -303.001275 
L 134.330605 -301.463042 
L 134.287803 -299.924809 
L 134.273025 -298.386576 
L 134.28371 -296.848343 
L 134.338333 -295.31011 
L 134.479507 -293.771877 
L 134.772887 -292.233644 
L 135.279871 -290.695411 
L 135.998117 -289.157178 
L 136.811589 -287.618944 
L 137.512329 -286.080711 
L 137.895004 -284.542478 
L 137.847693 -283.004245 
L 137.381585 -281.466012 
L 136.617555 -279.927779 
L 135.75181 -278.389546 
L 134.986964 -276.851313 
L 134.446951 -275.31308 
L 134.141103 -273.774847 
L 134.002446 -272.236614 
L 133.952143 -270.698381 
L 133.936911 -269.160148 
L 133.931913 -267.621915 
L 133.929176 -266.083682 
L 133.92725 -264.545449 
L 133.926085 -263.007216 
L 133.925536 -261.468982 
L 133.925336 -259.930749 
L 133.925285 -258.392516 
L 133.925301 -256.854283 
L 133.925413 -255.31605 
L 133.925765 -253.777817 
L 133.926605 -252.239584 
L 133.928127 -250.701351 
L 133.930153 -249.163118 
L 133.931943 -247.624885 
L 133.932562 -246.086652 
L 133.931644 -244.548419 
L 133.929725 -243.010186 
L 133.927759 -241.471953 
L 133.92638 -239.93372 
L 133.925662 -238.395487 
L 133.925377 -236.857254 
L 133.925288 -235.31902 
L 133.925267 -233.780787 
L 133.925263 -232.242554 
L 133.925262 -230.704321 
L 133.925262 -229.166088 
L 133.925262 -227.627855 
L 133.925262 -226.089622 
L 133.925262 -224.551389 
L 133.925262 -223.013156 
L 133.925262 -221.474923 
L 133.925262 -219.93669 
L 133.925262 -218.398457 
L 133.925262 -216.860224 
L 133.925262 -215.321991 
L 133.925262 -213.783758 
L 133.925262 -212.245525 
L 133.925262 -210.707292 
L 133.925262 -209.169058 
L 133.925262 -207.630825 
L 133.925262 -206.092592 
L 133.925262 -204.554359 
L 133.925262 -203.016126 
L 133.925262 -201.477893 
L 133.925263 -199.93966 
L 133.925273 -198.401427 
L 133.925337 -196.863194 
L 133.925664 -195.324961 
L 133.926974 -193.786728 
L 133.931104 -192.248495 
L 133.941205 -190.710262 
L 133.960075 -189.172029 
L 133.986075 -187.633796 
L 134.010248 -186.095563 
L 134.020279 -184.55733 
z
" id="m5ffa6df3c2" style="stroke:#444444;stroke-width:1.5;"/>
    </defs>
    <g clip-path="url(#pa93a14d4a9)">
     <use style="fill:#e68193;stroke:#444444;stroke-width:1.5;" x="0" xlink:href="#m5ffa6df3c2" y="458.815625"/>
    </g>
   </g>
   <g id="PolyCollection_4">
    <defs>
     <path d="M 155.310754 -184.55733 
L 154.646133 -184.55733 
L 154.64698 -186.006385 
L 154.649507 -187.455441 
L 154.653677 -188.904497 
L 154.659427 -190.353553 
L 154.66667 -191.802608 
L 154.675298 -193.251664 
L 154.685187 -194.70072 
L 154.696196 -196.149775 
L 154.708171 -197.598831 
L 154.720951 -199.047887 
L 154.734369 -200.496943 
L 154.748257 -201.945998 
L 154.762449 -203.395054 
L 154.776781 -204.84411 
L 154.7911 -206.293166 
L 154.80526 -207.742221 
L 154.819128 -209.191277 
L 154.832583 -210.640333 
L 154.845519 -212.089389 
L 154.857843 -213.538444 
L 154.869476 -214.9875 
L 154.880353 -216.436556 
L 154.890423 -217.885612 
L 154.899643 -219.334667 
L 154.907983 -220.783723 
L 154.915419 -222.232779 
L 154.921934 -223.681835 
L 154.927514 -225.13089 
L 154.932146 -226.579946 
L 154.935818 -228.029002 
L 154.938513 -229.478058 
L 154.940211 -230.927113 
L 154.940885 -232.376169 
L 154.940499 -233.825225 
L 154.939005 -235.274281 
L 154.936346 -236.723336 
L 154.932451 -238.172392 
L 154.927233 -239.621448 
L 154.920593 -241.070504 
L 154.912413 -242.519559 
L 154.902562 -243.968615 
L 154.890889 -245.417671 
L 154.877229 -246.866727 
L 154.8614 -248.315782 
L 154.843203 -249.764838 
L 154.822425 -251.213894 
L 154.798838 -252.662949 
L 154.772199 -254.112005 
L 154.742255 -255.561061 
L 154.708743 -257.010117 
L 154.671388 -258.459172 
L 154.629915 -259.908228 
L 154.584041 -261.357284 
L 154.533488 -262.80634 
L 154.47798 -264.255395 
L 154.417251 -265.704451 
L 154.351049 -267.153507 
L 154.279143 -268.602563 
L 154.201328 -270.051618 
L 154.117432 -271.500674 
L 154.027325 -272.94973 
L 153.930925 -274.398786 
L 153.828206 -275.847841 
L 153.71921 -277.296897 
L 153.604051 -278.745953 
L 153.482926 -280.195009 
L 153.356123 -281.644064 
L 153.224024 -283.09312 
L 153.087116 -284.542176 
L 152.945991 -285.991232 
L 152.801354 -287.440287 
L 152.654016 -288.889343 
L 152.504898 -290.338399 
L 152.355025 -291.787455 
L 152.205517 -293.23651 
L 152.057583 -294.685566 
L 151.912503 -296.134622 
L 151.771615 -297.583678 
L 151.636297 -299.032733 
L 151.507944 -300.481789 
L 151.387947 -301.930845 
L 151.277666 -303.379901 
L 151.178411 -304.828956 
L 151.091407 -306.278012 
L 151.017778 -307.727068 
L 150.958516 -309.176123 
L 150.914464 -310.625179 
L 150.886293 -312.074235 
L 150.874487 -313.523291 
L 150.879331 -314.972346 
L 150.9009 -316.421402 
L 150.939056 -317.870458 
L 150.993449 -319.319514 
L 151.063523 -320.768569 
L 151.148524 -322.217625 
L 151.247515 -323.666681 
L 151.359394 -325.115737 
L 151.482916 -326.564792 
L 151.616718 -328.013848 
L 158.34017 -328.013848 
L 158.34017 -328.013848 
L 158.473971 -326.564792 
L 158.597494 -325.115737 
L 158.709373 -323.666681 
L 158.808364 -322.217625 
L 158.893365 -320.768569 
L 158.963439 -319.319514 
L 159.017832 -317.870458 
L 159.055988 -316.421402 
L 159.077556 -314.972346 
L 159.0824 -313.523291 
L 159.070594 -312.074235 
L 159.042424 -310.625179 
L 158.998372 -309.176123 
L 158.93911 -307.727068 
L 158.86548 -306.278012 
L 158.778477 -304.828956 
L 158.679221 -303.379901 
L 158.568941 -301.930845 
L 158.448943 -300.481789 
L 158.32059 -299.032733 
L 158.185272 -297.583678 
L 158.044384 -296.134622 
L 157.899304 -294.685566 
L 157.75137 -293.23651 
L 157.601863 -291.787455 
L 157.451989 -290.338399 
L 157.302871 -288.889343 
L 157.155533 -287.440287 
L 157.010896 -285.991232 
L 156.869772 -284.542176 
L 156.732864 -283.09312 
L 156.600765 -281.644064 
L 156.473961 -280.195009 
L 156.352837 -278.745953 
L 156.237678 -277.296897 
L 156.128682 -275.847841 
L 156.025963 -274.398786 
L 155.929562 -272.94973 
L 155.839455 -271.500674 
L 155.755559 -270.051618 
L 155.677744 -268.602563 
L 155.605838 -267.153507 
L 155.539637 -265.704451 
L 155.478907 -264.255395 
L 155.423399 -262.80634 
L 155.372846 -261.357284 
L 155.326972 -259.908228 
L 155.285499 -258.459172 
L 155.248145 -257.010117 
L 155.214632 -255.561061 
L 155.184688 -254.112005 
L 155.158049 -252.662949 
L 155.134462 -251.213894 
L 155.113684 -249.764838 
L 155.095488 -248.315782 
L 155.079659 -246.866727 
L 155.065999 -245.417671 
L 155.054326 -243.968615 
L 155.044474 -242.519559 
L 155.036294 -241.070504 
L 155.029654 -239.621448 
L 155.024436 -238.172392 
L 155.020541 -236.723336 
L 155.017882 -235.274281 
L 155.016389 -233.825225 
L 155.016002 -232.376169 
L 155.016676 -230.927113 
L 155.018375 -229.478058 
L 155.02107 -228.029002 
L 155.024741 -226.579946 
L 155.029373 -225.13089 
L 155.034953 -223.681835 
L 155.041468 -222.232779 
L 155.048904 -220.783723 
L 155.057244 -219.334667 
L 155.066465 -217.885612 
L 155.076534 -216.436556 
L 155.087412 -214.9875 
L 155.099045 -213.538444 
L 155.111368 -212.089389 
L 155.124304 -210.640333 
L 155.137759 -209.191277 
L 155.151627 -207.742221 
L 155.165787 -206.293166 
L 155.180106 -204.84411 
L 155.194438 -203.395054 
L 155.20863 -201.945998 
L 155.222518 -200.496943 
L 155.235936 -199.047887 
L 155.248716 -197.598831 
L 155.260691 -196.149775 
L 155.2717 -194.70072 
L 155.281589 -193.251664 
L 155.290218 -191.802608 
L 155.29746 -190.353553 
L 155.30321 -188.904497 
L 155.30738 -187.455441 
L 155.309908 -186.006385 
L 155.310754 -184.55733 
z
" id="mbb9bc80685" style="stroke:#444444;stroke-width:1.5;"/>
    </defs>
    <g clip-path="url(#pa93a14d4a9)">
     <use style="fill:#459e97;stroke:#444444;stroke-width:1.5;" x="0" xlink:href="#mbb9bc80685" y="458.815625"/>
    </g>
   </g>
   <g id="PolyCollection_5">
    <defs>
     <path d="M 186.638793 -184.55733 
L 186.47764 -184.55733 
L 186.481446 -186.848334 
L 186.491819 -189.139339 
L 186.506087 -191.430343 
L 186.521064 -193.721348 
L 186.534181 -196.012353 
L 186.544101 -198.303357 
L 186.550691 -200.594362 
L 186.554574 -202.885366 
L 186.556616 -205.176371 
L 186.557578 -207.467376 
L 186.557985 -209.75838 
L 186.55814 -212.049385 
L 186.558193 -214.34039 
L 186.55821 -216.631394 
L 186.558215 -218.922399 
L 186.558216 -221.213403 
L 186.558216 -223.504408 
L 186.558216 -225.795413 
L 186.558216 -228.086417 
L 186.558216 -230.377422 
L 186.558216 -232.668426 
L 186.558216 -234.959431 
L 186.558215 -237.250436 
L 186.558212 -239.54144 
L 186.558198 -241.832445 
L 186.558147 -244.123449 
L 186.55797 -246.414454 
L 186.557407 -248.705459 
L 186.55578 -250.996463 
L 186.551489 -253.287468 
L 186.541162 -255.578473 
L 186.518495 -257.869477 
L 186.473136 -260.160482 
L 186.39043 -262.451486 
L 186.253145 -264.742491 
L 186.045925 -267.033496 
L 185.761959 -269.3245 
L 185.409525 -271.615505 
L 185.014903 -273.906509 
L 184.61895 -276.197514 
L 184.267509 -278.488519 
L 183.999183 -280.779523 
L 183.83556 -283.070528 
L 183.777653 -285.361532 
L 183.809144 -287.652537 
L 183.904087 -289.943542 
L 184.035532 -292.234546 
L 184.182025 -294.525551 
L 184.330405 -296.816556 
L 184.474959 -299.10756 
L 184.614348 -301.398565 
L 184.748317 -303.689569 
L 184.875699 -305.980574 
L 184.994188 -308.271579 
L 185.101321 -310.562583 
L 185.195767 -312.853588 
L 185.278199 -315.144592 
L 185.35134 -317.435597 
L 185.418987 -319.726602 
L 185.484197 -322.017606 
L 185.547259 -324.308611 
L 185.604353 -326.599616 
L 185.647606 -328.89062 
L 185.666589 -331.181625 
L 185.650732 -333.472629 
L 185.591865 -335.763634 
L 185.486215 -338.054639 
L 185.335322 -340.345643 
L 185.145531 -342.636648 
L 184.925941 -344.927652 
L 184.685222 -347.218657 
L 184.428354 -349.509662 
L 184.154671 -351.800666 
L 183.858153 -354.091671 
L 183.529855 -356.382675 
L 183.161124 -358.67368 
L 182.74564 -360.964685 
L 182.278793 -363.255689 
L 181.754462 -365.546694 
L 181.16155 -367.837699 
L 180.484389 -370.128703 
L 179.710739 -372.419708 
L 178.847608 -374.710712 
L 177.939371 -377.001717 
L 177.077906 -379.292722 
L 176.394683 -381.583726 
L 176.031625 -383.874731 
L 176.098636 -386.165735 
L 176.634703 -388.45674 
L 177.590241 -390.747745 
L 178.83935 -393.038749 
L 180.21676 -395.329754 
L 181.5634 -397.620758 
L 182.762496 -399.911763 
L 183.754895 -402.202768 
L 184.533184 -404.493772 
L 185.122829 -406.784777 
L 185.56147 -409.075782 
L 185.88445 -411.366786 
L 187.231982 -411.366786 
L 187.231982 -411.366786 
L 187.554962 -409.075782 
L 187.993603 -406.784777 
L 188.583248 -404.493772 
L 189.361537 -402.202768 
L 190.353936 -399.911763 
L 191.553032 -397.620758 
L 192.899673 -395.329754 
L 194.277082 -393.038749 
L 195.526191 -390.747745 
L 196.481729 -388.45674 
L 197.017796 -386.165735 
L 197.084807 -383.874731 
L 196.72175 -381.583726 
L 196.038526 -379.292722 
L 195.177061 -377.001717 
L 194.268824 -374.710712 
L 193.405694 -372.419708 
L 192.632043 -370.128703 
L 191.954882 -367.837699 
L 191.36197 -365.546694 
L 190.837639 -363.255689 
L 190.370792 -360.964685 
L 189.955308 -358.67368 
L 189.586577 -356.382675 
L 189.258279 -354.091671 
L 188.961761 -351.800666 
L 188.688078 -349.509662 
L 188.431211 -347.218657 
L 188.190491 -344.927652 
L 187.970901 -342.636648 
L 187.781111 -340.345643 
L 187.630217 -338.054639 
L 187.524567 -335.763634 
L 187.465701 -333.472629 
L 187.449843 -331.181625 
L 187.468826 -328.89062 
L 187.512079 -326.599616 
L 187.569173 -324.308611 
L 187.632235 -322.017606 
L 187.697445 -319.726602 
L 187.765092 -317.435597 
L 187.838233 -315.144592 
L 187.920666 -312.853588 
L 188.015111 -310.562583 
L 188.122244 -308.271579 
L 188.240733 -305.980574 
L 188.368115 -303.689569 
L 188.502084 -301.398565 
L 188.641473 -299.10756 
L 188.786027 -296.816556 
L 188.934408 -294.525551 
L 189.080901 -292.234546 
L 189.212345 -289.943542 
L 189.307288 -287.652537 
L 189.338779 -285.361532 
L 189.280872 -283.070528 
L 189.117249 -280.779523 
L 188.848923 -278.488519 
L 188.497482 -276.197514 
L 188.101529 -273.906509 
L 187.706907 -271.615505 
L 187.354473 -269.3245 
L 187.070507 -267.033496 
L 186.863287 -264.742491 
L 186.726002 -262.451486 
L 186.643296 -260.160482 
L 186.597937 -257.869477 
L 186.57527 -255.578473 
L 186.564943 -253.287468 
L 186.560652 -250.996463 
L 186.559025 -248.705459 
L 186.558463 -246.414454 
L 186.558285 -244.123449 
L 186.558234 -241.832445 
L 186.55822 -239.54144 
L 186.558217 -237.250436 
L 186.558216 -234.959431 
L 186.558216 -232.668426 
L 186.558216 -230.377422 
L 186.558216 -228.086417 
L 186.558216 -225.795413 
L 186.558216 -223.504408 
L 186.558216 -221.213403 
L 186.558218 -218.922399 
L 186.558222 -216.631394 
L 186.558239 -214.34039 
L 186.558292 -212.049385 
L 186.558447 -209.75838 
L 186.558854 -207.467376 
L 186.559816 -205.176371 
L 186.561858 -202.885366 
L 186.565741 -200.594362 
L 186.572331 -198.303357 
L 186.582251 -196.012353 
L 186.595368 -193.721348 
L 186.610345 -191.430343 
L 186.624614 -189.139339 
L 186.634987 -186.848334 
L 186.638793 -184.55733 
z
" id="m5bd71bd8d5" style="stroke:#444444;stroke-width:1.5;"/>
    </defs>
    <g clip-path="url(#pa93a14d4a9)">
     <use style="fill:#e68193;stroke:#444444;stroke-width:1.5;" x="0" xlink:href="#m5bd71bd8d5" y="458.815625"/>
    </g>
   </g>
   <g id="PolyCollection_6">
    <defs>
     <path d="M 208.009616 -184.55733 
L 207.213179 -184.55733 
L 207.213325 -186.660622 
L 207.214954 -188.763915 
L 207.218011 -190.867208 
L 207.222418 -192.970501 
L 207.228073 -195.073794 
L 207.234854 -197.177087 
L 207.242619 -199.28038 
L 207.251206 -201.383672 
L 207.260439 -203.486965 
L 207.270126 -205.590258 
L 207.280067 -207.693551 
L 207.290047 -209.796844 
L 207.29985 -211.900137 
L 207.309253 -214.00343 
L 207.318032 -216.106723 
L 207.325964 -218.210015 
L 207.33283 -220.313308 
L 207.338416 -222.416601 
L 207.342519 -224.519894 
L 207.344944 -226.623187 
L 207.345508 -228.72648 
L 207.344043 -230.829773 
L 207.340399 -232.933065 
L 207.33444 -235.036358 
L 207.326051 -237.139651 
L 207.315136 -239.242944 
L 207.301623 -241.346237 
L 207.285458 -243.44953 
L 207.266613 -245.552823 
L 207.245082 -247.656116 
L 207.220881 -249.759408 
L 207.194053 -251.862701 
L 207.164659 -253.965994 
L 207.132786 -256.069287 
L 207.09854 -258.17258 
L 207.062047 -260.275873 
L 207.023448 -262.379166 
L 206.982902 -264.482458 
L 206.940579 -266.585751 
L 206.896656 -268.689044 
L 206.851316 -270.792337 
L 206.804745 -272.89563 
L 206.757121 -274.998923 
L 206.708618 -277.102216 
L 206.659396 -279.205509 
L 206.609597 -281.308801 
L 206.559343 -283.412094 
L 206.508728 -285.515387 
L 206.457815 -287.61868 
L 206.406637 -289.721973 
L 206.355187 -291.825266 
L 206.303421 -293.928559 
L 206.251257 -296.031852 
L 206.198571 -298.135144 
L 206.145202 -300.238437 
L 206.090954 -302.34173 
L 206.035597 -304.445023 
L 205.978875 -306.548316 
L 205.92051 -308.651609 
L 205.860208 -310.754902 
L 205.797672 -312.858194 
L 205.732605 -314.961487 
L 205.664727 -317.06478 
L 205.593777 -319.168073 
L 205.519533 -321.271366 
L 205.441815 -323.374659 
L 205.360499 -325.477952 
L 205.27553 -327.581245 
L 205.186925 -329.684537 
L 205.094786 -331.78783 
L 204.999305 -333.891123 
L 204.900772 -335.994416 
L 204.799571 -338.097709 
L 204.69619 -340.201002 
L 204.591215 -342.304295 
L 204.485328 -344.407587 
L 204.379301 -346.51088 
L 204.273987 -348.614173 
L 204.170314 -350.717466 
L 204.069266 -352.820759 
L 203.971874 -354.924052 
L 203.879197 -357.027345 
L 203.792306 -359.130638 
L 203.712267 -361.23393 
L 203.640118 -363.337223 
L 203.576853 -365.440516 
L 203.523404 -367.543809 
L 203.480619 -369.647102 
L 203.449251 -371.750395 
L 203.429936 -373.853688 
L 203.423185 -375.95698 
L 203.429369 -378.060273 
L 203.448716 -380.163566 
L 203.4813 -382.266859 
L 203.527039 -384.370152 
L 203.5857 -386.473445 
L 203.656896 -388.576738 
L 203.7401 -390.680031 
L 203.834645 -392.783323 
L 211.388151 -392.783323 
L 211.388151 -392.783323 
L 211.482696 -390.680031 
L 211.565899 -388.576738 
L 211.637096 -386.473445 
L 211.695756 -384.370152 
L 211.741496 -382.266859 
L 211.774079 -380.163566 
L 211.793426 -378.060273 
L 211.799611 -375.95698 
L 211.792859 -373.853688 
L 211.773544 -371.750395 
L 211.742176 -369.647102 
L 211.699392 -367.543809 
L 211.645942 -365.440516 
L 211.582678 -363.337223 
L 211.510529 -361.23393 
L 211.430489 -359.130638 
L 211.343599 -357.027345 
L 211.250922 -354.924052 
L 211.153529 -352.820759 
L 211.052481 -350.717466 
L 210.948808 -348.614173 
L 210.843495 -346.51088 
L 210.737467 -344.407587 
L 210.63158 -342.304295 
L 210.526606 -340.201002 
L 210.423225 -338.097709 
L 210.322024 -335.994416 
L 210.22349 -333.891123 
L 210.128009 -331.78783 
L 210.035871 -329.684537 
L 209.947266 -327.581245 
L 209.862296 -325.477952 
L 209.780981 -323.374659 
L 209.703262 -321.271366 
L 209.629018 -319.168073 
L 209.558069 -317.06478 
L 209.49019 -314.961487 
L 209.425124 -312.858194 
L 209.362588 -310.754902 
L 209.302286 -308.651609 
L 209.24392 -306.548316 
L 209.187198 -304.445023 
L 209.131841 -302.34173 
L 209.077593 -300.238437 
L 209.024225 -298.135144 
L 208.971539 -296.031852 
L 208.919374 -293.928559 
L 208.867609 -291.825266 
L 208.816159 -289.721973 
L 208.76498 -287.61868 
L 208.714068 -285.515387 
L 208.663452 -283.412094 
L 208.613198 -281.308801 
L 208.563399 -279.205509 
L 208.514177 -277.102216 
L 208.465675 -274.998923 
L 208.418051 -272.89563 
L 208.371479 -270.792337 
L 208.326139 -268.689044 
L 208.282216 -266.585751 
L 208.239893 -264.482458 
L 208.199347 -262.379166 
L 208.160749 -260.275873 
L 208.124255 -258.17258 
L 208.090009 -256.069287 
L 208.058136 -253.965994 
L 208.028743 -251.862701 
L 208.001914 -249.759408 
L 207.977714 -247.656116 
L 207.956182 -245.552823 
L 207.937337 -243.44953 
L 207.921173 -241.346237 
L 207.907659 -239.242944 
L 207.896745 -237.139651 
L 207.888356 -235.036358 
L 207.882396 -232.933065 
L 207.878752 -230.829773 
L 207.877288 -228.72648 
L 207.877852 -226.623187 
L 207.880276 -224.519894 
L 207.884379 -222.416601 
L 207.889966 -220.313308 
L 207.896832 -218.210015 
L 207.904764 -216.106723 
L 207.913542 -214.00343 
L 207.922945 -211.900137 
L 207.932748 -209.796844 
L 207.942729 -207.693551 
L 207.952669 -205.590258 
L 207.962357 -203.486965 
L 207.97159 -201.383672 
L 207.980177 -199.28038 
L 207.987941 -197.177087 
L 207.994722 -195.073794 
L 208.000377 -192.970501 
L 208.004784 -190.867208 
L 208.007841 -188.763915 
L 208.009471 -186.660622 
L 208.009616 -184.55733 
z
" id="mc1e88a56b2" style="stroke:#444444;stroke-width:1.5;"/>
    </defs>
    <g clip-path="url(#pa93a14d4a9)">
     <use style="fill:#459e97;stroke:#444444;stroke-width:1.5;" x="0" xlink:href="#mc1e88a56b2" y="458.815625"/>
    </g>
   </g>
   <g id="PolyCollection_7">
    <defs>
     <path d="M 239.267253 -184.55733 
L 239.115087 -184.55733 
L 239.118732 -186.071953 
L 239.128651 -187.586577 
L 239.142258 -189.101201 
L 239.156482 -190.615825 
L 239.16887 -192.130449 
L 239.178175 -193.645072 
L 239.184305 -195.159696 
L 239.187883 -196.67432 
L 239.189743 -198.188944 
L 239.190609 -199.703567 
L 239.19097 -201.218191 
L 239.191105 -202.732815 
L 239.191151 -204.247439 
L 239.191165 -205.762063 
L 239.191169 -207.276686 
L 239.19117 -208.79131 
L 239.19117 -210.305934 
L 239.19117 -211.820558 
L 239.19117 -213.335182 
L 239.19117 -214.849805 
L 239.19117 -216.364429 
L 239.19117 -217.879053 
L 239.19117 -219.393677 
L 239.191169 -220.908301 
L 239.191165 -222.422924 
L 239.191148 -223.937548 
L 239.191084 -225.452172 
L 239.190866 -226.966796 
L 239.190184 -228.48142 
L 239.188242 -229.996043 
L 239.183198 -231.510667 
L 239.171259 -233.025291 
L 239.145533 -234.539915 
L 239.095092 -236.054539 
L 239.005181 -237.569162 
L 238.859619 -239.083786 
L 238.645856 -240.59841 
L 238.361597 -242.113034 
L 238.020227 -243.627658 
L 237.651674 -245.142281 
L 237.296936 -246.656905 
L 236.997633 -248.171529 
L 236.784724 -249.686153 
L 236.671 -251.200776 
L 236.649959 -252.7154 
L 236.700746 -254.230024 
L 236.796616 -255.744648 
L 236.913594 -257.259272 
L 237.036359 -258.773895 
L 237.159584 -260.288519 
L 237.284933 -261.803143 
L 237.415824 -263.317767 
L 237.552952 -264.832391 
L 237.692658 -266.347014 
L 237.82817 -267.861638 
L 237.952157 -269.376262 
L 238.058867 -270.890886 
L 238.145142 -272.40551 
L 238.210595 -273.920133 
L 238.257343 -275.434757 
L 238.289285 -276.949381 
L 238.310672 -278.464005 
L 238.324133 -279.978629 
L 238.328952 -281.493252 
L 238.320584 -283.007876 
L 238.291939 -284.5225 
L 238.236045 -286.037124 
L 238.148989 -287.551748 
L 238.031729 -289.066371 
L 237.889825 -290.580995 
L 237.73099 -292.095619 
L 237.56139 -293.610243 
L 237.382095 -295.124867 
L 237.186866 -296.63949 
L 236.961648 -298.154114 
L 236.685485 -299.668738 
L 236.332488 -301.183362 
L 235.874951 -302.697985 
L 235.287904 -304.212609 
L 234.555131 -305.727233 
L 233.676162 -307.241857 
L 232.673577 -308.756481 
L 231.599692 -310.271104 
L 230.540454 -311.785728 
L 229.612309 -313.300352 
L 228.947204 -314.814976 
L 228.664579 -316.3296 
L 228.83695 -317.844223 
L 229.46271 -319.358847 
L 230.460091 -320.873471 
L 231.687712 -322.388095 
L 232.984363 -323.902719 
L 234.211478 -325.417342 
L 235.28154 -326.931966 
L 236.163977 -328.44659 
L 236.871334 -329.961214 
L 237.43641 -331.475838 
L 237.892085 -332.990461 
L 238.260871 -334.505085 
L 240.121469 -334.505085 
L 240.121469 -334.505085 
L 240.490255 -332.990461 
L 240.945931 -331.475838 
L 241.511006 -329.961214 
L 242.218364 -328.44659 
L 243.1008 -326.931966 
L 244.170862 -325.417342 
L 245.397977 -323.902719 
L 246.694628 -322.388095 
L 247.92225 -320.873471 
L 248.91963 -319.358847 
L 249.54539 -317.844223 
L 249.717761 -316.3296 
L 249.435137 -314.814976 
L 248.770031 -313.300352 
L 247.841886 -311.785728 
L 246.782648 -310.271104 
L 245.708763 -308.756481 
L 244.706178 -307.241857 
L 243.827209 -305.727233 
L 243.094436 -304.212609 
L 242.50739 -302.697985 
L 242.049852 -301.183362 
L 241.696855 -299.668738 
L 241.420692 -298.154114 
L 241.195474 -296.63949 
L 241.000245 -295.124867 
L 240.82095 -293.610243 
L 240.65135 -292.095619 
L 240.492515 -290.580995 
L 240.350611 -289.066371 
L 240.233351 -287.551748 
L 240.146295 -286.037124 
L 240.090401 -284.5225 
L 240.061756 -283.007876 
L 240.053389 -281.493252 
L 240.058207 -279.978629 
L 240.071668 -278.464005 
L 240.093055 -276.949381 
L 240.124997 -275.434757 
L 240.171745 -273.920133 
L 240.237198 -272.40551 
L 240.323473 -270.890886 
L 240.430183 -269.376262 
L 240.55417 -267.861638 
L 240.689682 -266.347014 
L 240.829388 -264.832391 
L 240.966517 -263.317767 
L 241.097407 -261.803143 
L 241.222756 -260.288519 
L 241.345981 -258.773895 
L 241.468746 -257.259272 
L 241.585724 -255.744648 
L 241.681594 -254.230024 
L 241.732381 -252.7154 
L 241.71134 -251.200776 
L 241.597616 -249.686153 
L 241.384708 -248.171529 
L 241.085404 -246.656905 
L 240.730666 -245.142281 
L 240.362114 -243.627658 
L 240.020743 -242.113034 
L 239.736485 -240.59841 
L 239.522721 -239.083786 
L 239.37716 -237.569162 
L 239.287248 -236.054539 
L 239.236807 -234.539915 
L 239.211081 -233.025291 
L 239.199142 -231.510667 
L 239.194098 -229.996043 
L 239.192156 -228.48142 
L 239.191474 -226.966796 
L 239.191256 -225.452172 
L 239.191192 -223.937548 
L 239.191175 -222.422924 
L 239.191171 -220.908301 
L 239.19117 -219.393677 
L 239.19117 -217.879053 
L 239.19117 -216.364429 
L 239.19117 -214.849805 
L 239.19117 -213.335182 
L 239.19117 -211.820558 
L 239.19117 -210.305934 
L 239.19117 -208.79131 
L 239.191171 -207.276686 
L 239.191175 -205.762063 
L 239.191189 -204.247439 
L 239.191235 -202.732815 
L 239.19137 -201.218191 
L 239.191732 -199.703567 
L 239.192597 -198.188944 
L 239.194457 -196.67432 
L 239.198035 -195.159696 
L 239.204165 -193.645072 
L 239.21347 -192.130449 
L 239.225858 -190.615825 
L 239.240082 -189.101201 
L 239.253689 -187.586577 
L 239.263609 -186.071953 
L 239.267253 -184.55733 
z
" id="m4d0aa9bf3d" style="stroke:#444444;stroke-width:1.5;"/>
    </defs>
    <g clip-path="url(#pa93a14d4a9)">
     <use style="fill:#e68193;stroke:#444444;stroke-width:1.5;" x="0" xlink:href="#m4d0aa9bf3d" y="458.815625"/>
    </g>
   </g>
   <g id="PolyCollection_8">
    <defs>
     <path d="M 260.619391 -184.55733 
L 259.869312 -184.55733 
L 259.869622 -185.970007 
L 259.871425 -187.382684 
L 259.874668 -188.795362 
L 259.879277 -190.208039 
L 259.885154 -191.620716 
L 259.892179 -193.033394 
L 259.900213 -194.446071 
L 259.909101 -195.858748 
L 259.918669 -197.271426 
L 259.92873 -198.684103 
L 259.939087 -200.09678 
L 259.949534 -201.509458 
L 259.95986 -202.922135 
L 259.969847 -204.334813 
L 259.97928 -205.74749 
L 259.987943 -207.160167 
L 259.995625 -208.572845 
L 260.002122 -209.985522 
L 260.007236 -211.398199 
L 260.010781 -212.810877 
L 260.012581 -214.223554 
L 260.012475 -215.636231 
L 260.010316 -217.048909 
L 260.005973 -218.461586 
L 259.999332 -219.874264 
L 259.9903 -221.286941 
L 259.978798 -222.699618 
L 259.964772 -224.112296 
L 259.948186 -225.524973 
L 259.929023 -226.93765 
L 259.907289 -228.350328 
L 259.883012 -229.763005 
L 259.856236 -231.175682 
L 259.827029 -232.58836 
L 259.795475 -234.001037 
L 259.761675 -235.413714 
L 259.725748 -236.826392 
L 259.687824 -238.239069 
L 259.648044 -239.651747 
L 259.606559 -241.064424 
L 259.563521 -242.477101 
L 259.519085 -243.889779 
L 259.473404 -245.302456 
L 259.42662 -246.715133 
L 259.378868 -248.127811 
L 259.330265 -249.540488 
L 259.280907 -250.953165 
L 259.230868 -252.365843 
L 259.180195 -253.77852 
L 259.128903 -255.191197 
L 259.076975 -256.603875 
L 259.02436 -258.016552 
L 258.970972 -259.42923 
L 258.916689 -260.841907 
L 258.861359 -262.254584 
L 258.804796 -263.667262 
L 258.746789 -265.079939 
L 258.687107 -266.492616 
L 258.625503 -267.905294 
L 258.56172 -269.317971 
L 258.495505 -270.730648 
L 258.426614 -272.143326 
L 258.354824 -273.556003 
L 258.27994 -274.968681 
L 258.201812 -276.381358 
L 258.120339 -277.794035 
L 258.035483 -279.206713 
L 257.947278 -280.61939 
L 257.855838 -282.032067 
L 257.761362 -283.444745 
L 257.664145 -284.857422 
L 257.564578 -286.270099 
L 257.463147 -287.682777 
L 257.36044 -289.095454 
L 257.257137 -290.508131 
L 257.154007 -291.920809 
L 257.0519 -293.333486 
L 256.951739 -294.746164 
L 256.854502 -296.158841 
L 256.761211 -297.571518 
L 256.672916 -298.984196 
L 256.590674 -300.396873 
L 256.515533 -301.80955 
L 256.448511 -303.222228 
L 256.390576 -304.634905 
L 256.342628 -306.047582 
L 256.305479 -307.46026 
L 256.279836 -308.872937 
L 256.266287 -310.285614 
L 256.265285 -311.698292 
L 256.277141 -313.110969 
L 256.302013 -314.523647 
L 256.339905 -315.936324 
L 256.390659 -317.349001 
L 256.453963 -318.761679 
L 256.529356 -320.174356 
L 256.616231 -321.587033 
L 256.713849 -322.999711 
L 256.821352 -324.412388 
L 263.667351 -324.412388 
L 263.667351 -324.412388 
L 263.774855 -322.999711 
L 263.872472 -321.587033 
L 263.959347 -320.174356 
L 264.03474 -318.761679 
L 264.098045 -317.349001 
L 264.148799 -315.936324 
L 264.18669 -314.523647 
L 264.211562 -313.110969 
L 264.223419 -311.698292 
L 264.222417 -310.285614 
L 264.208867 -308.872937 
L 264.183225 -307.46026 
L 264.146075 -306.047582 
L 264.098127 -304.634905 
L 264.040193 -303.222228 
L 263.973171 -301.80955 
L 263.89803 -300.396873 
L 263.815788 -298.984196 
L 263.727492 -297.571518 
L 263.634201 -296.158841 
L 263.536964 -294.746164 
L 263.436803 -293.333486 
L 263.334697 -291.920809 
L 263.231567 -290.508131 
L 263.128263 -289.095454 
L 263.025556 -287.682777 
L 262.924126 -286.270099 
L 262.824558 -284.857422 
L 262.727341 -283.444745 
L 262.632866 -282.032067 
L 262.541425 -280.61939 
L 262.45322 -279.206713 
L 262.368364 -277.794035 
L 262.286891 -276.381358 
L 262.208763 -274.968681 
L 262.13388 -273.556003 
L 262.062089 -272.143326 
L 261.993198 -270.730648 
L 261.926984 -269.317971 
L 261.863201 -267.905294 
L 261.801596 -266.492616 
L 261.741914 -265.079939 
L 261.683908 -263.667262 
L 261.627345 -262.254584 
L 261.572014 -260.841907 
L 261.517732 -259.42923 
L 261.464343 -258.016552 
L 261.411728 -256.603875 
L 261.3598 -255.191197 
L 261.308508 -253.77852 
L 261.257835 -252.365843 
L 261.207796 -250.953165 
L 261.158438 -249.540488 
L 261.109835 -248.127811 
L 261.062083 -246.715133 
L 261.0153 -245.302456 
L 260.969618 -243.889779 
L 260.925183 -242.477101 
L 260.882145 -241.064424 
L 260.840659 -239.651747 
L 260.80088 -238.239069 
L 260.762955 -236.826392 
L 260.727028 -235.413714 
L 260.693229 -234.001037 
L 260.661674 -232.58836 
L 260.632467 -231.175682 
L 260.605692 -229.763005 
L 260.581414 -228.350328 
L 260.559681 -226.93765 
L 260.540518 -225.524973 
L 260.523931 -224.112296 
L 260.509905 -222.699618 
L 260.498404 -221.286941 
L 260.489371 -219.874264 
L 260.482731 -218.461586 
L 260.478388 -217.048909 
L 260.476228 -215.636231 
L 260.476122 -214.223554 
L 260.477922 -212.810877 
L 260.481467 -211.398199 
L 260.486581 -209.985522 
L 260.493078 -208.572845 
L 260.500761 -207.160167 
L 260.509424 -205.74749 
L 260.518857 -204.334813 
L 260.528844 -202.922135 
L 260.539169 -201.509458 
L 260.549616 -200.09678 
L 260.559974 -198.684103 
L 260.570035 -197.271426 
L 260.579602 -195.858748 
L 260.58849 -194.446071 
L 260.596525 -193.033394 
L 260.60355 -191.620716 
L 260.609426 -190.208039 
L 260.614035 -188.795362 
L 260.617278 -187.382684 
L 260.619081 -185.970007 
L 260.619391 -184.55733 
z
" id="mc79c5a1beb" style="stroke:#444444;stroke-width:1.5;"/>
    </defs>
    <g clip-path="url(#pa93a14d4a9)">
     <use style="fill:#459e97;stroke:#444444;stroke-width:1.5;" x="0" xlink:href="#mc79c5a1beb" y="458.815625"/>
    </g>
   </g>
   <g id="PolyCollection_9">
    <defs>
     <path d="M 291.905406 -184.55733 
L 291.742842 -184.55733 
L 291.74681 -185.301747 
L 291.757587 -186.046165 
L 291.772316 -186.790582 
L 291.787626 -187.535 
L 291.80086 -188.279418 
L 291.810707 -189.023835 
L 291.817121 -189.768253 
L 291.820811 -190.51267 
L 291.822687 -191.257088 
L 291.823508 -192.001506 
L 291.82376 -192.745923 
L 291.82368 -193.490341 
L 291.823335 -194.234758 
L 291.822718 -194.979176 
L 291.821818 -195.723594 
L 291.820693 -196.468011 
L 291.8195 -197.212429 
L 291.818472 -197.956846 
L 291.817841 -198.701264 
L 291.817727 -199.445682 
L 291.818066 -200.190099 
L 291.818617 -200.934517 
L 291.819059 -201.678934 
L 291.81913 -202.423352 
L 291.818726 -203.16777 
L 291.817922 -203.912187 
L 291.81688 -204.656605 
L 291.815704 -205.401022 
L 291.814269 -206.14544 
L 291.812055 -206.889858 
L 291.807896 -207.634275 
L 291.799484 -208.378693 
L 291.782464 -209.12311 
L 291.749257 -209.867528 
L 291.688205 -210.611946 
L 291.584133 -211.356363 
L 291.421418 -212.100781 
L 291.1897 -212.845198 
L 290.890578 -213.589616 
L 290.541985 -214.334034 
L 290.177008 -215.078451 
L 289.836301 -215.822869 
L 289.556809 -216.567286 
L 289.361743 -217.311704 
L 289.255934 -218.056122 
L 289.227648 -218.800539 
L 289.255003 -219.544957 
L 289.313976 -220.289374 
L 289.385486 -221.033792 
L 289.459858 -221.77821 
L 289.537605 -222.522627 
L 289.626314 -223.267045 
L 289.734889 -224.011462 
L 289.86772 -224.75588 
L 290.021519 -225.500298 
L 290.185972 -226.244715 
L 290.347305 -226.989133 
L 290.492537 -227.73355 
L 290.612475 -228.477968 
L 290.702679 -229.222386 
L 290.762818 -229.966803 
L 290.795235 -230.711221 
L 290.80344 -231.455638 
L 290.790906 -232.200056 
L 290.760269 -232.944474 
L 290.712863 -233.688891 
L 290.64852 -234.433309 
L 290.565664 -235.177726 
L 290.461852 -235.922144 
L 290.334776 -236.666562 
L 290.183381 -237.410979 
L 290.008385 -238.155397 
L 289.811485 -238.899814 
L 289.593045 -239.644232 
L 289.348732 -240.38865 
L 289.06627 -241.133067 
L 288.723765 -241.877485 
L 288.291027 -242.621902 
L 287.734816 -243.36632 
L 287.028104 -244.110738 
L 286.162323 -244.855155 
L 285.160008 -245.599573 
L 284.083537 -246.34399 
L 283.034696 -247.088408 
L 282.141111 -247.832826 
L 281.530183 -248.577243 
L 281.297533 -249.321661 
L 281.481428 -250.066078 
L 282.053592 -250.810496 
L 282.929997 -251.554914 
L 283.996441 -252.299331 
L 285.138077 -253.043749 
L 286.262209 -253.788166 
L 287.308487 -254.532584 
L 288.246701 -255.277002 
L 289.066955 -256.021419 
L 289.768581 -256.765837 
L 290.352886 -257.510254 
L 290.821521 -258.254672 
L 292.826727 -258.254672 
L 292.826727 -258.254672 
L 293.295362 -257.510254 
L 293.879668 -256.765837 
L 294.581293 -256.021419 
L 295.401547 -255.277002 
L 296.339761 -254.532584 
L 297.386039 -253.788166 
L 298.510171 -253.043749 
L 299.651807 -252.299331 
L 300.718252 -251.554914 
L 301.594656 -250.810496 
L 302.16682 -250.066078 
L 302.350715 -249.321661 
L 302.118065 -248.577243 
L 301.507137 -247.832826 
L 300.613552 -247.088408 
L 299.564711 -246.34399 
L 298.48824 -245.599573 
L 297.485925 -244.855155 
L 296.620144 -244.110738 
L 295.913433 -243.36632 
L 295.357221 -242.621902 
L 294.924483 -241.877485 
L 294.581978 -241.133067 
L 294.299516 -240.38865 
L 294.055204 -239.644232 
L 293.836763 -238.899814 
L 293.639863 -238.155397 
L 293.464867 -237.410979 
L 293.313473 -236.666562 
L 293.186396 -235.922144 
L 293.082584 -235.177726 
L 292.999729 -234.433309 
L 292.935385 -233.688891 
L 292.887979 -232.944474 
L 292.857342 -232.200056 
L 292.844808 -231.455638 
L 292.853013 -230.711221 
L 292.88543 -229.966803 
L 292.945569 -229.222386 
L 293.035773 -228.477968 
L 293.155711 -227.73355 
L 293.300944 -226.989133 
L 293.462276 -226.244715 
L 293.626729 -225.500298 
L 293.780528 -224.75588 
L 293.91336 -224.011462 
L 294.021934 -223.267045 
L 294.110644 -222.522627 
L 294.18839 -221.77821 
L 294.262762 -221.033792 
L 294.334272 -220.289374 
L 294.393245 -219.544957 
L 294.4206 -218.800539 
L 294.392314 -218.056122 
L 294.286505 -217.311704 
L 294.091439 -216.567286 
L 293.811947 -215.822869 
L 293.47124 -215.078451 
L 293.106263 -214.334034 
L 292.757671 -213.589616 
L 292.458548 -212.845198 
L 292.22683 -212.100781 
L 292.064115 -211.356363 
L 291.960043 -210.611946 
L 291.898991 -209.867528 
L 291.865785 -209.12311 
L 291.848765 -208.378693 
L 291.840352 -207.634275 
L 291.836194 -206.889858 
L 291.833979 -206.14544 
L 291.832544 -205.401022 
L 291.831368 -204.656605 
L 291.830327 -203.912187 
L 291.829522 -203.16777 
L 291.829118 -202.423352 
L 291.829189 -201.678934 
L 291.829631 -200.934517 
L 291.830182 -200.190099 
L 291.830521 -199.445682 
L 291.830407 -198.701264 
L 291.829776 -197.956846 
L 291.828748 -197.212429 
L 291.827555 -196.468011 
L 291.82643 -195.723594 
L 291.82553 -194.979176 
L 291.824913 -194.234758 
L 291.824568 -193.490341 
L 291.824488 -192.745923 
L 291.82474 -192.001506 
L 291.825561 -191.257088 
L 291.827437 -190.51267 
L 291.831127 -189.768253 
L 291.837541 -189.023835 
L 291.847388 -188.279418 
L 291.860622 -187.535 
L 291.875932 -186.790582 
L 291.890661 -186.046165 
L 291.901439 -185.301747 
L 291.905406 -184.55733 
z
" id="md3e54be9d3" style="stroke:#444444;stroke-width:1.5;"/>
    </defs>
    <g clip-path="url(#pa93a14d4a9)">
     <use style="fill:#e68193;stroke:#444444;stroke-width:1.5;" x="0" xlink:href="#md3e54be9d3" y="458.815625"/>
    </g>
   </g>
   <g id="PolyCollection_10">
    <defs>
     <path d="M 313.27244 -184.55733 
L 312.482172 -184.55733 
L 312.482098 -185.249674 
L 312.483469 -185.942019 
L 312.486215 -186.634364 
L 312.49024 -187.326709 
L 312.495422 -188.019054 
L 312.501614 -188.711398 
L 312.508646 -189.403743 
L 312.516326 -190.096088 
L 312.524443 -190.788433 
L 312.532764 -191.480778 
L 312.541044 -192.173122 
L 312.549023 -192.865467 
L 312.556431 -193.557812 
L 312.562991 -194.250157 
L 312.568418 -194.942502 
L 312.572427 -195.634846 
L 312.574735 -196.327191 
L 312.575062 -197.019536 
L 312.573134 -197.711881 
L 312.568689 -198.404226 
L 312.561477 -199.096571 
L 312.551267 -199.788915 
L 312.537844 -200.48126 
L 312.52102 -201.173605 
L 312.500631 -201.86595 
L 312.476543 -202.558295 
L 312.448655 -203.250639 
L 312.416899 -203.942984 
L 312.381248 -204.635329 
L 312.341711 -205.327674 
L 312.298342 -206.020019 
L 312.251238 -206.712363 
L 312.200537 -207.404708 
L 312.146425 -208.097053 
L 312.089127 -208.789398 
L 312.028911 -209.481743 
L 311.966086 -210.174087 
L 311.900993 -210.866432 
L 311.834006 -211.558777 
L 311.765522 -212.251122 
L 311.695961 -212.943467 
L 311.625752 -213.635812 
L 311.555327 -214.328156 
L 311.485116 -215.020501 
L 311.415533 -215.712846 
L 311.346972 -216.405191 
L 311.279793 -217.097536 
L 311.214316 -217.78988 
L 311.150815 -218.482225 
L 311.089503 -219.17457 
L 311.030536 -219.866915 
L 310.974 -220.55926 
L 310.91991 -221.251604 
L 310.86821 -221.943949 
L 310.818772 -222.636294 
L 310.771398 -223.328639 
L 310.725824 -224.020984 
L 310.681727 -224.713328 
L 310.638734 -225.405673 
L 310.596431 -226.098018 
L 310.554374 -226.790363 
L 310.512105 -227.482708 
L 310.469164 -228.175052 
L 310.425106 -228.867397 
L 310.379514 -229.559742 
L 310.332016 -230.252087 
L 310.282301 -230.944432 
L 310.230131 -231.636777 
L 310.175354 -232.329121 
L 310.117916 -233.021466 
L 310.05787 -233.713811 
L 309.99538 -234.406156 
L 309.930726 -235.098501 
L 309.864305 -235.790845 
L 309.796628 -236.48319 
L 309.728315 -237.175535 
L 309.660083 -237.86788 
L 309.59274 -238.560225 
L 309.527165 -239.252569 
L 309.464297 -239.944914 
L 309.405112 -240.637259 
L 309.350605 -241.329604 
L 309.301768 -242.021949 
L 309.259569 -242.714293 
L 309.224932 -243.406638 
L 309.198714 -244.098983 
L 309.181685 -244.791328 
L 309.174515 -245.483673 
L 309.177752 -246.176018 
L 309.191816 -246.868362 
L 309.216982 -247.560707 
L 309.253381 -248.253052 
L 309.300989 -248.945397 
L 309.359633 -249.637742 
L 309.428992 -250.330086 
L 309.508603 -251.022431 
L 309.597873 -251.714776 
L 309.696087 -252.407121 
L 309.802429 -253.099466 
L 315.952182 -253.099466 
L 315.952182 -253.099466 
L 316.058524 -252.407121 
L 316.156739 -251.714776 
L 316.246008 -251.022431 
L 316.325619 -250.330086 
L 316.394978 -249.637742 
L 316.453623 -248.945397 
L 316.501231 -248.253052 
L 316.537629 -247.560707 
L 316.562796 -246.868362 
L 316.576859 -246.176018 
L 316.580097 -245.483673 
L 316.572926 -244.791328 
L 316.555898 -244.098983 
L 316.529679 -243.406638 
L 316.495042 -242.714293 
L 316.452843 -242.021949 
L 316.404006 -241.329604 
L 316.349499 -240.637259 
L 316.290314 -239.944914 
L 316.227446 -239.252569 
L 316.161872 -238.560225 
L 316.094528 -237.86788 
L 316.026297 -237.175535 
L 315.957983 -236.48319 
L 315.890306 -235.790845 
L 315.823886 -235.098501 
L 315.759232 -234.406156 
L 315.696742 -233.713811 
L 315.636695 -233.021466 
L 315.579258 -232.329121 
L 315.52448 -231.636777 
L 315.47231 -230.944432 
L 315.422595 -230.252087 
L 315.375097 -229.559742 
L 315.329505 -228.867397 
L 315.285447 -228.175052 
L 315.242506 -227.482708 
L 315.200238 -226.790363 
L 315.158181 -226.098018 
L 315.115877 -225.405673 
L 315.072885 -224.713328 
L 315.028788 -224.020984 
L 314.983214 -223.328639 
L 314.93584 -222.636294 
L 314.886402 -221.943949 
L 314.834702 -221.251604 
L 314.780612 -220.55926 
L 314.724075 -219.866915 
L 314.665108 -219.17457 
L 314.603797 -218.482225 
L 314.540295 -217.78988 
L 314.474819 -217.097536 
L 314.40764 -216.405191 
L 314.339078 -215.712846 
L 314.269496 -215.020501 
L 314.199285 -214.328156 
L 314.12886 -213.635812 
L 314.05865 -212.943467 
L 313.989089 -212.251122 
L 313.920606 -211.558777 
L 313.853618 -210.866432 
L 313.788525 -210.174087 
L 313.7257 -209.481743 
L 313.665485 -208.789398 
L 313.608187 -208.097053 
L 313.554074 -207.404708 
L 313.503373 -206.712363 
L 313.456269 -206.020019 
L 313.4129 -205.327674 
L 313.373364 -204.635329 
L 313.337712 -203.942984 
L 313.305956 -203.250639 
L 313.278068 -202.558295 
L 313.25398 -201.86595 
L 313.233591 -201.173605 
L 313.216767 -200.48126 
L 313.203345 -199.788915 
L 313.193134 -199.096571 
L 313.185923 -198.404226 
L 313.181477 -197.711881 
L 313.179549 -197.019536 
L 313.179876 -196.327191 
L 313.182184 -195.634846 
L 313.186194 -194.942502 
L 313.191621 -194.250157 
L 313.19818 -193.557812 
L 313.205588 -192.865467 
L 313.213567 -192.173122 
L 313.221848 -191.480778 
L 313.230169 -190.788433 
L 313.238285 -190.096088 
L 313.245965 -189.403743 
L 313.252998 -188.711398 
L 313.25919 -188.019054 
L 313.264371 -187.326709 
L 313.268396 -186.634364 
L 313.271142 -185.942019 
L 313.272513 -185.249674 
L 313.27244 -184.55733 
z
" id="m1aa7690519" style="stroke:#444444;stroke-width:1.5;"/>
    </defs>
    <g clip-path="url(#pa93a14d4a9)">
     <use style="fill:#459e97;stroke:#444444;stroke-width:1.5;" x="0" xlink:href="#m1aa7690519" y="458.815625"/>
    </g>
   </g>
   <g id="patch_3">
    <path clip-path="url(#pa93a14d4a9)" d="M 91.818899 274.258295 
L 91.818899 274.258295 
L 91.818899 274.258295 
L 91.818899 274.258295 
z
" style="fill:#e68193;stroke:#444444;stroke-linejoin:miter;stroke-width:0.75;"/>
   </g>
   <g id="patch_4">
    <path clip-path="url(#pa93a14d4a9)" d="M 91.818899 274.258295 
L 91.818899 274.258295 
L 91.818899 274.258295 
L 91.818899 274.258295 
z
" style="fill:#459e97;stroke:#444444;stroke-linejoin:miter;stroke-width:0.75;"/>
   </g>
   <g id="line2d_1">
    <path clip-path="url(#pa93a14d4a9)" d="M 81.292308 109.873133 
L 81.292308 42.774205 
" style="fill:none;stroke:#444444;stroke-linecap:round;stroke-width:1.5;"/>
   </g>
   <g id="line2d_2">
    <path clip-path="url(#pa93a14d4a9)" d="M 81.292308 79.955491 
L 81.292308 59.890537 
" style="fill:none;stroke:#444444;stroke-linecap:round;stroke-width:4.5;"/>
   </g>
   <g id="line2d_3">
    <path clip-path="url(#pa93a14d4a9)" d="M 102.34549 101.160335 
L 102.34549 56.19608 
" style="fill:none;stroke:#444444;stroke-linecap:round;stroke-width:1.5;"/>
   </g>
   <g id="line2d_4">
    <path clip-path="url(#pa93a14d4a9)" d="M 102.34549 92.068055 
L 102.34549 71.447613 
" style="fill:none;stroke:#444444;stroke-linecap:round;stroke-width:4.5;"/>
   </g>
   <g id="line2d_5">
    <path clip-path="url(#pa93a14d4a9)" d="M 133.925262 166.112526 
L 133.925262 121.973223 
" style="fill:none;stroke:#444444;stroke-linecap:round;stroke-width:1.5;"/>
   </g>
   <g id="line2d_6">
    <path clip-path="url(#pa93a14d4a9)" d="M 133.925262 146.425137 
L 133.925262 133.228301 
" style="fill:none;stroke:#444444;stroke-linecap:round;stroke-width:4.5;"/>
   </g>
   <g id="line2d_7">
    <path clip-path="url(#pa93a14d4a9)" d="M 154.978444 160.382506 
L 154.978444 130.801777 
" style="fill:none;stroke:#444444;stroke-linecap:round;stroke-width:1.5;"/>
   </g>
   <g id="line2d_8">
    <path clip-path="url(#pa93a14d4a9)" d="M 154.978444 154.400844 
L 154.978444 140.835002 
" style="fill:none;stroke:#444444;stroke-linecap:round;stroke-width:4.5;"/>
   </g>
   <g id="line2d_9">
    <path clip-path="url(#pa93a14d4a9)" d="M 186.558216 186.483125 
L 186.558216 47.448839 
" style="fill:none;stroke:#444444;stroke-linecap:round;stroke-width:1.5;"/>
   </g>
   <g id="line2d_10">
    <path clip-path="url(#pa93a14d4a9)" d="M 186.558216 118.242509 
L 186.558216 72.610933 
" style="fill:none;stroke:#444444;stroke-linecap:round;stroke-width:4.5;"/>
   </g>
   <g id="line2d_11">
    <path clip-path="url(#pa93a14d4a9)" d="M 207.611398 169.301533 
L 207.611398 66.032302 
" style="fill:none;stroke:#444444;stroke-linecap:round;stroke-width:1.5;"/>
   </g>
   <g id="line2d_12">
    <path clip-path="url(#pa93a14d4a9)" d="M 207.611398 123.493647 
L 207.611398 73.267527 
" style="fill:none;stroke:#444444;stroke-linecap:round;stroke-width:4.5;"/>
   </g>
   <g id="line2d_13">
    <path clip-path="url(#pa93a14d4a9)" d="M 239.19117 209.874253 
L 239.19117 124.31054 
" style="fill:none;stroke:#444444;stroke-linecap:round;stroke-width:1.5;"/>
   </g>
   <g id="line2d_14">
    <path clip-path="url(#pa93a14d4a9)" d="M 239.19117 168.323984 
L 239.19117 140.617809 
" style="fill:none;stroke:#444444;stroke-linecap:round;stroke-width:4.5;"/>
   </g>
   <g id="line2d_15">
    <path clip-path="url(#pa93a14d4a9)" d="M 260.244352 203.603906 
L 260.244352 134.403237 
" style="fill:none;stroke:#444444;stroke-linecap:round;stroke-width:1.5;"/>
   </g>
   <g id="line2d_16">
    <path clip-path="url(#pa93a14d4a9)" d="M 260.244352 172.893601 
L 260.244352 142.007907 
" style="fill:none;stroke:#444444;stroke-linecap:round;stroke-width:4.5;"/>
   </g>
   <g id="line2d_17">
    <path clip-path="url(#pa93a14d4a9)" d="M 291.824124 246.498183 
L 291.824124 200.560953 
" style="fill:none;stroke:#444444;stroke-linecap:round;stroke-width:1.5;"/>
   </g>
   <g id="line2d_18">
    <path clip-path="url(#pa93a14d4a9)" d="M 291.824124 223.817237 
L 291.824124 208.489845 
" style="fill:none;stroke:#444444;stroke-linecap:round;stroke-width:4.5;"/>
   </g>
   <g id="line2d_19">
    <path clip-path="url(#pa93a14d4a9)" d="M 312.877306 238.522819 
L 312.877306 205.716159 
" style="fill:none;stroke:#444444;stroke-linecap:round;stroke-width:1.5;"/>
   </g>
   <g id="line2d_20">
    <path clip-path="url(#pa93a14d4a9)" d="M 312.877306 234.862484 
L 312.877306 211.51213 
" style="fill:none;stroke:#444444;stroke-linecap:round;stroke-width:4.5;"/>
   </g>
   <g id="patch_5">
    <path d="M 65.502422 285.8325 
L 328.667192 285.8325 
" style="fill:none;stroke:#262626;stroke-linecap:square;stroke-linejoin:miter;stroke-width:1.875;"/>
   </g>
   <g id="PathCollection_1">
    <defs>
     <path d="M 0 1.5 
C 0.397805 1.5 0.77937 1.341951 1.06066 1.06066 
C 1.341951 0.77937 1.5 0.397805 1.5 0 
C 1.5 -0.397805 1.341951 -0.77937 1.06066 -1.06066 
C 0.77937 -1.341951 0.397805 -1.5 0 -1.5 
C -0.397805 -1.5 -0.77937 -1.341951 -1.06066 -1.06066 
C -1.341951 -0.77937 -1.5 -0.397805 -1.5 0 
C -1.5 0.397805 -1.341951 0.77937 -1.06066 1.06066 
C -0.77937 1.341951 -0.397805 1.5 0 1.5 
z
" id="mb8bdbdc3d2" style="stroke:#444444;stroke-width:1.5;"/>
    </defs>
    <g clip-path="url(#pa93a14d4a9)">
     <use style="fill:#ffffff;stroke:#444444;stroke-width:1.5;" x="81.292308" xlink:href="#mb8bdbdc3d2" y="69.545458"/>
    </g>
   </g>
   <g id="PathCollection_2">
    <g clip-path="url(#pa93a14d4a9)">
     <use style="fill:#ffffff;stroke:#444444;stroke-width:1.5;" x="102.34549" xlink:href="#mb8bdbdc3d2" y="75.389863"/>
    </g>
   </g>
   <g id="PathCollection_3">
    <g clip-path="url(#pa93a14d4a9)">
     <use style="fill:#ffffff;stroke:#444444;stroke-width:1.5;" x="133.925262" xlink:href="#mb8bdbdc3d2" y="139.575005"/>
    </g>
   </g>
   <g id="PathCollection_4">
    <g clip-path="url(#pa93a14d4a9)">
     <use style="fill:#ffffff;stroke:#444444;stroke-width:1.5;" x="154.978444" xlink:href="#mb8bdbdc3d2" y="143.429518"/>
    </g>
   </g>
   <g id="PathCollection_5">
    <g clip-path="url(#pa93a14d4a9)">
     <use style="fill:#ffffff;stroke:#444444;stroke-width:1.5;" x="186.558216" xlink:href="#mb8bdbdc3d2" y="83.011981"/>
    </g>
   </g>
   <g id="PathCollection_6">
    <g clip-path="url(#pa93a14d4a9)">
     <use style="fill:#ffffff;stroke:#444444;stroke-width:1.5;" x="207.611398" xlink:href="#mb8bdbdc3d2" y="83.065119"/>
    </g>
   </g>
   <g id="PathCollection_7">
    <g clip-path="url(#pa93a14d4a9)">
     <use style="fill:#ffffff;stroke:#444444;stroke-width:1.5;" x="239.19117" xlink:href="#mb8bdbdc3d2" y="146.191405"/>
    </g>
   </g>
   <g id="PathCollection_8">
    <g clip-path="url(#pa93a14d4a9)">
     <use style="fill:#ffffff;stroke:#444444;stroke-width:1.5;" x="260.244352" xlink:href="#mb8bdbdc3d2" y="148.477991"/>
    </g>
   </g>
   <g id="PathCollection_9">
    <g clip-path="url(#pa93a14d4a9)">
     <use style="fill:#ffffff;stroke:#444444;stroke-width:1.5;" x="291.824124" xlink:href="#mb8bdbdc3d2" y="211.474414"/>
    </g>
   </g>
   <g id="PathCollection_10">
    <g clip-path="url(#pa93a14d4a9)">
     <use style="fill:#ffffff;stroke:#444444;stroke-width:1.5;" x="312.877306" xlink:href="#mb8bdbdc3d2" y="214.00014"/>
    </g>
   </g>
  </g>
  <g id="text_13">
   <!-- Sugarcane -->
   <defs>
    <path d="M 4.5 23 
L 13.421875 23.78125 
Q 14.0625 18.40625 16.375 14.96875 
Q 18.703125 11.53125 23.578125 9.40625 
Q 28.46875 7.28125 34.578125 7.28125 
Q 39.984375 7.28125 44.140625 8.890625 
Q 48.296875 10.5 50.3125 13.296875 
Q 52.34375 16.109375 52.34375 19.4375 
Q 52.34375 22.796875 50.390625 25.3125 
Q 48.4375 27.828125 43.953125 29.546875 
Q 41.0625 30.671875 31.203125 33.03125 
Q 21.34375 35.40625 17.390625 37.5 
Q 12.25 40.1875 9.734375 44.15625 
Q 7.234375 48.140625 7.234375 53.078125 
Q 7.234375 58.5 10.296875 63.203125 
Q 13.375 67.921875 19.28125 70.359375 
Q 25.203125 72.796875 32.421875 72.796875 
Q 40.375 72.796875 46.453125 70.234375 
Q 52.546875 67.671875 55.8125 62.6875 
Q 59.078125 57.71875 59.328125 51.421875 
L 50.25 50.734375 
Q 49.515625 57.515625 45.28125 60.984375 
Q 41.0625 64.453125 32.8125 64.453125 
Q 24.21875 64.453125 20.28125 61.296875 
Q 16.359375 58.15625 16.359375 53.71875 
Q 16.359375 49.859375 19.140625 47.359375 
Q 21.875 44.875 33.421875 42.265625 
Q 44.96875 39.65625 49.265625 37.703125 
Q 55.515625 34.8125 58.484375 30.390625 
Q 61.46875 25.984375 61.46875 20.21875 
Q 61.46875 14.5 58.203125 9.4375 
Q 54.9375 4.390625 48.796875 1.578125 
Q 42.671875 -1.21875 35.015625 -1.21875 
Q 25.296875 -1.21875 18.71875 1.609375 
Q 12.15625 4.4375 8.421875 10.125 
Q 4.6875 15.828125 4.5 23 
z
" id="ArialMT-83"/>
    <path d="M 40.578125 0 
L 40.578125 7.625 
Q 34.515625 -1.171875 24.125 -1.171875 
Q 19.53125 -1.171875 15.546875 0.578125 
Q 11.578125 2.34375 9.640625 5 
Q 7.71875 7.671875 6.9375 11.53125 
Q 6.390625 14.109375 6.390625 19.734375 
L 6.390625 51.859375 
L 15.1875 51.859375 
L 15.1875 23.09375 
Q 15.1875 16.21875 15.71875 13.8125 
Q 16.546875 10.359375 19.234375 8.375 
Q 21.921875 6.390625 25.875 6.390625 
Q 29.828125 6.390625 33.296875 8.421875 
Q 36.765625 10.453125 38.203125 13.9375 
Q 39.65625 17.4375 39.65625 24.078125 
L 39.65625 51.859375 
L 48.4375 51.859375 
L 48.4375 0 
z
" id="ArialMT-117"/>
    <path d="M 40.4375 19 
L 49.078125 17.875 
Q 47.65625 8.9375 41.8125 3.875 
Q 35.984375 -1.171875 27.484375 -1.171875 
Q 16.84375 -1.171875 10.375 5.78125 
Q 3.90625 12.75 3.90625 25.734375 
Q 3.90625 34.125 6.6875 40.421875 
Q 9.46875 46.734375 15.15625 49.875 
Q 20.84375 53.03125 27.546875 53.03125 
Q 35.984375 53.03125 41.359375 48.75 
Q 46.734375 44.484375 48.25 36.625 
L 39.703125 35.296875 
Q 38.484375 40.53125 35.375 43.15625 
Q 32.28125 45.796875 27.875 45.796875 
Q 21.234375 45.796875 17.078125 41.03125 
Q 12.9375 36.28125 12.9375 25.984375 
Q 12.9375 15.53125 16.9375 10.796875 
Q 20.953125 6.0625 27.390625 6.0625 
Q 32.5625 6.0625 36.03125 9.234375 
Q 39.5 12.40625 40.4375 19 
z
" id="ArialMT-99"/>
   </defs>
   <g style="fill:#262626;" transform="translate(155.204117 15.724125)scale(0.216 -0.216)">
    <use xlink:href="#ArialMT-83"/>
    <use x="66.699219" xlink:href="#ArialMT-117"/>
    <use x="122.314453" xlink:href="#ArialMT-103"/>
    <use x="177.929688" xlink:href="#ArialMT-97"/>
    <use x="233.544922" xlink:href="#ArialMT-114"/>
    <use x="266.845703" xlink:href="#ArialMT-99"/>
    <use x="316.845703" xlink:href="#ArialMT-97"/>
    <use x="372.460938" xlink:href="#ArialMT-110"/>
    <use x="428.076172" xlink:href="#ArialMT-101"/>
   </g>
  </g>
  <g id="legend_1">
   <g id="text_14">
    <!-- index -->
    <defs>
     <path d="M 0.734375 0 
L 19.671875 26.953125 
L 2.15625 51.859375 
L 13.140625 51.859375 
L 21.09375 39.703125 
Q 23.34375 36.234375 24.703125 33.890625 
Q 26.859375 37.109375 28.65625 39.59375 
L 37.40625 51.859375 
L 47.90625 51.859375 
L 29.984375 27.4375 
L 49.265625 0 
L 38.484375 0 
L 27.828125 16.109375 
L 25 20.453125 
L 11.375 0 
z
" id="ArialMT-120"/>
    </defs>
    <g style="fill:#262626;" transform="translate(352.744367 210.023336)scale(0.153 -0.153)">
     <use xlink:href="#ArialMT-105"/>
     <use x="22.216797" xlink:href="#ArialMT-110"/>
     <use x="77.832031" xlink:href="#ArialMT-100"/>
     <use x="133.447266" xlink:href="#ArialMT-101"/>
     <use x="189.0625" xlink:href="#ArialMT-120"/>
    </g>
   </g>
   <g id="patch_6">
    <path d="M 323.633914 233.124602 
L 356.633914 233.124602 
L 356.633914 221.574602 
L 323.633914 221.574602 
z
" style="fill:#e68193;stroke:#444444;stroke-linejoin:miter;stroke-width:0.75;"/>
   </g>
   <g id="text_15">
    <!-- actual -->
    <g style="fill:#262626;" transform="translate(369.833914 233.124602)scale(0.165 -0.165)">
     <use xlink:href="#ArialMT-97"/>
     <use x="55.615234" xlink:href="#ArialMT-99"/>
     <use x="105.615234" xlink:href="#ArialMT-116"/>
     <use x="133.398438" xlink:href="#ArialMT-117"/>
     <use x="189.013672" xlink:href="#ArialMT-97"/>
     <use x="244.628906" xlink:href="#ArialMT-108"/>
    </g>
   </g>
   <g id="patch_7">
    <path d="M 323.633914 256.464367 
L 356.633914 256.464367 
L 356.633914 244.914367 
L 323.633914 244.914367 
z
" style="fill:#459e97;stroke:#444444;stroke-linejoin:miter;stroke-width:0.75;"/>
   </g>
   <g id="text_16">
    <!-- cluster -->
    <defs>
     <path d="M 3.078125 15.484375 
L 11.765625 16.84375 
Q 12.5 11.625 15.84375 8.84375 
Q 19.1875 6.0625 25.203125 6.0625 
Q 31.25 6.0625 34.171875 8.515625 
Q 37.109375 10.984375 37.109375 14.3125 
Q 37.109375 17.28125 34.515625 19 
Q 32.71875 20.171875 25.53125 21.96875 
Q 15.875 24.421875 12.140625 26.203125 
Q 8.40625 27.984375 6.46875 31.125 
Q 4.546875 34.28125 4.546875 38.09375 
Q 4.546875 41.546875 6.125 44.5 
Q 7.71875 47.46875 10.453125 49.421875 
Q 12.5 50.921875 16.03125 51.96875 
Q 19.578125 53.03125 23.640625 53.03125 
Q 29.734375 53.03125 34.34375 51.265625 
Q 38.96875 49.515625 41.15625 46.5 
Q 43.359375 43.5 44.1875 38.484375 
L 35.59375 37.3125 
Q 35.015625 41.3125 32.203125 43.546875 
Q 29.390625 45.796875 24.265625 45.796875 
Q 18.21875 45.796875 15.625 43.796875 
Q 13.03125 41.796875 13.03125 39.109375 
Q 13.03125 37.40625 14.109375 36.03125 
Q 15.1875 34.625 17.484375 33.6875 
Q 18.796875 33.203125 25.25 31.453125 
Q 34.578125 28.953125 38.25 27.359375 
Q 41.9375 25.78125 44.03125 22.75 
Q 46.140625 19.734375 46.140625 15.234375 
Q 46.140625 10.84375 43.578125 6.953125 
Q 41.015625 3.078125 36.171875 0.953125 
Q 31.34375 -1.171875 25.25 -1.171875 
Q 15.140625 -1.171875 9.84375 3.03125 
Q 4.546875 7.234375 3.078125 15.484375 
z
" id="ArialMT-115"/>
    </defs>
    <g style="fill:#262626;" transform="translate(369.833914 256.464367)scale(0.165 -0.165)">
     <use xlink:href="#ArialMT-99"/>
     <use x="50" xlink:href="#ArialMT-108"/>
     <use x="72.216797" xlink:href="#ArialMT-117"/>
     <use x="127.832031" xlink:href="#ArialMT-115"/>
     <use x="177.832031" xlink:href="#ArialMT-116"/>
     <use x="205.615234" xlink:href="#ArialMT-101"/>
     <use x="261.230469" xlink:href="#ArialMT-114"/>
    </g>
   </g>
  </g>
 </g>
 <defs>
  <clipPath id="pa93a14d4a9">
   <rect height="254.6325" width="263.16477" x="65.502422" y="31.2"/>
  </clipPath>
 </defs>
</svg>
