<?xml version="1.0" encoding="utf-8" standalone="no"?>
<!DOCTYPE svg PUBLIC "-//W3C//DTD SVG 1.1//EN"
  "http://www.w3.org/Graphics/SVG/1.1/DTD/svg11.dtd">
<!-- Created with matplotlib (https://matplotlib.org/) -->
<svg height="458.815625pt" version="1.1" viewBox="0 0 422.282582 458.815625" width="422.282582pt" xmlns="http://www.w3.org/2000/svg" xmlns:xlink="http://www.w3.org/1999/xlink">
 <defs>
  <style type="text/css">
*{stroke-linecap:butt;stroke-linejoin:round;}
  </style>
 </defs>
 <g id="figure_1">
  <g id="patch_1">
   <path d="M 0 458.815625 
L 422.282582 458.815625 
L 422.282582 0 
L 0 0 
z
" style="fill:#ffffff;"/>
  </g>
  <g id="axes_1">
   <g id="patch_2">
    <path d="M 42.567422 285.8325 
L 317.670782 285.8325 
L 317.670782 31.2 
L 42.567422 31.2 
z
" style="fill:#ffffff;"/>
   </g>
   <g id="matplotlib.axis_1">
    <g id="xtick_1">
     <g id="text_1">
      <!-- Irrigation High -->
      <defs>
       <path d="M 9.328125 0 
L 9.328125 71.578125 
L 18.796875 71.578125 
L 18.796875 0 
z
" id="ArialMT-73"/>
       <path d="M 6.5 0 
L 6.5 51.859375 
L 14.40625 51.859375 
L 14.40625 44 
Q 17.4375 49.515625 20 51.265625 
Q 22.5625 53.03125 25.640625 53.03125 
Q 30.078125 53.03125 34.671875 50.203125 
L 31.640625 42.046875 
Q 28.421875 43.953125 25.203125 43.953125 
Q 22.3125 43.953125 20.015625 42.21875 
Q 17.71875 40.484375 16.75 37.40625 
Q 15.28125 32.71875 15.28125 27.15625 
L 15.28125 0 
z
" id="ArialMT-114"/>
       <path d="M 6.640625 61.46875 
L 6.640625 71.578125 
L 15.4375 71.578125 
L 15.4375 61.46875 
z
M 6.640625 0 
L 6.640625 51.859375 
L 15.4375 51.859375 
L 15.4375 0 
z
" id="ArialMT-105"/>
       <path d="M 4.984375 -4.296875 
L 13.53125 -5.5625 
Q 14.0625 -9.515625 16.5 -11.328125 
Q 19.78125 -13.765625 25.4375 -13.765625 
Q 31.546875 -13.765625 34.859375 -11.328125 
Q 38.1875 -8.890625 39.359375 -4.5 
Q 40.046875 -1.8125 39.984375 6.78125 
Q 34.234375 0 25.640625 0 
Q 14.9375 0 9.078125 7.71875 
Q 3.21875 15.4375 3.21875 26.21875 
Q 3.21875 33.640625 5.90625 39.90625 
Q 8.59375 46.1875 13.6875 49.609375 
Q 18.796875 53.03125 25.6875 53.03125 
Q 34.859375 53.03125 40.828125 45.609375 
L 40.828125 51.859375 
L 48.921875 51.859375 
L 48.921875 7.03125 
Q 48.921875 -5.078125 46.453125 -10.125 
Q 44 -15.1875 38.640625 -18.109375 
Q 33.296875 -21.046875 25.484375 -21.046875 
Q 16.21875 -21.046875 10.5 -16.875 
Q 4.78125 -12.703125 4.984375 -4.296875 
z
M 12.25 26.859375 
Q 12.25 16.65625 16.296875 11.96875 
Q 20.359375 7.28125 26.46875 7.28125 
Q 32.515625 7.28125 36.609375 11.9375 
Q 40.71875 16.609375 40.71875 26.5625 
Q 40.71875 36.078125 36.5 40.90625 
Q 32.28125 45.75 26.3125 45.75 
Q 20.453125 45.75 16.34375 40.984375 
Q 12.25 36.234375 12.25 26.859375 
z
" id="ArialMT-103"/>
       <path d="M 40.4375 6.390625 
Q 35.546875 2.25 31.03125 0.53125 
Q 26.515625 -1.171875 21.34375 -1.171875 
Q 12.796875 -1.171875 8.203125 3 
Q 3.609375 7.171875 3.609375 13.671875 
Q 3.609375 17.484375 5.34375 20.625 
Q 7.078125 23.78125 9.890625 25.6875 
Q 12.703125 27.59375 16.21875 28.5625 
Q 18.796875 29.25 24.03125 29.890625 
Q 34.671875 31.15625 39.703125 32.90625 
Q 39.75 34.71875 39.75 35.203125 
Q 39.75 40.578125 37.25 42.78125 
Q 33.890625 45.75 27.25 45.75 
Q 21.046875 45.75 18.09375 43.578125 
Q 15.140625 41.40625 13.71875 35.890625 
L 5.125 37.0625 
Q 6.296875 42.578125 8.984375 45.96875 
Q 11.671875 49.359375 16.75 51.1875 
Q 21.828125 53.03125 28.515625 53.03125 
Q 35.15625 53.03125 39.296875 51.46875 
Q 43.453125 49.90625 45.40625 47.53125 
Q 47.359375 45.171875 48.140625 41.546875 
Q 48.578125 39.3125 48.578125 33.453125 
L 48.578125 21.734375 
Q 48.578125 9.46875 49.140625 6.21875 
Q 49.703125 2.984375 51.375 0 
L 42.1875 0 
Q 40.828125 2.734375 40.4375 6.390625 
z
M 39.703125 26.03125 
Q 34.90625 24.078125 25.34375 22.703125 
Q 19.921875 21.921875 17.671875 20.9375 
Q 15.4375 19.96875 14.203125 18.09375 
Q 12.984375 16.21875 12.984375 13.921875 
Q 12.984375 10.40625 15.640625 8.0625 
Q 18.3125 5.71875 23.4375 5.71875 
Q 28.515625 5.71875 32.46875 7.9375 
Q 36.421875 10.15625 38.28125 14.015625 
Q 39.703125 17 39.703125 22.796875 
z
" id="ArialMT-97"/>
       <path d="M 25.78125 7.859375 
L 27.046875 0.09375 
Q 23.34375 -0.6875 20.40625 -0.6875 
Q 15.625 -0.6875 12.984375 0.828125 
Q 10.359375 2.34375 9.28125 4.8125 
Q 8.203125 7.28125 8.203125 15.1875 
L 8.203125 45.015625 
L 1.765625 45.015625 
L 1.765625 51.859375 
L 8.203125 51.859375 
L 8.203125 64.703125 
L 16.9375 69.96875 
L 16.9375 51.859375 
L 25.78125 51.859375 
L 25.78125 45.015625 
L 16.9375 45.015625 
L 16.9375 14.703125 
Q 16.9375 10.9375 17.40625 9.859375 
Q 17.875 8.796875 18.921875 8.15625 
Q 19.96875 7.515625 21.921875 7.515625 
Q 23.390625 7.515625 25.78125 7.859375 
z
" id="ArialMT-116"/>
       <path d="M 3.328125 25.921875 
Q 3.328125 40.328125 11.328125 47.265625 
Q 18.015625 53.03125 27.640625 53.03125 
Q 38.328125 53.03125 45.109375 46.015625 
Q 51.90625 39.015625 51.90625 26.65625 
Q 51.90625 16.65625 48.90625 10.90625 
Q 45.90625 5.171875 40.15625 2 
Q 34.421875 -1.171875 27.640625 -1.171875 
Q 16.75 -1.171875 10.03125 5.8125 
Q 3.328125 12.796875 3.328125 25.921875 
z
M 12.359375 25.921875 
Q 12.359375 15.96875 16.703125 11.015625 
Q 21.046875 6.0625 27.640625 6.0625 
Q 34.1875 6.0625 38.53125 11.03125 
Q 42.875 16.015625 42.875 26.21875 
Q 42.875 35.84375 38.5 40.796875 
Q 34.125 45.75 27.640625 45.75 
Q 21.046875 45.75 16.703125 40.8125 
Q 12.359375 35.890625 12.359375 25.921875 
z
" id="ArialMT-111"/>
       <path d="M 6.59375 0 
L 6.59375 51.859375 
L 14.5 51.859375 
L 14.5 44.484375 
Q 20.21875 53.03125 31 53.03125 
Q 35.6875 53.03125 39.625 51.34375 
Q 43.5625 49.65625 45.515625 46.921875 
Q 47.46875 44.1875 48.25 40.4375 
Q 48.734375 37.984375 48.734375 31.890625 
L 48.734375 0 
L 39.9375 0 
L 39.9375 31.546875 
Q 39.9375 36.921875 38.90625 39.578125 
Q 37.890625 42.234375 35.28125 43.8125 
Q 32.671875 45.40625 29.15625 45.40625 
Q 23.53125 45.40625 19.453125 41.84375 
Q 15.375 38.28125 15.375 28.328125 
L 15.375 0 
z
" id="ArialMT-110"/>
       <path id="ArialMT-32"/>
       <path d="M 8.015625 0 
L 8.015625 71.578125 
L 17.484375 71.578125 
L 17.484375 42.1875 
L 54.6875 42.1875 
L 54.6875 71.578125 
L 64.15625 71.578125 
L 64.15625 0 
L 54.6875 0 
L 54.6875 33.734375 
L 17.484375 33.734375 
L 17.484375 0 
z
" id="ArialMT-72"/>
       <path d="M 6.59375 0 
L 6.59375 71.578125 
L 15.375 71.578125 
L 15.375 45.90625 
Q 21.53125 53.03125 30.90625 53.03125 
Q 36.671875 53.03125 40.921875 50.75 
Q 45.171875 48.484375 47 44.484375 
Q 48.828125 40.484375 48.828125 32.859375 
L 48.828125 0 
L 40.046875 0 
L 40.046875 32.859375 
Q 40.046875 39.453125 37.1875 42.453125 
Q 34.328125 45.453125 29.109375 45.453125 
Q 25.203125 45.453125 21.75 43.421875 
Q 18.3125 41.40625 16.84375 37.9375 
Q 15.375 34.46875 15.375 28.375 
L 15.375 0 
z
" id="ArialMT-104"/>
      </defs>
      <g style="fill:#262626;" transform="translate(74.246586 401.039844)rotate(-90)scale(0.165 -0.165)">
       <use xlink:href="#ArialMT-73"/>
       <use x="27.783203" xlink:href="#ArialMT-114"/>
       <use x="61.083984" xlink:href="#ArialMT-114"/>
       <use x="94.384766" xlink:href="#ArialMT-105"/>
       <use x="116.601562" xlink:href="#ArialMT-103"/>
       <use x="172.216797" xlink:href="#ArialMT-97"/>
       <use x="227.832031" xlink:href="#ArialMT-116"/>
       <use x="255.615234" xlink:href="#ArialMT-105"/>
       <use x="277.832031" xlink:href="#ArialMT-111"/>
       <use x="333.447266" xlink:href="#ArialMT-110"/>
       <use x="389.0625" xlink:href="#ArialMT-32"/>
       <use x="416.845703" xlink:href="#ArialMT-72"/>
       <use x="489.0625" xlink:href="#ArialMT-105"/>
       <use x="511.279297" xlink:href="#ArialMT-103"/>
       <use x="566.894531" xlink:href="#ArialMT-104"/>
      </g>
     </g>
    </g>
    <g id="xtick_2">
     <g id="text_2">
      <!-- Irrigation Intermediate -->
      <defs>
       <path d="M 42.09375 16.703125 
L 51.171875 15.578125 
Q 49.03125 7.625 43.21875 3.21875 
Q 37.40625 -1.171875 28.375 -1.171875 
Q 17 -1.171875 10.328125 5.828125 
Q 3.65625 12.84375 3.65625 25.484375 
Q 3.65625 38.578125 10.390625 45.796875 
Q 17.140625 53.03125 27.875 53.03125 
Q 38.28125 53.03125 44.875 45.953125 
Q 51.46875 38.875 51.46875 26.03125 
Q 51.46875 25.25 51.421875 23.6875 
L 12.75 23.6875 
Q 13.234375 15.140625 17.578125 10.59375 
Q 21.921875 6.0625 28.421875 6.0625 
Q 33.25 6.0625 36.671875 8.59375 
Q 40.09375 11.140625 42.09375 16.703125 
z
M 13.234375 30.90625 
L 42.1875 30.90625 
Q 41.609375 37.453125 38.875 40.71875 
Q 34.671875 45.796875 27.984375 45.796875 
Q 21.921875 45.796875 17.796875 41.75 
Q 13.671875 37.703125 13.234375 30.90625 
z
" id="ArialMT-101"/>
       <path d="M 6.59375 0 
L 6.59375 51.859375 
L 14.453125 51.859375 
L 14.453125 44.578125 
Q 16.890625 48.390625 20.9375 50.703125 
Q 25 53.03125 30.171875 53.03125 
Q 35.9375 53.03125 39.625 50.640625 
Q 43.3125 48.25 44.828125 43.953125 
Q 50.984375 53.03125 60.84375 53.03125 
Q 68.5625 53.03125 72.703125 48.75 
Q 76.859375 44.484375 76.859375 35.59375 
L 76.859375 0 
L 68.109375 0 
L 68.109375 32.671875 
Q 68.109375 37.9375 67.25 40.25 
Q 66.40625 42.578125 64.15625 43.984375 
Q 61.921875 45.40625 58.890625 45.40625 
Q 53.421875 45.40625 49.796875 41.765625 
Q 46.1875 38.140625 46.1875 30.125 
L 46.1875 0 
L 37.40625 0 
L 37.40625 33.6875 
Q 37.40625 39.546875 35.25 42.46875 
Q 33.109375 45.40625 28.21875 45.40625 
Q 24.515625 45.40625 21.359375 43.453125 
Q 18.21875 41.5 16.796875 37.734375 
Q 15.375 33.984375 15.375 26.90625 
L 15.375 0 
z
" id="ArialMT-109"/>
       <path d="M 40.234375 0 
L 40.234375 6.546875 
Q 35.296875 -1.171875 25.734375 -1.171875 
Q 19.53125 -1.171875 14.328125 2.25 
Q 9.125 5.671875 6.265625 11.796875 
Q 3.421875 17.921875 3.421875 25.875 
Q 3.421875 33.640625 6 39.96875 
Q 8.59375 46.296875 13.765625 49.65625 
Q 18.953125 53.03125 25.34375 53.03125 
Q 30.03125 53.03125 33.6875 51.046875 
Q 37.359375 49.078125 39.65625 45.90625 
L 39.65625 71.578125 
L 48.390625 71.578125 
L 48.390625 0 
z
M 12.453125 25.875 
Q 12.453125 15.921875 16.640625 10.984375 
Q 20.84375 6.0625 26.5625 6.0625 
Q 32.328125 6.0625 36.34375 10.765625 
Q 40.375 15.484375 40.375 25.140625 
Q 40.375 35.796875 36.265625 40.765625 
Q 32.171875 45.75 26.171875 45.75 
Q 20.3125 45.75 16.375 40.96875 
Q 12.453125 36.1875 12.453125 25.875 
z
" id="ArialMT-100"/>
      </defs>
      <g style="fill:#262626;" transform="translate(129.267258 458.815625)rotate(-90)scale(0.165 -0.165)">
       <use xlink:href="#ArialMT-73"/>
       <use x="27.783203" xlink:href="#ArialMT-114"/>
       <use x="61.083984" xlink:href="#ArialMT-114"/>
       <use x="94.384766" xlink:href="#ArialMT-105"/>
       <use x="116.601562" xlink:href="#ArialMT-103"/>
       <use x="172.216797" xlink:href="#ArialMT-97"/>
       <use x="227.832031" xlink:href="#ArialMT-116"/>
       <use x="255.615234" xlink:href="#ArialMT-105"/>
       <use x="277.832031" xlink:href="#ArialMT-111"/>
       <use x="333.447266" xlink:href="#ArialMT-110"/>
       <use x="389.0625" xlink:href="#ArialMT-32"/>
       <use x="416.845703" xlink:href="#ArialMT-73"/>
       <use x="444.628906" xlink:href="#ArialMT-110"/>
       <use x="500.244141" xlink:href="#ArialMT-116"/>
       <use x="528.027344" xlink:href="#ArialMT-101"/>
       <use x="583.642578" xlink:href="#ArialMT-114"/>
       <use x="616.943359" xlink:href="#ArialMT-109"/>
       <use x="700.244141" xlink:href="#ArialMT-101"/>
       <use x="755.859375" xlink:href="#ArialMT-100"/>
       <use x="811.474609" xlink:href="#ArialMT-105"/>
       <use x="833.691406" xlink:href="#ArialMT-97"/>
       <use x="889.306641" xlink:href="#ArialMT-116"/>
       <use x="917.089844" xlink:href="#ArialMT-101"/>
      </g>
     </g>
    </g>
    <g id="xtick_3">
     <g id="text_3">
      <!-- Rain-fed High -->
      <defs>
       <path d="M 7.859375 0 
L 7.859375 71.578125 
L 39.59375 71.578125 
Q 49.171875 71.578125 54.140625 69.640625 
Q 59.125 67.71875 62.109375 62.828125 
Q 65.09375 57.953125 65.09375 52.046875 
Q 65.09375 44.4375 60.15625 39.203125 
Q 55.21875 33.984375 44.921875 32.5625 
Q 48.6875 30.765625 50.640625 29 
Q 54.78125 25.203125 58.5 19.484375 
L 70.953125 0 
L 59.03125 0 
L 49.5625 14.890625 
Q 45.40625 21.34375 42.71875 24.75 
Q 40.046875 28.171875 37.921875 29.53125 
Q 35.796875 30.90625 33.59375 31.453125 
Q 31.984375 31.78125 28.328125 31.78125 
L 17.328125 31.78125 
L 17.328125 0 
z
M 17.328125 39.984375 
L 37.703125 39.984375 
Q 44.1875 39.984375 47.84375 41.328125 
Q 51.515625 42.671875 53.421875 45.625 
Q 55.328125 48.578125 55.328125 52.046875 
Q 55.328125 57.125 51.640625 60.390625 
Q 47.953125 63.671875 39.984375 63.671875 
L 17.328125 63.671875 
z
" id="ArialMT-82"/>
       <path d="M 3.171875 21.484375 
L 3.171875 30.328125 
L 30.171875 30.328125 
L 30.171875 21.484375 
z
" id="ArialMT-45"/>
       <path d="M 8.6875 0 
L 8.6875 45.015625 
L 0.921875 45.015625 
L 0.921875 51.859375 
L 8.6875 51.859375 
L 8.6875 57.375 
Q 8.6875 62.59375 9.625 65.140625 
Q 10.890625 68.5625 14.078125 70.671875 
Q 17.28125 72.796875 23.046875 72.796875 
Q 26.765625 72.796875 31.25 71.921875 
L 29.9375 64.265625 
Q 27.203125 64.75 24.75 64.75 
Q 20.75 64.75 19.09375 63.03125 
Q 17.4375 61.328125 17.4375 56.640625 
L 17.4375 51.859375 
L 27.546875 51.859375 
L 27.546875 45.015625 
L 17.4375 45.015625 
L 17.4375 0 
z
" id="ArialMT-102"/>
      </defs>
      <g style="fill:#262626;" transform="translate(184.388477 399.211953)rotate(-90)scale(0.165 -0.165)">
       <use xlink:href="#ArialMT-82"/>
       <use x="72.216797" xlink:href="#ArialMT-97"/>
       <use x="127.832031" xlink:href="#ArialMT-105"/>
       <use x="150.048828" xlink:href="#ArialMT-110"/>
       <use x="205.664062" xlink:href="#ArialMT-45"/>
       <use x="238.964844" xlink:href="#ArialMT-102"/>
       <use x="266.748047" xlink:href="#ArialMT-101"/>
       <use x="322.363281" xlink:href="#ArialMT-100"/>
       <use x="377.978516" xlink:href="#ArialMT-32"/>
       <use x="405.761719" xlink:href="#ArialMT-72"/>
       <use x="477.978516" xlink:href="#ArialMT-105"/>
       <use x="500.195312" xlink:href="#ArialMT-103"/>
       <use x="555.810547" xlink:href="#ArialMT-104"/>
      </g>
     </g>
    </g>
    <g id="xtick_4">
     <g id="text_4">
      <!-- Rain-fed Intermediate -->
      <g style="fill:#262626;" transform="translate(239.405282 456.987734)rotate(-90)scale(0.165 -0.165)">
       <use xlink:href="#ArialMT-82"/>
       <use x="72.216797" xlink:href="#ArialMT-97"/>
       <use x="127.832031" xlink:href="#ArialMT-105"/>
       <use x="150.048828" xlink:href="#ArialMT-110"/>
       <use x="205.664062" xlink:href="#ArialMT-45"/>
       <use x="238.964844" xlink:href="#ArialMT-102"/>
       <use x="266.748047" xlink:href="#ArialMT-101"/>
       <use x="322.363281" xlink:href="#ArialMT-100"/>
       <use x="377.978516" xlink:href="#ArialMT-32"/>
       <use x="405.761719" xlink:href="#ArialMT-73"/>
       <use x="433.544922" xlink:href="#ArialMT-110"/>
       <use x="489.160156" xlink:href="#ArialMT-116"/>
       <use x="516.943359" xlink:href="#ArialMT-101"/>
       <use x="572.558594" xlink:href="#ArialMT-114"/>
       <use x="605.859375" xlink:href="#ArialMT-109"/>
       <use x="689.160156" xlink:href="#ArialMT-101"/>
       <use x="744.775391" xlink:href="#ArialMT-100"/>
       <use x="800.390625" xlink:href="#ArialMT-105"/>
       <use x="822.607422" xlink:href="#ArialMT-97"/>
       <use x="878.222656" xlink:href="#ArialMT-116"/>
       <use x="906.005859" xlink:href="#ArialMT-101"/>
      </g>
     </g>
    </g>
    <g id="xtick_5">
     <g id="text_5">
      <!-- Rain-fed Low -->
      <defs>
       <path d="M 7.328125 0 
L 7.328125 71.578125 
L 16.796875 71.578125 
L 16.796875 8.453125 
L 52.046875 8.453125 
L 52.046875 0 
z
" id="ArialMT-76"/>
       <path d="M 16.15625 0 
L 0.296875 51.859375 
L 9.375 51.859375 
L 17.625 21.921875 
L 20.703125 10.796875 
Q 20.90625 11.625 23.390625 21.484375 
L 31.640625 51.859375 
L 40.671875 51.859375 
L 48.4375 21.78125 
L 51.03125 11.859375 
L 54 21.875 
L 62.890625 51.859375 
L 71.4375 51.859375 
L 55.21875 0 
L 46.09375 0 
L 37.84375 31.0625 
L 35.84375 39.890625 
L 25.34375 0 
z
" id="ArialMT-119"/>
      </defs>
      <g style="fill:#262626;" transform="translate(294.425954 395.545859)rotate(-90)scale(0.165 -0.165)">
       <use xlink:href="#ArialMT-82"/>
       <use x="72.216797" xlink:href="#ArialMT-97"/>
       <use x="127.832031" xlink:href="#ArialMT-105"/>
       <use x="150.048828" xlink:href="#ArialMT-110"/>
       <use x="205.664062" xlink:href="#ArialMT-45"/>
       <use x="238.964844" xlink:href="#ArialMT-102"/>
       <use x="266.748047" xlink:href="#ArialMT-101"/>
       <use x="322.363281" xlink:href="#ArialMT-100"/>
       <use x="377.978516" xlink:href="#ArialMT-32"/>
       <use x="405.761719" xlink:href="#ArialMT-76"/>
       <use x="461.376953" xlink:href="#ArialMT-111"/>
       <use x="516.992188" xlink:href="#ArialMT-119"/>
      </g>
     </g>
    </g>
   </g>
   <g id="matplotlib.axis_2">
    <g id="ytick_1">
     <g id="text_6">
      <!-- 0 -->
      <defs>
       <path d="M 4.15625 35.296875 
Q 4.15625 48 6.765625 55.734375 
Q 9.375 63.484375 14.515625 67.671875 
Q 19.671875 71.875 27.484375 71.875 
Q 33.25 71.875 37.59375 69.546875 
Q 41.9375 67.234375 44.765625 62.859375 
Q 47.609375 58.5 49.21875 52.21875 
Q 50.828125 45.953125 50.828125 35.296875 
Q 50.828125 22.703125 48.234375 14.96875 
Q 45.65625 7.234375 40.5 3 
Q 35.359375 -1.21875 27.484375 -1.21875 
Q 17.140625 -1.21875 11.234375 6.203125 
Q 4.15625 15.140625 4.15625 35.296875 
z
M 13.1875 35.296875 
Q 13.1875 17.671875 17.3125 11.828125 
Q 21.4375 6 27.484375 6 
Q 33.546875 6 37.671875 11.859375 
Q 41.796875 17.71875 41.796875 35.296875 
Q 41.796875 52.984375 37.671875 58.78125 
Q 33.546875 64.59375 27.390625 64.59375 
Q 21.34375 64.59375 17.71875 59.46875 
Q 13.1875 52.9375 13.1875 35.296875 
z
" id="ArialMT-48"/>
      </defs>
      <g style="fill:#262626;" transform="translate(20.891875 280.163491)scale(0.165 -0.165)">
       <use xlink:href="#ArialMT-48"/>
      </g>
     </g>
    </g>
    <g id="ytick_2">
     <g id="text_7">
      <!-- 2 -->
      <defs>
       <path d="M 50.34375 8.453125 
L 50.34375 0 
L 3.03125 0 
Q 2.9375 3.171875 4.046875 6.109375 
Q 5.859375 10.9375 9.828125 15.625 
Q 13.8125 20.3125 21.34375 26.46875 
Q 33.015625 36.03125 37.109375 41.625 
Q 41.21875 47.21875 41.21875 52.203125 
Q 41.21875 57.421875 37.46875 61 
Q 33.734375 64.59375 27.734375 64.59375 
Q 21.390625 64.59375 17.578125 60.78125 
Q 13.765625 56.984375 13.71875 50.25 
L 4.6875 51.171875 
Q 5.609375 61.28125 11.65625 66.578125 
Q 17.71875 71.875 27.9375 71.875 
Q 38.234375 71.875 44.234375 66.15625 
Q 50.25 60.453125 50.25 52 
Q 50.25 47.703125 48.484375 43.546875 
Q 46.734375 39.40625 42.65625 34.8125 
Q 38.578125 30.21875 29.109375 22.21875 
Q 21.1875 15.578125 18.9375 13.203125 
Q 16.703125 10.84375 15.234375 8.453125 
z
" id="ArialMT-50"/>
      </defs>
      <g style="fill:#262626;" transform="translate(20.891875 229.571405)scale(0.165 -0.165)">
       <use xlink:href="#ArialMT-50"/>
      </g>
     </g>
    </g>
    <g id="ytick_3">
     <g id="text_8">
      <!-- 4 -->
      <defs>
       <path d="M 32.328125 0 
L 32.328125 17.140625 
L 1.265625 17.140625 
L 1.265625 25.203125 
L 33.9375 71.578125 
L 41.109375 71.578125 
L 41.109375 25.203125 
L 50.78125 25.203125 
L 50.78125 17.140625 
L 41.109375 17.140625 
L 41.109375 0 
z
M 32.328125 25.203125 
L 32.328125 57.46875 
L 9.90625 25.203125 
z
" id="ArialMT-52"/>
      </defs>
      <g style="fill:#262626;" transform="translate(20.891875 178.979318)scale(0.165 -0.165)">
       <use xlink:href="#ArialMT-52"/>
      </g>
     </g>
    </g>
    <g id="ytick_4">
     <g id="text_9">
      <!-- 6 -->
      <defs>
       <path d="M 49.75 54.046875 
L 41.015625 53.375 
Q 39.84375 58.546875 37.703125 60.890625 
Q 34.125 64.65625 28.90625 64.65625 
Q 24.703125 64.65625 21.53125 62.3125 
Q 17.390625 59.28125 14.984375 53.46875 
Q 12.59375 47.65625 12.5 36.921875 
Q 15.671875 41.75 20.265625 44.09375 
Q 24.859375 46.4375 29.890625 46.4375 
Q 38.671875 46.4375 44.84375 39.96875 
Q 51.03125 33.5 51.03125 23.25 
Q 51.03125 16.5 48.125 10.71875 
Q 45.21875 4.9375 40.140625 1.859375 
Q 35.0625 -1.21875 28.609375 -1.21875 
Q 17.625 -1.21875 10.6875 6.859375 
Q 3.765625 14.9375 3.765625 33.5 
Q 3.765625 54.25 11.421875 63.671875 
Q 18.109375 71.875 29.4375 71.875 
Q 37.890625 71.875 43.28125 67.140625 
Q 48.6875 62.40625 49.75 54.046875 
z
M 13.875 23.1875 
Q 13.875 18.65625 15.796875 14.5 
Q 17.71875 10.359375 21.1875 8.171875 
Q 24.65625 6 28.46875 6 
Q 34.03125 6 38.03125 10.484375 
Q 42.046875 14.984375 42.046875 22.703125 
Q 42.046875 30.125 38.078125 34.390625 
Q 34.125 38.671875 28.125 38.671875 
Q 22.171875 38.671875 18.015625 34.390625 
Q 13.875 30.125 13.875 23.1875 
z
" id="ArialMT-54"/>
      </defs>
      <g style="fill:#262626;" transform="translate(20.891875 128.387232)scale(0.165 -0.165)">
       <use xlink:href="#ArialMT-54"/>
      </g>
     </g>
    </g>
    <g id="ytick_5">
     <g id="text_10">
      <!-- 8 -->
      <defs>
       <path d="M 17.671875 38.8125 
Q 12.203125 40.828125 9.5625 44.53125 
Q 6.9375 48.25 6.9375 53.421875 
Q 6.9375 61.234375 12.546875 66.546875 
Q 18.171875 71.875 27.484375 71.875 
Q 36.859375 71.875 42.578125 66.421875 
Q 48.296875 60.984375 48.296875 53.171875 
Q 48.296875 48.1875 45.671875 44.5 
Q 43.0625 40.828125 37.75 38.8125 
Q 44.34375 36.671875 47.78125 31.875 
Q 51.21875 27.09375 51.21875 20.453125 
Q 51.21875 11.28125 44.71875 5.03125 
Q 38.234375 -1.21875 27.640625 -1.21875 
Q 17.046875 -1.21875 10.546875 5.046875 
Q 4.046875 11.328125 4.046875 20.703125 
Q 4.046875 27.6875 7.59375 32.390625 
Q 11.140625 37.109375 17.671875 38.8125 
z
M 15.921875 53.71875 
Q 15.921875 48.640625 19.1875 45.40625 
Q 22.46875 42.1875 27.6875 42.1875 
Q 32.765625 42.1875 36.015625 45.375 
Q 39.265625 48.578125 39.265625 53.21875 
Q 39.265625 58.0625 35.90625 61.359375 
Q 32.5625 64.65625 27.59375 64.65625 
Q 22.5625 64.65625 19.234375 61.421875 
Q 15.921875 58.203125 15.921875 53.71875 
z
M 13.09375 20.65625 
Q 13.09375 16.890625 14.875 13.375 
Q 16.65625 9.859375 20.171875 7.921875 
Q 23.6875 6 27.734375 6 
Q 34.03125 6 38.125 10.046875 
Q 42.234375 14.109375 42.234375 20.359375 
Q 42.234375 26.703125 38.015625 30.859375 
Q 33.796875 35.015625 27.4375 35.015625 
Q 21.234375 35.015625 17.15625 30.90625 
Q 13.09375 26.8125 13.09375 20.65625 
z
" id="ArialMT-56"/>
      </defs>
      <g style="fill:#262626;" transform="translate(20.891875 77.795146)scale(0.165 -0.165)">
       <use xlink:href="#ArialMT-56"/>
      </g>
     </g>
    </g>
    <g id="text_11">
     <!-- Yield (t/ha) -->
     <defs>
      <path d="M 27.875 0 
L 27.875 30.328125 
L 0.296875 71.578125 
L 11.8125 71.578125 
L 25.921875 50 
Q 29.828125 43.953125 33.203125 37.890625 
Q 36.421875 43.5 41.015625 50.53125 
L 54.890625 71.578125 
L 65.921875 71.578125 
L 37.359375 30.328125 
L 37.359375 0 
z
" id="ArialMT-89"/>
      <path d="M 6.390625 0 
L 6.390625 71.578125 
L 15.1875 71.578125 
L 15.1875 0 
z
" id="ArialMT-108"/>
      <path d="M 23.390625 -21.046875 
Q 16.109375 -11.859375 11.078125 0.4375 
Q 6.0625 12.75 6.0625 25.921875 
Q 6.0625 37.546875 9.8125 48.1875 
Q 14.203125 60.546875 23.390625 72.796875 
L 29.6875 72.796875 
Q 23.78125 62.640625 21.875 58.296875 
Q 18.890625 51.5625 17.1875 44.234375 
Q 15.09375 35.109375 15.09375 25.875 
Q 15.09375 2.390625 29.6875 -21.046875 
z
" id="ArialMT-40"/>
      <path d="M 0 -1.21875 
L 20.75 72.796875 
L 27.78125 72.796875 
L 7.078125 -1.21875 
z
" id="ArialMT-47"/>
      <path d="M 12.359375 -21.046875 
L 6.0625 -21.046875 
Q 20.65625 2.390625 20.65625 25.875 
Q 20.65625 35.0625 18.5625 44.09375 
Q 16.890625 51.421875 13.921875 58.15625 
Q 12.015625 62.546875 6.0625 72.796875 
L 12.359375 72.796875 
Q 21.53125 60.546875 25.921875 48.1875 
Q 29.6875 37.546875 29.6875 25.921875 
Q 29.6875 12.75 24.625 0.4375 
Q 19.578125 -11.859375 12.359375 -21.046875 
z
" id="ArialMT-41"/>
     </defs>
     <g style="fill:#262626;" transform="translate(13.103438 202.028438)rotate(-90)scale(0.18 -0.18)">
      <use xlink:href="#ArialMT-89"/>
      <use x="66.652344" xlink:href="#ArialMT-105"/>
      <use x="88.869141" xlink:href="#ArialMT-101"/>
      <use x="144.484375" xlink:href="#ArialMT-108"/>
      <use x="166.701172" xlink:href="#ArialMT-100"/>
      <use x="222.316406" xlink:href="#ArialMT-32"/>
      <use x="250.099609" xlink:href="#ArialMT-40"/>
      <use x="283.400391" xlink:href="#ArialMT-116"/>
      <use x="311.183594" xlink:href="#ArialMT-47"/>
      <use x="338.966797" xlink:href="#ArialMT-104"/>
      <use x="394.582031" xlink:href="#ArialMT-97"/>
      <use x="450.197266" xlink:href="#ArialMT-41"/>
     </g>
    </g>
   </g>
   <g id="PolyCollection_1">
    <defs>
     <path d="M 59.106921 -184.55733 
L 59.040326 -184.55733 
L 59.04975 -186.895553 
L 59.064824 -189.233776 
L 59.071956 -191.571999 
L 59.073461 -193.910222 
L 59.073615 -196.248445 
L 59.073623 -198.586668 
L 59.073623 -200.924892 
L 59.073623 -203.263115 
L 59.073623 -205.601338 
L 59.073623 -207.939561 
L 59.073623 -210.277784 
L 59.073623 -212.616007 
L 59.073623 -214.95423 
L 59.073623 -217.292454 
L 59.073623 -219.630677 
L 59.073623 -221.9689 
L 59.073623 -224.307123 
L 59.073623 -226.645346 
L 59.073623 -228.983569 
L 59.073623 -231.321792 
L 59.073623 -233.660015 
L 59.073623 -235.998239 
L 59.073623 -238.336462 
L 59.073623 -240.674685 
L 59.073623 -243.012908 
L 59.073623 -245.351131 
L 59.073623 -247.689354 
L 59.073623 -250.027577 
L 59.073623 -252.365801 
L 59.073623 -254.704024 
L 59.073623 -257.042247 
L 59.073623 -259.38047 
L 59.073623 -261.718693 
L 59.073623 -264.056916 
L 59.073623 -266.395139 
L 59.073623 -268.733363 
L 59.073623 -271.071586 
L 59.073623 -273.409809 
L 59.073623 -275.748032 
L 59.073623 -278.086255 
L 59.073623 -280.424478 
L 59.073623 -282.762701 
L 59.073623 -285.100925 
L 59.073623 -287.439148 
L 59.073623 -289.777371 
L 59.073623 -292.115594 
L 59.073623 -294.453817 
L 59.073623 -296.79204 
L 59.073623 -299.130263 
L 59.073623 -301.468487 
L 59.073623 -303.80671 
L 59.073623 -306.144933 
L 59.073623 -308.483156 
L 59.073623 -310.821379 
L 59.073623 -313.159602 
L 59.073623 -315.497825 
L 59.073623 -317.836049 
L 59.073619 -320.174272 
L 59.073523 -322.512495 
L 59.072485 -324.850718 
L 59.06657 -327.188941 
L 59.047974 -329.527164 
L 59.011139 -331.865387 
L 58.954426 -334.203611 
L 58.883318 -336.541834 
L 58.820389 -338.880057 
L 58.783877 -341.21828 
L 58.76485 -343.556503 
L 58.743478 -345.894726 
L 58.709353 -348.232949 
L 58.666259 -350.571173 
L 58.632908 -352.909396 
L 58.603918 -355.247619 
L 58.550639 -357.585842 
L 58.511191 -359.924065 
L 58.53519 -362.262288 
L 58.557573 -364.600511 
L 58.469053 -366.938735 
L 58.276232 -369.276958 
L 58.112868 -371.615181 
L 58.029917 -373.953404 
L 57.917956 -376.291627 
L 57.711225 -378.62985 
L 57.431276 -380.968073 
L 56.894761 -383.306296 
L 55.904037 -385.64452 
L 54.751437 -387.982743 
L 53.685486 -390.320966 
L 52.212141 -392.659189 
L 50.073008 -394.997412 
L 48.350022 -397.335635 
L 48.069489 -399.673858 
L 48.805121 -402.012082 
L 49.910969 -404.350305 
L 51.46854 -406.688528 
L 53.216629 -409.026751 
L 54.617072 -411.364974 
L 55.922377 -413.703197 
L 57.38569 -416.04142 
L 60.761557 -416.04142 
L 60.761557 -416.04142 
L 62.22487 -413.703197 
L 63.530175 -411.364974 
L 64.930618 -409.026751 
L 66.678707 -406.688528 
L 68.236278 -404.350305 
L 69.342126 -402.012082 
L 70.077758 -399.673858 
L 69.797225 -397.335635 
L 68.074239 -394.997412 
L 65.935106 -392.659189 
L 64.461761 -390.320966 
L 63.39581 -387.982743 
L 62.24321 -385.64452 
L 61.252485 -383.306296 
L 60.715971 -380.968073 
L 60.436022 -378.62985 
L 60.229291 -376.291627 
L 60.11733 -373.953404 
L 60.034379 -371.615181 
L 59.871015 -369.276958 
L 59.678194 -366.938735 
L 59.589674 -364.600511 
L 59.612057 -362.262288 
L 59.636056 -359.924065 
L 59.596608 -357.585842 
L 59.543329 -355.247619 
L 59.514339 -352.909396 
L 59.480988 -350.571173 
L 59.437894 -348.232949 
L 59.403769 -345.894726 
L 59.382397 -343.556503 
L 59.36337 -341.21828 
L 59.326858 -338.880057 
L 59.263929 -336.541834 
L 59.192821 -334.203611 
L 59.136107 -331.865387 
L 59.099273 -329.527164 
L 59.080677 -327.188941 
L 59.074762 -324.850718 
L 59.073724 -322.512495 
L 59.073628 -320.174272 
L 59.073624 -317.836049 
L 59.073623 -315.497825 
L 59.073623 -313.159602 
L 59.073623 -310.821379 
L 59.073623 -308.483156 
L 59.073623 -306.144933 
L 59.073623 -303.80671 
L 59.073623 -301.468487 
L 59.073623 -299.130263 
L 59.073623 -296.79204 
L 59.073623 -294.453817 
L 59.073623 -292.115594 
L 59.073623 -289.777371 
L 59.073623 -287.439148 
L 59.073623 -285.100925 
L 59.073623 -282.762701 
L 59.073623 -280.424478 
L 59.073623 -278.086255 
L 59.073623 -275.748032 
L 59.073623 -273.409809 
L 59.073623 -271.071586 
L 59.073623 -268.733363 
L 59.073623 -266.395139 
L 59.073623 -264.056916 
L 59.073623 -261.718693 
L 59.073623 -259.38047 
L 59.073623 -257.042247 
L 59.073623 -254.704024 
L 59.073623 -252.365801 
L 59.073623 -250.027577 
L 59.073623 -247.689354 
L 59.073623 -245.351131 
L 59.073623 -243.012908 
L 59.073623 -240.674685 
L 59.073623 -238.336462 
L 59.073623 -235.998239 
L 59.073623 -233.660015 
L 59.073623 -231.321792 
L 59.073623 -228.983569 
L 59.073623 -226.645346 
L 59.073623 -224.307123 
L 59.073623 -221.9689 
L 59.073623 -219.630677 
L 59.073623 -217.292454 
L 59.073623 -214.95423 
L 59.073623 -212.616007 
L 59.073623 -210.277784 
L 59.073623 -207.939561 
L 59.073623 -205.601338 
L 59.073623 -203.263115 
L 59.073623 -200.924892 
L 59.073624 -198.586668 
L 59.073632 -196.248445 
L 59.073786 -193.910222 
L 59.075291 -191.571999 
L 59.082423 -189.233776 
L 59.097497 -186.895553 
L 59.106921 -184.55733 
z
" id="m3ccd6dc48d" style="stroke:#444444;stroke-width:1.5;"/>
    </defs>
    <g clip-path="url(#p6aae6138ce)">
     <use style="fill:#e68193;stroke:#444444;stroke-width:1.5;" x="0" xlink:href="#m3ccd6dc48d" y="458.815625"/>
    </g>
   </g>
   <g id="PolyCollection_2">
    <defs>
     <path d="M 81.56699 -314.473918 
L 80.596794 -314.473918 
L 80.59458 -315.424591 
L 80.59384 -316.375264 
L 80.59446 -317.325937 
L 80.596295 -318.27661 
L 80.599169 -319.227283 
L 80.602881 -320.177956 
L 80.607202 -321.128629 
L 80.611884 -322.079302 
L 80.616661 -323.029975 
L 80.621255 -323.980648 
L 80.625377 -324.931321 
L 80.628738 -325.881994 
L 80.631049 -326.832667 
L 80.632026 -327.78334 
L 80.6314 -328.734013 
L 80.628913 -329.684686 
L 80.624333 -330.635359 
L 80.617448 -331.586032 
L 80.608076 -332.536705 
L 80.596066 -333.487378 
L 80.581299 -334.438051 
L 80.563692 -335.388724 
L 80.543197 -336.339397 
L 80.519801 -337.29007 
L 80.493527 -338.240743 
L 80.464433 -339.191416 
L 80.432608 -340.142089 
L 80.398168 -341.092762 
L 80.361258 -342.043435 
L 80.32204 -342.994108 
L 80.280698 -343.944781 
L 80.237422 -344.895454 
L 80.192412 -345.846127 
L 80.145868 -346.7968 
L 80.097984 -347.747473 
L 80.048943 -348.698146 
L 79.998913 -349.648819 
L 79.94804 -350.599492 
L 79.896445 -351.550165 
L 79.844215 -352.500838 
L 79.791407 -353.451511 
L 79.738041 -354.402184 
L 79.684096 -355.352857 
L 79.629514 -356.30353 
L 79.574197 -357.254203 
L 79.518011 -358.204876 
L 79.460783 -359.155549 
L 79.402311 -360.106222 
L 79.342362 -361.056895 
L 79.280683 -362.007568 
L 79.217004 -362.958241 
L 79.151045 -363.908914 
L 79.082525 -364.859587 
L 79.011169 -365.81026 
L 78.93672 -366.760933 
L 78.858944 -367.711606 
L 78.777641 -368.662279 
L 78.692656 -369.612952 
L 78.603884 -370.563625 
L 78.511283 -371.514298 
L 78.414878 -372.464972 
L 78.31477 -373.415645 
L 78.211143 -374.366318 
L 78.104267 -375.316991 
L 77.9945 -376.267664 
L 77.882294 -377.218337 
L 77.768192 -378.16901 
L 77.652829 -379.119683 
L 77.536923 -380.070356 
L 77.421278 -381.021029 
L 77.306767 -381.971702 
L 77.194331 -382.922375 
L 77.084962 -383.873048 
L 76.979692 -384.823721 
L 76.879579 -385.774394 
L 76.785693 -386.725067 
L 76.699094 -387.67574 
L 76.620821 -388.626413 
L 76.551869 -389.577086 
L 76.493175 -390.527759 
L 76.4456 -391.478432 
L 76.409912 -392.429105 
L 76.386772 -393.379778 
L 76.376721 -394.330451 
L 76.380167 -395.281124 
L 76.397379 -396.231797 
L 76.428476 -397.18247 
L 76.473429 -398.133143 
L 76.532056 -399.083816 
L 76.604025 -400.034489 
L 76.688858 -400.985162 
L 76.78594 -401.935835 
L 76.894529 -402.886508 
L 77.013764 -403.837181 
L 77.142687 -404.787854 
L 77.280251 -405.738527 
L 77.425341 -406.6892 
L 77.576791 -407.639873 
L 77.733402 -408.590546 
L 84.430382 -408.590546 
L 84.430382 -408.590546 
L 84.586994 -407.639873 
L 84.738444 -406.6892 
L 84.883534 -405.738527 
L 85.021097 -404.787854 
L 85.15002 -403.837181 
L 85.269256 -402.886508 
L 85.377844 -401.935835 
L 85.474926 -400.985162 
L 85.559759 -400.034489 
L 85.631728 -399.083816 
L 85.690355 -398.133143 
L 85.735308 -397.18247 
L 85.766406 -396.231797 
L 85.783617 -395.281124 
L 85.787063 -394.330451 
L 85.777012 -393.379778 
L 85.753873 -392.429105 
L 85.718185 -391.478432 
L 85.67061 -390.527759 
L 85.611916 -389.577086 
L 85.542964 -388.626413 
L 85.46469 -387.67574 
L 85.378092 -386.725067 
L 85.284205 -385.774394 
L 85.184093 -384.823721 
L 85.078823 -383.873048 
L 84.969453 -382.922375 
L 84.857017 -381.971702 
L 84.742507 -381.021029 
L 84.626861 -380.070356 
L 84.510956 -379.119683 
L 84.395592 -378.16901 
L 84.281491 -377.218337 
L 84.169285 -376.267664 
L 84.059518 -375.316991 
L 83.952641 -374.366318 
L 83.849014 -373.415645 
L 83.748907 -372.464972 
L 83.652501 -371.514298 
L 83.5599 -370.563625 
L 83.471128 -369.612952 
L 83.386143 -368.662279 
L 83.30484 -367.711606 
L 83.227064 -366.760933 
L 83.152615 -365.81026 
L 83.08126 -364.859587 
L 83.012739 -363.908914 
L 82.94678 -362.958241 
L 82.883101 -362.007568 
L 82.821422 -361.056895 
L 82.761474 -360.106222 
L 82.703001 -359.155549 
L 82.645774 -358.204876 
L 82.589587 -357.254203 
L 82.534271 -356.30353 
L 82.479689 -355.352857 
L 82.425744 -354.402184 
L 82.372377 -353.451511 
L 82.31957 -352.500838 
L 82.26734 -351.550165 
L 82.215744 -350.599492 
L 82.164871 -349.648819 
L 82.114842 -348.698146 
L 82.065801 -347.747473 
L 82.017917 -346.7968 
L 81.971372 -345.846127 
L 81.926363 -344.895454 
L 81.883087 -343.944781 
L 81.841744 -342.994108 
L 81.802527 -342.043435 
L 81.765616 -341.092762 
L 81.731177 -340.142089 
L 81.699351 -339.191416 
L 81.670257 -338.240743 
L 81.643984 -337.29007 
L 81.620588 -336.339397 
L 81.600092 -335.388724 
L 81.582485 -334.438051 
L 81.567718 -333.487378 
L 81.555708 -332.536705 
L 81.546337 -331.586032 
L 81.539452 -330.635359 
L 81.534871 -329.684686 
L 81.532385 -328.734013 
L 81.531758 -327.78334 
L 81.532736 -326.832667 
L 81.535046 -325.881994 
L 81.538407 -324.931321 
L 81.54253 -323.980648 
L 81.547123 -323.029975 
L 81.551901 -322.079302 
L 81.556583 -321.128629 
L 81.560904 -320.177956 
L 81.564615 -319.227283 
L 81.56749 -318.27661 
L 81.569324 -317.325937 
L 81.569944 -316.375264 
L 81.569204 -315.424591 
L 81.56699 -314.473918 
z
" id="meccef5238f" style="stroke:#444444;stroke-width:1.5;"/>
    </defs>
    <g clip-path="url(#p6aae6138ce)">
     <use style="fill:#459e97;stroke:#444444;stroke-width:1.5;" x="0" xlink:href="#meccef5238f" y="458.815625"/>
    </g>
   </g>
   <g id="PolyCollection_3">
    <defs>
     <path d="M 114.121328 -184.55733 
L 114.067263 -184.55733 
L 114.071067 -186.101155 
L 114.079559 -187.64498 
L 114.087393 -189.188805 
L 114.091908 -190.73263 
L 114.093686 -192.276455 
L 114.094181 -193.82028 
L 114.094279 -195.364105 
L 114.094294 -196.907931 
L 114.094295 -198.451756 
L 114.094295 -199.995581 
L 114.094295 -201.539406 
L 114.094295 -203.083231 
L 114.094295 -204.627056 
L 114.094295 -206.170881 
L 114.094295 -207.714706 
L 114.094295 -209.258532 
L 114.094295 -210.802357 
L 114.094295 -212.346182 
L 114.094295 -213.890007 
L 114.094295 -215.433832 
L 114.094295 -216.977657 
L 114.094295 -218.521482 
L 114.094295 -220.065308 
L 114.094295 -221.609133 
L 114.094295 -223.152958 
L 114.094295 -224.696783 
L 114.094295 -226.240608 
L 114.094295 -227.784433 
L 114.094295 -229.328258 
L 114.094295 -230.872083 
L 114.094295 -232.415909 
L 114.094295 -233.959734 
L 114.094295 -235.503559 
L 114.094295 -237.047384 
L 114.094295 -238.591209 
L 114.094295 -240.135034 
L 114.094295 -241.678859 
L 114.094295 -243.222684 
L 114.094295 -244.76651 
L 114.094295 -246.310335 
L 114.094295 -247.85416 
L 114.094295 -249.397985 
L 114.094295 -250.94181 
L 114.094295 -252.485635 
L 114.094295 -254.02946 
L 114.094295 -255.573285 
L 114.094295 -257.117111 
L 114.094295 -258.660936 
L 114.094294 -260.204761 
L 114.094283 -261.748586 
L 114.094195 -263.292411 
L 114.093686 -264.836236 
L 114.091475 -266.380061 
L 114.084157 -267.923886 
L 114.065146 -269.467712 
L 114.024577 -271.011537 
L 113.949838 -272.555362 
L 113.828081 -274.099187 
L 113.655952 -275.643012 
L 113.45354 -277.186837 
L 113.264365 -278.730662 
L 113.132628 -280.274488 
L 113.075597 -281.818313 
L 113.073148 -283.362138 
L 113.081467 -284.905963 
L 113.064086 -286.449788 
L 113.018366 -287.993613 
L 112.971927 -289.537438 
L 112.951514 -291.081263 
L 112.960243 -292.625089 
L 112.984588 -294.168914 
L 113.010211 -295.712739 
L 113.028889 -297.256564 
L 113.043689 -298.800389 
L 113.068988 -300.344214 
L 113.115888 -301.888039 
L 113.17711 -303.431864 
L 113.229918 -304.97569 
L 113.254117 -306.519515 
L 113.245743 -308.06334 
L 113.20907 -309.607165 
L 113.129119 -311.15099 
L 112.943703 -312.694815 
L 112.545951 -314.23864 
L 111.844723 -315.782465 
L 110.835668 -317.326291 
L 109.575273 -318.870116 
L 108.089138 -320.413941 
L 106.413363 -321.957766 
L 104.771581 -323.501591 
L 103.566405 -325.045416 
L 103.090161 -326.589241 
L 103.349551 -328.133067 
L 104.206848 -329.676892 
L 105.515492 -331.220717 
L 107.090082 -332.764542 
L 108.73392 -334.308367 
L 110.323118 -335.852192 
L 111.75351 -337.396017 
L 116.435081 -337.396017 
L 116.435081 -337.396017 
L 117.865473 -335.852192 
L 119.454671 -334.308367 
L 121.098509 -332.764542 
L 122.673099 -331.220717 
L 123.981743 -329.676892 
L 124.83904 -328.133067 
L 125.09843 -326.589241 
L 124.622186 -325.045416 
L 123.41701 -323.501591 
L 121.775228 -321.957766 
L 120.099453 -320.413941 
L 118.613318 -318.870116 
L 117.352923 -317.326291 
L 116.343868 -315.782465 
L 115.64264 -314.23864 
L 115.244887 -312.694815 
L 115.059472 -311.15099 
L 114.979521 -309.607165 
L 114.942848 -308.06334 
L 114.934474 -306.519515 
L 114.958673 -304.97569 
L 115.011481 -303.431864 
L 115.072703 -301.888039 
L 115.119603 -300.344214 
L 115.144902 -298.800389 
L 115.159702 -297.256564 
L 115.17838 -295.712739 
L 115.204003 -294.168914 
L 115.228348 -292.625089 
L 115.237077 -291.081263 
L 115.216664 -289.537438 
L 115.170225 -287.993613 
L 115.124505 -286.449788 
L 115.107124 -284.905963 
L 115.115443 -283.362138 
L 115.112994 -281.818313 
L 115.055963 -280.274488 
L 114.924226 -278.730662 
L 114.735051 -277.186837 
L 114.532639 -275.643012 
L 114.36051 -274.099187 
L 114.238753 -272.555362 
L 114.164014 -271.011537 
L 114.123444 -269.467712 
L 114.104434 -267.923886 
L 114.097116 -266.380061 
L 114.094905 -264.836236 
L 114.094396 -263.292411 
L 114.094308 -261.748586 
L 114.094297 -260.204761 
L 114.094296 -258.660936 
L 114.094295 -257.117111 
L 114.094295 -255.573285 
L 114.094295 -254.02946 
L 114.094295 -252.485635 
L 114.094295 -250.94181 
L 114.094295 -249.397985 
L 114.094295 -247.85416 
L 114.094295 -246.310335 
L 114.094295 -244.76651 
L 114.094295 -243.222684 
L 114.094295 -241.678859 
L 114.094295 -240.135034 
L 114.094295 -238.591209 
L 114.094295 -237.047384 
L 114.094295 -235.503559 
L 114.094295 -233.959734 
L 114.094295 -232.415909 
L 114.094295 -230.872083 
L 114.094295 -229.328258 
L 114.094295 -227.784433 
L 114.094295 -226.240608 
L 114.094295 -224.696783 
L 114.094295 -223.152958 
L 114.094295 -221.609133 
L 114.094295 -220.065308 
L 114.094295 -218.521482 
L 114.094295 -216.977657 
L 114.094295 -215.433832 
L 114.094295 -213.890007 
L 114.094295 -212.346182 
L 114.094295 -210.802357 
L 114.094295 -209.258532 
L 114.094295 -207.714706 
L 114.094295 -206.170881 
L 114.094295 -204.627056 
L 114.094295 -203.083231 
L 114.094295 -201.539406 
L 114.094295 -199.995581 
L 114.094296 -198.451756 
L 114.094297 -196.907931 
L 114.094311 -195.364105 
L 114.09441 -193.82028 
L 114.094905 -192.276455 
L 114.096683 -190.73263 
L 114.101198 -189.188805 
L 114.109032 -187.64498 
L 114.117524 -186.101155 
L 114.121328 -184.55733 
z
" id="m3b33ed7294" style="stroke:#444444;stroke-width:1.5;"/>
    </defs>
    <g clip-path="url(#p6aae6138ce)">
     <use style="fill:#e68193;stroke:#444444;stroke-width:1.5;" x="0" xlink:href="#m3b33ed7294" y="458.815625"/>
    </g>
   </g>
   <g id="PolyCollection_4">
    <defs>
     <path d="M 136.866804 -265.917188 
L 135.338324 -265.917188 
L 135.311285 -266.587593 
L 135.284158 -267.257997 
L 135.256919 -267.928402 
L 135.229538 -268.598806 
L 135.201982 -269.269211 
L 135.174214 -269.939615 
L 135.146196 -270.61002 
L 135.117886 -271.280425 
L 135.089248 -271.950829 
L 135.060242 -272.621234 
L 135.030836 -273.291638 
L 135.001 -273.962043 
L 134.970709 -274.632447 
L 134.939945 -275.302852 
L 134.908696 -275.973257 
L 134.876959 -276.643661 
L 134.844737 -277.314066 
L 134.812042 -277.98447 
L 134.778893 -278.654875 
L 134.745317 -279.325279 
L 134.711348 -279.995684 
L 134.677025 -280.666089 
L 134.642394 -281.336493 
L 134.607505 -282.006898 
L 134.572409 -282.677302 
L 134.53716 -283.347707 
L 134.501813 -284.018111 
L 134.466419 -284.688516 
L 134.43103 -285.358921 
L 134.395691 -286.029325 
L 134.360441 -286.69973 
L 134.325312 -287.370134 
L 134.29033 -288.040539 
L 134.255507 -288.710943 
L 134.220847 -289.381348 
L 134.186342 -290.051753 
L 134.151969 -290.722157 
L 134.117696 -291.392562 
L 134.083474 -292.062966 
L 134.049242 -292.733371 
L 134.014927 -293.403775 
L 133.980442 -294.07418 
L 133.945689 -294.744585 
L 133.910557 -295.414989 
L 133.874929 -296.085394 
L 133.838679 -296.755798 
L 133.801672 -297.426203 
L 133.763774 -298.096607 
L 133.724847 -298.767012 
L 133.684755 -299.437417 
L 133.643366 -300.107821 
L 133.600558 -300.778226 
L 133.556216 -301.44863 
L 133.510242 -302.119035 
L 133.462556 -302.789439 
L 133.413097 -303.459844 
L 133.361831 -304.130249 
L 133.30875 -304.800653 
L 133.253879 -305.471058 
L 133.197276 -306.141462 
L 133.139035 -306.811867 
L 133.079292 -307.482271 
L 133.018218 -308.152676 
L 132.956031 -308.823081 
L 132.892987 -309.493485 
L 132.829386 -310.16389 
L 132.765569 -310.834294 
L 132.701915 -311.504699 
L 132.638841 -312.175103 
L 132.576797 -312.845508 
L 132.516263 -313.515913 
L 132.457746 -314.186317 
L 132.401771 -314.856722 
L 132.348878 -315.527126 
L 132.299613 -316.197531 
L 132.254524 -316.867935 
L 132.214153 -317.53834 
L 132.179025 -318.208745 
L 132.149648 -318.879149 
L 132.126496 -319.549554 
L 132.11001 -320.219958 
L 132.100586 -320.890363 
L 132.098571 -321.560767 
L 132.104257 -322.231172 
L 132.117874 -322.901577 
L 132.139587 -323.571981 
L 132.169493 -324.242386 
L 132.207618 -324.91279 
L 132.253917 -325.583195 
L 132.308271 -326.253599 
L 132.370491 -326.924004 
L 132.440316 -327.594409 
L 132.51742 -328.264813 
L 132.601415 -328.935218 
L 132.691852 -329.605622 
L 132.788234 -330.276027 
L 132.890015 -330.946431 
L 132.99661 -331.616836 
L 133.107405 -332.287241 
L 139.097724 -332.287241 
L 139.097724 -332.287241 
L 139.208518 -331.616836 
L 139.315114 -330.946431 
L 139.416894 -330.276027 
L 139.513276 -329.605622 
L 139.603714 -328.935218 
L 139.687709 -328.264813 
L 139.764813 -327.594409 
L 139.834638 -326.924004 
L 139.896857 -326.253599 
L 139.951211 -325.583195 
L 139.99751 -324.91279 
L 140.035636 -324.242386 
L 140.065542 -323.571981 
L 140.087255 -322.901577 
L 140.100871 -322.231172 
L 140.106557 -321.560767 
L 140.104543 -320.890363 
L 140.095119 -320.219958 
L 140.078633 -319.549554 
L 140.055481 -318.879149 
L 140.026103 -318.208745 
L 139.990976 -317.53834 
L 139.950605 -316.867935 
L 139.905516 -316.197531 
L 139.856251 -315.527126 
L 139.803357 -314.856722 
L 139.747382 -314.186317 
L 139.688865 -313.515913 
L 139.628332 -312.845508 
L 139.566288 -312.175103 
L 139.503214 -311.504699 
L 139.439559 -310.834294 
L 139.375742 -310.16389 
L 139.312141 -309.493485 
L 139.249098 -308.823081 
L 139.18691 -308.152676 
L 139.125837 -307.482271 
L 139.066093 -306.811867 
L 139.007853 -306.141462 
L 138.95125 -305.471058 
L 138.896379 -304.800653 
L 138.843298 -304.130249 
L 138.792031 -303.459844 
L 138.742573 -302.789439 
L 138.694886 -302.119035 
L 138.648913 -301.44863 
L 138.604571 -300.778226 
L 138.561762 -300.107821 
L 138.520374 -299.437417 
L 138.480282 -298.767012 
L 138.441355 -298.096607 
L 138.403457 -297.426203 
L 138.36645 -296.755798 
L 138.330199 -296.085394 
L 138.294571 -295.414989 
L 138.25944 -294.744585 
L 138.224686 -294.07418 
L 138.190201 -293.403775 
L 138.155886 -292.733371 
L 138.121655 -292.062966 
L 138.087433 -291.392562 
L 138.053159 -290.722157 
L 138.018787 -290.051753 
L 137.984281 -289.381348 
L 137.949622 -288.710943 
L 137.914799 -288.040539 
L 137.879816 -287.370134 
L 137.844688 -286.69973 
L 137.809438 -286.029325 
L 137.774098 -285.358921 
L 137.738709 -284.688516 
L 137.703316 -284.018111 
L 137.667969 -283.347707 
L 137.63272 -282.677302 
L 137.597624 -282.006898 
L 137.562734 -281.336493 
L 137.528103 -280.666089 
L 137.493781 -279.995684 
L 137.459812 -279.325279 
L 137.426236 -278.654875 
L 137.393087 -277.98447 
L 137.360392 -277.314066 
L 137.32817 -276.643661 
L 137.296432 -275.973257 
L 137.265184 -275.302852 
L 137.234419 -274.632447 
L 137.204128 -273.962043 
L 137.174292 -273.291638 
L 137.144886 -272.621234 
L 137.115881 -271.950829 
L 137.087242 -271.280425 
L 137.058933 -270.61002 
L 137.030914 -269.939615 
L 137.003146 -269.269211 
L 136.975591 -268.598806 
L 136.94821 -267.928402 
L 136.920971 -267.257997 
L 136.893844 -266.587593 
L 136.866804 -265.917188 
z
" id="m7624e71656" style="stroke:#444444;stroke-width:1.5;"/>
    </defs>
    <g clip-path="url(#p6aae6138ce)">
     <use style="fill:#459e97;stroke:#444444;stroke-width:1.5;" x="0" xlink:href="#m7624e71656" y="458.815625"/>
    </g>
   </g>
   <g id="PolyCollection_5">
    <defs>
     <path d="M 169.233372 -184.55733 
L 168.996563 -184.55733 
L 169.016134 -186.733556 
L 169.057489 -188.909782 
L 169.091677 -191.086008 
L 169.108392 -193.262235 
L 169.113674 -195.438461 
L 169.11479 -197.614687 
L 169.114951 -199.790914 
L 169.114966 -201.96714 
L 169.114967 -204.143366 
L 169.114967 -206.319593 
L 169.114967 -208.495819 
L 169.114967 -210.672045 
L 169.114967 -212.848271 
L 169.114967 -215.024498 
L 169.114967 -217.200724 
L 169.114967 -219.37695 
L 169.114967 -221.553177 
L 169.114967 -223.729403 
L 169.114967 -225.905629 
L 169.114967 -228.081856 
L 169.114967 -230.258082 
L 169.114967 -232.434308 
L 169.114967 -234.610535 
L 169.114967 -236.786761 
L 169.114967 -238.962987 
L 169.114967 -241.139213 
L 169.114967 -243.31544 
L 169.114967 -245.491666 
L 169.114967 -247.667892 
L 169.114967 -249.844119 
L 169.114967 -252.020345 
L 169.114967 -254.196571 
L 169.114967 -256.372798 
L 169.114967 -258.549024 
L 169.114967 -260.72525 
L 169.114967 -262.901476 
L 169.114967 -265.077703 
L 169.114967 -267.253929 
L 169.114967 -269.430155 
L 169.114967 -271.606382 
L 169.114967 -273.782608 
L 169.114967 -275.958834 
L 169.114967 -278.135061 
L 169.114967 -280.311287 
L 169.114967 -282.487513 
L 169.114967 -284.663739 
L 169.114967 -286.839966 
L 169.114965 -289.016192 
L 169.11494 -291.192418 
L 169.114765 -293.368645 
L 169.11393 -295.544871 
L 169.111196 -297.721097 
L 169.105163 -299.897324 
L 169.096459 -302.07355 
L 169.088963 -304.249776 
L 169.086788 -306.426003 
L 169.090254 -308.602229 
L 169.095734 -310.778455 
L 169.098446 -312.954681 
L 169.095987 -315.130908 
L 169.089971 -317.307134 
L 169.082814 -319.48336 
L 169.073148 -321.659587 
L 169.054847 -323.835813 
L 169.020619 -326.012039 
L 168.968792 -328.188266 
L 168.905434 -330.364492 
L 168.838825 -332.540718 
L 168.776236 -334.716944 
L 168.721982 -336.893171 
L 168.672237 -339.069397 
L 168.620084 -341.245623 
L 168.568129 -343.42185 
L 168.523651 -345.598076 
L 168.484105 -347.774302 
L 168.440998 -349.950529 
L 168.392718 -352.126755 
L 168.342776 -354.302981 
L 168.288124 -356.479208 
L 168.21457 -358.655434 
L 168.107404 -360.83166 
L 167.971563 -363.007886 
L 167.833957 -365.184113 
L 167.710522 -367.360339 
L 167.564518 -369.536565 
L 167.282709 -371.712792 
L 166.694731 -373.889018 
L 165.686166 -376.065244 
L 164.311055 -378.241471 
L 162.69454 -380.417697 
L 160.908108 -382.593923 
L 159.182955 -384.770149 
L 158.110833 -386.946376 
L 158.280272 -389.122602 
L 159.749511 -391.298828 
L 162.030022 -393.475055 
L 164.451823 -395.651281 
L 166.478932 -397.827507 
L 167.858658 -400.003734 
L 170.371277 -400.003734 
L 170.371277 -400.003734 
L 171.751003 -397.827507 
L 173.778112 -395.651281 
L 176.199912 -393.475055 
L 178.480424 -391.298828 
L 179.949663 -389.122602 
L 180.119102 -386.946376 
L 179.04698 -384.770149 
L 177.321827 -382.593923 
L 175.535395 -380.417697 
L 173.91888 -378.241471 
L 172.543769 -376.065244 
L 171.535204 -373.889018 
L 170.947226 -371.712792 
L 170.665416 -369.536565 
L 170.519413 -367.360339 
L 170.395978 -365.184113 
L 170.258372 -363.007886 
L 170.122531 -360.83166 
L 170.015365 -358.655434 
L 169.941811 -356.479208 
L 169.887159 -354.302981 
L 169.837217 -352.126755 
L 169.788937 -349.950529 
L 169.74583 -347.774302 
L 169.706284 -345.598076 
L 169.661806 -343.42185 
L 169.609851 -341.245623 
L 169.557698 -339.069397 
L 169.507953 -336.893171 
L 169.453699 -334.716944 
L 169.39111 -332.540718 
L 169.324501 -330.364492 
L 169.261143 -328.188266 
L 169.209316 -326.012039 
L 169.175088 -323.835813 
L 169.156787 -321.659587 
L 169.147121 -319.48336 
L 169.139964 -317.307134 
L 169.133948 -315.130908 
L 169.131489 -312.954681 
L 169.134201 -310.778455 
L 169.139681 -308.602229 
L 169.143146 -306.426003 
L 169.140972 -304.249776 
L 169.133476 -302.07355 
L 169.124772 -299.897324 
L 169.118739 -297.721097 
L 169.116005 -295.544871 
L 169.11517 -293.368645 
L 169.114995 -291.192418 
L 169.11497 -289.016192 
L 169.114968 -286.839966 
L 169.114967 -284.663739 
L 169.114967 -282.487513 
L 169.114967 -280.311287 
L 169.114967 -278.135061 
L 169.114967 -275.958834 
L 169.114967 -273.782608 
L 169.114967 -271.606382 
L 169.114967 -269.430155 
L 169.114967 -267.253929 
L 169.114967 -265.077703 
L 169.114967 -262.901476 
L 169.114967 -260.72525 
L 169.114967 -258.549024 
L 169.114967 -256.372798 
L 169.114967 -254.196571 
L 169.114967 -252.020345 
L 169.114967 -249.844119 
L 169.114967 -247.667892 
L 169.114967 -245.491666 
L 169.114967 -243.31544 
L 169.114967 -241.139213 
L 169.114967 -238.962987 
L 169.114967 -236.786761 
L 169.114967 -234.610535 
L 169.114967 -232.434308 
L 169.114967 -230.258082 
L 169.114967 -228.081856 
L 169.114967 -225.905629 
L 169.114967 -223.729403 
L 169.114967 -221.553177 
L 169.114967 -219.37695 
L 169.114967 -217.200724 
L 169.114967 -215.024498 
L 169.114967 -212.848271 
L 169.114967 -210.672045 
L 169.114967 -208.495819 
L 169.114967 -206.319593 
L 169.114968 -204.143366 
L 169.114969 -201.96714 
L 169.114984 -199.790914 
L 169.115145 -197.614687 
L 169.116261 -195.438461 
L 169.121543 -193.262235 
L 169.138258 -191.086008 
L 169.172446 -188.909782 
L 169.213801 -186.733556 
L 169.233372 -184.55733 
z
" id="mc6175626d2" style="stroke:#444444;stroke-width:1.5;"/>
    </defs>
    <g clip-path="url(#p6aae6138ce)">
     <use style="fill:#e68193;stroke:#444444;stroke-width:1.5;" x="0" xlink:href="#mc6175626d2" y="458.815625"/>
    </g>
   </g>
   <g id="PolyCollection_6">
    <defs>
     <path d="M 191.313203 -184.55733 
L 190.93327 -184.55733 
L 190.933721 -186.666798 
L 190.935076 -188.776266 
L 190.937315 -190.885734 
L 190.940405 -192.995202 
L 190.944302 -195.10467 
L 190.94895 -197.214139 
L 190.954285 -199.323607 
L 190.960232 -201.433075 
L 190.966712 -203.542543 
L 190.97364 -205.652011 
L 190.980926 -207.761479 
L 190.988481 -209.870948 
L 190.996214 -211.980416 
L 191.004034 -214.089884 
L 191.011856 -216.199352 
L 191.019597 -218.30882 
L 191.027177 -220.418288 
L 191.034524 -222.527757 
L 191.041571 -224.637225 
L 191.048256 -226.746693 
L 191.054526 -228.856161 
L 191.060331 -230.965629 
L 191.065628 -233.075097 
L 191.07038 -235.184566 
L 191.074552 -237.294034 
L 191.078117 -239.403502 
L 191.081047 -241.51297 
L 191.083318 -243.622438 
L 191.084909 -245.731906 
L 191.085796 -247.841375 
L 191.085958 -249.950843 
L 191.085372 -252.060311 
L 191.084014 -254.169779 
L 191.081858 -256.279247 
L 191.078876 -258.388716 
L 191.075036 -260.498184 
L 191.070306 -262.607652 
L 191.064648 -264.71712 
L 191.058023 -266.826588 
L 191.050388 -268.936056 
L 191.041696 -271.045525 
L 191.031897 -273.154993 
L 191.02094 -275.264461 
L 191.008768 -277.373929 
L 190.995321 -279.483397 
L 190.980537 -281.592865 
L 190.964349 -283.702334 
L 190.946686 -285.811802 
L 190.927475 -287.92127 
L 190.906637 -290.030738 
L 190.88409 -292.140206 
L 190.859748 -294.249674 
L 190.833522 -296.359143 
L 190.805316 -298.468611 
L 190.775036 -300.578079 
L 190.742582 -302.687547 
L 190.707857 -304.797015 
L 190.670762 -306.906483 
L 190.631201 -309.015952 
L 190.589086 -311.12542 
L 190.544334 -313.234888 
L 190.496876 -315.344356 
L 190.446658 -317.453824 
L 190.393645 -319.563292 
L 190.337826 -321.672761 
L 190.279219 -323.782229 
L 190.217876 -325.891697 
L 190.153884 -328.001165 
L 190.087377 -330.110633 
L 190.018532 -332.220101 
L 189.947577 -334.32957 
L 189.874793 -336.439038 
L 189.800516 -338.548506 
L 189.725137 -340.657974 
L 189.649102 -342.767442 
L 189.572911 -344.87691 
L 189.497113 -346.986379 
L 189.422303 -349.095847 
L 189.349115 -351.205315 
L 189.278215 -353.314783 
L 189.21029 -355.424251 
L 189.14604 -357.53372 
L 189.086165 -359.643188 
L 189.031354 -361.752656 
L 188.982269 -363.862124 
L 188.939539 -365.971592 
L 188.903739 -368.08106 
L 188.875383 -370.190529 
L 188.85491 -372.299997 
L 188.842675 -374.409465 
L 188.838941 -376.518933 
L 188.843869 -378.628401 
L 188.857514 -380.737869 
L 188.879824 -382.847338 
L 188.910639 -384.956806 
L 188.949691 -387.066274 
L 188.996609 -389.175742 
L 189.050928 -391.28521 
L 189.112094 -393.394678 
L 193.134379 -393.394678 
L 193.134379 -393.394678 
L 193.195544 -391.28521 
L 193.249863 -389.175742 
L 193.296782 -387.066274 
L 193.335833 -384.956806 
L 193.366648 -382.847338 
L 193.388959 -380.737869 
L 193.402604 -378.628401 
L 193.407531 -376.518933 
L 193.403797 -374.409465 
L 193.391563 -372.299997 
L 193.37109 -370.190529 
L 193.342734 -368.08106 
L 193.306934 -365.971592 
L 193.264203 -363.862124 
L 193.215119 -361.752656 
L 193.160307 -359.643188 
L 193.100432 -357.53372 
L 193.036182 -355.424251 
L 192.968257 -353.314783 
L 192.897357 -351.205315 
L 192.82417 -349.095847 
L 192.74936 -346.986379 
L 192.673562 -344.87691 
L 192.59737 -342.767442 
L 192.521335 -340.657974 
L 192.445956 -338.548506 
L 192.371679 -336.439038 
L 192.298896 -334.32957 
L 192.227941 -332.220101 
L 192.159095 -330.110633 
L 192.092588 -328.001165 
L 192.028597 -325.891697 
L 191.967253 -323.782229 
L 191.908646 -321.672761 
L 191.852827 -319.563292 
L 191.799814 -317.453824 
L 191.749596 -315.344356 
L 191.702139 -313.234888 
L 191.657387 -311.12542 
L 191.615271 -309.015952 
L 191.575711 -306.906483 
L 191.538615 -304.797015 
L 191.50389 -302.687547 
L 191.471437 -300.578079 
L 191.441156 -298.468611 
L 191.412951 -296.359143 
L 191.386724 -294.249674 
L 191.362382 -292.140206 
L 191.339836 -290.030738 
L 191.318998 -287.92127 
L 191.299787 -285.811802 
L 191.282124 -283.702334 
L 191.265936 -281.592865 
L 191.251151 -279.483397 
L 191.237705 -277.373929 
L 191.225532 -275.264461 
L 191.214575 -273.154993 
L 191.204777 -271.045525 
L 191.196085 -268.936056 
L 191.188449 -266.826588 
L 191.181824 -264.71712 
L 191.176166 -262.607652 
L 191.171436 -260.498184 
L 191.167597 -258.388716 
L 191.164615 -256.279247 
L 191.162459 -254.169779 
L 191.161101 -252.060311 
L 191.160515 -249.950843 
L 191.160677 -247.841375 
L 191.161564 -245.731906 
L 191.163154 -243.622438 
L 191.165426 -241.51297 
L 191.168356 -239.403502 
L 191.17192 -237.294034 
L 191.176093 -235.184566 
L 191.180844 -233.075097 
L 191.186142 -230.965629 
L 191.191946 -228.856161 
L 191.198216 -226.746693 
L 191.204902 -224.637225 
L 191.211949 -222.527757 
L 191.219296 -220.418288 
L 191.226876 -218.30882 
L 191.234616 -216.199352 
L 191.242438 -214.089884 
L 191.250259 -211.980416 
L 191.257991 -209.870948 
L 191.265546 -207.761479 
L 191.272833 -205.652011 
L 191.27976 -203.542543 
L 191.28624 -201.433075 
L 191.292188 -199.323607 
L 191.297522 -197.214139 
L 191.30217 -195.10467 
L 191.306067 -192.995202 
L 191.309157 -190.885734 
L 191.311396 -188.776266 
L 191.312751 -186.666798 
L 191.313203 -184.55733 
z
" id="m652c1e7526" style="stroke:#444444;stroke-width:1.5;"/>
    </defs>
    <g clip-path="url(#p6aae6138ce)">
     <use style="fill:#459e97;stroke:#444444;stroke-width:1.5;" x="0" xlink:href="#m652c1e7526" y="458.815625"/>
    </g>
   </g>
   <g id="PolyCollection_7">
    <defs>
     <path d="M 224.245415 -184.55733 
L 224.025864 -184.55733 
L 224.03804 -185.994349 
L 224.067048 -187.431369 
L 224.097535 -188.868389 
L 224.118907 -190.305408 
L 224.129832 -191.742428 
L 224.134046 -193.179448 
L 224.135294 -194.616467 
L 224.13558 -196.053487 
L 224.135631 -197.490507 
L 224.135639 -198.927526 
L 224.135639 -200.364546 
L 224.135639 -201.801566 
L 224.135639 -203.238585 
L 224.135639 -204.675605 
L 224.135639 -206.112625 
L 224.135639 -207.549644 
L 224.135639 -208.986664 
L 224.135639 -210.423684 
L 224.135639 -211.860703 
L 224.135639 -213.297723 
L 224.135639 -214.734743 
L 224.135639 -216.171762 
L 224.135639 -217.608782 
L 224.135639 -219.045802 
L 224.135639 -220.482822 
L 224.135639 -221.919841 
L 224.135639 -223.356861 
L 224.135639 -224.793881 
L 224.135639 -226.2309 
L 224.135639 -227.66792 
L 224.135639 -229.10494 
L 224.135639 -230.541959 
L 224.135639 -231.978979 
L 224.135639 -233.415999 
L 224.135639 -234.853018 
L 224.135639 -236.290038 
L 224.135639 -237.727058 
L 224.135639 -239.164077 
L 224.135639 -240.601097 
L 224.135639 -242.038117 
L 224.135638 -243.475136 
L 224.135631 -244.912156 
L 224.135592 -246.349176 
L 224.135425 -247.786195 
L 224.134875 -249.223215 
L 224.133446 -250.660235 
L 224.130531 -252.097254 
L 224.125852 -253.534274 
L 224.119945 -254.971294 
L 224.114153 -256.408313 
L 224.109982 -257.845333 
L 224.108066 -259.282353 
L 224.107111 -260.719373 
L 224.103664 -262.156392 
L 224.093785 -263.593412 
L 224.075406 -265.030432 
L 224.047657 -266.467451 
L 224.006552 -267.904471 
L 223.943136 -269.341491 
L 223.849568 -270.77851 
L 223.728432 -272.21553 
L 223.594973 -273.65255 
L 223.469704 -275.089569 
L 223.368154 -276.526589 
L 223.294696 -277.963609 
L 223.242702 -279.400628 
L 223.200231 -280.837648 
L 223.158034 -282.274668 
L 223.114873 -283.711687 
L 223.076276 -285.148707 
L 223.047613 -286.585727 
L 223.027987 -288.022746 
L 223.010977 -289.459766 
L 222.990527 -290.896786 
L 222.96525 -292.333805 
L 222.938749 -293.770825 
L 222.919084 -295.207845 
L 222.918124 -296.644864 
L 222.946561 -298.081884 
L 223.004571 -299.518904 
L 223.077004 -300.955924 
L 223.139403 -302.392943 
L 223.1659 -303.829963 
L 223.12265 -305.266983 
L 222.945721 -306.704002 
L 222.529072 -308.141022 
L 221.755812 -309.578042 
L 220.566961 -311.015061 
L 219.006726 -312.452081 
L 217.209245 -313.889101 
L 215.390343 -315.32612 
L 213.887447 -316.76314 
L 213.131505 -318.20016 
L 213.44443 -319.637179 
L 214.807787 -321.074199 
L 216.846643 -322.511219 
L 219.040615 -323.948238 
L 220.96104 -325.385258 
L 222.385741 -326.822278 
L 225.885537 -326.822278 
L 225.885537 -326.822278 
L 227.310239 -325.385258 
L 229.230664 -323.948238 
L 231.424636 -322.511219 
L 233.463492 -321.074199 
L 234.826849 -319.637179 
L 235.139774 -318.20016 
L 234.383832 -316.76314 
L 232.880936 -315.32612 
L 231.062034 -313.889101 
L 229.264553 -312.452081 
L 227.704318 -311.015061 
L 226.515467 -309.578042 
L 225.742207 -308.141022 
L 225.325558 -306.704002 
L 225.148629 -305.266983 
L 225.105379 -303.829963 
L 225.131876 -302.392943 
L 225.194275 -300.955924 
L 225.266708 -299.518904 
L 225.324718 -298.081884 
L 225.353155 -296.644864 
L 225.352194 -295.207845 
L 225.33253 -293.770825 
L 225.306029 -292.333805 
L 225.280752 -290.896786 
L 225.260302 -289.459766 
L 225.243292 -288.022746 
L 225.223666 -286.585727 
L 225.195003 -285.148707 
L 225.156406 -283.711687 
L 225.113245 -282.274668 
L 225.071047 -280.837648 
L 225.028577 -279.400628 
L 224.976583 -277.963609 
L 224.903125 -276.526589 
L 224.801575 -275.089569 
L 224.676306 -273.65255 
L 224.542847 -272.21553 
L 224.421711 -270.77851 
L 224.328143 -269.341491 
L 224.264726 -267.904471 
L 224.223622 -266.467451 
L 224.195873 -265.030432 
L 224.177494 -263.593412 
L 224.167615 -262.156392 
L 224.164168 -260.719373 
L 224.163213 -259.282353 
L 224.161297 -257.845333 
L 224.157126 -256.408313 
L 224.151334 -254.971294 
L 224.145427 -253.534274 
L 224.140748 -252.097254 
L 224.137833 -250.660235 
L 224.136404 -249.223215 
L 224.135854 -247.786195 
L 224.135687 -246.349176 
L 224.135648 -244.912156 
L 224.135641 -243.475136 
L 224.13564 -242.038117 
L 224.135639 -240.601097 
L 224.135639 -239.164077 
L 224.135639 -237.727058 
L 224.135639 -236.290038 
L 224.135639 -234.853018 
L 224.135639 -233.415999 
L 224.135639 -231.978979 
L 224.135639 -230.541959 
L 224.135639 -229.10494 
L 224.135639 -227.66792 
L 224.135639 -226.2309 
L 224.135639 -224.793881 
L 224.135639 -223.356861 
L 224.135639 -221.919841 
L 224.135639 -220.482822 
L 224.135639 -219.045802 
L 224.135639 -217.608782 
L 224.135639 -216.171762 
L 224.135639 -214.734743 
L 224.135639 -213.297723 
L 224.135639 -211.860703 
L 224.135639 -210.423684 
L 224.135639 -208.986664 
L 224.135639 -207.549644 
L 224.135639 -206.112625 
L 224.135639 -204.675605 
L 224.135639 -203.238585 
L 224.135639 -201.801566 
L 224.13564 -200.364546 
L 224.13564 -198.927526 
L 224.135648 -197.490507 
L 224.135699 -196.053487 
L 224.135985 -194.616467 
L 224.137233 -193.179448 
L 224.141447 -191.742428 
L 224.152372 -190.305408 
L 224.173744 -188.868389 
L 224.204231 -187.431369 
L 224.233239 -185.994349 
L 224.245415 -184.55733 
z
" id="m7860106f19" style="stroke:#444444;stroke-width:1.5;"/>
    </defs>
    <g clip-path="url(#p6aae6138ce)">
     <use style="fill:#e68193;stroke:#444444;stroke-width:1.5;" x="0" xlink:href="#m7860106f19" y="458.815625"/>
    </g>
   </g>
   <g id="PolyCollection_8">
    <defs>
     <path d="M 246.361929 -184.55733 
L 245.925887 -184.55733 
L 245.926389 -185.943714 
L 245.927913 -187.330098 
L 245.930435 -188.716482 
L 245.933918 -190.102866 
L 245.93831 -191.48925 
L 245.943549 -192.875634 
L 245.949559 -194.262018 
L 245.956256 -195.648402 
L 245.963547 -197.034786 
L 245.971333 -198.42117 
L 245.97951 -199.807554 
L 245.987971 -201.193938 
L 245.996609 -202.580322 
L 246.005316 -203.966706 
L 246.013985 -205.35309 
L 246.022513 -206.739474 
L 246.030801 -208.125858 
L 246.038753 -209.512242 
L 246.046279 -210.898626 
L 246.053292 -212.28501 
L 246.059712 -213.671395 
L 246.065463 -215.057779 
L 246.070471 -216.444163 
L 246.074669 -217.830547 
L 246.077991 -219.216931 
L 246.080372 -220.603315 
L 246.081749 -221.989699 
L 246.082061 -223.376083 
L 246.081244 -224.762467 
L 246.079236 -226.148851 
L 246.07597 -227.535235 
L 246.071382 -228.921619 
L 246.065403 -230.308003 
L 246.057962 -231.694387 
L 246.04899 -233.080771 
L 246.038415 -234.467155 
L 246.026164 -235.853539 
L 246.012168 -237.239923 
L 245.996356 -238.626307 
L 245.978664 -240.012691 
L 245.959029 -241.399075 
L 245.937395 -242.785459 
L 245.913713 -244.171844 
L 245.887941 -245.558228 
L 245.860047 -246.944612 
L 245.830007 -248.330996 
L 245.797811 -249.71738 
L 245.763457 -251.103764 
L 245.726955 -252.490148 
L 245.688328 -253.876532 
L 245.647609 -255.262916 
L 245.604842 -256.6493 
L 245.560082 -258.035684 
L 245.513392 -259.422068 
L 245.464845 -260.808452 
L 245.41452 -262.194836 
L 245.362504 -263.58122 
L 245.308888 -264.967604 
L 245.253769 -266.353988 
L 245.197248 -267.740372 
L 245.139431 -269.126756 
L 245.080426 -270.51314 
L 245.020347 -271.899524 
L 244.959315 -273.285908 
L 244.897455 -274.672293 
L 244.834904 -276.058677 
L 244.771806 -277.445061 
L 244.708322 -278.831445 
L 244.644626 -280.217829 
L 244.58091 -281.604213 
L 244.51739 -282.990597 
L 244.454302 -284.376981 
L 244.39191 -285.763365 
L 244.330501 -287.149749 
L 244.270395 -288.536133 
L 244.211934 -289.922517 
L 244.155492 -291.308901 
L 244.101464 -292.695285 
L 244.050269 -294.081669 
L 244.002342 -295.468053 
L 243.958131 -296.854437 
L 243.91809 -298.240821 
L 243.882671 -299.627205 
L 243.852317 -301.013589 
L 243.827453 -302.399973 
L 243.808474 -303.786357 
L 243.795742 -305.172742 
L 243.789571 -306.559126 
L 243.79022 -307.94551 
L 243.797887 -309.331894 
L 243.812701 -310.718278 
L 243.834715 -312.104662 
L 243.863903 -313.491046 
L 243.900159 -314.87743 
L 243.943291 -316.263814 
L 243.99303 -317.650198 
L 244.049027 -319.036582 
L 244.110857 -320.422966 
L 244.178031 -321.80935 
L 248.109785 -321.80935 
L 248.109785 -321.80935 
L 248.176959 -320.422966 
L 248.23879 -319.036582 
L 248.294786 -317.650198 
L 248.344525 -316.263814 
L 248.387658 -314.87743 
L 248.423913 -313.491046 
L 248.453101 -312.104662 
L 248.475115 -310.718278 
L 248.489929 -309.331894 
L 248.497597 -307.94551 
L 248.498246 -306.559126 
L 248.492074 -305.172742 
L 248.479342 -303.786357 
L 248.460364 -302.399973 
L 248.435499 -301.013589 
L 248.405146 -299.627205 
L 248.369727 -298.240821 
L 248.329686 -296.854437 
L 248.285475 -295.468053 
L 248.237548 -294.081669 
L 248.186352 -292.695285 
L 248.132324 -291.308901 
L 248.075882 -289.922517 
L 248.017422 -288.536133 
L 247.957315 -287.149749 
L 247.895907 -285.763365 
L 247.833514 -284.376981 
L 247.770426 -282.990597 
L 247.706906 -281.604213 
L 247.643191 -280.217829 
L 247.579495 -278.831445 
L 247.51601 -277.445061 
L 247.452913 -276.058677 
L 247.390361 -274.672293 
L 247.328502 -273.285908 
L 247.267469 -271.899524 
L 247.207391 -270.51314 
L 247.148386 -269.126756 
L 247.090568 -267.740372 
L 247.034047 -266.353988 
L 246.978929 -264.967604 
L 246.925313 -263.58122 
L 246.873296 -262.194836 
L 246.822972 -260.808452 
L 246.774424 -259.422068 
L 246.727735 -258.035684 
L 246.682975 -256.6493 
L 246.640208 -255.262916 
L 246.599489 -253.876532 
L 246.560862 -252.490148 
L 246.52436 -251.103764 
L 246.490006 -249.71738 
L 246.457809 -248.330996 
L 246.42777 -246.944612 
L 246.399875 -245.558228 
L 246.374103 -244.171844 
L 246.350421 -242.785459 
L 246.328788 -241.399075 
L 246.309153 -240.012691 
L 246.29146 -238.626307 
L 246.275649 -237.239923 
L 246.261652 -235.853539 
L 246.249402 -234.467155 
L 246.238826 -233.080771 
L 246.229854 -231.694387 
L 246.222414 -230.308003 
L 246.216435 -228.921619 
L 246.211846 -227.535235 
L 246.208581 -226.148851 
L 246.206572 -224.762467 
L 246.205756 -223.376083 
L 246.206067 -221.989699 
L 246.207445 -220.603315 
L 246.209826 -219.216931 
L 246.213147 -217.830547 
L 246.217345 -216.444163 
L 246.222354 -215.057779 
L 246.228104 -213.671395 
L 246.234524 -212.28501 
L 246.241538 -210.898626 
L 246.249063 -209.512242 
L 246.257015 -208.125858 
L 246.265303 -206.739474 
L 246.273832 -205.35309 
L 246.282501 -203.966706 
L 246.291207 -202.580322 
L 246.299845 -201.193938 
L 246.308307 -199.807554 
L 246.316483 -198.42117 
L 246.324269 -197.034786 
L 246.33156 -195.648402 
L 246.338257 -194.262018 
L 246.344267 -192.875634 
L 246.349506 -191.48925 
L 246.353899 -190.102866 
L 246.357382 -188.716482 
L 246.359904 -187.330098 
L 246.361427 -185.943714 
L 246.361929 -184.55733 
z
" id="m0c6bebf826" style="stroke:#444444;stroke-width:1.5;"/>
    </defs>
    <g clip-path="url(#p6aae6138ce)">
     <use style="fill:#459e97;stroke:#444444;stroke-width:1.5;" x="0" xlink:href="#m0c6bebf826" y="458.815625"/>
    </g>
   </g>
   <g id="PolyCollection_9">
    <defs>
     <path d="M 279.310777 -184.55733 
L 279.001846 -184.55733 
L 279.017863 -185.291681 
L 279.05662 -186.026033 
L 279.098643 -186.760385 
L 279.129511 -187.494737 
L 279.146306 -188.229089 
L 279.15331 -188.96344 
L 279.155588 -189.697792 
L 279.156171 -190.432144 
L 279.156289 -191.166496 
L 279.156306 -191.900848 
L 279.156297 -192.6352 
L 279.156246 -193.369551 
L 279.156062 -194.103903 
L 279.155551 -194.838255 
L 279.154444 -195.572607 
L 279.152629 -196.306959 
L 279.150478 -197.04131 
L 279.148888 -197.775662 
L 279.148721 -198.510014 
L 279.150077 -199.244366 
L 279.152198 -199.978718 
L 279.154131 -200.713069 
L 279.155383 -201.447421 
L 279.155994 -202.181773 
L 279.156224 -202.916125 
L 279.156292 -203.650477 
L 279.156308 -204.384829 
L 279.156311 -205.11918 
L 279.156311 -205.853532 
L 279.156311 -206.587884 
L 279.15631 -207.322236 
L 279.156301 -208.056588 
L 279.156253 -208.790939 
L 279.156054 -209.525291 
L 279.155384 -210.259643 
L 279.153587 -210.993995 
L 279.149711 -211.728347 
L 279.142964 -212.462699 
L 279.133415 -213.19705 
L 279.122351 -213.931402 
L 279.111937 -214.665754 
L 279.104468 -215.400106 
L 279.101635 -216.134458 
L 279.103992 -216.868809 
L 279.110779 -217.603161 
L 279.12008 -218.337513 
L 279.12918 -219.071865 
L 279.13533 -219.806217 
L 279.137014 -220.540568 
L 279.134722 -221.27492 
L 279.130163 -222.009272 
L 279.124422 -222.743624 
L 279.116734 -223.477976 
L 279.104731 -224.212328 
L 279.085593 -224.946679 
L 279.056365 -225.681031 
L 279.011765 -226.415383 
L 278.940651 -227.149735 
L 278.826626 -227.884087 
L 278.656763 -228.618438 
L 278.433073 -229.35279 
L 278.175812 -230.087142 
L 277.915167 -230.821494 
L 277.677748 -231.555846 
L 277.474793 -232.290198 
L 277.297302 -233.024549 
L 277.124027 -233.758901 
L 276.940275 -234.493253 
L 276.750853 -235.227605 
L 276.571816 -235.961957 
L 276.407434 -236.696308 
L 276.234549 -237.43066 
L 276.007 -238.165012 
L 275.674772 -238.899364 
L 275.209899 -239.633716 
L 274.635576 -240.368067 
L 274.044672 -241.102419 
L 273.583453 -241.836771 
L 273.394057 -242.571123 
L 273.543964 -243.305475 
L 273.987861 -244.039827 
L 274.590412 -244.774178 
L 275.193148 -245.50853 
L 275.668255 -246.242882 
L 275.914323 -246.977234 
L 275.815568 -247.711586 
L 275.240375 -248.445937 
L 274.122744 -249.180289 
L 272.562999 -249.914641 
L 270.835949 -250.648993 
L 269.299096 -251.383345 
L 268.304855 -252.117697 
L 268.152177 -252.852048 
L 268.997301 -253.5864 
L 270.722935 -254.320752 
L 272.918808 -255.055104 
L 275.062393 -255.789456 
L 276.769091 -256.523807 
L 277.91389 -257.258159 
L 280.398733 -257.258159 
L 280.398733 -257.258159 
L 281.543532 -256.523807 
L 283.25023 -255.789456 
L 285.393815 -255.055104 
L 287.589688 -254.320752 
L 289.315322 -253.5864 
L 290.160446 -252.852048 
L 290.007768 -252.117697 
L 289.013527 -251.383345 
L 287.476674 -250.648993 
L 285.749624 -249.914641 
L 284.189879 -249.180289 
L 283.072248 -248.445937 
L 282.497055 -247.711586 
L 282.3983 -246.977234 
L 282.644368 -246.242882 
L 283.119475 -245.50853 
L 283.722211 -244.774178 
L 284.324762 -244.039827 
L 284.768659 -243.305475 
L 284.918566 -242.571123 
L 284.72917 -241.836771 
L 284.267951 -241.102419 
L 283.677047 -240.368067 
L 283.102723 -239.633716 
L 282.637851 -238.899364 
L 282.305622 -238.165012 
L 282.078074 -237.43066 
L 281.905189 -236.696308 
L 281.740807 -235.961957 
L 281.56177 -235.227605 
L 281.372348 -234.493253 
L 281.188596 -233.758901 
L 281.015321 -233.024549 
L 280.83783 -232.290198 
L 280.634875 -231.555846 
L 280.397456 -230.821494 
L 280.136811 -230.087142 
L 279.87955 -229.35279 
L 279.65586 -228.618438 
L 279.485997 -227.884087 
L 279.371972 -227.149735 
L 279.300858 -226.415383 
L 279.256258 -225.681031 
L 279.22703 -224.946679 
L 279.207892 -224.212328 
L 279.195889 -223.477976 
L 279.1882 -222.743624 
L 279.18246 -222.009272 
L 279.177901 -221.27492 
L 279.175609 -220.540568 
L 279.177293 -219.806217 
L 279.183443 -219.071865 
L 279.192543 -218.337513 
L 279.201844 -217.603161 
L 279.208631 -216.868809 
L 279.210988 -216.134458 
L 279.208155 -215.400106 
L 279.200685 -214.665754 
L 279.190272 -213.931402 
L 279.179208 -213.19705 
L 279.169659 -212.462699 
L 279.162912 -211.728347 
L 279.159036 -210.993995 
L 279.157238 -210.259643 
L 279.156569 -209.525291 
L 279.15637 -208.790939 
L 279.156322 -208.056588 
L 279.156313 -207.322236 
L 279.156312 -206.587884 
L 279.156312 -205.853532 
L 279.156312 -205.11918 
L 279.156315 -204.384829 
L 279.156331 -203.650477 
L 279.156399 -202.916125 
L 279.156629 -202.181773 
L 279.15724 -201.447421 
L 279.158492 -200.713069 
L 279.160425 -199.978718 
L 279.162546 -199.244366 
L 279.163902 -198.510014 
L 279.163735 -197.775662 
L 279.162145 -197.04131 
L 279.159994 -196.306959 
L 279.158179 -195.572607 
L 279.157072 -194.838255 
L 279.15656 -194.103903 
L 279.156377 -193.369551 
L 279.156326 -192.6352 
L 279.156317 -191.900848 
L 279.156334 -191.166496 
L 279.156451 -190.432144 
L 279.157035 -189.697792 
L 279.159312 -188.96344 
L 279.166317 -188.229089 
L 279.183112 -187.494737 
L 279.21398 -186.760385 
L 279.256003 -186.026033 
L 279.29476 -185.291681 
L 279.310777 -184.55733 
z
" id="m9dfb893372" style="stroke:#444444;stroke-width:1.5;"/>
    </defs>
    <g clip-path="url(#p6aae6138ce)">
     <use style="fill:#e68193;stroke:#444444;stroke-width:1.5;" x="0" xlink:href="#m9dfb893372" y="458.815625"/>
    </g>
   </g>
   <g id="PolyCollection_10">
    <defs>
     <path d="M 301.52011 -184.55733 
L 300.80905 -184.55733 
L 300.809941 -185.245395 
L 300.812619 -185.933461 
L 300.817041 -186.621526 
L 300.823139 -187.309592 
L 300.830821 -187.997657 
L 300.839969 -188.685723 
L 300.850449 -189.373789 
L 300.862108 -190.061854 
L 300.87478 -190.74992 
L 300.888288 -191.437985 
L 300.902449 -192.126051 
L 300.917077 -192.814117 
L 300.931984 -193.502182 
L 300.946988 -194.190248 
L 300.961911 -194.878313 
L 300.976583 -195.566379 
L 300.990842 -196.254444 
L 301.004538 -196.94251 
L 301.017532 -197.630576 
L 301.029695 -198.318641 
L 301.040909 -199.006707 
L 301.051067 -199.694772 
L 301.060068 -200.382838 
L 301.06782 -201.070903 
L 301.074235 -201.758969 
L 301.079228 -202.447035 
L 301.082715 -203.1351 
L 301.084611 -203.823166 
L 301.084826 -204.511231 
L 301.083266 -205.199297 
L 301.079831 -205.887363 
L 301.07441 -206.575428 
L 301.066887 -207.263494 
L 301.057131 -207.951559 
L 301.045004 -208.639625 
L 301.030356 -209.32769 
L 301.013029 -210.015756 
L 300.992856 -210.703822 
L 300.969661 -211.391887 
L 300.943263 -212.079953 
L 300.913478 -212.768018 
L 300.88012 -213.456084 
L 300.843006 -214.14415 
L 300.801953 -214.832215 
L 300.75679 -215.520281 
L 300.707352 -216.208346 
L 300.653491 -216.896412 
L 300.595072 -217.584477 
L 300.531984 -218.272543 
L 300.464137 -218.960609 
L 300.391468 -219.648674 
L 300.313944 -220.33674 
L 300.231564 -221.024805 
L 300.144366 -221.712871 
L 300.052423 -222.400937 
L 299.955853 -223.089002 
L 299.854817 -223.777068 
L 299.749521 -224.465133 
L 299.640222 -225.153199 
L 299.527227 -225.841264 
L 299.410894 -226.52933 
L 299.291635 -227.217396 
L 299.169914 -227.905461 
L 299.046247 -228.593527 
L 298.921205 -229.281592 
L 298.795405 -229.969658 
L 298.669516 -230.657723 
L 298.544246 -231.345789 
L 298.420347 -232.033855 
L 298.298601 -232.72192 
L 298.17982 -233.409986 
L 298.064834 -234.098051 
L 297.954484 -234.786117 
L 297.849614 -235.474183 
L 297.751059 -236.162248 
L 297.659635 -236.850314 
L 297.57613 -237.538379 
L 297.501289 -238.226445 
L 297.435806 -238.91451 
L 297.380313 -239.602576 
L 297.335371 -240.290642 
L 297.301455 -240.978707 
L 297.278955 -241.666773 
L 297.268159 -242.354838 
L 297.269257 -243.042904 
L 297.282327 -243.73097 
L 297.30734 -244.419035 
L 297.344157 -245.107101 
L 297.392528 -245.795166 
L 297.452097 -246.483232 
L 297.522403 -247.171297 
L 297.602892 -247.859363 
L 297.692917 -248.547429 
L 297.791753 -249.235494 
L 297.898601 -249.92356 
L 298.012604 -250.611625 
L 298.132857 -251.299691 
L 298.258417 -251.987757 
L 298.388317 -252.675822 
L 303.940844 -252.675822 
L 303.940844 -252.675822 
L 304.070744 -251.987757 
L 304.196303 -251.299691 
L 304.316556 -250.611625 
L 304.43056 -249.92356 
L 304.537408 -249.235494 
L 304.636243 -248.547429 
L 304.726268 -247.859363 
L 304.806757 -247.171297 
L 304.877064 -246.483232 
L 304.936632 -245.795166 
L 304.985003 -245.107101 
L 305.02182 -244.419035 
L 305.046834 -243.73097 
L 305.059904 -243.042904 
L 305.061001 -242.354838 
L 305.050206 -241.666773 
L 305.027705 -240.978707 
L 304.99379 -240.290642 
L 304.948847 -239.602576 
L 304.893355 -238.91451 
L 304.827872 -238.226445 
L 304.75303 -237.538379 
L 304.669525 -236.850314 
L 304.578102 -236.162248 
L 304.479547 -235.474183 
L 304.374677 -234.786117 
L 304.264327 -234.098051 
L 304.149341 -233.409986 
L 304.03056 -232.72192 
L 303.908814 -232.033855 
L 303.784914 -231.345789 
L 303.659645 -230.657723 
L 303.533755 -229.969658 
L 303.407956 -229.281592 
L 303.282913 -228.593527 
L 303.159247 -227.905461 
L 303.037525 -227.217396 
L 302.918266 -226.52933 
L 302.801933 -225.841264 
L 302.688939 -225.153199 
L 302.57964 -224.465133 
L 302.474344 -223.777068 
L 302.373307 -223.089002 
L 302.276737 -222.400937 
L 302.184795 -221.712871 
L 302.097596 -221.024805 
L 302.015217 -220.33674 
L 301.937693 -219.648674 
L 301.865023 -218.960609 
L 301.797176 -218.272543 
L 301.734088 -217.584477 
L 301.67567 -216.896412 
L 301.621809 -216.208346 
L 301.572371 -215.520281 
L 301.527207 -214.832215 
L 301.486155 -214.14415 
L 301.44904 -213.456084 
L 301.415683 -212.768018 
L 301.385898 -212.079953 
L 301.3595 -211.391887 
L 301.336305 -210.703822 
L 301.316131 -210.015756 
L 301.298805 -209.32769 
L 301.284157 -208.639625 
L 301.27203 -207.951559 
L 301.262274 -207.263494 
L 301.25475 -206.575428 
L 301.24933 -205.887363 
L 301.245895 -205.199297 
L 301.244335 -204.511231 
L 301.24455 -203.823166 
L 301.246445 -203.1351 
L 301.249932 -202.447035 
L 301.254925 -201.758969 
L 301.26134 -201.070903 
L 301.269093 -200.382838 
L 301.278094 -199.694772 
L 301.288252 -199.006707 
L 301.299466 -198.318641 
L 301.311629 -197.630576 
L 301.324623 -196.94251 
L 301.338319 -196.254444 
L 301.352578 -195.566379 
L 301.367249 -194.878313 
L 301.382172 -194.190248 
L 301.397177 -193.502182 
L 301.412084 -192.814117 
L 301.426711 -192.126051 
L 301.440872 -191.437985 
L 301.45438 -190.74992 
L 301.467052 -190.061854 
L 301.478711 -189.373789 
L 301.489191 -188.685723 
L 301.49834 -187.997657 
L 301.506021 -187.309592 
L 301.512119 -186.621526 
L 301.516541 -185.933461 
L 301.519219 -185.245395 
L 301.52011 -184.55733 
z
" id="m825311e9d2" style="stroke:#444444;stroke-width:1.5;"/>
    </defs>
    <g clip-path="url(#p6aae6138ce)">
     <use style="fill:#459e97;stroke:#444444;stroke-width:1.5;" x="0" xlink:href="#m825311e9d2" y="458.815625"/>
    </g>
   </g>
   <g id="patch_3">
    <path clip-path="url(#p6aae6138ce)" d="M 70.077758 274.258295 
L 70.077758 274.258295 
L 70.077758 274.258295 
L 70.077758 274.258295 
z
" style="fill:#e68193;stroke:#444444;stroke-linejoin:miter;stroke-width:0.75;"/>
   </g>
   <g id="patch_4">
    <path clip-path="url(#p6aae6138ce)" d="M 70.077758 274.258295 
L 70.077758 274.258295 
L 70.077758 274.258295 
L 70.077758 274.258295 
z
" style="fill:#459e97;stroke:#444444;stroke-linejoin:miter;stroke-width:0.75;"/>
   </g>
   <g id="line2d_1">
    <path clip-path="url(#p6aae6138ce)" d="M 59.073623 87.016986 
L 59.073623 42.774205 
" style="fill:none;stroke:#444444;stroke-linecap:round;stroke-width:1.5;"/>
   </g>
   <g id="line2d_2">
    <path clip-path="url(#p6aae6138ce)" d="M 59.073623 67.539033 
L 59.073623 54.524215 
" style="fill:none;stroke:#444444;stroke-linecap:round;stroke-width:4.5;"/>
   </g>
   <g id="line2d_3">
    <path clip-path="url(#p6aae6138ce)" d="M 81.081892 105.567152 
L 81.081892 50.225079 
" style="fill:none;stroke:#444444;stroke-linecap:round;stroke-width:1.5;"/>
   </g>
   <g id="line2d_4">
    <path clip-path="url(#p6aae6138ce)" d="M 81.081892 82.896184 
L 81.081892 61.67016 
" style="fill:none;stroke:#444444;stroke-linecap:round;stroke-width:4.5;"/>
   </g>
   <g id="line2d_5">
    <path clip-path="url(#p6aae6138ce)" d="M 114.094295 155.518675 
L 114.094295 121.419608 
" style="fill:none;stroke:#444444;stroke-linecap:round;stroke-width:1.5;"/>
   </g>
   <g id="line2d_6">
    <path clip-path="url(#p6aae6138ce)" d="M 114.094295 139.733942 
L 114.094295 129.210779 
" style="fill:none;stroke:#444444;stroke-linecap:round;stroke-width:4.5;"/>
   </g>
   <g id="line2d_7">
    <path clip-path="url(#p6aae6138ce)" d="M 136.102564 192.898437 
L 136.102564 126.528384 
" style="fill:none;stroke:#444444;stroke-linecap:round;stroke-width:1.5;"/>
   </g>
   <g id="line2d_8">
    <path clip-path="url(#p6aae6138ce)" d="M 136.102564 160.742812 
L 136.102564 135.33192 
" style="fill:none;stroke:#444444;stroke-linecap:round;stroke-width:4.5;"/>
   </g>
   <g id="line2d_9">
    <path clip-path="url(#p6aae6138ce)" d="M 169.114967 96.224741 
L 169.114967 58.811891 
" style="fill:none;stroke:#444444;stroke-linecap:round;stroke-width:1.5;"/>
   </g>
   <g id="line2d_10">
    <path clip-path="url(#p6aae6138ce)" d="M 169.114967 79.896147 
L 169.114967 69.006194 
" style="fill:none;stroke:#444444;stroke-linecap:round;stroke-width:4.5;"/>
   </g>
   <g id="line2d_11">
    <path clip-path="url(#p6aae6138ce)" d="M 191.123236 112.728568 
L 191.123236 65.420947 
" style="fill:none;stroke:#444444;stroke-linecap:round;stroke-width:1.5;"/>
   </g>
   <g id="line2d_12">
    <path clip-path="url(#p6aae6138ce)" d="M 191.123236 99.996203 
L 191.123236 73.73384 
" style="fill:none;stroke:#444444;stroke-linecap:round;stroke-width:4.5;"/>
   </g>
   <g id="line2d_13">
    <path clip-path="url(#p6aae6138ce)" d="M 224.135639 159.945475 
L 224.135639 131.993347 
" style="fill:none;stroke:#444444;stroke-linecap:round;stroke-width:1.5;"/>
   </g>
   <g id="line2d_14">
    <path clip-path="url(#p6aae6138ce)" d="M 224.135639 147.423937 
L 224.135639 139.076245 
" style="fill:none;stroke:#444444;stroke-linecap:round;stroke-width:4.5;"/>
   </g>
   <g id="line2d_15">
    <path clip-path="url(#p6aae6138ce)" d="M 246.143908 190.291454 
L 246.143908 137.006275 
" style="fill:none;stroke:#444444;stroke-linecap:round;stroke-width:1.5;"/>
   </g>
   <g id="line2d_16">
    <path clip-path="url(#p6aae6138ce)" d="M 246.143908 172.405354 
L 246.143908 143.368046 
" style="fill:none;stroke:#444444;stroke-linecap:round;stroke-width:4.5;"/>
   </g>
   <g id="line2d_17">
    <path clip-path="url(#p6aae6138ce)" d="M 279.156311 233.405186 
L 279.156311 201.557466 
" style="fill:none;stroke:#444444;stroke-linecap:round;stroke-width:1.5;"/>
   </g>
   <g id="line2d_18">
    <path clip-path="url(#p6aae6138ce)" d="M 279.156311 217.392793 
L 279.156311 206.136049 
" style="fill:none;stroke:#444444;stroke-linecap:round;stroke-width:4.5;"/>
   </g>
   <g id="line2d_19">
    <path clip-path="url(#p6aae6138ce)" d="M 301.16458 232.05269 
L 301.16458 206.139803 
" style="fill:none;stroke:#444444;stroke-linecap:round;stroke-width:1.5;"/>
   </g>
   <g id="line2d_20">
    <path clip-path="url(#p6aae6138ce)" d="M 301.16458 223.026674 
L 301.16458 212.754034 
" style="fill:none;stroke:#444444;stroke-linecap:round;stroke-width:4.5;"/>
   </g>
   <g id="patch_5">
    <path d="M 42.567422 285.8325 
L 317.670782 285.8325 
" style="fill:none;stroke:#262626;stroke-linecap:square;stroke-linejoin:miter;stroke-width:1.875;"/>
   </g>
   <g id="PathCollection_1">
    <defs>
     <path d="M 0 1.5 
C 0.397805 1.5 0.77937 1.341951 1.06066 1.06066 
C 1.341951 0.77937 1.5 0.397805 1.5 0 
C 1.5 -0.397805 1.341951 -0.77937 1.06066 -1.06066 
C 0.77937 -1.341951 0.397805 -1.5 0 -1.5 
C -0.397805 -1.5 -0.77937 -1.341951 -1.06066 -1.06066 
C -1.341951 -0.77937 -1.5 -0.397805 -1.5 0 
C -1.5 0.397805 -1.341951 0.77937 -1.06066 1.06066 
C -0.77937 1.341951 -0.397805 1.5 0 1.5 
z
" id="m3fa14eebe0" style="stroke:#444444;stroke-width:1.5;"/>
    </defs>
    <g clip-path="url(#p6aae6138ce)">
     <use style="fill:#ffffff;stroke:#444444;stroke-width:1.5;" x="59.073623" xlink:href="#m3fa14eebe0" y="60.354947"/>
    </g>
   </g>
   <g id="PathCollection_2">
    <g clip-path="url(#p6aae6138ce)">
     <use style="fill:#ffffff;stroke:#444444;stroke-width:1.5;" x="81.081892" xlink:href="#m3fa14eebe0" y="64.987548"/>
    </g>
   </g>
   <g id="PathCollection_3">
    <g clip-path="url(#p6aae6138ce)">
     <use style="fill:#ffffff;stroke:#444444;stroke-width:1.5;" x="114.094295" xlink:href="#m3fa14eebe0" y="133.536403"/>
    </g>
   </g>
   <g id="PathCollection_4">
    <g clip-path="url(#p6aae6138ce)">
     <use style="fill:#ffffff;stroke:#444444;stroke-width:1.5;" x="136.102564" xlink:href="#m3fa14eebe0" y="143.621481"/>
    </g>
   </g>
   <g id="PathCollection_5">
    <g clip-path="url(#p6aae6138ce)">
     <use style="fill:#ffffff;stroke:#444444;stroke-width:1.5;" x="169.114967" xlink:href="#m3fa14eebe0" y="72.851203"/>
    </g>
   </g>
   <g id="PathCollection_6">
    <g clip-path="url(#p6aae6138ce)">
     <use style="fill:#ffffff;stroke:#444444;stroke-width:1.5;" x="191.123236" xlink:href="#m3fa14eebe0" y="80.436563"/>
    </g>
   </g>
   <g id="PathCollection_7">
    <g clip-path="url(#p6aae6138ce)">
     <use style="fill:#ffffff;stroke:#444444;stroke-width:1.5;" x="224.135639" xlink:href="#m3fa14eebe0" y="141.656435"/>
    </g>
   </g>
   <g id="PathCollection_8">
    <g clip-path="url(#p6aae6138ce)">
     <use style="fill:#ffffff;stroke:#444444;stroke-width:1.5;" x="246.143908" xlink:href="#m3fa14eebe0" y="153.390616"/>
    </g>
   </g>
   <g id="PathCollection_9">
    <g clip-path="url(#p6aae6138ce)">
     <use style="fill:#ffffff;stroke:#444444;stroke-width:1.5;" x="279.156311" xlink:href="#m3fa14eebe0" y="210.234013"/>
    </g>
   </g>
   <g id="PathCollection_10">
    <g clip-path="url(#p6aae6138ce)">
     <use style="fill:#ffffff;stroke:#444444;stroke-width:1.5;" x="301.16458" xlink:href="#m3fa14eebe0" y="216.91381"/>
    </g>
   </g>
  </g>
  <g id="text_12">
   <!-- Rice -->
   <defs>
    <path d="M 40.4375 19 
L 49.078125 17.875 
Q 47.65625 8.9375 41.8125 3.875 
Q 35.984375 -1.171875 27.484375 -1.171875 
Q 16.84375 -1.171875 10.375 5.78125 
Q 3.90625 12.75 3.90625 25.734375 
Q 3.90625 34.125 6.6875 40.421875 
Q 9.46875 46.734375 15.15625 49.875 
Q 20.84375 53.03125 27.546875 53.03125 
Q 35.984375 53.03125 41.359375 48.75 
Q 46.734375 44.484375 48.25 36.625 
L 39.703125 35.296875 
Q 38.484375 40.53125 35.375 43.15625 
Q 32.28125 45.796875 27.875 45.796875 
Q 21.234375 45.796875 17.078125 41.03125 
Q 12.9375 36.28125 12.9375 25.984375 
Q 12.9375 15.53125 16.9375 10.796875 
Q 20.953125 6.0625 27.390625 6.0625 
Q 32.5625 6.0625 36.03125 9.234375 
Q 39.5 12.40625 40.4375 19 
z
" id="ArialMT-99"/>
   </defs>
   <g style="fill:#262626;" transform="translate(174.837519 15.460875)scale(0.216 -0.216)">
    <use xlink:href="#ArialMT-82"/>
    <use x="72.216797" xlink:href="#ArialMT-105"/>
    <use x="94.433594" xlink:href="#ArialMT-99"/>
    <use x="144.433594" xlink:href="#ArialMT-101"/>
   </g>
  </g>
  <g id="legend_1">
   <g id="text_13">
    <!-- index -->
    <defs>
     <path d="M 0.734375 0 
L 19.671875 26.953125 
L 2.15625 51.859375 
L 13.140625 51.859375 
L 21.09375 39.703125 
Q 23.34375 36.234375 24.703125 33.890625 
Q 26.859375 37.109375 28.65625 39.59375 
L 37.40625 51.859375 
L 47.90625 51.859375 
L 29.984375 27.4375 
L 49.265625 0 
L 38.484375 0 
L 27.828125 16.109375 
L 25 20.453125 
L 11.375 0 
z
" id="ArialMT-120"/>
    </defs>
    <g style="fill:#262626;" transform="translate(341.747957 210.023336)scale(0.153 -0.153)">
     <use xlink:href="#ArialMT-105"/>
     <use x="22.216797" xlink:href="#ArialMT-110"/>
     <use x="77.832031" xlink:href="#ArialMT-100"/>
     <use x="133.447266" xlink:href="#ArialMT-101"/>
     <use x="189.0625" xlink:href="#ArialMT-120"/>
    </g>
   </g>
   <g id="patch_6">
    <path d="M 312.637504 233.124602 
L 345.637504 233.124602 
L 345.637504 221.574602 
L 312.637504 221.574602 
z
" style="fill:#e68193;stroke:#444444;stroke-linejoin:miter;stroke-width:0.75;"/>
   </g>
   <g id="text_14">
    <!-- actual -->
    <defs>
     <path d="M 40.578125 0 
L 40.578125 7.625 
Q 34.515625 -1.171875 24.125 -1.171875 
Q 19.53125 -1.171875 15.546875 0.578125 
Q 11.578125 2.34375 9.640625 5 
Q 7.71875 7.671875 6.9375 11.53125 
Q 6.390625 14.109375 6.390625 19.734375 
L 6.390625 51.859375 
L 15.1875 51.859375 
L 15.1875 23.09375 
Q 15.1875 16.21875 15.71875 13.8125 
Q 16.546875 10.359375 19.234375 8.375 
Q 21.921875 6.390625 25.875 6.390625 
Q 29.828125 6.390625 33.296875 8.421875 
Q 36.765625 10.453125 38.203125 13.9375 
Q 39.65625 17.4375 39.65625 24.078125 
L 39.65625 51.859375 
L 48.4375 51.859375 
L 48.4375 0 
z
" id="ArialMT-117"/>
    </defs>
    <g style="fill:#262626;" transform="translate(358.837504 233.124602)scale(0.165 -0.165)">
     <use xlink:href="#ArialMT-97"/>
     <use x="55.615234" xlink:href="#ArialMT-99"/>
     <use x="105.615234" xlink:href="#ArialMT-116"/>
     <use x="133.398438" xlink:href="#ArialMT-117"/>
     <use x="189.013672" xlink:href="#ArialMT-97"/>
     <use x="244.628906" xlink:href="#ArialMT-108"/>
    </g>
   </g>
   <g id="patch_7">
    <path d="M 312.637504 256.464367 
L 345.637504 256.464367 
L 345.637504 244.914367 
L 312.637504 244.914367 
z
" style="fill:#459e97;stroke:#444444;stroke-linejoin:miter;stroke-width:0.75;"/>
   </g>
   <g id="text_15">
    <!-- cluster -->
    <defs>
     <path d="M 3.078125 15.484375 
L 11.765625 16.84375 
Q 12.5 11.625 15.84375 8.84375 
Q 19.1875 6.0625 25.203125 6.0625 
Q 31.25 6.0625 34.171875 8.515625 
Q 37.109375 10.984375 37.109375 14.3125 
Q 37.109375 17.28125 34.515625 19 
Q 32.71875 20.171875 25.53125 21.96875 
Q 15.875 24.421875 12.140625 26.203125 
Q 8.40625 27.984375 6.46875 31.125 
Q 4.546875 34.28125 4.546875 38.09375 
Q 4.546875 41.546875 6.125 44.5 
Q 7.71875 47.46875 10.453125 49.421875 
Q 12.5 50.921875 16.03125 51.96875 
Q 19.578125 53.03125 23.640625 53.03125 
Q 29.734375 53.03125 34.34375 51.265625 
Q 38.96875 49.515625 41.15625 46.5 
Q 43.359375 43.5 44.1875 38.484375 
L 35.59375 37.3125 
Q 35.015625 41.3125 32.203125 43.546875 
Q 29.390625 45.796875 24.265625 45.796875 
Q 18.21875 45.796875 15.625 43.796875 
Q 13.03125 41.796875 13.03125 39.109375 
Q 13.03125 37.40625 14.109375 36.03125 
Q 15.1875 34.625 17.484375 33.6875 
Q 18.796875 33.203125 25.25 31.453125 
Q 34.578125 28.953125 38.25 27.359375 
Q 41.9375 25.78125 44.03125 22.75 
Q 46.140625 19.734375 46.140625 15.234375 
Q 46.140625 10.84375 43.578125 6.953125 
Q 41.015625 3.078125 36.171875 0.953125 
Q 31.34375 -1.171875 25.25 -1.171875 
Q 15.140625 -1.171875 9.84375 3.03125 
Q 4.546875 7.234375 3.078125 15.484375 
z
" id="ArialMT-115"/>
    </defs>
    <g style="fill:#262626;" transform="translate(358.837504 256.464367)scale(0.165 -0.165)">
     <use xlink:href="#ArialMT-99"/>
     <use x="50" xlink:href="#ArialMT-108"/>
     <use x="72.216797" xlink:href="#ArialMT-117"/>
     <use x="127.832031" xlink:href="#ArialMT-115"/>
     <use x="177.832031" xlink:href="#ArialMT-116"/>
     <use x="205.615234" xlink:href="#ArialMT-101"/>
     <use x="261.230469" xlink:href="#ArialMT-114"/>
    </g>
   </g>
  </g>
 </g>
 <defs>
  <clipPath id="p6aae6138ce">
   <rect height="254.6325" width="275.10336" x="42.567422" y="31.2"/>
  </clipPath>
 </defs>
</svg>
