<?xml version="1.0" encoding="utf-8" standalone="no"?>
<!DOCTYPE svg PUBLIC "-//W3C//DTD SVG 1.1//EN"
  "http://www.w3.org/Graphics/SVG/1.1/DTD/svg11.dtd">
<!-- Created with matplotlib (https://matplotlib.org/) -->
<svg height="458.815625pt" version="1.1" viewBox="0 0 418.13415 458.815625" width="418.13415pt" xmlns="http://www.w3.org/2000/svg" xmlns:xlink="http://www.w3.org/1999/xlink">
 <defs>
  <style type="text/css">
*{stroke-linecap:butt;stroke-linejoin:round;}
  </style>
 </defs>
 <g id="figure_1">
  <g id="patch_1">
   <path d="M 0 458.815625 
L 418.13415 458.815625 
L 418.13415 0 
L 0 0 
z
" style="fill:#ffffff;"/>
  </g>
  <g id="axes_1">
   <g id="patch_2">
    <path d="M 56.326875 285.8325 
L 313.52235 285.8325 
L 313.52235 31.2 
L 56.326875 31.2 
z
" style="fill:#ffffff;"/>
   </g>
   <g id="matplotlib.axis_1">
    <g id="xtick_1">
     <g id="text_1">
      <!-- Irrigation High -->
      <defs>
       <path d="M 9.328125 0 
L 9.328125 71.578125 
L 18.796875 71.578125 
L 18.796875 0 
z
" id="ArialMT-73"/>
       <path d="M 6.5 0 
L 6.5 51.859375 
L 14.40625 51.859375 
L 14.40625 44 
Q 17.4375 49.515625 20 51.265625 
Q 22.5625 53.03125 25.640625 53.03125 
Q 30.078125 53.03125 34.671875 50.203125 
L 31.640625 42.046875 
Q 28.421875 43.953125 25.203125 43.953125 
Q 22.3125 43.953125 20.015625 42.21875 
Q 17.71875 40.484375 16.75 37.40625 
Q 15.28125 32.71875 15.28125 27.15625 
L 15.28125 0 
z
" id="ArialMT-114"/>
       <path d="M 6.640625 61.46875 
L 6.640625 71.578125 
L 15.4375 71.578125 
L 15.4375 61.46875 
z
M 6.640625 0 
L 6.640625 51.859375 
L 15.4375 51.859375 
L 15.4375 0 
z
" id="ArialMT-105"/>
       <path d="M 4.984375 -4.296875 
L 13.53125 -5.5625 
Q 14.0625 -9.515625 16.5 -11.328125 
Q 19.78125 -13.765625 25.4375 -13.765625 
Q 31.546875 -13.765625 34.859375 -11.328125 
Q 38.1875 -8.890625 39.359375 -4.5 
Q 40.046875 -1.8125 39.984375 6.78125 
Q 34.234375 0 25.640625 0 
Q 14.9375 0 9.078125 7.71875 
Q 3.21875 15.4375 3.21875 26.21875 
Q 3.21875 33.640625 5.90625 39.90625 
Q 8.59375 46.1875 13.6875 49.609375 
Q 18.796875 53.03125 25.6875 53.03125 
Q 34.859375 53.03125 40.828125 45.609375 
L 40.828125 51.859375 
L 48.921875 51.859375 
L 48.921875 7.03125 
Q 48.921875 -5.078125 46.453125 -10.125 
Q 44 -15.1875 38.640625 -18.109375 
Q 33.296875 -21.046875 25.484375 -21.046875 
Q 16.21875 -21.046875 10.5 -16.875 
Q 4.78125 -12.703125 4.984375 -4.296875 
z
M 12.25 26.859375 
Q 12.25 16.65625 16.296875 11.96875 
Q 20.359375 7.28125 26.46875 7.28125 
Q 32.515625 7.28125 36.609375 11.9375 
Q 40.71875 16.609375 40.71875 26.5625 
Q 40.71875 36.078125 36.5 40.90625 
Q 32.28125 45.75 26.3125 45.75 
Q 20.453125 45.75 16.34375 40.984375 
Q 12.25 36.234375 12.25 26.859375 
z
" id="ArialMT-103"/>
       <path d="M 40.4375 6.390625 
Q 35.546875 2.25 31.03125 0.53125 
Q 26.515625 -1.171875 21.34375 -1.171875 
Q 12.796875 -1.171875 8.203125 3 
Q 3.609375 7.171875 3.609375 13.671875 
Q 3.609375 17.484375 5.34375 20.625 
Q 7.078125 23.78125 9.890625 25.6875 
Q 12.703125 27.59375 16.21875 28.5625 
Q 18.796875 29.25 24.03125 29.890625 
Q 34.671875 31.15625 39.703125 32.90625 
Q 39.75 34.71875 39.75 35.203125 
Q 39.75 40.578125 37.25 42.78125 
Q 33.890625 45.75 27.25 45.75 
Q 21.046875 45.75 18.09375 43.578125 
Q 15.140625 41.40625 13.71875 35.890625 
L 5.125 37.0625 
Q 6.296875 42.578125 8.984375 45.96875 
Q 11.671875 49.359375 16.75 51.1875 
Q 21.828125 53.03125 28.515625 53.03125 
Q 35.15625 53.03125 39.296875 51.46875 
Q 43.453125 49.90625 45.40625 47.53125 
Q 47.359375 45.171875 48.140625 41.546875 
Q 48.578125 39.3125 48.578125 33.453125 
L 48.578125 21.734375 
Q 48.578125 9.46875 49.140625 6.21875 
Q 49.703125 2.984375 51.375 0 
L 42.1875 0 
Q 40.828125 2.734375 40.4375 6.390625 
z
M 39.703125 26.03125 
Q 34.90625 24.078125 25.34375 22.703125 
Q 19.921875 21.921875 17.671875 20.9375 
Q 15.4375 19.96875 14.203125 18.09375 
Q 12.984375 16.21875 12.984375 13.921875 
Q 12.984375 10.40625 15.640625 8.0625 
Q 18.3125 5.71875 23.4375 5.71875 
Q 28.515625 5.71875 32.46875 7.9375 
Q 36.421875 10.15625 38.28125 14.015625 
Q 39.703125 17 39.703125 22.796875 
z
" id="ArialMT-97"/>
       <path d="M 25.78125 7.859375 
L 27.046875 0.09375 
Q 23.34375 -0.6875 20.40625 -0.6875 
Q 15.625 -0.6875 12.984375 0.828125 
Q 10.359375 2.34375 9.28125 4.8125 
Q 8.203125 7.28125 8.203125 15.1875 
L 8.203125 45.015625 
L 1.765625 45.015625 
L 1.765625 51.859375 
L 8.203125 51.859375 
L 8.203125 64.703125 
L 16.9375 69.96875 
L 16.9375 51.859375 
L 25.78125 51.859375 
L 25.78125 45.015625 
L 16.9375 45.015625 
L 16.9375 14.703125 
Q 16.9375 10.9375 17.40625 9.859375 
Q 17.875 8.796875 18.921875 8.15625 
Q 19.96875 7.515625 21.921875 7.515625 
Q 23.390625 7.515625 25.78125 7.859375 
z
" id="ArialMT-116"/>
       <path d="M 3.328125 25.921875 
Q 3.328125 40.328125 11.328125 47.265625 
Q 18.015625 53.03125 27.640625 53.03125 
Q 38.328125 53.03125 45.109375 46.015625 
Q 51.90625 39.015625 51.90625 26.65625 
Q 51.90625 16.65625 48.90625 10.90625 
Q 45.90625 5.171875 40.15625 2 
Q 34.421875 -1.171875 27.640625 -1.171875 
Q 16.75 -1.171875 10.03125 5.8125 
Q 3.328125 12.796875 3.328125 25.921875 
z
M 12.359375 25.921875 
Q 12.359375 15.96875 16.703125 11.015625 
Q 21.046875 6.0625 27.640625 6.0625 
Q 34.1875 6.0625 38.53125 11.03125 
Q 42.875 16.015625 42.875 26.21875 
Q 42.875 35.84375 38.5 40.796875 
Q 34.125 45.75 27.640625 45.75 
Q 21.046875 45.75 16.703125 40.8125 
Q 12.359375 35.890625 12.359375 25.921875 
z
" id="ArialMT-111"/>
       <path d="M 6.59375 0 
L 6.59375 51.859375 
L 14.5 51.859375 
L 14.5 44.484375 
Q 20.21875 53.03125 31 53.03125 
Q 35.6875 53.03125 39.625 51.34375 
Q 43.5625 49.65625 45.515625 46.921875 
Q 47.46875 44.1875 48.25 40.4375 
Q 48.734375 37.984375 48.734375 31.890625 
L 48.734375 0 
L 39.9375 0 
L 39.9375 31.546875 
Q 39.9375 36.921875 38.90625 39.578125 
Q 37.890625 42.234375 35.28125 43.8125 
Q 32.671875 45.40625 29.15625 45.40625 
Q 23.53125 45.40625 19.453125 41.84375 
Q 15.375 38.28125 15.375 28.328125 
L 15.375 0 
z
" id="ArialMT-110"/>
       <path id="ArialMT-32"/>
       <path d="M 8.015625 0 
L 8.015625 71.578125 
L 17.484375 71.578125 
L 17.484375 42.1875 
L 54.6875 42.1875 
L 54.6875 71.578125 
L 64.15625 71.578125 
L 64.15625 0 
L 54.6875 0 
L 54.6875 33.734375 
L 17.484375 33.734375 
L 17.484375 0 
z
" id="ArialMT-72"/>
       <path d="M 6.59375 0 
L 6.59375 71.578125 
L 15.375 71.578125 
L 15.375 45.90625 
Q 21.53125 53.03125 30.90625 53.03125 
Q 36.671875 53.03125 40.921875 50.75 
Q 45.171875 48.484375 47 44.484375 
Q 48.828125 40.484375 48.828125 32.859375 
L 48.828125 0 
L 40.046875 0 
L 40.046875 32.859375 
Q 40.046875 39.453125 37.1875 42.453125 
Q 34.328125 45.453125 29.109375 45.453125 
Q 25.203125 45.453125 21.75 43.421875 
Q 18.3125 41.40625 16.84375 37.9375 
Q 15.375 34.46875 15.375 28.375 
L 15.375 0 
z
" id="ArialMT-104"/>
      </defs>
      <g style="fill:#262626;" transform="translate(86.215251 401.039844)rotate(-90)scale(0.165 -0.165)">
       <use xlink:href="#ArialMT-73"/>
       <use x="27.783203" xlink:href="#ArialMT-114"/>
       <use x="61.083984" xlink:href="#ArialMT-114"/>
       <use x="94.384766" xlink:href="#ArialMT-105"/>
       <use x="116.601562" xlink:href="#ArialMT-103"/>
       <use x="172.216797" xlink:href="#ArialMT-97"/>
       <use x="227.832031" xlink:href="#ArialMT-116"/>
       <use x="255.615234" xlink:href="#ArialMT-105"/>
       <use x="277.832031" xlink:href="#ArialMT-111"/>
       <use x="333.447266" xlink:href="#ArialMT-110"/>
       <use x="389.0625" xlink:href="#ArialMT-32"/>
       <use x="416.845703" xlink:href="#ArialMT-72"/>
       <use x="489.0625" xlink:href="#ArialMT-105"/>
       <use x="511.279297" xlink:href="#ArialMT-103"/>
       <use x="566.894531" xlink:href="#ArialMT-104"/>
      </g>
     </g>
    </g>
    <g id="xtick_2">
     <g id="text_2">
      <!-- Irrigation Intermediate -->
      <defs>
       <path d="M 42.09375 16.703125 
L 51.171875 15.578125 
Q 49.03125 7.625 43.21875 3.21875 
Q 37.40625 -1.171875 28.375 -1.171875 
Q 17 -1.171875 10.328125 5.828125 
Q 3.65625 12.84375 3.65625 25.484375 
Q 3.65625 38.578125 10.390625 45.796875 
Q 17.140625 53.03125 27.875 53.03125 
Q 38.28125 53.03125 44.875 45.953125 
Q 51.46875 38.875 51.46875 26.03125 
Q 51.46875 25.25 51.421875 23.6875 
L 12.75 23.6875 
Q 13.234375 15.140625 17.578125 10.59375 
Q 21.921875 6.0625 28.421875 6.0625 
Q 33.25 6.0625 36.671875 8.59375 
Q 40.09375 11.140625 42.09375 16.703125 
z
M 13.234375 30.90625 
L 42.1875 30.90625 
Q 41.609375 37.453125 38.875 40.71875 
Q 34.671875 45.796875 27.984375 45.796875 
Q 21.921875 45.796875 17.796875 41.75 
Q 13.671875 37.703125 13.234375 30.90625 
z
" id="ArialMT-101"/>
       <path d="M 6.59375 0 
L 6.59375 51.859375 
L 14.453125 51.859375 
L 14.453125 44.578125 
Q 16.890625 48.390625 20.9375 50.703125 
Q 25 53.03125 30.171875 53.03125 
Q 35.9375 53.03125 39.625 50.640625 
Q 43.3125 48.25 44.828125 43.953125 
Q 50.984375 53.03125 60.84375 53.03125 
Q 68.5625 53.03125 72.703125 48.75 
Q 76.859375 44.484375 76.859375 35.59375 
L 76.859375 0 
L 68.109375 0 
L 68.109375 32.671875 
Q 68.109375 37.9375 67.25 40.25 
Q 66.40625 42.578125 64.15625 43.984375 
Q 61.921875 45.40625 58.890625 45.40625 
Q 53.421875 45.40625 49.796875 41.765625 
Q 46.1875 38.140625 46.1875 30.125 
L 46.1875 0 
L 37.40625 0 
L 37.40625 33.6875 
Q 37.40625 39.546875 35.25 42.46875 
Q 33.109375 45.40625 28.21875 45.40625 
Q 24.515625 45.40625 21.359375 43.453125 
Q 18.21875 41.5 16.796875 37.734375 
Q 15.375 33.984375 15.375 26.90625 
L 15.375 0 
z
" id="ArialMT-109"/>
       <path d="M 40.234375 0 
L 40.234375 6.546875 
Q 35.296875 -1.171875 25.734375 -1.171875 
Q 19.53125 -1.171875 14.328125 2.25 
Q 9.125 5.671875 6.265625 11.796875 
Q 3.421875 17.921875 3.421875 25.875 
Q 3.421875 33.640625 6 39.96875 
Q 8.59375 46.296875 13.765625 49.65625 
Q 18.953125 53.03125 25.34375 53.03125 
Q 30.03125 53.03125 33.6875 51.046875 
Q 37.359375 49.078125 39.65625 45.90625 
L 39.65625 71.578125 
L 48.390625 71.578125 
L 48.390625 0 
z
M 12.453125 25.875 
Q 12.453125 15.921875 16.640625 10.984375 
Q 20.84375 6.0625 26.5625 6.0625 
Q 32.328125 6.0625 36.34375 10.765625 
Q 40.375 15.484375 40.375 25.140625 
Q 40.375 35.796875 36.265625 40.765625 
Q 32.171875 45.75 26.171875 45.75 
Q 20.3125 45.75 16.375 40.96875 
Q 12.453125 36.1875 12.453125 25.875 
z
" id="ArialMT-100"/>
      </defs>
      <g style="fill:#262626;" transform="translate(137.654346 458.815625)rotate(-90)scale(0.165 -0.165)">
       <use xlink:href="#ArialMT-73"/>
       <use x="27.783203" xlink:href="#ArialMT-114"/>
       <use x="61.083984" xlink:href="#ArialMT-114"/>
       <use x="94.384766" xlink:href="#ArialMT-105"/>
       <use x="116.601562" xlink:href="#ArialMT-103"/>
       <use x="172.216797" xlink:href="#ArialMT-97"/>
       <use x="227.832031" xlink:href="#ArialMT-116"/>
       <use x="255.615234" xlink:href="#ArialMT-105"/>
       <use x="277.832031" xlink:href="#ArialMT-111"/>
       <use x="333.447266" xlink:href="#ArialMT-110"/>
       <use x="389.0625" xlink:href="#ArialMT-32"/>
       <use x="416.845703" xlink:href="#ArialMT-73"/>
       <use x="444.628906" xlink:href="#ArialMT-110"/>
       <use x="500.244141" xlink:href="#ArialMT-116"/>
       <use x="528.027344" xlink:href="#ArialMT-101"/>
       <use x="583.642578" xlink:href="#ArialMT-114"/>
       <use x="616.943359" xlink:href="#ArialMT-109"/>
       <use x="700.244141" xlink:href="#ArialMT-101"/>
       <use x="755.859375" xlink:href="#ArialMT-100"/>
       <use x="811.474609" xlink:href="#ArialMT-105"/>
       <use x="833.691406" xlink:href="#ArialMT-97"/>
       <use x="889.306641" xlink:href="#ArialMT-116"/>
       <use x="917.089844" xlink:href="#ArialMT-101"/>
      </g>
     </g>
    </g>
    <g id="xtick_3">
     <g id="text_3">
      <!-- Rain-fed High -->
      <defs>
       <path d="M 7.859375 0 
L 7.859375 71.578125 
L 39.59375 71.578125 
Q 49.171875 71.578125 54.140625 69.640625 
Q 59.125 67.71875 62.109375 62.828125 
Q 65.09375 57.953125 65.09375 52.046875 
Q 65.09375 44.4375 60.15625 39.203125 
Q 55.21875 33.984375 44.921875 32.5625 
Q 48.6875 30.765625 50.640625 29 
Q 54.78125 25.203125 58.5 19.484375 
L 70.953125 0 
L 59.03125 0 
L 49.5625 14.890625 
Q 45.40625 21.34375 42.71875 24.75 
Q 40.046875 28.171875 37.921875 29.53125 
Q 35.796875 30.90625 33.59375 31.453125 
Q 31.984375 31.78125 28.328125 31.78125 
L 17.328125 31.78125 
L 17.328125 0 
z
M 17.328125 39.984375 
L 37.703125 39.984375 
Q 44.1875 39.984375 47.84375 41.328125 
Q 51.515625 42.671875 53.421875 45.625 
Q 55.328125 48.578125 55.328125 52.046875 
Q 55.328125 57.125 51.640625 60.390625 
Q 47.953125 63.671875 39.984375 63.671875 
L 17.328125 63.671875 
z
" id="ArialMT-82"/>
       <path d="M 3.171875 21.484375 
L 3.171875 30.328125 
L 30.171875 30.328125 
L 30.171875 21.484375 
z
" id="ArialMT-45"/>
       <path d="M 8.6875 0 
L 8.6875 45.015625 
L 0.921875 45.015625 
L 0.921875 51.859375 
L 8.6875 51.859375 
L 8.6875 57.375 
Q 8.6875 62.59375 9.625 65.140625 
Q 10.890625 68.5625 14.078125 70.671875 
Q 17.28125 72.796875 23.046875 72.796875 
Q 26.765625 72.796875 31.25 71.921875 
L 29.9375 64.265625 
Q 27.203125 64.75 24.75 64.75 
Q 20.75 64.75 19.09375 63.03125 
Q 17.4375 61.328125 17.4375 56.640625 
L 17.4375 51.859375 
L 27.546875 51.859375 
L 27.546875 45.015625 
L 17.4375 45.015625 
L 17.4375 0 
z
" id="ArialMT-102"/>
      </defs>
      <g style="fill:#262626;" transform="translate(189.193988 399.211953)rotate(-90)scale(0.165 -0.165)">
       <use xlink:href="#ArialMT-82"/>
       <use x="72.216797" xlink:href="#ArialMT-97"/>
       <use x="127.832031" xlink:href="#ArialMT-105"/>
       <use x="150.048828" xlink:href="#ArialMT-110"/>
       <use x="205.664062" xlink:href="#ArialMT-45"/>
       <use x="238.964844" xlink:href="#ArialMT-102"/>
       <use x="266.748047" xlink:href="#ArialMT-101"/>
       <use x="322.363281" xlink:href="#ArialMT-100"/>
       <use x="377.978516" xlink:href="#ArialMT-32"/>
       <use x="405.761719" xlink:href="#ArialMT-72"/>
       <use x="477.978516" xlink:href="#ArialMT-105"/>
       <use x="500.195312" xlink:href="#ArialMT-103"/>
       <use x="555.810547" xlink:href="#ArialMT-104"/>
      </g>
     </g>
    </g>
    <g id="xtick_4">
     <g id="text_4">
      <!-- Rain-fed Intermediate -->
      <g style="fill:#262626;" transform="translate(240.629215 456.987734)rotate(-90)scale(0.165 -0.165)">
       <use xlink:href="#ArialMT-82"/>
       <use x="72.216797" xlink:href="#ArialMT-97"/>
       <use x="127.832031" xlink:href="#ArialMT-105"/>
       <use x="150.048828" xlink:href="#ArialMT-110"/>
       <use x="205.664062" xlink:href="#ArialMT-45"/>
       <use x="238.964844" xlink:href="#ArialMT-102"/>
       <use x="266.748047" xlink:href="#ArialMT-101"/>
       <use x="322.363281" xlink:href="#ArialMT-100"/>
       <use x="377.978516" xlink:href="#ArialMT-32"/>
       <use x="405.761719" xlink:href="#ArialMT-73"/>
       <use x="433.544922" xlink:href="#ArialMT-110"/>
       <use x="489.160156" xlink:href="#ArialMT-116"/>
       <use x="516.943359" xlink:href="#ArialMT-101"/>
       <use x="572.558594" xlink:href="#ArialMT-114"/>
       <use x="605.859375" xlink:href="#ArialMT-109"/>
       <use x="689.160156" xlink:href="#ArialMT-101"/>
       <use x="744.775391" xlink:href="#ArialMT-100"/>
       <use x="800.390625" xlink:href="#ArialMT-105"/>
       <use x="822.607422" xlink:href="#ArialMT-97"/>
       <use x="878.222656" xlink:href="#ArialMT-116"/>
       <use x="906.005859" xlink:href="#ArialMT-101"/>
      </g>
     </g>
    </g>
    <g id="xtick_5">
     <g id="text_5">
      <!-- Rain-fed Low -->
      <defs>
       <path d="M 7.328125 0 
L 7.328125 71.578125 
L 16.796875 71.578125 
L 16.796875 8.453125 
L 52.046875 8.453125 
L 52.046875 0 
z
" id="ArialMT-76"/>
       <path d="M 16.15625 0 
L 0.296875 51.859375 
L 9.375 51.859375 
L 17.625 21.921875 
L 20.703125 10.796875 
Q 20.90625 11.625 23.390625 21.484375 
L 31.640625 51.859375 
L 40.671875 51.859375 
L 48.4375 21.78125 
L 51.03125 11.859375 
L 54 21.875 
L 62.890625 51.859375 
L 71.4375 51.859375 
L 55.21875 0 
L 46.09375 0 
L 37.84375 31.0625 
L 35.84375 39.890625 
L 25.34375 0 
z
" id="ArialMT-119"/>
      </defs>
      <g style="fill:#262626;" transform="translate(292.06831 395.545859)rotate(-90)scale(0.165 -0.165)">
       <use xlink:href="#ArialMT-82"/>
       <use x="72.216797" xlink:href="#ArialMT-97"/>
       <use x="127.832031" xlink:href="#ArialMT-105"/>
       <use x="150.048828" xlink:href="#ArialMT-110"/>
       <use x="205.664062" xlink:href="#ArialMT-45"/>
       <use x="238.964844" xlink:href="#ArialMT-102"/>
       <use x="266.748047" xlink:href="#ArialMT-101"/>
       <use x="322.363281" xlink:href="#ArialMT-100"/>
       <use x="377.978516" xlink:href="#ArialMT-32"/>
       <use x="405.761719" xlink:href="#ArialMT-76"/>
       <use x="461.376953" xlink:href="#ArialMT-111"/>
       <use x="516.992188" xlink:href="#ArialMT-119"/>
      </g>
     </g>
    </g>
   </g>
   <g id="matplotlib.axis_2">
    <g id="ytick_1">
     <g id="text_6">
      <!-- 0.0 -->
      <defs>
       <path d="M 4.15625 35.296875 
Q 4.15625 48 6.765625 55.734375 
Q 9.375 63.484375 14.515625 67.671875 
Q 19.671875 71.875 27.484375 71.875 
Q 33.25 71.875 37.59375 69.546875 
Q 41.9375 67.234375 44.765625 62.859375 
Q 47.609375 58.5 49.21875 52.21875 
Q 50.828125 45.953125 50.828125 35.296875 
Q 50.828125 22.703125 48.234375 14.96875 
Q 45.65625 7.234375 40.5 3 
Q 35.359375 -1.21875 27.484375 -1.21875 
Q 17.140625 -1.21875 11.234375 6.203125 
Q 4.15625 15.140625 4.15625 35.296875 
z
M 13.1875 35.296875 
Q 13.1875 17.671875 17.3125 11.828125 
Q 21.4375 6 27.484375 6 
Q 33.546875 6 37.671875 11.859375 
Q 41.796875 17.71875 41.796875 35.296875 
Q 41.796875 52.984375 37.671875 58.78125 
Q 33.546875 64.59375 27.390625 64.59375 
Q 21.34375 64.59375 17.71875 59.46875 
Q 13.1875 52.9375 13.1875 35.296875 
z
" id="ArialMT-48"/>
       <path d="M 9.078125 0 
L 9.078125 10.015625 
L 19.09375 10.015625 
L 19.09375 0 
z
" id="ArialMT-46"/>
      </defs>
      <g style="fill:#262626;" transform="translate(20.891875 280.163491)scale(0.165 -0.165)">
       <use xlink:href="#ArialMT-48"/>
       <use x="55.615234" xlink:href="#ArialMT-46"/>
       <use x="83.398438" xlink:href="#ArialMT-48"/>
      </g>
     </g>
    </g>
    <g id="ytick_2">
     <g id="text_7">
      <!-- 0.5 -->
      <defs>
       <path d="M 4.15625 18.75 
L 13.375 19.53125 
Q 14.40625 12.796875 18.140625 9.390625 
Q 21.875 6 27.15625 6 
Q 33.5 6 37.890625 10.78125 
Q 42.28125 15.578125 42.28125 23.484375 
Q 42.28125 31 38.0625 35.34375 
Q 33.84375 39.703125 27 39.703125 
Q 22.75 39.703125 19.328125 37.765625 
Q 15.921875 35.84375 13.96875 32.765625 
L 5.71875 33.84375 
L 12.640625 70.609375 
L 48.25 70.609375 
L 48.25 62.203125 
L 19.671875 62.203125 
L 15.828125 42.96875 
Q 22.265625 47.46875 29.34375 47.46875 
Q 38.71875 47.46875 45.15625 40.96875 
Q 51.609375 34.46875 51.609375 24.265625 
Q 51.609375 14.546875 45.953125 7.46875 
Q 39.0625 -1.21875 27.15625 -1.21875 
Q 17.390625 -1.21875 11.203125 4.25 
Q 5.03125 9.71875 4.15625 18.75 
z
" id="ArialMT-53"/>
      </defs>
      <g style="fill:#262626;" transform="translate(20.891875 241.401922)scale(0.165 -0.165)">
       <use xlink:href="#ArialMT-48"/>
       <use x="55.615234" xlink:href="#ArialMT-46"/>
       <use x="83.398438" xlink:href="#ArialMT-53"/>
      </g>
     </g>
    </g>
    <g id="ytick_3">
     <g id="text_8">
      <!-- 1.0 -->
      <defs>
       <path d="M 37.25 0 
L 28.46875 0 
L 28.46875 56 
Q 25.296875 52.984375 20.140625 49.953125 
Q 14.984375 46.921875 10.890625 45.40625 
L 10.890625 53.90625 
Q 18.265625 57.375 23.78125 62.296875 
Q 29.296875 67.234375 31.59375 71.875 
L 37.25 71.875 
z
" id="ArialMT-49"/>
      </defs>
      <g style="fill:#262626;" transform="translate(20.891875 202.640354)scale(0.165 -0.165)">
       <use xlink:href="#ArialMT-49"/>
       <use x="55.615234" xlink:href="#ArialMT-46"/>
       <use x="83.398438" xlink:href="#ArialMT-48"/>
      </g>
     </g>
    </g>
    <g id="ytick_4">
     <g id="text_9">
      <!-- 1.5 -->
      <g style="fill:#262626;" transform="translate(20.891875 163.878786)scale(0.165 -0.165)">
       <use xlink:href="#ArialMT-49"/>
       <use x="55.615234" xlink:href="#ArialMT-46"/>
       <use x="83.398438" xlink:href="#ArialMT-53"/>
      </g>
     </g>
    </g>
    <g id="ytick_5">
     <g id="text_10">
      <!-- 2.0 -->
      <defs>
       <path d="M 50.34375 8.453125 
L 50.34375 0 
L 3.03125 0 
Q 2.9375 3.171875 4.046875 6.109375 
Q 5.859375 10.9375 9.828125 15.625 
Q 13.8125 20.3125 21.34375 26.46875 
Q 33.015625 36.03125 37.109375 41.625 
Q 41.21875 47.21875 41.21875 52.203125 
Q 41.21875 57.421875 37.46875 61 
Q 33.734375 64.59375 27.734375 64.59375 
Q 21.390625 64.59375 17.578125 60.78125 
Q 13.765625 56.984375 13.71875 50.25 
L 4.6875 51.171875 
Q 5.609375 61.28125 11.65625 66.578125 
Q 17.71875 71.875 27.9375 71.875 
Q 38.234375 71.875 44.234375 66.15625 
Q 50.25 60.453125 50.25 52 
Q 50.25 47.703125 48.484375 43.546875 
Q 46.734375 39.40625 42.65625 34.8125 
Q 38.578125 30.21875 29.109375 22.21875 
Q 21.1875 15.578125 18.9375 13.203125 
Q 16.703125 10.84375 15.234375 8.453125 
z
" id="ArialMT-50"/>
      </defs>
      <g style="fill:#262626;" transform="translate(20.891875 125.117217)scale(0.165 -0.165)">
       <use xlink:href="#ArialMT-50"/>
       <use x="55.615234" xlink:href="#ArialMT-46"/>
       <use x="83.398438" xlink:href="#ArialMT-48"/>
      </g>
     </g>
    </g>
    <g id="ytick_6">
     <g id="text_11">
      <!-- 2.5 -->
      <g style="fill:#262626;" transform="translate(20.891875 86.355649)scale(0.165 -0.165)">
       <use xlink:href="#ArialMT-50"/>
       <use x="55.615234" xlink:href="#ArialMT-46"/>
       <use x="83.398438" xlink:href="#ArialMT-53"/>
      </g>
     </g>
    </g>
    <g id="ytick_7">
     <g id="text_12">
      <!-- 3.0 -->
      <defs>
       <path d="M 4.203125 18.890625 
L 12.984375 20.0625 
Q 14.5 12.59375 18.140625 9.296875 
Q 21.78125 6 27 6 
Q 33.203125 6 37.46875 10.296875 
Q 41.75 14.59375 41.75 20.953125 
Q 41.75 27 37.796875 30.921875 
Q 33.84375 34.859375 27.734375 34.859375 
Q 25.25 34.859375 21.53125 33.890625 
L 22.515625 41.609375 
Q 23.390625 41.5 23.921875 41.5 
Q 29.546875 41.5 34.03125 44.421875 
Q 38.53125 47.359375 38.53125 53.46875 
Q 38.53125 58.296875 35.25 61.46875 
Q 31.984375 64.65625 26.8125 64.65625 
Q 21.6875 64.65625 18.265625 61.421875 
Q 14.84375 58.203125 13.875 51.765625 
L 5.078125 53.328125 
Q 6.6875 62.15625 12.390625 67.015625 
Q 18.109375 71.875 26.609375 71.875 
Q 32.46875 71.875 37.390625 69.359375 
Q 42.328125 66.84375 44.9375 62.5 
Q 47.5625 58.15625 47.5625 53.265625 
Q 47.5625 48.640625 45.0625 44.828125 
Q 42.578125 41.015625 37.703125 38.765625 
Q 44.046875 37.3125 47.5625 32.6875 
Q 51.078125 28.078125 51.078125 21.140625 
Q 51.078125 11.765625 44.234375 5.25 
Q 37.40625 -1.265625 26.953125 -1.265625 
Q 17.53125 -1.265625 11.296875 4.34375 
Q 5.078125 9.96875 4.203125 18.890625 
z
" id="ArialMT-51"/>
      </defs>
      <g style="fill:#262626;" transform="translate(20.891875 47.594081)scale(0.165 -0.165)">
       <use xlink:href="#ArialMT-51"/>
       <use x="55.615234" xlink:href="#ArialMT-46"/>
       <use x="83.398438" xlink:href="#ArialMT-48"/>
      </g>
     </g>
    </g>
    <g id="text_13">
     <!-- Yield (t/ha) -->
     <defs>
      <path d="M 27.875 0 
L 27.875 30.328125 
L 0.296875 71.578125 
L 11.8125 71.578125 
L 25.921875 50 
Q 29.828125 43.953125 33.203125 37.890625 
Q 36.421875 43.5 41.015625 50.53125 
L 54.890625 71.578125 
L 65.921875 71.578125 
L 37.359375 30.328125 
L 37.359375 0 
z
" id="ArialMT-89"/>
      <path d="M 6.390625 0 
L 6.390625 71.578125 
L 15.1875 71.578125 
L 15.1875 0 
z
" id="ArialMT-108"/>
      <path d="M 23.390625 -21.046875 
Q 16.109375 -11.859375 11.078125 0.4375 
Q 6.0625 12.75 6.0625 25.921875 
Q 6.0625 37.546875 9.8125 48.1875 
Q 14.203125 60.546875 23.390625 72.796875 
L 29.6875 72.796875 
Q 23.78125 62.640625 21.875 58.296875 
Q 18.890625 51.5625 17.1875 44.234375 
Q 15.09375 35.109375 15.09375 25.875 
Q 15.09375 2.390625 29.6875 -21.046875 
z
" id="ArialMT-40"/>
      <path d="M 0 -1.21875 
L 20.75 72.796875 
L 27.78125 72.796875 
L 7.078125 -1.21875 
z
" id="ArialMT-47"/>
      <path d="M 12.359375 -21.046875 
L 6.0625 -21.046875 
Q 20.65625 2.390625 20.65625 25.875 
Q 20.65625 35.0625 18.5625 44.09375 
Q 16.890625 51.421875 13.921875 58.15625 
Q 12.015625 62.546875 6.0625 72.796875 
L 12.359375 72.796875 
Q 21.53125 60.546875 25.921875 48.1875 
Q 29.6875 37.546875 29.6875 25.921875 
Q 29.6875 12.75 24.625 0.4375 
Q 19.578125 -11.859375 12.359375 -21.046875 
z
" id="ArialMT-41"/>
     </defs>
     <g style="fill:#262626;" transform="translate(13.103438 202.028438)rotate(-90)scale(0.18 -0.18)">
      <use xlink:href="#ArialMT-89"/>
      <use x="66.652344" xlink:href="#ArialMT-105"/>
      <use x="88.869141" xlink:href="#ArialMT-101"/>
      <use x="144.484375" xlink:href="#ArialMT-108"/>
      <use x="166.701172" xlink:href="#ArialMT-100"/>
      <use x="222.316406" xlink:href="#ArialMT-32"/>
      <use x="250.099609" xlink:href="#ArialMT-40"/>
      <use x="283.400391" xlink:href="#ArialMT-116"/>
      <use x="311.183594" xlink:href="#ArialMT-47"/>
      <use x="338.966797" xlink:href="#ArialMT-104"/>
      <use x="394.582031" xlink:href="#ArialMT-97"/>
      <use x="450.197266" xlink:href="#ArialMT-41"/>
     </g>
    </g>
   </g>
   <g id="PolyCollection_1">
    <defs>
     <path d="M 76.354145 -184.55733 
L 67.163062 -184.55733 
L 67.211363 -186.895553 
L 67.35324 -189.233776 
L 67.579932 -191.571999 
L 67.877839 -193.910222 
L 68.22987 -196.248445 
L 68.617061 -198.586668 
L 69.020249 -200.924892 
L 69.421602 -203.263115 
L 69.805835 -205.601338 
L 70.161014 -207.939561 
L 70.478921 -210.277784 
L 70.755 -212.616007 
L 70.987977 -214.95423 
L 71.179243 -217.292454 
L 71.332145 -219.630677 
L 71.451258 -221.9689 
L 71.541732 -224.307123 
L 71.608772 -226.645346 
L 71.65725 -228.983569 
L 71.691471 -231.321792 
L 71.715058 -233.660015 
L 71.730932 -235.998239 
L 71.741358 -238.336462 
L 71.748031 -240.674685 
L 71.752174 -243.012908 
L 71.75464 -245.351131 
L 71.755996 -247.689354 
L 71.756602 -250.027577 
L 71.756662 -252.365801 
L 71.756271 -254.704024 
L 71.755442 -257.042247 
L 71.754125 -259.38047 
L 71.752222 -261.718693 
L 71.749594 -264.056916 
L 71.746072 -266.395139 
L 71.74146 -268.733363 
L 71.735553 -271.071586 
L 71.728143 -273.409809 
L 71.719037 -275.748032 
L 71.708077 -278.086255 
L 71.69515 -280.424478 
L 71.68021 -282.762701 
L 71.663279 -285.100925 
L 71.644453 -287.439148 
L 71.623888 -289.777371 
L 71.601771 -292.115594 
L 71.578283 -294.453817 
L 71.553536 -296.79204 
L 71.527507 -299.130263 
L 71.49996 -301.468487 
L 71.470361 -303.80671 
L 71.437803 -306.144933 
L 71.400952 -308.483156 
L 71.358003 -310.821379 
L 71.306684 -313.159602 
L 71.244299 -315.497825 
L 71.167824 -317.836049 
L 71.07405 -320.174272 
L 70.959788 -322.512495 
L 70.822115 -324.850718 
L 70.658649 -327.188941 
L 70.46783 -329.527164 
L 70.249174 -331.865387 
L 70.00347 -334.203611 
L 69.732864 -336.541834 
L 69.440821 -338.880057 
L 69.131918 -341.21828 
L 68.811479 -343.556503 
L 68.485066 -345.894726 
L 68.157864 -348.232949 
L 67.834044 -350.571173 
L 67.516178 -352.909396 
L 67.204802 -355.247619 
L 66.898221 -357.585842 
L 66.592612 -359.924065 
L 66.282452 -362.262288 
L 65.961261 -364.600511 
L 65.622581 -366.938735 
L 65.261104 -369.276958 
L 64.873798 -371.615181 
L 64.460894 -373.953404 
L 64.026606 -376.291627 
L 63.579458 -378.62985 
L 63.132179 -380.968073 
L 62.701139 -383.306296 
L 62.305367 -385.64452 
L 61.965244 -387.982743 
L 61.700992 -390.320966 
L 61.531091 -392.659189 
L 61.470785 -394.997412 
L 61.530805 -397.335635 
L 61.71643 -399.673858 
L 62.026963 -402.012082 
L 62.455674 -404.350305 
L 62.990203 -406.688528 
L 63.613395 -409.026751 
L 64.304468 -411.364974 
L 65.040427 -413.703197 
L 65.797569 -416.04142 
L 77.719638 -416.04142 
L 77.719638 -416.04142 
L 78.47678 -413.703197 
L 79.212739 -411.364974 
L 79.903812 -409.026751 
L 80.527004 -406.688528 
L 81.061533 -404.350305 
L 81.490244 -402.012082 
L 81.800777 -399.673858 
L 81.986402 -397.335635 
L 82.046423 -394.997412 
L 81.986116 -392.659189 
L 81.816215 -390.320966 
L 81.551963 -387.982743 
L 81.21184 -385.64452 
L 80.816068 -383.306296 
L 80.385028 -380.968073 
L 79.937749 -378.62985 
L 79.490601 -376.291627 
L 79.056313 -373.953404 
L 78.643409 -371.615181 
L 78.256103 -369.276958 
L 77.894626 -366.938735 
L 77.555946 -364.600511 
L 77.234755 -362.262288 
L 76.924595 -359.924065 
L 76.618986 -357.585842 
L 76.312405 -355.247619 
L 76.001029 -352.909396 
L 75.683163 -350.571173 
L 75.359343 -348.232949 
L 75.032141 -345.894726 
L 74.705728 -343.556503 
L 74.385289 -341.21828 
L 74.076386 -338.880057 
L 73.784343 -336.541834 
L 73.513737 -334.203611 
L 73.268033 -331.865387 
L 73.049377 -329.527164 
L 72.858558 -327.188941 
L 72.695092 -324.850718 
L 72.557419 -322.512495 
L 72.443157 -320.174272 
L 72.349383 -317.836049 
L 72.272908 -315.497825 
L 72.210523 -313.159602 
L 72.159204 -310.821379 
L 72.116255 -308.483156 
L 72.079404 -306.144933 
L 72.046846 -303.80671 
L 72.017247 -301.468487 
L 71.9897 -299.130263 
L 71.963671 -296.79204 
L 71.938924 -294.453817 
L 71.915436 -292.115594 
L 71.893319 -289.777371 
L 71.872754 -287.439148 
L 71.853928 -285.100925 
L 71.836997 -282.762701 
L 71.822057 -280.424478 
L 71.80913 -278.086255 
L 71.79817 -275.748032 
L 71.789064 -273.409809 
L 71.781654 -271.071586 
L 71.775747 -268.733363 
L 71.771135 -266.395139 
L 71.767613 -264.056916 
L 71.764985 -261.718693 
L 71.763082 -259.38047 
L 71.761765 -257.042247 
L 71.760936 -254.704024 
L 71.760545 -252.365801 
L 71.760605 -250.027577 
L 71.761211 -247.689354 
L 71.762567 -245.351131 
L 71.765033 -243.012908 
L 71.769176 -240.674685 
L 71.775849 -238.336462 
L 71.786275 -235.998239 
L 71.802149 -233.660015 
L 71.825736 -231.321792 
L 71.859957 -228.983569 
L 71.908435 -226.645346 
L 71.975475 -224.307123 
L 72.065949 -221.9689 
L 72.185062 -219.630677 
L 72.337964 -217.292454 
L 72.52923 -214.95423 
L 72.762207 -212.616007 
L 73.038286 -210.277784 
L 73.356193 -207.939561 
L 73.711372 -205.601338 
L 74.095605 -203.263115 
L 74.496958 -200.924892 
L 74.900146 -198.586668 
L 75.287337 -196.248445 
L 75.639368 -193.910222 
L 75.937275 -191.571999 
L 76.163967 -189.233776 
L 76.305844 -186.895553 
L 76.354145 -184.55733 
z
" id="m4644ed9d6c" style="stroke:#444444;stroke-width:1.5;"/>
    </defs>
    <g clip-path="url(#pd00635bf5e)">
     <use style="fill:#e68193;stroke:#444444;stroke-width:1.5;" x="0" xlink:href="#m4644ed9d6c" y="458.815625"/>
    </g>
   </g>
   <g id="PolyCollection_2">
    <defs>
     <path d="M 94.427263 -184.55733 
L 90.24122 -184.55733 
L 90.238105 -186.74526 
L 90.237862 -188.933191 
L 90.24043 -191.121122 
L 90.245729 -193.309053 
L 90.253661 -195.496984 
L 90.264111 -197.684915 
L 90.276948 -199.872846 
L 90.292025 -202.060777 
L 90.309179 -204.248708 
L 90.328235 -206.436639 
L 90.349004 -208.62457 
L 90.371284 -210.812501 
L 90.394866 -213.000432 
L 90.41953 -215.188363 
L 90.445049 -217.376294 
L 90.471188 -219.564224 
L 90.497712 -221.752155 
L 90.524378 -223.940086 
L 90.550945 -226.128017 
L 90.57717 -228.315948 
L 90.602813 -230.503879 
L 90.627637 -232.69181 
L 90.65141 -234.879741 
L 90.673904 -237.067672 
L 90.694899 -239.255603 
L 90.714187 -241.443534 
L 90.731564 -243.631465 
L 90.746842 -245.819396 
L 90.759844 -248.007327 
L 90.770403 -250.195258 
L 90.778368 -252.383188 
L 90.783604 -254.571119 
L 90.785989 -256.75905 
L 90.785417 -258.946981 
L 90.7818 -261.134912 
L 90.775063 -263.322843 
L 90.765152 -265.510774 
L 90.752026 -267.698705 
L 90.735664 -269.886636 
L 90.716061 -272.074567 
L 90.693228 -274.262498 
L 90.667193 -276.450429 
L 90.638002 -278.63836 
L 90.605714 -280.826291 
L 90.570407 -283.014222 
L 90.532172 -285.202152 
L 90.491114 -287.390083 
L 90.447354 -289.578014 
L 90.401026 -291.765945 
L 90.352276 -293.953876 
L 90.301263 -296.141807 
L 90.248156 -298.329738 
L 90.193136 -300.517669 
L 90.136393 -302.7056 
L 90.078127 -304.893531 
L 90.018545 -307.081462 
L 89.957862 -309.269393 
L 89.8963 -311.457324 
L 89.834086 -313.645255 
L 89.771451 -315.833186 
L 89.708632 -318.021116 
L 89.645867 -320.209047 
L 89.583397 -322.396978 
L 89.521464 -324.584909 
L 89.460309 -326.77284 
L 89.400176 -328.960771 
L 89.341302 -331.148702 
L 89.283926 -333.336633 
L 89.228281 -335.524564 
L 89.174595 -337.712495 
L 89.123094 -339.900426 
L 89.073994 -342.088357 
L 89.027506 -344.276288 
L 88.983831 -346.464219 
L 88.943162 -348.65215 
L 88.905683 -350.84008 
L 88.871566 -353.028011 
L 88.84097 -355.215942 
L 88.814046 -357.403873 
L 88.790927 -359.591804 
L 88.771736 -361.779735 
L 88.756578 -363.967666 
L 88.745547 -366.155597 
L 88.738719 -368.343528 
L 88.736153 -370.531459 
L 88.737895 -372.71939 
L 88.743972 -374.907321 
L 88.754394 -377.095252 
L 88.769155 -379.283183 
L 88.788232 -381.471114 
L 88.811584 -383.659044 
L 88.839155 -385.846975 
L 88.87087 -388.034906 
L 88.906641 -390.222837 
L 88.946362 -392.410768 
L 88.989913 -394.598699 
L 89.037158 -396.78663 
L 89.087949 -398.974561 
L 89.142125 -401.162492 
L 95.526358 -401.162492 
L 95.526358 -401.162492 
L 95.580534 -398.974561 
L 95.631325 -396.78663 
L 95.67857 -394.598699 
L 95.722121 -392.410768 
L 95.761842 -390.222837 
L 95.797613 -388.034906 
L 95.829328 -385.846975 
L 95.856899 -383.659044 
L 95.880251 -381.471114 
L 95.899328 -379.283183 
L 95.914089 -377.095252 
L 95.924511 -374.907321 
L 95.930588 -372.71939 
L 95.93233 -370.531459 
L 95.929764 -368.343528 
L 95.922936 -366.155597 
L 95.911905 -363.967666 
L 95.896747 -361.779735 
L 95.877556 -359.591804 
L 95.854437 -357.403873 
L 95.827513 -355.215942 
L 95.796917 -353.028011 
L 95.7628 -350.84008 
L 95.725321 -348.65215 
L 95.684652 -346.464219 
L 95.640977 -344.276288 
L 95.594489 -342.088357 
L 95.545389 -339.900426 
L 95.493888 -337.712495 
L 95.440202 -335.524564 
L 95.384557 -333.336633 
L 95.327181 -331.148702 
L 95.268307 -328.960771 
L 95.208174 -326.77284 
L 95.147019 -324.584909 
L 95.085086 -322.396978 
L 95.022616 -320.209047 
L 94.959851 -318.021116 
L 94.897032 -315.833186 
L 94.834397 -313.645255 
L 94.772183 -311.457324 
L 94.710621 -309.269393 
L 94.649938 -307.081462 
L 94.590356 -304.893531 
L 94.53209 -302.7056 
L 94.475347 -300.517669 
L 94.420327 -298.329738 
L 94.36722 -296.141807 
L 94.316207 -293.953876 
L 94.267457 -291.765945 
L 94.221129 -289.578014 
L 94.177369 -287.390083 
L 94.136311 -285.202152 
L 94.098076 -283.014222 
L 94.062769 -280.826291 
L 94.030481 -278.63836 
L 94.00129 -276.450429 
L 93.975255 -274.262498 
L 93.952422 -272.074567 
L 93.932819 -269.886636 
L 93.916457 -267.698705 
L 93.903331 -265.510774 
L 93.89342 -263.322843 
L 93.886683 -261.134912 
L 93.883066 -258.946981 
L 93.882494 -256.75905 
L 93.884879 -254.571119 
L 93.890115 -252.383188 
L 93.89808 -250.195258 
L 93.908639 -248.007327 
L 93.921641 -245.819396 
L 93.936919 -243.631465 
L 93.954296 -241.443534 
L 93.973584 -239.255603 
L 93.994579 -237.067672 
L 94.017073 -234.879741 
L 94.040846 -232.69181 
L 94.06567 -230.503879 
L 94.091313 -228.315948 
L 94.117538 -226.128017 
L 94.144105 -223.940086 
L 94.170771 -221.752155 
L 94.197295 -219.564224 
L 94.223434 -217.376294 
L 94.248953 -215.188363 
L 94.273617 -213.000432 
L 94.297199 -210.812501 
L 94.319479 -208.62457 
L 94.340248 -206.436639 
L 94.359304 -204.248708 
L 94.376458 -202.060777 
L 94.391535 -199.872846 
L 94.404372 -197.684915 
L 94.414822 -195.496984 
L 94.422754 -193.309053 
L 94.428053 -191.121122 
L 94.430621 -188.933191 
L 94.430378 -186.74526 
L 94.427263 -184.55733 
z
" id="m66b2e12672" style="stroke:#444444;stroke-width:1.5;"/>
    </defs>
    <g clip-path="url(#pd00635bf5e)">
     <use style="fill:#459e97;stroke:#444444;stroke-width:1.5;" x="0" xlink:href="#m66b2e12672" y="458.815625"/>
    </g>
   </g>
   <g id="PolyCollection_3">
    <defs>
     <path d="M 128.142535 -184.55733 
L 118.252862 -184.55733 
L 118.305419 -185.966841 
L 118.459762 -187.376353 
L 118.706256 -188.785864 
L 119.029955 -190.195376 
L 119.412098 -191.604887 
L 119.831906 -193.014399 
L 120.268435 -194.42391 
L 120.702253 -195.833422 
L 121.116774 -197.242933 
L 121.499129 -198.652445 
L 121.840545 -200.061956 
L 122.136264 -201.471468 
L 122.3851 -202.88098 
L 122.588754 -204.290491 
L 122.751017 -205.700003 
L 122.87697 -207.109514 
L 122.972277 -208.519026 
L 123.042612 -209.928537 
L 123.093256 -211.338049 
L 123.128847 -212.74756 
L 123.153264 -214.157072 
L 123.16962 -215.566583 
L 123.180315 -216.976095 
L 123.187137 -218.385606 
L 123.19137 -219.795118 
L 123.193906 -221.20463 
L 123.195341 -222.614141 
L 123.196053 -224.023653 
L 123.196264 -225.433164 
L 123.196081 -226.842676 
L 123.19553 -228.252187 
L 123.194569 -229.661699 
L 123.193102 -231.07121 
L 123.19098 -232.480722 
L 123.188004 -233.890233 
L 123.183927 -235.299745 
L 123.178452 -236.709256 
L 123.171234 -238.118768 
L 123.16189 -239.52828 
L 123.150003 -240.937791 
L 123.135138 -242.347303 
L 123.116848 -243.756814 
L 123.094693 -245.166326 
L 123.068246 -246.575837 
L 123.037103 -247.985349 
L 123.000876 -249.39486 
L 122.95919 -250.804372 
L 122.911657 -252.213883 
L 122.857852 -253.623395 
L 122.797276 -255.032906 
L 122.729311 -256.442418 
L 122.653183 -257.85193 
L 122.567919 -259.261441 
L 122.472321 -260.670953 
L 122.364958 -262.080464 
L 122.244176 -263.489976 
L 122.108156 -264.899487 
L 121.954998 -266.308999 
L 121.782866 -267.71851 
L 121.590166 -269.128022 
L 121.375775 -270.537533 
L 121.139281 -271.947045 
L 120.881234 -273.356557 
L 120.603337 -274.766068 
L 120.308568 -276.17558 
L 120.00117 -277.585091 
L 119.686476 -278.994603 
L 119.370563 -280.404114 
L 119.059728 -281.813626 
L 118.759833 -283.223137 
L 118.475577 -284.632649 
L 118.209801 -286.04216 
L 117.962912 -287.451672 
L 117.732552 -288.861183 
L 117.513572 -290.270695 
L 117.298389 -291.680207 
L 117.077707 -293.089718 
L 116.841563 -294.49923 
L 116.580604 -295.908741 
L 116.287451 -297.318253 
L 115.957994 -298.727764 
L 115.592453 -300.137276 
L 115.196069 -301.546787 
L 114.779321 -302.956299 
L 114.3576 -304.36581 
L 113.950372 -305.775322 
L 113.579867 -307.184833 
L 113.269427 -308.594345 
L 113.041662 -310.003857 
L 112.916577 -311.413368 
L 112.90988 -312.82288 
L 113.031599 -314.232391 
L 113.285178 -315.641903 
L 113.667104 -317.051414 
L 114.167129 -318.460926 
L 114.76903 -319.870437 
L 115.451848 -321.279949 
L 116.191453 -322.68946 
L 116.962293 -324.098972 
L 129.433104 -324.098972 
L 129.433104 -324.098972 
L 130.203944 -322.68946 
L 130.943549 -321.279949 
L 131.626367 -319.870437 
L 132.228268 -318.460926 
L 132.728293 -317.051414 
L 133.110219 -315.641903 
L 133.363798 -314.232391 
L 133.485518 -312.82288 
L 133.47882 -311.413368 
L 133.353735 -310.003857 
L 133.12597 -308.594345 
L 132.81553 -307.184833 
L 132.445025 -305.775322 
L 132.037797 -304.36581 
L 131.616076 -302.956299 
L 131.199328 -301.546787 
L 130.802944 -300.137276 
L 130.437403 -298.727764 
L 130.107946 -297.318253 
L 129.814793 -295.908741 
L 129.553834 -294.49923 
L 129.31769 -293.089718 
L 129.097008 -291.680207 
L 128.881825 -290.270695 
L 128.662845 -288.861183 
L 128.432485 -287.451672 
L 128.185596 -286.04216 
L 127.91982 -284.632649 
L 127.635564 -283.223137 
L 127.335669 -281.813626 
L 127.024834 -280.404114 
L 126.708921 -278.994603 
L 126.394227 -277.585091 
L 126.086829 -276.17558 
L 125.79206 -274.766068 
L 125.514163 -273.356557 
L 125.256116 -271.947045 
L 125.019622 -270.537533 
L 124.805231 -269.128022 
L 124.612531 -267.71851 
L 124.440399 -266.308999 
L 124.287241 -264.899487 
L 124.151221 -263.489976 
L 124.030439 -262.080464 
L 123.923076 -260.670953 
L 123.827478 -259.261441 
L 123.742214 -257.85193 
L 123.666086 -256.442418 
L 123.598121 -255.032906 
L 123.537545 -253.623395 
L 123.48374 -252.213883 
L 123.436207 -250.804372 
L 123.394521 -249.39486 
L 123.358294 -247.985349 
L 123.327151 -246.575837 
L 123.300704 -245.166326 
L 123.278549 -243.756814 
L 123.260259 -242.347303 
L 123.245394 -240.937791 
L 123.233507 -239.52828 
L 123.224163 -238.118768 
L 123.216945 -236.709256 
L 123.21147 -235.299745 
L 123.207393 -233.890233 
L 123.204417 -232.480722 
L 123.202295 -231.07121 
L 123.200828 -229.661699 
L 123.199867 -228.252187 
L 123.199316 -226.842676 
L 123.199133 -225.433164 
L 123.199344 -224.023653 
L 123.200056 -222.614141 
L 123.201491 -221.20463 
L 123.204027 -219.795118 
L 123.20826 -218.385606 
L 123.215082 -216.976095 
L 123.225777 -215.566583 
L 123.242133 -214.157072 
L 123.26655 -212.74756 
L 123.302141 -211.338049 
L 123.352785 -209.928537 
L 123.42312 -208.519026 
L 123.518427 -207.109514 
L 123.64438 -205.700003 
L 123.806643 -204.290491 
L 124.010297 -202.88098 
L 124.259133 -201.471468 
L 124.554852 -200.061956 
L 124.896268 -198.652445 
L 125.278623 -197.242933 
L 125.693144 -195.833422 
L 126.126962 -194.42391 
L 126.563491 -193.014399 
L 126.983299 -191.604887 
L 127.365442 -190.195376 
L 127.689141 -188.785864 
L 127.935635 -187.376353 
L 128.089978 -185.966841 
L 128.142535 -184.55733 
z
" id="md367195b46" style="stroke:#444444;stroke-width:1.5;"/>
    </defs>
    <g clip-path="url(#pd00635bf5e)">
     <use style="fill:#e68193;stroke:#444444;stroke-width:1.5;" x="0" xlink:href="#md367195b46" y="458.815625"/>
    </g>
   </g>
   <g id="PolyCollection_4">
    <defs>
     <path d="M 146.057191 -184.55733 
L 141.489482 -184.55733 
L 141.485646 -185.87641 
L 141.485011 -187.195491 
L 141.487504 -188.514571 
L 141.493027 -189.833652 
L 141.501464 -191.152732 
L 141.512676 -192.471813 
L 141.526508 -193.790893 
L 141.542784 -195.109974 
L 141.56131 -196.429054 
L 141.58188 -197.748135 
L 141.604268 -199.067215 
L 141.62824 -200.386296 
L 141.653546 -201.705376 
L 141.679929 -203.024457 
L 141.707123 -204.343537 
L 141.734856 -205.662618 
L 141.762851 -206.981698 
L 141.79083 -208.300779 
L 141.818513 -209.61986 
L 141.845622 -210.93894 
L 141.871882 -212.258021 
L 141.897024 -213.577101 
L 141.920785 -214.896182 
L 141.942911 -216.215262 
L 141.963158 -217.534343 
L 141.981295 -218.853423 
L 141.997103 -220.172504 
L 142.010377 -221.491584 
L 142.020931 -222.810665 
L 142.028591 -224.129745 
L 142.033207 -225.448826 
L 142.034642 -226.767906 
L 142.032783 -228.086987 
L 142.027533 -229.406067 
L 142.018818 -230.725148 
L 142.006584 -232.044228 
L 141.990798 -233.363309 
L 141.971448 -234.68239 
L 141.948542 -236.00147 
L 141.922107 -237.320551 
L 141.892195 -238.639631 
L 141.858872 -239.958712 
L 141.822226 -241.277792 
L 141.782364 -242.596873 
L 141.739409 -243.915953 
L 141.693501 -245.235034 
L 141.644796 -246.554114 
L 141.593467 -247.873195 
L 141.539697 -249.192275 
L 141.483686 -250.511356 
L 141.425642 -251.830436 
L 141.365788 -253.149517 
L 141.304351 -254.468597 
L 141.241571 -255.787678 
L 141.177694 -257.106758 
L 141.11297 -258.425839 
L 141.047655 -259.74492 
L 140.982009 -261.064 
L 140.916295 -262.383081 
L 140.850776 -263.702161 
L 140.785715 -265.021242 
L 140.721375 -266.340322 
L 140.658016 -267.659403 
L 140.595895 -268.978483 
L 140.535267 -270.297564 
L 140.47638 -271.616644 
L 140.419475 -272.935725 
L 140.364788 -274.254805 
L 140.312546 -275.573886 
L 140.262969 -276.892966 
L 140.216265 -278.212047 
L 140.172633 -279.531127 
L 140.132261 -280.850208 
L 140.095326 -282.169288 
L 140.061992 -283.488369 
L 140.032409 -284.80745 
L 140.006716 -286.12653 
L 139.985035 -287.445611 
L 139.967477 -288.764691 
L 139.954134 -290.083772 
L 139.945086 -291.402852 
L 139.940397 -292.721933 
L 139.940114 -294.041013 
L 139.944268 -295.360094 
L 139.952874 -296.679174 
L 139.965933 -297.998255 
L 139.983428 -299.317335 
L 140.005324 -300.636416 
L 140.031572 -301.955496 
L 140.062109 -303.274577 
L 140.096854 -304.593657 
L 140.13571 -305.912738 
L 140.178569 -307.231818 
L 140.225305 -308.550899 
L 140.275782 -309.86998 
L 140.329847 -311.18906 
L 140.387339 -312.508141 
L 140.448083 -313.827221 
L 140.511894 -315.146302 
L 147.034779 -315.146302 
L 147.034779 -315.146302 
L 147.09859 -313.827221 
L 147.159334 -312.508141 
L 147.216826 -311.18906 
L 147.270891 -309.86998 
L 147.321368 -308.550899 
L 147.368104 -307.231818 
L 147.410963 -305.912738 
L 147.449819 -304.593657 
L 147.484564 -303.274577 
L 147.515101 -301.955496 
L 147.541349 -300.636416 
L 147.563245 -299.317335 
L 147.58074 -297.998255 
L 147.593799 -296.679174 
L 147.602405 -295.360094 
L 147.606559 -294.041013 
L 147.606276 -292.721933 
L 147.601587 -291.402852 
L 147.592539 -290.083772 
L 147.579196 -288.764691 
L 147.561638 -287.445611 
L 147.539957 -286.12653 
L 147.514264 -284.80745 
L 147.484681 -283.488369 
L 147.451347 -282.169288 
L 147.414412 -280.850208 
L 147.37404 -279.531127 
L 147.330408 -278.212047 
L 147.283704 -276.892966 
L 147.234127 -275.573886 
L 147.181885 -274.254805 
L 147.127198 -272.935725 
L 147.070293 -271.616644 
L 147.011406 -270.297564 
L 146.950778 -268.978483 
L 146.888657 -267.659403 
L 146.825298 -266.340322 
L 146.760958 -265.021242 
L 146.695897 -263.702161 
L 146.630378 -262.383081 
L 146.564664 -261.064 
L 146.499018 -259.74492 
L 146.433703 -258.425839 
L 146.368979 -257.106758 
L 146.305102 -255.787678 
L 146.242322 -254.468597 
L 146.180885 -253.149517 
L 146.121031 -251.830436 
L 146.062987 -250.511356 
L 146.006976 -249.192275 
L 145.953206 -247.873195 
L 145.901877 -246.554114 
L 145.853172 -245.235034 
L 145.807264 -243.915953 
L 145.764309 -242.596873 
L 145.724447 -241.277792 
L 145.687801 -239.958712 
L 145.654478 -238.639631 
L 145.624566 -237.320551 
L 145.598131 -236.00147 
L 145.575225 -234.68239 
L 145.555875 -233.363309 
L 145.540089 -232.044228 
L 145.527855 -230.725148 
L 145.51914 -229.406067 
L 145.51389 -228.086987 
L 145.512031 -226.767906 
L 145.513466 -225.448826 
L 145.518082 -224.129745 
L 145.525742 -222.810665 
L 145.536296 -221.491584 
L 145.54957 -220.172504 
L 145.565378 -218.853423 
L 145.583515 -217.534343 
L 145.603762 -216.215262 
L 145.625888 -214.896182 
L 145.649649 -213.577101 
L 145.674791 -212.258021 
L 145.701051 -210.93894 
L 145.72816 -209.61986 
L 145.755843 -208.300779 
L 145.783822 -206.981698 
L 145.811817 -205.662618 
L 145.83955 -204.343537 
L 145.866744 -203.024457 
L 145.893127 -201.705376 
L 145.918433 -200.386296 
L 145.942405 -199.067215 
L 145.964793 -197.748135 
L 145.985363 -196.429054 
L 146.003889 -195.109974 
L 146.020165 -193.790893 
L 146.033997 -192.471813 
L 146.045209 -191.152732 
L 146.053646 -189.833652 
L 146.059169 -188.514571 
L 146.061662 -187.195491 
L 146.061027 -185.87641 
L 146.057191 -184.55733 
z
" id="m291cfb3569" style="stroke:#444444;stroke-width:1.5;"/>
    </defs>
    <g clip-path="url(#pd00635bf5e)">
     <use style="fill:#459e97;stroke:#444444;stroke-width:1.5;" x="0" xlink:href="#m291cfb3569" y="458.815625"/>
    </g>
   </g>
   <g id="PolyCollection_5">
    <defs>
     <path d="M 179.575782 -184.55733 
L 169.697805 -184.55733 
L 169.749884 -186.835257 
L 169.902849 -189.113184 
L 170.147225 -191.391111 
L 170.468305 -193.669039 
L 170.847614 -195.946966 
L 171.264663 -198.224893 
L 171.698765 -200.50282 
L 172.130682 -202.780748 
L 172.543948 -205.058675 
L 172.925728 -207.336602 
L 173.267209 -209.614529 
L 173.563538 -211.892457 
L 173.813394 -214.170384 
L 174.018335 -216.448311 
L 174.182012 -218.726238 
L 174.309387 -221.004166 
L 174.40603 -223.282093 
L 174.477558 -225.56002 
L 174.529219 -227.837947 
L 174.565641 -230.115875 
L 174.590714 -232.393802 
L 174.607569 -234.671729 
L 174.618633 -236.949656 
L 174.625718 -239.227584 
L 174.630134 -241.505511 
L 174.632796 -243.783438 
L 174.634318 -246.061365 
L 174.635093 -248.339293 
L 174.635357 -250.61722 
L 174.635231 -252.895147 
L 174.634755 -255.173075 
L 174.633909 -257.451002 
L 174.632621 -259.728929 
L 174.630779 -262.006856 
L 174.628234 -264.284784 
L 174.624806 -266.562711 
L 174.620287 -268.840638 
L 174.614451 -271.118565 
L 174.607063 -273.396493 
L 174.59789 -275.67442 
L 174.586717 -277.952347 
L 174.573357 -280.230274 
L 174.55766 -282.508202 
L 174.539517 -284.786129 
L 174.518847 -287.064056 
L 174.495577 -289.341983 
L 174.469597 -291.619911 
L 174.440705 -293.897838 
L 174.408525 -296.175765 
L 174.37242 -298.453692 
L 174.331398 -300.73162 
L 174.284019 -303.009547 
L 174.228328 -305.287474 
L 174.16182 -307.565401 
L 174.081458 -309.843329 
L 173.983756 -312.121256 
L 173.864948 -314.399183 
L 173.721226 -316.67711 
L 173.549062 -318.955038 
L 173.345583 -321.232965 
L 173.108973 -323.510892 
L 172.838856 -325.788819 
L 172.536626 -328.066747 
L 172.205639 -330.344674 
L 171.851256 -332.622601 
L 171.480667 -334.900529 
L 171.102501 -337.178456 
L 170.726216 -339.456383 
L 170.361314 -341.73431 
L 170.016449 -344.012238 
L 169.698512 -346.290165 
L 169.411816 -348.568092 
L 169.157469 -350.846019 
L 168.933048 -353.123947 
L 168.73264 -355.401874 
L 168.547277 -357.679801 
L 168.365759 -359.957728 
L 168.175805 -362.235656 
L 167.965414 -364.513583 
L 167.724333 -366.79151 
L 167.445447 -369.069437 
L 167.125961 -371.347365 
L 166.768229 -373.625292 
L 166.380133 -375.903219 
L 165.974937 -378.181146 
L 165.570625 -380.459074 
L 165.18875 -382.737001 
L 164.852886 -385.014928 
L 164.586825 -387.292855 
L 164.412665 -389.570783 
L 164.348974 -391.84871 
L 164.409208 -394.126637 
L 164.600517 -396.404564 
L 164.923075 -398.682492 
L 165.369994 -400.960419 
L 165.927822 -403.238346 
L 166.577573 -405.516273 
L 167.296192 -407.794201 
L 168.05828 -410.072128 
L 181.215307 -410.072128 
L 181.215307 -410.072128 
L 181.977395 -407.794201 
L 182.696014 -405.516273 
L 183.345765 -403.238346 
L 183.903593 -400.960419 
L 184.350512 -398.682492 
L 184.67307 -396.404564 
L 184.864379 -394.126637 
L 184.924613 -391.84871 
L 184.860922 -389.570783 
L 184.686762 -387.292855 
L 184.420701 -385.014928 
L 184.084837 -382.737001 
L 183.702962 -380.459074 
L 183.29865 -378.181146 
L 182.893454 -375.903219 
L 182.505358 -373.625292 
L 182.147626 -371.347365 
L 181.82814 -369.069437 
L 181.549254 -366.79151 
L 181.308173 -364.513583 
L 181.097782 -362.235656 
L 180.907828 -359.957728 
L 180.72631 -357.679801 
L 180.540947 -355.401874 
L 180.340539 -353.123947 
L 180.116118 -350.846019 
L 179.861771 -348.568092 
L 179.575075 -346.290165 
L 179.257138 -344.012238 
L 178.912273 -341.73431 
L 178.547371 -339.456383 
L 178.171086 -337.178456 
L 177.79292 -334.900529 
L 177.422331 -332.622601 
L 177.067948 -330.344674 
L 176.736961 -328.066747 
L 176.434731 -325.788819 
L 176.164614 -323.510892 
L 175.928004 -321.232965 
L 175.724525 -318.955038 
L 175.552361 -316.67711 
L 175.408639 -314.399183 
L 175.289831 -312.121256 
L 175.192129 -309.843329 
L 175.111767 -307.565401 
L 175.045259 -305.287474 
L 174.989568 -303.009547 
L 174.942189 -300.73162 
L 174.901167 -298.453692 
L 174.865062 -296.175765 
L 174.832882 -293.897838 
L 174.80399 -291.619911 
L 174.77801 -289.341983 
L 174.75474 -287.064056 
L 174.73407 -284.786129 
L 174.715927 -282.508202 
L 174.70023 -280.230274 
L 174.68687 -277.952347 
L 174.675697 -275.67442 
L 174.666524 -273.396493 
L 174.659136 -271.118565 
L 174.6533 -268.840638 
L 174.648781 -266.562711 
L 174.645353 -264.284784 
L 174.642808 -262.006856 
L 174.640966 -259.728929 
L 174.639678 -257.451002 
L 174.638832 -255.173075 
L 174.638356 -252.895147 
L 174.63823 -250.61722 
L 174.638494 -248.339293 
L 174.639269 -246.061365 
L 174.640791 -243.783438 
L 174.643453 -241.505511 
L 174.647869 -239.227584 
L 174.654954 -236.949656 
L 174.666018 -234.671729 
L 174.682873 -232.393802 
L 174.707946 -230.115875 
L 174.744368 -227.837947 
L 174.796029 -225.56002 
L 174.867557 -223.282093 
L 174.9642 -221.004166 
L 175.091575 -218.726238 
L 175.255252 -216.448311 
L 175.460193 -214.170384 
L 175.710049 -211.892457 
L 176.006378 -209.614529 
L 176.347859 -207.336602 
L 176.729639 -205.058675 
L 177.142905 -202.780748 
L 177.574822 -200.50282 
L 178.008924 -198.224893 
L 178.425973 -195.946966 
L 178.805282 -193.669039 
L 179.126362 -191.391111 
L 179.370738 -189.113184 
L 179.523703 -186.835257 
L 179.575782 -184.55733 
z
" id="m257727ef48" style="stroke:#444444;stroke-width:1.5;"/>
    </defs>
    <g clip-path="url(#pd00635bf5e)">
     <use style="fill:#e68193;stroke:#444444;stroke-width:1.5;" x="0" xlink:href="#m257727ef48" y="458.815625"/>
    </g>
   </g>
   <g id="PolyCollection_6">
    <defs>
     <path d="M 197.492681 -184.55733 
L 192.932182 -184.55733 
L 192.929478 -186.69453 
L 192.930098 -188.83173 
L 192.933971 -190.968931 
L 192.941003 -193.106131 
L 192.951078 -195.243332 
L 192.964059 -197.380532 
L 192.979792 -199.517733 
L 192.998099 -201.654933 
L 193.018788 -203.792134 
L 193.041647 -205.929334 
L 193.066452 -208.066535 
L 193.092961 -210.203735 
L 193.120921 -212.340936 
L 193.150069 -214.478136 
L 193.180132 -216.615336 
L 193.210829 -218.752537 
L 193.241875 -220.889737 
L 193.27298 -223.026938 
L 193.303852 -225.164138 
L 193.334201 -227.301339 
L 193.363738 -229.438539 
L 193.392177 -231.57574 
L 193.419238 -233.71294 
L 193.444651 -235.850141 
L 193.468151 -237.987341 
L 193.489486 -240.124542 
L 193.508417 -242.261742 
L 193.524718 -244.398942 
L 193.538176 -246.536143 
L 193.548597 -248.673343 
L 193.555804 -250.810544 
L 193.559636 -252.947744 
L 193.559955 -255.084945 
L 193.556638 -257.222145 
L 193.549587 -259.359346 
L 193.538722 -261.496546 
L 193.523987 -263.633747 
L 193.505344 -265.770947 
L 193.482782 -267.908148 
L 193.456306 -270.045348 
L 193.425946 -272.182548 
L 193.391754 -274.319749 
L 193.3538 -276.456949 
L 193.312178 -278.59415 
L 193.267001 -280.73135 
L 193.2184 -282.868551 
L 193.166527 -285.005751 
L 193.111552 -287.142952 
L 193.053662 -289.280152 
L 192.993058 -291.417353 
L 192.929961 -293.554553 
L 192.864601 -295.691754 
L 192.797227 -297.828954 
L 192.728094 -299.966155 
L 192.657473 -302.103355 
L 192.585641 -304.240555 
L 192.512886 -306.377756 
L 192.4395 -308.514956 
L 192.365782 -310.652157 
L 192.292037 -312.789357 
L 192.21857 -314.926558 
L 192.145688 -317.063758 
L 192.0737 -319.200959 
L 192.002911 -321.338159 
L 191.933624 -323.47536 
L 191.866139 -325.61256 
L 191.800749 -327.749761 
L 191.73774 -329.886961 
L 191.67739 -332.024161 
L 191.619967 -334.161362 
L 191.565729 -336.298562 
L 191.514921 -338.435763 
L 191.467775 -340.572963 
L 191.424509 -342.710164 
L 191.385325 -344.847364 
L 191.350409 -346.984565 
L 191.319928 -349.121765 
L 191.294035 -351.258966 
L 191.272859 -353.396166 
L 191.256514 -355.533367 
L 191.245092 -357.670567 
L 191.238665 -359.807767 
L 191.237284 -361.944968 
L 191.24098 -364.082168 
L 191.249763 -366.219369 
L 191.263621 -368.356569 
L 191.282522 -370.49377 
L 191.306415 -372.63097 
L 191.335226 -374.768171 
L 191.368864 -376.905371 
L 191.407217 -379.042572 
L 191.450157 -381.179772 
L 191.497536 -383.316973 
L 191.549192 -385.454173 
L 191.604945 -387.591373 
L 191.664603 -389.728574 
L 191.727958 -391.865774 
L 191.794792 -394.002975 
L 191.864876 -396.140175 
L 198.559987 -396.140175 
L 198.559987 -396.140175 
L 198.630071 -394.002975 
L 198.696905 -391.865774 
L 198.76026 -389.728574 
L 198.819918 -387.591373 
L 198.875671 -385.454173 
L 198.927327 -383.316973 
L 198.974706 -381.179772 
L 199.017646 -379.042572 
L 199.055999 -376.905371 
L 199.089637 -374.768171 
L 199.118448 -372.63097 
L 199.142341 -370.49377 
L 199.161242 -368.356569 
L 199.1751 -366.219369 
L 199.183883 -364.082168 
L 199.187579 -361.944968 
L 199.186198 -359.807767 
L 199.179771 -357.670567 
L 199.168349 -355.533367 
L 199.152004 -353.396166 
L 199.130828 -351.258966 
L 199.104935 -349.121765 
L 199.074454 -346.984565 
L 199.039538 -344.847364 
L 199.000354 -342.710164 
L 198.957088 -340.572963 
L 198.909942 -338.435763 
L 198.859134 -336.298562 
L 198.804896 -334.161362 
L 198.747473 -332.024161 
L 198.687123 -329.886961 
L 198.624114 -327.749761 
L 198.558724 -325.61256 
L 198.491239 -323.47536 
L 198.421952 -321.338159 
L 198.351163 -319.200959 
L 198.279175 -317.063758 
L 198.206293 -314.926558 
L 198.132826 -312.789357 
L 198.059081 -310.652157 
L 197.985363 -308.514956 
L 197.911977 -306.377756 
L 197.839222 -304.240555 
L 197.76739 -302.103355 
L 197.696769 -299.966155 
L 197.627636 -297.828954 
L 197.560262 -295.691754 
L 197.494902 -293.554553 
L 197.431805 -291.417353 
L 197.371201 -289.280152 
L 197.313311 -287.142952 
L 197.258336 -285.005751 
L 197.206463 -282.868551 
L 197.157862 -280.73135 
L 197.112685 -278.59415 
L 197.071063 -276.456949 
L 197.033109 -274.319749 
L 196.998917 -272.182548 
L 196.968557 -270.045348 
L 196.942081 -267.908148 
L 196.919519 -265.770947 
L 196.900876 -263.633747 
L 196.886141 -261.496546 
L 196.875276 -259.359346 
L 196.868225 -257.222145 
L 196.864908 -255.084945 
L 196.865227 -252.947744 
L 196.869059 -250.810544 
L 196.876266 -248.673343 
L 196.886687 -246.536143 
L 196.900145 -244.398942 
L 196.916446 -242.261742 
L 196.935377 -240.124542 
L 196.956712 -237.987341 
L 196.980212 -235.850141 
L 197.005625 -233.71294 
L 197.032686 -231.57574 
L 197.061125 -229.438539 
L 197.090662 -227.301339 
L 197.121011 -225.164138 
L 197.151883 -223.026938 
L 197.182988 -220.889737 
L 197.214034 -218.752537 
L 197.244731 -216.615336 
L 197.274794 -214.478136 
L 197.303942 -212.340936 
L 197.331902 -210.203735 
L 197.358411 -208.066535 
L 197.383216 -205.929334 
L 197.406075 -203.792134 
L 197.426764 -201.654933 
L 197.445071 -199.517733 
L 197.460804 -197.380532 
L 197.473785 -195.243332 
L 197.48386 -193.106131 
L 197.490892 -190.968931 
L 197.494765 -188.83173 
L 197.495385 -186.69453 
L 197.492681 -184.55733 
z
" id="m8f39d70280" style="stroke:#444444;stroke-width:1.5;"/>
    </defs>
    <g clip-path="url(#pd00635bf5e)">
     <use style="fill:#459e97;stroke:#444444;stroke-width:1.5;" x="0" xlink:href="#m8f39d70280" y="458.815625"/>
    </g>
   </g>
   <g id="PolyCollection_7">
    <defs>
     <path d="M 231.426637 -184.55733 
L 220.72514 -184.55733 
L 220.782581 -185.935519 
L 220.95123 -187.313708 
L 221.220455 -188.691897 
L 221.573777 -190.070086 
L 221.990534 -191.448275 
L 222.447879 -192.826464 
L 222.922827 -194.204653 
L 223.394119 -195.582842 
L 223.843674 -196.961031 
L 224.257547 -198.33922 
L 224.626315 -199.71741 
L 224.944973 -201.095599 
L 225.212422 -202.473788 
L 225.430701 -203.851977 
L 225.604095 -205.230166 
L 225.738257 -206.608355 
L 225.839428 -207.986544 
L 225.913819 -209.364733 
L 225.967178 -210.742922 
L 226.004525 -212.121111 
L 226.03004 -213.4993 
L 226.047057 -214.87749 
L 226.058137 -216.255679 
L 226.065177 -217.633868 
L 226.069537 -219.012057 
L 226.072157 -220.390246 
L 226.073665 -221.768435 
L 226.074464 -223.146624 
L 226.074794 -224.524813 
L 226.074784 -225.903002 
L 226.074482 -227.281191 
L 226.073873 -228.65938 
L 226.072889 -230.037569 
L 226.071419 -231.415759 
L 226.069301 -232.793948 
L 226.066324 -234.172137 
L 226.062226 -235.550326 
L 226.056692 -236.928515 
L 226.049354 -238.306704 
L 226.039791 -239.684893 
L 226.027541 -241.063082 
L 226.012102 -242.441271 
L 225.992942 -243.81946 
L 225.969502 -245.197649 
L 225.941198 -246.575839 
L 225.907409 -247.954028 
L 225.86746 -249.332217 
L 225.82059 -250.710406 
L 225.765903 -252.088595 
L 225.702316 -253.466784 
L 225.628499 -254.844973 
L 225.542818 -256.223162 
L 225.443296 -257.601351 
L 225.327602 -258.97954 
L 225.193086 -260.357729 
L 225.036862 -261.735919 
L 224.85597 -263.114108 
L 224.647592 -264.492297 
L 224.409348 -265.870486 
L 224.139626 -267.248675 
L 223.837947 -268.626864 
L 223.505309 -270.005053 
L 223.144471 -271.383242 
L 222.760121 -272.761431 
L 222.358896 -274.13962 
L 221.949186 -275.517809 
L 221.540732 -276.895999 
L 221.144006 -278.274188 
L 220.769403 -279.652377 
L 220.426324 -281.030566 
L 220.122234 -282.408755 
L 219.861785 -283.786944 
L 219.646145 -285.165133 
L 219.472609 -286.543322 
L 219.334576 -287.921511 
L 219.221937 -289.2997 
L 219.12186 -290.677889 
L 219.019935 -292.056079 
L 218.901574 -293.434268 
L 218.753554 -294.812457 
L 218.565543 -296.190646 
L 218.331468 -297.568835 
L 218.050573 -298.947024 
L 217.728045 -300.325213 
L 217.375118 -301.703402 
L 217.008616 -303.081591 
L 216.649939 -304.45978 
L 216.323555 -305.837969 
L 216.055122 -307.216158 
L 215.869385 -308.594348 
L 215.78807 -309.972537 
L 215.827949 -311.350726 
L 215.999312 -312.728915 
L 216.304977 -314.107104 
L 216.739967 -315.485293 
L 217.291883 -316.863482 
L 217.941932 -318.241671 
L 218.66648 -319.61986 
L 219.438971 -320.998049 
L 232.712806 -320.998049 
L 232.712806 -320.998049 
L 233.485297 -319.61986 
L 234.209845 -318.241671 
L 234.859894 -316.863482 
L 235.41181 -315.485293 
L 235.8468 -314.107104 
L 236.152465 -312.728915 
L 236.323828 -311.350726 
L 236.363708 -309.972537 
L 236.282392 -308.594348 
L 236.096655 -307.216158 
L 235.828222 -305.837969 
L 235.501838 -304.45978 
L 235.143161 -303.081591 
L 234.776659 -301.703402 
L 234.423732 -300.325213 
L 234.101204 -298.947024 
L 233.820309 -297.568835 
L 233.586234 -296.190646 
L 233.398223 -294.812457 
L 233.250203 -293.434268 
L 233.131842 -292.056079 
L 233.029917 -290.677889 
L 232.92984 -289.2997 
L 232.817201 -287.921511 
L 232.679168 -286.543322 
L 232.505632 -285.165133 
L 232.289992 -283.786944 
L 232.029543 -282.408755 
L 231.725453 -281.030566 
L 231.382374 -279.652377 
L 231.007771 -278.274188 
L 230.611045 -276.895999 
L 230.202591 -275.517809 
L 229.792881 -274.13962 
L 229.391656 -272.761431 
L 229.007306 -271.383242 
L 228.646468 -270.005053 
L 228.31383 -268.626864 
L 228.012151 -267.248675 
L 227.742429 -265.870486 
L 227.504185 -264.492297 
L 227.295807 -263.114108 
L 227.114915 -261.735919 
L 226.958691 -260.357729 
L 226.824175 -258.97954 
L 226.708481 -257.601351 
L 226.608959 -256.223162 
L 226.523278 -254.844973 
L 226.449461 -253.466784 
L 226.385874 -252.088595 
L 226.331187 -250.710406 
L 226.284317 -249.332217 
L 226.244368 -247.954028 
L 226.210579 -246.575839 
L 226.182275 -245.197649 
L 226.158835 -243.81946 
L 226.139675 -242.441271 
L 226.124236 -241.063082 
L 226.111986 -239.684893 
L 226.102423 -238.306704 
L 226.095085 -236.928515 
L 226.089551 -235.550326 
L 226.085453 -234.172137 
L 226.082476 -232.793948 
L 226.080358 -231.415759 
L 226.078888 -230.037569 
L 226.077904 -228.65938 
L 226.077295 -227.281191 
L 226.076993 -225.903002 
L 226.076983 -224.524813 
L 226.077313 -223.146624 
L 226.078112 -221.768435 
L 226.07962 -220.390246 
L 226.08224 -219.012057 
L 226.0866 -217.633868 
L 226.09364 -216.255679 
L 226.10472 -214.87749 
L 226.121737 -213.4993 
L 226.147252 -212.121111 
L 226.184599 -210.742922 
L 226.237958 -209.364733 
L 226.312349 -207.986544 
L 226.41352 -206.608355 
L 226.547682 -205.230166 
L 226.721076 -203.851977 
L 226.939355 -202.473788 
L 227.206804 -201.095599 
L 227.525462 -199.71741 
L 227.89423 -198.33922 
L 228.308103 -196.961031 
L 228.757658 -195.582842 
L 229.22895 -194.204653 
L 229.703898 -192.826464 
L 230.161243 -191.448275 
L 230.578 -190.070086 
L 230.931322 -188.691897 
L 231.200547 -187.313708 
L 231.369196 -185.935519 
L 231.426637 -184.55733 
z
" id="m9f945ec29c" style="stroke:#444444;stroke-width:1.5;"/>
    </defs>
    <g clip-path="url(#pd00635bf5e)">
     <use style="fill:#e68193;stroke:#444444;stroke-width:1.5;" x="0" xlink:href="#m9f945ec29c" y="458.815625"/>
    </g>
   </g>
   <g id="PolyCollection_8">
    <defs>
     <path d="M 249.154384 -184.55733 
L 244.148669 -184.55733 
L 244.145504 -185.847145 
L 244.146104 -187.136961 
L 244.150383 -188.426777 
L 244.158228 -189.716593 
L 244.169501 -191.006409 
L 244.184039 -192.296225 
L 244.201655 -193.586041 
L 244.222139 -194.875857 
L 244.245261 -196.165673 
L 244.270771 -197.455489 
L 244.298399 -198.745305 
L 244.327861 -200.03512 
L 244.358856 -201.324936 
L 244.391073 -202.614752 
L 244.42419 -203.904568 
L 244.457875 -205.194384 
L 244.491794 -206.4842 
L 244.525607 -207.774016 
L 244.558974 -209.063832 
L 244.591555 -210.353648 
L 244.623016 -211.643464 
L 244.653026 -212.933279 
L 244.681265 -214.223095 
L 244.707421 -215.512911 
L 244.731196 -216.802727 
L 244.752304 -218.092543 
L 244.770479 -219.382359 
L 244.785468 -220.672175 
L 244.797041 -221.961991 
L 244.804988 -223.251807 
L 244.80912 -224.541623 
L 244.809272 -225.831439 
L 244.805303 -227.121254 
L 244.797098 -228.41107 
L 244.784566 -229.700886 
L 244.767643 -230.990702 
L 244.746293 -232.280518 
L 244.720502 -233.570334 
L 244.690289 -234.86015 
L 244.655694 -236.149966 
L 244.616785 -237.439782 
L 244.573657 -238.729598 
L 244.526428 -240.019414 
L 244.475242 -241.309229 
L 244.420265 -242.599045 
L 244.361688 -243.888861 
L 244.29972 -245.178677 
L 244.234593 -246.468493 
L 244.166557 -247.758309 
L 244.09588 -249.048125 
L 244.022845 -250.337941 
L 243.947751 -251.627757 
L 243.870909 -252.917573 
L 243.792643 -254.207388 
L 243.713284 -255.497204 
L 243.633173 -256.78702 
L 243.552656 -258.076836 
L 243.472085 -259.366652 
L 243.391813 -260.656468 
L 243.312194 -261.946284 
L 243.233582 -263.2361 
L 243.156327 -264.525916 
L 243.080775 -265.815732 
L 243.007266 -267.105548 
L 242.936133 -268.395363 
L 242.867696 -269.685179 
L 242.802268 -270.974995 
L 242.740148 -272.264811 
L 242.68162 -273.554627 
L 242.626953 -274.844443 
L 242.576402 -276.134259 
L 242.5302 -277.424075 
L 242.488564 -278.713891 
L 242.451692 -280.003707 
L 242.419758 -281.293522 
L 242.392918 -282.583338 
L 242.371305 -283.873154 
L 242.35503 -285.16297 
L 242.344179 -286.452786 
L 242.338817 -287.742602 
L 242.338987 -289.032418 
L 242.344707 -290.322234 
L 242.355971 -291.61205 
L 242.372753 -292.901866 
L 242.395003 -294.191682 
L 242.42265 -295.481497 
L 242.455599 -296.771313 
L 242.493738 -298.061129 
L 242.536934 -299.350945 
L 242.585033 -300.640761 
L 242.637866 -301.930577 
L 242.695245 -303.220393 
L 242.756969 -304.510209 
L 242.822821 -305.800025 
L 242.892569 -307.089841 
L 242.965973 -308.379657 
L 243.04278 -309.669472 
L 243.12273 -310.959288 
L 243.205555 -312.249104 
L 250.097498 -312.249104 
L 250.097498 -312.249104 
L 250.180323 -310.959288 
L 250.260273 -309.669472 
L 250.33708 -308.379657 
L 250.410484 -307.089841 
L 250.480232 -305.800025 
L 250.546084 -304.510209 
L 250.607808 -303.220393 
L 250.665187 -301.930577 
L 250.71802 -300.640761 
L 250.766119 -299.350945 
L 250.809315 -298.061129 
L 250.847454 -296.771313 
L 250.880403 -295.481497 
L 250.90805 -294.191682 
L 250.9303 -292.901866 
L 250.947082 -291.61205 
L 250.958346 -290.322234 
L 250.964066 -289.032418 
L 250.964236 -287.742602 
L 250.958874 -286.452786 
L 250.948023 -285.16297 
L 250.931748 -283.873154 
L 250.910135 -282.583338 
L 250.883295 -281.293522 
L 250.851361 -280.003707 
L 250.814489 -278.713891 
L 250.772853 -277.424075 
L 250.726651 -276.134259 
L 250.6761 -274.844443 
L 250.621433 -273.554627 
L 250.562905 -272.264811 
L 250.500785 -270.974995 
L 250.435357 -269.685179 
L 250.36692 -268.395363 
L 250.295787 -267.105548 
L 250.222278 -265.815732 
L 250.146726 -264.525916 
L 250.069471 -263.2361 
L 249.990859 -261.946284 
L 249.91124 -260.656468 
L 249.830968 -259.366652 
L 249.750397 -258.076836 
L 249.66988 -256.78702 
L 249.589769 -255.497204 
L 249.51041 -254.207388 
L 249.432144 -252.917573 
L 249.355302 -251.627757 
L 249.280208 -250.337941 
L 249.207173 -249.048125 
L 249.136496 -247.758309 
L 249.06846 -246.468493 
L 249.003333 -245.178677 
L 248.941365 -243.888861 
L 248.882788 -242.599045 
L 248.827811 -241.309229 
L 248.776625 -240.019414 
L 248.729396 -238.729598 
L 248.686268 -237.439782 
L 248.647359 -236.149966 
L 248.612764 -234.86015 
L 248.582551 -233.570334 
L 248.55676 -232.280518 
L 248.53541 -230.990702 
L 248.518487 -229.700886 
L 248.505955 -228.41107 
L 248.49775 -227.121254 
L 248.493781 -225.831439 
L 248.493933 -224.541623 
L 248.498065 -223.251807 
L 248.506012 -221.961991 
L 248.517585 -220.672175 
L 248.532574 -219.382359 
L 248.550749 -218.092543 
L 248.571857 -216.802727 
L 248.595632 -215.512911 
L 248.621788 -214.223095 
L 248.650027 -212.933279 
L 248.680037 -211.643464 
L 248.711498 -210.353648 
L 248.744079 -209.063832 
L 248.777446 -207.774016 
L 248.811259 -206.4842 
L 248.845178 -205.194384 
L 248.878863 -203.904568 
L 248.91198 -202.614752 
L 248.944197 -201.324936 
L 248.975192 -200.03512 
L 249.004654 -198.745305 
L 249.032282 -197.455489 
L 249.057792 -196.165673 
L 249.080914 -194.875857 
L 249.101398 -193.586041 
L 249.119014 -192.296225 
L 249.133552 -191.006409 
L 249.144825 -189.716593 
L 249.15267 -188.426777 
L 249.156949 -187.136961 
L 249.157549 -185.847145 
L 249.154384 -184.55733 
z
" id="mb2a214c53b" style="stroke:#444444;stroke-width:1.5;"/>
    </defs>
    <g clip-path="url(#pd00635bf5e)">
     <use style="fill:#459e97;stroke:#444444;stroke-width:1.5;" x="0" xlink:href="#mb2a214c53b" y="458.815625"/>
    </g>
   </g>
   <g id="PolyCollection_9">
    <defs>
     <path d="M 283.749333 -184.55733 
L 271.280634 -184.55733 
L 271.352291 -185.180647 
L 271.562358 -185.803964 
L 271.896679 -186.427282 
L 272.333422 -187.050599 
L 272.845436 -187.673916 
L 273.403036 -188.297234 
L 273.97681 -188.920551 
L 274.540104 -189.543868 
L 275.070888 -190.167186 
L 275.552862 -190.790503 
L 275.975793 -191.41382 
L 276.335158 -192.037138 
L 276.631287 -192.660455 
L 276.868214 -193.283772 
L 277.05243 -193.90709 
L 277.191725 -194.530407 
L 277.29421 -195.153724 
L 277.367606 -195.777042 
L 277.418774 -196.400359 
L 277.453483 -197.023676 
L 277.476353 -197.646994 
L 277.490923 -198.270311 
L 277.499788 -198.893628 
L 277.504765 -199.516946 
L 277.507063 -200.140263 
L 277.50743 -200.763581 
L 277.506282 -201.386898 
L 277.503801 -202.010215 
L 277.500017 -202.633533 
L 277.494867 -203.25685 
L 277.488248 -203.880167 
L 277.480058 -204.503485 
L 277.47023 -205.126802 
L 277.458758 -205.750119 
L 277.445716 -206.373437 
L 277.431267 -206.996754 
L 277.415652 -207.620071 
L 277.399171 -208.243389 
L 277.382142 -208.866706 
L 277.364849 -209.490023 
L 277.347481 -210.113341 
L 277.33006 -210.736658 
L 277.312374 -211.359975 
L 277.293916 -211.983293 
L 277.273833 -212.60661 
L 277.250881 -213.229927 
L 277.223403 -213.853245 
L 277.189307 -214.476562 
L 277.146058 -215.099879 
L 277.090668 -215.723197 
L 277.019694 -216.346514 
L 276.929243 -216.969831 
L 276.814987 -217.593149 
L 276.67221 -218.216466 
L 276.495898 -218.839783 
L 276.280894 -219.463101 
L 276.022136 -220.086418 
L 275.714982 -220.709736 
L 275.355631 -221.333053 
L 274.941617 -221.95637 
L 274.47233 -222.579688 
L 273.949533 -223.203005 
L 273.377775 -223.826322 
L 272.764655 -224.44964 
L 272.120846 -225.072957 
L 271.459849 -225.696274 
L 270.797445 -226.319592 
L 270.150873 -226.942909 
L 269.537784 -227.566226 
L 268.975065 -228.189544 
L 268.47764 -228.812861 
L 268.057373 -229.436178 
L 267.72216 -230.059496 
L 267.475332 -230.682813 
L 267.315394 -231.30613 
L 267.236144 -231.929448 
L 267.227164 -232.552765 
L 267.274658 -233.176082 
L 267.362574 -233.7994 
L 267.473955 -234.422717 
L 267.592429 -235.046034 
L 267.703709 -235.669352 
L 267.797016 -236.292669 
L 267.86625 -236.915986 
L 267.910787 -237.539304 
L 267.935778 -238.162621 
L 267.951847 -238.785939 
L 267.974175 -239.409256 
L 268.021015 -240.032573 
L 268.111759 -240.655891 
L 268.264779 -241.279208 
L 268.495281 -241.902525 
L 268.813463 -242.525843 
L 269.223192 -243.14916 
L 269.7214 -243.772477 
L 270.298253 -244.395795 
L 270.938074 -245.019112 
L 271.620856 -245.642429 
L 272.324181 -246.265747 
L 282.705786 -246.265747 
L 282.705786 -246.265747 
L 283.409111 -245.642429 
L 284.091893 -245.019112 
L 284.731714 -244.395795 
L 285.308567 -243.772477 
L 285.806775 -243.14916 
L 286.216504 -242.525843 
L 286.534686 -241.902525 
L 286.765188 -241.279208 
L 286.918208 -240.655891 
L 287.008952 -240.032573 
L 287.055792 -239.409256 
L 287.07812 -238.785939 
L 287.094189 -238.162621 
L 287.11918 -237.539304 
L 287.163717 -236.915986 
L 287.232951 -236.292669 
L 287.326258 -235.669352 
L 287.437538 -235.046034 
L 287.556012 -234.422717 
L 287.667393 -233.7994 
L 287.755309 -233.176082 
L 287.802802 -232.552765 
L 287.793823 -231.929448 
L 287.714573 -231.30613 
L 287.554635 -230.682813 
L 287.307807 -230.059496 
L 286.972594 -229.436178 
L 286.552327 -228.812861 
L 286.054902 -228.189544 
L 285.492183 -227.566226 
L 284.879094 -226.942909 
L 284.232522 -226.319592 
L 283.570118 -225.696274 
L 282.909121 -225.072957 
L 282.265312 -224.44964 
L 281.652192 -223.826322 
L 281.080434 -223.203005 
L 280.557637 -222.579688 
L 280.08835 -221.95637 
L 279.674336 -221.333053 
L 279.314985 -220.709736 
L 279.007831 -220.086418 
L 278.749073 -219.463101 
L 278.534069 -218.839783 
L 278.357757 -218.216466 
L 278.21498 -217.593149 
L 278.100724 -216.969831 
L 278.010273 -216.346514 
L 277.939299 -215.723197 
L 277.883909 -215.099879 
L 277.84066 -214.476562 
L 277.806564 -213.853245 
L 277.779086 -213.229927 
L 277.756134 -212.60661 
L 277.736051 -211.983293 
L 277.717593 -211.359975 
L 277.699907 -210.736658 
L 277.682486 -210.113341 
L 277.665118 -209.490023 
L 277.647825 -208.866706 
L 277.630796 -208.243389 
L 277.614315 -207.620071 
L 277.5987 -206.996754 
L 277.584251 -206.373437 
L 277.571209 -205.750119 
L 277.559737 -205.126802 
L 277.549909 -204.503485 
L 277.541719 -203.880167 
L 277.5351 -203.25685 
L 277.52995 -202.633533 
L 277.526166 -202.010215 
L 277.523685 -201.386898 
L 277.522537 -200.763581 
L 277.522904 -200.140263 
L 277.525202 -199.516946 
L 277.530179 -198.893628 
L 277.539044 -198.270311 
L 277.553614 -197.646994 
L 277.576484 -197.023676 
L 277.611193 -196.400359 
L 277.662361 -195.777042 
L 277.735757 -195.153724 
L 277.838242 -194.530407 
L 277.977537 -193.90709 
L 278.161753 -193.283772 
L 278.39868 -192.660455 
L 278.694809 -192.037138 
L 279.054174 -191.41382 
L 279.477105 -190.790503 
L 279.959079 -190.167186 
L 280.489863 -189.543868 
L 281.053157 -188.920551 
L 281.626931 -188.297234 
L 282.184531 -187.673916 
L 282.696545 -187.050599 
L 283.133288 -186.427282 
L 283.467609 -185.803964 
L 283.677676 -185.180647 
L 283.749333 -184.55733 
z
" id="mf30c282a16" style="stroke:#444444;stroke-width:1.5;"/>
    </defs>
    <g clip-path="url(#pd00635bf5e)">
     <use style="fill:#e68193;stroke:#444444;stroke-width:1.5;" x="0" xlink:href="#mf30c282a16" y="458.815625"/>
    </g>
   </g>
   <g id="PolyCollection_10">
    <defs>
     <path d="M 301.045233 -184.55733 
L 295.13601 -184.55733 
L 295.131456 -185.139464 
L 295.131675 -185.721598 
L 295.136547 -186.303732 
L 295.145918 -186.885867 
L 295.159597 -187.468001 
L 295.177363 -188.050135 
L 295.198958 -188.632269 
L 295.224097 -189.214404 
L 295.252463 -189.796538 
L 295.283717 -190.378672 
L 295.317492 -190.960806 
L 295.353402 -191.542941 
L 295.391044 -192.125075 
L 295.429998 -192.707209 
L 295.469833 -193.289343 
L 295.51011 -193.871478 
L 295.550385 -194.453612 
L 295.59021 -195.035746 
L 295.629142 -195.61788 
L 295.66674 -196.200015 
L 295.702574 -196.782149 
L 295.736223 -197.364283 
L 295.767281 -197.946417 
L 295.79536 -198.528552 
L 295.820092 -199.110686 
L 295.841131 -199.69282 
L 295.858157 -200.274954 
L 295.870874 -200.857089 
L 295.87902 -201.439223 
L 295.882359 -202.021357 
L 295.880689 -202.603491 
L 295.873842 -203.185626 
L 295.861683 -203.76776 
L 295.844113 -204.349894 
L 295.821066 -204.932028 
L 295.792516 -205.514163 
L 295.758467 -206.096297 
L 295.718963 -206.678431 
L 295.674081 -207.260565 
L 295.623933 -207.8427 
L 295.568664 -208.424834 
L 295.508451 -209.006968 
L 295.443504 -209.589102 
L 295.374062 -210.171237 
L 295.300392 -210.753371 
L 295.222789 -211.335505 
L 295.141573 -211.917639 
L 295.057087 -212.499774 
L 294.969694 -213.081908 
L 294.87978 -213.664042 
L 294.787745 -214.246176 
L 294.694005 -214.828311 
L 294.598988 -215.410445 
L 294.503135 -215.992579 
L 294.406892 -216.574714 
L 294.310713 -217.156848 
L 294.215054 -217.738982 
L 294.120372 -218.321116 
L 294.027124 -218.903251 
L 293.935761 -219.485385 
L 293.846731 -220.067519 
L 293.760469 -220.649653 
L 293.677404 -221.231788 
L 293.597949 -221.813922 
L 293.522502 -222.396056 
L 293.451445 -222.97819 
L 293.385141 -223.560325 
L 293.323929 -224.142459 
L 293.268128 -224.724593 
L 293.218032 -225.306727 
L 293.173909 -225.888862 
L 293.135998 -226.470996 
L 293.10451 -227.05313 
L 293.079628 -227.635264 
L 293.061502 -228.217399 
L 293.050252 -228.799533 
L 293.045966 -229.381667 
L 293.048699 -229.963801 
L 293.058475 -230.545936 
L 293.075284 -231.12807 
L 293.099087 -231.710204 
L 293.129809 -232.292338 
L 293.167348 -232.874473 
L 293.21157 -233.456607 
L 293.262313 -234.038741 
L 293.319386 -234.620875 
L 293.382573 -235.20301 
L 293.451631 -235.785144 
L 293.526297 -236.367278 
L 293.606282 -236.949412 
L 293.691283 -237.531547 
L 293.780976 -238.113681 
L 293.875022 -238.695815 
L 293.973071 -239.277949 
L 294.07476 -239.860084 
L 294.179719 -240.442218 
L 294.287571 -241.024352 
L 294.397936 -241.606486 
L 294.510432 -242.188621 
L 301.670811 -242.188621 
L 301.670811 -242.188621 
L 301.783307 -241.606486 
L 301.893672 -241.024352 
L 302.001524 -240.442218 
L 302.106483 -239.860084 
L 302.208172 -239.277949 
L 302.306221 -238.695815 
L 302.400267 -238.113681 
L 302.48996 -237.531547 
L 302.574961 -236.949412 
L 302.654946 -236.367278 
L 302.729612 -235.785144 
L 302.79867 -235.20301 
L 302.861857 -234.620875 
L 302.91893 -234.038741 
L 302.969673 -233.456607 
L 303.013895 -232.874473 
L 303.051434 -232.292338 
L 303.082156 -231.710204 
L 303.105959 -231.12807 
L 303.122768 -230.545936 
L 303.132544 -229.963801 
L 303.135277 -229.381667 
L 303.130991 -228.799533 
L 303.119741 -228.217399 
L 303.101615 -227.635264 
L 303.076733 -227.05313 
L 303.045245 -226.470996 
L 303.007334 -225.888862 
L 302.963211 -225.306727 
L 302.913115 -224.724593 
L 302.857314 -224.142459 
L 302.796102 -223.560325 
L 302.729798 -222.97819 
L 302.658741 -222.396056 
L 302.583294 -221.813922 
L 302.503839 -221.231788 
L 302.420774 -220.649653 
L 302.334512 -220.067519 
L 302.245482 -219.485385 
L 302.154119 -218.903251 
L 302.060871 -218.321116 
L 301.966189 -217.738982 
L 301.87053 -217.156848 
L 301.774351 -216.574714 
L 301.678108 -215.992579 
L 301.582255 -215.410445 
L 301.487238 -214.828311 
L 301.393498 -214.246176 
L 301.301463 -213.664042 
L 301.211549 -213.081908 
L 301.124156 -212.499774 
L 301.03967 -211.917639 
L 300.958454 -211.335505 
L 300.880851 -210.753371 
L 300.807181 -210.171237 
L 300.737739 -209.589102 
L 300.672792 -209.006968 
L 300.612579 -208.424834 
L 300.55731 -207.8427 
L 300.507162 -207.260565 
L 300.46228 -206.678431 
L 300.422776 -206.096297 
L 300.388727 -205.514163 
L 300.360177 -204.932028 
L 300.33713 -204.349894 
L 300.31956 -203.76776 
L 300.307401 -203.185626 
L 300.300554 -202.603491 
L 300.298884 -202.021357 
L 300.302223 -201.439223 
L 300.310369 -200.857089 
L 300.323086 -200.274954 
L 300.340112 -199.69282 
L 300.361151 -199.110686 
L 300.385883 -198.528552 
L 300.413962 -197.946417 
L 300.44502 -197.364283 
L 300.478669 -196.782149 
L 300.514503 -196.200015 
L 300.552101 -195.61788 
L 300.591033 -195.035746 
L 300.630858 -194.453612 
L 300.671133 -193.871478 
L 300.71141 -193.289343 
L 300.751245 -192.707209 
L 300.790199 -192.125075 
L 300.827841 -191.542941 
L 300.863751 -190.960806 
L 300.897526 -190.378672 
L 300.92878 -189.796538 
L 300.957146 -189.214404 
L 300.982285 -188.632269 
L 301.00388 -188.050135 
L 301.021646 -187.468001 
L 301.035325 -186.885867 
L 301.044696 -186.303732 
L 301.049568 -185.721598 
L 301.049787 -185.139464 
L 301.045233 -184.55733 
z
" id="m0ea2dd9de2" style="stroke:#444444;stroke-width:1.5;"/>
    </defs>
    <g clip-path="url(#pd00635bf5e)">
     <use style="fill:#459e97;stroke:#444444;stroke-width:1.5;" x="0" xlink:href="#m0ea2dd9de2" y="458.815625"/>
    </g>
   </g>
   <g id="patch_3">
    <path clip-path="url(#pd00635bf5e)" d="M 82.046423 274.258295 
L 82.046423 274.258295 
L 82.046423 274.258295 
L 82.046423 274.258295 
z
" style="fill:#e68193;stroke:#444444;stroke-linejoin:miter;stroke-width:0.75;"/>
   </g>
   <g id="patch_4">
    <path clip-path="url(#pd00635bf5e)" d="M 82.046423 274.258295 
L 82.046423 274.258295 
L 82.046423 274.258295 
L 82.046423 274.258295 
z
" style="fill:#459e97;stroke:#444444;stroke-linejoin:miter;stroke-width:0.75;"/>
   </g>
   <g id="line2d_1">
    <path clip-path="url(#pd00635bf5e)" d="M 71.758604 167.19884 
L 71.758604 42.774205 
" style="fill:none;stroke:#444444;stroke-linecap:round;stroke-width:1.5;"/>
   </g>
   <g id="line2d_2">
    <path clip-path="url(#pd00635bf5e)" d="M 71.758604 114.405594 
L 71.758604 59.674262 
" style="fill:none;stroke:#444444;stroke-linecap:round;stroke-width:4.5;"/>
   </g>
   <g id="line2d_3">
    <path clip-path="url(#pd00635bf5e)" d="M 92.334242 274.258295 
L 92.334242 57.653133 
" style="fill:none;stroke:#444444;stroke-linecap:round;stroke-width:1.5;"/>
   </g>
   <g id="line2d_4">
    <path clip-path="url(#pd00635bf5e)" d="M 92.334242 274.258295 
L 92.334242 72.183646 
" style="fill:none;stroke:#444444;stroke-linecap:round;stroke-width:4.5;"/>
   </g>
   <g id="line2d_5">
    <path clip-path="url(#pd00635bf5e)" d="M 123.197699 208.053539 
L 123.197699 134.716653 
" style="fill:none;stroke:#444444;stroke-linecap:round;stroke-width:1.5;"/>
   </g>
   <g id="line2d_6">
    <path clip-path="url(#pd00635bf5e)" d="M 123.197699 185.920679 
L 123.197699 144.872178 
" style="fill:none;stroke:#444444;stroke-linecap:round;stroke-width:4.5;"/>
   </g>
   <g id="line2d_7">
    <path clip-path="url(#pd00635bf5e)" d="M 143.773336 274.258295 
L 143.773336 143.669323 
" style="fill:none;stroke:#444444;stroke-linecap:round;stroke-width:1.5;"/>
   </g>
   <g id="line2d_8">
    <path clip-path="url(#pd00635bf5e)" d="M 143.773336 274.258295 
L 143.773336 153.428002 
" style="fill:none;stroke:#444444;stroke-linecap:round;stroke-width:4.5;"/>
   </g>
   <g id="line2d_9">
    <path clip-path="url(#pd00635bf5e)" d="M 174.636794 167.19884 
L 174.636794 48.743497 
" style="fill:none;stroke:#444444;stroke-linecap:round;stroke-width:1.5;"/>
   </g>
   <g id="line2d_10">
    <path clip-path="url(#pd00635bf5e)" d="M 174.636794 119.599637 
L 174.636794 63.782986 
" style="fill:none;stroke:#444444;stroke-linecap:round;stroke-width:4.5;"/>
   </g>
   <g id="line2d_11">
    <path clip-path="url(#pd00635bf5e)" d="M 195.212432 274.258295 
L 195.212432 62.67545 
" style="fill:none;stroke:#444444;stroke-linecap:round;stroke-width:1.5;"/>
   </g>
   <g id="line2d_12">
    <path clip-path="url(#pd00635bf5e)" d="M 195.212432 274.258295 
L 195.212432 83.993585 
" style="fill:none;stroke:#444444;stroke-linecap:round;stroke-width:4.5;"/>
   </g>
   <g id="line2d_13">
    <path clip-path="url(#pd00635bf5e)" d="M 226.075888 208.053539 
L 226.075888 137.817576 
" style="fill:none;stroke:#444444;stroke-linecap:round;stroke-width:1.5;"/>
   </g>
   <g id="line2d_14">
    <path clip-path="url(#pd00635bf5e)" d="M 226.075888 186.308295 
L 226.075888 147.275397 
" style="fill:none;stroke:#444444;stroke-linecap:round;stroke-width:4.5;"/>
   </g>
   <g id="line2d_15">
    <path clip-path="url(#pd00635bf5e)" d="M 246.651527 274.258295 
L 246.651527 146.566521 
" style="fill:none;stroke:#444444;stroke-linecap:round;stroke-width:1.5;"/>
   </g>
   <g id="line2d_16">
    <path clip-path="url(#pd00635bf5e)" d="M 246.651527 274.258295 
L 246.651527 164.652927 
" style="fill:none;stroke:#444444;stroke-linecap:round;stroke-width:4.5;"/>
   </g>
   <g id="line2d_17">
    <path clip-path="url(#pd00635bf5e)" d="M 277.514983 248.753184 
L 277.514983 212.549878 
" style="fill:none;stroke:#444444;stroke-linecap:round;stroke-width:1.5;"/>
   </g>
   <g id="line2d_18">
    <path clip-path="url(#pd00635bf5e)" d="M 277.514983 234.876541 
L 277.514983 218.441635 
" style="fill:none;stroke:#444444;stroke-linecap:round;stroke-width:4.5;"/>
   </g>
   <g id="line2d_19">
    <path clip-path="url(#pd00635bf5e)" d="M 298.090621 274.258295 
L 298.090621 216.627004 
" style="fill:none;stroke:#444444;stroke-linecap:round;stroke-width:1.5;"/>
   </g>
   <g id="line2d_20">
    <path clip-path="url(#pd00635bf5e)" d="M 298.090621 274.258295 
L 298.090621 227.087647 
" style="fill:none;stroke:#444444;stroke-linecap:round;stroke-width:4.5;"/>
   </g>
   <g id="patch_5">
    <path d="M 56.326875 285.8325 
L 313.52235 285.8325 
" style="fill:none;stroke:#262626;stroke-linecap:square;stroke-linejoin:miter;stroke-width:1.875;"/>
   </g>
   <g id="PathCollection_1">
    <defs>
     <path d="M 0 1.5 
C 0.397805 1.5 0.77937 1.341951 1.06066 1.06066 
C 1.341951 0.77937 1.5 0.397805 1.5 0 
C 1.5 -0.397805 1.341951 -0.77937 1.06066 -1.06066 
C 0.77937 -1.341951 0.397805 -1.5 0 -1.5 
C -0.397805 -1.5 -0.77937 -1.341951 -1.06066 -1.06066 
C -1.341951 -0.77937 -1.5 -0.397805 -1.5 0 
C -1.5 0.397805 -1.341951 0.77937 -1.06066 1.06066 
C -0.77937 1.341951 -0.397805 1.5 0 1.5 
z
" id="m6cbbaabce9" style="stroke:#444444;stroke-width:1.5;"/>
    </defs>
    <g clip-path="url(#pd00635bf5e)">
     <use style="fill:#ffffff;stroke:#444444;stroke-width:1.5;" x="71.758604" xlink:href="#m6cbbaabce9" y="74.636215"/>
    </g>
   </g>
   <g id="PathCollection_2">
    <g clip-path="url(#pd00635bf5e)">
     <use style="fill:#ffffff;stroke:#444444;stroke-width:1.5;" x="92.334242" xlink:href="#m6cbbaabce9" y="124.692311"/>
    </g>
   </g>
   <g id="PathCollection_3">
    <g clip-path="url(#pd00635bf5e)">
     <use style="fill:#ffffff;stroke:#444444;stroke-width:1.5;" x="123.197699" xlink:href="#m6cbbaabce9" y="156.345602"/>
    </g>
   </g>
   <g id="PathCollection_4">
    <g clip-path="url(#pd00635bf5e)">
     <use style="fill:#ffffff;stroke:#444444;stroke-width:1.5;" x="143.773336" xlink:href="#m6cbbaabce9" y="185.625497"/>
    </g>
   </g>
   <g id="PathCollection_5">
    <g clip-path="url(#pd00635bf5e)">
     <use style="fill:#ffffff;stroke:#444444;stroke-width:1.5;" x="174.636794" xlink:href="#m6cbbaabce9" y="84.171572"/>
    </g>
   </g>
   <g id="PathCollection_6">
    <g clip-path="url(#pd00635bf5e)">
     <use style="fill:#ffffff;stroke:#444444;stroke-width:1.5;" x="195.212432" xlink:href="#m6cbbaabce9" y="126.878738"/>
    </g>
   </g>
   <g id="PathCollection_7">
    <g clip-path="url(#pd00635bf5e)">
     <use style="fill:#ffffff;stroke:#444444;stroke-width:1.5;" x="226.075888" xlink:href="#m6cbbaabce9" y="164.950675"/>
    </g>
   </g>
   <g id="PathCollection_8">
    <g clip-path="url(#pd00635bf5e)">
     <use style="fill:#ffffff;stroke:#444444;stroke-width:1.5;" x="246.651527" xlink:href="#m6cbbaabce9" y="187.539722"/>
    </g>
   </g>
   <g id="PathCollection_9">
    <g clip-path="url(#pd00635bf5e)">
     <use style="fill:#ffffff;stroke:#444444;stroke-width:1.5;" x="277.514983" xlink:href="#m6cbbaabce9" y="227.12423"/>
    </g>
   </g>
   <g id="PathCollection_10">
    <g clip-path="url(#pd00635bf5e)">
     <use style="fill:#ffffff;stroke:#444444;stroke-width:1.5;" x="298.090621" xlink:href="#m6cbbaabce9" y="237.00116"/>
    </g>
   </g>
  </g>
  <g id="text_14">
   <!-- Coffee -->
   <defs>
    <path d="M 58.796875 25.09375 
L 68.265625 22.703125 
Q 65.28125 11.03125 57.546875 4.90625 
Q 49.8125 -1.21875 38.625 -1.21875 
Q 27.046875 -1.21875 19.796875 3.484375 
Q 12.546875 8.203125 8.765625 17.140625 
Q 4.984375 26.078125 4.984375 36.328125 
Q 4.984375 47.515625 9.25 55.828125 
Q 13.53125 64.15625 21.40625 68.46875 
Q 29.296875 72.796875 38.765625 72.796875 
Q 49.515625 72.796875 56.828125 67.328125 
Q 64.15625 61.859375 67.046875 51.953125 
L 57.71875 49.75 
Q 55.21875 57.5625 50.484375 61.125 
Q 45.75 64.703125 38.578125 64.703125 
Q 30.328125 64.703125 24.78125 60.734375 
Q 19.234375 56.78125 16.984375 50.109375 
Q 14.75 43.453125 14.75 36.375 
Q 14.75 27.25 17.40625 20.4375 
Q 20.0625 13.625 25.671875 10.25 
Q 31.296875 6.890625 37.84375 6.890625 
Q 45.796875 6.890625 51.3125 11.46875 
Q 56.84375 16.0625 58.796875 25.09375 
z
" id="ArialMT-67"/>
   </defs>
   <g style="fill:#262626;" transform="translate(160.478025 15.460875)scale(0.216 -0.216)">
    <use xlink:href="#ArialMT-67"/>
    <use x="72.216797" xlink:href="#ArialMT-111"/>
    <use x="127.832031" xlink:href="#ArialMT-102"/>
    <use x="155.599609" xlink:href="#ArialMT-102"/>
    <use x="183.382812" xlink:href="#ArialMT-101"/>
    <use x="238.998047" xlink:href="#ArialMT-101"/>
   </g>
  </g>
  <g id="legend_1">
   <g id="text_15">
    <!-- index -->
    <defs>
     <path d="M 0.734375 0 
L 19.671875 26.953125 
L 2.15625 51.859375 
L 13.140625 51.859375 
L 21.09375 39.703125 
Q 23.34375 36.234375 24.703125 33.890625 
Q 26.859375 37.109375 28.65625 39.59375 
L 37.40625 51.859375 
L 47.90625 51.859375 
L 29.984375 27.4375 
L 49.265625 0 
L 38.484375 0 
L 27.828125 16.109375 
L 25 20.453125 
L 11.375 0 
z
" id="ArialMT-120"/>
    </defs>
    <g style="fill:#262626;" transform="translate(337.599525 210.023336)scale(0.153 -0.153)">
     <use xlink:href="#ArialMT-105"/>
     <use x="22.216797" xlink:href="#ArialMT-110"/>
     <use x="77.832031" xlink:href="#ArialMT-100"/>
     <use x="133.447266" xlink:href="#ArialMT-101"/>
     <use x="189.0625" xlink:href="#ArialMT-120"/>
    </g>
   </g>
   <g id="patch_6">
    <path d="M 308.489072 233.124602 
L 341.489072 233.124602 
L 341.489072 221.574602 
L 308.489072 221.574602 
z
" style="fill:#e68193;stroke:#444444;stroke-linejoin:miter;stroke-width:0.75;"/>
   </g>
   <g id="text_16">
    <!-- actual -->
    <defs>
     <path d="M 40.4375 19 
L 49.078125 17.875 
Q 47.65625 8.9375 41.8125 3.875 
Q 35.984375 -1.171875 27.484375 -1.171875 
Q 16.84375 -1.171875 10.375 5.78125 
Q 3.90625 12.75 3.90625 25.734375 
Q 3.90625 34.125 6.6875 40.421875 
Q 9.46875 46.734375 15.15625 49.875 
Q 20.84375 53.03125 27.546875 53.03125 
Q 35.984375 53.03125 41.359375 48.75 
Q 46.734375 44.484375 48.25 36.625 
L 39.703125 35.296875 
Q 38.484375 40.53125 35.375 43.15625 
Q 32.28125 45.796875 27.875 45.796875 
Q 21.234375 45.796875 17.078125 41.03125 
Q 12.9375 36.28125 12.9375 25.984375 
Q 12.9375 15.53125 16.9375 10.796875 
Q 20.953125 6.0625 27.390625 6.0625 
Q 32.5625 6.0625 36.03125 9.234375 
Q 39.5 12.40625 40.4375 19 
z
" id="ArialMT-99"/>
     <path d="M 40.578125 0 
L 40.578125 7.625 
Q 34.515625 -1.171875 24.125 -1.171875 
Q 19.53125 -1.171875 15.546875 0.578125 
Q 11.578125 2.34375 9.640625 5 
Q 7.71875 7.671875 6.9375 11.53125 
Q 6.390625 14.109375 6.390625 19.734375 
L 6.390625 51.859375 
L 15.1875 51.859375 
L 15.1875 23.09375 
Q 15.1875 16.21875 15.71875 13.8125 
Q 16.546875 10.359375 19.234375 8.375 
Q 21.921875 6.390625 25.875 6.390625 
Q 29.828125 6.390625 33.296875 8.421875 
Q 36.765625 10.453125 38.203125 13.9375 
Q 39.65625 17.4375 39.65625 24.078125 
L 39.65625 51.859375 
L 48.4375 51.859375 
L 48.4375 0 
z
" id="ArialMT-117"/>
    </defs>
    <g style="fill:#262626;" transform="translate(354.689072 233.124602)scale(0.165 -0.165)">
     <use xlink:href="#ArialMT-97"/>
     <use x="55.615234" xlink:href="#ArialMT-99"/>
     <use x="105.615234" xlink:href="#ArialMT-116"/>
     <use x="133.398438" xlink:href="#ArialMT-117"/>
     <use x="189.013672" xlink:href="#ArialMT-97"/>
     <use x="244.628906" xlink:href="#ArialMT-108"/>
    </g>
   </g>
   <g id="patch_7">
    <path d="M 308.489072 256.464367 
L 341.489072 256.464367 
L 341.489072 244.914367 
L 308.489072 244.914367 
z
" style="fill:#459e97;stroke:#444444;stroke-linejoin:miter;stroke-width:0.75;"/>
   </g>
   <g id="text_17">
    <!-- cluster -->
    <defs>
     <path d="M 3.078125 15.484375 
L 11.765625 16.84375 
Q 12.5 11.625 15.84375 8.84375 
Q 19.1875 6.0625 25.203125 6.0625 
Q 31.25 6.0625 34.171875 8.515625 
Q 37.109375 10.984375 37.109375 14.3125 
Q 37.109375 17.28125 34.515625 19 
Q 32.71875 20.171875 25.53125 21.96875 
Q 15.875 24.421875 12.140625 26.203125 
Q 8.40625 27.984375 6.46875 31.125 
Q 4.546875 34.28125 4.546875 38.09375 
Q 4.546875 41.546875 6.125 44.5 
Q 7.71875 47.46875 10.453125 49.421875 
Q 12.5 50.921875 16.03125 51.96875 
Q 19.578125 53.03125 23.640625 53.03125 
Q 29.734375 53.03125 34.34375 51.265625 
Q 38.96875 49.515625 41.15625 46.5 
Q 43.359375 43.5 44.1875 38.484375 
L 35.59375 37.3125 
Q 35.015625 41.3125 32.203125 43.546875 
Q 29.390625 45.796875 24.265625 45.796875 
Q 18.21875 45.796875 15.625 43.796875 
Q 13.03125 41.796875 13.03125 39.109375 
Q 13.03125 37.40625 14.109375 36.03125 
Q 15.1875 34.625 17.484375 33.6875 
Q 18.796875 33.203125 25.25 31.453125 
Q 34.578125 28.953125 38.25 27.359375 
Q 41.9375 25.78125 44.03125 22.75 
Q 46.140625 19.734375 46.140625 15.234375 
Q 46.140625 10.84375 43.578125 6.953125 
Q 41.015625 3.078125 36.171875 0.953125 
Q 31.34375 -1.171875 25.25 -1.171875 
Q 15.140625 -1.171875 9.84375 3.03125 
Q 4.546875 7.234375 3.078125 15.484375 
z
" id="ArialMT-115"/>
    </defs>
    <g style="fill:#262626;" transform="translate(354.689072 256.464367)scale(0.165 -0.165)">
     <use xlink:href="#ArialMT-99"/>
     <use x="50" xlink:href="#ArialMT-108"/>
     <use x="72.216797" xlink:href="#ArialMT-117"/>
     <use x="127.832031" xlink:href="#ArialMT-115"/>
     <use x="177.832031" xlink:href="#ArialMT-116"/>
     <use x="205.615234" xlink:href="#ArialMT-101"/>
     <use x="261.230469" xlink:href="#ArialMT-114"/>
    </g>
   </g>
  </g>
 </g>
 <defs>
  <clipPath id="pd00635bf5e">
   <rect height="254.6325" width="257.195475" x="56.326875" y="31.2"/>
  </clipPath>
 </defs>
</svg>
