<?xml version="1.0" encoding="utf-8" standalone="no"?>
<!DOCTYPE svg PUBLIC "-//W3C//DTD SVG 1.1//EN"
  "http://www.w3.org/Graphics/SVG/1.1/DTD/svg11.dtd">
<!-- Created with matplotlib (https://matplotlib.org/) -->
<svg height="458.815625pt" version="1.1" viewBox="0 0 422.282582 458.815625" width="422.282582pt" xmlns="http://www.w3.org/2000/svg" xmlns:xlink="http://www.w3.org/1999/xlink">
 <defs>
  <style type="text/css">
*{stroke-linecap:butt;stroke-linejoin:round;}
  </style>
 </defs>
 <g id="figure_1">
  <g id="patch_1">
   <path d="M 0 458.815625 
L 422.282582 458.815625 
L 422.282582 0 
L 0 0 
z
" style="fill:#ffffff;"/>
  </g>
  <g id="axes_1">
   <g id="patch_2">
    <path d="M 42.567422 285.8325 
L 317.670782 285.8325 
L 317.670782 31.2 
L 42.567422 31.2 
z
" style="fill:#ffffff;"/>
   </g>
   <g id="matplotlib.axis_1">
    <g id="xtick_1">
     <g id="text_1">
      <!-- Irrigation High -->
      <defs>
       <path d="M 9.328125 0 
L 9.328125 71.578125 
L 18.796875 71.578125 
L 18.796875 0 
z
" id="ArialMT-73"/>
       <path d="M 6.5 0 
L 6.5 51.859375 
L 14.40625 51.859375 
L 14.40625 44 
Q 17.4375 49.515625 20 51.265625 
Q 22.5625 53.03125 25.640625 53.03125 
Q 30.078125 53.03125 34.671875 50.203125 
L 31.640625 42.046875 
Q 28.421875 43.953125 25.203125 43.953125 
Q 22.3125 43.953125 20.015625 42.21875 
Q 17.71875 40.484375 16.75 37.40625 
Q 15.28125 32.71875 15.28125 27.15625 
L 15.28125 0 
z
" id="ArialMT-114"/>
       <path d="M 6.640625 61.46875 
L 6.640625 71.578125 
L 15.4375 71.578125 
L 15.4375 61.46875 
z
M 6.640625 0 
L 6.640625 51.859375 
L 15.4375 51.859375 
L 15.4375 0 
z
" id="ArialMT-105"/>
       <path d="M 4.984375 -4.296875 
L 13.53125 -5.5625 
Q 14.0625 -9.515625 16.5 -11.328125 
Q 19.78125 -13.765625 25.4375 -13.765625 
Q 31.546875 -13.765625 34.859375 -11.328125 
Q 38.1875 -8.890625 39.359375 -4.5 
Q 40.046875 -1.8125 39.984375 6.78125 
Q 34.234375 0 25.640625 0 
Q 14.9375 0 9.078125 7.71875 
Q 3.21875 15.4375 3.21875 26.21875 
Q 3.21875 33.640625 5.90625 39.90625 
Q 8.59375 46.1875 13.6875 49.609375 
Q 18.796875 53.03125 25.6875 53.03125 
Q 34.859375 53.03125 40.828125 45.609375 
L 40.828125 51.859375 
L 48.921875 51.859375 
L 48.921875 7.03125 
Q 48.921875 -5.078125 46.453125 -10.125 
Q 44 -15.1875 38.640625 -18.109375 
Q 33.296875 -21.046875 25.484375 -21.046875 
Q 16.21875 -21.046875 10.5 -16.875 
Q 4.78125 -12.703125 4.984375 -4.296875 
z
M 12.25 26.859375 
Q 12.25 16.65625 16.296875 11.96875 
Q 20.359375 7.28125 26.46875 7.28125 
Q 32.515625 7.28125 36.609375 11.9375 
Q 40.71875 16.609375 40.71875 26.5625 
Q 40.71875 36.078125 36.5 40.90625 
Q 32.28125 45.75 26.3125 45.75 
Q 20.453125 45.75 16.34375 40.984375 
Q 12.25 36.234375 12.25 26.859375 
z
" id="ArialMT-103"/>
       <path d="M 40.4375 6.390625 
Q 35.546875 2.25 31.03125 0.53125 
Q 26.515625 -1.171875 21.34375 -1.171875 
Q 12.796875 -1.171875 8.203125 3 
Q 3.609375 7.171875 3.609375 13.671875 
Q 3.609375 17.484375 5.34375 20.625 
Q 7.078125 23.78125 9.890625 25.6875 
Q 12.703125 27.59375 16.21875 28.5625 
Q 18.796875 29.25 24.03125 29.890625 
Q 34.671875 31.15625 39.703125 32.90625 
Q 39.75 34.71875 39.75 35.203125 
Q 39.75 40.578125 37.25 42.78125 
Q 33.890625 45.75 27.25 45.75 
Q 21.046875 45.75 18.09375 43.578125 
Q 15.140625 41.40625 13.71875 35.890625 
L 5.125 37.0625 
Q 6.296875 42.578125 8.984375 45.96875 
Q 11.671875 49.359375 16.75 51.1875 
Q 21.828125 53.03125 28.515625 53.03125 
Q 35.15625 53.03125 39.296875 51.46875 
Q 43.453125 49.90625 45.40625 47.53125 
Q 47.359375 45.171875 48.140625 41.546875 
Q 48.578125 39.3125 48.578125 33.453125 
L 48.578125 21.734375 
Q 48.578125 9.46875 49.140625 6.21875 
Q 49.703125 2.984375 51.375 0 
L 42.1875 0 
Q 40.828125 2.734375 40.4375 6.390625 
z
M 39.703125 26.03125 
Q 34.90625 24.078125 25.34375 22.703125 
Q 19.921875 21.921875 17.671875 20.9375 
Q 15.4375 19.96875 14.203125 18.09375 
Q 12.984375 16.21875 12.984375 13.921875 
Q 12.984375 10.40625 15.640625 8.0625 
Q 18.3125 5.71875 23.4375 5.71875 
Q 28.515625 5.71875 32.46875 7.9375 
Q 36.421875 10.15625 38.28125 14.015625 
Q 39.703125 17 39.703125 22.796875 
z
" id="ArialMT-97"/>
       <path d="M 25.78125 7.859375 
L 27.046875 0.09375 
Q 23.34375 -0.6875 20.40625 -0.6875 
Q 15.625 -0.6875 12.984375 0.828125 
Q 10.359375 2.34375 9.28125 4.8125 
Q 8.203125 7.28125 8.203125 15.1875 
L 8.203125 45.015625 
L 1.765625 45.015625 
L 1.765625 51.859375 
L 8.203125 51.859375 
L 8.203125 64.703125 
L 16.9375 69.96875 
L 16.9375 51.859375 
L 25.78125 51.859375 
L 25.78125 45.015625 
L 16.9375 45.015625 
L 16.9375 14.703125 
Q 16.9375 10.9375 17.40625 9.859375 
Q 17.875 8.796875 18.921875 8.15625 
Q 19.96875 7.515625 21.921875 7.515625 
Q 23.390625 7.515625 25.78125 7.859375 
z
" id="ArialMT-116"/>
       <path d="M 3.328125 25.921875 
Q 3.328125 40.328125 11.328125 47.265625 
Q 18.015625 53.03125 27.640625 53.03125 
Q 38.328125 53.03125 45.109375 46.015625 
Q 51.90625 39.015625 51.90625 26.65625 
Q 51.90625 16.65625 48.90625 10.90625 
Q 45.90625 5.171875 40.15625 2 
Q 34.421875 -1.171875 27.640625 -1.171875 
Q 16.75 -1.171875 10.03125 5.8125 
Q 3.328125 12.796875 3.328125 25.921875 
z
M 12.359375 25.921875 
Q 12.359375 15.96875 16.703125 11.015625 
Q 21.046875 6.0625 27.640625 6.0625 
Q 34.1875 6.0625 38.53125 11.03125 
Q 42.875 16.015625 42.875 26.21875 
Q 42.875 35.84375 38.5 40.796875 
Q 34.125 45.75 27.640625 45.75 
Q 21.046875 45.75 16.703125 40.8125 
Q 12.359375 35.890625 12.359375 25.921875 
z
" id="ArialMT-111"/>
       <path d="M 6.59375 0 
L 6.59375 51.859375 
L 14.5 51.859375 
L 14.5 44.484375 
Q 20.21875 53.03125 31 53.03125 
Q 35.6875 53.03125 39.625 51.34375 
Q 43.5625 49.65625 45.515625 46.921875 
Q 47.46875 44.1875 48.25 40.4375 
Q 48.734375 37.984375 48.734375 31.890625 
L 48.734375 0 
L 39.9375 0 
L 39.9375 31.546875 
Q 39.9375 36.921875 38.90625 39.578125 
Q 37.890625 42.234375 35.28125 43.8125 
Q 32.671875 45.40625 29.15625 45.40625 
Q 23.53125 45.40625 19.453125 41.84375 
Q 15.375 38.28125 15.375 28.328125 
L 15.375 0 
z
" id="ArialMT-110"/>
       <path id="ArialMT-32"/>
       <path d="M 8.015625 0 
L 8.015625 71.578125 
L 17.484375 71.578125 
L 17.484375 42.1875 
L 54.6875 42.1875 
L 54.6875 71.578125 
L 64.15625 71.578125 
L 64.15625 0 
L 54.6875 0 
L 54.6875 33.734375 
L 17.484375 33.734375 
L 17.484375 0 
z
" id="ArialMT-72"/>
       <path d="M 6.59375 0 
L 6.59375 71.578125 
L 15.375 71.578125 
L 15.375 45.90625 
Q 21.53125 53.03125 30.90625 53.03125 
Q 36.671875 53.03125 40.921875 50.75 
Q 45.171875 48.484375 47 44.484375 
Q 48.828125 40.484375 48.828125 32.859375 
L 48.828125 0 
L 40.046875 0 
L 40.046875 32.859375 
Q 40.046875 39.453125 37.1875 42.453125 
Q 34.328125 45.453125 29.109375 45.453125 
Q 25.203125 45.453125 21.75 43.421875 
Q 18.3125 41.40625 16.84375 37.9375 
Q 15.375 34.46875 15.375 28.375 
L 15.375 0 
z
" id="ArialMT-104"/>
      </defs>
      <g style="fill:#262626;" transform="translate(74.246586 401.039844)rotate(-90)scale(0.165 -0.165)">
       <use xlink:href="#ArialMT-73"/>
       <use x="27.783203" xlink:href="#ArialMT-114"/>
       <use x="61.083984" xlink:href="#ArialMT-114"/>
       <use x="94.384766" xlink:href="#ArialMT-105"/>
       <use x="116.601562" xlink:href="#ArialMT-103"/>
       <use x="172.216797" xlink:href="#ArialMT-97"/>
       <use x="227.832031" xlink:href="#ArialMT-116"/>
       <use x="255.615234" xlink:href="#ArialMT-105"/>
       <use x="277.832031" xlink:href="#ArialMT-111"/>
       <use x="333.447266" xlink:href="#ArialMT-110"/>
       <use x="389.0625" xlink:href="#ArialMT-32"/>
       <use x="416.845703" xlink:href="#ArialMT-72"/>
       <use x="489.0625" xlink:href="#ArialMT-105"/>
       <use x="511.279297" xlink:href="#ArialMT-103"/>
       <use x="566.894531" xlink:href="#ArialMT-104"/>
      </g>
     </g>
    </g>
    <g id="xtick_2">
     <g id="text_2">
      <!-- Irrigation Intermediate -->
      <defs>
       <path d="M 42.09375 16.703125 
L 51.171875 15.578125 
Q 49.03125 7.625 43.21875 3.21875 
Q 37.40625 -1.171875 28.375 -1.171875 
Q 17 -1.171875 10.328125 5.828125 
Q 3.65625 12.84375 3.65625 25.484375 
Q 3.65625 38.578125 10.390625 45.796875 
Q 17.140625 53.03125 27.875 53.03125 
Q 38.28125 53.03125 44.875 45.953125 
Q 51.46875 38.875 51.46875 26.03125 
Q 51.46875 25.25 51.421875 23.6875 
L 12.75 23.6875 
Q 13.234375 15.140625 17.578125 10.59375 
Q 21.921875 6.0625 28.421875 6.0625 
Q 33.25 6.0625 36.671875 8.59375 
Q 40.09375 11.140625 42.09375 16.703125 
z
M 13.234375 30.90625 
L 42.1875 30.90625 
Q 41.609375 37.453125 38.875 40.71875 
Q 34.671875 45.796875 27.984375 45.796875 
Q 21.921875 45.796875 17.796875 41.75 
Q 13.671875 37.703125 13.234375 30.90625 
z
" id="ArialMT-101"/>
       <path d="M 6.59375 0 
L 6.59375 51.859375 
L 14.453125 51.859375 
L 14.453125 44.578125 
Q 16.890625 48.390625 20.9375 50.703125 
Q 25 53.03125 30.171875 53.03125 
Q 35.9375 53.03125 39.625 50.640625 
Q 43.3125 48.25 44.828125 43.953125 
Q 50.984375 53.03125 60.84375 53.03125 
Q 68.5625 53.03125 72.703125 48.75 
Q 76.859375 44.484375 76.859375 35.59375 
L 76.859375 0 
L 68.109375 0 
L 68.109375 32.671875 
Q 68.109375 37.9375 67.25 40.25 
Q 66.40625 42.578125 64.15625 43.984375 
Q 61.921875 45.40625 58.890625 45.40625 
Q 53.421875 45.40625 49.796875 41.765625 
Q 46.1875 38.140625 46.1875 30.125 
L 46.1875 0 
L 37.40625 0 
L 37.40625 33.6875 
Q 37.40625 39.546875 35.25 42.46875 
Q 33.109375 45.40625 28.21875 45.40625 
Q 24.515625 45.40625 21.359375 43.453125 
Q 18.21875 41.5 16.796875 37.734375 
Q 15.375 33.984375 15.375 26.90625 
L 15.375 0 
z
" id="ArialMT-109"/>
       <path d="M 40.234375 0 
L 40.234375 6.546875 
Q 35.296875 -1.171875 25.734375 -1.171875 
Q 19.53125 -1.171875 14.328125 2.25 
Q 9.125 5.671875 6.265625 11.796875 
Q 3.421875 17.921875 3.421875 25.875 
Q 3.421875 33.640625 6 39.96875 
Q 8.59375 46.296875 13.765625 49.65625 
Q 18.953125 53.03125 25.34375 53.03125 
Q 30.03125 53.03125 33.6875 51.046875 
Q 37.359375 49.078125 39.65625 45.90625 
L 39.65625 71.578125 
L 48.390625 71.578125 
L 48.390625 0 
z
M 12.453125 25.875 
Q 12.453125 15.921875 16.640625 10.984375 
Q 20.84375 6.0625 26.5625 6.0625 
Q 32.328125 6.0625 36.34375 10.765625 
Q 40.375 15.484375 40.375 25.140625 
Q 40.375 35.796875 36.265625 40.765625 
Q 32.171875 45.75 26.171875 45.75 
Q 20.3125 45.75 16.375 40.96875 
Q 12.453125 36.1875 12.453125 25.875 
z
" id="ArialMT-100"/>
      </defs>
      <g style="fill:#262626;" transform="translate(129.267258 458.815625)rotate(-90)scale(0.165 -0.165)">
       <use xlink:href="#ArialMT-73"/>
       <use x="27.783203" xlink:href="#ArialMT-114"/>
       <use x="61.083984" xlink:href="#ArialMT-114"/>
       <use x="94.384766" xlink:href="#ArialMT-105"/>
       <use x="116.601562" xlink:href="#ArialMT-103"/>
       <use x="172.216797" xlink:href="#ArialMT-97"/>
       <use x="227.832031" xlink:href="#ArialMT-116"/>
       <use x="255.615234" xlink:href="#ArialMT-105"/>
       <use x="277.832031" xlink:href="#ArialMT-111"/>
       <use x="333.447266" xlink:href="#ArialMT-110"/>
       <use x="389.0625" xlink:href="#ArialMT-32"/>
       <use x="416.845703" xlink:href="#ArialMT-73"/>
       <use x="444.628906" xlink:href="#ArialMT-110"/>
       <use x="500.244141" xlink:href="#ArialMT-116"/>
       <use x="528.027344" xlink:href="#ArialMT-101"/>
       <use x="583.642578" xlink:href="#ArialMT-114"/>
       <use x="616.943359" xlink:href="#ArialMT-109"/>
       <use x="700.244141" xlink:href="#ArialMT-101"/>
       <use x="755.859375" xlink:href="#ArialMT-100"/>
       <use x="811.474609" xlink:href="#ArialMT-105"/>
       <use x="833.691406" xlink:href="#ArialMT-97"/>
       <use x="889.306641" xlink:href="#ArialMT-116"/>
       <use x="917.089844" xlink:href="#ArialMT-101"/>
      </g>
     </g>
    </g>
    <g id="xtick_3">
     <g id="text_3">
      <!-- Rain-fed High -->
      <defs>
       <path d="M 7.859375 0 
L 7.859375 71.578125 
L 39.59375 71.578125 
Q 49.171875 71.578125 54.140625 69.640625 
Q 59.125 67.71875 62.109375 62.828125 
Q 65.09375 57.953125 65.09375 52.046875 
Q 65.09375 44.4375 60.15625 39.203125 
Q 55.21875 33.984375 44.921875 32.5625 
Q 48.6875 30.765625 50.640625 29 
Q 54.78125 25.203125 58.5 19.484375 
L 70.953125 0 
L 59.03125 0 
L 49.5625 14.890625 
Q 45.40625 21.34375 42.71875 24.75 
Q 40.046875 28.171875 37.921875 29.53125 
Q 35.796875 30.90625 33.59375 31.453125 
Q 31.984375 31.78125 28.328125 31.78125 
L 17.328125 31.78125 
L 17.328125 0 
z
M 17.328125 39.984375 
L 37.703125 39.984375 
Q 44.1875 39.984375 47.84375 41.328125 
Q 51.515625 42.671875 53.421875 45.625 
Q 55.328125 48.578125 55.328125 52.046875 
Q 55.328125 57.125 51.640625 60.390625 
Q 47.953125 63.671875 39.984375 63.671875 
L 17.328125 63.671875 
z
" id="ArialMT-82"/>
       <path d="M 3.171875 21.484375 
L 3.171875 30.328125 
L 30.171875 30.328125 
L 30.171875 21.484375 
z
" id="ArialMT-45"/>
       <path d="M 8.6875 0 
L 8.6875 45.015625 
L 0.921875 45.015625 
L 0.921875 51.859375 
L 8.6875 51.859375 
L 8.6875 57.375 
Q 8.6875 62.59375 9.625 65.140625 
Q 10.890625 68.5625 14.078125 70.671875 
Q 17.28125 72.796875 23.046875 72.796875 
Q 26.765625 72.796875 31.25 71.921875 
L 29.9375 64.265625 
Q 27.203125 64.75 24.75 64.75 
Q 20.75 64.75 19.09375 63.03125 
Q 17.4375 61.328125 17.4375 56.640625 
L 17.4375 51.859375 
L 27.546875 51.859375 
L 27.546875 45.015625 
L 17.4375 45.015625 
L 17.4375 0 
z
" id="ArialMT-102"/>
      </defs>
      <g style="fill:#262626;" transform="translate(184.388477 399.211953)rotate(-90)scale(0.165 -0.165)">
       <use xlink:href="#ArialMT-82"/>
       <use x="72.216797" xlink:href="#ArialMT-97"/>
       <use x="127.832031" xlink:href="#ArialMT-105"/>
       <use x="150.048828" xlink:href="#ArialMT-110"/>
       <use x="205.664062" xlink:href="#ArialMT-45"/>
       <use x="238.964844" xlink:href="#ArialMT-102"/>
       <use x="266.748047" xlink:href="#ArialMT-101"/>
       <use x="322.363281" xlink:href="#ArialMT-100"/>
       <use x="377.978516" xlink:href="#ArialMT-32"/>
       <use x="405.761719" xlink:href="#ArialMT-72"/>
       <use x="477.978516" xlink:href="#ArialMT-105"/>
       <use x="500.195312" xlink:href="#ArialMT-103"/>
       <use x="555.810547" xlink:href="#ArialMT-104"/>
      </g>
     </g>
    </g>
    <g id="xtick_4">
     <g id="text_4">
      <!-- Rain-fed Intermediate -->
      <g style="fill:#262626;" transform="translate(239.405282 456.987734)rotate(-90)scale(0.165 -0.165)">
       <use xlink:href="#ArialMT-82"/>
       <use x="72.216797" xlink:href="#ArialMT-97"/>
       <use x="127.832031" xlink:href="#ArialMT-105"/>
       <use x="150.048828" xlink:href="#ArialMT-110"/>
       <use x="205.664062" xlink:href="#ArialMT-45"/>
       <use x="238.964844" xlink:href="#ArialMT-102"/>
       <use x="266.748047" xlink:href="#ArialMT-101"/>
       <use x="322.363281" xlink:href="#ArialMT-100"/>
       <use x="377.978516" xlink:href="#ArialMT-32"/>
       <use x="405.761719" xlink:href="#ArialMT-73"/>
       <use x="433.544922" xlink:href="#ArialMT-110"/>
       <use x="489.160156" xlink:href="#ArialMT-116"/>
       <use x="516.943359" xlink:href="#ArialMT-101"/>
       <use x="572.558594" xlink:href="#ArialMT-114"/>
       <use x="605.859375" xlink:href="#ArialMT-109"/>
       <use x="689.160156" xlink:href="#ArialMT-101"/>
       <use x="744.775391" xlink:href="#ArialMT-100"/>
       <use x="800.390625" xlink:href="#ArialMT-105"/>
       <use x="822.607422" xlink:href="#ArialMT-97"/>
       <use x="878.222656" xlink:href="#ArialMT-116"/>
       <use x="906.005859" xlink:href="#ArialMT-101"/>
      </g>
     </g>
    </g>
    <g id="xtick_5">
     <g id="text_5">
      <!-- Rain-fed Low -->
      <defs>
       <path d="M 7.328125 0 
L 7.328125 71.578125 
L 16.796875 71.578125 
L 16.796875 8.453125 
L 52.046875 8.453125 
L 52.046875 0 
z
" id="ArialMT-76"/>
       <path d="M 16.15625 0 
L 0.296875 51.859375 
L 9.375 51.859375 
L 17.625 21.921875 
L 20.703125 10.796875 
Q 20.90625 11.625 23.390625 21.484375 
L 31.640625 51.859375 
L 40.671875 51.859375 
L 48.4375 21.78125 
L 51.03125 11.859375 
L 54 21.875 
L 62.890625 51.859375 
L 71.4375 51.859375 
L 55.21875 0 
L 46.09375 0 
L 37.84375 31.0625 
L 35.84375 39.890625 
L 25.34375 0 
z
" id="ArialMT-119"/>
      </defs>
      <g style="fill:#262626;" transform="translate(294.425954 395.545859)rotate(-90)scale(0.165 -0.165)">
       <use xlink:href="#ArialMT-82"/>
       <use x="72.216797" xlink:href="#ArialMT-97"/>
       <use x="127.832031" xlink:href="#ArialMT-105"/>
       <use x="150.048828" xlink:href="#ArialMT-110"/>
       <use x="205.664062" xlink:href="#ArialMT-45"/>
       <use x="238.964844" xlink:href="#ArialMT-102"/>
       <use x="266.748047" xlink:href="#ArialMT-101"/>
       <use x="322.363281" xlink:href="#ArialMT-100"/>
       <use x="377.978516" xlink:href="#ArialMT-32"/>
       <use x="405.761719" xlink:href="#ArialMT-76"/>
       <use x="461.376953" xlink:href="#ArialMT-111"/>
       <use x="516.992188" xlink:href="#ArialMT-119"/>
      </g>
     </g>
    </g>
   </g>
   <g id="matplotlib.axis_2">
    <g id="ytick_1">
     <g id="text_6">
      <!-- 0 -->
      <defs>
       <path d="M 4.15625 35.296875 
Q 4.15625 48 6.765625 55.734375 
Q 9.375 63.484375 14.515625 67.671875 
Q 19.671875 71.875 27.484375 71.875 
Q 33.25 71.875 37.59375 69.546875 
Q 41.9375 67.234375 44.765625 62.859375 
Q 47.609375 58.5 49.21875 52.21875 
Q 50.828125 45.953125 50.828125 35.296875 
Q 50.828125 22.703125 48.234375 14.96875 
Q 45.65625 7.234375 40.5 3 
Q 35.359375 -1.21875 27.484375 -1.21875 
Q 17.140625 -1.21875 11.234375 6.203125 
Q 4.15625 15.140625 4.15625 35.296875 
z
M 13.1875 35.296875 
Q 13.1875 17.671875 17.3125 11.828125 
Q 21.4375 6 27.484375 6 
Q 33.546875 6 37.671875 11.859375 
Q 41.796875 17.71875 41.796875 35.296875 
Q 41.796875 52.984375 37.671875 58.78125 
Q 33.546875 64.59375 27.390625 64.59375 
Q 21.34375 64.59375 17.71875 59.46875 
Q 13.1875 52.9375 13.1875 35.296875 
z
" id="ArialMT-48"/>
      </defs>
      <g style="fill:#262626;" transform="translate(20.891875 280.163491)scale(0.165 -0.165)">
       <use xlink:href="#ArialMT-48"/>
      </g>
     </g>
    </g>
    <g id="ytick_2">
     <g id="text_7">
      <!-- 2 -->
      <defs>
       <path d="M 50.34375 8.453125 
L 50.34375 0 
L 3.03125 0 
Q 2.9375 3.171875 4.046875 6.109375 
Q 5.859375 10.9375 9.828125 15.625 
Q 13.8125 20.3125 21.34375 26.46875 
Q 33.015625 36.03125 37.109375 41.625 
Q 41.21875 47.21875 41.21875 52.203125 
Q 41.21875 57.421875 37.46875 61 
Q 33.734375 64.59375 27.734375 64.59375 
Q 21.390625 64.59375 17.578125 60.78125 
Q 13.765625 56.984375 13.71875 50.25 
L 4.6875 51.171875 
Q 5.609375 61.28125 11.65625 66.578125 
Q 17.71875 71.875 27.9375 71.875 
Q 38.234375 71.875 44.234375 66.15625 
Q 50.25 60.453125 50.25 52 
Q 50.25 47.703125 48.484375 43.546875 
Q 46.734375 39.40625 42.65625 34.8125 
Q 38.578125 30.21875 29.109375 22.21875 
Q 21.1875 15.578125 18.9375 13.203125 
Q 16.703125 10.84375 15.234375 8.453125 
z
" id="ArialMT-50"/>
      </defs>
      <g style="fill:#262626;" transform="translate(20.891875 208.088559)scale(0.165 -0.165)">
       <use xlink:href="#ArialMT-50"/>
      </g>
     </g>
    </g>
    <g id="ytick_3">
     <g id="text_8">
      <!-- 4 -->
      <defs>
       <path d="M 32.328125 0 
L 32.328125 17.140625 
L 1.265625 17.140625 
L 1.265625 25.203125 
L 33.9375 71.578125 
L 41.109375 71.578125 
L 41.109375 25.203125 
L 50.78125 25.203125 
L 50.78125 17.140625 
L 41.109375 17.140625 
L 41.109375 0 
z
M 32.328125 25.203125 
L 32.328125 57.46875 
L 9.90625 25.203125 
z
" id="ArialMT-52"/>
      </defs>
      <g style="fill:#262626;" transform="translate(20.891875 136.013628)scale(0.165 -0.165)">
       <use xlink:href="#ArialMT-52"/>
      </g>
     </g>
    </g>
    <g id="ytick_4">
     <g id="text_9">
      <!-- 6 -->
      <defs>
       <path d="M 49.75 54.046875 
L 41.015625 53.375 
Q 39.84375 58.546875 37.703125 60.890625 
Q 34.125 64.65625 28.90625 64.65625 
Q 24.703125 64.65625 21.53125 62.3125 
Q 17.390625 59.28125 14.984375 53.46875 
Q 12.59375 47.65625 12.5 36.921875 
Q 15.671875 41.75 20.265625 44.09375 
Q 24.859375 46.4375 29.890625 46.4375 
Q 38.671875 46.4375 44.84375 39.96875 
Q 51.03125 33.5 51.03125 23.25 
Q 51.03125 16.5 48.125 10.71875 
Q 45.21875 4.9375 40.140625 1.859375 
Q 35.0625 -1.21875 28.609375 -1.21875 
Q 17.625 -1.21875 10.6875 6.859375 
Q 3.765625 14.9375 3.765625 33.5 
Q 3.765625 54.25 11.421875 63.671875 
Q 18.109375 71.875 29.4375 71.875 
Q 37.890625 71.875 43.28125 67.140625 
Q 48.6875 62.40625 49.75 54.046875 
z
M 13.875 23.1875 
Q 13.875 18.65625 15.796875 14.5 
Q 17.71875 10.359375 21.1875 8.171875 
Q 24.65625 6 28.46875 6 
Q 34.03125 6 38.03125 10.484375 
Q 42.046875 14.984375 42.046875 22.703125 
Q 42.046875 30.125 38.078125 34.390625 
Q 34.125 38.671875 28.125 38.671875 
Q 22.171875 38.671875 18.015625 34.390625 
Q 13.875 30.125 13.875 23.1875 
z
" id="ArialMT-54"/>
      </defs>
      <g style="fill:#262626;" transform="translate(20.891875 63.938696)scale(0.165 -0.165)">
       <use xlink:href="#ArialMT-54"/>
      </g>
     </g>
    </g>
    <g id="text_10">
     <!-- Yield (t/ha) -->
     <defs>
      <path d="M 27.875 0 
L 27.875 30.328125 
L 0.296875 71.578125 
L 11.8125 71.578125 
L 25.921875 50 
Q 29.828125 43.953125 33.203125 37.890625 
Q 36.421875 43.5 41.015625 50.53125 
L 54.890625 71.578125 
L 65.921875 71.578125 
L 37.359375 30.328125 
L 37.359375 0 
z
" id="ArialMT-89"/>
      <path d="M 6.390625 0 
L 6.390625 71.578125 
L 15.1875 71.578125 
L 15.1875 0 
z
" id="ArialMT-108"/>
      <path d="M 23.390625 -21.046875 
Q 16.109375 -11.859375 11.078125 0.4375 
Q 6.0625 12.75 6.0625 25.921875 
Q 6.0625 37.546875 9.8125 48.1875 
Q 14.203125 60.546875 23.390625 72.796875 
L 29.6875 72.796875 
Q 23.78125 62.640625 21.875 58.296875 
Q 18.890625 51.5625 17.1875 44.234375 
Q 15.09375 35.109375 15.09375 25.875 
Q 15.09375 2.390625 29.6875 -21.046875 
z
" id="ArialMT-40"/>
      <path d="M 0 -1.21875 
L 20.75 72.796875 
L 27.78125 72.796875 
L 7.078125 -1.21875 
z
" id="ArialMT-47"/>
      <path d="M 12.359375 -21.046875 
L 6.0625 -21.046875 
Q 20.65625 2.390625 20.65625 25.875 
Q 20.65625 35.0625 18.5625 44.09375 
Q 16.890625 51.421875 13.921875 58.15625 
Q 12.015625 62.546875 6.0625 72.796875 
L 12.359375 72.796875 
Q 21.53125 60.546875 25.921875 48.1875 
Q 29.6875 37.546875 29.6875 25.921875 
Q 29.6875 12.75 24.625 0.4375 
Q 19.578125 -11.859375 12.359375 -21.046875 
z
" id="ArialMT-41"/>
     </defs>
     <g style="fill:#262626;" transform="translate(13.103438 202.028438)rotate(-90)scale(0.18 -0.18)">
      <use xlink:href="#ArialMT-89"/>
      <use x="66.652344" xlink:href="#ArialMT-105"/>
      <use x="88.869141" xlink:href="#ArialMT-101"/>
      <use x="144.484375" xlink:href="#ArialMT-108"/>
      <use x="166.701172" xlink:href="#ArialMT-100"/>
      <use x="222.316406" xlink:href="#ArialMT-32"/>
      <use x="250.099609" xlink:href="#ArialMT-40"/>
      <use x="283.400391" xlink:href="#ArialMT-116"/>
      <use x="311.183594" xlink:href="#ArialMT-47"/>
      <use x="338.966797" xlink:href="#ArialMT-104"/>
      <use x="394.582031" xlink:href="#ArialMT-97"/>
      <use x="450.197266" xlink:href="#ArialMT-41"/>
     </g>
    </g>
   </g>
   <g id="PolyCollection_1">
    <defs>
     <path d="M 59.183442 -217.233014 
L 58.963805 -217.233014 
L 58.919511 -219.24118 
L 58.863605 -221.249345 
L 58.79668 -223.257511 
L 58.721907 -225.265677 
L 58.644687 -227.273843 
L 58.57094 -229.282008 
L 58.504907 -231.290174 
L 58.44795 -233.29834 
L 58.399335 -235.306505 
L 58.358652 -237.314671 
L 58.328215 -239.322837 
L 58.313664 -241.331003 
L 58.322092 -243.339168 
L 58.358602 -245.347334 
L 58.423173 -247.3555 
L 58.509515 -249.363666 
L 58.606478 -251.371831 
L 58.701326 -253.379997 
L 58.783387 -255.388163 
L 58.846644 -257.396328 
L 58.890396 -259.404494 
L 58.918039 -261.41266 
L 58.934755 -263.420826 
L 58.945228 -265.428991 
L 58.952278 -267.437157 
L 58.95667 -269.445323 
L 58.957719 -271.453488 
L 58.954146 -273.461654 
L 58.944796 -275.46982 
L 58.929107 -277.477986 
L 58.907307 -279.486151 
L 58.880212 -281.494317 
L 58.848553 -283.502483 
L 58.812099 -285.510649 
L 58.769175 -287.518814 
L 58.717106 -289.52698 
L 58.653578 -291.535146 
L 58.578139 -293.543311 
L 58.492789 -295.551477 
L 58.400869 -297.559643 
L 58.304318 -299.567809 
L 58.200093 -301.575974 
L 58.076922 -303.58414 
L 57.913636 -305.592306 
L 57.680168 -307.600471 
L 57.342102 -309.608637 
L 56.868964 -311.616803 
L 56.245199 -313.624969 
L 55.481261 -315.633134 
L 54.621103 -317.6413 
L 53.742154 -319.649466 
L 52.945001 -321.657632 
L 52.332944 -323.665797 
L 51.986074 -325.673963 
L 51.93868 -327.682129 
L 52.169344 -329.690294 
L 52.608254 -331.69846 
L 53.158015 -333.706626 
L 53.718145 -335.714792 
L 54.203456 -337.722957 
L 54.55224 -339.731123 
L 54.726758 -341.739289 
L 54.711529 -343.747454 
L 54.513057 -345.75562 
L 54.160452 -347.763786 
L 53.703351 -349.771952 
L 53.203729 -351.780117 
L 52.721194 -353.788283 
L 52.295549 -355.796449 
L 51.933302 -357.804615 
L 51.605093 -359.81278 
L 51.257674 -361.820946 
L 50.837995 -363.829112 
L 50.320394 -365.837277 
L 49.724631 -367.845443 
L 49.115452 -369.853609 
L 48.583198 -371.861775 
L 48.214839 -373.86994 
L 48.069489 -375.878106 
L 48.168521 -377.886272 
L 48.500879 -379.894437 
L 49.035944 -381.902603 
L 49.734868 -383.910769 
L 50.556022 -385.918935 
L 51.456182 -387.9271 
L 52.391385 -389.935266 
L 53.319802 -391.943432 
L 54.205983 -393.951598 
L 55.024334 -395.959763 
L 55.760163 -397.967929 
L 56.408088 -399.976095 
L 56.968921 -401.98426 
L 57.446566 -403.992426 
L 57.846013 -406.000592 
L 58.172665 -408.008758 
L 58.432527 -410.016923 
L 58.632611 -412.025089 
L 58.781065 -414.033255 
L 58.886855 -416.04142 
L 59.260392 -416.04142 
L 59.260392 -416.04142 
L 59.366182 -414.033255 
L 59.514636 -412.025089 
L 59.71472 -410.016923 
L 59.974582 -408.008758 
L 60.301234 -406.000592 
L 60.700681 -403.992426 
L 61.178326 -401.98426 
L 61.739159 -399.976095 
L 62.387084 -397.967929 
L 63.122913 -395.959763 
L 63.941264 -393.951598 
L 64.827445 -391.943432 
L 65.755862 -389.935266 
L 66.691065 -387.9271 
L 67.591224 -385.918935 
L 68.412379 -383.910769 
L 69.111303 -381.902603 
L 69.646368 -379.894437 
L 69.978726 -377.886272 
L 70.077758 -375.878106 
L 69.932408 -373.86994 
L 69.564049 -371.861775 
L 69.031795 -369.853609 
L 68.422616 -367.845443 
L 67.826853 -365.837277 
L 67.309252 -363.829112 
L 66.889573 -361.820946 
L 66.542154 -359.81278 
L 66.213945 -357.804615 
L 65.851698 -355.796449 
L 65.426052 -353.788283 
L 64.943518 -351.780117 
L 64.443896 -349.771952 
L 63.986795 -347.763786 
L 63.63419 -345.75562 
L 63.435718 -343.747454 
L 63.420489 -341.739289 
L 63.595007 -339.731123 
L 63.943791 -337.722957 
L 64.429102 -335.714792 
L 64.989232 -333.706626 
L 65.538993 -331.69846 
L 65.977903 -329.690294 
L 66.208567 -327.682129 
L 66.161172 -325.673963 
L 65.814303 -323.665797 
L 65.202246 -321.657632 
L 64.405093 -319.649466 
L 63.526144 -317.6413 
L 62.665986 -315.633134 
L 61.902048 -313.624969 
L 61.278283 -311.616803 
L 60.805145 -309.608637 
L 60.467079 -307.600471 
L 60.233611 -305.592306 
L 60.070325 -303.58414 
L 59.947154 -301.575974 
L 59.842929 -299.567809 
L 59.746378 -297.559643 
L 59.654458 -295.551477 
L 59.569108 -293.543311 
L 59.493669 -291.535146 
L 59.430141 -289.52698 
L 59.378072 -287.518814 
L 59.335148 -285.510649 
L 59.298694 -283.502483 
L 59.267034 -281.494317 
L 59.23994 -279.486151 
L 59.21814 -277.477986 
L 59.202451 -275.46982 
L 59.1931 -273.461654 
L 59.189528 -271.453488 
L 59.190577 -269.445323 
L 59.194969 -267.437157 
L 59.202019 -265.428991 
L 59.212492 -263.420826 
L 59.229208 -261.41266 
L 59.256851 -259.404494 
L 59.300603 -257.396328 
L 59.36386 -255.388163 
L 59.445921 -253.379997 
L 59.540768 -251.371831 
L 59.637732 -249.363666 
L 59.724074 -247.3555 
L 59.788645 -245.347334 
L 59.825155 -243.339168 
L 59.833583 -241.331003 
L 59.819032 -239.322837 
L 59.788595 -237.314671 
L 59.747912 -235.306505 
L 59.699297 -233.29834 
L 59.64234 -231.290174 
L 59.576307 -229.282008 
L 59.50256 -227.273843 
L 59.42534 -225.265677 
L 59.350567 -223.257511 
L 59.283642 -221.249345 
L 59.227736 -219.24118 
L 59.183442 -217.233014 
z
" id="m35e3c79c44" style="stroke:#444444;stroke-width:1.5;"/>
    </defs>
    <g clip-path="url(#p7b33fa0d46)">
     <use style="fill:#e68193;stroke:#444444;stroke-width:1.5;" x="0" xlink:href="#m35e3c79c44" y="458.815625"/>
    </g>
   </g>
   <g id="PolyCollection_2">
    <defs>
     <path d="M 81.918714 -244.392246 
L 80.245071 -244.392246 
L 80.245482 -245.836122 
L 80.249422 -247.279997 
L 80.256743 -248.723873 
L 80.267233 -250.167749 
L 80.28062 -251.611625 
L 80.296574 -253.055501 
L 80.314712 -254.499377 
L 80.3346 -255.943253 
L 80.355765 -257.387128 
L 80.377693 -258.831004 
L 80.399841 -260.27488 
L 80.421642 -261.718756 
L 80.442513 -263.162632 
L 80.461857 -264.606508 
L 80.479078 -266.050383 
L 80.493576 -267.494259 
L 80.504764 -268.938135 
L 80.512064 -270.382011 
L 80.514918 -271.825887 
L 80.51279 -273.269763 
L 80.505169 -274.713639 
L 80.491575 -276.157514 
L 80.471563 -277.60139 
L 80.444721 -279.045266 
L 80.41068 -280.489142 
L 80.369113 -281.933018 
L 80.319736 -283.376894 
L 80.262315 -284.820769 
L 80.196666 -286.264645 
L 80.122658 -287.708521 
L 80.040215 -289.152397 
L 79.949317 -290.596273 
L 79.850005 -292.040149 
L 79.742379 -293.484025 
L 79.626599 -294.9279 
L 79.502888 -296.371776 
L 79.371529 -297.815652 
L 79.232864 -299.259528 
L 79.087293 -300.703404 
L 78.935267 -302.14728 
L 78.777291 -303.591155 
L 78.613912 -305.035031 
L 78.445717 -306.478907 
L 78.273324 -307.922783 
L 78.097376 -309.366659 
L 77.918531 -310.810535 
L 77.737456 -312.254411 
L 77.554817 -313.698286 
L 77.371268 -315.142162 
L 77.187448 -316.586038 
L 77.003969 -318.029914 
L 76.82141 -319.47379 
L 76.640313 -320.917666 
L 76.461176 -322.361542 
L 76.284452 -323.805417 
L 76.110548 -325.249293 
L 75.939823 -326.693169 
L 75.772593 -328.137045 
L 75.609132 -329.580921 
L 75.449682 -331.024797 
L 75.294456 -332.468672 
L 75.143645 -333.912548 
L 74.997434 -335.356424 
L 74.856004 -336.8003 
L 74.719549 -338.244176 
L 74.588279 -339.688052 
L 74.462437 -341.131928 
L 74.342302 -342.575803 
L 74.228199 -344.019679 
L 74.120505 -345.463555 
L 74.019652 -346.907431 
L 73.926129 -348.351307 
L 73.84048 -349.795183 
L 73.763304 -351.239058 
L 73.695248 -352.682934 
L 73.636996 -354.12681 
L 73.589264 -355.570686 
L 73.552782 -357.014562 
L 73.528283 -358.458438 
L 73.516486 -359.902314 
L 73.518078 -361.346189 
L 73.533698 -362.790065 
L 73.563917 -364.233941 
L 73.609222 -365.677817 
L 73.669999 -367.121693 
L 73.746516 -368.565569 
L 73.838912 -370.009444 
L 73.947183 -371.45332 
L 74.071176 -372.897196 
L 74.210581 -374.341072 
L 74.364929 -375.784948 
L 74.533594 -377.228824 
L 74.715795 -378.6727 
L 74.910603 -380.116575 
L 75.116955 -381.560451 
L 75.333664 -383.004327 
L 75.559434 -384.448203 
L 75.792883 -385.892079 
L 76.032558 -387.335955 
L 86.131226 -387.335955 
L 86.131226 -387.335955 
L 86.370901 -385.892079 
L 86.60435 -384.448203 
L 86.830121 -383.004327 
L 87.046829 -381.560451 
L 87.253181 -380.116575 
L 87.44799 -378.6727 
L 87.63019 -377.228824 
L 87.798855 -375.784948 
L 87.953204 -374.341072 
L 88.092609 -372.897196 
L 88.216602 -371.45332 
L 88.324873 -370.009444 
L 88.417269 -368.565569 
L 88.493786 -367.121693 
L 88.554562 -365.677817 
L 88.599868 -364.233941 
L 88.630087 -362.790065 
L 88.645706 -361.346189 
L 88.647299 -359.902314 
L 88.635501 -358.458438 
L 88.611003 -357.014562 
L 88.57452 -355.570686 
L 88.526788 -354.12681 
L 88.468537 -352.682934 
L 88.40048 -351.239058 
L 88.323305 -349.795183 
L 88.237656 -348.351307 
L 88.144132 -346.907431 
L 88.043279 -345.463555 
L 87.935586 -344.019679 
L 87.821483 -342.575803 
L 87.701348 -341.131928 
L 87.575506 -339.688052 
L 87.444236 -338.244176 
L 87.30778 -336.8003 
L 87.166351 -335.356424 
L 87.020139 -333.912548 
L 86.869329 -332.468672 
L 86.714102 -331.024797 
L 86.554652 -329.580921 
L 86.391192 -328.137045 
L 86.223962 -326.693169 
L 86.053237 -325.249293 
L 85.879332 -323.805417 
L 85.702609 -322.361542 
L 85.523472 -320.917666 
L 85.342374 -319.47379 
L 85.159815 -318.029914 
L 84.976336 -316.586038 
L 84.792516 -315.142162 
L 84.608968 -313.698286 
L 84.426328 -312.254411 
L 84.245253 -310.810535 
L 84.066409 -309.366659 
L 83.89046 -307.922783 
L 83.718067 -306.478907 
L 83.549872 -305.035031 
L 83.386493 -303.591155 
L 83.228517 -302.14728 
L 83.076492 -300.703404 
L 82.93092 -299.259528 
L 82.792255 -297.815652 
L 82.660896 -296.371776 
L 82.537185 -294.9279 
L 82.421406 -293.484025 
L 82.313779 -292.040149 
L 82.214467 -290.596273 
L 82.12357 -289.152397 
L 82.041126 -287.708521 
L 81.967118 -286.264645 
L 81.90147 -284.820769 
L 81.844049 -283.376894 
L 81.794672 -281.933018 
L 81.753104 -280.489142 
L 81.719063 -279.045266 
L 81.692222 -277.60139 
L 81.672209 -276.157514 
L 81.658616 -274.713639 
L 81.650995 -273.269763 
L 81.648867 -271.825887 
L 81.651721 -270.382011 
L 81.659021 -268.938135 
L 81.670208 -267.494259 
L 81.684707 -266.050383 
L 81.701927 -264.606508 
L 81.721272 -263.162632 
L 81.742142 -261.718756 
L 81.763943 -260.27488 
L 81.786092 -258.831004 
L 81.808019 -257.387128 
L 81.829184 -255.943253 
L 81.849073 -254.499377 
L 81.867211 -253.055501 
L 81.883165 -251.611625 
L 81.896552 -250.167749 
L 81.907042 -248.723873 
L 81.914363 -247.279997 
L 81.918303 -245.836122 
L 81.918714 -244.392246 
z
" id="m05791ab962" style="stroke:#444444;stroke-width:1.5;"/>
    </defs>
    <g clip-path="url(#p7b33fa0d46)">
     <use style="fill:#459e97;stroke:#444444;stroke-width:1.5;" x="0" xlink:href="#m05791ab962" y="458.815625"/>
    </g>
   </g>
   <g id="PolyCollection_3">
    <defs>
     <path d="M 114.123489 -198.699461 
L 114.065102 -198.699461 
L 114.060688 -200.126763 
L 114.054013 -201.554065 
L 114.041578 -202.981367 
L 114.019412 -204.408669 
L 113.984366 -205.835971 
L 113.935498 -207.263273 
L 113.875008 -208.690575 
L 113.808139 -210.117877 
L 113.741699 -211.545179 
L 113.681607 -212.972481 
L 113.630678 -214.399784 
L 113.588116 -215.827086 
L 113.551247 -217.254388 
L 113.518576 -218.68169 
L 113.492202 -220.108992 
L 113.477945 -221.536294 
L 113.482954 -222.963596 
L 113.512084 -224.390898 
L 113.565019 -225.8182 
L 113.635611 -227.245502 
L 113.713694 -228.672804 
L 113.788408 -230.100106 
L 113.851495 -231.527408 
L 113.89923 -232.954711 
L 113.932415 -234.382013 
L 113.954762 -235.809315 
L 113.970603 -237.236617 
L 113.982991 -238.663919 
L 113.992852 -240.091221 
L 113.999182 -241.518523 
L 113.999814 -242.945825 
L 113.992238 -244.373127 
L 113.97425 -245.800429 
L 113.944493 -247.227731 
L 113.902939 -248.655033 
L 113.851147 -250.082336 
L 113.791951 -251.509638 
L 113.728354 -252.93694 
L 113.661614 -254.364242 
L 113.58878 -255.791544 
L 113.500255 -257.218846 
L 113.378342 -258.646148 
L 113.197955 -260.07345 
L 112.930439 -261.500752 
L 112.550728 -262.928054 
L 112.046831 -264.355356 
L 111.429424 -265.782658 
L 110.738216 -267.20996 
L 110.041411 -268.637263 
L 109.425486 -270.064565 
L 108.975637 -271.491867 
L 108.752152 -272.919169 
L 108.772143 -274.346471 
L 109.00565 -275.773773 
L 109.388622 -277.201075 
L 109.846229 -278.628377 
L 110.314648 -280.055679 
L 110.751817 -281.482981 
L 111.135354 -282.910283 
L 111.453095 -284.337585 
L 111.693792 -285.764888 
L 111.842592 -287.19219 
L 111.881472 -288.619492 
L 111.792138 -290.046794 
L 111.558827 -291.474096 
L 111.169869 -292.901398 
L 110.618284 -294.3287 
L 109.902863 -295.756002 
L 109.031485 -297.183304 
L 108.027333 -298.610606 
L 106.936068 -300.037908 
L 105.829423 -301.46521 
L 104.800503 -302.892512 
L 103.949245 -304.319815 
L 103.361636 -305.747117 
L 103.090161 -307.174419 
L 103.143056 -308.601721 
L 103.485979 -310.029023 
L 104.054295 -311.456325 
L 104.770576 -312.883627 
L 105.561688 -314.310929 
L 106.371671 -315.738231 
L 107.168231 -317.165533 
L 107.941511 -318.592835 
L 108.695434 -320.020137 
L 109.435045 -321.44744 
L 110.156083 -322.874742 
L 110.84228 -324.302044 
L 111.471065 -325.729346 
L 112.022915 -327.156648 
L 112.488034 -328.58395 
L 112.8673 -330.011252 
L 113.168935 -331.438554 
L 113.40441 -332.865856 
L 113.585763 -334.293158 
L 113.724334 -335.72046 
L 113.829982 -337.147762 
L 113.910445 -338.575064 
L 113.971165 -340.002367 
L 114.217426 -340.002367 
L 114.217426 -340.002367 
L 114.278146 -338.575064 
L 114.358609 -337.147762 
L 114.464257 -335.72046 
L 114.602828 -334.293158 
L 114.784181 -332.865856 
L 115.019656 -331.438554 
L 115.321291 -330.011252 
L 115.700557 -328.58395 
L 116.165676 -327.156648 
L 116.717526 -325.729346 
L 117.346311 -324.302044 
L 118.032508 -322.874742 
L 118.753546 -321.44744 
L 119.493157 -320.020137 
L 120.24708 -318.592835 
L 121.02036 -317.165533 
L 121.81692 -315.738231 
L 122.626903 -314.310929 
L 123.418015 -312.883627 
L 124.134296 -311.456325 
L 124.702612 -310.029023 
L 125.045534 -308.601721 
L 125.09843 -307.174419 
L 124.826955 -305.747117 
L 124.239346 -304.319815 
L 123.388088 -302.892512 
L 122.359168 -301.46521 
L 121.252523 -300.037908 
L 120.161258 -298.610606 
L 119.157106 -297.183304 
L 118.285728 -295.756002 
L 117.570307 -294.3287 
L 117.018722 -292.901398 
L 116.629764 -291.474096 
L 116.396453 -290.046794 
L 116.307118 -288.619492 
L 116.345999 -287.19219 
L 116.494799 -285.764888 
L 116.735496 -284.337585 
L 117.053237 -282.910283 
L 117.436774 -281.482981 
L 117.873943 -280.055679 
L 118.342362 -278.628377 
L 118.799969 -277.201075 
L 119.182941 -275.773773 
L 119.416448 -274.346471 
L 119.436439 -272.919169 
L 119.212954 -271.491867 
L 118.763105 -270.064565 
L 118.14718 -268.637263 
L 117.450375 -267.20996 
L 116.759167 -265.782658 
L 116.14176 -264.355356 
L 115.637863 -262.928054 
L 115.258152 -261.500752 
L 114.990636 -260.07345 
L 114.810249 -258.646148 
L 114.688336 -257.218846 
L 114.599811 -255.791544 
L 114.526977 -254.364242 
L 114.460237 -252.93694 
L 114.39664 -251.509638 
L 114.337443 -250.082336 
L 114.285652 -248.655033 
L 114.244098 -247.227731 
L 114.214341 -245.800429 
L 114.196353 -244.373127 
L 114.188777 -242.945825 
L 114.189409 -241.518523 
L 114.195739 -240.091221 
L 114.2056 -238.663919 
L 114.217988 -237.236617 
L 114.233829 -235.809315 
L 114.256176 -234.382013 
L 114.289361 -232.954711 
L 114.337096 -231.527408 
L 114.400183 -230.100106 
L 114.474897 -228.672804 
L 114.55298 -227.245502 
L 114.623572 -225.8182 
L 114.676507 -224.390898 
L 114.705637 -222.963596 
L 114.710646 -221.536294 
L 114.696389 -220.108992 
L 114.670015 -218.68169 
L 114.637344 -217.254388 
L 114.600475 -215.827086 
L 114.557913 -214.399784 
L 114.506984 -212.972481 
L 114.446892 -211.545179 
L 114.380452 -210.117877 
L 114.313583 -208.690575 
L 114.253093 -207.263273 
L 114.204225 -205.835971 
L 114.169179 -204.408669 
L 114.147013 -202.981367 
L 114.134578 -201.554065 
L 114.127903 -200.126763 
L 114.123489 -198.699461 
z
" id="ma1b3d121ec" style="stroke:#444444;stroke-width:1.5;"/>
    </defs>
    <g clip-path="url(#p7b33fa0d46)">
     <use style="fill:#e68193;stroke:#444444;stroke-width:1.5;" x="0" xlink:href="#ma1b3d121ec" y="458.815625"/>
    </g>
   </g>
   <g id="PolyCollection_4">
    <defs>
     <path d="M 136.79347 -223.129157 
L 135.411658 -223.129157 
L 135.409871 -224.139506 
L 135.41055 -225.149855 
L 135.41353 -226.160205 
L 135.418594 -227.170554 
L 135.425477 -228.180903 
L 135.433864 -229.191252 
L 135.443396 -230.201601 
L 135.453679 -231.21195 
L 135.464283 -232.2223 
L 135.474751 -233.232649 
L 135.484607 -234.242998 
L 135.493362 -235.253347 
L 135.500518 -236.263696 
L 135.505582 -237.274045 
L 135.508064 -238.284394 
L 135.507493 -239.294744 
L 135.503415 -240.305093 
L 135.495407 -241.315442 
L 135.483077 -242.325791 
L 135.466069 -243.33614 
L 135.444073 -244.346489 
L 135.416822 -245.356839 
L 135.384098 -246.367188 
L 135.345737 -247.377537 
L 135.301624 -248.387886 
L 135.251701 -249.398235 
L 135.195963 -250.408584 
L 135.134456 -251.418934 
L 135.06728 -252.429283 
L 134.994585 -253.439632 
L 134.916567 -254.449981 
L 134.833465 -255.46033 
L 134.745557 -256.470679 
L 134.653157 -257.481028 
L 134.556606 -258.491378 
L 134.456271 -259.501727 
L 134.352532 -260.512076 
L 134.245784 -261.522425 
L 134.136422 -262.532774 
L 134.024838 -263.543123 
L 133.911416 -264.553473 
L 133.79652 -265.563822 
L 133.680493 -266.574171 
L 133.563647 -267.58452 
L 133.446261 -268.594869 
L 133.328575 -269.605218 
L 133.210787 -270.615568 
L 133.09305 -271.625917 
L 132.975473 -272.636266 
L 132.858121 -273.646615 
L 132.741015 -274.656964 
L 132.624139 -275.667313 
L 132.507442 -276.677662 
L 132.390848 -277.688012 
L 132.274259 -278.698361 
L 132.15757 -279.70871 
L 132.040676 -280.719059 
L 131.923482 -281.729408 
L 131.80592 -282.739757 
L 131.687955 -283.750107 
L 131.569602 -284.760456 
L 131.450934 -285.770805 
L 131.332094 -286.781154 
L 131.213307 -287.791503 
L 131.094884 -288.801852 
L 130.977228 -289.812202 
L 130.860842 -290.822551 
L 130.746325 -291.8329 
L 130.634375 -292.843249 
L 130.52578 -293.853598 
L 130.421416 -294.863947 
L 130.322232 -295.874297 
L 130.229237 -296.884646 
L 130.14349 -297.894995 
L 130.066076 -298.905344 
L 129.998088 -299.915693 
L 129.940607 -300.926042 
L 129.894681 -301.936391 
L 129.861299 -302.946741 
L 129.84137 -303.95709 
L 129.835705 -304.967439 
L 129.844991 -305.977788 
L 129.86978 -306.988137 
L 129.910467 -307.998486 
L 129.967281 -309.008836 
L 130.040276 -310.019185 
L 130.129324 -311.029534 
L 130.234114 -312.039883 
L 130.354155 -313.050232 
L 130.488778 -314.060581 
L 130.63715 -315.070931 
L 130.798286 -316.08128 
L 130.971061 -317.091629 
L 131.154233 -318.101978 
L 131.346463 -319.112327 
L 131.546335 -320.122676 
L 131.75238 -321.133025 
L 131.9631 -322.143375 
L 132.176993 -323.153724 
L 140.028136 -323.153724 
L 140.028136 -323.153724 
L 140.242028 -322.143375 
L 140.452749 -321.133025 
L 140.658794 -320.122676 
L 140.858665 -319.112327 
L 141.050895 -318.101978 
L 141.234068 -317.091629 
L 141.406843 -316.08128 
L 141.567978 -315.070931 
L 141.716351 -314.060581 
L 141.850974 -313.050232 
L 141.971014 -312.039883 
L 142.075805 -311.029534 
L 142.164853 -310.019185 
L 142.237848 -309.008836 
L 142.294662 -307.998486 
L 142.335349 -306.988137 
L 142.360137 -305.977788 
L 142.369424 -304.967439 
L 142.363758 -303.95709 
L 142.34383 -302.946741 
L 142.310447 -301.936391 
L 142.264521 -300.926042 
L 142.207041 -299.915693 
L 142.139053 -298.905344 
L 142.061638 -297.894995 
L 141.975891 -296.884646 
L 141.882897 -295.874297 
L 141.783712 -294.863947 
L 141.679348 -293.853598 
L 141.570754 -292.843249 
L 141.458804 -291.8329 
L 141.344287 -290.822551 
L 141.227901 -289.812202 
L 141.110245 -288.801852 
L 140.991821 -287.791503 
L 140.873034 -286.781154 
L 140.754195 -285.770805 
L 140.635527 -284.760456 
L 140.517174 -283.750107 
L 140.399209 -282.739757 
L 140.281646 -281.729408 
L 140.164453 -280.719059 
L 140.047558 -279.70871 
L 139.930869 -278.698361 
L 139.814281 -277.688012 
L 139.697686 -276.677662 
L 139.58099 -275.667313 
L 139.464114 -274.656964 
L 139.347008 -273.646615 
L 139.229656 -272.636266 
L 139.112079 -271.625917 
L 138.994342 -270.615568 
L 138.876553 -269.605218 
L 138.758867 -268.594869 
L 138.641482 -267.58452 
L 138.524636 -266.574171 
L 138.408609 -265.563822 
L 138.293713 -264.553473 
L 138.18029 -263.543123 
L 138.068707 -262.532774 
L 137.959344 -261.522425 
L 137.852596 -260.512076 
L 137.748858 -259.501727 
L 137.648522 -258.491378 
L 137.551972 -257.481028 
L 137.459572 -256.470679 
L 137.371664 -255.46033 
L 137.288562 -254.449981 
L 137.210543 -253.439632 
L 137.137848 -252.429283 
L 137.070673 -251.418934 
L 137.009166 -250.408584 
L 136.953427 -249.398235 
L 136.903504 -248.387886 
L 136.859392 -247.377537 
L 136.82103 -246.367188 
L 136.788307 -245.356839 
L 136.761056 -244.346489 
L 136.739059 -243.33614 
L 136.722052 -242.325791 
L 136.709721 -241.315442 
L 136.701713 -240.305093 
L 136.697636 -239.294744 
L 136.697064 -238.284394 
L 136.699547 -237.274045 
L 136.70461 -236.263696 
L 136.711767 -235.253347 
L 136.720522 -234.242998 
L 136.730378 -233.232649 
L 136.740846 -232.2223 
L 136.751449 -231.21195 
L 136.761732 -230.201601 
L 136.771265 -229.191252 
L 136.779651 -228.180903 
L 136.786534 -227.170554 
L 136.791599 -226.160205 
L 136.794579 -225.149855 
L 136.795257 -224.139506 
L 136.79347 -223.129157 
z
" id="m1ccbbdbde7" style="stroke:#444444;stroke-width:1.5;"/>
    </defs>
    <g clip-path="url(#p7b33fa0d46)">
     <use style="fill:#459e97;stroke:#444444;stroke-width:1.5;" x="0" xlink:href="#m1ccbbdbde7" y="458.815625"/>
    </g>
   </g>
   <g id="PolyCollection_5">
    <defs>
     <path d="M 169.191929 -217.366868 
L 169.038006 -217.366868 
L 169.010134 -219.174721 
L 168.975403 -220.982575 
L 168.933878 -222.790428 
L 168.886937 -224.598282 
L 168.837281 -226.406135 
L 168.788305 -228.213989 
L 168.743013 -230.021842 
L 168.703063 -231.829696 
L 168.668517 -233.637549 
L 168.638538 -235.445403 
L 168.612687 -237.253256 
L 168.592088 -239.06111 
L 168.579736 -240.868963 
L 168.579701 -242.676817 
L 168.595543 -244.48467 
L 168.628666 -246.292524 
L 168.677341 -248.100377 
L 168.736812 -249.908231 
L 168.800399 -251.716084 
L 168.861177 -253.523938 
L 168.913596 -255.331791 
L 168.954563 -257.139645 
L 168.983671 -258.947498 
L 169.002639 -260.755352 
L 169.014193 -262.563205 
L 169.0208 -264.371059 
L 169.023577 -266.178912 
L 169.021479 -267.986766 
L 169.01067 -269.794619 
L 168.983997 -271.602473 
L 168.930713 -273.410326 
L 168.837005 -275.21818 
L 168.687939 -277.026033 
L 168.470996 -278.833887 
L 168.180314 -280.64174 
L 167.81996 -282.449594 
L 167.40456 -284.257448 
L 166.956971 -286.065301 
L 166.504503 -287.873155 
L 166.076057 -289.681008 
L 165.701407 -291.488862 
L 165.41143 -293.296715 
L 165.236359 -295.104569 
L 165.200065 -296.912422 
L 165.311645 -298.720276 
L 165.558694 -300.528129 
L 165.906849 -302.335983 
L 166.306971 -304.143836 
L 166.707008 -305.95169 
L 167.063288 -307.759543 
L 167.347013 -309.567397 
L 167.544893 -311.37525 
L 167.655794 -313.183104 
L 167.686257 -314.990957 
L 167.647074 -316.798811 
L 167.55154 -318.606664 
L 167.414764 -320.414518 
L 167.252893 -322.222371 
L 167.08146 -324.030225 
L 166.912868 -325.838078 
L 166.753805 -327.645932 
L 166.603608 -329.453785 
L 166.454227 -331.261639 
L 166.291854 -333.069492 
L 166.099836 -334.877346 
L 165.862251 -336.685199 
L 165.567208 -338.493053 
L 165.208722 -340.300906 
L 164.786144 -342.10876 
L 164.301048 -343.916613 
L 163.752956 -345.724467 
L 163.136542 -347.53232 
L 162.443175 -349.340174 
L 161.668441 -351.148027 
L 160.824648 -352.955881 
L 159.954084 -354.763735 
L 159.136178 -356.571588 
L 158.481675 -358.379442 
L 158.110833 -360.187295 
L 158.12012 -361.995149 
L 158.549427 -363.803002 
L 159.364477 -365.610856 
L 160.46375 -367.418709 
L 161.707961 -369.226563 
L 162.959287 -371.034416 
L 164.113832 -372.84227 
L 165.116033 -374.650123 
L 165.953845 -376.457977 
L 166.642249 -378.26583 
L 167.205399 -380.073684 
L 167.66482 -381.881537 
L 168.035607 -383.689391 
L 168.328214 -385.497244 
L 168.551935 -387.305098 
L 168.717187 -389.112951 
L 168.835691 -390.920805 
L 168.919201 -392.728658 
L 168.977963 -394.536512 
L 169.019789 -396.344365 
L 169.210146 -396.344365 
L 169.210146 -396.344365 
L 169.251972 -394.536512 
L 169.310734 -392.728658 
L 169.394244 -390.920805 
L 169.512748 -389.112951 
L 169.678 -387.305098 
L 169.901721 -385.497244 
L 170.194328 -383.689391 
L 170.565115 -381.881537 
L 171.024536 -380.073684 
L 171.587686 -378.26583 
L 172.27609 -376.457977 
L 173.113902 -374.650123 
L 174.116102 -372.84227 
L 175.270648 -371.034416 
L 176.521973 -369.226563 
L 177.766185 -367.418709 
L 178.865458 -365.610856 
L 179.680508 -363.803002 
L 180.109815 -361.995149 
L 180.119102 -360.187295 
L 179.74826 -358.379442 
L 179.093757 -356.571588 
L 178.275851 -354.763735 
L 177.405287 -352.955881 
L 176.561494 -351.148027 
L 175.78676 -349.340174 
L 175.093393 -347.53232 
L 174.476979 -345.724467 
L 173.928887 -343.916613 
L 173.443791 -342.10876 
L 173.021213 -340.300906 
L 172.662727 -338.493053 
L 172.367684 -336.685199 
L 172.130099 -334.877346 
L 171.938081 -333.069492 
L 171.775708 -331.261639 
L 171.626327 -329.453785 
L 171.47613 -327.645932 
L 171.317067 -325.838078 
L 171.148475 -324.030225 
L 170.977042 -322.222371 
L 170.815171 -320.414518 
L 170.678395 -318.606664 
L 170.582861 -316.798811 
L 170.543678 -314.990957 
L 170.574141 -313.183104 
L 170.685042 -311.37525 
L 170.882922 -309.567397 
L 171.166646 -307.759543 
L 171.522927 -305.95169 
L 171.922964 -304.143836 
L 172.323086 -302.335983 
L 172.671241 -300.528129 
L 172.91829 -298.720276 
L 173.02987 -296.912422 
L 172.993576 -295.104569 
L 172.818505 -293.296715 
L 172.528528 -291.488862 
L 172.153878 -289.681008 
L 171.725432 -287.873155 
L 171.272964 -286.065301 
L 170.825375 -284.257448 
L 170.409975 -282.449594 
L 170.049621 -280.64174 
L 169.758939 -278.833887 
L 169.541996 -277.026033 
L 169.39293 -275.21818 
L 169.299222 -273.410326 
L 169.245938 -271.602473 
L 169.219265 -269.794619 
L 169.208456 -267.986766 
L 169.206358 -266.178912 
L 169.209135 -264.371059 
L 169.215742 -262.563205 
L 169.227296 -260.755352 
L 169.246264 -258.947498 
L 169.275372 -257.139645 
L 169.316339 -255.331791 
L 169.368758 -253.523938 
L 169.429536 -251.716084 
L 169.493123 -249.908231 
L 169.552594 -248.100377 
L 169.601269 -246.292524 
L 169.634392 -244.48467 
L 169.650234 -242.676817 
L 169.650199 -240.868963 
L 169.637847 -239.06111 
L 169.617248 -237.253256 
L 169.591397 -235.445403 
L 169.561418 -233.637549 
L 169.526872 -231.829696 
L 169.486922 -230.021842 
L 169.44163 -228.213989 
L 169.392654 -226.406135 
L 169.342998 -224.598282 
L 169.296057 -222.790428 
L 169.254532 -220.982575 
L 169.219801 -219.174721 
L 169.191929 -217.366868 
z
" id="m7845d8b176" style="stroke:#444444;stroke-width:1.5;"/>
    </defs>
    <g clip-path="url(#p7b33fa0d46)">
     <use style="fill:#e68193;stroke:#444444;stroke-width:1.5;" x="0" xlink:href="#m7845d8b176" y="458.815625"/>
    </g>
   </g>
   <g id="PolyCollection_6">
    <defs>
     <path d="M 191.787413 -244.38854 
L 190.45906 -244.38854 
L 190.456812 -245.63247 
L 190.45671 -246.876399 
L 190.458622 -248.120329 
L 190.462375 -249.364258 
L 190.467759 -250.608188 
L 190.474528 -251.852117 
L 190.482406 -253.096047 
L 190.491087 -254.339976 
L 190.500243 -255.583906 
L 190.509528 -256.827835 
L 190.518586 -258.071765 
L 190.527053 -259.315695 
L 190.534564 -260.559624 
L 190.54076 -261.803554 
L 190.545293 -263.047483 
L 190.54783 -264.291413 
L 190.54806 -265.535342 
L 190.545695 -266.779272 
L 190.540475 -268.023201 
L 190.532174 -269.267131 
L 190.520596 -270.51106 
L 190.505582 -271.75499 
L 190.487007 -272.998919 
L 190.464781 -274.242849 
L 190.438849 -275.486778 
L 190.409188 -276.730708 
L 190.375804 -277.974637 
L 190.338731 -279.218567 
L 190.298027 -280.462496 
L 190.253767 -281.706426 
L 190.206044 -282.950355 
L 190.154961 -284.194285 
L 190.100626 -285.438214 
L 190.04315 -286.682144 
L 189.98264 -287.926073 
L 189.919197 -289.170003 
L 189.85291 -290.413932 
L 189.783854 -291.657862 
L 189.712088 -292.901791 
L 189.63765 -294.145721 
L 189.560557 -295.38965 
L 189.480807 -296.63358 
L 189.398374 -297.877509 
L 189.313211 -299.121439 
L 189.225254 -300.365368 
L 189.134421 -301.609298 
L 189.040618 -302.853227 
L 188.94374 -304.097157 
L 188.843679 -305.341087 
L 188.740324 -306.585016 
L 188.633574 -307.828946 
L 188.523335 -309.072875 
L 188.409534 -310.316805 
L 188.29212 -311.560734 
L 188.171072 -312.804664 
L 188.046406 -314.048593 
L 187.918177 -315.292523 
L 187.786488 -316.536452 
L 187.651494 -317.780382 
L 187.513406 -319.024311 
L 187.372492 -320.268241 
L 187.229086 -321.51217 
L 187.083581 -322.7561 
L 186.936438 -324.000029 
L 186.788183 -325.243959 
L 186.639403 -326.487888 
L 186.490751 -327.731818 
L 186.342934 -328.975747 
L 186.196718 -330.219677 
L 186.052915 -331.463606 
L 185.912383 -332.707536 
L 185.776016 -333.951465 
L 185.644737 -335.195395 
L 185.519487 -336.439324 
L 185.40122 -337.683254 
L 185.290889 -338.927183 
L 185.189438 -340.171113 
L 185.097788 -341.415042 
L 185.016828 -342.658972 
L 184.947403 -343.902901 
L 184.890303 -345.146831 
L 184.84625 -346.39076 
L 184.815887 -347.63469 
L 184.799771 -348.87862 
L 184.79836 -350.122549 
L 184.812003 -351.366479 
L 184.840937 -352.610408 
L 184.885277 -353.854338 
L 184.945012 -355.098267 
L 185.020002 -356.342197 
L 185.109976 -357.586126 
L 185.214531 -358.830056 
L 185.33314 -360.073985 
L 185.465146 -361.317915 
L 185.609778 -362.561844 
L 185.766153 -363.805774 
L 185.933289 -365.049703 
L 186.110113 -366.293633 
L 186.295477 -367.537562 
L 195.950996 -367.537562 
L 195.950996 -367.537562 
L 196.13636 -366.293633 
L 196.313184 -365.049703 
L 196.480319 -363.805774 
L 196.636695 -362.561844 
L 196.781327 -361.317915 
L 196.913333 -360.073985 
L 197.031941 -358.830056 
L 197.136497 -357.586126 
L 197.22647 -356.342197 
L 197.30146 -355.098267 
L 197.361195 -353.854338 
L 197.405535 -352.610408 
L 197.43447 -351.366479 
L 197.448113 -350.122549 
L 197.446701 -348.87862 
L 197.430585 -347.63469 
L 197.400223 -346.39076 
L 197.356169 -345.146831 
L 197.299069 -343.902901 
L 197.229645 -342.658972 
L 197.148685 -341.415042 
L 197.057035 -340.171113 
L 196.955583 -338.927183 
L 196.845252 -337.683254 
L 196.726986 -336.439324 
L 196.601736 -335.195395 
L 196.470456 -333.951465 
L 196.33409 -332.707536 
L 196.193558 -331.463606 
L 196.049755 -330.219677 
L 195.903538 -328.975747 
L 195.755722 -327.731818 
L 195.607069 -326.487888 
L 195.45829 -325.243959 
L 195.310034 -324.000029 
L 195.162892 -322.7561 
L 195.017387 -321.51217 
L 194.87398 -320.268241 
L 194.733067 -319.024311 
L 194.594979 -317.780382 
L 194.459985 -316.536452 
L 194.328296 -315.292523 
L 194.200067 -314.048593 
L 194.0754 -312.804664 
L 193.954352 -311.560734 
L 193.836938 -310.316805 
L 193.723138 -309.072875 
L 193.612899 -307.828946 
L 193.506148 -306.585016 
L 193.402794 -305.341087 
L 193.302732 -304.097157 
L 193.205854 -302.853227 
L 193.112051 -301.609298 
L 193.021219 -300.365368 
L 192.933262 -299.121439 
L 192.848099 -297.877509 
L 192.765665 -296.63358 
L 192.685915 -295.38965 
L 192.608823 -294.145721 
L 192.534385 -292.901791 
L 192.462618 -291.657862 
L 192.393563 -290.413932 
L 192.327276 -289.170003 
L 192.263833 -287.926073 
L 192.203323 -286.682144 
L 192.145846 -285.438214 
L 192.091512 -284.194285 
L 192.040428 -282.950355 
L 191.992705 -281.706426 
L 191.948446 -280.462496 
L 191.907741 -279.218567 
L 191.870668 -277.974637 
L 191.837285 -276.730708 
L 191.807623 -275.486778 
L 191.781692 -274.242849 
L 191.759466 -272.998919 
L 191.740891 -271.75499 
L 191.725877 -270.51106 
L 191.714299 -269.267131 
L 191.705997 -268.023201 
L 191.700778 -266.779272 
L 191.698413 -265.535342 
L 191.698642 -264.291413 
L 191.70118 -263.047483 
L 191.705713 -261.803554 
L 191.711909 -260.559624 
L 191.71942 -259.315695 
L 191.727886 -258.071765 
L 191.736944 -256.827835 
L 191.74623 -255.583906 
L 191.755386 -254.339976 
L 191.764066 -253.096047 
L 191.771944 -251.852117 
L 191.778714 -250.608188 
L 191.784098 -249.364258 
L 191.787851 -248.120329 
L 191.789762 -246.876399 
L 191.78966 -245.63247 
L 191.787413 -244.38854 
z
" id="m37717fde53" style="stroke:#444444;stroke-width:1.5;"/>
    </defs>
    <g clip-path="url(#p7b33fa0d46)">
     <use style="fill:#459e97;stroke:#444444;stroke-width:1.5;" x="0" xlink:href="#m37717fde53" y="458.815625"/>
    </g>
   </g>
   <g id="PolyCollection_7">
    <defs>
     <path d="M 224.1609 -198.771536 
L 224.110379 -198.771536 
L 224.106215 -200.159056 
L 224.099911 -201.546577 
L 224.08885 -202.934097 
L 224.070139 -204.321618 
L 224.041498 -205.709138 
L 224.002213 -207.096659 
L 223.953759 -208.484179 
L 223.899758 -209.871699 
L 223.84505 -211.25922 
L 223.794132 -212.64674 
L 223.749663 -214.034261 
L 223.711887 -215.421781 
L 223.679451 -216.809302 
L 223.651207 -218.196822 
L 223.627969 -219.584343 
L 223.613099 -220.971863 
L 223.611476 -222.359384 
L 223.627323 -223.746904 
L 223.661998 -225.134424 
L 223.712842 -226.521945 
L 223.773611 -227.909465 
L 223.836225 -229.296986 
L 223.89296 -230.684506 
L 223.938014 -232.072027 
L 223.967665 -233.459547 
L 223.978799 -234.847068 
L 223.966336 -236.234588 
L 223.920783 -237.622108 
L 223.827532 -239.009629 
L 223.669173 -240.397149 
L 223.430784 -241.78467 
L 223.106338 -243.17219 
L 222.703241 -244.559711 
L 222.242808 -245.947231 
L 221.757063 -247.334752 
L 221.284531 -248.722272 
L 220.867352 -250.109793 
L 220.549045 -251.497313 
L 220.369779 -252.884833 
L 220.357254 -254.272354 
L 220.516003 -255.659874 
L 220.821566 -257.047395 
L 221.224653 -258.434915 
L 221.664436 -259.822436 
L 222.08448 -261.209956 
L 222.443953 -262.597477 
L 222.720625 -263.984997 
L 222.907318 -265.372517 
L 223.006089 -266.760038 
L 223.023811 -268.147558 
L 222.970397 -269.535079 
L 222.858834 -270.922599 
L 222.705394 -272.31012 
L 222.528823 -273.69764 
L 222.348262 -275.085161 
L 222.180406 -276.472681 
L 222.036596 -277.860202 
L 221.920192 -279.247722 
L 221.824267 -280.635242 
L 221.729771 -282.022763 
L 221.605037 -283.410283 
L 221.408005 -284.797804 
L 221.092159 -286.185324 
L 220.615656 -287.572845 
L 219.951445 -288.960365 
L 219.095642 -290.347886 
L 218.072601 -291.735406 
L 216.936912 -293.122926 
L 215.772962 -294.510447 
L 214.690977 -295.897967 
L 213.816131 -297.285488 
L 213.267839 -298.673008 
L 213.131505 -300.060529 
L 213.432229 -301.448049 
L 214.123336 -302.83557 
L 215.097661 -304.22309 
L 216.218253 -305.610611 
L 217.3551 -306.998131 
L 218.412656 -308.385651 
L 219.339893 -309.773172 
L 220.12456 -311.160692 
L 220.779449 -312.548213 
L 221.328395 -313.935733 
L 221.79606 -315.323254 
L 222.202086 -316.710774 
L 222.55879 -318.098295 
L 222.871571 -319.485815 
L 223.141236 -320.873335 
L 223.367184 -322.260856 
L 223.550129 -323.648376 
L 223.693421 -325.035897 
L 223.802778 -326.423417 
L 223.885035 -327.810938 
L 223.946763 -329.198458 
L 223.993393 -330.585979 
L 224.028986 -331.973499 
L 224.056429 -333.36102 
L 224.07774 -334.74854 
L 224.094314 -336.13606 
L 224.176965 -336.13606 
L 224.176965 -336.13606 
L 224.193539 -334.74854 
L 224.21485 -333.36102 
L 224.242293 -331.973499 
L 224.277886 -330.585979 
L 224.324516 -329.198458 
L 224.386244 -327.810938 
L 224.468501 -326.423417 
L 224.577858 -325.035897 
L 224.72115 -323.648376 
L 224.904095 -322.260856 
L 225.130043 -320.873335 
L 225.399708 -319.485815 
L 225.712488 -318.098295 
L 226.069193 -316.710774 
L 226.475219 -315.323254 
L 226.942884 -313.935733 
L 227.49183 -312.548213 
L 228.146719 -311.160692 
L 228.931386 -309.773172 
L 229.858623 -308.385651 
L 230.916179 -306.998131 
L 232.053026 -305.610611 
L 233.173618 -304.22309 
L 234.147943 -302.83557 
L 234.83905 -301.448049 
L 235.139774 -300.060529 
L 235.00344 -298.673008 
L 234.455148 -297.285488 
L 233.580302 -295.897967 
L 232.498317 -294.510447 
L 231.334367 -293.122926 
L 230.198678 -291.735406 
L 229.175637 -290.347886 
L 228.319834 -288.960365 
L 227.655623 -287.572845 
L 227.17912 -286.185324 
L 226.863274 -284.797804 
L 226.666242 -283.410283 
L 226.541508 -282.022763 
L 226.447012 -280.635242 
L 226.351086 -279.247722 
L 226.234683 -277.860202 
L 226.090873 -276.472681 
L 225.923017 -275.085161 
L 225.742456 -273.69764 
L 225.565885 -272.31012 
L 225.412445 -270.922599 
L 225.300882 -269.535079 
L 225.247468 -268.147558 
L 225.26519 -266.760038 
L 225.363961 -265.372517 
L 225.550654 -263.984997 
L 225.827326 -262.597477 
L 226.186799 -261.209956 
L 226.606843 -259.822436 
L 227.046626 -258.434915 
L 227.449713 -257.047395 
L 227.755276 -255.659874 
L 227.914025 -254.272354 
L 227.9015 -252.884833 
L 227.722234 -251.497313 
L 227.403927 -250.109793 
L 226.986748 -248.722272 
L 226.514216 -247.334752 
L 226.028471 -245.947231 
L 225.568038 -244.559711 
L 225.164941 -243.17219 
L 224.840495 -241.78467 
L 224.602106 -240.397149 
L 224.443747 -239.009629 
L 224.350496 -237.622108 
L 224.304942 -236.234588 
L 224.29248 -234.847068 
L 224.303614 -233.459547 
L 224.333265 -232.072027 
L 224.378319 -230.684506 
L 224.435054 -229.296986 
L 224.497668 -227.909465 
L 224.558437 -226.521945 
L 224.609281 -225.134424 
L 224.643956 -223.746904 
L 224.659803 -222.359384 
L 224.65818 -220.971863 
L 224.64331 -219.584343 
L 224.620072 -218.196822 
L 224.591828 -216.809302 
L 224.559392 -215.421781 
L 224.521616 -214.034261 
L 224.477147 -212.64674 
L 224.426229 -211.25922 
L 224.371521 -209.871699 
L 224.31752 -208.484179 
L 224.269066 -207.096659 
L 224.229781 -205.709138 
L 224.20114 -204.321618 
L 224.182428 -202.934097 
L 224.171368 -201.546577 
L 224.165064 -200.159056 
L 224.1609 -198.771536 
z
" id="m5fb08c258c" style="stroke:#444444;stroke-width:1.5;"/>
    </defs>
    <g clip-path="url(#p7b33fa0d46)">
     <use style="fill:#e68193;stroke:#444444;stroke-width:1.5;" x="0" xlink:href="#m5fb08c258c" y="458.815625"/>
    </g>
   </g>
   <g id="PolyCollection_8">
    <defs>
     <path d="M 246.829162 -223.126501 
L 245.458654 -223.126501 
L 245.449206 -224.045566 
L 245.441077 -224.96463 
L 245.434113 -225.883695 
L 245.428129 -226.802759 
L 245.42291 -227.721824 
L 245.418219 -228.640888 
L 245.413796 -229.559953 
L 245.40937 -230.479017 
L 245.404658 -231.398082 
L 245.399376 -232.317146 
L 245.393241 -233.236211 
L 245.385978 -234.155275 
L 245.377327 -235.07434 
L 245.367044 -235.993405 
L 245.354908 -236.912469 
L 245.340723 -237.831534 
L 245.324322 -238.750598 
L 245.305568 -239.669663 
L 245.284353 -240.588727 
L 245.260602 -241.507792 
L 245.234265 -242.426856 
L 245.205325 -243.345921 
L 245.173783 -244.264985 
L 245.139666 -245.18405 
L 245.103013 -246.103115 
L 245.063879 -247.022179 
L 245.022323 -247.941244 
L 244.978409 -248.860308 
L 244.932195 -249.779373 
L 244.883736 -250.698437 
L 244.833071 -251.617502 
L 244.780229 -252.536566 
L 244.725216 -253.455631 
L 244.66802 -254.374695 
L 244.608609 -255.29376 
L 244.546926 -256.212824 
L 244.482892 -257.131889 
L 244.416412 -258.050954 
L 244.347367 -258.970018 
L 244.275626 -259.889083 
L 244.201048 -260.808147 
L 244.123483 -261.727212 
L 244.042779 -262.646276 
L 243.958788 -263.565341 
L 243.871371 -264.484405 
L 243.780404 -265.40347 
L 243.685783 -266.322534 
L 243.587431 -267.241599 
L 243.4853 -268.160663 
L 243.37938 -269.079728 
L 243.269703 -269.998793 
L 243.156342 -270.917857 
L 243.039423 -271.836922 
L 242.919119 -272.755986 
L 242.795658 -273.675051 
L 242.669322 -274.594115 
L 242.540451 -275.51318 
L 242.409437 -276.432244 
L 242.276731 -277.351309 
L 242.142835 -278.270373 
L 242.008307 -279.189438 
L 241.873753 -280.108502 
L 241.739827 -281.027567 
L 241.607228 -281.946632 
L 241.476691 -282.865696 
L 241.348991 -283.784761 
L 241.224927 -284.703825 
L 241.105323 -285.62289 
L 240.99102 -286.541954 
L 240.882866 -287.461019 
L 240.781709 -288.380083 
L 240.68839 -289.299148 
L 240.603733 -290.218212 
L 240.528532 -291.137277 
L 240.463546 -292.056342 
L 240.409486 -292.975406 
L 240.367007 -293.894471 
L 240.336696 -294.813535 
L 240.319062 -295.7326 
L 240.314532 -296.651664 
L 240.323435 -297.570729 
L 240.346001 -298.489793 
L 240.382354 -299.408858 
L 240.432504 -300.327922 
L 240.496348 -301.246987 
L 240.573667 -302.166051 
L 240.664124 -303.085116 
L 240.767269 -304.004181 
L 240.882541 -304.923245 
L 241.009276 -305.84231 
L 241.146711 -306.761374 
L 241.293994 -307.680439 
L 241.450196 -308.599503 
L 241.614319 -309.518568 
L 241.785313 -310.437632 
L 241.962085 -311.356697 
L 242.143514 -312.275761 
L 242.328467 -313.194826 
L 242.515811 -314.11389 
L 249.772006 -314.11389 
L 249.772006 -314.11389 
L 249.959349 -313.194826 
L 250.144303 -312.275761 
L 250.325732 -311.356697 
L 250.502504 -310.437632 
L 250.673497 -309.518568 
L 250.837621 -308.599503 
L 250.993822 -307.680439 
L 251.141105 -306.761374 
L 251.27854 -305.84231 
L 251.405275 -304.923245 
L 251.520548 -304.004181 
L 251.623693 -303.085116 
L 251.714149 -302.166051 
L 251.791468 -301.246987 
L 251.855313 -300.327922 
L 251.905463 -299.408858 
L 251.941816 -298.489793 
L 251.964382 -297.570729 
L 251.973285 -296.651664 
L 251.968754 -295.7326 
L 251.951121 -294.813535 
L 251.920809 -293.894471 
L 251.878331 -292.975406 
L 251.824271 -292.056342 
L 251.759285 -291.137277 
L 251.684084 -290.218212 
L 251.599426 -289.299148 
L 251.506108 -288.380083 
L 251.404951 -287.461019 
L 251.296797 -286.541954 
L 251.182494 -285.62289 
L 251.06289 -284.703825 
L 250.938826 -283.784761 
L 250.811125 -282.865696 
L 250.680589 -281.946632 
L 250.547989 -281.027567 
L 250.414064 -280.108502 
L 250.27951 -279.189438 
L 250.144982 -278.270373 
L 250.011086 -277.351309 
L 249.87838 -276.432244 
L 249.747366 -275.51318 
L 249.618494 -274.594115 
L 249.492159 -273.675051 
L 249.368698 -272.755986 
L 249.248394 -271.836922 
L 249.131474 -270.917857 
L 249.018114 -269.998793 
L 248.908436 -269.079728 
L 248.802517 -268.160663 
L 248.700386 -267.241599 
L 248.602033 -266.322534 
L 248.507412 -265.40347 
L 248.416445 -264.484405 
L 248.329029 -263.565341 
L 248.245038 -262.646276 
L 248.164334 -261.727212 
L 248.086768 -260.808147 
L 248.01219 -259.889083 
L 247.94045 -258.970018 
L 247.871405 -258.050954 
L 247.804924 -257.131889 
L 247.740891 -256.212824 
L 247.679207 -255.29376 
L 247.619796 -254.374695 
L 247.562601 -253.455631 
L 247.507588 -252.536566 
L 247.454745 -251.617502 
L 247.404081 -250.698437 
L 247.355621 -249.779373 
L 247.309408 -248.860308 
L 247.265493 -247.941244 
L 247.223938 -247.022179 
L 247.184803 -246.103115 
L 247.148151 -245.18405 
L 247.114033 -244.264985 
L 247.082492 -243.345921 
L 247.053551 -242.426856 
L 247.027215 -241.507792 
L 247.003463 -240.588727 
L 246.982249 -239.669663 
L 246.963494 -238.750598 
L 246.947093 -237.831534 
L 246.932909 -236.912469 
L 246.920772 -235.993405 
L 246.910489 -235.07434 
L 246.901838 -234.155275 
L 246.894576 -233.236211 
L 246.888441 -232.317146 
L 246.883159 -231.398082 
L 246.878447 -230.479017 
L 246.874021 -229.559953 
L 246.869598 -228.640888 
L 246.864906 -227.721824 
L 246.859688 -226.802759 
L 246.853704 -225.883695 
L 246.84674 -224.96463 
L 246.838611 -224.045566 
L 246.829162 -223.126501 
z
" id="maf4e54bd18" style="stroke:#444444;stroke-width:1.5;"/>
    </defs>
    <g clip-path="url(#p7b33fa0d46)">
     <use style="fill:#459e97;stroke:#444444;stroke-width:1.5;" x="0" xlink:href="#maf4e54bd18" y="458.815625"/>
    </g>
   </g>
   <g id="PolyCollection_9">
    <defs>
     <path d="M 279.178311 -184.55733 
L 279.134312 -184.55733 
L 279.135551 -185.448178 
L 279.138853 -186.339026 
L 279.142989 -187.229874 
L 279.146574 -188.120723 
L 279.148552 -189.011571 
L 279.148322 -189.902419 
L 279.145484 -190.793267 
L 279.139321 -191.684115 
L 279.128211 -192.574964 
L 279.109206 -193.465812 
L 279.078102 -194.35666 
L 279.030343 -195.247508 
L 278.962862 -196.138357 
L 278.876329 -197.029205 
L 278.776707 -197.920053 
L 278.674974 -198.810901 
L 278.584799 -199.70175 
L 278.519167 -200.592598 
L 278.487419 -201.483446 
L 278.493569 -202.374294 
L 278.535833 -203.265143 
L 278.607026 -204.155991 
L 278.695808 -205.046839 
L 278.788899 -205.937687 
L 278.873961 -206.828536 
L 278.942244 -207.719384 
L 278.990106 -208.610232 
L 279.018942 -209.50108 
L 279.033645 -210.391929 
L 279.040179 -211.282777 
L 279.043044 -212.173625 
L 279.043394 -213.064473 
L 279.038047 -213.955322 
L 279.018982 -214.84617 
L 278.972827 -215.737018 
L 278.880658 -216.627866 
L 278.719764 -217.518715 
L 278.469399 -218.409563 
L 278.12022 -219.300411 
L 277.682763 -220.191259 
L 277.187986 -221.082107 
L 276.677004 -221.972956 
L 276.186242 -222.863804 
L 275.739951 -223.754652 
L 275.356777 -224.6455 
L 275.063728 -225.536349 
L 274.901855 -226.427197 
L 274.913207 -227.318045 
L 275.114748 -228.208893 
L 275.4779 -229.099742 
L 275.930076 -229.99059 
L 276.3789 -230.881438 
L 276.74429 -231.772286 
L 276.980712 -232.663135 
L 277.081582 -233.553983 
L 277.069757 -234.444831 
L 276.98312 -235.335679 
L 276.861827 -236.226528 
L 276.739272 -237.117376 
L 276.636364 -238.008224 
L 276.558418 -238.899072 
L 276.494011 -239.789921 
L 276.41512 -240.680769 
L 276.278542 -241.571617 
L 276.030083 -242.462465 
L 275.613706 -243.353314 
L 274.986117 -244.244162 
L 274.13339 -245.13501 
L 273.083041 -246.025858 
L 271.905658 -246.916707 
L 270.705541 -247.807555 
L 269.606011 -248.698403 
L 268.73599 -249.589251 
L 268.218194 -250.480099 
L 268.152177 -251.370948 
L 268.587551 -252.261796 
L 269.495469 -253.152644 
L 270.75829 -254.043492 
L 272.193487 -254.934341 
L 273.607193 -255.825189 
L 274.851552 -256.716037 
L 275.856737 -257.606885 
L 276.625921 -258.497734 
L 277.204508 -259.388582 
L 277.645955 -260.27943 
L 277.990907 -261.170278 
L 278.262953 -262.061127 
L 278.474362 -262.951975 
L 278.633358 -263.842823 
L 278.748244 -264.733671 
L 278.828175 -265.62452 
L 278.882443 -266.515368 
L 278.919733 -267.406216 
L 278.947646 -268.297064 
L 278.972166 -269.187913 
L 278.997088 -270.078761 
L 279.023759 -270.969609 
L 279.051454 -271.860457 
L 279.078254 -272.751306 
L 279.234369 -272.751306 
L 279.234369 -272.751306 
L 279.261169 -271.860457 
L 279.288863 -270.969609 
L 279.315535 -270.078761 
L 279.340457 -269.187913 
L 279.364977 -268.297064 
L 279.39289 -267.406216 
L 279.43018 -266.515368 
L 279.484448 -265.62452 
L 279.564379 -264.733671 
L 279.679265 -263.842823 
L 279.83826 -262.951975 
L 280.04967 -262.061127 
L 280.321716 -261.170278 
L 280.666668 -260.27943 
L 281.108115 -259.388582 
L 281.686702 -258.497734 
L 282.455886 -257.606885 
L 283.461071 -256.716037 
L 284.70543 -255.825189 
L 286.119136 -254.934341 
L 287.554333 -254.043492 
L 288.817154 -253.152644 
L 289.725072 -252.261796 
L 290.160446 -251.370948 
L 290.094429 -250.480099 
L 289.576633 -249.589251 
L 288.706612 -248.698403 
L 287.607082 -247.807555 
L 286.406965 -246.916707 
L 285.229581 -246.025858 
L 284.179233 -245.13501 
L 283.326506 -244.244162 
L 282.698917 -243.353314 
L 282.28254 -242.462465 
L 282.034081 -241.571617 
L 281.897503 -240.680769 
L 281.818612 -239.789921 
L 281.754205 -238.899072 
L 281.676259 -238.008224 
L 281.573351 -237.117376 
L 281.450796 -236.226528 
L 281.329503 -235.335679 
L 281.242866 -234.444831 
L 281.231041 -233.553983 
L 281.331911 -232.663135 
L 281.568333 -231.772286 
L 281.933723 -230.881438 
L 282.382546 -229.99059 
L 282.834723 -229.099742 
L 283.197875 -228.208893 
L 283.399416 -227.318045 
L 283.410768 -226.427197 
L 283.248895 -225.536349 
L 282.955846 -224.6455 
L 282.572672 -223.754652 
L 282.126381 -222.863804 
L 281.635619 -221.972956 
L 281.124637 -221.082107 
L 280.62986 -220.191259 
L 280.192403 -219.300411 
L 279.843224 -218.409563 
L 279.592859 -217.518715 
L 279.431965 -216.627866 
L 279.339796 -215.737018 
L 279.293641 -214.84617 
L 279.274576 -213.955322 
L 279.269229 -213.064473 
L 279.269579 -212.173625 
L 279.272444 -211.282777 
L 279.278978 -210.391929 
L 279.293681 -209.50108 
L 279.322516 -208.610232 
L 279.370379 -207.719384 
L 279.438662 -206.828536 
L 279.523724 -205.937687 
L 279.616815 -205.046839 
L 279.705597 -204.155991 
L 279.77679 -203.265143 
L 279.819054 -202.374294 
L 279.825204 -201.483446 
L 279.793456 -200.592598 
L 279.727824 -199.70175 
L 279.637649 -198.810901 
L 279.535916 -197.920053 
L 279.436294 -197.029205 
L 279.349761 -196.138357 
L 279.28228 -195.247508 
L 279.234521 -194.35666 
L 279.203417 -193.465812 
L 279.184412 -192.574964 
L 279.173302 -191.684115 
L 279.167139 -190.793267 
L 279.164301 -189.902419 
L 279.164071 -189.011571 
L 279.166049 -188.120723 
L 279.169634 -187.229874 
L 279.17377 -186.339026 
L 279.177072 -185.448178 
L 279.178311 -184.55733 
z
" id="mea69c3c337" style="stroke:#444444;stroke-width:1.5;"/>
    </defs>
    <g clip-path="url(#p7b33fa0d46)">
     <use style="fill:#e68193;stroke:#444444;stroke-width:1.5;" x="0" xlink:href="#mea69c3c337" y="458.815625"/>
    </g>
   </g>
   <g id="PolyCollection_10">
    <defs>
     <path d="M 301.828022 -203.468932 
L 300.501139 -203.468932 
L 300.49675 -204.013155 
L 300.494107 -204.557377 
L 300.493028 -205.101599 
L 300.493286 -205.645821 
L 300.494615 -206.190043 
L 300.496706 -206.734265 
L 300.49922 -207.278488 
L 300.501785 -207.82271 
L 300.504007 -208.366932 
L 300.505472 -208.911154 
L 300.505755 -209.455376 
L 300.504428 -209.999598 
L 300.501063 -210.543821 
L 300.495244 -211.088043 
L 300.48657 -211.632265 
L 300.474664 -212.176487 
L 300.459179 -212.720709 
L 300.439803 -213.264931 
L 300.416263 -213.809153 
L 300.388335 -214.353376 
L 300.355839 -214.897598 
L 300.318647 -215.44182 
L 300.276684 -215.986042 
L 300.229928 -216.530264 
L 300.178406 -217.074486 
L 300.122198 -217.618709 
L 300.06143 -218.162931 
L 299.996273 -218.707153 
L 299.926936 -219.251375 
L 299.853664 -219.795597 
L 299.776728 -220.339819 
L 299.696424 -220.884041 
L 299.613059 -221.428264 
L 299.526953 -221.972486 
L 299.438424 -222.516708 
L 299.347789 -223.06093 
L 299.25535 -223.605152 
L 299.161396 -224.149374 
L 299.066192 -224.693597 
L 298.969977 -225.237819 
L 298.872962 -225.782041 
L 298.775325 -226.326263 
L 298.677214 -226.870485 
L 298.57874 -227.414707 
L 298.479984 -227.95893 
L 298.380998 -228.503152 
L 298.281804 -229.047374 
L 298.182402 -229.591596 
L 298.082773 -230.135818 
L 297.982884 -230.68004 
L 297.882693 -231.224262 
L 297.782158 -231.768485 
L 297.681241 -232.312707 
L 297.579913 -232.856929 
L 297.478166 -233.401151 
L 297.376012 -233.945373 
L 297.273494 -234.489595 
L 297.170688 -235.033818 
L 297.06771 -235.57804 
L 296.964718 -236.122262 
L 296.861914 -236.666484 
L 296.75955 -237.210706 
L 296.657925 -237.754928 
L 296.557387 -238.299151 
L 296.458332 -238.843373 
L 296.361203 -239.387595 
L 296.266483 -239.931817 
L 296.1747 -240.476039 
L 296.086414 -241.020261 
L 296.002215 -241.564483 
L 295.922717 -242.108706 
L 295.848553 -242.652928 
L 295.780365 -243.19715 
L 295.718796 -243.741372 
L 295.664485 -244.285594 
L 295.618058 -244.829816 
L 295.580116 -245.374039 
L 295.551231 -245.918261 
L 295.531933 -246.462483 
L 295.522708 -247.006705 
L 295.523983 -247.550927 
L 295.536123 -248.095149 
L 295.559423 -248.639372 
L 295.594099 -249.183594 
L 295.640287 -249.727816 
L 295.698036 -250.272038 
L 295.767304 -250.81626 
L 295.847953 -251.360482 
L 295.939755 -251.904704 
L 296.042383 -252.448927 
L 296.155421 -252.993149 
L 296.278359 -253.537371 
L 296.410603 -254.081593 
L 296.551474 -254.625815 
L 296.700224 -255.170037 
L 296.856033 -255.71426 
L 297.018027 -256.258482 
L 297.185285 -256.802704 
L 297.356847 -257.346926 
L 304.972314 -257.346926 
L 304.972314 -257.346926 
L 305.143876 -256.802704 
L 305.311133 -256.258482 
L 305.473128 -255.71426 
L 305.628937 -255.170037 
L 305.777686 -254.625815 
L 305.918558 -254.081593 
L 306.050801 -253.537371 
L 306.173739 -252.993149 
L 306.286777 -252.448927 
L 306.389406 -251.904704 
L 306.481208 -251.360482 
L 306.561857 -250.81626 
L 306.631124 -250.272038 
L 306.688873 -249.727816 
L 306.735062 -249.183594 
L 306.769738 -248.639372 
L 306.793037 -248.095149 
L 306.805177 -247.550927 
L 306.806452 -247.006705 
L 306.797227 -246.462483 
L 306.77793 -245.918261 
L 306.749044 -245.374039 
L 306.711102 -244.829816 
L 306.664675 -244.285594 
L 306.610365 -243.741372 
L 306.548796 -243.19715 
L 306.480607 -242.652928 
L 306.406443 -242.108706 
L 306.326946 -241.564483 
L 306.242747 -241.020261 
L 306.15446 -240.476039 
L 306.062677 -239.931817 
L 305.967958 -239.387595 
L 305.870828 -238.843373 
L 305.771773 -238.299151 
L 305.671235 -237.754928 
L 305.56961 -237.210706 
L 305.467246 -236.666484 
L 305.364443 -236.122262 
L 305.26145 -235.57804 
L 305.158472 -235.033818 
L 305.055667 -234.489595 
L 304.953148 -233.945373 
L 304.850994 -233.401151 
L 304.749247 -232.856929 
L 304.64792 -232.312707 
L 304.547002 -231.768485 
L 304.446467 -231.224262 
L 304.346276 -230.68004 
L 304.246387 -230.135818 
L 304.146758 -229.591596 
L 304.047356 -229.047374 
L 303.948162 -228.503152 
L 303.849176 -227.95893 
L 303.750421 -227.414707 
L 303.651947 -226.870485 
L 303.553835 -226.326263 
L 303.456199 -225.782041 
L 303.359184 -225.237819 
L 303.262969 -224.693597 
L 303.167764 -224.149374 
L 303.07381 -223.605152 
L 302.981372 -223.06093 
L 302.890736 -222.516708 
L 302.802208 -221.972486 
L 302.716102 -221.428264 
L 302.632737 -220.884041 
L 302.552432 -220.339819 
L 302.475496 -219.795597 
L 302.402224 -219.251375 
L 302.332888 -218.707153 
L 302.267731 -218.162931 
L 302.206963 -217.618709 
L 302.150755 -217.074486 
L 302.099233 -216.530264 
L 302.052476 -215.986042 
L 302.010514 -215.44182 
L 301.973322 -214.897598 
L 301.940826 -214.353376 
L 301.912897 -213.809153 
L 301.889358 -213.264931 
L 301.869981 -212.720709 
L 301.854496 -212.176487 
L 301.84259 -211.632265 
L 301.833916 -211.088043 
L 301.828097 -210.543821 
L 301.824733 -209.999598 
L 301.823405 -209.455376 
L 301.823689 -208.911154 
L 301.825154 -208.366932 
L 301.827375 -207.82271 
L 301.82994 -207.278488 
L 301.832454 -206.734265 
L 301.834546 -206.190043 
L 301.835874 -205.645821 
L 301.836132 -205.101599 
L 301.835053 -204.557377 
L 301.83241 -204.013155 
L 301.828022 -203.468932 
z
" id="m67fe1b466b" style="stroke:#444444;stroke-width:1.5;"/>
    </defs>
    <g clip-path="url(#p7b33fa0d46)">
     <use style="fill:#459e97;stroke:#444444;stroke-width:1.5;" x="0" xlink:href="#m67fe1b466b" y="458.815625"/>
    </g>
   </g>
   <g id="patch_3">
    <path clip-path="url(#p7b33fa0d46)" d="M 70.077758 274.258295 
L 70.077758 274.258295 
L 70.077758 274.258295 
L 70.077758 274.258295 
z
" style="fill:#e68193;stroke:#444444;stroke-linejoin:miter;stroke-width:0.75;"/>
   </g>
   <g id="patch_4">
    <path clip-path="url(#p7b33fa0d46)" d="M 70.077758 274.258295 
L 70.077758 274.258295 
L 70.077758 274.258295 
L 70.077758 274.258295 
z
" style="fill:#459e97;stroke:#444444;stroke-linejoin:miter;stroke-width:0.75;"/>
   </g>
   <g id="line2d_1">
    <path clip-path="url(#p7b33fa0d46)" d="M 59.073623 196.401925 
L 59.073623 42.774205 
" style="fill:none;stroke:#444444;stroke-linecap:round;stroke-width:1.5;"/>
   </g>
   <g id="line2d_2">
    <path clip-path="url(#p7b33fa0d46)" d="M 59.073623 127.472547 
L 59.073623 80.544046 
" style="fill:none;stroke:#444444;stroke-linecap:round;stroke-width:4.5;"/>
   </g>
   <g id="line2d_3">
    <path clip-path="url(#p7b33fa0d46)" d="M 81.081892 147.456611 
L 81.081892 71.47967 
" style="fill:none;stroke:#444444;stroke-linecap:round;stroke-width:1.5;"/>
   </g>
   <g id="line2d_4">
    <path clip-path="url(#p7b33fa0d46)" d="M 81.081892 129.373454 
L 81.081892 87.855225 
" style="fill:none;stroke:#444444;stroke-linecap:round;stroke-width:4.5;"/>
   </g>
   <g id="line2d_5">
    <path clip-path="url(#p7b33fa0d46)" d="M 114.094295 226.549839 
L 114.094295 118.813258 
" style="fill:none;stroke:#444444;stroke-linecap:round;stroke-width:1.5;"/>
   </g>
   <g id="line2d_6">
    <path clip-path="url(#p7b33fa0d46)" d="M 114.094295 179.124533 
L 114.094295 147.164451 
" style="fill:none;stroke:#444444;stroke-linecap:round;stroke-width:4.5;"/>
   </g>
   <g id="line2d_7">
    <path clip-path="url(#p7b33fa0d46)" d="M 136.102564 193.822994 
L 136.102564 135.661901 
" style="fill:none;stroke:#444444;stroke-linecap:round;stroke-width:1.5;"/>
   </g>
   <g id="line2d_8">
    <path clip-path="url(#p7b33fa0d46)" d="M 136.102564 177.290873 
L 136.102564 148.296411 
" style="fill:none;stroke:#444444;stroke-linecap:round;stroke-width:4.5;"/>
   </g>
   <g id="line2d_9">
    <path clip-path="url(#p7b33fa0d46)" d="M 169.114967 198.661989 
L 169.114967 62.47126 
" style="fill:none;stroke:#444444;stroke-linecap:round;stroke-width:1.5;"/>
   </g>
   <g id="line2d_10">
    <path clip-path="url(#p7b33fa0d46)" d="M 169.114967 138.615849 
L 169.114967 96.024712 
" style="fill:none;stroke:#444444;stroke-linecap:round;stroke-width:4.5;"/>
   </g>
   <g id="line2d_11">
    <path clip-path="url(#p7b33fa0d46)" d="M 191.123236 163.27998 
L 191.123236 91.278063 
" style="fill:none;stroke:#444444;stroke-linecap:round;stroke-width:1.5;"/>
   </g>
   <g id="line2d_12">
    <path clip-path="url(#p7b33fa0d46)" d="M 191.123236 131.293863 
L 191.123236 98.846228 
" style="fill:none;stroke:#444444;stroke-linecap:round;stroke-width:4.5;"/>
   </g>
   <g id="line2d_13">
    <path clip-path="url(#p7b33fa0d46)" d="M 224.135639 224.284627 
L 224.135639 122.679565 
" style="fill:none;stroke:#444444;stroke-linecap:round;stroke-width:1.5;"/>
   </g>
   <g id="line2d_14">
    <path clip-path="url(#p7b33fa0d46)" d="M 224.135639 184.52758 
L 224.135639 156.693786 
" style="fill:none;stroke:#444444;stroke-linecap:round;stroke-width:4.5;"/>
   </g>
   <g id="line2d_15">
    <path clip-path="url(#p7b33fa0d46)" d="M 246.143908 205.691935 
L 246.143908 144.701735 
" style="fill:none;stroke:#444444;stroke-linecap:round;stroke-width:1.5;"/>
   </g>
   <g id="line2d_16">
    <path clip-path="url(#p7b33fa0d46)" d="M 246.143908 178.432594 
L 246.143908 156.306392 
" style="fill:none;stroke:#444444;stroke-linecap:round;stroke-width:4.5;"/>
   </g>
   <g id="line2d_17">
    <path clip-path="url(#p7b33fa0d46)" d="M 279.156311 256.70805 
L 279.156311 186.064319 
" style="fill:none;stroke:#444444;stroke-linecap:round;stroke-width:1.5;"/>
   </g>
   <g id="line2d_18">
    <path clip-path="url(#p7b33fa0d46)" d="M 279.156311 226.742897 
L 279.156311 206.760122 
" style="fill:none;stroke:#444444;stroke-linecap:round;stroke-width:4.5;"/>
   </g>
   <g id="line2d_19">
    <path clip-path="url(#p7b33fa0d46)" d="M 301.16458 232.845774 
L 301.16458 201.468699 
" style="fill:none;stroke:#444444;stroke-linecap:round;stroke-width:1.5;"/>
   </g>
   <g id="line2d_20">
    <path clip-path="url(#p7b33fa0d46)" d="M 301.16458 223.766969 
L 301.16458 206.762511 
" style="fill:none;stroke:#444444;stroke-linecap:round;stroke-width:4.5;"/>
   </g>
   <g id="patch_5">
    <path d="M 42.567422 285.8325 
L 317.670782 285.8325 
" style="fill:none;stroke:#262626;stroke-linecap:square;stroke-linejoin:miter;stroke-width:1.875;"/>
   </g>
   <g id="PathCollection_1">
    <defs>
     <path d="M 0 1.5 
C 0.397805 1.5 0.77937 1.341951 1.06066 1.06066 
C 1.341951 0.77937 1.5 0.397805 1.5 0 
C 1.5 -0.397805 1.341951 -0.77937 1.06066 -1.06066 
C 0.77937 -1.341951 0.397805 -1.5 0 -1.5 
C -0.397805 -1.5 -0.77937 -1.341951 -1.06066 -1.06066 
C -1.341951 -0.77937 -1.5 -0.397805 -1.5 0 
C -1.5 0.397805 -1.341951 0.77937 -1.06066 1.06066 
C -0.77937 1.341951 -0.397805 1.5 0 1.5 
z
" id="md82ac9108a" style="stroke:#444444;stroke-width:1.5;"/>
    </defs>
    <g clip-path="url(#p7b33fa0d46)">
     <use style="fill:#ffffff;stroke:#444444;stroke-width:1.5;" x="59.073623" xlink:href="#md82ac9108a" y="96.711997"/>
    </g>
   </g>
   <g id="PathCollection_2">
    <g clip-path="url(#p7b33fa0d46)">
     <use style="fill:#ffffff;stroke:#444444;stroke-width:1.5;" x="81.081892" xlink:href="#md82ac9108a" y="104.904416"/>
    </g>
   </g>
   <g id="PathCollection_3">
    <g clip-path="url(#p7b33fa0d46)">
     <use style="fill:#ffffff;stroke:#444444;stroke-width:1.5;" x="114.094295" xlink:href="#md82ac9108a" y="154.80954"/>
    </g>
   </g>
   <g id="PathCollection_4">
    <g clip-path="url(#p7b33fa0d46)">
     <use style="fill:#ffffff;stroke:#444444;stroke-width:1.5;" x="136.102564" xlink:href="#md82ac9108a" y="158.964239"/>
    </g>
   </g>
   <g id="PathCollection_5">
    <g clip-path="url(#p7b33fa0d46)">
     <use style="fill:#ffffff;stroke:#444444;stroke-width:1.5;" x="169.114967" xlink:href="#md82ac9108a" y="106.473001"/>
    </g>
   </g>
   <g id="PathCollection_6">
    <g clip-path="url(#p7b33fa0d46)">
     <use style="fill:#ffffff;stroke:#444444;stroke-width:1.5;" x="191.123236" xlink:href="#md82ac9108a" y="113.55591"/>
    </g>
   </g>
   <g id="PathCollection_7">
    <g clip-path="url(#p7b33fa0d46)">
     <use style="fill:#ffffff;stroke:#444444;stroke-width:1.5;" x="224.135639" xlink:href="#md82ac9108a" y="162.325926"/>
    </g>
   </g>
   <g id="PathCollection_8">
    <g clip-path="url(#p7b33fa0d46)">
     <use style="fill:#ffffff;stroke:#444444;stroke-width:1.5;" x="246.143908" xlink:href="#md82ac9108a" y="165.564646"/>
    </g>
   </g>
   <g id="PathCollection_9">
    <g clip-path="url(#p7b33fa0d46)">
     <use style="fill:#ffffff;stroke:#444444;stroke-width:1.5;" x="279.156311" xlink:href="#md82ac9108a" y="210.90443"/>
    </g>
   </g>
   <g id="PathCollection_10">
    <g clip-path="url(#p7b33fa0d46)">
     <use style="fill:#ffffff;stroke:#444444;stroke-width:1.5;" x="301.16458" xlink:href="#md82ac9108a" y="213.806076"/>
    </g>
   </g>
  </g>
  <g id="text_11">
   <!-- Vegetables and fruits -->
   <defs>
    <path d="M 28.171875 0 
L 0.4375 71.578125 
L 10.6875 71.578125 
L 29.296875 19.578125 
Q 31.546875 13.328125 33.0625 7.859375 
Q 34.71875 13.71875 36.921875 19.578125 
L 56.25 71.578125 
L 65.921875 71.578125 
L 37.890625 0 
z
" id="ArialMT-86"/>
    <path d="M 14.703125 0 
L 6.546875 0 
L 6.546875 71.578125 
L 15.328125 71.578125 
L 15.328125 46.046875 
Q 20.90625 53.03125 29.546875 53.03125 
Q 34.328125 53.03125 38.59375 51.09375 
Q 42.875 49.171875 45.625 45.671875 
Q 48.390625 42.1875 49.953125 37.25 
Q 51.515625 32.328125 51.515625 26.703125 
Q 51.515625 13.375 44.921875 6.09375 
Q 38.328125 -1.171875 29.109375 -1.171875 
Q 19.921875 -1.171875 14.703125 6.5 
z
M 14.59375 26.3125 
Q 14.59375 17 17.140625 12.84375 
Q 21.296875 6.0625 28.375 6.0625 
Q 34.125 6.0625 38.328125 11.0625 
Q 42.53125 16.0625 42.53125 25.984375 
Q 42.53125 36.140625 38.5 40.96875 
Q 34.46875 45.796875 28.765625 45.796875 
Q 23 45.796875 18.796875 40.796875 
Q 14.59375 35.796875 14.59375 26.3125 
z
" id="ArialMT-98"/>
    <path d="M 3.078125 15.484375 
L 11.765625 16.84375 
Q 12.5 11.625 15.84375 8.84375 
Q 19.1875 6.0625 25.203125 6.0625 
Q 31.25 6.0625 34.171875 8.515625 
Q 37.109375 10.984375 37.109375 14.3125 
Q 37.109375 17.28125 34.515625 19 
Q 32.71875 20.171875 25.53125 21.96875 
Q 15.875 24.421875 12.140625 26.203125 
Q 8.40625 27.984375 6.46875 31.125 
Q 4.546875 34.28125 4.546875 38.09375 
Q 4.546875 41.546875 6.125 44.5 
Q 7.71875 47.46875 10.453125 49.421875 
Q 12.5 50.921875 16.03125 51.96875 
Q 19.578125 53.03125 23.640625 53.03125 
Q 29.734375 53.03125 34.34375 51.265625 
Q 38.96875 49.515625 41.15625 46.5 
Q 43.359375 43.5 44.1875 38.484375 
L 35.59375 37.3125 
Q 35.015625 41.3125 32.203125 43.546875 
Q 29.390625 45.796875 24.265625 45.796875 
Q 18.21875 45.796875 15.625 43.796875 
Q 13.03125 41.796875 13.03125 39.109375 
Q 13.03125 37.40625 14.109375 36.03125 
Q 15.1875 34.625 17.484375 33.6875 
Q 18.796875 33.203125 25.25 31.453125 
Q 34.578125 28.953125 38.25 27.359375 
Q 41.9375 25.78125 44.03125 22.75 
Q 46.140625 19.734375 46.140625 15.234375 
Q 46.140625 10.84375 43.578125 6.953125 
Q 41.015625 3.078125 36.171875 0.953125 
Q 31.34375 -1.171875 25.25 -1.171875 
Q 15.140625 -1.171875 9.84375 3.03125 
Q 4.546875 7.234375 3.078125 15.484375 
z
" id="ArialMT-115"/>
    <path d="M 40.578125 0 
L 40.578125 7.625 
Q 34.515625 -1.171875 24.125 -1.171875 
Q 19.53125 -1.171875 15.546875 0.578125 
Q 11.578125 2.34375 9.640625 5 
Q 7.71875 7.671875 6.9375 11.53125 
Q 6.390625 14.109375 6.390625 19.734375 
L 6.390625 51.859375 
L 15.1875 51.859375 
L 15.1875 23.09375 
Q 15.1875 16.21875 15.71875 13.8125 
Q 16.546875 10.359375 19.234375 8.375 
Q 21.921875 6.390625 25.875 6.390625 
Q 29.828125 6.390625 33.296875 8.421875 
Q 36.765625 10.453125 38.203125 13.9375 
Q 39.65625 17.4375 39.65625 24.078125 
L 39.65625 51.859375 
L 48.4375 51.859375 
L 48.4375 0 
z
" id="ArialMT-117"/>
   </defs>
   <g style="fill:#262626;" transform="translate(94.991769 15.724125)scale(0.216 -0.216)">
    <use xlink:href="#ArialMT-86"/>
    <use x="66.621094" xlink:href="#ArialMT-101"/>
    <use x="122.236328" xlink:href="#ArialMT-103"/>
    <use x="177.851562" xlink:href="#ArialMT-101"/>
    <use x="233.466797" xlink:href="#ArialMT-116"/>
    <use x="261.25" xlink:href="#ArialMT-97"/>
    <use x="316.865234" xlink:href="#ArialMT-98"/>
    <use x="372.480469" xlink:href="#ArialMT-108"/>
    <use x="394.697266" xlink:href="#ArialMT-101"/>
    <use x="450.3125" xlink:href="#ArialMT-115"/>
    <use x="500.3125" xlink:href="#ArialMT-32"/>
    <use x="528.095703" xlink:href="#ArialMT-97"/>
    <use x="583.710938" xlink:href="#ArialMT-110"/>
    <use x="639.326172" xlink:href="#ArialMT-100"/>
    <use x="694.941406" xlink:href="#ArialMT-32"/>
    <use x="722.724609" xlink:href="#ArialMT-102"/>
    <use x="750.507812" xlink:href="#ArialMT-114"/>
    <use x="783.808594" xlink:href="#ArialMT-117"/>
    <use x="839.423828" xlink:href="#ArialMT-105"/>
    <use x="861.640625" xlink:href="#ArialMT-116"/>
    <use x="889.423828" xlink:href="#ArialMT-115"/>
   </g>
  </g>
  <g id="legend_1">
   <g id="text_12">
    <!-- index -->
    <defs>
     <path d="M 0.734375 0 
L 19.671875 26.953125 
L 2.15625 51.859375 
L 13.140625 51.859375 
L 21.09375 39.703125 
Q 23.34375 36.234375 24.703125 33.890625 
Q 26.859375 37.109375 28.65625 39.59375 
L 37.40625 51.859375 
L 47.90625 51.859375 
L 29.984375 27.4375 
L 49.265625 0 
L 38.484375 0 
L 27.828125 16.109375 
L 25 20.453125 
L 11.375 0 
z
" id="ArialMT-120"/>
    </defs>
    <g style="fill:#262626;" transform="translate(341.747957 210.023336)scale(0.153 -0.153)">
     <use xlink:href="#ArialMT-105"/>
     <use x="22.216797" xlink:href="#ArialMT-110"/>
     <use x="77.832031" xlink:href="#ArialMT-100"/>
     <use x="133.447266" xlink:href="#ArialMT-101"/>
     <use x="189.0625" xlink:href="#ArialMT-120"/>
    </g>
   </g>
   <g id="patch_6">
    <path d="M 312.637504 233.124602 
L 345.637504 233.124602 
L 345.637504 221.574602 
L 312.637504 221.574602 
z
" style="fill:#e68193;stroke:#444444;stroke-linejoin:miter;stroke-width:0.75;"/>
   </g>
   <g id="text_13">
    <!-- actual -->
    <defs>
     <path d="M 40.4375 19 
L 49.078125 17.875 
Q 47.65625 8.9375 41.8125 3.875 
Q 35.984375 -1.171875 27.484375 -1.171875 
Q 16.84375 -1.171875 10.375 5.78125 
Q 3.90625 12.75 3.90625 25.734375 
Q 3.90625 34.125 6.6875 40.421875 
Q 9.46875 46.734375 15.15625 49.875 
Q 20.84375 53.03125 27.546875 53.03125 
Q 35.984375 53.03125 41.359375 48.75 
Q 46.734375 44.484375 48.25 36.625 
L 39.703125 35.296875 
Q 38.484375 40.53125 35.375 43.15625 
Q 32.28125 45.796875 27.875 45.796875 
Q 21.234375 45.796875 17.078125 41.03125 
Q 12.9375 36.28125 12.9375 25.984375 
Q 12.9375 15.53125 16.9375 10.796875 
Q 20.953125 6.0625 27.390625 6.0625 
Q 32.5625 6.0625 36.03125 9.234375 
Q 39.5 12.40625 40.4375 19 
z
" id="ArialMT-99"/>
    </defs>
    <g style="fill:#262626;" transform="translate(358.837504 233.124602)scale(0.165 -0.165)">
     <use xlink:href="#ArialMT-97"/>
     <use x="55.615234" xlink:href="#ArialMT-99"/>
     <use x="105.615234" xlink:href="#ArialMT-116"/>
     <use x="133.398438" xlink:href="#ArialMT-117"/>
     <use x="189.013672" xlink:href="#ArialMT-97"/>
     <use x="244.628906" xlink:href="#ArialMT-108"/>
    </g>
   </g>
   <g id="patch_7">
    <path d="M 312.637504 256.464367 
L 345.637504 256.464367 
L 345.637504 244.914367 
L 312.637504 244.914367 
z
" style="fill:#459e97;stroke:#444444;stroke-linejoin:miter;stroke-width:0.75;"/>
   </g>
   <g id="text_14">
    <!-- cluster -->
    <g style="fill:#262626;" transform="translate(358.837504 256.464367)scale(0.165 -0.165)">
     <use xlink:href="#ArialMT-99"/>
     <use x="50" xlink:href="#ArialMT-108"/>
     <use x="72.216797" xlink:href="#ArialMT-117"/>
     <use x="127.832031" xlink:href="#ArialMT-115"/>
     <use x="177.832031" xlink:href="#ArialMT-116"/>
     <use x="205.615234" xlink:href="#ArialMT-101"/>
     <use x="261.230469" xlink:href="#ArialMT-114"/>
    </g>
   </g>
  </g>
 </g>
 <defs>
  <clipPath id="p7b33fa0d46">
   <rect height="254.6325" width="275.10336" x="42.567422" y="31.2"/>
  </clipPath>
 </defs>
</svg>
