<?xml version="1.0" encoding="utf-8" standalone="no"?>
<!DOCTYPE svg PUBLIC "-//W3C//DTD SVG 1.1//EN"
  "http://www.w3.org/Graphics/SVG/1.1/DTD/svg11.dtd">
<!-- Created with matplotlib (https://matplotlib.org/) -->
<svg height="458.815625pt" version="1.1" viewBox="0 0 419.519539 458.815625" width="419.519539pt" xmlns="http://www.w3.org/2000/svg" xmlns:xlink="http://www.w3.org/1999/xlink">
 <defs>
  <style type="text/css">
*{stroke-linecap:butt;stroke-linejoin:round;}
  </style>
 </defs>
 <g id="figure_1">
  <g id="patch_1">
   <path d="M 0 458.815625 
L 419.519539 458.815625 
L 419.519539 0 
L 0 0 
z
" style="fill:#ffffff;"/>
  </g>
  <g id="axes_1">
   <g id="patch_2">
    <path d="M 51.742969 285.8325 
L 314.907739 285.8325 
L 314.907739 31.2 
L 51.742969 31.2 
z
" style="fill:#ffffff;"/>
   </g>
   <g id="matplotlib.axis_1">
    <g id="xtick_1">
     <g id="text_1">
      <!-- Irrigation High -->
      <defs>
       <path d="M 9.328125 0 
L 9.328125 71.578125 
L 18.796875 71.578125 
L 18.796875 0 
z
" id="ArialMT-73"/>
       <path d="M 6.5 0 
L 6.5 51.859375 
L 14.40625 51.859375 
L 14.40625 44 
Q 17.4375 49.515625 20 51.265625 
Q 22.5625 53.03125 25.640625 53.03125 
Q 30.078125 53.03125 34.671875 50.203125 
L 31.640625 42.046875 
Q 28.421875 43.953125 25.203125 43.953125 
Q 22.3125 43.953125 20.015625 42.21875 
Q 17.71875 40.484375 16.75 37.40625 
Q 15.28125 32.71875 15.28125 27.15625 
L 15.28125 0 
z
" id="ArialMT-114"/>
       <path d="M 6.640625 61.46875 
L 6.640625 71.578125 
L 15.4375 71.578125 
L 15.4375 61.46875 
z
M 6.640625 0 
L 6.640625 51.859375 
L 15.4375 51.859375 
L 15.4375 0 
z
" id="ArialMT-105"/>
       <path d="M 4.984375 -4.296875 
L 13.53125 -5.5625 
Q 14.0625 -9.515625 16.5 -11.328125 
Q 19.78125 -13.765625 25.4375 -13.765625 
Q 31.546875 -13.765625 34.859375 -11.328125 
Q 38.1875 -8.890625 39.359375 -4.5 
Q 40.046875 -1.8125 39.984375 6.78125 
Q 34.234375 0 25.640625 0 
Q 14.9375 0 9.078125 7.71875 
Q 3.21875 15.4375 3.21875 26.21875 
Q 3.21875 33.640625 5.90625 39.90625 
Q 8.59375 46.1875 13.6875 49.609375 
Q 18.796875 53.03125 25.6875 53.03125 
Q 34.859375 53.03125 40.828125 45.609375 
L 40.828125 51.859375 
L 48.921875 51.859375 
L 48.921875 7.03125 
Q 48.921875 -5.078125 46.453125 -10.125 
Q 44 -15.1875 38.640625 -18.109375 
Q 33.296875 -21.046875 25.484375 -21.046875 
Q 16.21875 -21.046875 10.5 -16.875 
Q 4.78125 -12.703125 4.984375 -4.296875 
z
M 12.25 26.859375 
Q 12.25 16.65625 16.296875 11.96875 
Q 20.359375 7.28125 26.46875 7.28125 
Q 32.515625 7.28125 36.609375 11.9375 
Q 40.71875 16.609375 40.71875 26.5625 
Q 40.71875 36.078125 36.5 40.90625 
Q 32.28125 45.75 26.3125 45.75 
Q 20.453125 45.75 16.34375 40.984375 
Q 12.25 36.234375 12.25 26.859375 
z
" id="ArialMT-103"/>
       <path d="M 40.4375 6.390625 
Q 35.546875 2.25 31.03125 0.53125 
Q 26.515625 -1.171875 21.34375 -1.171875 
Q 12.796875 -1.171875 8.203125 3 
Q 3.609375 7.171875 3.609375 13.671875 
Q 3.609375 17.484375 5.34375 20.625 
Q 7.078125 23.78125 9.890625 25.6875 
Q 12.703125 27.59375 16.21875 28.5625 
Q 18.796875 29.25 24.03125 29.890625 
Q 34.671875 31.15625 39.703125 32.90625 
Q 39.75 34.71875 39.75 35.203125 
Q 39.75 40.578125 37.25 42.78125 
Q 33.890625 45.75 27.25 45.75 
Q 21.046875 45.75 18.09375 43.578125 
Q 15.140625 41.40625 13.71875 35.890625 
L 5.125 37.0625 
Q 6.296875 42.578125 8.984375 45.96875 
Q 11.671875 49.359375 16.75 51.1875 
Q 21.828125 53.03125 28.515625 53.03125 
Q 35.15625 53.03125 39.296875 51.46875 
Q 43.453125 49.90625 45.40625 47.53125 
Q 47.359375 45.171875 48.140625 41.546875 
Q 48.578125 39.3125 48.578125 33.453125 
L 48.578125 21.734375 
Q 48.578125 9.46875 49.140625 6.21875 
Q 49.703125 2.984375 51.375 0 
L 42.1875 0 
Q 40.828125 2.734375 40.4375 6.390625 
z
M 39.703125 26.03125 
Q 34.90625 24.078125 25.34375 22.703125 
Q 19.921875 21.921875 17.671875 20.9375 
Q 15.4375 19.96875 14.203125 18.09375 
Q 12.984375 16.21875 12.984375 13.921875 
Q 12.984375 10.40625 15.640625 8.0625 
Q 18.3125 5.71875 23.4375 5.71875 
Q 28.515625 5.71875 32.46875 7.9375 
Q 36.421875 10.15625 38.28125 14.015625 
Q 39.703125 17 39.703125 22.796875 
z
" id="ArialMT-97"/>
       <path d="M 25.78125 7.859375 
L 27.046875 0.09375 
Q 23.34375 -0.6875 20.40625 -0.6875 
Q 15.625 -0.6875 12.984375 0.828125 
Q 10.359375 2.34375 9.28125 4.8125 
Q 8.203125 7.28125 8.203125 15.1875 
L 8.203125 45.015625 
L 1.765625 45.015625 
L 1.765625 51.859375 
L 8.203125 51.859375 
L 8.203125 64.703125 
L 16.9375 69.96875 
L 16.9375 51.859375 
L 25.78125 51.859375 
L 25.78125 45.015625 
L 16.9375 45.015625 
L 16.9375 14.703125 
Q 16.9375 10.9375 17.40625 9.859375 
Q 17.875 8.796875 18.921875 8.15625 
Q 19.96875 7.515625 21.921875 7.515625 
Q 23.390625 7.515625 25.78125 7.859375 
z
" id="ArialMT-116"/>
       <path d="M 3.328125 25.921875 
Q 3.328125 40.328125 11.328125 47.265625 
Q 18.015625 53.03125 27.640625 53.03125 
Q 38.328125 53.03125 45.109375 46.015625 
Q 51.90625 39.015625 51.90625 26.65625 
Q 51.90625 16.65625 48.90625 10.90625 
Q 45.90625 5.171875 40.15625 2 
Q 34.421875 -1.171875 27.640625 -1.171875 
Q 16.75 -1.171875 10.03125 5.8125 
Q 3.328125 12.796875 3.328125 25.921875 
z
M 12.359375 25.921875 
Q 12.359375 15.96875 16.703125 11.015625 
Q 21.046875 6.0625 27.640625 6.0625 
Q 34.1875 6.0625 38.53125 11.03125 
Q 42.875 16.015625 42.875 26.21875 
Q 42.875 35.84375 38.5 40.796875 
Q 34.125 45.75 27.640625 45.75 
Q 21.046875 45.75 16.703125 40.8125 
Q 12.359375 35.890625 12.359375 25.921875 
z
" id="ArialMT-111"/>
       <path d="M 6.59375 0 
L 6.59375 51.859375 
L 14.5 51.859375 
L 14.5 44.484375 
Q 20.21875 53.03125 31 53.03125 
Q 35.6875 53.03125 39.625 51.34375 
Q 43.5625 49.65625 45.515625 46.921875 
Q 47.46875 44.1875 48.25 40.4375 
Q 48.734375 37.984375 48.734375 31.890625 
L 48.734375 0 
L 39.9375 0 
L 39.9375 31.546875 
Q 39.9375 36.921875 38.90625 39.578125 
Q 37.890625 42.234375 35.28125 43.8125 
Q 32.671875 45.40625 29.15625 45.40625 
Q 23.53125 45.40625 19.453125 41.84375 
Q 15.375 38.28125 15.375 28.328125 
L 15.375 0 
z
" id="ArialMT-110"/>
       <path id="ArialMT-32"/>
       <path d="M 8.015625 0 
L 8.015625 71.578125 
L 17.484375 71.578125 
L 17.484375 42.1875 
L 54.6875 42.1875 
L 54.6875 71.578125 
L 64.15625 71.578125 
L 64.15625 0 
L 54.6875 0 
L 54.6875 33.734375 
L 17.484375 33.734375 
L 17.484375 0 
z
" id="ArialMT-72"/>
       <path d="M 6.59375 0 
L 6.59375 71.578125 
L 15.375 71.578125 
L 15.375 45.90625 
Q 21.53125 53.03125 30.90625 53.03125 
Q 36.671875 53.03125 40.921875 50.75 
Q 45.171875 48.484375 47 44.484375 
Q 48.828125 40.484375 48.828125 32.859375 
L 48.828125 0 
L 40.046875 0 
L 40.046875 32.859375 
Q 40.046875 39.453125 37.1875 42.453125 
Q 34.328125 45.453125 29.109375 45.453125 
Q 25.203125 45.453125 21.75 43.421875 
Q 18.3125 41.40625 16.84375 37.9375 
Q 15.375 34.46875 15.375 28.375 
L 15.375 0 
z
" id="ArialMT-104"/>
      </defs>
      <g style="fill:#262626;" transform="translate(82.228274 401.039844)rotate(-90)scale(0.165 -0.165)">
       <use xlink:href="#ArialMT-73"/>
       <use x="27.783203" xlink:href="#ArialMT-114"/>
       <use x="61.083984" xlink:href="#ArialMT-114"/>
       <use x="94.384766" xlink:href="#ArialMT-105"/>
       <use x="116.601562" xlink:href="#ArialMT-103"/>
       <use x="172.216797" xlink:href="#ArialMT-97"/>
       <use x="227.832031" xlink:href="#ArialMT-116"/>
       <use x="255.615234" xlink:href="#ArialMT-105"/>
       <use x="277.832031" xlink:href="#ArialMT-111"/>
       <use x="333.447266" xlink:href="#ArialMT-110"/>
       <use x="389.0625" xlink:href="#ArialMT-32"/>
       <use x="416.845703" xlink:href="#ArialMT-72"/>
       <use x="489.0625" xlink:href="#ArialMT-105"/>
       <use x="511.279297" xlink:href="#ArialMT-103"/>
       <use x="566.894531" xlink:href="#ArialMT-104"/>
      </g>
     </g>
    </g>
    <g id="xtick_2">
     <g id="text_2">
      <!-- Irrigation Intermediate -->
      <defs>
       <path d="M 42.09375 16.703125 
L 51.171875 15.578125 
Q 49.03125 7.625 43.21875 3.21875 
Q 37.40625 -1.171875 28.375 -1.171875 
Q 17 -1.171875 10.328125 5.828125 
Q 3.65625 12.84375 3.65625 25.484375 
Q 3.65625 38.578125 10.390625 45.796875 
Q 17.140625 53.03125 27.875 53.03125 
Q 38.28125 53.03125 44.875 45.953125 
Q 51.46875 38.875 51.46875 26.03125 
Q 51.46875 25.25 51.421875 23.6875 
L 12.75 23.6875 
Q 13.234375 15.140625 17.578125 10.59375 
Q 21.921875 6.0625 28.421875 6.0625 
Q 33.25 6.0625 36.671875 8.59375 
Q 40.09375 11.140625 42.09375 16.703125 
z
M 13.234375 30.90625 
L 42.1875 30.90625 
Q 41.609375 37.453125 38.875 40.71875 
Q 34.671875 45.796875 27.984375 45.796875 
Q 21.921875 45.796875 17.796875 41.75 
Q 13.671875 37.703125 13.234375 30.90625 
z
" id="ArialMT-101"/>
       <path d="M 6.59375 0 
L 6.59375 51.859375 
L 14.453125 51.859375 
L 14.453125 44.578125 
Q 16.890625 48.390625 20.9375 50.703125 
Q 25 53.03125 30.171875 53.03125 
Q 35.9375 53.03125 39.625 50.640625 
Q 43.3125 48.25 44.828125 43.953125 
Q 50.984375 53.03125 60.84375 53.03125 
Q 68.5625 53.03125 72.703125 48.75 
Q 76.859375 44.484375 76.859375 35.59375 
L 76.859375 0 
L 68.109375 0 
L 68.109375 32.671875 
Q 68.109375 37.9375 67.25 40.25 
Q 66.40625 42.578125 64.15625 43.984375 
Q 61.921875 45.40625 58.890625 45.40625 
Q 53.421875 45.40625 49.796875 41.765625 
Q 46.1875 38.140625 46.1875 30.125 
L 46.1875 0 
L 37.40625 0 
L 37.40625 33.6875 
Q 37.40625 39.546875 35.25 42.46875 
Q 33.109375 45.40625 28.21875 45.40625 
Q 24.515625 45.40625 21.359375 43.453125 
Q 18.21875 41.5 16.796875 37.734375 
Q 15.375 33.984375 15.375 26.90625 
L 15.375 0 
z
" id="ArialMT-109"/>
       <path d="M 40.234375 0 
L 40.234375 6.546875 
Q 35.296875 -1.171875 25.734375 -1.171875 
Q 19.53125 -1.171875 14.328125 2.25 
Q 9.125 5.671875 6.265625 11.796875 
Q 3.421875 17.921875 3.421875 25.875 
Q 3.421875 33.640625 6 39.96875 
Q 8.59375 46.296875 13.765625 49.65625 
Q 18.953125 53.03125 25.34375 53.03125 
Q 30.03125 53.03125 33.6875 51.046875 
Q 37.359375 49.078125 39.65625 45.90625 
L 39.65625 71.578125 
L 48.390625 71.578125 
L 48.390625 0 
z
M 12.453125 25.875 
Q 12.453125 15.921875 16.640625 10.984375 
Q 20.84375 6.0625 26.5625 6.0625 
Q 32.328125 6.0625 36.34375 10.765625 
Q 40.375 15.484375 40.375 25.140625 
Q 40.375 35.796875 36.265625 40.765625 
Q 32.171875 45.75 26.171875 45.75 
Q 20.3125 45.75 16.375 40.96875 
Q 12.453125 36.1875 12.453125 25.875 
z
" id="ArialMT-100"/>
      </defs>
      <g style="fill:#262626;" transform="translate(134.861228 458.815625)rotate(-90)scale(0.165 -0.165)">
       <use xlink:href="#ArialMT-73"/>
       <use x="27.783203" xlink:href="#ArialMT-114"/>
       <use x="61.083984" xlink:href="#ArialMT-114"/>
       <use x="94.384766" xlink:href="#ArialMT-105"/>
       <use x="116.601562" xlink:href="#ArialMT-103"/>
       <use x="172.216797" xlink:href="#ArialMT-97"/>
       <use x="227.832031" xlink:href="#ArialMT-116"/>
       <use x="255.615234" xlink:href="#ArialMT-105"/>
       <use x="277.832031" xlink:href="#ArialMT-111"/>
       <use x="333.447266" xlink:href="#ArialMT-110"/>
       <use x="389.0625" xlink:href="#ArialMT-32"/>
       <use x="416.845703" xlink:href="#ArialMT-73"/>
       <use x="444.628906" xlink:href="#ArialMT-110"/>
       <use x="500.244141" xlink:href="#ArialMT-116"/>
       <use x="528.027344" xlink:href="#ArialMT-101"/>
       <use x="583.642578" xlink:href="#ArialMT-114"/>
       <use x="616.943359" xlink:href="#ArialMT-109"/>
       <use x="700.244141" xlink:href="#ArialMT-101"/>
       <use x="755.859375" xlink:href="#ArialMT-100"/>
       <use x="811.474609" xlink:href="#ArialMT-105"/>
       <use x="833.691406" xlink:href="#ArialMT-97"/>
       <use x="889.306641" xlink:href="#ArialMT-116"/>
       <use x="917.089844" xlink:href="#ArialMT-101"/>
      </g>
     </g>
    </g>
    <g id="xtick_3">
     <g id="text_3">
      <!-- Rain-fed High -->
      <defs>
       <path d="M 7.859375 0 
L 7.859375 71.578125 
L 39.59375 71.578125 
Q 49.171875 71.578125 54.140625 69.640625 
Q 59.125 67.71875 62.109375 62.828125 
Q 65.09375 57.953125 65.09375 52.046875 
Q 65.09375 44.4375 60.15625 39.203125 
Q 55.21875 33.984375 44.921875 32.5625 
Q 48.6875 30.765625 50.640625 29 
Q 54.78125 25.203125 58.5 19.484375 
L 70.953125 0 
L 59.03125 0 
L 49.5625 14.890625 
Q 45.40625 21.34375 42.71875 24.75 
Q 40.046875 28.171875 37.921875 29.53125 
Q 35.796875 30.90625 33.59375 31.453125 
Q 31.984375 31.78125 28.328125 31.78125 
L 17.328125 31.78125 
L 17.328125 0 
z
M 17.328125 39.984375 
L 37.703125 39.984375 
Q 44.1875 39.984375 47.84375 41.328125 
Q 51.515625 42.671875 53.421875 45.625 
Q 55.328125 48.578125 55.328125 52.046875 
Q 55.328125 57.125 51.640625 60.390625 
Q 47.953125 63.671875 39.984375 63.671875 
L 17.328125 63.671875 
z
" id="ArialMT-82"/>
       <path d="M 3.171875 21.484375 
L 3.171875 30.328125 
L 30.171875 30.328125 
L 30.171875 21.484375 
z
" id="ArialMT-45"/>
       <path d="M 8.6875 0 
L 8.6875 45.015625 
L 0.921875 45.015625 
L 0.921875 51.859375 
L 8.6875 51.859375 
L 8.6875 57.375 
Q 8.6875 62.59375 9.625 65.140625 
Q 10.890625 68.5625 14.078125 70.671875 
Q 17.28125 72.796875 23.046875 72.796875 
Q 26.765625 72.796875 31.25 71.921875 
L 29.9375 64.265625 
Q 27.203125 64.75 24.75 64.75 
Q 20.75 64.75 19.09375 63.03125 
Q 17.4375 61.328125 17.4375 56.640625 
L 17.4375 51.859375 
L 27.546875 51.859375 
L 27.546875 45.015625 
L 17.4375 45.015625 
L 17.4375 0 
z
" id="ArialMT-102"/>
      </defs>
      <g style="fill:#262626;" transform="translate(187.594729 399.211953)rotate(-90)scale(0.165 -0.165)">
       <use xlink:href="#ArialMT-82"/>
       <use x="72.216797" xlink:href="#ArialMT-97"/>
       <use x="127.832031" xlink:href="#ArialMT-105"/>
       <use x="150.048828" xlink:href="#ArialMT-110"/>
       <use x="205.664062" xlink:href="#ArialMT-45"/>
       <use x="238.964844" xlink:href="#ArialMT-102"/>
       <use x="266.748047" xlink:href="#ArialMT-101"/>
       <use x="322.363281" xlink:href="#ArialMT-100"/>
       <use x="377.978516" xlink:href="#ArialMT-32"/>
       <use x="405.761719" xlink:href="#ArialMT-72"/>
       <use x="477.978516" xlink:href="#ArialMT-105"/>
       <use x="500.195312" xlink:href="#ArialMT-103"/>
       <use x="555.810547" xlink:href="#ArialMT-104"/>
      </g>
     </g>
    </g>
    <g id="xtick_4">
     <g id="text_4">
      <!-- Rain-fed Intermediate -->
      <g style="fill:#262626;" transform="translate(240.223816 456.987734)rotate(-90)scale(0.165 -0.165)">
       <use xlink:href="#ArialMT-82"/>
       <use x="72.216797" xlink:href="#ArialMT-97"/>
       <use x="127.832031" xlink:href="#ArialMT-105"/>
       <use x="150.048828" xlink:href="#ArialMT-110"/>
       <use x="205.664062" xlink:href="#ArialMT-45"/>
       <use x="238.964844" xlink:href="#ArialMT-102"/>
       <use x="266.748047" xlink:href="#ArialMT-101"/>
       <use x="322.363281" xlink:href="#ArialMT-100"/>
       <use x="377.978516" xlink:href="#ArialMT-32"/>
       <use x="405.761719" xlink:href="#ArialMT-73"/>
       <use x="433.544922" xlink:href="#ArialMT-110"/>
       <use x="489.160156" xlink:href="#ArialMT-116"/>
       <use x="516.943359" xlink:href="#ArialMT-101"/>
       <use x="572.558594" xlink:href="#ArialMT-114"/>
       <use x="605.859375" xlink:href="#ArialMT-109"/>
       <use x="689.160156" xlink:href="#ArialMT-101"/>
       <use x="744.775391" xlink:href="#ArialMT-100"/>
       <use x="800.390625" xlink:href="#ArialMT-105"/>
       <use x="822.607422" xlink:href="#ArialMT-97"/>
       <use x="878.222656" xlink:href="#ArialMT-116"/>
       <use x="906.005859" xlink:href="#ArialMT-101"/>
      </g>
     </g>
    </g>
    <g id="xtick_5">
     <g id="text_5">
      <!-- Rain-fed Low -->
      <defs>
       <path d="M 7.328125 0 
L 7.328125 71.578125 
L 16.796875 71.578125 
L 16.796875 8.453125 
L 52.046875 8.453125 
L 52.046875 0 
z
" id="ArialMT-76"/>
       <path d="M 16.15625 0 
L 0.296875 51.859375 
L 9.375 51.859375 
L 17.625 21.921875 
L 20.703125 10.796875 
Q 20.90625 11.625 23.390625 21.484375 
L 31.640625 51.859375 
L 40.671875 51.859375 
L 48.4375 21.78125 
L 51.03125 11.859375 
L 54 21.875 
L 62.890625 51.859375 
L 71.4375 51.859375 
L 55.21875 0 
L 46.09375 0 
L 37.84375 31.0625 
L 35.84375 39.890625 
L 25.34375 0 
z
" id="ArialMT-119"/>
      </defs>
      <g style="fill:#262626;" transform="translate(292.85677 395.545859)rotate(-90)scale(0.165 -0.165)">
       <use xlink:href="#ArialMT-82"/>
       <use x="72.216797" xlink:href="#ArialMT-97"/>
       <use x="127.832031" xlink:href="#ArialMT-105"/>
       <use x="150.048828" xlink:href="#ArialMT-110"/>
       <use x="205.664062" xlink:href="#ArialMT-45"/>
       <use x="238.964844" xlink:href="#ArialMT-102"/>
       <use x="266.748047" xlink:href="#ArialMT-101"/>
       <use x="322.363281" xlink:href="#ArialMT-100"/>
       <use x="377.978516" xlink:href="#ArialMT-32"/>
       <use x="405.761719" xlink:href="#ArialMT-76"/>
       <use x="461.376953" xlink:href="#ArialMT-111"/>
       <use x="516.992188" xlink:href="#ArialMT-119"/>
      </g>
     </g>
    </g>
   </g>
   <g id="matplotlib.axis_2">
    <g id="ytick_1">
     <g id="text_6">
      <!-- 0 -->
      <defs>
       <path d="M 4.15625 35.296875 
Q 4.15625 48 6.765625 55.734375 
Q 9.375 63.484375 14.515625 67.671875 
Q 19.671875 71.875 27.484375 71.875 
Q 33.25 71.875 37.59375 69.546875 
Q 41.9375 67.234375 44.765625 62.859375 
Q 47.609375 58.5 49.21875 52.21875 
Q 50.828125 45.953125 50.828125 35.296875 
Q 50.828125 22.703125 48.234375 14.96875 
Q 45.65625 7.234375 40.5 3 
Q 35.359375 -1.21875 27.484375 -1.21875 
Q 17.140625 -1.21875 11.234375 6.203125 
Q 4.15625 15.140625 4.15625 35.296875 
z
M 13.1875 35.296875 
Q 13.1875 17.671875 17.3125 11.828125 
Q 21.4375 6 27.484375 6 
Q 33.546875 6 37.671875 11.859375 
Q 41.796875 17.71875 41.796875 35.296875 
Q 41.796875 52.984375 37.671875 58.78125 
Q 33.546875 64.59375 27.390625 64.59375 
Q 21.34375 64.59375 17.71875 59.46875 
Q 13.1875 52.9375 13.1875 35.296875 
z
" id="ArialMT-48"/>
      </defs>
      <g style="fill:#262626;" transform="translate(30.067422 280.163491)scale(0.165 -0.165)">
       <use xlink:href="#ArialMT-48"/>
      </g>
     </g>
    </g>
    <g id="ytick_2">
     <g id="text_7">
      <!-- 2 -->
      <defs>
       <path d="M 50.34375 8.453125 
L 50.34375 0 
L 3.03125 0 
Q 2.9375 3.171875 4.046875 6.109375 
Q 5.859375 10.9375 9.828125 15.625 
Q 13.8125 20.3125 21.34375 26.46875 
Q 33.015625 36.03125 37.109375 41.625 
Q 41.21875 47.21875 41.21875 52.203125 
Q 41.21875 57.421875 37.46875 61 
Q 33.734375 64.59375 27.734375 64.59375 
Q 21.390625 64.59375 17.578125 60.78125 
Q 13.765625 56.984375 13.71875 50.25 
L 4.6875 51.171875 
Q 5.609375 61.28125 11.65625 66.578125 
Q 17.71875 71.875 27.9375 71.875 
Q 38.234375 71.875 44.234375 66.15625 
Q 50.25 60.453125 50.25 52 
Q 50.25 47.703125 48.484375 43.546875 
Q 46.734375 39.40625 42.65625 34.8125 
Q 38.578125 30.21875 29.109375 22.21875 
Q 21.1875 15.578125 18.9375 13.203125 
Q 16.703125 10.84375 15.234375 8.453125 
z
" id="ArialMT-50"/>
      </defs>
      <g style="fill:#262626;" transform="translate(30.067422 236.15511)scale(0.165 -0.165)">
       <use xlink:href="#ArialMT-50"/>
      </g>
     </g>
    </g>
    <g id="ytick_3">
     <g id="text_8">
      <!-- 4 -->
      <defs>
       <path d="M 32.328125 0 
L 32.328125 17.140625 
L 1.265625 17.140625 
L 1.265625 25.203125 
L 33.9375 71.578125 
L 41.109375 71.578125 
L 41.109375 25.203125 
L 50.78125 25.203125 
L 50.78125 17.140625 
L 41.109375 17.140625 
L 41.109375 0 
z
M 32.328125 25.203125 
L 32.328125 57.46875 
L 9.90625 25.203125 
z
" id="ArialMT-52"/>
      </defs>
      <g style="fill:#262626;" transform="translate(30.067422 192.14673)scale(0.165 -0.165)">
       <use xlink:href="#ArialMT-52"/>
      </g>
     </g>
    </g>
    <g id="ytick_4">
     <g id="text_9">
      <!-- 6 -->
      <defs>
       <path d="M 49.75 54.046875 
L 41.015625 53.375 
Q 39.84375 58.546875 37.703125 60.890625 
Q 34.125 64.65625 28.90625 64.65625 
Q 24.703125 64.65625 21.53125 62.3125 
Q 17.390625 59.28125 14.984375 53.46875 
Q 12.59375 47.65625 12.5 36.921875 
Q 15.671875 41.75 20.265625 44.09375 
Q 24.859375 46.4375 29.890625 46.4375 
Q 38.671875 46.4375 44.84375 39.96875 
Q 51.03125 33.5 51.03125 23.25 
Q 51.03125 16.5 48.125 10.71875 
Q 45.21875 4.9375 40.140625 1.859375 
Q 35.0625 -1.21875 28.609375 -1.21875 
Q 17.625 -1.21875 10.6875 6.859375 
Q 3.765625 14.9375 3.765625 33.5 
Q 3.765625 54.25 11.421875 63.671875 
Q 18.109375 71.875 29.4375 71.875 
Q 37.890625 71.875 43.28125 67.140625 
Q 48.6875 62.40625 49.75 54.046875 
z
M 13.875 23.1875 
Q 13.875 18.65625 15.796875 14.5 
Q 17.71875 10.359375 21.1875 8.171875 
Q 24.65625 6 28.46875 6 
Q 34.03125 6 38.03125 10.484375 
Q 42.046875 14.984375 42.046875 22.703125 
Q 42.046875 30.125 38.078125 34.390625 
Q 34.125 38.671875 28.125 38.671875 
Q 22.171875 38.671875 18.015625 34.390625 
Q 13.875 30.125 13.875 23.1875 
z
" id="ArialMT-54"/>
      </defs>
      <g style="fill:#262626;" transform="translate(30.067422 148.13835)scale(0.165 -0.165)">
       <use xlink:href="#ArialMT-54"/>
      </g>
     </g>
    </g>
    <g id="ytick_5">
     <g id="text_10">
      <!-- 8 -->
      <defs>
       <path d="M 17.671875 38.8125 
Q 12.203125 40.828125 9.5625 44.53125 
Q 6.9375 48.25 6.9375 53.421875 
Q 6.9375 61.234375 12.546875 66.546875 
Q 18.171875 71.875 27.484375 71.875 
Q 36.859375 71.875 42.578125 66.421875 
Q 48.296875 60.984375 48.296875 53.171875 
Q 48.296875 48.1875 45.671875 44.5 
Q 43.0625 40.828125 37.75 38.8125 
Q 44.34375 36.671875 47.78125 31.875 
Q 51.21875 27.09375 51.21875 20.453125 
Q 51.21875 11.28125 44.71875 5.03125 
Q 38.234375 -1.21875 27.640625 -1.21875 
Q 17.046875 -1.21875 10.546875 5.046875 
Q 4.046875 11.328125 4.046875 20.703125 
Q 4.046875 27.6875 7.59375 32.390625 
Q 11.140625 37.109375 17.671875 38.8125 
z
M 15.921875 53.71875 
Q 15.921875 48.640625 19.1875 45.40625 
Q 22.46875 42.1875 27.6875 42.1875 
Q 32.765625 42.1875 36.015625 45.375 
Q 39.265625 48.578125 39.265625 53.21875 
Q 39.265625 58.0625 35.90625 61.359375 
Q 32.5625 64.65625 27.59375 64.65625 
Q 22.5625 64.65625 19.234375 61.421875 
Q 15.921875 58.203125 15.921875 53.71875 
z
M 13.09375 20.65625 
Q 13.09375 16.890625 14.875 13.375 
Q 16.65625 9.859375 20.171875 7.921875 
Q 23.6875 6 27.734375 6 
Q 34.03125 6 38.125 10.046875 
Q 42.234375 14.109375 42.234375 20.359375 
Q 42.234375 26.703125 38.015625 30.859375 
Q 33.796875 35.015625 27.4375 35.015625 
Q 21.234375 35.015625 17.15625 30.90625 
Q 13.09375 26.8125 13.09375 20.65625 
z
" id="ArialMT-56"/>
      </defs>
      <g style="fill:#262626;" transform="translate(30.067422 104.129969)scale(0.165 -0.165)">
       <use xlink:href="#ArialMT-56"/>
      </g>
     </g>
    </g>
    <g id="ytick_6">
     <g id="text_11">
      <!-- 10 -->
      <defs>
       <path d="M 37.25 0 
L 28.46875 0 
L 28.46875 56 
Q 25.296875 52.984375 20.140625 49.953125 
Q 14.984375 46.921875 10.890625 45.40625 
L 10.890625 53.90625 
Q 18.265625 57.375 23.78125 62.296875 
Q 29.296875 67.234375 31.59375 71.875 
L 37.25 71.875 
z
" id="ArialMT-49"/>
      </defs>
      <g style="fill:#262626;" transform="translate(20.891875 60.121589)scale(0.165 -0.165)">
       <use xlink:href="#ArialMT-49"/>
       <use x="55.615234" xlink:href="#ArialMT-48"/>
      </g>
     </g>
    </g>
    <g id="text_12">
     <!-- Yield (t/ha) -->
     <defs>
      <path d="M 27.875 0 
L 27.875 30.328125 
L 0.296875 71.578125 
L 11.8125 71.578125 
L 25.921875 50 
Q 29.828125 43.953125 33.203125 37.890625 
Q 36.421875 43.5 41.015625 50.53125 
L 54.890625 71.578125 
L 65.921875 71.578125 
L 37.359375 30.328125 
L 37.359375 0 
z
" id="ArialMT-89"/>
      <path d="M 6.390625 0 
L 6.390625 71.578125 
L 15.1875 71.578125 
L 15.1875 0 
z
" id="ArialMT-108"/>
      <path d="M 23.390625 -21.046875 
Q 16.109375 -11.859375 11.078125 0.4375 
Q 6.0625 12.75 6.0625 25.921875 
Q 6.0625 37.546875 9.8125 48.1875 
Q 14.203125 60.546875 23.390625 72.796875 
L 29.6875 72.796875 
Q 23.78125 62.640625 21.875 58.296875 
Q 18.890625 51.5625 17.1875 44.234375 
Q 15.09375 35.109375 15.09375 25.875 
Q 15.09375 2.390625 29.6875 -21.046875 
z
" id="ArialMT-40"/>
      <path d="M 0 -1.21875 
L 20.75 72.796875 
L 27.78125 72.796875 
L 7.078125 -1.21875 
z
" id="ArialMT-47"/>
      <path d="M 12.359375 -21.046875 
L 6.0625 -21.046875 
Q 20.65625 2.390625 20.65625 25.875 
Q 20.65625 35.0625 18.5625 44.09375 
Q 16.890625 51.421875 13.921875 58.15625 
Q 12.015625 62.546875 6.0625 72.796875 
L 12.359375 72.796875 
Q 21.53125 60.546875 25.921875 48.1875 
Q 29.6875 37.546875 29.6875 25.921875 
Q 29.6875 12.75 24.625 0.4375 
Q 19.578125 -11.859375 12.359375 -21.046875 
z
" id="ArialMT-41"/>
     </defs>
     <g style="fill:#262626;" transform="translate(13.103437 202.028438)rotate(-90)scale(0.18 -0.18)">
      <use xlink:href="#ArialMT-89"/>
      <use x="66.652344" xlink:href="#ArialMT-105"/>
      <use x="88.869141" xlink:href="#ArialMT-101"/>
      <use x="144.484375" xlink:href="#ArialMT-108"/>
      <use x="166.701172" xlink:href="#ArialMT-100"/>
      <use x="222.316406" xlink:href="#ArialMT-32"/>
      <use x="250.099609" xlink:href="#ArialMT-40"/>
      <use x="283.400391" xlink:href="#ArialMT-116"/>
      <use x="311.183594" xlink:href="#ArialMT-47"/>
      <use x="338.966797" xlink:href="#ArialMT-104"/>
      <use x="394.582031" xlink:href="#ArialMT-97"/>
      <use x="450.197266" xlink:href="#ArialMT-41"/>
     </g>
    </g>
   </g>
   <g id="PolyCollection_1">
    <defs>
     <path d="M 67.615885 -184.55733 
L 67.449825 -184.55733 
L 67.459926 -186.895553 
L 67.483437 -189.233776 
L 67.507021 -191.571999 
L 67.522436 -193.910222 
L 67.529613 -196.248445 
L 67.532077 -198.586668 
L 67.532711 -200.924892 
L 67.532834 -203.263115 
L 67.532853 -205.601338 
L 67.532855 -207.939561 
L 67.532855 -210.277784 
L 67.532855 -212.616007 
L 67.532855 -214.95423 
L 67.532855 -217.292454 
L 67.532855 -219.630677 
L 67.532855 -221.9689 
L 67.532855 -224.307123 
L 67.532855 -226.645346 
L 67.532855 -228.983569 
L 67.532855 -231.321792 
L 67.532855 -233.660015 
L 67.532855 -235.998239 
L 67.532855 -238.336462 
L 67.532855 -240.674685 
L 67.532855 -243.012908 
L 67.532855 -245.351131 
L 67.532855 -247.689354 
L 67.532855 -250.027577 
L 67.532855 -252.365801 
L 67.532855 -254.704024 
L 67.532855 -257.042247 
L 67.532855 -259.38047 
L 67.532855 -261.718693 
L 67.532855 -264.056916 
L 67.532855 -266.395139 
L 67.532855 -268.733363 
L 67.532855 -271.071586 
L 67.532855 -273.409809 
L 67.532855 -275.748032 
L 67.532855 -278.086255 
L 67.532855 -280.424478 
L 67.532855 -282.762701 
L 67.532853 -285.100925 
L 67.532839 -287.439148 
L 67.532761 -289.777371 
L 67.532416 -292.115594 
L 67.531266 -294.453817 
L 67.528391 -296.79204 
L 67.523092 -299.130263 
L 67.516082 -301.468487 
L 67.509544 -303.80671 
L 67.50422 -306.144933 
L 67.495261 -308.483156 
L 67.471145 -310.821379 
L 67.416631 -313.159602 
L 67.316986 -315.497825 
L 67.163813 -317.836049 
L 66.964383 -320.174272 
L 66.747795 -322.512495 
L 66.556838 -324.850718 
L 66.428258 -327.188941 
L 66.376036 -329.527164 
L 66.384299 -331.865387 
L 66.411163 -334.203611 
L 66.410317 -336.541834 
L 66.363028 -338.880057 
L 66.289971 -341.21828 
L 66.228459 -343.556503 
L 66.200875 -345.894726 
L 66.20432 -348.232949 
L 66.220905 -350.571173 
L 66.233043 -352.909396 
L 66.23682 -355.247619 
L 66.24738 -357.585842 
L 66.285922 -359.924065 
L 66.354667 -362.262288 
L 66.424706 -364.600511 
L 66.445034 -366.938735 
L 66.35318 -369.276958 
L 66.081889 -371.615181 
L 65.590864 -373.953404 
L 64.922112 -376.291627 
L 64.196326 -378.62985 
L 63.494294 -380.968073 
L 62.734526 -383.306296 
L 61.724346 -385.64452 
L 60.381439 -387.982743 
L 58.90998 -390.320966 
L 57.71801 -392.659189 
L 57.101004 -394.997412 
L 57.006264 -397.335635 
L 57.168175 -399.673858 
L 57.4582 -402.012082 
L 58.003056 -404.350305 
L 58.961115 -406.688528 
L 60.306096 -409.026751 
L 61.866536 -411.364974 
L 63.460817 -413.703197 
L 64.923251 -416.04142 
L 70.142459 -416.04142 
L 70.142459 -416.04142 
L 71.604893 -413.703197 
L 73.199174 -411.364974 
L 74.759613 -409.026751 
L 76.104595 -406.688528 
L 77.062654 -404.350305 
L 77.60751 -402.012082 
L 77.897535 -399.673858 
L 78.059446 -397.335635 
L 77.964706 -394.997412 
L 77.3477 -392.659189 
L 76.15573 -390.320966 
L 74.684271 -387.982743 
L 73.341363 -385.64452 
L 72.331183 -383.306296 
L 71.571416 -380.968073 
L 70.869384 -378.62985 
L 70.143598 -376.291627 
L 69.474846 -373.953404 
L 68.983821 -371.615181 
L 68.712529 -369.276958 
L 68.620675 -366.938735 
L 68.641004 -364.600511 
L 68.711043 -362.262288 
L 68.779788 -359.924065 
L 68.81833 -357.585842 
L 68.82889 -355.247619 
L 68.832667 -352.909396 
L 68.844805 -350.571173 
L 68.86139 -348.232949 
L 68.864835 -345.894726 
L 68.83725 -343.556503 
L 68.775739 -341.21828 
L 68.702682 -338.880057 
L 68.655393 -336.541834 
L 68.654547 -334.203611 
L 68.681411 -331.865387 
L 68.689674 -329.527164 
L 68.637452 -327.188941 
L 68.508872 -324.850718 
L 68.317915 -322.512495 
L 68.101327 -320.174272 
L 67.901897 -317.836049 
L 67.748723 -315.497825 
L 67.649079 -313.159602 
L 67.594565 -310.821379 
L 67.570449 -308.483156 
L 67.561489 -306.144933 
L 67.556166 -303.80671 
L 67.549628 -301.468487 
L 67.542618 -299.130263 
L 67.537319 -296.79204 
L 67.534444 -294.453817 
L 67.533294 -292.115594 
L 67.532949 -289.777371 
L 67.532871 -287.439148 
L 67.532857 -285.100925 
L 67.532855 -282.762701 
L 67.532855 -280.424478 
L 67.532855 -278.086255 
L 67.532855 -275.748032 
L 67.532855 -273.409809 
L 67.532855 -271.071586 
L 67.532855 -268.733363 
L 67.532855 -266.395139 
L 67.532855 -264.056916 
L 67.532855 -261.718693 
L 67.532855 -259.38047 
L 67.532855 -257.042247 
L 67.532855 -254.704024 
L 67.532855 -252.365801 
L 67.532855 -250.027577 
L 67.532855 -247.689354 
L 67.532855 -245.351131 
L 67.532855 -243.012908 
L 67.532855 -240.674685 
L 67.532855 -238.336462 
L 67.532855 -235.998239 
L 67.532855 -233.660015 
L 67.532855 -231.321792 
L 67.532855 -228.983569 
L 67.532855 -226.645346 
L 67.532855 -224.307123 
L 67.532855 -221.9689 
L 67.532855 -219.630677 
L 67.532855 -217.292454 
L 67.532855 -214.95423 
L 67.532855 -212.616007 
L 67.532855 -210.277784 
L 67.532855 -207.939561 
L 67.532857 -205.601338 
L 67.532876 -203.263115 
L 67.532999 -200.924892 
L 67.533633 -198.586668 
L 67.536097 -196.248445 
L 67.543274 -193.910222 
L 67.558689 -191.571999 
L 67.582273 -189.233776 
L 67.605784 -186.895553 
L 67.615885 -184.55733 
z
" id="m83b682709e" style="stroke:#444444;stroke-width:1.5;"/>
    </defs>
    <g clip-path="url(#p2728a28c54)">
     <use style="fill:#e68193;stroke:#444444;stroke-width:1.5;" x="0" xlink:href="#m83b682709e" y="458.815625"/>
    </g>
   </g>
   <g id="PolyCollection_2">
    <defs>
     <path d="M 88.918164 -203.027308 
L 88.253909 -203.027308 
L 88.254701 -205.094862 
L 88.257099 -207.162416 
L 88.261066 -209.22997 
L 88.266541 -211.297524 
L 88.273443 -213.365078 
L 88.281667 -215.432633 
L 88.291095 -217.500187 
L 88.301591 -219.567741 
L 88.313005 -221.635295 
L 88.32518 -223.702849 
L 88.337949 -225.770403 
L 88.351144 -227.837958 
L 88.364593 -229.905512 
L 88.378128 -231.973066 
L 88.39158 -234.04062 
L 88.404788 -236.108174 
L 88.417597 -238.175728 
L 88.42986 -240.243282 
L 88.441435 -242.310837 
L 88.452193 -244.378391 
L 88.462008 -246.445945 
L 88.470764 -248.513499 
L 88.47835 -250.581053 
L 88.484661 -252.648607 
L 88.489594 -254.716161 
L 88.493051 -256.783716 
L 88.494932 -258.85127 
L 88.495138 -260.918824 
L 88.493566 -262.986378 
L 88.490112 -265.053932 
L 88.484666 -267.121486 
L 88.477116 -269.18904 
L 88.467342 -271.256595 
L 88.455221 -273.324149 
L 88.440626 -275.391703 
L 88.423426 -277.459257 
L 88.403489 -279.526811 
L 88.380682 -281.594365 
L 88.354874 -283.661919 
L 88.325937 -285.729474 
L 88.293752 -287.797028 
L 88.258206 -289.864582 
L 88.2192 -291.932136 
L 88.176648 -293.99969 
L 88.130481 -296.067244 
L 88.08065 -298.134799 
L 88.027127 -300.202353 
L 87.969905 -302.269907 
L 87.909003 -304.337461 
L 87.844466 -306.405015 
L 87.776361 -308.472569 
L 87.704784 -310.540123 
L 87.629852 -312.607678 
L 87.551709 -314.675232 
L 87.470518 -316.742786 
L 87.386466 -318.81034 
L 87.299755 -320.877894 
L 87.210606 -322.945448 
L 87.119254 -325.013002 
L 87.025946 -327.080557 
L 86.930941 -329.148111 
L 86.834507 -331.215665 
L 86.736922 -333.283219 
L 86.638472 -335.350773 
L 86.539455 -337.418327 
L 86.440176 -339.485881 
L 86.340953 -341.553436 
L 86.242121 -343.62099 
L 86.144028 -345.688544 
L 86.047043 -347.756098 
L 85.951557 -349.823652 
L 85.857984 -351.891206 
L 85.766767 -353.95876 
L 85.678375 -356.026315 
L 85.593306 -358.093869 
L 85.512088 -360.161423 
L 85.435273 -362.228977 
L 85.363436 -364.296531 
L 85.29717 -366.364085 
L 85.237081 -368.43164 
L 85.183776 -370.499194 
L 85.137856 -372.566748 
L 85.099906 -374.634302 
L 85.07048 -376.701856 
L 85.050092 -378.76941 
L 85.039201 -380.836964 
L 85.0382 -382.904519 
L 85.0474 -384.972073 
L 85.067024 -387.039627 
L 85.097194 -389.107181 
L 85.137922 -391.174735 
L 85.189108 -393.242289 
L 85.250533 -395.309843 
L 85.321861 -397.377398 
L 85.402637 -399.444952 
L 85.492297 -401.512506 
L 85.590169 -403.58006 
L 85.695491 -405.647614 
L 85.807416 -407.715168 
L 91.364658 -407.715168 
L 91.364658 -407.715168 
L 91.476582 -405.647614 
L 91.581904 -403.58006 
L 91.679777 -401.512506 
L 91.769436 -399.444952 
L 91.850212 -397.377398 
L 91.92154 -395.309843 
L 91.982965 -393.242289 
L 92.034151 -391.174735 
L 92.074879 -389.107181 
L 92.105049 -387.039627 
L 92.124673 -384.972073 
L 92.133873 -382.904519 
L 92.132872 -380.836964 
L 92.121981 -378.76941 
L 92.101593 -376.701856 
L 92.072168 -374.634302 
L 92.034217 -372.566748 
L 91.988297 -370.499194 
L 91.934992 -368.43164 
L 91.874903 -366.364085 
L 91.808638 -364.296531 
L 91.736801 -362.228977 
L 91.659985 -360.161423 
L 91.578767 -358.093869 
L 91.493698 -356.026315 
L 91.405306 -353.95876 
L 91.314089 -351.891206 
L 91.220516 -349.823652 
L 91.12503 -347.756098 
L 91.028045 -345.688544 
L 90.929952 -343.62099 
L 90.83112 -341.553436 
L 90.731898 -339.485881 
L 90.632618 -337.418327 
L 90.533601 -335.350773 
L 90.435151 -333.283219 
L 90.337566 -331.215665 
L 90.241132 -329.148111 
L 90.146127 -327.080557 
L 90.052819 -325.013002 
L 89.961467 -322.945448 
L 89.872318 -320.877894 
L 89.785607 -318.81034 
L 89.701555 -316.742786 
L 89.620364 -314.675232 
L 89.542221 -312.607678 
L 89.467289 -310.540123 
L 89.395712 -308.472569 
L 89.327607 -306.405015 
L 89.26307 -304.337461 
L 89.202168 -302.269907 
L 89.144947 -300.202353 
L 89.091423 -298.134799 
L 89.041592 -296.067244 
L 88.995426 -293.99969 
L 88.952874 -291.932136 
L 88.913867 -289.864582 
L 88.878322 -287.797028 
L 88.846136 -285.729474 
L 88.8172 -283.661919 
L 88.791391 -281.594365 
L 88.768584 -279.526811 
L 88.748647 -277.459257 
L 88.731447 -275.391703 
L 88.716852 -273.324149 
L 88.704731 -271.256595 
L 88.694957 -269.18904 
L 88.687407 -267.121486 
L 88.681961 -265.053932 
L 88.678507 -262.986378 
L 88.676935 -260.918824 
L 88.677141 -258.85127 
L 88.679022 -256.783716 
L 88.682479 -254.716161 
L 88.687412 -252.648607 
L 88.693723 -250.581053 
L 88.701309 -248.513499 
L 88.710065 -246.445945 
L 88.71988 -244.378391 
L 88.730638 -242.310837 
L 88.742213 -240.243282 
L 88.754476 -238.175728 
L 88.767285 -236.108174 
L 88.780494 -234.04062 
L 88.793946 -231.973066 
L 88.80748 -229.905512 
L 88.820929 -227.837958 
L 88.834124 -225.770403 
L 88.846894 -223.702849 
L 88.859068 -221.635295 
L 88.870482 -219.567741 
L 88.880978 -217.500187 
L 88.890406 -215.432633 
L 88.89863 -213.365078 
L 88.905532 -211.297524 
L 88.911007 -209.22997 
L 88.914974 -207.162416 
L 88.917372 -205.094862 
L 88.918164 -203.027308 
z
" id="me334310e0f" style="stroke:#444444;stroke-width:1.5;"/>
    </defs>
    <g clip-path="url(#p2728a28c54)">
     <use style="fill:#459e97;stroke:#444444;stroke-width:1.5;" x="0" xlink:href="#me334310e0f" y="458.815625"/>
    </g>
   </g>
   <g id="PolyCollection_3">
    <defs>
     <path d="M 120.248874 -184.55733 
L 120.082744 -184.55733 
L 120.092858 -186.128518 
L 120.116393 -187.699706 
L 120.139991 -189.270894 
L 120.155405 -190.842082 
L 120.162575 -192.41327 
L 120.165034 -193.984458 
L 120.165666 -195.555646 
L 120.165789 -197.126834 
L 120.165807 -198.698022 
L 120.165809 -200.26921 
L 120.165809 -201.840398 
L 120.165809 -203.411586 
L 120.165809 -204.982774 
L 120.165809 -206.553962 
L 120.165809 -208.12515 
L 120.165809 -209.696338 
L 120.165809 -211.267526 
L 120.165809 -212.838714 
L 120.165809 -214.409902 
L 120.165809 -215.98109 
L 120.165809 -217.552278 
L 120.165809 -219.123466 
L 120.165809 -220.694654 
L 120.165809 -222.265842 
L 120.165809 -223.83703 
L 120.165809 -225.408218 
L 120.165809 -226.979406 
L 120.165809 -228.550594 
L 120.165809 -230.121783 
L 120.165809 -231.692971 
L 120.165809 -233.264159 
L 120.165809 -234.835347 
L 120.165809 -236.406535 
L 120.165809 -237.977723 
L 120.165809 -239.548911 
L 120.165809 -241.120099 
L 120.165809 -242.691287 
L 120.165809 -244.262475 
L 120.165809 -245.833663 
L 120.165809 -247.404851 
L 120.165809 -248.976039 
L 120.165809 -250.547227 
L 120.165809 -252.118415 
L 120.165809 -253.689603 
L 120.165806 -255.260791 
L 120.165787 -256.831979 
L 120.165681 -258.403167 
L 120.165233 -259.974355 
L 120.163781 -261.545543 
L 120.160162 -263.116731 
L 120.153071 -264.687919 
L 120.141488 -266.259107 
L 120.123562 -267.830295 
L 120.093388 -269.401483 
L 120.038497 -270.972671 
L 119.942227 -272.543859 
L 119.792733 -274.115047 
L 119.595535 -275.686235 
L 119.379875 -277.257424 
L 119.189271 -278.828612 
L 119.060938 -280.3998 
L 119.008969 -281.970988 
L 119.017424 -283.542176 
L 119.044326 -285.113364 
L 119.043344 -286.684552 
L 118.995854 -288.25574 
L 118.922687 -289.826928 
L 118.861219 -291.398116 
L 118.833771 -292.969304 
L 118.837341 -294.540492 
L 118.853965 -296.11168 
L 118.866053 -297.682868 
L 118.869768 -299.254056 
L 118.88033 -300.825244 
L 118.918934 -302.396432 
L 118.987731 -303.96762 
L 119.057766 -305.538808 
L 119.07802 -307.109996 
L 118.98595 -308.681184 
L 118.714175 -310.252372 
L 118.222385 -311.82356 
L 117.552861 -313.394748 
L 116.826704 -314.965936 
L 116.124775 -316.537124 
L 115.36511 -318.108312 
L 114.354515 -319.6795 
L 113.010821 -321.250688 
L 111.539053 -322.821877 
L 110.347938 -324.393065 
L 109.732594 -325.964253 
L 109.639218 -327.535441 
L 109.801648 -329.106629 
L 110.091968 -330.677817 
L 110.637704 -332.249005 
L 111.597124 -333.820193 
L 112.943231 -335.391381 
L 114.504209 -336.962569 
L 116.098569 -338.533757 
L 117.560661 -340.104945 
L 122.770957 -340.104945 
L 122.770957 -340.104945 
L 124.233049 -338.533757 
L 125.827409 -336.962569 
L 127.388387 -335.391381 
L 128.734494 -333.820193 
L 129.693914 -332.249005 
L 130.239649 -330.677817 
L 130.52997 -329.106629 
L 130.6924 -327.535441 
L 130.599024 -325.964253 
L 129.98368 -324.393065 
L 128.792565 -322.821877 
L 127.320797 -321.250688 
L 125.977103 -319.6795 
L 124.966508 -318.108312 
L 124.206843 -316.537124 
L 123.504914 -314.965936 
L 122.778757 -313.394748 
L 122.109233 -311.82356 
L 121.617442 -310.252372 
L 121.345667 -308.681184 
L 121.253598 -307.109996 
L 121.273852 -305.538808 
L 121.343887 -303.96762 
L 121.412684 -302.396432 
L 121.451287 -300.825244 
L 121.461849 -299.254056 
L 121.465564 -297.682868 
L 121.477653 -296.11168 
L 121.494277 -294.540492 
L 121.497847 -292.969304 
L 121.470399 -291.398116 
L 121.408931 -289.826928 
L 121.335764 -288.25574 
L 121.288274 -286.684552 
L 121.287292 -285.113364 
L 121.314194 -283.542176 
L 121.322649 -281.970988 
L 121.27068 -280.3998 
L 121.142347 -278.828612 
L 120.951743 -277.257424 
L 120.736083 -275.686235 
L 120.538885 -274.115047 
L 120.389391 -272.543859 
L 120.293121 -270.972671 
L 120.23823 -269.401483 
L 120.208056 -267.830295 
L 120.19013 -266.259107 
L 120.178547 -264.687919 
L 120.171456 -263.116731 
L 120.167837 -261.545543 
L 120.166385 -259.974355 
L 120.165937 -258.403167 
L 120.165831 -256.831979 
L 120.165812 -255.260791 
L 120.165809 -253.689603 
L 120.165809 -252.118415 
L 120.165809 -250.547227 
L 120.165809 -248.976039 
L 120.165809 -247.404851 
L 120.165809 -245.833663 
L 120.165809 -244.262475 
L 120.165809 -242.691287 
L 120.165809 -241.120099 
L 120.165809 -239.548911 
L 120.165809 -237.977723 
L 120.165809 -236.406535 
L 120.165809 -234.835347 
L 120.165809 -233.264159 
L 120.165809 -231.692971 
L 120.165809 -230.121783 
L 120.165809 -228.550594 
L 120.165809 -226.979406 
L 120.165809 -225.408218 
L 120.165809 -223.83703 
L 120.165809 -222.265842 
L 120.165809 -220.694654 
L 120.165809 -219.123466 
L 120.165809 -217.552278 
L 120.165809 -215.98109 
L 120.165809 -214.409902 
L 120.165809 -212.838714 
L 120.165809 -211.267526 
L 120.165809 -209.696338 
L 120.165809 -208.12515 
L 120.165809 -206.553962 
L 120.165809 -204.982774 
L 120.165809 -203.411586 
L 120.165809 -201.840398 
L 120.165809 -200.26921 
L 120.165811 -198.698022 
L 120.165829 -197.126834 
L 120.165952 -195.555646 
L 120.166584 -193.984458 
L 120.169043 -192.41327 
L 120.176213 -190.842082 
L 120.191627 -189.270894 
L 120.215225 -187.699706 
L 120.23876 -186.128518 
L 120.248874 -184.55733 
z
" id="m8f8ca99591" style="stroke:#444444;stroke-width:1.5;"/>
    </defs>
    <g clip-path="url(#p2728a28c54)">
     <use style="fill:#e68193;stroke:#444444;stroke-width:1.5;" x="0" xlink:href="#m8f8ca99591" y="458.815625"/>
    </g>
   </g>
   <g id="PolyCollection_4">
    <defs>
     <path d="M 141.552109 -197.406084 
L 140.885872 -197.406084 
L 140.886665 -198.790929 
L 140.889068 -200.175773 
L 140.893044 -201.560618 
L 140.898532 -202.945463 
L 140.905449 -204.330308 
L 140.913692 -205.715152 
L 140.923141 -207.099997 
L 140.933659 -208.484842 
L 140.945098 -209.869686 
L 140.957298 -211.254531 
L 140.970094 -212.639376 
L 140.983315 -214.02422 
L 140.996789 -215.409065 
L 141.010346 -216.79391 
L 141.023818 -218.178754 
L 141.037043 -219.563599 
L 141.049864 -220.948444 
L 141.062133 -222.333288 
L 141.073709 -223.718133 
L 141.084459 -225.102978 
L 141.094258 -226.487822 
L 141.102987 -227.872667 
L 141.110536 -229.257512 
L 141.116798 -230.642356 
L 141.121668 -232.027201 
L 141.125048 -233.412046 
L 141.126836 -234.79689 
L 141.126931 -236.181735 
L 141.125232 -237.56658 
L 141.121632 -238.951424 
L 141.116022 -240.336269 
L 141.108287 -241.721114 
L 141.098308 -243.105958 
L 141.085962 -244.490803 
L 141.071122 -245.875648 
L 141.053657 -247.260493 
L 141.033436 -248.645337 
L 141.010326 -250.030182 
L 140.984199 -251.415027 
L 140.954928 -252.799871 
L 140.922395 -254.184716 
L 140.88649 -255.569561 
L 140.847117 -256.954405 
L 140.804192 -258.33925 
L 140.75765 -259.724095 
L 140.707443 -261.108939 
L 140.653548 -262.493784 
L 140.595962 -263.878629 
L 140.534706 -265.263473 
L 140.469827 -266.648318 
L 140.401398 -268.033163 
L 140.329514 -269.418007 
L 140.254299 -270.802852 
L 140.175896 -272.187697 
L 140.094471 -273.572541 
L 140.010211 -274.957386 
L 139.923321 -276.342231 
L 139.834022 -277.727075 
L 139.742547 -279.11192 
L 139.649144 -280.496765 
L 139.554071 -281.881609 
L 139.457595 -283.266454 
L 139.359991 -284.651299 
L 139.261545 -286.036144 
L 139.162551 -287.420988 
L 139.063314 -288.805833 
L 138.964148 -290.190678 
L 138.865387 -291.575522 
L 138.767375 -292.960367 
L 138.670481 -294.345212 
L 138.575094 -295.730056 
L 138.481626 -297.114901 
L 138.39052 -298.499746 
L 138.302243 -299.88459 
L 138.217295 -301.269435 
L 138.1362 -302.65428 
L 138.059513 -304.039124 
L 137.98781 -305.423969 
L 137.921683 -306.808814 
L 137.861739 -308.193658 
L 137.808586 -309.578503 
L 137.762826 -310.963348 
L 137.725045 -312.348192 
L 137.695797 -313.733037 
L 137.675598 -315.117882 
L 137.664906 -316.502726 
L 137.664113 -317.887571 
L 137.673533 -319.272416 
L 137.693386 -320.65726 
L 137.723794 -322.042105 
L 137.76477 -323.42695 
L 137.81621 -324.811794 
L 137.877895 -326.196639 
L 137.949487 -327.581484 
L 138.03053 -328.966329 
L 138.120458 -330.351173 
L 138.218599 -331.736018 
L 138.324187 -333.120863 
L 138.436372 -334.505707 
L 144.001609 -334.505707 
L 144.001609 -334.505707 
L 144.113795 -333.120863 
L 144.219382 -331.736018 
L 144.317523 -330.351173 
L 144.407451 -328.966329 
L 144.488494 -327.581484 
L 144.560086 -326.196639 
L 144.621771 -324.811794 
L 144.673212 -323.42695 
L 144.714187 -322.042105 
L 144.744595 -320.65726 
L 144.764448 -319.272416 
L 144.773868 -317.887571 
L 144.773076 -316.502726 
L 144.762384 -315.117882 
L 144.742184 -313.733037 
L 144.712937 -312.348192 
L 144.675155 -310.963348 
L 144.629395 -309.578503 
L 144.576242 -308.193658 
L 144.516298 -306.808814 
L 144.450171 -305.423969 
L 144.378468 -304.039124 
L 144.301781 -302.65428 
L 144.220687 -301.269435 
L 144.135738 -299.88459 
L 144.047461 -298.499746 
L 143.956355 -297.114901 
L 143.862887 -295.730056 
L 143.7675 -294.345212 
L 143.670606 -292.960367 
L 143.572595 -291.575522 
L 143.473833 -290.190678 
L 143.374668 -288.805833 
L 143.27543 -287.420988 
L 143.176436 -286.036144 
L 143.07799 -284.651299 
L 142.980386 -283.266454 
L 142.88391 -281.881609 
L 142.788837 -280.496765 
L 142.695434 -279.11192 
L 142.603959 -277.727075 
L 142.51466 -276.342231 
L 142.42777 -274.957386 
L 142.34351 -273.572541 
L 142.262086 -272.187697 
L 142.183682 -270.802852 
L 142.108467 -269.418007 
L 142.036584 -268.033163 
L 141.968154 -266.648318 
L 141.903275 -265.263473 
L 141.842019 -263.878629 
L 141.784433 -262.493784 
L 141.730538 -261.108939 
L 141.680331 -259.724095 
L 141.633789 -258.33925 
L 141.590864 -256.954405 
L 141.551491 -255.569561 
L 141.515586 -254.184716 
L 141.483053 -252.799871 
L 141.453782 -251.415027 
L 141.427655 -250.030182 
L 141.404545 -248.645337 
L 141.384324 -247.260493 
L 141.366859 -245.875648 
L 141.352019 -244.490803 
L 141.339673 -243.105958 
L 141.329694 -241.721114 
L 141.321959 -240.336269 
L 141.316349 -238.951424 
L 141.312749 -237.56658 
L 141.31105 -236.181735 
L 141.311145 -234.79689 
L 141.312933 -233.412046 
L 141.316313 -232.027201 
L 141.321183 -230.642356 
L 141.327445 -229.257512 
L 141.334994 -227.872667 
L 141.343723 -226.487822 
L 141.353522 -225.102978 
L 141.364272 -223.718133 
L 141.375848 -222.333288 
L 141.388117 -220.948444 
L 141.400938 -219.563599 
L 141.414163 -218.178754 
L 141.427635 -216.79391 
L 141.441192 -215.409065 
L 141.454666 -214.02422 
L 141.467887 -212.639376 
L 141.480683 -211.254531 
L 141.492883 -209.869686 
L 141.504322 -208.484842 
L 141.51484 -207.099997 
L 141.524289 -205.715152 
L 141.532533 -204.330308 
L 141.539449 -202.945463 
L 141.544937 -201.560618 
L 141.548913 -200.175773 
L 141.551316 -198.790929 
L 141.552109 -197.406084 
z
" id="md50aafecb0" style="stroke:#444444;stroke-width:1.5;"/>
    </defs>
    <g clip-path="url(#p2728a28c54)">
     <use style="fill:#459e97;stroke:#444444;stroke-width:1.5;" x="0" xlink:href="#md50aafecb0" y="458.815625"/>
    </g>
   </g>
   <g id="PolyCollection_5">
    <defs>
     <path d="M 172.891368 -184.55733 
L 172.706158 -184.55733 
L 172.719278 -186.876882 
L 172.748501 -189.196435 
L 172.775348 -191.515988 
L 172.790727 -193.835541 
L 172.796731 -196.155093 
L 172.798384 -198.474646 
L 172.798711 -200.794199 
L 172.798758 -203.113752 
L 172.798763 -205.433305 
L 172.798763 -207.752857 
L 172.798763 -210.07241 
L 172.798763 -212.391963 
L 172.798763 -214.711516 
L 172.798763 -217.031069 
L 172.798763 -219.350621 
L 172.798763 -221.670174 
L 172.798763 -223.989727 
L 172.798763 -226.30928 
L 172.798763 -228.628833 
L 172.798763 -230.948385 
L 172.798763 -233.267938 
L 172.798763 -235.587491 
L 172.798763 -237.907044 
L 172.798763 -240.226596 
L 172.798763 -242.546149 
L 172.798763 -244.865702 
L 172.798763 -247.185255 
L 172.798763 -249.504808 
L 172.798763 -251.82436 
L 172.798763 -254.143913 
L 172.798763 -256.463466 
L 172.798763 -258.783019 
L 172.798763 -261.102572 
L 172.798763 -263.422124 
L 172.798763 -265.741677 
L 172.798763 -268.06123 
L 172.798763 -270.380783 
L 172.798763 -272.700335 
L 172.798763 -275.019888 
L 172.798763 -277.339441 
L 172.798763 -279.658994 
L 172.798763 -281.978547 
L 172.798762 -284.298099 
L 172.798758 -286.617652 
L 172.798721 -288.937205 
L 172.798504 -291.256758 
L 172.797591 -293.576311 
L 172.794843 -295.895863 
L 172.789058 -298.215416 
L 172.780931 -300.534969 
L 172.774191 -302.854522 
L 172.772121 -305.174074 
L 172.771391 -307.493627 
L 172.760598 -309.81318 
L 172.72477 -312.132733 
L 172.648953 -314.452286 
L 172.519263 -316.771838 
L 172.33022 -319.091391 
L 172.099617 -321.410944 
L 171.871772 -323.730497 
L 171.696969 -326.05005 
L 171.606601 -328.369602 
L 171.601649 -330.689155 
L 171.64737 -333.008708 
L 171.681917 -335.328261 
L 171.65668 -337.647814 
L 171.576625 -339.967366 
L 171.489674 -342.286919 
L 171.438335 -344.606472 
L 171.430705 -346.926025 
L 171.44921 -349.245577 
L 171.469505 -351.56513 
L 171.474277 -353.884683 
L 171.468033 -356.204236 
L 171.47803 -358.523789 
L 171.518903 -360.843341 
L 171.542643 -363.162894 
L 171.42587 -365.482447 
L 171.026086 -367.802 
L 170.285518 -370.121553 
L 169.278838 -372.441105 
L 168.121265 -374.760658 
L 166.867109 -377.080211 
L 165.565565 -379.399764 
L 164.349705 -381.719316 
L 163.390813 -384.038869 
L 162.79546 -386.358422 
L 162.528721 -388.677975 
L 162.411281 -390.997528 
L 162.294265 -393.31708 
L 162.272172 -395.636633 
L 162.633893 -397.956186 
L 163.603549 -400.275739 
L 165.159887 -402.595292 
L 167.04522 -404.914844 
L 168.908176 -407.234397 
L 170.464681 -409.55395 
L 171.576629 -411.873503 
L 172.250166 -414.193056 
L 173.34736 -414.193056 
L 173.34736 -414.193056 
L 174.020897 -411.873503 
L 175.132845 -409.55395 
L 176.689349 -407.234397 
L 178.552306 -404.914844 
L 180.437639 -402.595292 
L 181.993977 -400.275739 
L 182.963633 -397.956186 
L 183.325354 -395.636633 
L 183.303261 -393.31708 
L 183.186245 -390.997528 
L 183.068805 -388.677975 
L 182.802066 -386.358422 
L 182.206713 -384.038869 
L 181.247821 -381.719316 
L 180.031961 -379.399764 
L 178.730417 -377.080211 
L 177.476261 -374.760658 
L 176.318688 -372.441105 
L 175.312008 -370.121553 
L 174.57144 -367.802 
L 174.171655 -365.482447 
L 174.054883 -363.162894 
L 174.078623 -360.843341 
L 174.119496 -358.523789 
L 174.129492 -356.204236 
L 174.123248 -353.884683 
L 174.128021 -351.56513 
L 174.148316 -349.245577 
L 174.166821 -346.926025 
L 174.15919 -344.606472 
L 174.107852 -342.286919 
L 174.020901 -339.967366 
L 173.940846 -337.647814 
L 173.915609 -335.328261 
L 173.950155 -333.008708 
L 173.995877 -330.689155 
L 173.990925 -328.369602 
L 173.900557 -326.05005 
L 173.725754 -323.730497 
L 173.497909 -321.410944 
L 173.267306 -319.091391 
L 173.078263 -316.771838 
L 172.948573 -314.452286 
L 172.872756 -312.132733 
L 172.836928 -309.81318 
L 172.826135 -307.493627 
L 172.825405 -305.174074 
L 172.823335 -302.854522 
L 172.816595 -300.534969 
L 172.808468 -298.215416 
L 172.802683 -295.895863 
L 172.799935 -293.576311 
L 172.799022 -291.256758 
L 172.798805 -288.937205 
L 172.798768 -286.617652 
L 172.798763 -284.298099 
L 172.798763 -281.978547 
L 172.798763 -279.658994 
L 172.798763 -277.339441 
L 172.798763 -275.019888 
L 172.798763 -272.700335 
L 172.798763 -270.380783 
L 172.798763 -268.06123 
L 172.798763 -265.741677 
L 172.798763 -263.422124 
L 172.798763 -261.102572 
L 172.798763 -258.783019 
L 172.798763 -256.463466 
L 172.798763 -254.143913 
L 172.798763 -251.82436 
L 172.798763 -249.504808 
L 172.798763 -247.185255 
L 172.798763 -244.865702 
L 172.798763 -242.546149 
L 172.798763 -240.226596 
L 172.798763 -237.907044 
L 172.798763 -235.587491 
L 172.798763 -233.267938 
L 172.798763 -230.948385 
L 172.798763 -228.628833 
L 172.798763 -226.30928 
L 172.798763 -223.989727 
L 172.798763 -221.670174 
L 172.798763 -219.350621 
L 172.798763 -217.031069 
L 172.798763 -214.711516 
L 172.798763 -212.391963 
L 172.798763 -210.07241 
L 172.798763 -207.752857 
L 172.798763 -205.433305 
L 172.798768 -203.113752 
L 172.798815 -200.794199 
L 172.799141 -198.474646 
L 172.800795 -196.155093 
L 172.806799 -193.835541 
L 172.822178 -191.515988 
L 172.849025 -189.196435 
L 172.878248 -186.876882 
L 172.891368 -184.55733 
z
" id="mc1e756dde8" style="stroke:#444444;stroke-width:1.5;"/>
    </defs>
    <g clip-path="url(#p2728a28c54)">
     <use style="fill:#e68193;stroke:#444444;stroke-width:1.5;" x="0" xlink:href="#mc1e756dde8" y="458.815625"/>
    </g>
   </g>
   <g id="PolyCollection_6">
    <defs>
     <path d="M 194.202156 -202.880049 
L 193.501733 -202.880049 
L 193.502557 -204.853078 
L 193.505033 -206.826106 
L 193.509127 -208.799134 
L 193.514777 -210.772163 
L 193.521904 -212.745191 
L 193.530405 -214.71822 
L 193.540161 -216.691248 
L 193.551039 -218.664277 
L 193.562891 -220.637305 
L 193.575561 -222.610334 
L 193.588885 -224.583362 
L 193.602697 -226.55639 
L 193.616828 -228.529419 
L 193.631111 -230.502447 
L 193.645384 -232.475476 
L 193.659491 -234.448504 
L 193.67328 -236.421533 
L 193.686611 -238.394561 
L 193.699352 -240.367589 
L 193.71138 -242.340618 
L 193.722583 -244.313646 
L 193.732854 -246.286675 
L 193.742097 -248.259703 
L 193.750222 -250.232732 
L 193.757144 -252.20576 
L 193.762782 -254.178789 
L 193.767055 -256.151817 
L 193.769885 -258.124845 
L 193.77119 -260.097874 
L 193.770886 -262.070902 
L 193.768884 -264.043931 
L 193.765091 -266.016959 
L 193.759403 -267.989988 
L 193.751713 -269.963016 
L 193.741904 -271.936044 
L 193.729851 -273.909073 
L 193.715423 -275.882101 
L 193.698483 -277.85513 
L 193.678886 -279.828158 
L 193.656487 -281.801187 
L 193.631137 -283.774215 
L 193.602687 -285.747244 
L 193.570993 -287.720272 
L 193.535913 -289.6933 
L 193.497316 -291.666329 
L 193.455079 -293.639357 
L 193.409094 -295.612386 
L 193.359269 -297.585414 
L 193.305528 -299.558443 
L 193.247817 -301.531471 
L 193.186104 -303.5045 
L 193.120382 -305.477528 
L 193.050666 -307.450556 
L 192.976999 -309.423585 
L 192.89945 -311.396613 
L 192.818114 -313.369642 
L 192.733112 -315.34267 
L 192.644591 -317.315699 
L 192.552723 -319.288727 
L 192.457702 -321.261755 
L 192.359747 -323.234784 
L 192.259098 -325.207812 
L 192.156016 -327.180841 
L 192.050782 -329.153869 
L 191.943698 -331.126898 
L 191.835087 -333.099926 
L 191.725291 -335.072955 
L 191.614673 -337.045983 
L 191.50362 -339.019011 
L 191.392541 -340.99204 
L 191.281872 -342.965068 
L 191.172072 -344.938097 
L 191.063633 -346.911125 
L 190.957072 -348.884154 
L 190.852938 -350.857182 
L 190.751808 -352.83021 
L 190.65429 -354.803239 
L 190.561016 -356.776267 
L 190.472642 -358.749296 
L 190.389842 -360.722324 
L 190.313304 -362.695353 
L 190.243717 -364.668381 
L 190.181768 -366.64141 
L 190.128128 -368.614438 
L 190.08344 -370.587466 
L 190.048311 -372.560495 
L 190.023293 -374.533523 
L 190.008875 -376.506552 
L 190.005468 -378.47958 
L 190.013391 -380.452609 
L 190.032866 -382.425637 
L 190.064 -384.398666 
L 190.106786 -386.371694 
L 190.16109 -388.344722 
L 190.226654 -390.317751 
L 190.303092 -392.290779 
L 190.389894 -394.263808 
L 190.486431 -396.236836 
L 190.591965 -398.209865 
L 197.111924 -398.209865 
L 197.111924 -398.209865 
L 197.217458 -396.236836 
L 197.313995 -394.263808 
L 197.400797 -392.290779 
L 197.477235 -390.317751 
L 197.542799 -388.344722 
L 197.597103 -386.371694 
L 197.639889 -384.398666 
L 197.671023 -382.425637 
L 197.690498 -380.452609 
L 197.698422 -378.47958 
L 197.695014 -376.506552 
L 197.680596 -374.533523 
L 197.655578 -372.560495 
L 197.620449 -370.587466 
L 197.575762 -368.614438 
L 197.522121 -366.64141 
L 197.460172 -364.668381 
L 197.390585 -362.695353 
L 197.314047 -360.722324 
L 197.231248 -358.749296 
L 197.142874 -356.776267 
L 197.049599 -354.803239 
L 196.952081 -352.83021 
L 196.850951 -350.857182 
L 196.746817 -348.884154 
L 196.640256 -346.911125 
L 196.531817 -344.938097 
L 196.422017 -342.965068 
L 196.311348 -340.99204 
L 196.200269 -339.019011 
L 196.089216 -337.045983 
L 195.978598 -335.072955 
L 195.868802 -333.099926 
L 195.760191 -331.126898 
L 195.653107 -329.153869 
L 195.547873 -327.180841 
L 195.444791 -325.207812 
L 195.344142 -323.234784 
L 195.246187 -321.261755 
L 195.151166 -319.288727 
L 195.059298 -317.315699 
L 194.970777 -315.34267 
L 194.885775 -313.369642 
L 194.80444 -311.396613 
L 194.726891 -309.423585 
L 194.653224 -307.450556 
L 194.583507 -305.477528 
L 194.517785 -303.5045 
L 194.456072 -301.531471 
L 194.398361 -299.558443 
L 194.34462 -297.585414 
L 194.294795 -295.612386 
L 194.24881 -293.639357 
L 194.206573 -291.666329 
L 194.167976 -289.6933 
L 194.132896 -287.720272 
L 194.101202 -285.747244 
L 194.072752 -283.774215 
L 194.047402 -281.801187 
L 194.025003 -279.828158 
L 194.005407 -277.85513 
L 193.988466 -275.882101 
L 193.974038 -273.909073 
L 193.961985 -271.936044 
L 193.952176 -269.963016 
L 193.944486 -267.989988 
L 193.938799 -266.016959 
L 193.935005 -264.043931 
L 193.933003 -262.070902 
L 193.932699 -260.097874 
L 193.934004 -258.124845 
L 193.936834 -256.151817 
L 193.941107 -254.178789 
L 193.946745 -252.20576 
L 193.953667 -250.232732 
L 193.961792 -248.259703 
L 193.971035 -246.286675 
L 193.981307 -244.313646 
L 193.992509 -242.340618 
L 194.004537 -240.367589 
L 194.017278 -238.394561 
L 194.030609 -236.421533 
L 194.044398 -234.448504 
L 194.058505 -232.475476 
L 194.072778 -230.502447 
L 194.087061 -228.529419 
L 194.101192 -226.55639 
L 194.115004 -224.583362 
L 194.128328 -222.610334 
L 194.140998 -220.637305 
L 194.15285 -218.664277 
L 194.163728 -216.691248 
L 194.173485 -214.71822 
L 194.181986 -212.745191 
L 194.189112 -210.772163 
L 194.194763 -208.799134 
L 194.198856 -206.826106 
L 194.201333 -204.853078 
L 194.202156 -202.880049 
z
" id="m774f0d791f" style="stroke:#444444;stroke-width:1.5;"/>
    </defs>
    <g clip-path="url(#p2728a28c54)">
     <use style="fill:#459e97;stroke:#444444;stroke-width:1.5;" x="0" xlink:href="#m774f0d791f" y="458.815625"/>
    </g>
   </g>
   <g id="PolyCollection_7">
    <defs>
     <path d="M 225.522882 -184.55733 
L 225.340552 -184.55733 
L 225.35346 -186.128518 
L 225.382218 -187.699706 
L 225.408646 -189.270894 
L 225.423794 -190.842082 
L 225.429712 -192.41327 
L 225.431343 -193.984458 
L 225.431666 -195.555646 
L 225.431712 -197.126834 
L 225.431717 -198.698022 
L 225.431717 -200.26921 
L 225.431717 -201.840398 
L 225.431717 -203.411586 
L 225.431717 -204.982774 
L 225.431717 -206.553962 
L 225.431717 -208.12515 
L 225.431717 -209.696338 
L 225.431717 -211.267526 
L 225.431717 -212.838714 
L 225.431717 -214.409902 
L 225.431717 -215.98109 
L 225.431717 -217.552278 
L 225.431717 -219.123466 
L 225.431717 -220.694654 
L 225.431717 -222.265842 
L 225.431717 -223.83703 
L 225.431717 -225.408218 
L 225.431717 -226.979406 
L 225.431717 -228.550594 
L 225.431717 -230.121783 
L 225.431717 -231.692971 
L 225.431717 -233.264159 
L 225.431717 -234.835347 
L 225.431717 -236.406535 
L 225.431717 -237.977723 
L 225.431717 -239.548911 
L 225.431717 -241.120099 
L 225.431717 -242.691287 
L 225.431717 -244.262475 
L 225.431717 -245.833663 
L 225.431717 -247.404851 
L 225.431717 -248.976039 
L 225.431717 -250.547227 
L 225.431717 -252.118415 
L 225.431717 -253.689603 
L 225.431716 -255.260791 
L 225.431705 -256.831979 
L 225.431632 -258.403167 
L 225.431251 -259.974355 
L 225.429819 -261.545543 
L 225.425934 -263.116731 
L 225.418276 -264.687919 
L 225.406814 -266.259107 
L 225.391356 -267.830295 
L 225.366302 -269.401483 
L 225.317143 -270.972671 
L 225.223859 -272.543859 
L 225.070746 -274.115047 
L 224.861098 -275.686235 
L 224.627531 -277.257424 
L 224.42145 -278.828612 
L 224.286361 -280.3998 
L 224.239284 -281.970988 
L 224.263822 -283.542176 
L 224.309339 -285.113364 
L 224.315239 -286.684552 
L 224.258118 -288.25574 
L 224.169485 -289.826928 
L 224.099632 -291.398116 
L 224.07349 -292.969304 
L 224.083081 -294.540492 
L 224.105293 -296.11168 
L 224.118118 -297.682868 
L 224.115183 -299.254056 
L 224.11569 -300.825244 
L 224.144562 -302.396432 
L 224.182636 -303.96762 
L 224.132903 -305.538808 
L 223.84955 -307.109996 
L 223.232958 -308.681184 
L 222.313878 -310.252372 
L 221.212146 -311.82356 
L 220.016848 -313.394748 
L 218.781632 -314.965936 
L 217.614761 -316.537124 
L 216.664059 -318.108312 
L 216.012899 -319.6795 
L 215.620625 -321.250688 
L 215.342627 -322.821877 
L 215.069809 -324.393065 
L 214.905126 -325.964253 
L 215.133771 -327.535441 
L 215.987918 -329.106629 
L 217.459581 -330.677817 
L 219.287599 -332.249005 
L 221.095327 -333.820193 
L 222.591669 -335.391381 
L 223.681349 -336.962569 
L 224.417696 -338.533757 
L 224.893563 -340.104945 
L 225.969871 -340.104945 
L 225.969871 -340.104945 
L 226.445738 -338.533757 
L 227.182085 -336.962569 
L 228.271765 -335.391381 
L 229.768107 -333.820193 
L 231.575835 -332.249005 
L 233.403853 -330.677817 
L 234.875516 -329.106629 
L 235.729663 -327.535441 
L 235.958308 -325.964253 
L 235.793624 -324.393065 
L 235.520807 -322.821877 
L 235.242809 -321.250688 
L 234.850535 -319.6795 
L 234.199375 -318.108312 
L 233.248673 -316.537124 
L 232.081802 -314.965936 
L 230.846586 -313.394748 
L 229.651288 -311.82356 
L 228.549556 -310.252372 
L 227.630476 -308.681184 
L 227.013884 -307.109996 
L 226.730531 -305.538808 
L 226.680798 -303.96762 
L 226.718872 -302.396432 
L 226.747743 -300.825244 
L 226.748251 -299.254056 
L 226.745316 -297.682868 
L 226.758141 -296.11168 
L 226.780353 -294.540492 
L 226.789944 -292.969304 
L 226.763802 -291.398116 
L 226.693948 -289.826928 
L 226.605316 -288.25574 
L 226.548195 -286.684552 
L 226.554095 -285.113364 
L 226.599612 -283.542176 
L 226.62415 -281.970988 
L 226.577073 -280.3998 
L 226.441984 -278.828612 
L 226.235903 -277.257424 
L 226.002336 -275.686235 
L 225.792688 -274.115047 
L 225.639575 -272.543859 
L 225.546291 -270.972671 
L 225.497132 -269.401483 
L 225.472078 -267.830295 
L 225.456619 -266.259107 
L 225.445158 -264.687919 
L 225.4375 -263.116731 
L 225.433615 -261.545543 
L 225.432183 -259.974355 
L 225.431802 -258.403167 
L 225.431728 -256.831979 
L 225.431718 -255.260791 
L 225.431717 -253.689603 
L 225.431717 -252.118415 
L 225.431717 -250.547227 
L 225.431717 -248.976039 
L 225.431717 -247.404851 
L 225.431717 -245.833663 
L 225.431717 -244.262475 
L 225.431717 -242.691287 
L 225.431717 -241.120099 
L 225.431717 -239.548911 
L 225.431717 -237.977723 
L 225.431717 -236.406535 
L 225.431717 -234.835347 
L 225.431717 -233.264159 
L 225.431717 -231.692971 
L 225.431717 -230.121783 
L 225.431717 -228.550594 
L 225.431717 -226.979406 
L 225.431717 -225.408218 
L 225.431717 -223.83703 
L 225.431717 -222.265842 
L 225.431717 -220.694654 
L 225.431717 -219.123466 
L 225.431717 -217.552278 
L 225.431717 -215.98109 
L 225.431717 -214.409902 
L 225.431717 -212.838714 
L 225.431717 -211.267526 
L 225.431717 -209.696338 
L 225.431717 -208.12515 
L 225.431717 -206.553962 
L 225.431717 -204.982774 
L 225.431717 -203.411586 
L 225.431717 -201.840398 
L 225.431717 -200.26921 
L 225.431717 -198.698022 
L 225.431722 -197.126834 
L 225.431768 -195.555646 
L 225.432091 -193.984458 
L 225.433722 -192.41327 
L 225.43964 -190.842082 
L 225.454788 -189.270894 
L 225.481216 -187.699706 
L 225.509974 -186.128518 
L 225.522882 -184.55733 
z
" id="ma76bcb4b61" style="stroke:#444444;stroke-width:1.5;"/>
    </defs>
    <g clip-path="url(#p2728a28c54)">
     <use style="fill:#e68193;stroke:#444444;stroke-width:1.5;" x="0" xlink:href="#ma76bcb4b61" y="458.815625"/>
    </g>
   </g>
   <g id="PolyCollection_8">
    <defs>
     <path d="M 246.833042 -197.362076 
L 246.136755 -197.362076 
L 246.13758 -198.692239 
L 246.140064 -200.022403 
L 246.14417 -201.352567 
L 246.149836 -202.682731 
L 246.156981 -204.012894 
L 246.165502 -205.343058 
L 246.175279 -206.673222 
L 246.186175 -208.003386 
L 246.198041 -209.33355 
L 246.21072 -210.663713 
L 246.224045 -211.993877 
L 246.237847 -213.324041 
L 246.251958 -214.654205 
L 246.266207 -215.984368 
L 246.280431 -217.314532 
L 246.294472 -218.644696 
L 246.308177 -219.97486 
L 246.321403 -221.305023 
L 246.334018 -222.635187 
L 246.345897 -223.965351 
L 246.356925 -225.295515 
L 246.366996 -226.625678 
L 246.37601 -227.955842 
L 246.383876 -229.286006 
L 246.390505 -230.61617 
L 246.395815 -231.946333 
L 246.399722 -233.276497 
L 246.402144 -234.606661 
L 246.402997 -235.936825 
L 246.402193 -237.266988 
L 246.399639 -238.597152 
L 246.395238 -239.927316 
L 246.388882 -241.25748 
L 246.380461 -242.587644 
L 246.369854 -243.917807 
L 246.356933 -245.247971 
L 246.341565 -246.578135 
L 246.323609 -247.908299 
L 246.302921 -249.238462 
L 246.279353 -250.568626 
L 246.252759 -251.89879 
L 246.222991 -253.228954 
L 246.189907 -254.559117 
L 246.153371 -255.889281 
L 246.113257 -257.219445 
L 246.069449 -258.549609 
L 246.021849 -259.879772 
L 245.970372 -261.209936 
L 245.914955 -262.5401 
L 245.855557 -263.870264 
L 245.792158 -265.200427 
L 245.724765 -266.530591 
L 245.653409 -267.860755 
L 245.578147 -269.190919 
L 245.499065 -270.521082 
L 245.416272 -271.851246 
L 245.329905 -273.18141 
L 245.240127 -274.511574 
L 245.147122 -275.841737 
L 245.051101 -277.171901 
L 244.952295 -278.502065 
L 244.850957 -279.832229 
L 244.747361 -281.162393 
L 244.6418 -282.492556 
L 244.534588 -283.82272 
L 244.426058 -285.152884 
L 244.316564 -286.483048 
L 244.20648 -287.813211 
L 244.096204 -289.143375 
L 243.986157 -290.473539 
L 243.876786 -291.803703 
L 243.768564 -293.133866 
L 243.661993 -294.46403 
L 243.557603 -295.794194 
L 243.455954 -297.124358 
L 243.357635 -298.454521 
L 243.263261 -299.784685 
L 243.173474 -301.114849 
L 243.088933 -302.445013 
L 243.010315 -303.775176 
L 242.938303 -305.10534 
L 242.873581 -306.435504 
L 242.816822 -307.765668 
L 242.768677 -309.095831 
L 242.729766 -310.425995 
L 242.700661 -311.756159 
L 242.681878 -313.086323 
L 242.673859 -314.416486 
L 242.676963 -315.74665 
L 242.691452 -317.076814 
L 242.717484 -318.406978 
L 242.7551 -319.737142 
L 242.804223 -321.067305 
L 242.864649 -322.397469 
L 242.936049 -323.727633 
L 243.017966 -325.057797 
L 243.109827 -326.38796 
L 243.21094 -327.718124 
L 243.320513 -329.048288 
L 249.649284 -329.048288 
L 249.649284 -329.048288 
L 249.758857 -327.718124 
L 249.85997 -326.38796 
L 249.951831 -325.057797 
L 250.033748 -323.727633 
L 250.105148 -322.397469 
L 250.165574 -321.067305 
L 250.214697 -319.737142 
L 250.252313 -318.406978 
L 250.278345 -317.076814 
L 250.292834 -315.74665 
L 250.295938 -314.416486 
L 250.287919 -313.086323 
L 250.269136 -311.756159 
L 250.240031 -310.425995 
L 250.20112 -309.095831 
L 250.152976 -307.765668 
L 250.096216 -306.435504 
L 250.031494 -305.10534 
L 249.959482 -303.775176 
L 249.880864 -302.445013 
L 249.796323 -301.114849 
L 249.706536 -299.784685 
L 249.612162 -298.454521 
L 249.513843 -297.124358 
L 249.412194 -295.794194 
L 249.307805 -294.46403 
L 249.201233 -293.133866 
L 249.093011 -291.803703 
L 248.98364 -290.473539 
L 248.873594 -289.143375 
L 248.763318 -287.813211 
L 248.653234 -286.483048 
L 248.543739 -285.152884 
L 248.435209 -283.82272 
L 248.327997 -282.492556 
L 248.222436 -281.162393 
L 248.11884 -279.832229 
L 248.017502 -278.502065 
L 247.918696 -277.171901 
L 247.822675 -275.841737 
L 247.72967 -274.511574 
L 247.639892 -273.18141 
L 247.553525 -271.851246 
L 247.470732 -270.521082 
L 247.39165 -269.190919 
L 247.316388 -267.860755 
L 247.245032 -266.530591 
L 247.177639 -265.200427 
L 247.11424 -263.870264 
L 247.054842 -262.5401 
L 246.999425 -261.209936 
L 246.947948 -259.879772 
L 246.900348 -258.549609 
L 246.85654 -257.219445 
L 246.816426 -255.889281 
L 246.77989 -254.559117 
L 246.746806 -253.228954 
L 246.717038 -251.89879 
L 246.690444 -250.568626 
L 246.666877 -249.238462 
L 246.646188 -247.908299 
L 246.628232 -246.578135 
L 246.612864 -245.247971 
L 246.599943 -243.917807 
L 246.589336 -242.587644 
L 246.580915 -241.25748 
L 246.57456 -239.927316 
L 246.570158 -238.597152 
L 246.567604 -237.266988 
L 246.5668 -235.936825 
L 246.567653 -234.606661 
L 246.570075 -233.276497 
L 246.573982 -231.946333 
L 246.579292 -230.61617 
L 246.585922 -229.286006 
L 246.593787 -227.955842 
L 246.602801 -226.625678 
L 246.612872 -225.295515 
L 246.6239 -223.965351 
L 246.635779 -222.635187 
L 246.648394 -221.305023 
L 246.661621 -219.97486 
L 246.675325 -218.644696 
L 246.689366 -217.314532 
L 246.70359 -215.984368 
L 246.717839 -214.654205 
L 246.73195 -213.324041 
L 246.745753 -211.993877 
L 246.759078 -210.663713 
L 246.771756 -209.33355 
L 246.783622 -208.003386 
L 246.794518 -206.673222 
L 246.804295 -205.343058 
L 246.812816 -204.012894 
L 246.819961 -202.682731 
L 246.825628 -201.352567 
L 246.829733 -200.022403 
L 246.832217 -198.692239 
L 246.833042 -197.362076 
z
" id="m953c7dc682" style="stroke:#444444;stroke-width:1.5;"/>
    </defs>
    <g clip-path="url(#p2728a28c54)">
     <use style="fill:#459e97;stroke:#444444;stroke-width:1.5;" x="0" xlink:href="#m953c7dc682" y="458.815625"/>
    </g>
   </g>
   <g id="PolyCollection_9">
    <defs>
     <path d="M 278.175202 -184.55733 
L 277.95414 -184.55733 
L 277.968557 -185.37793 
L 278.001476 -186.198531 
L 278.033253 -187.019132 
L 278.05286 -187.839732 
L 278.061314 -188.660333 
L 278.063949 -189.480934 
L 278.064554 -190.301534 
L 278.064657 -191.122135 
L 278.06467 -191.942736 
L 278.064671 -192.763336 
L 278.064671 -193.583937 
L 278.064671 -194.404538 
L 278.064671 -195.225139 
L 278.064671 -196.045739 
L 278.064671 -196.86634 
L 278.064671 -197.686941 
L 278.064671 -198.507541 
L 278.064671 -199.328142 
L 278.064671 -200.148743 
L 278.064671 -200.969343 
L 278.064671 -201.789944 
L 278.064671 -202.610545 
L 278.064671 -203.431145 
L 278.064671 -204.251746 
L 278.064671 -205.072347 
L 278.064671 -205.892947 
L 278.064671 -206.713548 
L 278.064671 -207.534149 
L 278.064671 -208.35475 
L 278.064671 -209.17535 
L 278.064671 -209.995951 
L 278.064671 -210.816552 
L 278.064671 -211.637152 
L 278.064671 -212.457753 
L 278.064671 -213.278354 
L 278.064671 -214.098954 
L 278.064668 -214.919555 
L 278.064648 -215.740156 
L 278.064518 -216.560756 
L 278.063881 -217.381357 
L 278.061464 -218.201958 
L 278.054307 -219.022558 
L 278.037476 -219.843159 
L 278.005376 -220.66376 
L 277.954696 -221.484361 
L 277.887666 -222.304961 
L 277.813578 -223.125562 
L 277.745791 -223.946163 
L 277.693279 -224.766763 
L 277.652929 -225.587364 
L 277.612737 -226.407965 
L 277.565101 -227.228565 
L 277.514609 -228.049166 
L 277.4701 -228.869767 
L 277.432501 -229.690367 
L 277.397355 -230.510968 
L 277.369797 -231.331569 
L 277.366722 -232.15217 
L 277.396711 -232.97277 
L 277.445437 -233.793371 
L 277.488362 -234.613972 
L 277.509695 -235.434572 
L 277.499255 -236.255173 
L 277.435323 -237.075774 
L 277.283994 -237.896374 
L 277.026325 -238.716975 
L 276.686158 -239.537576 
L 276.319666 -240.358176 
L 275.966918 -241.178777 
L 275.615829 -241.999378 
L 275.222177 -242.819978 
L 274.762734 -243.640579 
L 274.255951 -244.46118 
L 273.728268 -245.281781 
L 273.179126 -246.102381 
L 272.600486 -246.922982 
L 272.017932 -247.743583 
L 271.469425 -248.564183 
L 270.937749 -249.384784 
L 270.358305 -250.205385 
L 269.717216 -251.025985 
L 269.077851 -251.846586 
L 268.485072 -252.667187 
L 267.947549 -253.487787 
L 267.562779 -254.308388 
L 267.53808 -255.128989 
L 268.00172 -255.94959 
L 268.827531 -256.77019 
L 269.674407 -257.590791 
L 270.228254 -258.411392 
L 270.465962 -259.231992 
L 270.69731 -260.052593 
L 271.318589 -260.873194 
L 272.493007 -261.693794 
L 274.026817 -262.514395 
L 275.523878 -263.334996 
L 276.66685 -264.155596 
L 277.376048 -264.976197 
L 277.751975 -265.796798 
L 278.377367 -265.796798 
L 278.377367 -265.796798 
L 278.753294 -264.976197 
L 279.462492 -264.155596 
L 280.605464 -263.334996 
L 282.102525 -262.514395 
L 283.636335 -261.693794 
L 284.810753 -260.873194 
L 285.432032 -260.052593 
L 285.66338 -259.231992 
L 285.901088 -258.411392 
L 286.454935 -257.590791 
L 287.301811 -256.77019 
L 288.127622 -255.94959 
L 288.591262 -255.128989 
L 288.566562 -254.308388 
L 288.181793 -253.487787 
L 287.64427 -252.667187 
L 287.051491 -251.846586 
L 286.412126 -251.025985 
L 285.771036 -250.205385 
L 285.191593 -249.384784 
L 284.659917 -248.564183 
L 284.11141 -247.743583 
L 283.528856 -246.922982 
L 282.950215 -246.102381 
L 282.401074 -245.281781 
L 281.873391 -244.46118 
L 281.366608 -243.640579 
L 280.907165 -242.819978 
L 280.513513 -241.999378 
L 280.162424 -241.178777 
L 279.809676 -240.358176 
L 279.443183 -239.537576 
L 279.103017 -238.716975 
L 278.845348 -237.896374 
L 278.694019 -237.075774 
L 278.630087 -236.255173 
L 278.619646 -235.434572 
L 278.64098 -234.613972 
L 278.683905 -233.793371 
L 278.732631 -232.97277 
L 278.76262 -232.15217 
L 278.759545 -231.331569 
L 278.731987 -230.510968 
L 278.696841 -229.690367 
L 278.659242 -228.869767 
L 278.614733 -228.049166 
L 278.564241 -227.228565 
L 278.516605 -226.407965 
L 278.476413 -225.587364 
L 278.436063 -224.766763 
L 278.383551 -223.946163 
L 278.315764 -223.125562 
L 278.241676 -222.304961 
L 278.174646 -221.484361 
L 278.123966 -220.66376 
L 278.091866 -219.843159 
L 278.075035 -219.022558 
L 278.067878 -218.201958 
L 278.065461 -217.381357 
L 278.064824 -216.560756 
L 278.064694 -215.740156 
L 278.064674 -214.919555 
L 278.064671 -214.098954 
L 278.064671 -213.278354 
L 278.064671 -212.457753 
L 278.064671 -211.637152 
L 278.064671 -210.816552 
L 278.064671 -209.995951 
L 278.064671 -209.17535 
L 278.064671 -208.35475 
L 278.064671 -207.534149 
L 278.064671 -206.713548 
L 278.064671 -205.892947 
L 278.064671 -205.072347 
L 278.064671 -204.251746 
L 278.064671 -203.431145 
L 278.064671 -202.610545 
L 278.064671 -201.789944 
L 278.064671 -200.969343 
L 278.064671 -200.148743 
L 278.064671 -199.328142 
L 278.064671 -198.507541 
L 278.064671 -197.686941 
L 278.064671 -196.86634 
L 278.064671 -196.045739 
L 278.064671 -195.225139 
L 278.064671 -194.404538 
L 278.064671 -193.583937 
L 278.064671 -192.763336 
L 278.064672 -191.942736 
L 278.064685 -191.122135 
L 278.064788 -190.301534 
L 278.065393 -189.480934 
L 278.068028 -188.660333 
L 278.076482 -187.839732 
L 278.096089 -187.019132 
L 278.127866 -186.198531 
L 278.160784 -185.37793 
L 278.175202 -184.55733 
z
" id="m212fd2b500" style="stroke:#444444;stroke-width:1.5;"/>
    </defs>
    <g clip-path="url(#p2728a28c54)">
     <use style="fill:#e68193;stroke:#444444;stroke-width:1.5;" x="0" xlink:href="#m212fd2b500" y="458.815625"/>
    </g>
   </g>
   <g id="PolyCollection_10">
    <defs>
     <path d="M 299.571043 -191.78486 
L 298.664662 -191.78486 
L 298.665708 -192.4677 
L 298.66894 -193.150541 
L 298.674302 -193.833381 
L 298.68171 -194.516222 
L 298.691046 -195.199062 
L 298.702165 -195.881902 
L 298.714898 -196.564743 
L 298.729051 -197.247583 
L 298.744414 -197.930424 
L 298.76076 -198.613264 
L 298.777852 -199.296105 
L 298.795447 -199.978945 
L 298.813297 -200.661786 
L 298.831153 -201.344626 
L 298.848772 -202.027467 
L 298.865913 -202.710307 
L 298.882343 -203.393148 
L 298.897837 -204.075988 
L 298.912182 -204.758828 
L 298.925172 -205.441669 
L 298.936613 -206.124509 
L 298.946319 -206.80735 
L 298.954114 -207.49019 
L 298.95983 -208.173031 
L 298.963306 -208.855871 
L 298.964386 -209.538712 
L 298.962919 -210.221552 
L 298.95876 -210.904393 
L 298.951764 -211.587233 
L 298.941792 -212.270074 
L 298.928707 -212.952914 
L 298.912373 -213.635754 
L 298.892662 -214.318595 
L 298.869447 -215.001435 
L 298.842607 -215.684276 
L 298.812031 -216.367116 
L 298.777614 -217.049957 
L 298.739262 -217.732797 
L 298.696893 -218.415638 
L 298.650439 -219.098478 
L 298.599847 -219.781319 
L 298.545078 -220.464159 
L 298.486111 -221.147 
L 298.42294 -221.82984 
L 298.355577 -222.51268 
L 298.28405 -223.195521 
L 298.2084 -223.878361 
L 298.128684 -224.561202 
L 298.04497 -225.244042 
L 297.957338 -225.926883 
L 297.865874 -226.609723 
L 297.770674 -227.292564 
L 297.67184 -227.975404 
L 297.569476 -228.658245 
L 297.463696 -229.341085 
L 297.354615 -230.023926 
L 297.242357 -230.706766 
L 297.127055 -231.389606 
L 297.008852 -232.072447 
L 296.887908 -232.755287 
L 296.764405 -233.438128 
L 296.638547 -234.120968 
L 296.510575 -234.803809 
L 296.380764 -235.486649 
L 296.249436 -236.16949 
L 296.116963 -236.85233 
L 295.983775 -237.535171 
L 295.85036 -238.218011 
L 295.717273 -238.900852 
L 295.585136 -239.583692 
L 295.454638 -240.266532 
L 295.326534 -240.949373 
L 295.20164 -241.632213 
L 295.08083 -242.315054 
L 294.965023 -242.997894 
L 294.85518 -243.680735 
L 294.752284 -244.363575 
L 294.657331 -245.046416 
L 294.57131 -245.729256 
L 294.495191 -246.412097 
L 294.429902 -247.094937 
L 294.376315 -247.777778 
L 294.335225 -248.460618 
L 294.307334 -249.143458 
L 294.293235 -249.826299 
L 294.293397 -250.509139 
L 294.308149 -251.19198 
L 294.337677 -251.87482 
L 294.382009 -252.557661 
L 294.441013 -253.240501 
L 294.514399 -253.923342 
L 294.601714 -254.606182 
L 294.702352 -255.289023 
L 294.815562 -255.971863 
L 294.940456 -256.654704 
L 295.076024 -257.337544 
L 295.221152 -258.020384 
L 295.374637 -258.703225 
L 295.535208 -259.386065 
L 302.700497 -259.386065 
L 302.700497 -259.386065 
L 302.861068 -258.703225 
L 303.014553 -258.020384 
L 303.159681 -257.337544 
L 303.295249 -256.654704 
L 303.420143 -255.971863 
L 303.533353 -255.289023 
L 303.633991 -254.606182 
L 303.721306 -253.923342 
L 303.794692 -253.240501 
L 303.853696 -252.557661 
L 303.898028 -251.87482 
L 303.927556 -251.19198 
L 303.942309 -250.509139 
L 303.94247 -249.826299 
L 303.928371 -249.143458 
L 303.900481 -248.460618 
L 303.859391 -247.777778 
L 303.805803 -247.094937 
L 303.740514 -246.412097 
L 303.664395 -245.729256 
L 303.578374 -245.046416 
L 303.483421 -244.363575 
L 303.380525 -243.680735 
L 303.270682 -242.997894 
L 303.154876 -242.315054 
L 303.034065 -241.632213 
L 302.909171 -240.949373 
L 302.781067 -240.266532 
L 302.650569 -239.583692 
L 302.518432 -238.900852 
L 302.385346 -238.218011 
L 302.25193 -237.535171 
L 302.118742 -236.85233 
L 301.986269 -236.16949 
L 301.854941 -235.486649 
L 301.72513 -234.803809 
L 301.597158 -234.120968 
L 301.471301 -233.438128 
L 301.347797 -232.755287 
L 301.226853 -232.072447 
L 301.10865 -231.389606 
L 300.993348 -230.706766 
L 300.88109 -230.023926 
L 300.772009 -229.341085 
L 300.666229 -228.658245 
L 300.563865 -227.975404 
L 300.465031 -227.292564 
L 300.369831 -226.609723 
L 300.278367 -225.926883 
L 300.190735 -225.244042 
L 300.107021 -224.561202 
L 300.027305 -223.878361 
L 299.951655 -223.195521 
L 299.880128 -222.51268 
L 299.812765 -221.82984 
L 299.749594 -221.147 
L 299.690627 -220.464159 
L 299.635858 -219.781319 
L 299.585266 -219.098478 
L 299.538812 -218.415638 
L 299.496444 -217.732797 
L 299.458092 -217.049957 
L 299.423674 -216.367116 
L 299.393098 -215.684276 
L 299.366258 -215.001435 
L 299.343043 -214.318595 
L 299.323332 -213.635754 
L 299.306998 -212.952914 
L 299.293913 -212.270074 
L 299.283941 -211.587233 
L 299.276946 -210.904393 
L 299.272786 -210.221552 
L 299.271319 -209.538712 
L 299.272399 -208.855871 
L 299.275875 -208.173031 
L 299.281591 -207.49019 
L 299.289386 -206.80735 
L 299.299092 -206.124509 
L 299.310533 -205.441669 
L 299.323523 -204.758828 
L 299.337868 -204.075988 
L 299.353362 -203.393148 
L 299.369792 -202.710307 
L 299.386933 -202.027467 
L 299.404552 -201.344626 
L 299.422408 -200.661786 
L 299.440258 -199.978945 
L 299.457853 -199.296105 
L 299.474945 -198.613264 
L 299.491291 -197.930424 
L 299.506654 -197.247583 
L 299.520807 -196.564743 
L 299.53354 -195.881902 
L 299.544659 -195.199062 
L 299.553995 -194.516222 
L 299.561403 -193.833381 
L 299.566765 -193.150541 
L 299.569997 -192.4677 
L 299.571043 -191.78486 
z
" id="md9b22cd740" style="stroke:#444444;stroke-width:1.5;"/>
    </defs>
    <g clip-path="url(#p2728a28c54)">
     <use style="fill:#459e97;stroke:#444444;stroke-width:1.5;" x="0" xlink:href="#md9b22cd740" y="458.815625"/>
    </g>
   </g>
   <g id="patch_3">
    <path clip-path="url(#p2728a28c54)" d="M 78.059446 274.258295 
L 78.059446 274.258295 
L 78.059446 274.258295 
L 78.059446 274.258295 
z
" style="fill:#e68193;stroke:#444444;stroke-linejoin:miter;stroke-width:0.75;"/>
   </g>
   <g id="patch_4">
    <path clip-path="url(#p2728a28c54)" d="M 78.059446 274.258295 
L 78.059446 274.258295 
L 78.059446 274.258295 
L 78.059446 274.258295 
z
" style="fill:#459e97;stroke:#444444;stroke-linejoin:miter;stroke-width:0.75;"/>
   </g>
   <g id="line2d_1">
    <path clip-path="url(#p2728a28c54)" d="M 67.532855 108.720778 
L 67.532855 42.774205 
" style="fill:none;stroke:#444444;stroke-linecap:round;stroke-width:1.5;"/>
   </g>
   <g id="line2d_2">
    <path clip-path="url(#p2728a28c54)" d="M 67.532855 76.825702 
L 67.532855 55.514641 
" style="fill:none;stroke:#444444;stroke-linecap:round;stroke-width:4.5;"/>
   </g>
   <g id="line2d_3">
    <path clip-path="url(#p2728a28c54)" d="M 88.586037 131.880533 
L 88.586037 51.100457 
" style="fill:none;stroke:#444444;stroke-linecap:round;stroke-width:1.5;"/>
   </g>
   <g id="line2d_4">
    <path clip-path="url(#p2728a28c54)" d="M 88.586037 107.585185 
L 88.586037 65.426179 
" style="fill:none;stroke:#444444;stroke-linecap:round;stroke-width:4.5;"/>
   </g>
   <g id="line2d_5">
    <path clip-path="url(#p2728a28c54)" d="M 120.165809 163.027118 
L 120.165809 118.71068 
" style="fill:none;stroke:#444444;stroke-linecap:round;stroke-width:1.5;"/>
   </g>
   <g id="line2d_6">
    <path clip-path="url(#p2728a28c54)" d="M 120.165809 141.606038 
L 120.165809 127.270309 
" style="fill:none;stroke:#444444;stroke-linecap:round;stroke-width:4.5;"/>
   </g>
   <g id="line2d_7">
    <path clip-path="url(#p2728a28c54)" d="M 141.218991 178.589402 
L 141.218991 124.309918 
" style="fill:none;stroke:#444444;stroke-linecap:round;stroke-width:1.5;"/>
   </g>
   <g id="line2d_8">
    <path clip-path="url(#p2728a28c54)" d="M 141.218991 162.216004 
L 141.218991 133.936344 
" style="fill:none;stroke:#444444;stroke-linecap:round;stroke-width:4.5;"/>
   </g>
   <g id="line2d_9">
    <path clip-path="url(#p2728a28c54)" d="M 172.798763 109.380898 
L 172.798763 44.622569 
" style="fill:none;stroke:#444444;stroke-linecap:round;stroke-width:1.5;"/>
   </g>
   <g id="line2d_10">
    <path clip-path="url(#p2728a28c54)" d="M 172.798763 80.97348 
L 172.798763 62.027871 
" style="fill:none;stroke:#444444;stroke-linecap:round;stroke-width:4.5;"/>
   </g>
   <g id="line2d_11">
    <path clip-path="url(#p2728a28c54)" d="M 193.851945 131.880533 
L 193.851945 60.60576 
" style="fill:none;stroke:#444444;stroke-linecap:round;stroke-width:1.5;"/>
   </g>
   <g id="line2d_12">
    <path clip-path="url(#p2728a28c54)" d="M 193.851945 107.755771 
L 193.851945 69.460172 
" style="fill:none;stroke:#444444;stroke-linecap:round;stroke-width:4.5;"/>
   </g>
   <g id="line2d_13">
    <path clip-path="url(#p2728a28c54)" d="M 225.431717 163.70924 
L 225.431717 118.71068 
" style="fill:none;stroke:#444444;stroke-linecap:round;stroke-width:1.5;"/>
   </g>
   <g id="line2d_14">
    <path clip-path="url(#p2728a28c54)" d="M 225.431717 144.367563 
L 225.431717 131.473109 
" style="fill:none;stroke:#444444;stroke-linecap:round;stroke-width:4.5;"/>
   </g>
   <g id="line2d_15">
    <path clip-path="url(#p2728a28c54)" d="M 246.484899 178.589402 
L 246.484899 129.767337 
" style="fill:none;stroke:#444444;stroke-linecap:round;stroke-width:1.5;"/>
   </g>
   <g id="line2d_16">
    <path clip-path="url(#p2728a28c54)" d="M 246.484899 162.290399 
L 246.484899 136.547192 
" style="fill:none;stroke:#444444;stroke-linecap:round;stroke-width:4.5;"/>
   </g>
   <g id="line2d_17">
    <path clip-path="url(#p2728a28c54)" d="M 278.064671 223.934714 
L 278.064671 193.018827 
" style="fill:none;stroke:#444444;stroke-linecap:round;stroke-width:1.5;"/>
   </g>
   <g id="line2d_18">
    <path clip-path="url(#p2728a28c54)" d="M 278.064671 210.600176 
L 278.064671 201.710482 
" style="fill:none;stroke:#444444;stroke-linecap:round;stroke-width:4.5;"/>
   </g>
   <g id="line2d_19">
    <path clip-path="url(#p2728a28c54)" d="M 299.117853 228.173041 
L 299.117853 199.42956 
" style="fill:none;stroke:#444444;stroke-linecap:round;stroke-width:1.5;"/>
   </g>
   <g id="line2d_20">
    <path clip-path="url(#p2728a28c54)" d="M 299.117853 217.497677 
L 299.117853 204.223741 
" style="fill:none;stroke:#444444;stroke-linecap:round;stroke-width:4.5;"/>
   </g>
   <g id="patch_5">
    <path d="M 51.742969 285.8325 
L 314.907739 285.8325 
" style="fill:none;stroke:#262626;stroke-linecap:square;stroke-linejoin:miter;stroke-width:1.875;"/>
   </g>
   <g id="PathCollection_1">
    <defs>
     <path d="M 0 1.5 
C 0.397805 1.5 0.77937 1.341951 1.06066 1.06066 
C 1.341951 0.77937 1.5 0.397805 1.5 0 
C 1.5 -0.397805 1.341951 -0.77937 1.06066 -1.06066 
C 0.77937 -1.341951 0.397805 -1.5 0 -1.5 
C -0.397805 -1.5 -0.77937 -1.341951 -1.06066 -1.06066 
C -1.341951 -0.77937 -1.5 -0.397805 -1.5 0 
C -1.5 0.397805 -1.341951 0.77937 -1.06066 1.06066 
C -0.77937 1.341951 -0.397805 1.5 0 1.5 
z
" id="m4441770ae1" style="stroke:#444444;stroke-width:1.5;"/>
    </defs>
    <g clip-path="url(#p2728a28c54)">
     <use style="fill:#ffffff;stroke:#444444;stroke-width:1.5;" x="67.532855" xlink:href="#m4441770ae1" y="64.40434"/>
    </g>
   </g>
   <g id="PathCollection_2">
    <g clip-path="url(#p2728a28c54)">
     <use style="fill:#ffffff;stroke:#444444;stroke-width:1.5;" x="88.586037" xlink:href="#m4441770ae1" y="76.849702"/>
    </g>
   </g>
   <g id="PathCollection_3">
    <g clip-path="url(#p2728a28c54)">
     <use style="fill:#ffffff;stroke:#444444;stroke-width:1.5;" x="120.165809" xlink:href="#m4441770ae1" y="133.255445"/>
    </g>
   </g>
   <g id="PathCollection_4">
    <g clip-path="url(#p2728a28c54)">
     <use style="fill:#ffffff;stroke:#444444;stroke-width:1.5;" x="141.218991" xlink:href="#m4441770ae1" y="141.612036"/>
    </g>
   </g>
   <g id="PathCollection_5">
    <g clip-path="url(#p2728a28c54)">
     <use style="fill:#ffffff;stroke:#444444;stroke-width:1.5;" x="172.798763" xlink:href="#m4441770ae1" y="70.983588"/>
    </g>
   </g>
   <g id="PathCollection_6">
    <g clip-path="url(#p2728a28c54)">
     <use style="fill:#ffffff;stroke:#444444;stroke-width:1.5;" x="193.851945" xlink:href="#m4441770ae1" y="79.978874"/>
    </g>
   </g>
   <g id="PathCollection_7">
    <g clip-path="url(#p2728a28c54)">
     <use style="fill:#ffffff;stroke:#444444;stroke-width:1.5;" x="225.431717" xlink:href="#m4441770ae1" y="137.392237"/>
    </g>
   </g>
   <g id="PathCollection_8">
    <g clip-path="url(#p2728a28c54)">
     <use style="fill:#ffffff;stroke:#444444;stroke-width:1.5;" x="246.484899" xlink:href="#m4441770ae1" y="143.714011"/>
    </g>
   </g>
   <g id="PathCollection_9">
    <g clip-path="url(#p2728a28c54)">
     <use style="fill:#ffffff;stroke:#444444;stroke-width:1.5;" x="278.064671" xlink:href="#m4441770ae1" y="205.473199"/>
    </g>
   </g>
   <g id="PathCollection_10">
    <g clip-path="url(#p2728a28c54)">
     <use style="fill:#ffffff;stroke:#444444;stroke-width:1.5;" x="299.117853" xlink:href="#m4441770ae1" y="210.04757"/>
    </g>
   </g>
  </g>
  <g id="text_13">
   <!-- Other -->
   <defs>
    <path d="M 4.828125 34.859375 
Q 4.828125 52.6875 14.390625 62.765625 
Q 23.96875 72.859375 39.109375 72.859375 
Q 49.03125 72.859375 56.984375 68.109375 
Q 64.9375 63.375 69.109375 54.90625 
Q 73.296875 46.4375 73.296875 35.6875 
Q 73.296875 24.8125 68.890625 16.21875 
Q 64.5 7.625 56.4375 3.203125 
Q 48.390625 -1.21875 39.0625 -1.21875 
Q 28.953125 -1.21875 20.984375 3.65625 
Q 13.03125 8.546875 8.921875 16.984375 
Q 4.828125 25.4375 4.828125 34.859375 
z
M 14.59375 34.71875 
Q 14.59375 21.78125 21.546875 14.328125 
Q 28.515625 6.890625 39.015625 6.890625 
Q 49.703125 6.890625 56.609375 14.40625 
Q 63.53125 21.921875 63.53125 35.75 
Q 63.53125 44.484375 60.578125 51 
Q 57.625 57.515625 51.921875 61.109375 
Q 46.234375 64.703125 39.15625 64.703125 
Q 29.109375 64.703125 21.84375 57.78125 
Q 14.59375 50.875 14.59375 34.71875 
z
" id="ArialMT-79"/>
   </defs>
   <g style="fill:#262626;" transform="translate(166.671101 15.460875)scale(0.216 -0.216)">
    <use xlink:href="#ArialMT-79"/>
    <use x="77.783203" xlink:href="#ArialMT-116"/>
    <use x="105.566406" xlink:href="#ArialMT-104"/>
    <use x="161.181641" xlink:href="#ArialMT-101"/>
    <use x="216.796875" xlink:href="#ArialMT-114"/>
   </g>
  </g>
  <g id="legend_1">
   <g id="text_14">
    <!-- index -->
    <defs>
     <path d="M 0.734375 0 
L 19.671875 26.953125 
L 2.15625 51.859375 
L 13.140625 51.859375 
L 21.09375 39.703125 
Q 23.34375 36.234375 24.703125 33.890625 
Q 26.859375 37.109375 28.65625 39.59375 
L 37.40625 51.859375 
L 47.90625 51.859375 
L 29.984375 27.4375 
L 49.265625 0 
L 38.484375 0 
L 27.828125 16.109375 
L 25 20.453125 
L 11.375 0 
z
" id="ArialMT-120"/>
    </defs>
    <g style="fill:#262626;" transform="translate(338.984914 210.023336)scale(0.153 -0.153)">
     <use xlink:href="#ArialMT-105"/>
     <use x="22.216797" xlink:href="#ArialMT-110"/>
     <use x="77.832031" xlink:href="#ArialMT-100"/>
     <use x="133.447266" xlink:href="#ArialMT-101"/>
     <use x="189.0625" xlink:href="#ArialMT-120"/>
    </g>
   </g>
   <g id="patch_6">
    <path d="M 309.874461 233.124602 
L 342.874461 233.124602 
L 342.874461 221.574602 
L 309.874461 221.574602 
z
" style="fill:#e68193;stroke:#444444;stroke-linejoin:miter;stroke-width:0.75;"/>
   </g>
   <g id="text_15">
    <!-- actual -->
    <defs>
     <path d="M 40.4375 19 
L 49.078125 17.875 
Q 47.65625 8.9375 41.8125 3.875 
Q 35.984375 -1.171875 27.484375 -1.171875 
Q 16.84375 -1.171875 10.375 5.78125 
Q 3.90625 12.75 3.90625 25.734375 
Q 3.90625 34.125 6.6875 40.421875 
Q 9.46875 46.734375 15.15625 49.875 
Q 20.84375 53.03125 27.546875 53.03125 
Q 35.984375 53.03125 41.359375 48.75 
Q 46.734375 44.484375 48.25 36.625 
L 39.703125 35.296875 
Q 38.484375 40.53125 35.375 43.15625 
Q 32.28125 45.796875 27.875 45.796875 
Q 21.234375 45.796875 17.078125 41.03125 
Q 12.9375 36.28125 12.9375 25.984375 
Q 12.9375 15.53125 16.9375 10.796875 
Q 20.953125 6.0625 27.390625 6.0625 
Q 32.5625 6.0625 36.03125 9.234375 
Q 39.5 12.40625 40.4375 19 
z
" id="ArialMT-99"/>
     <path d="M 40.578125 0 
L 40.578125 7.625 
Q 34.515625 -1.171875 24.125 -1.171875 
Q 19.53125 -1.171875 15.546875 0.578125 
Q 11.578125 2.34375 9.640625 5 
Q 7.71875 7.671875 6.9375 11.53125 
Q 6.390625 14.109375 6.390625 19.734375 
L 6.390625 51.859375 
L 15.1875 51.859375 
L 15.1875 23.09375 
Q 15.1875 16.21875 15.71875 13.8125 
Q 16.546875 10.359375 19.234375 8.375 
Q 21.921875 6.390625 25.875 6.390625 
Q 29.828125 6.390625 33.296875 8.421875 
Q 36.765625 10.453125 38.203125 13.9375 
Q 39.65625 17.4375 39.65625 24.078125 
L 39.65625 51.859375 
L 48.4375 51.859375 
L 48.4375 0 
z
" id="ArialMT-117"/>
    </defs>
    <g style="fill:#262626;" transform="translate(356.074461 233.124602)scale(0.165 -0.165)">
     <use xlink:href="#ArialMT-97"/>
     <use x="55.615234" xlink:href="#ArialMT-99"/>
     <use x="105.615234" xlink:href="#ArialMT-116"/>
     <use x="133.398438" xlink:href="#ArialMT-117"/>
     <use x="189.013672" xlink:href="#ArialMT-97"/>
     <use x="244.628906" xlink:href="#ArialMT-108"/>
    </g>
   </g>
   <g id="patch_7">
    <path d="M 309.874461 256.464367 
L 342.874461 256.464367 
L 342.874461 244.914367 
L 309.874461 244.914367 
z
" style="fill:#459e97;stroke:#444444;stroke-linejoin:miter;stroke-width:0.75;"/>
   </g>
   <g id="text_16">
    <!-- cluster -->
    <defs>
     <path d="M 3.078125 15.484375 
L 11.765625 16.84375 
Q 12.5 11.625 15.84375 8.84375 
Q 19.1875 6.0625 25.203125 6.0625 
Q 31.25 6.0625 34.171875 8.515625 
Q 37.109375 10.984375 37.109375 14.3125 
Q 37.109375 17.28125 34.515625 19 
Q 32.71875 20.171875 25.53125 21.96875 
Q 15.875 24.421875 12.140625 26.203125 
Q 8.40625 27.984375 6.46875 31.125 
Q 4.546875 34.28125 4.546875 38.09375 
Q 4.546875 41.546875 6.125 44.5 
Q 7.71875 47.46875 10.453125 49.421875 
Q 12.5 50.921875 16.03125 51.96875 
Q 19.578125 53.03125 23.640625 53.03125 
Q 29.734375 53.03125 34.34375 51.265625 
Q 38.96875 49.515625 41.15625 46.5 
Q 43.359375 43.5 44.1875 38.484375 
L 35.59375 37.3125 
Q 35.015625 41.3125 32.203125 43.546875 
Q 29.390625 45.796875 24.265625 45.796875 
Q 18.21875 45.796875 15.625 43.796875 
Q 13.03125 41.796875 13.03125 39.109375 
Q 13.03125 37.40625 14.109375 36.03125 
Q 15.1875 34.625 17.484375 33.6875 
Q 18.796875 33.203125 25.25 31.453125 
Q 34.578125 28.953125 38.25 27.359375 
Q 41.9375 25.78125 44.03125 22.75 
Q 46.140625 19.734375 46.140625 15.234375 
Q 46.140625 10.84375 43.578125 6.953125 
Q 41.015625 3.078125 36.171875 0.953125 
Q 31.34375 -1.171875 25.25 -1.171875 
Q 15.140625 -1.171875 9.84375 3.03125 
Q 4.546875 7.234375 3.078125 15.484375 
z
" id="ArialMT-115"/>
    </defs>
    <g style="fill:#262626;" transform="translate(356.074461 256.464367)scale(0.165 -0.165)">
     <use xlink:href="#ArialMT-99"/>
     <use x="50" xlink:href="#ArialMT-108"/>
     <use x="72.216797" xlink:href="#ArialMT-117"/>
     <use x="127.832031" xlink:href="#ArialMT-115"/>
     <use x="177.832031" xlink:href="#ArialMT-116"/>
     <use x="205.615234" xlink:href="#ArialMT-101"/>
     <use x="261.230469" xlink:href="#ArialMT-114"/>
    </g>
   </g>
  </g>
 </g>
 <defs>
  <clipPath id="p2728a28c54">
   <rect height="254.6325" width="263.16477" x="51.742969" y="31.2"/>
  </clipPath>
 </defs>
</svg>
