<?xml version="1.0" encoding="utf-8" standalone="no"?>
<!DOCTYPE svg PUBLIC "-//W3C//DTD SVG 1.1//EN"
  "http://www.w3.org/Graphics/SVG/1.1/DTD/svg11.dtd">
<!-- Created with matplotlib (https://matplotlib.org/) -->
<svg height="458.815625pt" version="1.1" viewBox="0 0 419.519539 458.815625" width="419.519539pt" xmlns="http://www.w3.org/2000/svg" xmlns:xlink="http://www.w3.org/1999/xlink">
 <defs>
  <style type="text/css">
*{stroke-linecap:butt;stroke-linejoin:round;}
  </style>
 </defs>
 <g id="figure_1">
  <g id="patch_1">
   <path d="M 0 458.815625 
L 419.519539 458.815625 
L 419.519539 0 
L 0 0 
z
" style="fill:#ffffff;"/>
  </g>
  <g id="axes_1">
   <g id="patch_2">
    <path d="M 51.742969 285.8325 
L 314.907739 285.8325 
L 314.907739 31.2 
L 51.742969 31.2 
z
" style="fill:#ffffff;"/>
   </g>
   <g id="matplotlib.axis_1">
    <g id="xtick_1">
     <g id="text_1">
      <!-- Irrigation High -->
      <defs>
       <path d="M 9.328125 0 
L 9.328125 71.578125 
L 18.796875 71.578125 
L 18.796875 0 
z
" id="ArialMT-73"/>
       <path d="M 6.5 0 
L 6.5 51.859375 
L 14.40625 51.859375 
L 14.40625 44 
Q 17.4375 49.515625 20 51.265625 
Q 22.5625 53.03125 25.640625 53.03125 
Q 30.078125 53.03125 34.671875 50.203125 
L 31.640625 42.046875 
Q 28.421875 43.953125 25.203125 43.953125 
Q 22.3125 43.953125 20.015625 42.21875 
Q 17.71875 40.484375 16.75 37.40625 
Q 15.28125 32.71875 15.28125 27.15625 
L 15.28125 0 
z
" id="ArialMT-114"/>
       <path d="M 6.640625 61.46875 
L 6.640625 71.578125 
L 15.4375 71.578125 
L 15.4375 61.46875 
z
M 6.640625 0 
L 6.640625 51.859375 
L 15.4375 51.859375 
L 15.4375 0 
z
" id="ArialMT-105"/>
       <path d="M 4.984375 -4.296875 
L 13.53125 -5.5625 
Q 14.0625 -9.515625 16.5 -11.328125 
Q 19.78125 -13.765625 25.4375 -13.765625 
Q 31.546875 -13.765625 34.859375 -11.328125 
Q 38.1875 -8.890625 39.359375 -4.5 
Q 40.046875 -1.8125 39.984375 6.78125 
Q 34.234375 0 25.640625 0 
Q 14.9375 0 9.078125 7.71875 
Q 3.21875 15.4375 3.21875 26.21875 
Q 3.21875 33.640625 5.90625 39.90625 
Q 8.59375 46.1875 13.6875 49.609375 
Q 18.796875 53.03125 25.6875 53.03125 
Q 34.859375 53.03125 40.828125 45.609375 
L 40.828125 51.859375 
L 48.921875 51.859375 
L 48.921875 7.03125 
Q 48.921875 -5.078125 46.453125 -10.125 
Q 44 -15.1875 38.640625 -18.109375 
Q 33.296875 -21.046875 25.484375 -21.046875 
Q 16.21875 -21.046875 10.5 -16.875 
Q 4.78125 -12.703125 4.984375 -4.296875 
z
M 12.25 26.859375 
Q 12.25 16.65625 16.296875 11.96875 
Q 20.359375 7.28125 26.46875 7.28125 
Q 32.515625 7.28125 36.609375 11.9375 
Q 40.71875 16.609375 40.71875 26.5625 
Q 40.71875 36.078125 36.5 40.90625 
Q 32.28125 45.75 26.3125 45.75 
Q 20.453125 45.75 16.34375 40.984375 
Q 12.25 36.234375 12.25 26.859375 
z
" id="ArialMT-103"/>
       <path d="M 40.4375 6.390625 
Q 35.546875 2.25 31.03125 0.53125 
Q 26.515625 -1.171875 21.34375 -1.171875 
Q 12.796875 -1.171875 8.203125 3 
Q 3.609375 7.171875 3.609375 13.671875 
Q 3.609375 17.484375 5.34375 20.625 
Q 7.078125 23.78125 9.890625 25.6875 
Q 12.703125 27.59375 16.21875 28.5625 
Q 18.796875 29.25 24.03125 29.890625 
Q 34.671875 31.15625 39.703125 32.90625 
Q 39.75 34.71875 39.75 35.203125 
Q 39.75 40.578125 37.25 42.78125 
Q 33.890625 45.75 27.25 45.75 
Q 21.046875 45.75 18.09375 43.578125 
Q 15.140625 41.40625 13.71875 35.890625 
L 5.125 37.0625 
Q 6.296875 42.578125 8.984375 45.96875 
Q 11.671875 49.359375 16.75 51.1875 
Q 21.828125 53.03125 28.515625 53.03125 
Q 35.15625 53.03125 39.296875 51.46875 
Q 43.453125 49.90625 45.40625 47.53125 
Q 47.359375 45.171875 48.140625 41.546875 
Q 48.578125 39.3125 48.578125 33.453125 
L 48.578125 21.734375 
Q 48.578125 9.46875 49.140625 6.21875 
Q 49.703125 2.984375 51.375 0 
L 42.1875 0 
Q 40.828125 2.734375 40.4375 6.390625 
z
M 39.703125 26.03125 
Q 34.90625 24.078125 25.34375 22.703125 
Q 19.921875 21.921875 17.671875 20.9375 
Q 15.4375 19.96875 14.203125 18.09375 
Q 12.984375 16.21875 12.984375 13.921875 
Q 12.984375 10.40625 15.640625 8.0625 
Q 18.3125 5.71875 23.4375 5.71875 
Q 28.515625 5.71875 32.46875 7.9375 
Q 36.421875 10.15625 38.28125 14.015625 
Q 39.703125 17 39.703125 22.796875 
z
" id="ArialMT-97"/>
       <path d="M 25.78125 7.859375 
L 27.046875 0.09375 
Q 23.34375 -0.6875 20.40625 -0.6875 
Q 15.625 -0.6875 12.984375 0.828125 
Q 10.359375 2.34375 9.28125 4.8125 
Q 8.203125 7.28125 8.203125 15.1875 
L 8.203125 45.015625 
L 1.765625 45.015625 
L 1.765625 51.859375 
L 8.203125 51.859375 
L 8.203125 64.703125 
L 16.9375 69.96875 
L 16.9375 51.859375 
L 25.78125 51.859375 
L 25.78125 45.015625 
L 16.9375 45.015625 
L 16.9375 14.703125 
Q 16.9375 10.9375 17.40625 9.859375 
Q 17.875 8.796875 18.921875 8.15625 
Q 19.96875 7.515625 21.921875 7.515625 
Q 23.390625 7.515625 25.78125 7.859375 
z
" id="ArialMT-116"/>
       <path d="M 3.328125 25.921875 
Q 3.328125 40.328125 11.328125 47.265625 
Q 18.015625 53.03125 27.640625 53.03125 
Q 38.328125 53.03125 45.109375 46.015625 
Q 51.90625 39.015625 51.90625 26.65625 
Q 51.90625 16.65625 48.90625 10.90625 
Q 45.90625 5.171875 40.15625 2 
Q 34.421875 -1.171875 27.640625 -1.171875 
Q 16.75 -1.171875 10.03125 5.8125 
Q 3.328125 12.796875 3.328125 25.921875 
z
M 12.359375 25.921875 
Q 12.359375 15.96875 16.703125 11.015625 
Q 21.046875 6.0625 27.640625 6.0625 
Q 34.1875 6.0625 38.53125 11.03125 
Q 42.875 16.015625 42.875 26.21875 
Q 42.875 35.84375 38.5 40.796875 
Q 34.125 45.75 27.640625 45.75 
Q 21.046875 45.75 16.703125 40.8125 
Q 12.359375 35.890625 12.359375 25.921875 
z
" id="ArialMT-111"/>
       <path d="M 6.59375 0 
L 6.59375 51.859375 
L 14.5 51.859375 
L 14.5 44.484375 
Q 20.21875 53.03125 31 53.03125 
Q 35.6875 53.03125 39.625 51.34375 
Q 43.5625 49.65625 45.515625 46.921875 
Q 47.46875 44.1875 48.25 40.4375 
Q 48.734375 37.984375 48.734375 31.890625 
L 48.734375 0 
L 39.9375 0 
L 39.9375 31.546875 
Q 39.9375 36.921875 38.90625 39.578125 
Q 37.890625 42.234375 35.28125 43.8125 
Q 32.671875 45.40625 29.15625 45.40625 
Q 23.53125 45.40625 19.453125 41.84375 
Q 15.375 38.28125 15.375 28.328125 
L 15.375 0 
z
" id="ArialMT-110"/>
       <path id="ArialMT-32"/>
       <path d="M 8.015625 0 
L 8.015625 71.578125 
L 17.484375 71.578125 
L 17.484375 42.1875 
L 54.6875 42.1875 
L 54.6875 71.578125 
L 64.15625 71.578125 
L 64.15625 0 
L 54.6875 0 
L 54.6875 33.734375 
L 17.484375 33.734375 
L 17.484375 0 
z
" id="ArialMT-72"/>
       <path d="M 6.59375 0 
L 6.59375 71.578125 
L 15.375 71.578125 
L 15.375 45.90625 
Q 21.53125 53.03125 30.90625 53.03125 
Q 36.671875 53.03125 40.921875 50.75 
Q 45.171875 48.484375 47 44.484375 
Q 48.828125 40.484375 48.828125 32.859375 
L 48.828125 0 
L 40.046875 0 
L 40.046875 32.859375 
Q 40.046875 39.453125 37.1875 42.453125 
Q 34.328125 45.453125 29.109375 45.453125 
Q 25.203125 45.453125 21.75 43.421875 
Q 18.3125 41.40625 16.84375 37.9375 
Q 15.375 34.46875 15.375 28.375 
L 15.375 0 
z
" id="ArialMT-104"/>
      </defs>
      <g style="fill:#262626;" transform="translate(82.228274 401.039844)rotate(-90)scale(0.165 -0.165)">
       <use xlink:href="#ArialMT-73"/>
       <use x="27.783203" xlink:href="#ArialMT-114"/>
       <use x="61.083984" xlink:href="#ArialMT-114"/>
       <use x="94.384766" xlink:href="#ArialMT-105"/>
       <use x="116.601562" xlink:href="#ArialMT-103"/>
       <use x="172.216797" xlink:href="#ArialMT-97"/>
       <use x="227.832031" xlink:href="#ArialMT-116"/>
       <use x="255.615234" xlink:href="#ArialMT-105"/>
       <use x="277.832031" xlink:href="#ArialMT-111"/>
       <use x="333.447266" xlink:href="#ArialMT-110"/>
       <use x="389.0625" xlink:href="#ArialMT-32"/>
       <use x="416.845703" xlink:href="#ArialMT-72"/>
       <use x="489.0625" xlink:href="#ArialMT-105"/>
       <use x="511.279297" xlink:href="#ArialMT-103"/>
       <use x="566.894531" xlink:href="#ArialMT-104"/>
      </g>
     </g>
    </g>
    <g id="xtick_2">
     <g id="text_2">
      <!-- Irrigation Intermediate -->
      <defs>
       <path d="M 42.09375 16.703125 
L 51.171875 15.578125 
Q 49.03125 7.625 43.21875 3.21875 
Q 37.40625 -1.171875 28.375 -1.171875 
Q 17 -1.171875 10.328125 5.828125 
Q 3.65625 12.84375 3.65625 25.484375 
Q 3.65625 38.578125 10.390625 45.796875 
Q 17.140625 53.03125 27.875 53.03125 
Q 38.28125 53.03125 44.875 45.953125 
Q 51.46875 38.875 51.46875 26.03125 
Q 51.46875 25.25 51.421875 23.6875 
L 12.75 23.6875 
Q 13.234375 15.140625 17.578125 10.59375 
Q 21.921875 6.0625 28.421875 6.0625 
Q 33.25 6.0625 36.671875 8.59375 
Q 40.09375 11.140625 42.09375 16.703125 
z
M 13.234375 30.90625 
L 42.1875 30.90625 
Q 41.609375 37.453125 38.875 40.71875 
Q 34.671875 45.796875 27.984375 45.796875 
Q 21.921875 45.796875 17.796875 41.75 
Q 13.671875 37.703125 13.234375 30.90625 
z
" id="ArialMT-101"/>
       <path d="M 6.59375 0 
L 6.59375 51.859375 
L 14.453125 51.859375 
L 14.453125 44.578125 
Q 16.890625 48.390625 20.9375 50.703125 
Q 25 53.03125 30.171875 53.03125 
Q 35.9375 53.03125 39.625 50.640625 
Q 43.3125 48.25 44.828125 43.953125 
Q 50.984375 53.03125 60.84375 53.03125 
Q 68.5625 53.03125 72.703125 48.75 
Q 76.859375 44.484375 76.859375 35.59375 
L 76.859375 0 
L 68.109375 0 
L 68.109375 32.671875 
Q 68.109375 37.9375 67.25 40.25 
Q 66.40625 42.578125 64.15625 43.984375 
Q 61.921875 45.40625 58.890625 45.40625 
Q 53.421875 45.40625 49.796875 41.765625 
Q 46.1875 38.140625 46.1875 30.125 
L 46.1875 0 
L 37.40625 0 
L 37.40625 33.6875 
Q 37.40625 39.546875 35.25 42.46875 
Q 33.109375 45.40625 28.21875 45.40625 
Q 24.515625 45.40625 21.359375 43.453125 
Q 18.21875 41.5 16.796875 37.734375 
Q 15.375 33.984375 15.375 26.90625 
L 15.375 0 
z
" id="ArialMT-109"/>
       <path d="M 40.234375 0 
L 40.234375 6.546875 
Q 35.296875 -1.171875 25.734375 -1.171875 
Q 19.53125 -1.171875 14.328125 2.25 
Q 9.125 5.671875 6.265625 11.796875 
Q 3.421875 17.921875 3.421875 25.875 
Q 3.421875 33.640625 6 39.96875 
Q 8.59375 46.296875 13.765625 49.65625 
Q 18.953125 53.03125 25.34375 53.03125 
Q 30.03125 53.03125 33.6875 51.046875 
Q 37.359375 49.078125 39.65625 45.90625 
L 39.65625 71.578125 
L 48.390625 71.578125 
L 48.390625 0 
z
M 12.453125 25.875 
Q 12.453125 15.921875 16.640625 10.984375 
Q 20.84375 6.0625 26.5625 6.0625 
Q 32.328125 6.0625 36.34375 10.765625 
Q 40.375 15.484375 40.375 25.140625 
Q 40.375 35.796875 36.265625 40.765625 
Q 32.171875 45.75 26.171875 45.75 
Q 20.3125 45.75 16.375 40.96875 
Q 12.453125 36.1875 12.453125 25.875 
z
" id="ArialMT-100"/>
      </defs>
      <g style="fill:#262626;" transform="translate(134.861228 458.815625)rotate(-90)scale(0.165 -0.165)">
       <use xlink:href="#ArialMT-73"/>
       <use x="27.783203" xlink:href="#ArialMT-114"/>
       <use x="61.083984" xlink:href="#ArialMT-114"/>
       <use x="94.384766" xlink:href="#ArialMT-105"/>
       <use x="116.601562" xlink:href="#ArialMT-103"/>
       <use x="172.216797" xlink:href="#ArialMT-97"/>
       <use x="227.832031" xlink:href="#ArialMT-116"/>
       <use x="255.615234" xlink:href="#ArialMT-105"/>
       <use x="277.832031" xlink:href="#ArialMT-111"/>
       <use x="333.447266" xlink:href="#ArialMT-110"/>
       <use x="389.0625" xlink:href="#ArialMT-32"/>
       <use x="416.845703" xlink:href="#ArialMT-73"/>
       <use x="444.628906" xlink:href="#ArialMT-110"/>
       <use x="500.244141" xlink:href="#ArialMT-116"/>
       <use x="528.027344" xlink:href="#ArialMT-101"/>
       <use x="583.642578" xlink:href="#ArialMT-114"/>
       <use x="616.943359" xlink:href="#ArialMT-109"/>
       <use x="700.244141" xlink:href="#ArialMT-101"/>
       <use x="755.859375" xlink:href="#ArialMT-100"/>
       <use x="811.474609" xlink:href="#ArialMT-105"/>
       <use x="833.691406" xlink:href="#ArialMT-97"/>
       <use x="889.306641" xlink:href="#ArialMT-116"/>
       <use x="917.089844" xlink:href="#ArialMT-101"/>
      </g>
     </g>
    </g>
    <g id="xtick_3">
     <g id="text_3">
      <!-- Rain-fed High -->
      <defs>
       <path d="M 7.859375 0 
L 7.859375 71.578125 
L 39.59375 71.578125 
Q 49.171875 71.578125 54.140625 69.640625 
Q 59.125 67.71875 62.109375 62.828125 
Q 65.09375 57.953125 65.09375 52.046875 
Q 65.09375 44.4375 60.15625 39.203125 
Q 55.21875 33.984375 44.921875 32.5625 
Q 48.6875 30.765625 50.640625 29 
Q 54.78125 25.203125 58.5 19.484375 
L 70.953125 0 
L 59.03125 0 
L 49.5625 14.890625 
Q 45.40625 21.34375 42.71875 24.75 
Q 40.046875 28.171875 37.921875 29.53125 
Q 35.796875 30.90625 33.59375 31.453125 
Q 31.984375 31.78125 28.328125 31.78125 
L 17.328125 31.78125 
L 17.328125 0 
z
M 17.328125 39.984375 
L 37.703125 39.984375 
Q 44.1875 39.984375 47.84375 41.328125 
Q 51.515625 42.671875 53.421875 45.625 
Q 55.328125 48.578125 55.328125 52.046875 
Q 55.328125 57.125 51.640625 60.390625 
Q 47.953125 63.671875 39.984375 63.671875 
L 17.328125 63.671875 
z
" id="ArialMT-82"/>
       <path d="M 3.171875 21.484375 
L 3.171875 30.328125 
L 30.171875 30.328125 
L 30.171875 21.484375 
z
" id="ArialMT-45"/>
       <path d="M 8.6875 0 
L 8.6875 45.015625 
L 0.921875 45.015625 
L 0.921875 51.859375 
L 8.6875 51.859375 
L 8.6875 57.375 
Q 8.6875 62.59375 9.625 65.140625 
Q 10.890625 68.5625 14.078125 70.671875 
Q 17.28125 72.796875 23.046875 72.796875 
Q 26.765625 72.796875 31.25 71.921875 
L 29.9375 64.265625 
Q 27.203125 64.75 24.75 64.75 
Q 20.75 64.75 19.09375 63.03125 
Q 17.4375 61.328125 17.4375 56.640625 
L 17.4375 51.859375 
L 27.546875 51.859375 
L 27.546875 45.015625 
L 17.4375 45.015625 
L 17.4375 0 
z
" id="ArialMT-102"/>
      </defs>
      <g style="fill:#262626;" transform="translate(187.594729 399.211953)rotate(-90)scale(0.165 -0.165)">
       <use xlink:href="#ArialMT-82"/>
       <use x="72.216797" xlink:href="#ArialMT-97"/>
       <use x="127.832031" xlink:href="#ArialMT-105"/>
       <use x="150.048828" xlink:href="#ArialMT-110"/>
       <use x="205.664062" xlink:href="#ArialMT-45"/>
       <use x="238.964844" xlink:href="#ArialMT-102"/>
       <use x="266.748047" xlink:href="#ArialMT-101"/>
       <use x="322.363281" xlink:href="#ArialMT-100"/>
       <use x="377.978516" xlink:href="#ArialMT-32"/>
       <use x="405.761719" xlink:href="#ArialMT-72"/>
       <use x="477.978516" xlink:href="#ArialMT-105"/>
       <use x="500.195312" xlink:href="#ArialMT-103"/>
       <use x="555.810547" xlink:href="#ArialMT-104"/>
      </g>
     </g>
    </g>
    <g id="xtick_4">
     <g id="text_4">
      <!-- Rain-fed Intermediate -->
      <g style="fill:#262626;" transform="translate(240.223816 456.987734)rotate(-90)scale(0.165 -0.165)">
       <use xlink:href="#ArialMT-82"/>
       <use x="72.216797" xlink:href="#ArialMT-97"/>
       <use x="127.832031" xlink:href="#ArialMT-105"/>
       <use x="150.048828" xlink:href="#ArialMT-110"/>
       <use x="205.664062" xlink:href="#ArialMT-45"/>
       <use x="238.964844" xlink:href="#ArialMT-102"/>
       <use x="266.748047" xlink:href="#ArialMT-101"/>
       <use x="322.363281" xlink:href="#ArialMT-100"/>
       <use x="377.978516" xlink:href="#ArialMT-32"/>
       <use x="405.761719" xlink:href="#ArialMT-73"/>
       <use x="433.544922" xlink:href="#ArialMT-110"/>
       <use x="489.160156" xlink:href="#ArialMT-116"/>
       <use x="516.943359" xlink:href="#ArialMT-101"/>
       <use x="572.558594" xlink:href="#ArialMT-114"/>
       <use x="605.859375" xlink:href="#ArialMT-109"/>
       <use x="689.160156" xlink:href="#ArialMT-101"/>
       <use x="744.775391" xlink:href="#ArialMT-100"/>
       <use x="800.390625" xlink:href="#ArialMT-105"/>
       <use x="822.607422" xlink:href="#ArialMT-97"/>
       <use x="878.222656" xlink:href="#ArialMT-116"/>
       <use x="906.005859" xlink:href="#ArialMT-101"/>
      </g>
     </g>
    </g>
    <g id="xtick_5">
     <g id="text_5">
      <!-- Rain-fed Low -->
      <defs>
       <path d="M 7.328125 0 
L 7.328125 71.578125 
L 16.796875 71.578125 
L 16.796875 8.453125 
L 52.046875 8.453125 
L 52.046875 0 
z
" id="ArialMT-76"/>
       <path d="M 16.15625 0 
L 0.296875 51.859375 
L 9.375 51.859375 
L 17.625 21.921875 
L 20.703125 10.796875 
Q 20.90625 11.625 23.390625 21.484375 
L 31.640625 51.859375 
L 40.671875 51.859375 
L 48.4375 21.78125 
L 51.03125 11.859375 
L 54 21.875 
L 62.890625 51.859375 
L 71.4375 51.859375 
L 55.21875 0 
L 46.09375 0 
L 37.84375 31.0625 
L 35.84375 39.890625 
L 25.34375 0 
z
" id="ArialMT-119"/>
      </defs>
      <g style="fill:#262626;" transform="translate(292.85677 395.545859)rotate(-90)scale(0.165 -0.165)">
       <use xlink:href="#ArialMT-82"/>
       <use x="72.216797" xlink:href="#ArialMT-97"/>
       <use x="127.832031" xlink:href="#ArialMT-105"/>
       <use x="150.048828" xlink:href="#ArialMT-110"/>
       <use x="205.664062" xlink:href="#ArialMT-45"/>
       <use x="238.964844" xlink:href="#ArialMT-102"/>
       <use x="266.748047" xlink:href="#ArialMT-101"/>
       <use x="322.363281" xlink:href="#ArialMT-100"/>
       <use x="377.978516" xlink:href="#ArialMT-32"/>
       <use x="405.761719" xlink:href="#ArialMT-76"/>
       <use x="461.376953" xlink:href="#ArialMT-111"/>
       <use x="516.992188" xlink:href="#ArialMT-119"/>
      </g>
     </g>
    </g>
   </g>
   <g id="matplotlib.axis_2">
    <g id="ytick_1">
     <g id="text_6">
      <!-- 0 -->
      <defs>
       <path d="M 4.15625 35.296875 
Q 4.15625 48 6.765625 55.734375 
Q 9.375 63.484375 14.515625 67.671875 
Q 19.671875 71.875 27.484375 71.875 
Q 33.25 71.875 37.59375 69.546875 
Q 41.9375 67.234375 44.765625 62.859375 
Q 47.609375 58.5 49.21875 52.21875 
Q 50.828125 45.953125 50.828125 35.296875 
Q 50.828125 22.703125 48.234375 14.96875 
Q 45.65625 7.234375 40.5 3 
Q 35.359375 -1.21875 27.484375 -1.21875 
Q 17.140625 -1.21875 11.234375 6.203125 
Q 4.15625 15.140625 4.15625 35.296875 
z
M 13.1875 35.296875 
Q 13.1875 17.671875 17.3125 11.828125 
Q 21.4375 6 27.484375 6 
Q 33.546875 6 37.671875 11.859375 
Q 41.796875 17.71875 41.796875 35.296875 
Q 41.796875 52.984375 37.671875 58.78125 
Q 33.546875 64.59375 27.390625 64.59375 
Q 21.34375 64.59375 17.71875 59.46875 
Q 13.1875 52.9375 13.1875 35.296875 
z
" id="ArialMT-48"/>
      </defs>
      <g style="fill:#262626;" transform="translate(30.067422 280.163491)scale(0.165 -0.165)">
       <use xlink:href="#ArialMT-48"/>
      </g>
     </g>
    </g>
    <g id="ytick_2">
     <g id="text_7">
      <!-- 2 -->
      <defs>
       <path d="M 50.34375 8.453125 
L 50.34375 0 
L 3.03125 0 
Q 2.9375 3.171875 4.046875 6.109375 
Q 5.859375 10.9375 9.828125 15.625 
Q 13.8125 20.3125 21.34375 26.46875 
Q 33.015625 36.03125 37.109375 41.625 
Q 41.21875 47.21875 41.21875 52.203125 
Q 41.21875 57.421875 37.46875 61 
Q 33.734375 64.59375 27.734375 64.59375 
Q 21.390625 64.59375 17.578125 60.78125 
Q 13.765625 56.984375 13.71875 50.25 
L 4.6875 51.171875 
Q 5.609375 61.28125 11.65625 66.578125 
Q 17.71875 71.875 27.9375 71.875 
Q 38.234375 71.875 44.234375 66.15625 
Q 50.25 60.453125 50.25 52 
Q 50.25 47.703125 48.484375 43.546875 
Q 46.734375 39.40625 42.65625 34.8125 
Q 38.578125 30.21875 29.109375 22.21875 
Q 21.1875 15.578125 18.9375 13.203125 
Q 16.703125 10.84375 15.234375 8.453125 
z
" id="ArialMT-50"/>
      </defs>
      <g style="fill:#262626;" transform="translate(30.067422 240.3725)scale(0.165 -0.165)">
       <use xlink:href="#ArialMT-50"/>
      </g>
     </g>
    </g>
    <g id="ytick_3">
     <g id="text_8">
      <!-- 4 -->
      <defs>
       <path d="M 32.328125 0 
L 32.328125 17.140625 
L 1.265625 17.140625 
L 1.265625 25.203125 
L 33.9375 71.578125 
L 41.109375 71.578125 
L 41.109375 25.203125 
L 50.78125 25.203125 
L 50.78125 17.140625 
L 41.109375 17.140625 
L 41.109375 0 
z
M 32.328125 25.203125 
L 32.328125 57.46875 
L 9.90625 25.203125 
z
" id="ArialMT-52"/>
      </defs>
      <g style="fill:#262626;" transform="translate(30.067422 200.58151)scale(0.165 -0.165)">
       <use xlink:href="#ArialMT-52"/>
      </g>
     </g>
    </g>
    <g id="ytick_4">
     <g id="text_9">
      <!-- 6 -->
      <defs>
       <path d="M 49.75 54.046875 
L 41.015625 53.375 
Q 39.84375 58.546875 37.703125 60.890625 
Q 34.125 64.65625 28.90625 64.65625 
Q 24.703125 64.65625 21.53125 62.3125 
Q 17.390625 59.28125 14.984375 53.46875 
Q 12.59375 47.65625 12.5 36.921875 
Q 15.671875 41.75 20.265625 44.09375 
Q 24.859375 46.4375 29.890625 46.4375 
Q 38.671875 46.4375 44.84375 39.96875 
Q 51.03125 33.5 51.03125 23.25 
Q 51.03125 16.5 48.125 10.71875 
Q 45.21875 4.9375 40.140625 1.859375 
Q 35.0625 -1.21875 28.609375 -1.21875 
Q 17.625 -1.21875 10.6875 6.859375 
Q 3.765625 14.9375 3.765625 33.5 
Q 3.765625 54.25 11.421875 63.671875 
Q 18.109375 71.875 29.4375 71.875 
Q 37.890625 71.875 43.28125 67.140625 
Q 48.6875 62.40625 49.75 54.046875 
z
M 13.875 23.1875 
Q 13.875 18.65625 15.796875 14.5 
Q 17.71875 10.359375 21.1875 8.171875 
Q 24.65625 6 28.46875 6 
Q 34.03125 6 38.03125 10.484375 
Q 42.046875 14.984375 42.046875 22.703125 
Q 42.046875 30.125 38.078125 34.390625 
Q 34.125 38.671875 28.125 38.671875 
Q 22.171875 38.671875 18.015625 34.390625 
Q 13.875 30.125 13.875 23.1875 
z
" id="ArialMT-54"/>
      </defs>
      <g style="fill:#262626;" transform="translate(30.067422 160.79052)scale(0.165 -0.165)">
       <use xlink:href="#ArialMT-54"/>
      </g>
     </g>
    </g>
    <g id="ytick_5">
     <g id="text_10">
      <!-- 8 -->
      <defs>
       <path d="M 17.671875 38.8125 
Q 12.203125 40.828125 9.5625 44.53125 
Q 6.9375 48.25 6.9375 53.421875 
Q 6.9375 61.234375 12.546875 66.546875 
Q 18.171875 71.875 27.484375 71.875 
Q 36.859375 71.875 42.578125 66.421875 
Q 48.296875 60.984375 48.296875 53.171875 
Q 48.296875 48.1875 45.671875 44.5 
Q 43.0625 40.828125 37.75 38.8125 
Q 44.34375 36.671875 47.78125 31.875 
Q 51.21875 27.09375 51.21875 20.453125 
Q 51.21875 11.28125 44.71875 5.03125 
Q 38.234375 -1.21875 27.640625 -1.21875 
Q 17.046875 -1.21875 10.546875 5.046875 
Q 4.046875 11.328125 4.046875 20.703125 
Q 4.046875 27.6875 7.59375 32.390625 
Q 11.140625 37.109375 17.671875 38.8125 
z
M 15.921875 53.71875 
Q 15.921875 48.640625 19.1875 45.40625 
Q 22.46875 42.1875 27.6875 42.1875 
Q 32.765625 42.1875 36.015625 45.375 
Q 39.265625 48.578125 39.265625 53.21875 
Q 39.265625 58.0625 35.90625 61.359375 
Q 32.5625 64.65625 27.59375 64.65625 
Q 22.5625 64.65625 19.234375 61.421875 
Q 15.921875 58.203125 15.921875 53.71875 
z
M 13.09375 20.65625 
Q 13.09375 16.890625 14.875 13.375 
Q 16.65625 9.859375 20.171875 7.921875 
Q 23.6875 6 27.734375 6 
Q 34.03125 6 38.125 10.046875 
Q 42.234375 14.109375 42.234375 20.359375 
Q 42.234375 26.703125 38.015625 30.859375 
Q 33.796875 35.015625 27.4375 35.015625 
Q 21.234375 35.015625 17.15625 30.90625 
Q 13.09375 26.8125 13.09375 20.65625 
z
" id="ArialMT-56"/>
      </defs>
      <g style="fill:#262626;" transform="translate(30.067422 120.999529)scale(0.165 -0.165)">
       <use xlink:href="#ArialMT-56"/>
      </g>
     </g>
    </g>
    <g id="ytick_6">
     <g id="text_11">
      <!-- 10 -->
      <defs>
       <path d="M 37.25 0 
L 28.46875 0 
L 28.46875 56 
Q 25.296875 52.984375 20.140625 49.953125 
Q 14.984375 46.921875 10.890625 45.40625 
L 10.890625 53.90625 
Q 18.265625 57.375 23.78125 62.296875 
Q 29.296875 67.234375 31.59375 71.875 
L 37.25 71.875 
z
" id="ArialMT-49"/>
      </defs>
      <g style="fill:#262626;" transform="translate(20.891875 81.208539)scale(0.165 -0.165)">
       <use xlink:href="#ArialMT-49"/>
       <use x="55.615234" xlink:href="#ArialMT-48"/>
      </g>
     </g>
    </g>
    <g id="ytick_7">
     <g id="text_12">
      <!-- 12 -->
      <g style="fill:#262626;" transform="translate(20.891875 41.417549)scale(0.165 -0.165)">
       <use xlink:href="#ArialMT-49"/>
       <use x="55.615234" xlink:href="#ArialMT-50"/>
      </g>
     </g>
    </g>
    <g id="text_13">
     <!-- Yield (t/ha) -->
     <defs>
      <path d="M 27.875 0 
L 27.875 30.328125 
L 0.296875 71.578125 
L 11.8125 71.578125 
L 25.921875 50 
Q 29.828125 43.953125 33.203125 37.890625 
Q 36.421875 43.5 41.015625 50.53125 
L 54.890625 71.578125 
L 65.921875 71.578125 
L 37.359375 30.328125 
L 37.359375 0 
z
" id="ArialMT-89"/>
      <path d="M 6.390625 0 
L 6.390625 71.578125 
L 15.1875 71.578125 
L 15.1875 0 
z
" id="ArialMT-108"/>
      <path d="M 23.390625 -21.046875 
Q 16.109375 -11.859375 11.078125 0.4375 
Q 6.0625 12.75 6.0625 25.921875 
Q 6.0625 37.546875 9.8125 48.1875 
Q 14.203125 60.546875 23.390625 72.796875 
L 29.6875 72.796875 
Q 23.78125 62.640625 21.875 58.296875 
Q 18.890625 51.5625 17.1875 44.234375 
Q 15.09375 35.109375 15.09375 25.875 
Q 15.09375 2.390625 29.6875 -21.046875 
z
" id="ArialMT-40"/>
      <path d="M 0 -1.21875 
L 20.75 72.796875 
L 27.78125 72.796875 
L 7.078125 -1.21875 
z
" id="ArialMT-47"/>
      <path d="M 12.359375 -21.046875 
L 6.0625 -21.046875 
Q 20.65625 2.390625 20.65625 25.875 
Q 20.65625 35.0625 18.5625 44.09375 
Q 16.890625 51.421875 13.921875 58.15625 
Q 12.015625 62.546875 6.0625 72.796875 
L 12.359375 72.796875 
Q 21.53125 60.546875 25.921875 48.1875 
Q 29.6875 37.546875 29.6875 25.921875 
Q 29.6875 12.75 24.625 0.4375 
Q 19.578125 -11.859375 12.359375 -21.046875 
z
" id="ArialMT-41"/>
     </defs>
     <g style="fill:#262626;" transform="translate(13.103437 202.028438)rotate(-90)scale(0.18 -0.18)">
      <use xlink:href="#ArialMT-89"/>
      <use x="66.652344" xlink:href="#ArialMT-105"/>
      <use x="88.869141" xlink:href="#ArialMT-101"/>
      <use x="144.484375" xlink:href="#ArialMT-108"/>
      <use x="166.701172" xlink:href="#ArialMT-100"/>
      <use x="222.316406" xlink:href="#ArialMT-32"/>
      <use x="250.099609" xlink:href="#ArialMT-40"/>
      <use x="283.400391" xlink:href="#ArialMT-116"/>
      <use x="311.183594" xlink:href="#ArialMT-47"/>
      <use x="338.966797" xlink:href="#ArialMT-104"/>
      <use x="394.582031" xlink:href="#ArialMT-97"/>
      <use x="450.197266" xlink:href="#ArialMT-41"/>
     </g>
    </g>
   </g>
   <g id="PolyCollection_1">
    <defs>
     <path d="M 67.922404 -184.55733 
L 67.143306 -184.55733 
L 67.179453 -186.895553 
L 67.268987 -189.233776 
L 67.370705 -191.571999 
L 67.450846 -193.910222 
L 67.498719 -196.248445 
L 67.521161 -198.586668 
L 67.529558 -200.924892 
L 67.53209 -203.263115 
L 67.532709 -205.601338 
L 67.532832 -207.939561 
L 67.532852 -210.277784 
L 67.532855 -212.616007 
L 67.532855 -214.95423 
L 67.532855 -217.292454 
L 67.532855 -219.630677 
L 67.532855 -221.9689 
L 67.532855 -224.307123 
L 67.532855 -226.645346 
L 67.532855 -228.983569 
L 67.532855 -231.321792 
L 67.532855 -233.660015 
L 67.532855 -235.998239 
L 67.532855 -238.336462 
L 67.532855 -240.674685 
L 67.532855 -243.012908 
L 67.532855 -245.351131 
L 67.532855 -247.689354 
L 67.532855 -250.027577 
L 67.532855 -252.365801 
L 67.532855 -254.704024 
L 67.532855 -257.042247 
L 67.532855 -259.38047 
L 67.532855 -261.718693 
L 67.532855 -264.056916 
L 67.532855 -266.395139 
L 67.532855 -268.733363 
L 67.532855 -271.071586 
L 67.532855 -273.409809 
L 67.532855 -275.748032 
L 67.532855 -278.086255 
L 67.532855 -280.424478 
L 67.532855 -282.762701 
L 67.532855 -285.100925 
L 67.532855 -287.439148 
L 67.532855 -289.777371 
L 67.532855 -292.115594 
L 67.532855 -294.453817 
L 67.532855 -296.79204 
L 67.532855 -299.130263 
L 67.532855 -301.468487 
L 67.532855 -303.80671 
L 67.532855 -306.144933 
L 67.532855 -308.483156 
L 67.532855 -310.821379 
L 67.532855 -313.159602 
L 67.532855 -315.497825 
L 67.532855 -317.836049 
L 67.532855 -320.174272 
L 67.532855 -322.512495 
L 67.532854 -324.850718 
L 67.532849 -327.188941 
L 67.532824 -329.527164 
L 67.53272 -331.865387 
L 67.532345 -334.203611 
L 67.53117 -336.541834 
L 67.527872 -338.880057 
L 67.51941 -341.21828 
L 67.499335 -343.556503 
L 67.45555 -345.894726 
L 67.369254 -348.232949 
L 67.218678 -350.571173 
L 66.990225 -352.909396 
L 66.692856 -355.247619 
L 66.363054 -357.585842 
L 66.04901 -359.924065 
L 65.77942 -362.262288 
L 65.539537 -364.600511 
L 65.273878 -366.938735 
L 64.912486 -369.276958 
L 64.398987 -371.615181 
L 63.699361 -373.953404 
L 62.789107 -376.291627 
L 61.646132 -378.62985 
L 60.290171 -380.968073 
L 58.863292 -383.306296 
L 57.659247 -385.64452 
L 57.006264 -387.982743 
L 57.056808 -390.320966 
L 57.679172 -392.659189 
L 58.566885 -394.997412 
L 59.454662 -397.335635 
L 60.241203 -399.673858 
L 60.95776 -402.012082 
L 61.676848 -404.350305 
L 62.455134 -406.688528 
L 63.316641 -409.026751 
L 64.243969 -411.364974 
L 65.172201 -413.703197 
L 66.005054 -416.04142 
L 69.060656 -416.04142 
L 69.060656 -416.04142 
L 69.893509 -413.703197 
L 70.821741 -411.364974 
L 71.749069 -409.026751 
L 72.610576 -406.688528 
L 73.388862 -404.350305 
L 74.10795 -402.012082 
L 74.824507 -399.673858 
L 75.611048 -397.335635 
L 76.498825 -394.997412 
L 77.386538 -392.659189 
L 78.008902 -390.320966 
L 78.059446 -387.982743 
L 77.406462 -385.64452 
L 76.202417 -383.306296 
L 74.775539 -380.968073 
L 73.419578 -378.62985 
L 72.276603 -376.291627 
L 71.366349 -373.953404 
L 70.666723 -371.615181 
L 70.153224 -369.276958 
L 69.791832 -366.938735 
L 69.526173 -364.600511 
L 69.286289 -362.262288 
L 69.0167 -359.924065 
L 68.702656 -357.585842 
L 68.372854 -355.247619 
L 68.075485 -352.909396 
L 67.847032 -350.571173 
L 67.696456 -348.232949 
L 67.61016 -345.894726 
L 67.566375 -343.556503 
L 67.5463 -341.21828 
L 67.537838 -338.880057 
L 67.53454 -336.541834 
L 67.533364 -334.203611 
L 67.53299 -331.865387 
L 67.532886 -329.527164 
L 67.532861 -327.188941 
L 67.532856 -324.850718 
L 67.532855 -322.512495 
L 67.532855 -320.174272 
L 67.532855 -317.836049 
L 67.532855 -315.497825 
L 67.532855 -313.159602 
L 67.532855 -310.821379 
L 67.532855 -308.483156 
L 67.532855 -306.144933 
L 67.532855 -303.80671 
L 67.532855 -301.468487 
L 67.532855 -299.130263 
L 67.532855 -296.79204 
L 67.532855 -294.453817 
L 67.532855 -292.115594 
L 67.532855 -289.777371 
L 67.532855 -287.439148 
L 67.532855 -285.100925 
L 67.532855 -282.762701 
L 67.532855 -280.424478 
L 67.532855 -278.086255 
L 67.532855 -275.748032 
L 67.532855 -273.409809 
L 67.532855 -271.071586 
L 67.532855 -268.733363 
L 67.532855 -266.395139 
L 67.532855 -264.056916 
L 67.532855 -261.718693 
L 67.532855 -259.38047 
L 67.532855 -257.042247 
L 67.532855 -254.704024 
L 67.532855 -252.365801 
L 67.532855 -250.027577 
L 67.532855 -247.689354 
L 67.532855 -245.351131 
L 67.532855 -243.012908 
L 67.532855 -240.674685 
L 67.532855 -238.336462 
L 67.532855 -235.998239 
L 67.532855 -233.660015 
L 67.532855 -231.321792 
L 67.532855 -228.983569 
L 67.532855 -226.645346 
L 67.532855 -224.307123 
L 67.532855 -221.9689 
L 67.532855 -219.630677 
L 67.532855 -217.292454 
L 67.532855 -214.95423 
L 67.532855 -212.616007 
L 67.532858 -210.277784 
L 67.532878 -207.939561 
L 67.533001 -205.601338 
L 67.53362 -203.263115 
L 67.536152 -200.924892 
L 67.544549 -198.586668 
L 67.566991 -196.248445 
L 67.614863 -193.910222 
L 67.695005 -191.571999 
L 67.796723 -189.233776 
L 67.886257 -186.895553 
L 67.922404 -184.55733 
z
" id="m06dfdb8cce" style="stroke:#444444;stroke-width:1.5;"/>
    </defs>
    <g clip-path="url(#pd04a91bc4f)">
     <use style="fill:#e68193;stroke:#444444;stroke-width:1.5;" x="0" xlink:href="#m06dfdb8cce" y="458.815625"/>
    </g>
   </g>
   <g id="PolyCollection_2">
    <defs>
     <path d="M 89.144733 -184.55733 
L 88.027341 -184.55733 
L 88.027775 -186.76549 
L 88.029344 -188.973651 
L 88.032031 -191.181812 
L 88.035814 -193.389973 
L 88.040663 -195.598134 
L 88.04654 -197.806294 
L 88.053399 -200.014455 
L 88.061189 -202.222616 
L 88.069852 -204.430777 
L 88.079322 -206.638938 
L 88.08953 -208.847099 
L 88.100401 -211.055259 
L 88.111852 -213.26342 
L 88.123801 -215.471581 
L 88.136159 -217.679742 
L 88.148835 -219.887903 
L 88.161733 -222.096063 
L 88.174759 -224.304224 
L 88.187812 -226.512385 
L 88.200795 -228.720546 
L 88.213606 -230.928707 
L 88.226145 -233.136868 
L 88.238311 -235.345028 
L 88.250003 -237.553189 
L 88.261121 -239.76135 
L 88.271566 -241.969511 
L 88.281239 -244.177672 
L 88.290044 -246.385832 
L 88.297885 -248.593993 
L 88.304668 -250.802154 
L 88.310301 -253.010315 
L 88.314694 -255.218476 
L 88.31776 -257.426636 
L 88.319412 -259.634797 
L 88.319567 -261.842958 
L 88.318145 -264.051119 
L 88.315067 -266.25928 
L 88.310259 -268.467441 
L 88.30365 -270.675601 
L 88.295172 -272.883762 
L 88.284759 -275.091923 
L 88.272355 -277.300084 
L 88.257902 -279.508245 
L 88.241353 -281.716405 
L 88.222662 -283.924566 
L 88.201795 -286.132727 
L 88.178719 -288.340888 
L 88.153413 -290.549049 
L 88.125862 -292.75721 
L 88.096061 -294.96537 
L 88.064016 -297.173531 
L 88.029741 -299.381692 
L 87.993262 -301.589853 
L 87.954617 -303.798014 
L 87.913858 -306.006174 
L 87.871046 -308.214335 
L 87.82626 -310.422496 
L 87.77959 -312.630657 
L 87.73114 -314.838818 
L 87.681032 -317.046979 
L 87.629398 -319.255139 
L 87.576387 -321.4633 
L 87.522162 -323.671461 
L 87.466901 -325.879622 
L 87.410792 -328.087783 
L 87.35404 -330.295943 
L 87.296861 -332.504104 
L 87.239479 -334.712265 
L 87.182132 -336.920426 
L 87.125065 -339.128587 
L 87.068529 -341.336748 
L 87.012783 -343.544908 
L 86.958087 -345.753069 
L 86.904707 -347.96123 
L 86.852904 -350.169391 
L 86.802943 -352.377552 
L 86.75508 -354.585712 
L 86.709568 -356.793873 
L 86.666651 -359.002034 
L 86.626562 -361.210195 
L 86.589525 -363.418356 
L 86.555746 -365.626517 
L 86.525418 -367.834677 
L 86.498715 -370.042838 
L 86.475791 -372.250999 
L 86.456781 -374.45916 
L 86.441798 -376.667321 
L 86.43093 -378.875481 
L 86.424243 -381.083642 
L 86.421778 -383.291803 
L 86.423552 -385.499964 
L 86.429554 -387.708125 
L 86.439751 -389.916286 
L 86.454086 -392.124446 
L 86.472474 -394.332607 
L 86.494812 -396.540768 
L 86.520971 -398.748929 
L 86.550802 -400.95709 
L 86.584137 -403.16525 
L 90.587936 -403.16525 
L 90.587936 -403.16525 
L 90.621271 -400.95709 
L 90.651102 -398.748929 
L 90.677261 -396.540768 
L 90.699599 -394.332607 
L 90.717987 -392.124446 
L 90.732322 -389.916286 
L 90.742519 -387.708125 
L 90.748522 -385.499964 
L 90.750295 -383.291803 
L 90.74783 -381.083642 
L 90.741143 -378.875481 
L 90.730275 -376.667321 
L 90.715292 -374.45916 
L 90.696282 -372.250999 
L 90.673358 -370.042838 
L 90.646655 -367.834677 
L 90.616327 -365.626517 
L 90.582548 -363.418356 
L 90.545511 -361.210195 
L 90.505422 -359.002034 
L 90.462505 -356.793873 
L 90.416993 -354.585712 
L 90.36913 -352.377552 
L 90.319169 -350.169391 
L 90.267367 -347.96123 
L 90.213986 -345.753069 
L 90.159291 -343.544908 
L 90.103544 -341.336748 
L 90.047008 -339.128587 
L 89.989941 -336.920426 
L 89.932594 -334.712265 
L 89.875212 -332.504104 
L 89.818033 -330.295943 
L 89.761281 -328.087783 
L 89.705172 -325.879622 
L 89.649911 -323.671461 
L 89.595686 -321.4633 
L 89.542675 -319.255139 
L 89.491041 -317.046979 
L 89.440933 -314.838818 
L 89.392483 -312.630657 
L 89.345813 -310.422496 
L 89.301027 -308.214335 
L 89.258216 -306.006174 
L 89.217456 -303.798014 
L 89.178811 -301.589853 
L 89.142332 -299.381692 
L 89.108057 -297.173531 
L 89.076012 -294.96537 
L 89.046211 -292.75721 
L 89.018661 -290.549049 
L 88.993354 -288.340888 
L 88.970279 -286.132727 
L 88.949411 -283.924566 
L 88.930721 -281.716405 
L 88.914171 -279.508245 
L 88.899719 -277.300084 
L 88.887314 -275.091923 
L 88.876902 -272.883762 
L 88.868423 -270.675601 
L 88.861814 -268.467441 
L 88.857006 -266.25928 
L 88.853929 -264.051119 
L 88.852506 -261.842958 
L 88.852661 -259.634797 
L 88.854313 -257.426636 
L 88.857379 -255.218476 
L 88.861772 -253.010315 
L 88.867405 -250.802154 
L 88.874188 -248.593993 
L 88.882029 -246.385832 
L 88.890834 -244.177672 
L 88.900507 -241.969511 
L 88.910952 -239.76135 
L 88.92207 -237.553189 
L 88.933762 -235.345028 
L 88.945928 -233.136868 
L 88.958467 -230.928707 
L 88.971278 -228.720546 
L 88.984261 -226.512385 
L 88.997315 -224.304224 
L 89.01034 -222.096063 
L 89.023238 -219.887903 
L 89.035914 -217.679742 
L 89.048272 -215.471581 
L 89.060221 -213.26342 
L 89.071673 -211.055259 
L 89.082543 -208.847099 
L 89.092751 -206.638938 
L 89.102221 -204.430777 
L 89.110884 -202.222616 
L 89.118674 -200.014455 
L 89.125533 -197.806294 
L 89.13141 -195.598134 
L 89.136259 -193.389973 
L 89.140042 -191.181812 
L 89.142729 -188.973651 
L 89.144298 -186.76549 
L 89.144733 -184.55733 
z
" id="mb063a2824c" style="stroke:#444444;stroke-width:1.5;"/>
    </defs>
    <g clip-path="url(#pd04a91bc4f)">
     <use style="fill:#459e97;stroke:#444444;stroke-width:1.5;" x="0" xlink:href="#mb063a2824c" y="458.815625"/>
    </g>
   </g>
   <g id="PolyCollection_3">
    <defs>
     <path d="M 120.536474 -184.55733 
L 119.795144 -184.55733 
L 119.817978 -186.100537 
L 119.878381 -187.643744 
L 119.956656 -189.186951 
L 120.031788 -190.730158 
L 120.090185 -192.273365 
L 120.128233 -193.816572 
L 120.149367 -195.359779 
L 120.159474 -196.902987 
L 120.163659 -198.446194 
L 120.165167 -199.989401 
L 120.16564 -201.532608 
L 120.16577 -203.075815 
L 120.165801 -204.619022 
L 120.165808 -206.162229 
L 120.165809 -207.705436 
L 120.165809 -209.248644 
L 120.165809 -210.791851 
L 120.165809 -212.335058 
L 120.165809 -213.878265 
L 120.165809 -215.421472 
L 120.165809 -216.964679 
L 120.165809 -218.507886 
L 120.165809 -220.051093 
L 120.165809 -221.594301 
L 120.165809 -223.137508 
L 120.165809 -224.680715 
L 120.165809 -226.223922 
L 120.165809 -227.767129 
L 120.165809 -229.310336 
L 120.165809 -230.853543 
L 120.165809 -232.39675 
L 120.165809 -233.939958 
L 120.165808 -235.483165 
L 120.165803 -237.026372 
L 120.165785 -238.569579 
L 120.165719 -240.112786 
L 120.165508 -241.655993 
L 120.164909 -243.1992 
L 120.163386 -244.742407 
L 120.159917 -246.285615 
L 120.152821 -247.828822 
L 120.139751 -249.372029 
L 120.118028 -250.915236 
L 120.085403 -252.458443 
L 120.041058 -254.00165 
L 119.986366 -255.544857 
L 119.924818 -257.088064 
L 119.860828 -258.631272 
L 119.797805 -260.174479 
L 119.736453 -261.717686 
L 119.674341 -263.260893 
L 119.607189 -264.8041 
L 119.531414 -266.347307 
L 119.446682 -267.890514 
L 119.3571 -269.433721 
L 119.270353 -270.976929 
L 119.195228 -272.520136 
L 119.138614 -274.063343 
L 119.103038 -275.60655 
L 119.085478 -277.149757 
L 119.078166 -278.692964 
L 119.071718 -280.236171 
L 119.059654 -281.779378 
L 119.041774 -283.322586 
L 119.023957 -284.865793 
L 119.014241 -286.409 
L 119.017873 -287.952207 
L 119.034721 -289.495414 
L 119.060401 -291.038621 
L 119.089578 -292.581828 
L 119.118559 -294.125035 
L 119.145354 -295.668243 
L 119.167474 -297.21145 
L 119.178983 -298.754657 
L 119.167867 -300.297864 
L 119.113778 -301.841071 
L 118.986226 -303.384278 
L 118.744444 -304.927485 
L 118.340879 -306.470692 
L 117.729228 -308.0139 
L 116.876255 -309.557107 
L 115.77645 -311.100314 
L 114.469027 -312.643521 
L 113.053262 -314.186728 
L 111.689664 -315.729935 
L 110.571113 -317.273142 
L 109.862941 -318.81635 
L 109.639218 -320.359557 
L 109.856813 -321.902764 
L 110.387553 -323.445971 
L 111.086822 -324.989178 
L 111.853271 -326.532385 
L 112.648744 -328.075592 
L 113.480551 -329.618799 
L 114.368388 -331.162007 
L 115.31605 -332.705214 
L 116.297053 -334.248421 
L 117.256031 -335.791628 
L 118.124125 -337.334835 
L 122.207493 -337.334835 
L 122.207493 -337.334835 
L 123.075587 -335.791628 
L 124.034565 -334.248421 
L 125.015568 -332.705214 
L 125.96323 -331.162007 
L 126.851067 -329.618799 
L 127.682874 -328.075592 
L 128.478347 -326.532385 
L 129.244796 -324.989178 
L 129.944065 -323.445971 
L 130.474805 -321.902764 
L 130.6924 -320.359557 
L 130.468677 -318.81635 
L 129.760504 -317.273142 
L 128.641954 -315.729935 
L 127.278356 -314.186728 
L 125.86259 -312.643521 
L 124.555168 -311.100314 
L 123.455363 -309.557107 
L 122.60239 -308.0139 
L 121.990739 -306.470692 
L 121.587174 -304.927485 
L 121.345392 -303.384278 
L 121.21784 -301.841071 
L 121.163751 -300.297864 
L 121.152635 -298.754657 
L 121.164144 -297.21145 
L 121.186263 -295.668243 
L 121.213059 -294.125035 
L 121.24204 -292.581828 
L 121.271217 -291.038621 
L 121.296897 -289.495414 
L 121.313745 -287.952207 
L 121.317376 -286.409 
L 121.30766 -284.865793 
L 121.289844 -283.322586 
L 121.271964 -281.779378 
L 121.2599 -280.236171 
L 121.253452 -278.692964 
L 121.246139 -277.149757 
L 121.22858 -275.60655 
L 121.193004 -274.063343 
L 121.13639 -272.520136 
L 121.061265 -270.976929 
L 120.974518 -269.433721 
L 120.884936 -267.890514 
L 120.800204 -266.347307 
L 120.724429 -264.8041 
L 120.657277 -263.260893 
L 120.595165 -261.717686 
L 120.533813 -260.174479 
L 120.47079 -258.631272 
L 120.4068 -257.088064 
L 120.345252 -255.544857 
L 120.29056 -254.00165 
L 120.246215 -252.458443 
L 120.21359 -250.915236 
L 120.191867 -249.372029 
L 120.178797 -247.828822 
L 120.171701 -246.285615 
L 120.168232 -244.742407 
L 120.166709 -243.1992 
L 120.16611 -241.655993 
L 120.165899 -240.112786 
L 120.165833 -238.569579 
L 120.165815 -237.026372 
L 120.16581 -235.483165 
L 120.165809 -233.939958 
L 120.165809 -232.39675 
L 120.165809 -230.853543 
L 120.165809 -229.310336 
L 120.165809 -227.767129 
L 120.165809 -226.223922 
L 120.165809 -224.680715 
L 120.165809 -223.137508 
L 120.165809 -221.594301 
L 120.165809 -220.051093 
L 120.165809 -218.507886 
L 120.165809 -216.964679 
L 120.165809 -215.421472 
L 120.165809 -213.878265 
L 120.165809 -212.335058 
L 120.165809 -210.791851 
L 120.165809 -209.248644 
L 120.165809 -207.705436 
L 120.16581 -206.162229 
L 120.165817 -204.619022 
L 120.165848 -203.075815 
L 120.165978 -201.532608 
L 120.166451 -199.989401 
L 120.167958 -198.446194 
L 120.172144 -196.902987 
L 120.182251 -195.359779 
L 120.203385 -193.816572 
L 120.241432 -192.273365 
L 120.29983 -190.730158 
L 120.374962 -189.186951 
L 120.453237 -187.643744 
L 120.51364 -186.100537 
L 120.536474 -184.55733 
z
" id="m9855ee8d6f" style="stroke:#444444;stroke-width:1.5;"/>
    </defs>
    <g clip-path="url(#pd04a91bc4f)">
     <use style="fill:#e68193;stroke:#444444;stroke-width:1.5;" x="0" xlink:href="#m9855ee8d6f" y="458.815625"/>
    </g>
   </g>
   <g id="PolyCollection_4">
    <defs>
     <path d="M 141.902146 -184.55733 
L 140.535835 -184.55733 
L 140.534892 -186.012739 
L 140.535198 -187.468149 
L 140.536718 -188.923558 
L 140.539406 -190.378968 
L 140.543207 -191.834377 
L 140.548054 -193.289787 
L 140.553874 -194.745196 
L 140.560579 -196.200606 
L 140.568079 -197.656015 
L 140.57627 -199.111425 
L 140.585046 -200.566834 
L 140.594291 -202.022244 
L 140.603887 -203.477653 
L 140.613708 -204.933063 
L 140.623628 -206.388473 
L 140.633517 -207.843882 
L 140.643242 -209.299292 
L 140.652672 -210.754701 
L 140.661676 -212.210111 
L 140.670123 -213.66552 
L 140.677886 -215.12093 
L 140.68484 -216.576339 
L 140.690864 -218.031749 
L 140.695843 -219.487158 
L 140.699667 -220.942568 
L 140.702231 -222.397977 
L 140.703437 -223.853387 
L 140.703196 -225.308796 
L 140.701425 -226.764206 
L 140.698049 -228.219616 
L 140.693 -229.675025 
L 140.686221 -231.130435 
L 140.677663 -232.585844 
L 140.667283 -234.041254 
L 140.65505 -235.496663 
L 140.64094 -236.952073 
L 140.624936 -238.407482 
L 140.607032 -239.862892 
L 140.58723 -241.318301 
L 140.565537 -242.773711 
L 140.541972 -244.22912 
L 140.516557 -245.68453 
L 140.489326 -247.139939 
L 140.460316 -248.595349 
L 140.429574 -250.050759 
L 140.39715 -251.506168 
L 140.363105 -252.961578 
L 140.327502 -254.416987 
L 140.290412 -255.872397 
L 140.25191 -257.327806 
L 140.21208 -258.783216 
L 140.171009 -260.238625 
L 140.128789 -261.694035 
L 140.085519 -263.149444 
L 140.041302 -264.604854 
L 139.996247 -266.060263 
L 139.950468 -267.515673 
L 139.904084 -268.971082 
L 139.85722 -270.426492 
L 139.810003 -271.881901 
L 139.762569 -273.337311 
L 139.715057 -274.792721 
L 139.667609 -276.24813 
L 139.620376 -277.70354 
L 139.573508 -279.158949 
L 139.527164 -280.614359 
L 139.481502 -282.069768 
L 139.436687 -283.525178 
L 139.392885 -284.980587 
L 139.350265 -286.435997 
L 139.308995 -287.891406 
L 139.269246 -289.346816 
L 139.23119 -290.802225 
L 139.194995 -292.257635 
L 139.160829 -293.713044 
L 139.128856 -295.168454 
L 139.099236 -296.623864 
L 139.072124 -298.079273 
L 139.047668 -299.534683 
L 139.026009 -300.990092 
L 139.007277 -302.445502 
L 138.991596 -303.900911 
L 138.979074 -305.356321 
L 138.969808 -306.81173 
L 138.963884 -308.26714 
L 138.961369 -309.722549 
L 138.962318 -311.177959 
L 138.966769 -312.633368 
L 138.97474 -314.088778 
L 138.986235 -315.544187 
L 139.00124 -316.999597 
L 139.01972 -318.455007 
L 139.041625 -319.910416 
L 139.066884 -321.365826 
L 139.095411 -322.821235 
L 139.1271 -324.276645 
L 139.161831 -325.732054 
L 139.199465 -327.187464 
L 139.239851 -328.642873 
L 143.19813 -328.642873 
L 143.19813 -328.642873 
L 143.238516 -327.187464 
L 143.27615 -325.732054 
L 143.310881 -324.276645 
L 143.34257 -322.821235 
L 143.371097 -321.365826 
L 143.396356 -319.910416 
L 143.418261 -318.455007 
L 143.436741 -316.999597 
L 143.451746 -315.544187 
L 143.463241 -314.088778 
L 143.471213 -312.633368 
L 143.475663 -311.177959 
L 143.476612 -309.722549 
L 143.474097 -308.26714 
L 143.468173 -306.81173 
L 143.458907 -305.356321 
L 143.446385 -303.900911 
L 143.430704 -302.445502 
L 143.411973 -300.990092 
L 143.390313 -299.534683 
L 143.365857 -298.079273 
L 143.338745 -296.623864 
L 143.309125 -295.168454 
L 143.277152 -293.713044 
L 143.242986 -292.257635 
L 143.206791 -290.802225 
L 143.168735 -289.346816 
L 143.128986 -287.891406 
L 143.087717 -286.435997 
L 143.045096 -284.980587 
L 143.001294 -283.525178 
L 142.956479 -282.069768 
L 142.910817 -280.614359 
L 142.864473 -279.158949 
L 142.817605 -277.70354 
L 142.770372 -276.24813 
L 142.722924 -274.792721 
L 142.675412 -273.337311 
L 142.627978 -271.881901 
L 142.580761 -270.426492 
L 142.533897 -268.971082 
L 142.487513 -267.515673 
L 142.441734 -266.060263 
L 142.396679 -264.604854 
L 142.352462 -263.149444 
L 142.309192 -261.694035 
L 142.266972 -260.238625 
L 142.225901 -258.783216 
L 142.186071 -257.327806 
L 142.14757 -255.872397 
L 142.110479 -254.416987 
L 142.074876 -252.961578 
L 142.040831 -251.506168 
L 142.008407 -250.050759 
L 141.977665 -248.595349 
L 141.948655 -247.139939 
L 141.921424 -245.68453 
L 141.89601 -244.22912 
L 141.872444 -242.773711 
L 141.850751 -241.318301 
L 141.830949 -239.862892 
L 141.813045 -238.407482 
L 141.797041 -236.952073 
L 141.782931 -235.496663 
L 141.770698 -234.041254 
L 141.760318 -232.585844 
L 141.75176 -231.130435 
L 141.744981 -229.675025 
L 141.739933 -228.219616 
L 141.736556 -226.764206 
L 141.734785 -225.308796 
L 141.734544 -223.853387 
L 141.73575 -222.397977 
L 141.738314 -220.942568 
L 141.742138 -219.487158 
L 141.747117 -218.031749 
L 141.753141 -216.576339 
L 141.760095 -215.12093 
L 141.767858 -213.66552 
L 141.776305 -212.210111 
L 141.785309 -210.754701 
L 141.794739 -209.299292 
L 141.804464 -207.843882 
L 141.814353 -206.388473 
L 141.824273 -204.933063 
L 141.834094 -203.477653 
L 141.84369 -202.022244 
L 141.852935 -200.566834 
L 141.861711 -199.111425 
L 141.869902 -197.656015 
L 141.877402 -196.200606 
L 141.884107 -194.745196 
L 141.889927 -193.289787 
L 141.894774 -191.834377 
L 141.898575 -190.378968 
L 141.901263 -188.923558 
L 141.902783 -187.468149 
L 141.903089 -186.012739 
L 141.902146 -184.55733 
z
" id="m443a744791" style="stroke:#444444;stroke-width:1.5;"/>
    </defs>
    <g clip-path="url(#pd04a91bc4f)">
     <use style="fill:#459e97;stroke:#444444;stroke-width:1.5;" x="0" xlink:href="#m443a744791" y="458.815625"/>
    </g>
   </g>
   <g id="PolyCollection_5">
    <defs>
     <path d="M 173.218174 -184.55733 
L 172.379352 -184.55733 
L 172.418841 -186.850737 
L 172.516368 -189.144145 
L 172.626526 -191.437553 
L 172.712563 -193.730961 
L 172.763364 -196.024369 
L 172.786834 -198.317777 
L 172.795465 -200.611185 
L 172.798015 -202.904593 
L 172.798624 -205.198001 
L 172.798742 -207.491409 
L 172.79876 -209.784817 
L 172.798763 -212.078225 
L 172.798763 -214.371633 
L 172.798763 -216.665041 
L 172.798763 -218.958448 
L 172.798763 -221.251856 
L 172.798763 -223.545264 
L 172.798763 -225.838672 
L 172.798763 -228.13208 
L 172.798763 -230.425488 
L 172.798763 -232.718896 
L 172.798763 -235.012304 
L 172.798763 -237.305712 
L 172.798763 -239.59912 
L 172.798763 -241.892528 
L 172.798763 -244.185936 
L 172.798763 -246.479344 
L 172.798763 -248.772752 
L 172.798763 -251.066159 
L 172.798763 -253.359567 
L 172.798763 -255.652975 
L 172.798763 -257.946383 
L 172.798763 -260.239791 
L 172.798763 -262.533199 
L 172.798763 -264.826607 
L 172.798763 -267.120015 
L 172.798763 -269.413423 
L 172.798763 -271.706831 
L 172.798763 -274.000239 
L 172.798763 -276.293647 
L 172.798763 -278.587055 
L 172.798763 -280.880463 
L 172.798763 -283.173871 
L 172.798763 -285.467278 
L 172.798763 -287.760686 
L 172.798763 -290.054094 
L 172.798763 -292.347502 
L 172.798763 -294.64091 
L 172.798763 -296.934318 
L 172.798763 -299.227726 
L 172.798763 -301.521134 
L 172.798763 -303.814542 
L 172.798763 -306.10795 
L 172.798763 -308.401358 
L 172.798763 -310.694766 
L 172.798763 -312.988174 
L 172.798763 -315.281582 
L 172.798763 -317.574989 
L 172.798763 -319.868397 
L 172.798763 -322.161805 
L 172.798763 -324.455213 
L 172.79876 -326.748621 
L 172.798746 -329.042029 
L 172.798685 -331.335437 
L 172.798448 -333.628845 
L 172.797667 -335.922253 
L 172.795394 -338.215661 
L 172.789403 -340.509069 
L 172.774811 -342.802477 
L 172.741857 -345.095885 
L 172.673759 -347.389293 
L 172.547632 -349.6827 
L 172.342065 -351.976108 
L 172.050016 -354.269516 
L 171.685657 -356.562924 
L 171.27051 -358.856332 
L 170.801741 -361.14974 
L 170.234524 -363.443148 
L 169.5125 -365.736556 
L 168.632646 -368.029964 
L 167.677885 -370.323372 
L 166.768393 -372.61678 
L 165.969792 -374.910188 
L 165.250359 -377.203596 
L 164.529851 -379.497004 
L 163.772768 -381.790411 
L 163.046355 -384.083819 
L 162.49846 -386.377227 
L 162.272172 -388.670635 
L 162.427708 -390.964043 
L 162.936656 -393.257451 
L 163.735224 -395.550859 
L 164.762616 -397.844267 
L 165.951346 -400.137675 
L 167.211725 -402.431083 
L 168.449149 -404.724491 
L 169.591393 -407.017899 
L 170.590044 -409.311307 
L 171.406116 -411.604715 
L 174.19141 -411.604715 
L 174.19141 -411.604715 
L 175.007482 -409.311307 
L 176.006133 -407.017899 
L 177.148377 -404.724491 
L 178.385801 -402.431083 
L 179.64618 -400.137675 
L 180.83491 -397.844267 
L 181.862302 -395.550859 
L 182.660869 -393.257451 
L 183.169818 -390.964043 
L 183.325354 -388.670635 
L 183.099066 -386.377227 
L 182.551171 -384.083819 
L 181.824758 -381.790411 
L 181.067674 -379.497004 
L 180.347167 -377.203596 
L 179.627734 -374.910188 
L 178.829133 -372.61678 
L 177.919641 -370.323372 
L 176.96488 -368.029964 
L 176.085026 -365.736556 
L 175.363002 -363.443148 
L 174.795785 -361.14974 
L 174.327016 -358.856332 
L 173.911869 -356.562924 
L 173.54751 -354.269516 
L 173.255461 -351.976108 
L 173.049894 -349.6827 
L 172.923767 -347.389293 
L 172.855669 -345.095885 
L 172.822714 -342.802477 
L 172.808123 -340.509069 
L 172.802132 -338.215661 
L 172.799859 -335.922253 
L 172.799078 -333.628845 
L 172.798841 -331.335437 
L 172.79878 -329.042029 
L 172.798766 -326.748621 
L 172.798763 -324.455213 
L 172.798763 -322.161805 
L 172.798763 -319.868397 
L 172.798763 -317.574989 
L 172.798763 -315.281582 
L 172.798763 -312.988174 
L 172.798763 -310.694766 
L 172.798763 -308.401358 
L 172.798763 -306.10795 
L 172.798763 -303.814542 
L 172.798763 -301.521134 
L 172.798763 -299.227726 
L 172.798763 -296.934318 
L 172.798763 -294.64091 
L 172.798763 -292.347502 
L 172.798763 -290.054094 
L 172.798763 -287.760686 
L 172.798763 -285.467278 
L 172.798763 -283.173871 
L 172.798763 -280.880463 
L 172.798763 -278.587055 
L 172.798763 -276.293647 
L 172.798763 -274.000239 
L 172.798763 -271.706831 
L 172.798763 -269.413423 
L 172.798763 -267.120015 
L 172.798763 -264.826607 
L 172.798763 -262.533199 
L 172.798763 -260.239791 
L 172.798763 -257.946383 
L 172.798763 -255.652975 
L 172.798763 -253.359567 
L 172.798763 -251.066159 
L 172.798763 -248.772752 
L 172.798763 -246.479344 
L 172.798763 -244.185936 
L 172.798763 -241.892528 
L 172.798763 -239.59912 
L 172.798763 -237.305712 
L 172.798763 -235.012304 
L 172.798763 -232.718896 
L 172.798763 -230.425488 
L 172.798763 -228.13208 
L 172.798763 -225.838672 
L 172.798763 -223.545264 
L 172.798763 -221.251856 
L 172.798763 -218.958448 
L 172.798763 -216.665041 
L 172.798763 -214.371633 
L 172.798763 -212.078225 
L 172.798766 -209.784817 
L 172.798784 -207.491409 
L 172.798902 -205.198001 
L 172.799511 -202.904593 
L 172.802061 -200.611185 
L 172.810691 -198.317777 
L 172.834162 -196.024369 
L 172.884962 -193.730961 
L 172.971 -191.437553 
L 173.081157 -189.144145 
L 173.178685 -186.850737 
L 173.218174 -184.55733 
z
" id="mc6699fbea2" style="stroke:#444444;stroke-width:1.5;"/>
    </defs>
    <g clip-path="url(#pd04a91bc4f)">
     <use style="fill:#e68193;stroke:#444444;stroke-width:1.5;" x="0" xlink:href="#mc6699fbea2" y="458.815625"/>
    </g>
   </g>
   <g id="PolyCollection_6">
    <defs>
     <path d="M 194.44656 -184.55733 
L 193.25733 -184.55733 
L 193.257808 -186.732223 
L 193.259498 -188.907116 
L 193.262381 -191.082009 
L 193.266436 -193.256903 
L 193.271628 -195.431796 
L 193.27792 -197.606689 
L 193.285262 -199.781582 
L 193.293601 -201.956476 
L 193.302874 -204.131369 
L 193.313012 -206.306262 
L 193.323943 -208.481155 
L 193.335585 -210.656049 
L 193.347854 -212.830942 
L 193.36066 -215.005835 
L 193.37391 -217.180728 
L 193.387507 -219.355622 
L 193.401351 -221.530515 
L 193.41534 -223.705408 
L 193.429371 -225.880301 
L 193.443337 -228.055195 
L 193.457132 -230.230088 
L 193.47065 -232.404981 
L 193.483784 -234.579874 
L 193.496427 -236.754768 
L 193.508472 -238.929661 
L 193.519815 -241.104554 
L 193.530351 -243.279448 
L 193.539976 -245.454341 
L 193.54859 -247.629234 
L 193.556093 -249.804127 
L 193.562385 -251.979021 
L 193.56737 -254.153914 
L 193.570956 -256.328807 
L 193.573048 -258.5037 
L 193.573558 -260.678594 
L 193.572398 -262.853487 
L 193.569484 -265.02838 
L 193.564735 -267.203273 
L 193.558072 -269.378167 
L 193.549421 -271.55306 
L 193.538712 -273.727953 
L 193.525878 -275.902846 
L 193.510857 -278.07774 
L 193.493595 -280.252633 
L 193.474042 -282.427526 
L 193.452153 -284.602419 
L 193.427894 -286.777313 
L 193.401237 -288.952206 
L 193.372163 -291.127099 
L 193.340662 -293.301992 
L 193.306736 -295.476886 
L 193.270397 -297.651779 
L 193.231669 -299.826672 
L 193.190588 -302.001566 
L 193.147206 -304.176459 
L 193.101587 -306.351352 
L 193.053811 -308.526245 
L 193.00397 -310.701139 
L 192.952176 -312.876032 
L 192.898554 -315.050925 
L 192.843246 -317.225818 
L 192.78641 -319.400712 
L 192.728219 -321.575605 
L 192.668863 -323.750498 
L 192.608545 -325.925391 
L 192.547485 -328.100285 
L 192.485915 -330.275178 
L 192.424078 -332.450071 
L 192.36223 -334.624964 
L 192.300637 -336.799858 
L 192.239573 -338.974751 
L 192.179317 -341.149644 
L 192.120153 -343.324537 
L 192.062371 -345.499431 
L 192.006256 -347.674324 
L 191.952096 -349.849217 
L 191.900171 -352.02411 
L 191.850759 -354.199004 
L 191.804126 -356.373897 
L 191.760529 -358.54879 
L 191.72021 -360.723684 
L 191.683399 -362.898577 
L 191.650306 -365.07347 
L 191.621123 -367.248363 
L 191.59602 -369.423257 
L 191.575144 -371.59815 
L 191.558621 -373.773043 
L 191.546549 -375.947936 
L 191.539 -378.12283 
L 191.536021 -380.297723 
L 191.53763 -382.472616 
L 191.543818 -384.647509 
L 191.55455 -386.822403 
L 191.569762 -388.997296 
L 191.589365 -391.172189 
L 191.613245 -393.347082 
L 191.641263 -395.521976 
L 191.673256 -397.696869 
L 191.709042 -399.871762 
L 195.994847 -399.871762 
L 195.994847 -399.871762 
L 196.030633 -397.696869 
L 196.062626 -395.521976 
L 196.090644 -393.347082 
L 196.114524 -391.172189 
L 196.134127 -388.997296 
L 196.149339 -386.822403 
L 196.160071 -384.647509 
L 196.166259 -382.472616 
L 196.167868 -380.297723 
L 196.164889 -378.12283 
L 196.15734 -375.947936 
L 196.145268 -373.773043 
L 196.128745 -371.59815 
L 196.10787 -369.423257 
L 196.082766 -367.248363 
L 196.053583 -365.07347 
L 196.02049 -362.898577 
L 195.983679 -360.723684 
L 195.94336 -358.54879 
L 195.899763 -356.373897 
L 195.85313 -354.199004 
L 195.803718 -352.02411 
L 195.751794 -349.849217 
L 195.697633 -347.674324 
L 195.641518 -345.499431 
L 195.583736 -343.324537 
L 195.524573 -341.149644 
L 195.464316 -338.974751 
L 195.403252 -336.799858 
L 195.341659 -334.624964 
L 195.279811 -332.450071 
L 195.217974 -330.275178 
L 195.156404 -328.100285 
L 195.095344 -325.925391 
L 195.035026 -323.750498 
L 194.97567 -321.575605 
L 194.917479 -319.400712 
L 194.860643 -317.225818 
L 194.805335 -315.050925 
L 194.751713 -312.876032 
L 194.699919 -310.701139 
L 194.650079 -308.526245 
L 194.602302 -306.351352 
L 194.556683 -304.176459 
L 194.513301 -302.001566 
L 194.472221 -299.826672 
L 194.433492 -297.651779 
L 194.397153 -295.476886 
L 194.363227 -293.301992 
L 194.331726 -291.127099 
L 194.302652 -288.952206 
L 194.275995 -286.777313 
L 194.251736 -284.602419 
L 194.229847 -282.427526 
L 194.210294 -280.252633 
L 194.193032 -278.07774 
L 194.178011 -275.902846 
L 194.165177 -273.727953 
L 194.154468 -271.55306 
L 194.145817 -269.378167 
L 194.139154 -267.203273 
L 194.134405 -265.02838 
L 194.131491 -262.853487 
L 194.130331 -260.678594 
L 194.130841 -258.5037 
L 194.132934 -256.328807 
L 194.136519 -254.153914 
L 194.141504 -251.979021 
L 194.147797 -249.804127 
L 194.155299 -247.629234 
L 194.163913 -245.454341 
L 194.173538 -243.279448 
L 194.184074 -241.104554 
L 194.195417 -238.929661 
L 194.207462 -236.754768 
L 194.220105 -234.579874 
L 194.233239 -232.404981 
L 194.246757 -230.230088 
L 194.260552 -228.055195 
L 194.274518 -225.880301 
L 194.288549 -223.705408 
L 194.302538 -221.530515 
L 194.316382 -219.355622 
L 194.329979 -217.180728 
L 194.343229 -215.005835 
L 194.356035 -212.830942 
L 194.368304 -210.656049 
L 194.379946 -208.481155 
L 194.390877 -206.306262 
L 194.401016 -204.131369 
L 194.410288 -201.956476 
L 194.418627 -199.781582 
L 194.425969 -197.606689 
L 194.432261 -195.431796 
L 194.437453 -193.256903 
L 194.441508 -191.082009 
L 194.444391 -188.907116 
L 194.446081 -186.732223 
L 194.44656 -184.55733 
z
" id="m2eb0709fdc" style="stroke:#444444;stroke-width:1.5;"/>
    </defs>
    <g clip-path="url(#pd04a91bc4f)">
     <use style="fill:#459e97;stroke:#444444;stroke-width:1.5;" x="0" xlink:href="#m2eb0709fdc" y="458.815625"/>
    </g>
   </g>
   <g id="PolyCollection_7">
    <defs>
     <path d="M 225.829772 -184.55733 
L 225.033661 -184.55733 
L 225.058976 -186.072804 
L 225.125663 -187.588278 
L 225.211365 -189.103752 
L 225.292605 -190.619226 
L 225.354709 -192.1347 
L 225.394337 -193.650174 
L 225.415807 -195.165648 
L 225.425779 -196.681122 
L 225.429774 -198.196596 
L 225.431159 -199.71207 
L 225.431577 -201.227544 
L 225.431686 -202.743018 
L 225.431711 -204.258492 
L 225.431716 -205.773966 
L 225.431717 -207.28944 
L 225.431717 -208.804914 
L 225.431717 -210.320388 
L 225.431717 -211.835862 
L 225.431717 -213.351336 
L 225.431717 -214.86681 
L 225.431717 -216.382284 
L 225.431717 -217.897758 
L 225.431717 -219.413232 
L 225.431717 -220.928706 
L 225.431717 -222.44418 
L 225.431717 -223.959654 
L 225.431717 -225.475128 
L 225.431717 -226.990602 
L 225.431717 -228.506076 
L 225.431717 -230.02155 
L 225.431717 -231.537024 
L 225.431717 -233.052498 
L 225.431717 -234.567972 
L 225.431716 -236.083446 
L 225.431711 -237.59892 
L 225.431692 -239.114394 
L 225.431621 -240.629868 
L 225.431392 -242.145342 
L 225.430734 -243.660816 
L 225.429054 -245.17629 
L 225.42522 -246.691764 
L 225.417386 -248.207238 
L 225.403002 -249.722712 
L 225.379218 -251.238186 
L 225.343752 -252.75366 
L 225.295981 -254.269134 
L 225.23773 -255.784608 
L 225.173073 -257.300082 
L 225.106909 -258.815556 
L 225.042804 -260.33103 
L 224.981191 -261.846504 
L 224.919022 -263.361978 
L 224.851286 -264.877452 
L 224.773837 -266.392926 
L 224.686169 -267.9084 
L 224.592672 -269.423874 
L 224.501632 -270.939348 
L 224.422535 -272.454822 
L 224.36295 -273.970296 
L 224.325994 -275.48577 
L 224.308947 -277.001244 
L 224.303684 -278.516718 
L 224.299623 -280.032192 
L 224.288664 -281.547666 
L 224.269511 -283.06314 
L 224.248232 -284.578614 
L 224.23427 -286.094088 
L 224.23457 -287.609562 
L 224.249885 -289.125036 
L 224.275355 -290.64051 
L 224.303944 -292.155984 
L 224.32913 -293.671458 
L 224.343905 -295.186932 
L 224.335854 -296.702406 
L 224.28117 -298.21788 
L 224.142274 -299.733354 
L 223.87334 -301.248828 
L 223.43465 -302.764302 
L 222.81055 -304.279776 
L 222.020339 -305.79525 
L 221.112961 -307.310724 
L 220.146984 -308.826198 
L 219.169463 -310.341672 
L 218.209025 -311.857146 
L 217.286974 -313.37262 
L 216.435808 -314.888094 
L 215.709521 -316.403568 
L 215.177339 -317.919042 
L 214.905126 -319.434516 
L 214.936711 -320.94999 
L 215.284947 -322.465464 
L 215.932598 -323.980938 
L 216.836623 -325.496412 
L 217.932143 -327.011886 
L 219.138529 -328.52736 
L 220.369917 -330.042834 
L 221.546989 -331.558308 
L 222.604979 -333.073782 
L 223.497349 -334.589256 
L 227.366085 -334.589256 
L 227.366085 -334.589256 
L 228.258455 -333.073782 
L 229.316445 -331.558308 
L 230.493516 -330.042834 
L 231.724905 -328.52736 
L 232.931291 -327.011886 
L 234.026811 -325.496412 
L 234.930836 -323.980938 
L 235.578487 -322.465464 
L 235.926723 -320.94999 
L 235.958308 -319.434516 
L 235.686094 -317.919042 
L 235.153913 -316.403568 
L 234.427626 -314.888094 
L 233.57646 -313.37262 
L 232.654409 -311.857146 
L 231.693971 -310.341672 
L 230.71645 -308.826198 
L 229.750472 -307.310724 
L 228.843095 -305.79525 
L 228.052884 -304.279776 
L 227.428783 -302.764302 
L 226.990094 -301.248828 
L 226.72116 -299.733354 
L 226.582264 -298.21788 
L 226.52758 -296.702406 
L 226.519529 -295.186932 
L 226.534304 -293.671458 
L 226.55949 -292.155984 
L 226.588079 -290.64051 
L 226.613549 -289.125036 
L 226.628864 -287.609562 
L 226.629164 -286.094088 
L 226.615202 -284.578614 
L 226.593923 -283.06314 
L 226.574769 -281.547666 
L 226.563811 -280.032192 
L 226.55975 -278.516718 
L 226.554487 -277.001244 
L 226.53744 -275.48577 
L 226.500484 -273.970296 
L 226.440899 -272.454822 
L 226.361802 -270.939348 
L 226.270762 -269.423874 
L 226.177265 -267.9084 
L 226.089597 -266.392926 
L 226.012147 -264.877452 
L 225.944412 -263.361978 
L 225.882243 -261.846504 
L 225.82063 -260.33103 
L 225.756525 -258.815556 
L 225.690361 -257.300082 
L 225.625704 -255.784608 
L 225.567453 -254.269134 
L 225.519682 -252.75366 
L 225.484215 -251.238186 
L 225.460432 -249.722712 
L 225.446047 -248.207238 
L 225.438213 -246.691764 
L 225.43438 -245.17629 
L 225.4327 -243.660816 
L 225.432042 -242.145342 
L 225.431813 -240.629868 
L 225.431742 -239.114394 
L 225.431723 -237.59892 
L 225.431718 -236.083446 
L 225.431717 -234.567972 
L 225.431717 -233.052498 
L 225.431717 -231.537024 
L 225.431717 -230.02155 
L 225.431717 -228.506076 
L 225.431717 -226.990602 
L 225.431717 -225.475128 
L 225.431717 -223.959654 
L 225.431717 -222.44418 
L 225.431717 -220.928706 
L 225.431717 -219.413232 
L 225.431717 -217.897758 
L 225.431717 -216.382284 
L 225.431717 -214.86681 
L 225.431717 -213.351336 
L 225.431717 -211.835862 
L 225.431717 -210.320388 
L 225.431717 -208.804914 
L 225.431717 -207.28944 
L 225.431718 -205.773966 
L 225.431723 -204.258492 
L 225.431748 -202.743018 
L 225.431857 -201.227544 
L 225.432275 -199.71207 
L 225.43366 -198.196596 
L 225.437655 -196.681122 
L 225.447627 -195.165648 
L 225.469097 -193.650174 
L 225.508725 -192.1347 
L 225.570829 -190.619226 
L 225.652069 -189.103752 
L 225.737771 -187.588278 
L 225.804458 -186.072804 
L 225.829772 -184.55733 
z
" id="md5c40c2265" style="stroke:#444444;stroke-width:1.5;"/>
    </defs>
    <g clip-path="url(#pd04a91bc4f)">
     <use style="fill:#e68193;stroke:#444444;stroke-width:1.5;" x="0" xlink:href="#md5c40c2265" y="458.815625"/>
    </g>
   </g>
   <g id="PolyCollection_8">
    <defs>
     <path d="M 247.205257 -184.55733 
L 245.76454 -184.55733 
L 245.763756 -185.993909 
L 245.764329 -187.430489 
L 245.766221 -188.867069 
L 245.769387 -190.303649 
L 245.773767 -191.740229 
L 245.779291 -193.176808 
L 245.785879 -194.613388 
L 245.793442 -196.049968 
L 245.801879 -197.486548 
L 245.811083 -198.923128 
L 245.820938 -200.359707 
L 245.831321 -201.796287 
L 245.842105 -203.232867 
L 245.853155 -204.669447 
L 245.864334 -206.106027 
L 245.875503 -207.542606 
L 245.886519 -208.979186 
L 245.897239 -210.415766 
L 245.907522 -211.852346 
L 245.917226 -213.288926 
L 245.926211 -214.725505 
L 245.934343 -216.162085 
L 245.94149 -217.598665 
L 245.947523 -219.035245 
L 245.952323 -220.471825 
L 245.955773 -221.908404 
L 245.957765 -223.344984 
L 245.958198 -224.781564 
L 245.95698 -226.218144 
L 245.954024 -227.654724 
L 245.949255 -229.091303 
L 245.942605 -230.527883 
L 245.934015 -231.964463 
L 245.923435 -233.401043 
L 245.910825 -234.837623 
L 245.896154 -236.274203 
L 245.879398 -237.710782 
L 245.860544 -239.147362 
L 245.839589 -240.583942 
L 245.816536 -242.020522 
L 245.791398 -243.457102 
L 245.764196 -244.893681 
L 245.734959 -246.330261 
L 245.703726 -247.766841 
L 245.67054 -249.203421 
L 245.635457 -250.640001 
L 245.598535 -252.07658 
L 245.559842 -253.51316 
L 245.519455 -254.94974 
L 245.477455 -256.38632 
L 245.433931 -257.8229 
L 245.38898 -259.259479 
L 245.342704 -260.696059 
L 245.295214 -262.132639 
L 245.246626 -263.569219 
L 245.197064 -265.005799 
L 245.146657 -266.442378 
L 245.095542 -267.878958 
L 245.043862 -269.315538 
L 244.991766 -270.752118 
L 244.939409 -272.188698 
L 244.886953 -273.625277 
L 244.834565 -275.061857 
L 244.782418 -276.498437 
L 244.73069 -277.935017 
L 244.679561 -279.371597 
L 244.62922 -280.808176 
L 244.579854 -282.244756 
L 244.531658 -283.681336 
L 244.484824 -285.117916 
L 244.439548 -286.554496 
L 244.396027 -287.991075 
L 244.354453 -289.427655 
L 244.315019 -290.864235 
L 244.277915 -292.300815 
L 244.243324 -293.737395 
L 244.211425 -295.173975 
L 244.182388 -296.610554 
L 244.156377 -298.047134 
L 244.133544 -299.483714 
L 244.114029 -300.920294 
L 244.097961 -302.356874 
L 244.085455 -303.793453 
L 244.076608 -305.230033 
L 244.071504 -306.666613 
L 244.070209 -308.103193 
L 244.072769 -309.539773 
L 244.079211 -310.976352 
L 244.089546 -312.412932 
L 244.10376 -313.849512 
L 244.121823 -315.286092 
L 244.14368 -316.722672 
L 244.169262 -318.159251 
L 244.198473 -319.595831 
L 244.231204 -321.032411 
L 244.267323 -322.468991 
L 244.306682 -323.905571 
L 244.349116 -325.34215 
L 244.394444 -326.77873 
L 248.575353 -326.77873 
L 248.575353 -326.77873 
L 248.620681 -325.34215 
L 248.663115 -323.905571 
L 248.702474 -322.468991 
L 248.738593 -321.032411 
L 248.771324 -319.595831 
L 248.800536 -318.159251 
L 248.826117 -316.722672 
L 248.847975 -315.286092 
L 248.866037 -313.849512 
L 248.880251 -312.412932 
L 248.890586 -310.976352 
L 248.897028 -309.539773 
L 248.899588 -308.103193 
L 248.898293 -306.666613 
L 248.893189 -305.230033 
L 248.884343 -303.793453 
L 248.871836 -302.356874 
L 248.855768 -300.920294 
L 248.836253 -299.483714 
L 248.81342 -298.047134 
L 248.787409 -296.610554 
L 248.758373 -295.173975 
L 248.726473 -293.737395 
L 248.691882 -292.300815 
L 248.654778 -290.864235 
L 248.615344 -289.427655 
L 248.573771 -287.991075 
L 248.530249 -286.554496 
L 248.484973 -285.117916 
L 248.438139 -283.681336 
L 248.389943 -282.244756 
L 248.340577 -280.808176 
L 248.290236 -279.371597 
L 248.239107 -277.935017 
L 248.187379 -276.498437 
L 248.135232 -275.061857 
L 248.082844 -273.625277 
L 248.030388 -272.188698 
L 247.978031 -270.752118 
L 247.925935 -269.315538 
L 247.874255 -267.878958 
L 247.82314 -266.442378 
L 247.772733 -265.005799 
L 247.723171 -263.569219 
L 247.674583 -262.132639 
L 247.627093 -260.696059 
L 247.580817 -259.259479 
L 247.535866 -257.8229 
L 247.492342 -256.38632 
L 247.450342 -254.94974 
L 247.409955 -253.51316 
L 247.371262 -252.07658 
L 247.33434 -250.640001 
L 247.299257 -249.203421 
L 247.266071 -247.766841 
L 247.234838 -246.330261 
L 247.205601 -244.893681 
L 247.178399 -243.457102 
L 247.153261 -242.020522 
L 247.130208 -240.583942 
L 247.109253 -239.147362 
L 247.090399 -237.710782 
L 247.073644 -236.274203 
L 247.058972 -234.837623 
L 247.046362 -233.401043 
L 247.035782 -231.964463 
L 247.027192 -230.527883 
L 247.020542 -229.091303 
L 247.015773 -227.654724 
L 247.012817 -226.218144 
L 247.011599 -224.781564 
L 247.012032 -223.344984 
L 247.014024 -221.908404 
L 247.017474 -220.471825 
L 247.022274 -219.035245 
L 247.028307 -217.598665 
L 247.035454 -216.162085 
L 247.043586 -214.725505 
L 247.052571 -213.288926 
L 247.062275 -211.852346 
L 247.072558 -210.415766 
L 247.083278 -208.979186 
L 247.094294 -207.542606 
L 247.105463 -206.106027 
L 247.116642 -204.669447 
L 247.127692 -203.232867 
L 247.138476 -201.796287 
L 247.148859 -200.359707 
L 247.158714 -198.923128 
L 247.167918 -197.486548 
L 247.176355 -196.049968 
L 247.183918 -194.613388 
L 247.190506 -193.176808 
L 247.19603 -191.740229 
L 247.20041 -190.303649 
L 247.203576 -188.867069 
L 247.205468 -187.430489 
L 247.206041 -185.993909 
L 247.205257 -184.55733 
z
" id="m36201b8401" style="stroke:#444444;stroke-width:1.5;"/>
    </defs>
    <g clip-path="url(#pd04a91bc4f)">
     <use style="fill:#459e97;stroke:#444444;stroke-width:1.5;" x="0" xlink:href="#m36201b8401" y="458.815625"/>
    </g>
   </g>
   <g id="PolyCollection_9">
    <defs>
     <path d="M 278.598192 -184.55733 
L 277.53115 -184.55733 
L 277.561619 -185.368825 
L 277.642978 -186.18032 
L 277.750401 -186.991815 
L 277.856447 -187.80331 
L 277.942017 -188.614805 
L 278.000439 -189.4263 
L 278.034766 -190.237795 
L 278.052292 -191.04929 
L 278.060116 -191.860785 
L 278.063181 -192.67228 
L 278.064237 -193.483775 
L 278.064559 -194.29527 
L 278.064645 -195.106765 
L 278.064666 -195.91826 
L 278.06467 -196.729756 
L 278.064671 -197.541251 
L 278.064671 -198.352746 
L 278.064671 -199.164241 
L 278.064671 -199.975736 
L 278.064671 -200.787231 
L 278.064671 -201.598726 
L 278.064671 -202.410221 
L 278.064671 -203.221716 
L 278.064671 -204.033211 
L 278.064671 -204.844706 
L 278.064671 -205.656201 
L 278.064671 -206.467696 
L 278.064671 -207.279191 
L 278.064671 -208.090686 
L 278.06467 -208.902182 
L 278.064669 -209.713677 
L 278.064661 -210.525172 
L 278.06463 -211.336667 
L 278.064526 -212.148162 
L 278.064207 -212.959657 
L 278.063331 -213.771152 
L 278.061155 -214.582647 
L 278.05626 -215.394142 
L 278.046243 -216.205637 
L 278.027513 -217.017132 
L 277.995361 -217.828627 
L 277.94445 -218.640122 
L 277.869749 -219.451617 
L 277.767757 -220.263112 
L 277.637683 -221.074608 
L 277.482264 -221.886103 
L 277.307969 -222.697598 
L 277.124473 -223.509093 
L 276.943302 -224.320588 
L 276.775605 -225.132083 
L 276.629422 -225.943578 
L 276.507403 -226.755073 
L 276.40623 -227.566568 
L 276.318501 -228.378063 
L 276.236497 -229.189558 
L 276.156011 -230.001053 
L 276.078051 -230.812548 
L 276.007234 -231.624043 
L 275.947723 -232.435539 
L 275.899292 -233.247034 
L 275.856135 -234.058529 
L 275.808995 -234.870024 
L 275.748502 -235.681519 
L 275.666771 -236.493014 
L 275.556238 -237.304509 
L 275.407983 -238.116004 
L 275.213105 -238.927499 
L 274.968563 -239.738994 
L 274.684458 -240.550489 
L 274.386617 -241.361984 
L 274.109815 -242.173479 
L 273.883071 -242.984974 
L 273.714856 -243.796469 
L 273.586937 -244.607965 
L 273.459353 -245.41946 
L 273.281612 -246.230955 
L 273.0039 -247.04245 
L 272.587026 -247.853945 
L 272.01329 -248.66544 
L 271.297067 -249.476935 
L 270.488362 -250.28843 
L 269.663592 -251.099925 
L 268.906203 -251.91142 
L 268.286478 -252.722915 
L 267.848193 -253.53441 
L 267.603892 -254.345905 
L 267.53808 -255.1574 
L 267.619 -255.968895 
L 267.817922 -256.780391 
L 268.128437 -257.591886 
L 268.573938 -258.403381 
L 269.196092 -259.214876 
L 270.028317 -260.026371 
L 271.067818 -260.837866 
L 272.261252 -261.649361 
L 273.512132 -262.460856 
L 274.706847 -263.272351 
L 275.746917 -264.083846 
L 276.573061 -264.895341 
L 279.556281 -264.895341 
L 279.556281 -264.895341 
L 280.382425 -264.083846 
L 281.422495 -263.272351 
L 282.617209 -262.460856 
L 283.868089 -261.649361 
L 285.061524 -260.837866 
L 286.101025 -260.026371 
L 286.93325 -259.214876 
L 287.555404 -258.403381 
L 288.000905 -257.591886 
L 288.31142 -256.780391 
L 288.510342 -255.968895 
L 288.591262 -255.1574 
L 288.52545 -254.345905 
L 288.281149 -253.53441 
L 287.842864 -252.722915 
L 287.223138 -251.91142 
L 286.46575 -251.099925 
L 285.640979 -250.28843 
L 284.832275 -249.476935 
L 284.116052 -248.66544 
L 283.542316 -247.853945 
L 283.125442 -247.04245 
L 282.84773 -246.230955 
L 282.669989 -245.41946 
L 282.542405 -244.607965 
L 282.414486 -243.796469 
L 282.246271 -242.984974 
L 282.019527 -242.173479 
L 281.742725 -241.361984 
L 281.444884 -240.550489 
L 281.160779 -239.738994 
L 280.916237 -238.927499 
L 280.721359 -238.116004 
L 280.573104 -237.304509 
L 280.462571 -236.493014 
L 280.38084 -235.681519 
L 280.320347 -234.870024 
L 280.273207 -234.058529 
L 280.23005 -233.247034 
L 280.181619 -232.435539 
L 280.122108 -231.624043 
L 280.051291 -230.812548 
L 279.973331 -230.001053 
L 279.892845 -229.189558 
L 279.810841 -228.378063 
L 279.723112 -227.566568 
L 279.621939 -226.755073 
L 279.49992 -225.943578 
L 279.353737 -225.132083 
L 279.18604 -224.320588 
L 279.004868 -223.509093 
L 278.821373 -222.697598 
L 278.647078 -221.886103 
L 278.491659 -221.074608 
L 278.361585 -220.263112 
L 278.259593 -219.451617 
L 278.184892 -218.640122 
L 278.133981 -217.828627 
L 278.101829 -217.017132 
L 278.083099 -216.205637 
L 278.073082 -215.394142 
L 278.068187 -214.582647 
L 278.066011 -213.771152 
L 278.065134 -212.959657 
L 278.064816 -212.148162 
L 278.064712 -211.336667 
L 278.064681 -210.525172 
L 278.064673 -209.713677 
L 278.064671 -208.902182 
L 278.064671 -208.090686 
L 278.064671 -207.279191 
L 278.064671 -206.467696 
L 278.064671 -205.656201 
L 278.064671 -204.844706 
L 278.064671 -204.033211 
L 278.064671 -203.221716 
L 278.064671 -202.410221 
L 278.064671 -201.598726 
L 278.064671 -200.787231 
L 278.064671 -199.975736 
L 278.064671 -199.164241 
L 278.064671 -198.352746 
L 278.064671 -197.541251 
L 278.064672 -196.729756 
L 278.064676 -195.91826 
L 278.064697 -195.106765 
L 278.064783 -194.29527 
L 278.065104 -193.483775 
L 278.066161 -192.67228 
L 278.069226 -191.860785 
L 278.077049 -191.04929 
L 278.094576 -190.237795 
L 278.128903 -189.4263 
L 278.187325 -188.614805 
L 278.272895 -187.80331 
L 278.378941 -186.991815 
L 278.486364 -186.18032 
L 278.567723 -185.368825 
L 278.598192 -184.55733 
z
" id="m9b049e23e4" style="stroke:#444444;stroke-width:1.5;"/>
    </defs>
    <g clip-path="url(#pd04a91bc4f)">
     <use style="fill:#e68193;stroke:#444444;stroke-width:1.5;" x="0" xlink:href="#m9b049e23e4" y="458.815625"/>
    </g>
   </g>
   <g id="PolyCollection_10">
    <defs>
     <path d="M 300.203443 -184.55733 
L 298.032262 -184.55733 
L 298.030566 -185.312222 
L 298.031011 -186.067115 
L 298.033529 -186.822008 
L 298.038031 -187.576901 
L 298.044409 -188.331794 
L 298.052536 -189.086687 
L 298.062264 -189.84158 
L 298.07343 -190.596472 
L 298.085854 -191.351365 
L 298.09934 -192.106258 
L 298.113681 -192.861151 
L 298.128657 -193.616044 
L 298.144039 -194.370937 
L 298.15959 -195.12583 
L 298.175068 -195.880722 
L 298.190227 -196.635615 
L 298.204818 -197.390508 
L 298.218595 -198.145401 
L 298.231312 -198.900294 
L 298.242729 -199.655187 
L 298.252611 -200.41008 
L 298.260731 -201.164972 
L 298.266872 -201.919865 
L 298.270828 -202.674758 
L 298.272406 -203.429651 
L 298.271427 -204.184544 
L 298.267725 -204.939437 
L 298.261153 -205.69433 
L 298.251579 -206.449222 
L 298.238889 -207.204115 
L 298.222987 -207.959008 
L 298.203796 -208.713901 
L 298.181259 -209.468794 
L 298.155335 -210.223687 
L 298.126005 -210.97858 
L 298.093267 -211.733472 
L 298.057139 -212.488365 
L 298.017658 -213.243258 
L 297.974877 -213.998151 
L 297.928867 -214.753044 
L 297.879719 -215.507937 
L 297.827536 -216.26283 
L 297.772441 -217.017722 
L 297.714568 -217.772615 
L 297.654068 -218.527508 
L 297.591105 -219.282401 
L 297.525855 -220.037294 
L 297.458507 -220.792187 
L 297.389261 -221.54708 
L 297.318327 -222.301972 
L 297.245923 -223.056865 
L 297.172279 -223.811758 
L 297.097629 -224.566651 
L 297.022219 -225.321544 
L 296.946296 -226.076437 
L 296.870116 -226.831329 
L 296.793939 -227.586222 
L 296.718029 -228.341115 
L 296.642652 -229.096008 
L 296.568077 -229.850901 
L 296.494575 -230.605794 
L 296.422418 -231.360687 
L 296.351876 -232.115579 
L 296.28322 -232.870472 
L 296.216717 -233.625365 
L 296.152633 -234.380258 
L 296.091227 -235.135151 
L 296.032756 -235.890044 
L 295.977468 -236.644937 
L 295.925606 -237.399829 
L 295.877403 -238.154722 
L 295.833082 -238.909615 
L 295.792855 -239.664508 
L 295.756921 -240.419401 
L 295.725468 -241.174294 
L 295.698664 -241.929187 
L 295.676665 -242.684079 
L 295.659608 -243.438972 
L 295.64761 -244.193865 
L 295.640769 -244.948758 
L 295.639162 -245.703651 
L 295.642844 -246.458544 
L 295.651846 -247.213437 
L 295.666176 -247.968329 
L 295.685818 -248.723222 
L 295.710731 -249.478115 
L 295.74085 -250.233008 
L 295.776084 -250.987901 
L 295.816317 -251.742794 
L 295.86141 -252.497687 
L 295.911199 -253.252579 
L 295.965498 -254.007472 
L 296.0241 -254.762365 
L 296.086775 -255.517258 
L 296.153276 -256.272151 
L 296.223336 -257.027044 
L 296.296676 -257.781937 
L 296.373 -258.536829 
L 296.452002 -259.291722 
L 301.783703 -259.291722 
L 301.783703 -259.291722 
L 301.862705 -258.536829 
L 301.939029 -257.781937 
L 302.012369 -257.027044 
L 302.08243 -256.272151 
L 302.14893 -255.517258 
L 302.211605 -254.762365 
L 302.270207 -254.007472 
L 302.324506 -253.252579 
L 302.374295 -252.497687 
L 302.419388 -251.742794 
L 302.459621 -250.987901 
L 302.494855 -250.233008 
L 302.524974 -249.478115 
L 302.549887 -248.723222 
L 302.569529 -247.968329 
L 302.583859 -247.213437 
L 302.592861 -246.458544 
L 302.596543 -245.703651 
L 302.594936 -244.948758 
L 302.588095 -244.193865 
L 302.576097 -243.438972 
L 302.55904 -242.684079 
L 302.537041 -241.929187 
L 302.510238 -241.174294 
L 302.478784 -240.419401 
L 302.44285 -239.664508 
L 302.402623 -238.909615 
L 302.358302 -238.154722 
L 302.310099 -237.399829 
L 302.258237 -236.644937 
L 302.202949 -235.890044 
L 302.144478 -235.135151 
L 302.083073 -234.380258 
L 302.018988 -233.625365 
L 301.952485 -232.870472 
L 301.883829 -232.115579 
L 301.813287 -231.360687 
L 301.74113 -230.605794 
L 301.667628 -229.850901 
L 301.593054 -229.096008 
L 301.517676 -228.341115 
L 301.441766 -227.586222 
L 301.365589 -226.831329 
L 301.289409 -226.076437 
L 301.213486 -225.321544 
L 301.138076 -224.566651 
L 301.063427 -223.811758 
L 300.989782 -223.056865 
L 300.917378 -222.301972 
L 300.846444 -221.54708 
L 300.777198 -220.792187 
L 300.70985 -220.037294 
L 300.6446 -219.282401 
L 300.581637 -218.527508 
L 300.521137 -217.772615 
L 300.463264 -217.017722 
L 300.408169 -216.26283 
L 300.355986 -215.507937 
L 300.306838 -214.753044 
L 300.260829 -213.998151 
L 300.218047 -213.243258 
L 300.178566 -212.488365 
L 300.142438 -211.733472 
L 300.109701 -210.97858 
L 300.08037 -210.223687 
L 300.054446 -209.468794 
L 300.031909 -208.713901 
L 300.012718 -207.959008 
L 299.996816 -207.204115 
L 299.984126 -206.449222 
L 299.974552 -205.69433 
L 299.96798 -204.939437 
L 299.964278 -204.184544 
L 299.963299 -203.429651 
L 299.964877 -202.674758 
L 299.968833 -201.919865 
L 299.974974 -201.164972 
L 299.983094 -200.41008 
L 299.992976 -199.655187 
L 300.004393 -198.900294 
L 300.01711 -198.145401 
L 300.030887 -197.390508 
L 300.045478 -196.635615 
L 300.060637 -195.880722 
L 300.076115 -195.12583 
L 300.091666 -194.370937 
L 300.107048 -193.616044 
L 300.122024 -192.861151 
L 300.136365 -192.106258 
L 300.149851 -191.351365 
L 300.162275 -190.596472 
L 300.173441 -189.84158 
L 300.18317 -189.086687 
L 300.191296 -188.331794 
L 300.197674 -187.576901 
L 300.202176 -186.822008 
L 300.204694 -186.067115 
L 300.205139 -185.312222 
L 300.203443 -184.55733 
z
" id="m2ae6c9c711" style="stroke:#444444;stroke-width:1.5;"/>
    </defs>
    <g clip-path="url(#pd04a91bc4f)">
     <use style="fill:#459e97;stroke:#444444;stroke-width:1.5;" x="0" xlink:href="#m2ae6c9c711" y="458.815625"/>
    </g>
   </g>
   <g id="patch_3">
    <path clip-path="url(#pd04a91bc4f)" d="M 78.059446 274.258295 
L 78.059446 274.258295 
L 78.059446 274.258295 
L 78.059446 274.258295 
z
" style="fill:#e68193;stroke:#444444;stroke-linejoin:miter;stroke-width:0.75;"/>
   </g>
   <g id="patch_4">
    <path clip-path="url(#pd04a91bc4f)" d="M 78.059446 274.258295 
L 78.059446 274.258295 
L 78.059446 274.258295 
L 78.059446 274.258295 
z
" style="fill:#459e97;stroke:#444444;stroke-linejoin:miter;stroke-width:0.75;"/>
   </g>
   <g id="line2d_1">
    <path clip-path="url(#pd04a91bc4f)" d="M 67.532855 100.968532 
L 67.532855 42.774205 
" style="fill:none;stroke:#444444;stroke-linecap:round;stroke-width:1.5;"/>
   </g>
   <g id="line2d_2">
    <path clip-path="url(#pd04a91bc4f)" d="M 67.532855 76.546812 
L 67.532855 60.222551 
" style="fill:none;stroke:#444444;stroke-linecap:round;stroke-width:4.5;"/>
   </g>
   <g id="line2d_3">
    <path clip-path="url(#pd04a91bc4f)" d="M 88.586037 98.842123 
L 88.586037 55.650375 
" style="fill:none;stroke:#444444;stroke-linecap:round;stroke-width:1.5;"/>
   </g>
   <g id="line2d_4">
    <path clip-path="url(#pd04a91bc4f)" d="M 88.586037 95.197763 
L 88.586037 69.986356 
" style="fill:none;stroke:#444444;stroke-linecap:round;stroke-width:4.5;"/>
   </g>
   <g id="line2d_5">
    <path clip-path="url(#pd04a91bc4f)" d="M 120.165809 165.07182 
L 120.165809 121.48079 
" style="fill:none;stroke:#444444;stroke-linecap:round;stroke-width:1.5;"/>
   </g>
   <g id="line2d_6">
    <path clip-path="url(#pd04a91bc4f)" d="M 120.165809 145.872664 
L 120.165809 133.050017 
" style="fill:none;stroke:#444444;stroke-linecap:round;stroke-width:4.5;"/>
   </g>
   <g id="line2d_7">
    <path clip-path="url(#pd04a91bc4f)" d="M 141.218991 188.825174 
L 141.218991 130.172752 
" style="fill:none;stroke:#444444;stroke-linecap:round;stroke-width:1.5;"/>
   </g>
   <g id="line2d_8">
    <path clip-path="url(#pd04a91bc4f)" d="M 141.218991 188.492318 
L 141.218991 140.055425 
" style="fill:none;stroke:#444444;stroke-linecap:round;stroke-width:4.5;"/>
   </g>
   <g id="line2d_9">
    <path clip-path="url(#pd04a91bc4f)" d="M 172.798763 107.21572 
L 172.798763 47.21091 
" style="fill:none;stroke:#444444;stroke-linecap:round;stroke-width:1.5;"/>
   </g>
   <g id="line2d_10">
    <path clip-path="url(#pd04a91bc4f)" d="M 172.798763 81.709684 
L 172.798763 63.962918 
" style="fill:none;stroke:#444444;stroke-linecap:round;stroke-width:4.5;"/>
   </g>
   <g id="line2d_11">
    <path clip-path="url(#pd04a91bc4f)" d="M 193.851945 98.842123 
L 193.851945 58.943863 
" style="fill:none;stroke:#444444;stroke-linecap:round;stroke-width:1.5;"/>
   </g>
   <g id="line2d_12">
    <path clip-path="url(#pd04a91bc4f)" d="M 193.851945 95.197763 
L 193.851945 74.131412 
" style="fill:none;stroke:#444444;stroke-linecap:round;stroke-width:4.5;"/>
   </g>
   <g id="line2d_13">
    <path clip-path="url(#pd04a91bc4f)" d="M 225.431717 171.08026 
L 225.431717 124.226369 
" style="fill:none;stroke:#444444;stroke-linecap:round;stroke-width:1.5;"/>
   </g>
   <g id="line2d_14">
    <path clip-path="url(#pd04a91bc4f)" d="M 225.431717 149.672703 
L 225.431717 135.387739 
" style="fill:none;stroke:#444444;stroke-linecap:round;stroke-width:4.5;"/>
   </g>
   <g id="line2d_15">
    <path clip-path="url(#pd04a91bc4f)" d="M 246.484899 188.825174 
L 246.484899 132.036895 
" style="fill:none;stroke:#444444;stroke-linecap:round;stroke-width:1.5;"/>
   </g>
   <g id="line2d_16">
    <path clip-path="url(#pd04a91bc4f)" d="M 246.484899 188.492318 
L 246.484899 142.735876 
" style="fill:none;stroke:#444444;stroke-linecap:round;stroke-width:4.5;"/>
   </g>
   <g id="line2d_17">
    <path clip-path="url(#pd04a91bc4f)" d="M 278.064671 236.11863 
L 278.064671 193.920284 
" style="fill:none;stroke:#444444;stroke-linecap:round;stroke-width:1.5;"/>
   </g>
   <g id="line2d_18">
    <path clip-path="url(#pd04a91bc4f)" d="M 278.064671 215.49695 
L 278.064671 201.689476 
" style="fill:none;stroke:#444444;stroke-linecap:round;stroke-width:4.5;"/>
   </g>
   <g id="line2d_19">
    <path clip-path="url(#pd04a91bc4f)" d="M 299.117853 233.150908 
L 299.117853 199.523903 
" style="fill:none;stroke:#444444;stroke-linecap:round;stroke-width:1.5;"/>
   </g>
   <g id="line2d_20">
    <path clip-path="url(#pd04a91bc4f)" d="M 299.117853 231.369318 
L 299.117853 207.052109 
" style="fill:none;stroke:#444444;stroke-linecap:round;stroke-width:4.5;"/>
   </g>
   <g id="patch_5">
    <path d="M 51.742969 285.8325 
L 314.907739 285.8325 
" style="fill:none;stroke:#262626;stroke-linecap:square;stroke-linejoin:miter;stroke-width:1.875;"/>
   </g>
   <g id="PathCollection_1">
    <defs>
     <path d="M 0 1.5 
C 0.397805 1.5 0.77937 1.341951 1.06066 1.06066 
C 1.341951 0.77937 1.5 0.397805 1.5 0 
C 1.5 -0.397805 1.341951 -0.77937 1.06066 -1.06066 
C 0.77937 -1.341951 0.397805 -1.5 0 -1.5 
C -0.397805 -1.5 -0.77937 -1.341951 -1.06066 -1.06066 
C -1.341951 -0.77937 -1.5 -0.397805 -1.5 0 
C -1.5 0.397805 -1.341951 0.77937 -1.06066 1.06066 
C -0.77937 1.341951 -0.397805 1.5 0 1.5 
z
" id="m4620ec0d9d" style="stroke:#444444;stroke-width:1.5;"/>
    </defs>
    <g clip-path="url(#pd04a91bc4f)">
     <use style="fill:#ffffff;stroke:#444444;stroke-width:1.5;" x="67.532855" xlink:href="#m4620ec0d9d" y="69.613227"/>
    </g>
   </g>
   <g id="PathCollection_2">
    <g clip-path="url(#pd04a91bc4f)">
     <use style="fill:#ffffff;stroke:#444444;stroke-width:1.5;" x="88.586037" xlink:href="#m4620ec0d9d" y="77.611299"/>
    </g>
   </g>
   <g id="PathCollection_3">
    <g clip-path="url(#pd04a91bc4f)">
     <use style="fill:#ffffff;stroke:#444444;stroke-width:1.5;" x="120.165809" xlink:href="#m4620ec0d9d" y="139.486208"/>
    </g>
   </g>
   <g id="PathCollection_4">
    <g clip-path="url(#pd04a91bc4f)">
     <use style="fill:#ffffff;stroke:#444444;stroke-width:1.5;" x="141.218991" xlink:href="#m4620ec0d9d" y="153.110256"/>
    </g>
   </g>
   <g id="PathCollection_5">
    <g clip-path="url(#pd04a91bc4f)">
     <use style="fill:#ffffff;stroke:#444444;stroke-width:1.5;" x="172.798763" xlink:href="#m4620ec0d9d" y="71.9808"/>
    </g>
   </g>
   <g id="PathCollection_6">
    <g clip-path="url(#pd04a91bc4f)">
     <use style="fill:#ffffff;stroke:#444444;stroke-width:1.5;" x="193.851945" xlink:href="#m4620ec0d9d" y="81.869486"/>
    </g>
   </g>
   <g id="PathCollection_7">
    <g clip-path="url(#pd04a91bc4f)">
     <use style="fill:#ffffff;stroke:#444444;stroke-width:1.5;" x="225.431717" xlink:href="#m4620ec0d9d" y="141.137538"/>
    </g>
   </g>
   <g id="PathCollection_8">
    <g clip-path="url(#pd04a91bc4f)">
     <use style="fill:#ffffff;stroke:#444444;stroke-width:1.5;" x="246.484899" xlink:href="#m4620ec0d9d" y="153.113533"/>
    </g>
   </g>
   <g id="PathCollection_9">
    <g clip-path="url(#pd04a91bc4f)">
     <use style="fill:#ffffff;stroke:#444444;stroke-width:1.5;" x="278.064671" xlink:href="#m4620ec0d9d" y="206.633509"/>
    </g>
   </g>
   <g id="PathCollection_10">
    <g clip-path="url(#pd04a91bc4f)">
     <use style="fill:#ffffff;stroke:#444444;stroke-width:1.5;" x="299.117853" xlink:href="#m4620ec0d9d" y="217.827025"/>
    </g>
   </g>
  </g>
  <g id="text_14">
   <!-- Cassava -->
   <defs>
    <path d="M 58.796875 25.09375 
L 68.265625 22.703125 
Q 65.28125 11.03125 57.546875 4.90625 
Q 49.8125 -1.21875 38.625 -1.21875 
Q 27.046875 -1.21875 19.796875 3.484375 
Q 12.546875 8.203125 8.765625 17.140625 
Q 4.984375 26.078125 4.984375 36.328125 
Q 4.984375 47.515625 9.25 55.828125 
Q 13.53125 64.15625 21.40625 68.46875 
Q 29.296875 72.796875 38.765625 72.796875 
Q 49.515625 72.796875 56.828125 67.328125 
Q 64.15625 61.859375 67.046875 51.953125 
L 57.71875 49.75 
Q 55.21875 57.5625 50.484375 61.125 
Q 45.75 64.703125 38.578125 64.703125 
Q 30.328125 64.703125 24.78125 60.734375 
Q 19.234375 56.78125 16.984375 50.109375 
Q 14.75 43.453125 14.75 36.375 
Q 14.75 27.25 17.40625 20.4375 
Q 20.0625 13.625 25.671875 10.25 
Q 31.296875 6.890625 37.84375 6.890625 
Q 45.796875 6.890625 51.3125 11.46875 
Q 56.84375 16.0625 58.796875 25.09375 
z
" id="ArialMT-67"/>
    <path d="M 3.078125 15.484375 
L 11.765625 16.84375 
Q 12.5 11.625 15.84375 8.84375 
Q 19.1875 6.0625 25.203125 6.0625 
Q 31.25 6.0625 34.171875 8.515625 
Q 37.109375 10.984375 37.109375 14.3125 
Q 37.109375 17.28125 34.515625 19 
Q 32.71875 20.171875 25.53125 21.96875 
Q 15.875 24.421875 12.140625 26.203125 
Q 8.40625 27.984375 6.46875 31.125 
Q 4.546875 34.28125 4.546875 38.09375 
Q 4.546875 41.546875 6.125 44.5 
Q 7.71875 47.46875 10.453125 49.421875 
Q 12.5 50.921875 16.03125 51.96875 
Q 19.578125 53.03125 23.640625 53.03125 
Q 29.734375 53.03125 34.34375 51.265625 
Q 38.96875 49.515625 41.15625 46.5 
Q 43.359375 43.5 44.1875 38.484375 
L 35.59375 37.3125 
Q 35.015625 41.3125 32.203125 43.546875 
Q 29.390625 45.796875 24.265625 45.796875 
Q 18.21875 45.796875 15.625 43.796875 
Q 13.03125 41.796875 13.03125 39.109375 
Q 13.03125 37.40625 14.109375 36.03125 
Q 15.1875 34.625 17.484375 33.6875 
Q 18.796875 33.203125 25.25 31.453125 
Q 34.578125 28.953125 38.25 27.359375 
Q 41.9375 25.78125 44.03125 22.75 
Q 46.140625 19.734375 46.140625 15.234375 
Q 46.140625 10.84375 43.578125 6.953125 
Q 41.015625 3.078125 36.171875 0.953125 
Q 31.34375 -1.171875 25.25 -1.171875 
Q 15.140625 -1.171875 9.84375 3.03125 
Q 4.546875 7.234375 3.078125 15.484375 
z
" id="ArialMT-115"/>
    <path d="M 21 0 
L 1.265625 51.859375 
L 10.546875 51.859375 
L 21.6875 20.796875 
Q 23.484375 15.765625 25 10.359375 
Q 26.171875 14.453125 28.265625 20.21875 
L 39.796875 51.859375 
L 48.828125 51.859375 
L 29.203125 0 
z
" id="ArialMT-118"/>
   </defs>
   <g style="fill:#262626;" transform="translate(151.662476 15.460875)scale(0.216 -0.216)">
    <use xlink:href="#ArialMT-67"/>
    <use x="72.216797" xlink:href="#ArialMT-97"/>
    <use x="127.832031" xlink:href="#ArialMT-115"/>
    <use x="177.832031" xlink:href="#ArialMT-115"/>
    <use x="227.832031" xlink:href="#ArialMT-97"/>
    <use x="283.447266" xlink:href="#ArialMT-118"/>
    <use x="333.447266" xlink:href="#ArialMT-97"/>
   </g>
  </g>
  <g id="legend_1">
   <g id="text_15">
    <!-- index -->
    <defs>
     <path d="M 0.734375 0 
L 19.671875 26.953125 
L 2.15625 51.859375 
L 13.140625 51.859375 
L 21.09375 39.703125 
Q 23.34375 36.234375 24.703125 33.890625 
Q 26.859375 37.109375 28.65625 39.59375 
L 37.40625 51.859375 
L 47.90625 51.859375 
L 29.984375 27.4375 
L 49.265625 0 
L 38.484375 0 
L 27.828125 16.109375 
L 25 20.453125 
L 11.375 0 
z
" id="ArialMT-120"/>
    </defs>
    <g style="fill:#262626;" transform="translate(338.984914 210.023336)scale(0.153 -0.153)">
     <use xlink:href="#ArialMT-105"/>
     <use x="22.216797" xlink:href="#ArialMT-110"/>
     <use x="77.832031" xlink:href="#ArialMT-100"/>
     <use x="133.447266" xlink:href="#ArialMT-101"/>
     <use x="189.0625" xlink:href="#ArialMT-120"/>
    </g>
   </g>
   <g id="patch_6">
    <path d="M 309.874461 233.124602 
L 342.874461 233.124602 
L 342.874461 221.574602 
L 309.874461 221.574602 
z
" style="fill:#e68193;stroke:#444444;stroke-linejoin:miter;stroke-width:0.75;"/>
   </g>
   <g id="text_16">
    <!-- actual -->
    <defs>
     <path d="M 40.4375 19 
L 49.078125 17.875 
Q 47.65625 8.9375 41.8125 3.875 
Q 35.984375 -1.171875 27.484375 -1.171875 
Q 16.84375 -1.171875 10.375 5.78125 
Q 3.90625 12.75 3.90625 25.734375 
Q 3.90625 34.125 6.6875 40.421875 
Q 9.46875 46.734375 15.15625 49.875 
Q 20.84375 53.03125 27.546875 53.03125 
Q 35.984375 53.03125 41.359375 48.75 
Q 46.734375 44.484375 48.25 36.625 
L 39.703125 35.296875 
Q 38.484375 40.53125 35.375 43.15625 
Q 32.28125 45.796875 27.875 45.796875 
Q 21.234375 45.796875 17.078125 41.03125 
Q 12.9375 36.28125 12.9375 25.984375 
Q 12.9375 15.53125 16.9375 10.796875 
Q 20.953125 6.0625 27.390625 6.0625 
Q 32.5625 6.0625 36.03125 9.234375 
Q 39.5 12.40625 40.4375 19 
z
" id="ArialMT-99"/>
     <path d="M 40.578125 0 
L 40.578125 7.625 
Q 34.515625 -1.171875 24.125 -1.171875 
Q 19.53125 -1.171875 15.546875 0.578125 
Q 11.578125 2.34375 9.640625 5 
Q 7.71875 7.671875 6.9375 11.53125 
Q 6.390625 14.109375 6.390625 19.734375 
L 6.390625 51.859375 
L 15.1875 51.859375 
L 15.1875 23.09375 
Q 15.1875 16.21875 15.71875 13.8125 
Q 16.546875 10.359375 19.234375 8.375 
Q 21.921875 6.390625 25.875 6.390625 
Q 29.828125 6.390625 33.296875 8.421875 
Q 36.765625 10.453125 38.203125 13.9375 
Q 39.65625 17.4375 39.65625 24.078125 
L 39.65625 51.859375 
L 48.4375 51.859375 
L 48.4375 0 
z
" id="ArialMT-117"/>
    </defs>
    <g style="fill:#262626;" transform="translate(356.074461 233.124602)scale(0.165 -0.165)">
     <use xlink:href="#ArialMT-97"/>
     <use x="55.615234" xlink:href="#ArialMT-99"/>
     <use x="105.615234" xlink:href="#ArialMT-116"/>
     <use x="133.398438" xlink:href="#ArialMT-117"/>
     <use x="189.013672" xlink:href="#ArialMT-97"/>
     <use x="244.628906" xlink:href="#ArialMT-108"/>
    </g>
   </g>
   <g id="patch_7">
    <path d="M 309.874461 256.464367 
L 342.874461 256.464367 
L 342.874461 244.914367 
L 309.874461 244.914367 
z
" style="fill:#459e97;stroke:#444444;stroke-linejoin:miter;stroke-width:0.75;"/>
   </g>
   <g id="text_17">
    <!-- cluster -->
    <g style="fill:#262626;" transform="translate(356.074461 256.464367)scale(0.165 -0.165)">
     <use xlink:href="#ArialMT-99"/>
     <use x="50" xlink:href="#ArialMT-108"/>
     <use x="72.216797" xlink:href="#ArialMT-117"/>
     <use x="127.832031" xlink:href="#ArialMT-115"/>
     <use x="177.832031" xlink:href="#ArialMT-116"/>
     <use x="205.615234" xlink:href="#ArialMT-101"/>
     <use x="261.230469" xlink:href="#ArialMT-114"/>
    </g>
   </g>
  </g>
 </g>
 <defs>
  <clipPath id="pd04a91bc4f">
   <rect height="254.6325" width="263.16477" x="51.742969" y="31.2"/>
  </clipPath>
 </defs>
</svg>
